<svg width="371" height="269" viewBox="0 0 371 269" fill="none" xmlns="http://www.w3.org/2000/svg">
<path d="M42.9062 81.4541C42.9237 81.46 42.9426 81.46 42.9601 81.4541H42.9062Z" fill="white"/>
<path d="M2.35359 268.295C2.6096 268.344 2.87285 268.34 3.12759 268.285C3.38234 268.23 3.62336 268.124 3.83622 267.974C4.04908 267.823 4.22941 267.632 4.36642 267.41C4.50343 267.188 4.59431 266.941 4.63362 266.683C5.04909 263.836 5.46456 260.983 5.88003 258.126C6.89338 251.139 7.92193 244.159 8.96567 237.187C12.2489 215.55 15.2889 193.867 19.1498 172.321L52.9246 178.705C54.1178 208.003 54.2014 237.347 55.881 266.623C55.8942 267.201 56.1174 267.756 56.5089 268.182C56.9004 268.608 57.4335 268.878 58.009 268.941C59.0123 269.062 60.4563 268.348 60.3803 267.147C59.0654 244.712 58.769 222.223 58.1002 199.765C57.9102 192.575 57.9102 185.324 57.3402 178.165C57.3402 174.593 54.8626 175.011 52.0202 174.365C52.3166 164.234 52.841 154.096 53.9202 144.018C54.4218 139.496 54.9386 134.807 56.8462 130.619C58.4194 126.781 61.6799 124.159 65.0543 121.932C68.2084 119.713 71.6436 117.22 72.434 113.184C72.9584 110.517 71.9324 107.864 71.0888 105.387L68.1704 96.8062C67.3267 94.3134 66.6503 91.7065 64.6819 89.8141C61.3683 86.8805 56.8842 85.3301 53.107 83.05C53.639 68.2147 54.1735 53.3742 54.7106 38.5287C54.8525 34.3436 55.0019 30.1509 55.159 25.9506C55.2973 25.2886 55.2402 24.6006 54.9946 23.9705C54.749 23.3404 54.3256 22.7952 53.7758 22.4013L47.3841 16.7925C47.1204 16.4507 46.7695 16.1864 46.3683 16.0272C45.967 15.8681 45.5303 15.82 45.1041 15.8881C40.0272 15.1281 34.7148 15.3637 29.6151 15.6145C29.1545 15.6352 28.7158 15.817 28.3755 16.1281C28.0352 16.4393 27.8149 16.86 27.7531 17.3169C27.4288 39.3419 27.1425 61.367 26.8943 83.392C25.3743 86.2041 23.9682 89.0997 22.4862 91.9421C21.1866 94.473 19.697 97.0342 19.1194 99.8462C17.9034 105.729 21.8022 110.532 23.9378 115.677C24.8034 117.795 25.5494 119.959 26.1723 122.16C25.0019 137.71 23.8492 153.265 22.7142 168.825L17.4626 167.829C16.9998 167.752 16.5245 167.831 16.1117 168.054C15.6988 168.277 15.3719 168.631 15.1825 169.06C14.0881 173.749 13.3965 178.553 12.6213 183.295C9.90808 199.97 7.41525 216.675 4.92242 233.387C3.47334 243.116 2.03946 252.846 0.620774 262.579C0.445972 263.742 0.217969 264.92 0.111568 266.091C0.00516671 267.261 1.31238 268.203 2.35359 268.295ZM52.8182 177.443C52.8182 177.443 52.8182 177.443 52.8182 177.481C52.727 177.23 52.8182 177.208 52.8182 177.443ZM50.2341 44.2212C49.7984 56.3813 49.3627 68.5415 48.9269 80.7016C48.0301 80.2076 47.0649 79.6528 46.0541 79.1816C46.7229 60.3182 47.2245 41.432 47.8325 22.5609L50.9182 25.259L50.2341 44.2212ZM43.3941 19.7793C42.7911 39.2862 42.1882 58.7931 41.5852 78.3C39.3736 78.5508 38.0132 80.7168 37.0252 82.5332C35.0356 85.9026 33.3688 89.4524 32.0471 93.1354L31.2871 92.8922C31.4999 68.4731 31.8571 44.0616 32.2067 19.6425C35.9353 19.4662 39.671 19.5118 43.3941 19.7793ZM29.4555 119.606C28.571 116.476 27.4244 113.425 26.0279 110.486C24.8119 107.933 22.8434 105.311 22.5698 102.43C22.3722 98.4326 25.3363 95.0202 26.8487 91.5241C26.9019 93.1202 26.3243 95.4534 28.2547 96.1678L32.4119 97.5054C32.7833 97.6447 33.1815 97.6979 33.5764 97.6611C33.9713 97.6242 34.3528 97.4982 34.692 97.2926C34.8996 97.2512 35.0942 97.1606 35.2596 97.0283C35.4249 96.8961 35.556 96.7261 35.642 96.5326C37.294 91.319 39.6461 86.3539 42.6341 81.7732L42.8697 81.4768C42.6341 81.2868 42.7481 81.4768 42.8697 81.4768C42.9913 81.3856 42.9989 81.302 42.8697 81.4768C45.0281 82.3432 46.9737 83.6657 49.0561 84.7145C49.2915 85.0886 49.6194 85.3958 50.0081 85.6061C50.3969 85.8165 50.8334 85.923 51.2754 85.9153C54.4446 87.8153 58.1154 89.0997 60.9959 91.4633C62.7591 93.0442 63.2759 95.9018 64.0359 98.045L66.7719 106.094C67.532 108.374 68.5048 110.737 67.8207 113.131C66.9011 116.361 63.5495 118.36 60.9807 120.169C57.4694 122.449 54.2546 125.375 52.6206 129.289C50.7586 133.378 50.0897 137.9 49.5805 142.323C48.4177 152.674 47.8705 163.087 47.5589 173.484L26.3319 169.478C27.3452 155.798 28.3586 142.118 29.3719 128.438C29.4327 125.466 30.2611 122.593 29.4555 119.606Z" fill="white"/>
<path d="M250.05 11.9437L250.118 9.89168C250.156 9.38248 249.753 9.04047 249.495 8.63767C247.443 6.03844 245.474 3.31761 243.331 0.824776C242.693 0.0647672 241.743 0.0647672 240.823 0.0647672C228.792 -0.186036 216.754 0.353569 204.73 0.627172C199.099 0.771574 193.467 0.931176 187.835 1.03758C187.472 1.05474 187.116 1.14251 186.786 1.29598C185.502 1.15918 183.587 2.05599 183.541 3.4088C183.062 16.785 182.979 30.1763 182.842 43.5601C182.69 58.0002 182.591 72.4404 182.082 86.8806C182.103 87.1474 182.195 87.4038 182.347 87.624C182.499 87.8442 182.706 88.0204 182.948 88.1346C183.708 88.6818 184.468 89.2138 185.289 89.7534L190.138 93.105C191.828 93.7109 193.61 94.017 195.405 94.0095C195.572 98.0375 196.522 102.126 199.007 105.372C201.059 108.047 204.905 109.719 205.452 113.336C205.81 115.708 205.498 118.201 205.399 120.579C205.105 127.587 204.811 134.594 204.517 141.601C203.689 141.35 202.861 141.1 202.04 140.841C200.717 140.416 198.855 141.472 198.802 142.984C198.316 158.595 197.974 174.213 197.556 189.831C196.907 215.555 196.269 241.279 195.641 267.003C195.352 269.974 199.547 269.001 199.623 266.645C199.714 262.845 199.808 259.045 199.904 255.245C200.824 218.674 201.683 182.102 202.701 145.53C214.764 149.071 227.317 150.651 239.881 150.212C243.263 189.307 243.848 228.592 247.291 267.679C247.39 268.789 248.606 269.108 249.518 268.766C250.051 268.566 250.509 268.206 250.829 267.735C251.149 267.264 251.315 266.706 251.304 266.136C247.815 226.616 247.268 186.913 243.78 147.4C243.704 146.473 242.875 146.138 242.077 146.176C240.96 146.23 239.843 146.26 238.725 146.275C237.861 138.961 236.49 131.716 234.621 124.592C232.387 117.661 234.059 114.15 237.661 108.229C239.721 104.627 241.583 100.454 240.975 96.2363C245.626 96.0995 249.335 98.0831 249.016 91.509C249.145 86.7286 249.244 81.9329 249.069 77.1525C249.016 75.9593 248.803 74.8724 247.891 74.3252C247.8 73.5196 247.131 72.904 246.698 72.2352C245.877 71.0344 245.117 69.788 244.327 68.5644C243.688 67.4776 242.928 66.1779 241.5 66.2235C237.631 65.8891 233.709 65.8587 229.833 65.8511C229.509 65.8531 229.189 65.9216 228.892 66.0523C228.595 66.183 228.328 66.3732 228.108 66.6111C222.861 64.9069 217.25 64.6626 211.874 65.9043C211.92 64.6807 211.973 63.4495 212.026 62.2259C220.835 62.1727 229.643 62.4767 238.444 62.7351C239.964 62.7807 241.538 62.7351 243.065 62.9175C243.391 62.9455 243.719 62.9086 244.03 62.8089C244.342 62.7091 244.63 62.5486 244.879 62.3365C245.128 62.1244 245.332 61.865 245.48 61.5733C245.628 61.2817 245.716 60.9636 245.74 60.6375L246.128 44.8977C246.1 44.5432 245.958 44.2074 245.722 43.9413C245.486 43.6752 245.169 43.4933 244.821 43.4233C243.688 41.9793 242.457 40.6188 241.196 39.304C240.223 38.2932 239.113 36.8644 237.669 36.5908C229.355 35.9676 220.949 36.2032 212.589 35.9904L212.475 28.7323C223.799 28.7323 235.138 28.4739 246.447 28.9375C248.112 29.5531 250.247 27.7595 249.73 26.3231C249.677 21.459 249.92 16.7014 250.05 11.9437ZM210.529 4.41961C220.409 4.22961 230.289 3.75841 240.109 4.09281C241.218 5.49883 242.328 6.91245 243.445 8.31846C226.763 8.26526 210.081 8.15886 193.399 8.13606C192.639 7.08725 191.879 5.99283 191.172 4.90602C197.677 4.76162 204.115 4.57922 210.598 4.41961H210.529ZM186.498 85.4594C187.326 59.5811 187.06 33.68 187.767 7.79406C188.784 9.40073 189.888 10.9509 191.073 12.4377C190.397 37.518 189.652 62.5375 189.591 87.6026L186.498 85.4594ZM233.542 106.284C231.597 109.704 229.461 113.184 229.127 117.213C228.792 121.241 230.274 125.276 231.179 129.221C232.455 134.83 233.459 140.499 234.181 146.199C225.687 146.012 217.241 144.873 209.002 142.802C209.366 134.229 209.726 125.659 210.081 117.091C210.278 115.082 210.113 113.053 209.594 111.102C208.561 107.674 205.201 105.934 203.013 103.358C199.851 99.4207 199.76 94.0019 199.973 89.1834C200.041 87.5798 199.973 85.7178 200.512 84.1902C201.052 82.6625 202.473 82.3509 203.803 81.9861C205.772 81.4313 207.778 80.9829 209.762 80.4661C212.672 79.7821 216.754 78.1861 218.882 81.2261C220.181 83.9241 217.035 85.4746 214.914 86.2118C211.213 87.1922 208.508 88.2866 210.233 92.6795C211.349 95.9264 212.923 98.9974 214.907 101.8C216.29 103.798 220.227 101.746 218.623 99.4739C217.83 98.3127 217.111 97.1018 216.472 95.8487L236.4 96.1223C237.069 99.7323 235.305 103.19 233.542 106.322V106.284ZM213.896 90.5286L213.972 90.4906C213.926 90.5362 213.896 90.5514 213.896 90.5286ZM215.188 91.547C215.005 91.5483 214.822 91.561 214.641 91.585C214.496 91.1921 214.384 90.7879 214.306 90.3766C217.134 89.5178 220.212 88.5298 222.172 86.227C224.065 85.8014 226.489 86.8502 228.253 87.5646C230.601 88.507 232.813 89.3582 235.442 89.001C236.687 88.8601 237.884 88.4451 238.949 87.7859C240.014 87.1268 240.919 86.2399 241.6 85.189C242.281 84.1381 242.721 82.9494 242.887 81.7083C243.054 80.4672 242.943 79.2046 242.564 78.0113H244.562C244.676 82.6473 244.669 87.2986 244.464 91.927C234.71 91.8105 224.941 91.6838 215.158 91.547H215.188ZM244.464 76.4761C244.47 76.5519 244.47 76.6282 244.464 76.7041C244.428 76.6284 244.414 76.5439 244.426 76.4609L244.464 76.4761ZM244.365 93.4699C244.367 93.5002 244.367 93.5307 244.365 93.5611C244.362 93.5231 244.362 93.485 244.365 93.4471V93.4699ZM240.907 70.6012C240.952 70.6048 240.998 70.6048 241.044 70.6012C241.006 70.6012 240.937 70.6012 240.861 70.6012H240.907ZM240.299 70.5404H240.496C241.188 71.574 241.834 72.6456 242.518 73.6868C241.755 73.6662 240.991 73.7171 240.238 73.8388C239.066 72.4771 237.71 71.2851 236.21 70.2972C237.555 70.3732 238.931 70.4416 240.299 70.5404ZM215.978 69.3472C223.16 68.1236 234.979 70.7684 238.824 77.4489C240.534 81.1881 236.871 84.8969 233.215 85.049C229.826 85.1022 227.044 82.8753 223.746 82.3585C223.746 79.8125 221.891 77.4641 219.421 76.3621C216.434 75.0244 213.052 75.602 209.838 76.4153C209.078 71.6652 211.601 69.902 215.956 69.3472H215.978ZM210.438 62.1803H210.75C210.621 62.2391 210.476 62.2525 210.339 62.2183L210.438 62.1803ZM237.509 40.14L237.813 40.1856C237.705 40.2084 237.592 40.1923 237.494 40.14H237.509ZM236.894 39.7144C236.483 39.4256 236.719 39.5624 236.894 39.7144V39.7144ZM223.434 39.798C228.063 39.8816 232.699 39.9272 237.327 40.1324C238.31 41.09 239.252 42.0831 240.154 43.1117C231.034 42.8533 221.876 42.8077 212.733 42.7393L212.688 39.6612C216.249 39.6916 219.824 39.7347 223.411 39.7904L223.434 39.798ZM228.8 24.7575C222.765 24.7575 216.738 24.7575 210.704 24.7575C209.404 24.7575 208.006 25.6087 208.029 27.0375L208.28 42.7165L208.318 44.9965C208.38 45.4195 208.592 45.8059 208.916 46.0851C209.24 46.3642 209.653 46.5174 210.081 46.5165C220.614 46.5849 231.156 46.6685 241.682 46.9725C241.591 50.8992 241.494 54.831 241.393 58.7678C231.513 58.555 221.633 58.1066 211.715 58.2435C209.389 58.1903 207.52 58.8135 207.672 61.4963C207.573 63.8219 207.482 66.1475 207.383 68.4732C205.718 70.6468 205.863 73.5348 206.159 76.1873C206.207 76.5631 206.331 76.9252 206.524 77.2513C198.004 79.1589 195.261 80.5649 195.451 89.8674C194.865 89.8674 194.28 89.8674 193.695 89.8218C193.642 63.8523 194.569 37.8828 195.215 11.9209L245.634 12.1261C245.49 16.3518 245.345 20.5774 245.292 24.8031C239.782 24.7499 234.279 24.7423 228.777 24.7499L228.8 24.7575ZM249.784 26.5663C249.784 26.5131 249.784 26.4371 249.784 26.3763C249.797 26.4379 249.789 26.5021 249.761 26.5587L249.784 26.5663Z" fill="white"/>
<path d="M315.813 70.5405L313.837 68.078C313.649 67.7896 313.399 67.5462 313.107 67.3649C312.814 67.1837 312.484 67.0691 312.142 67.0292C310.843 66.9 309.976 68.2073 310.068 69.4309C309.893 78.0874 309.862 86.7515 309.688 95.408C309.688 96.6924 311.208 98.0528 312.477 97.5284L328.505 90.9543C328.812 90.8208 329.086 90.6214 329.307 90.3702C329.529 90.119 329.692 89.8222 329.785 89.5009C329.879 89.1795 329.901 88.8415 329.849 88.5108C329.797 88.1801 329.673 87.8649 329.486 87.5875C324.926 81.9128 320.368 76.2304 315.813 70.5405ZM313.89 92.0335C313.982 86.3715 314.035 80.7094 314.118 75.0473L316.961 78.589L317.166 90.6883L313.89 92.0335ZM320.259 89.4191L320.145 82.579C321.539 84.3118 322.927 86.0421 324.31 87.7699L320.259 89.4191Z" fill="white"/>
<path d="M81.5172 113.701C81.5057 114.07 81.6015 114.435 81.793 114.75C81.9846 115.066 82.2637 115.319 82.5964 115.48C87.6581 117.19 92.7881 119.044 98.1386 119.523C98.5961 122.825 99.4853 126.052 100.783 129.122C101.525 130.791 102.397 132.4 103.39 133.933C103.786 134.452 103.997 135.089 103.991 135.741C103.801 140.195 103.481 144.634 103.231 149.072C101.019 148.707 98.815 148.312 96.6034 147.978C95.4102 147.62 93.8597 148.228 93.7685 149.604C93.5405 153.688 93.3176 157.764 93.0997 161.833C92.1573 179.602 91.1769 197.378 90.5081 215.162C90.3485 219.578 90.0065 224.024 90.6601 228.402C92.3625 239.756 93.7001 251.202 96.2234 262.389C96.9834 264.578 96.725 268.561 99.8942 268.393C100.167 268.378 100.433 268.304 100.675 268.177C100.917 268.05 101.129 267.872 101.296 267.656C101.463 267.44 101.582 267.19 101.644 266.924C101.707 266.658 101.711 266.381 101.657 266.113C98.1614 252.806 96.573 238.989 94.7641 225.377C95.2886 200.996 96.839 176.638 98.1766 152.287C108.969 154.111 119.791 155.806 130.538 157.903C132.058 174.388 132.339 190.948 133.259 207.471C134.399 228.105 138.776 248.58 147.06 267.55C148.079 269.936 152.236 268.773 151.096 266.098C149.234 261.713 147.486 257.274 145.996 252.752C139.255 232.939 137.522 211.955 136.975 191.192C136.397 180.111 136.017 169.015 134.999 157.964C134.877 156.794 134.817 155.517 133.745 154.772C131.929 153.776 129.671 153.784 127.665 153.252C128.075 149.528 128.491 145.807 128.911 142.088C133.183 138.363 138.852 136.767 143.352 133.355C151.18 127.822 155.755 116.635 149.781 108.168C160.763 95.5142 163.629 77.4868 158.347 61.747C151.651 38.0575 125.157 24.841 101.711 26.1178C100.457 25.4718 98.5262 26.0418 98.2602 27.5694L96.5958 35.1695C92.2333 55.0868 87.8683 75.0066 83.5008 94.929C82.8092 98.0602 81.9808 101.207 81.4336 104.368C81.5704 107.484 81.5096 110.585 81.5172 113.701ZM130.378 156.87C130.378 156.87 130.378 156.93 130.378 156.953C130.334 156.872 130.313 156.78 130.317 156.687C130.334 156.749 130.354 156.81 130.378 156.87ZM96.3146 114.841C92.7546 114.102 89.2522 113.109 85.834 111.87V107.591L97.3558 110.821C97.4166 112.227 97.4926 113.633 97.6066 115.046C97.1886 114.986 96.7478 114.925 96.3146 114.841ZM112.396 47.8541C114.28 47.8954 116.16 48.0656 118.02 48.3633C114.54 64.4678 110.755 80.5192 107.654 96.6998C106.331 96.1374 104.819 95.5142 103.329 95.7422L102.661 95.4306C105.267 79.4552 108.931 63.6622 112.396 47.8541ZM126.837 51.1373C139.111 57.1642 143.739 73.5499 137.986 85.6265C136.99 87.9065 135.706 90.6653 133.715 92.193C129.915 90.3461 125.013 92.7706 122.459 95.8486C119.419 93.3178 114.608 92.1094 111.728 95.3698C114.504 82.2368 117.344 69.1216 120.247 56.0241C120.665 54.1545 121.076 52.2773 121.494 50.4077C121.589 49.9848 121.589 49.5461 121.494 49.1233C123.344 49.624 125.143 50.2984 126.867 51.1373H126.837ZM146.597 122.783C144.317 127.199 140.471 130.163 136.162 132.451C132.871 134.183 129.421 135.711 126.533 138.097C125.666 138.819 124.769 139.549 124.594 140.727C124.078 144.634 123.758 148.578 123.28 152.492C118.061 151.58 112.835 150.683 107.601 149.802C107.867 145.629 108.14 141.442 108.361 137.277C108.572 135.715 108.307 134.125 107.601 132.717C103.922 127.397 102.395 120.982 101.999 114.568C101.693 111.205 101.569 107.828 101.627 104.452C101.565 103.067 102.029 101.709 102.927 100.652C103.234 100.325 103.643 100.111 104.087 100.045C104.531 99.9791 104.984 100.064 105.374 100.287C109.372 102.126 111.872 102.445 114.775 98.7062C116.827 96.1678 119.708 98.9874 121.402 100.652C121.643 100.889 121.933 101.071 122.252 101.183C122.571 101.294 122.91 101.334 123.246 101.298C123.582 101.263 123.906 101.153 124.195 100.976C124.483 100.8 124.729 100.562 124.914 100.279C125.482 99.1437 126.302 98.1523 127.31 97.3806C128.319 96.6089 129.49 96.0772 130.735 95.8258C131.594 95.7726 132.012 95.7498 132.301 96.5402C133.228 99.7778 133.631 103.129 134.467 106.42C135.098 109.149 135.759 111.87 136.245 114.628C136.504 116.832 139.422 117.668 140.57 115.624C142.818 114.584 144.874 113.171 146.65 111.444C147.57 113.192 148.05 115.139 148.049 117.115C148.047 119.09 147.565 121.036 146.642 122.783H146.597ZM146.209 108.001C144.509 109.838 142.532 111.397 140.349 112.622C140.083 111.254 139.787 109.901 139.483 108.548C145.381 107.34 149.857 102.575 153.323 97.9082C151.485 101.607 149.103 105.01 146.255 108.001H146.209ZM87.5897 97.5054C92.55 74.8318 97.523 52.1658 102.509 29.5074C118.879 28.4054 138.989 35.2987 147.889 49.7313C152.844 58.7526 156.849 73.8007 154.729 83.9849C152.639 92.6034 146.908 101.305 138.67 104.969C137.834 101.86 137.469 98.6302 136.58 95.5446C138.799 94.1234 140.228 91.4177 141.345 89.1225C144.481 83.0388 145.423 76.0598 144.013 69.3623C140.699 52.8169 125.97 43.8716 109.752 44.1908C109.447 44.183 109.149 44.2787 108.906 44.4623C108.663 44.646 108.49 44.9066 108.414 45.2016C106.4 54.0025 104.507 62.8414 102.668 71.6803C101.741 76.1137 100.844 80.5522 99.9778 84.9957C99.4154 87.9141 98.8302 90.8325 98.4578 93.7814C98.2146 95.195 98.1842 96.7682 99.6282 97.5814C97.3026 99.9298 97.1126 103.205 97.1886 106.337L86.2976 103.297C86.7157 101.343 87.1641 99.4282 87.5897 97.5054Z" fill="white"/>
<path d="M364.383 92.7174L324.407 44.9812C323.593 44.0084 322.56 42.3744 321.245 42.2376C319.979 42.1732 318.711 42.1732 317.445 42.2376H311.783C310.734 42.1692 309.617 42.2376 309.093 43.294L299.82 46.8736C299.313 47.1275 298.883 47.5121 298.575 47.9878C298.266 48.4634 298.09 49.0128 298.065 49.5793C297.464 65.0151 296.834 80.4508 296.081 95.879C286.558 95.8106 280.813 100.583 275.812 108.229C274.223 110.424 273.228 112.992 272.924 115.685C272.703 118.664 273.722 121.583 274.976 124.235C277.013 128.126 278.525 132.397 281.39 135.779C281.345 144.9 281.2 154.02 281.117 163.201C281.121 163.544 281.218 163.88 281.398 164.173L276.906 163.961C276.463 163.765 275.961 163.751 275.508 163.923C274.14 163.923 272.559 165.23 273.539 166.598C273.296 200.107 272.741 233.631 272.43 267.132C272.43 268.226 273.615 268.431 274.436 268.127C274.963 267.935 275.424 267.597 275.767 267.153C276.11 266.71 276.321 266.178 276.374 265.619C276.501 254.919 276.625 244.215 276.747 233.509C276.997 211.522 277.279 189.543 277.507 167.555C289.188 168.065 300.976 168.741 312.558 169.22C314.838 180.552 315.705 192.104 316.883 203.58C318.828 224.1 320.204 244.712 321.921 265.277L322.035 266.585C322.256 268.933 326.801 268.523 326.596 266.167C326.14 261.272 325.775 256.363 325.395 251.46C323.639 229.017 322.058 206.552 319.451 184.184C318.881 178.516 317.985 172.885 316.769 167.32C316.161 164.956 312.969 165.921 311.175 165.587C311.332 159.479 311.87 153.388 312.786 147.347C313.149 144.798 313.833 142.306 314.823 139.929C316.829 135.498 319.383 130.703 317.658 125.74L319.687 125.124C320.143 124.934 320.535 124.619 320.82 124.216C321.105 123.812 321.271 123.337 321.298 122.844C321.42 118.124 321.61 113.397 321.693 108.678C326.253 107.203 330.874 105.729 335.427 104.156L346.865 116.962C347.048 117.175 347.298 117.32 347.574 117.373C347.851 117.425 348.136 117.382 348.385 117.25L364.231 111.543C364.707 111.708 365.228 111.686 365.688 111.481C366.148 111.277 366.513 110.905 366.709 110.441C368.041 107.715 369.366 104.986 370.684 102.255C370.851 101.89 370.919 101.486 370.881 101.086C370.842 100.685 370.698 100.302 370.463 99.9755L364.383 92.7174ZM320.234 46.7444C335.51 64.9847 350.87 83.2249 366.101 101.549L364.338 105.182C349.396 84.7839 333.282 65.272 316.077 46.7444H320.234ZM283.556 112.174C282.036 117.494 286.254 122.381 290.556 124.972C290.404 127.123 290.252 129.464 289.089 131.326C288.154 132.846 286.277 134.313 284.385 133.841C282.728 133.416 282.029 131.615 281.284 130.148C280.136 127.868 278.928 125.588 277.856 123.308C276.906 121.241 276.078 119.029 276.443 116.718C276.914 114.553 277.876 112.525 279.255 110.79C283.397 104.71 288.147 100.424 295.83 100.15C295.724 102.228 295.61 104.305 295.488 106.382C290.936 105.22 285.076 107.317 283.556 112.174ZM310.278 138.865C307.481 147.362 307.238 156.49 306.828 165.359L285.259 164.333C285.388 155.578 285.464 146.815 285.547 138.06C291.628 138.47 293.862 132.253 294.006 127.123C295.587 127.929 297.533 130.573 299.326 128.795C300.086 127.883 299.494 126.591 298.696 125.937C294.896 122.669 287.007 120.617 287.546 114.416C288.223 111.224 292.38 109.468 295.146 110.129C299.904 111.034 304.198 116.513 307.246 119.584C308.766 121.104 310.438 122.403 312.026 123.847C316.472 128.157 312.057 134.297 310.309 138.865H310.278ZM317.156 121.704L315.439 122.221C315.024 121.755 314.585 121.311 314.124 120.891C314.284 120.536 314.374 120.155 314.39 119.766C314.501 116.787 314.61 113.808 314.717 110.828L317.498 109.947L317.156 121.704ZM350.437 112.668L349.35 113.063L337.859 100.241C337.676 100.028 337.426 99.8824 337.15 99.8286C336.874 99.7748 336.588 99.8158 336.339 99.9451C329.377 102.408 322.309 104.596 315.264 106.785L313.083 107.477C312.057 107.796 311.365 109.187 311.327 110.182L311.038 118.102C307.101 114.408 303.864 109.863 298.878 107.462C300.018 88.3169 300.71 69.1495 301.5 49.9897L310.02 46.6988C328.423 66.27 345.606 86.9534 361.472 108.632L350.437 112.668Z" fill="white"/>
</svg>
