<svg width="260" height="178" viewBox="0 0 260 178" fill="none" xmlns="http://www.w3.org/2000/svg">
<path d="M211.889 12.38C217.978 10.8796 220.765 10.9064 222.638 11.3447C222.723 11.3644 222.789 11.4287 222.812 11.5119L223.725 14.7069C223.744 14.7735 223.734 14.845 223.697 14.9034L222.187 17.2752C222.108 17.3991 221.939 17.4249 221.824 17.3324C218.964 15.0113 214.643 13.6269 211.879 12.8473C211.64 12.7799 211.648 12.4395 211.889 12.38Z" stroke="#1FB141" stroke-width="1.4522"/>
<path d="M244.693 49.2773C247.098 45.0256 245.085 38.619 243.708 35.7926C243.668 35.7102 243.585 35.6609 243.493 35.6609H241.243C241.089 35.6609 240.974 35.8016 240.995 35.954C241.477 39.5852 237.482 45.8902 235.115 49.0054C234.993 49.1661 235.108 49.3971 235.31 49.3971H244.486C244.572 49.3971 244.651 49.3518 244.693 49.2773Z" stroke="#1FB141" stroke-width="1.4522"/>
<path d="M242.125 5.75356C241.686 9.65247 238.026 13.9448 236.09 15.7425C236.054 15.7762 236.03 15.8186 236.019 15.8669L235.093 20.0376C235.07 20.1393 235.115 20.2441 235.204 20.2977L238.603 22.3372C238.683 22.3851 238.786 22.3813 238.863 22.3295C246.859 16.9648 244.883 9.34339 242.585 5.62775C242.461 5.42749 242.151 5.51958 242.125 5.75356Z" stroke="#1FB141" stroke-width="1.4522"/>
<path d="M223.515 22.8401C220.036 1.38467 235.702 2.55604 236.277 17.8688C236.28 17.953 236.304 18.0388 236.348 18.111C240.579 25.1372 242.825 32.1141 243.536 35.1832C243.597 35.4479 243.415 35.7073 243.148 35.758C226.178 38.9815 222.983 28.6521 223.52 22.9692C223.524 22.9265 223.522 22.8825 223.515 22.8401Z" stroke="black" stroke-width="1.4522"/>
<path d="M250.893 9.73957C245.374 37.9384 226.855 31.4684 229.878 22.0131C229.896 21.9576 229.936 21.9078 229.986 21.8781C241.878 14.8501 248.319 10.8805 250.53 9.47251C250.71 9.35826 250.934 9.53078 250.893 9.73957Z" stroke="#1FB141" stroke-width="1.4522"/>
<circle cx="229.169" cy="13.0947" r="0.981156" fill="black"/>
<path d="M35.9414 84.6656L43.5232 82.6517M35.9414 79.6901L43.5232 77.6761" stroke="#1FB141" stroke-width="1.42159"/>
<path d="M30.4946 98.2892L40.4408 105.612C40.6436 105.762 40.9085 105.533 40.7907 105.311L34.7975 93.978C34.7728 93.9313 34.7649 93.8751 34.7741 93.8231C39.0144 69.8898 31.6299 69.6556 24.7525 69.294C24.5468 69.2832 24.4531 69.0332 24.6004 68.8892L33.8553 59.8423C34.0428 59.659 33.8378 59.352 33.5966 59.455L24.2939 63.4269C24.2435 63.4484 24.1854 63.4513 24.1327 63.4361C15.3594 60.9196 11.1942 66.4436 10.0922 69.7946C10.043 69.9441 10.1567 70.0943 10.3141 70.0943H14.6761C14.783 70.0943 14.8758 70.1651 14.9082 70.2669C15.3358 71.6119 16.7548 73.976 19.4773 73.8852" stroke="black" stroke-width="1.42159"/>
<path d="M29.7452 103.159C16.9755 85.9366 16.2696 77.8963 18.8519 74.5011C22.1655 70.1443 33.8727 70.0009 30.1755 103.036C30.1517 103.249 29.8729 103.331 29.7452 103.159Z" stroke="#1FB141" stroke-width="1.42159"/>
<path d="M44 58.6031V105.753" stroke="black" stroke-width="2.36932" stroke-linecap="round"/>
<circle cx="19.9477" cy="67.3696" r="0.947728" fill="black"/>
<path d="M152.339 135.076C152.6 138.906 150.537 147.951 140.195 153.488" stroke="#1FB141" stroke-width="1.66645" stroke-linecap="round"/>
<path d="M135.628 163.15H146.074C146.074 158.658 142.157 157.796 140.198 157.927V147.35C141.556 145.992 149.904 137.47 153.909 133.379C154.692 129.462 150.383 123.324 142.94 129.201C141.33 130.289 137.534 132.595 133.147 134.032C129.455 135.24 122.948 138.431 119.8 143.172M135.628 163.15H118V148.395C118.078 146.493 118.753 144.747 119.8 143.172M135.628 163.15V150.223M135.628 163.15C134.829 159.804 132.685 158.135 130.274 157.419M122.831 157.535C124.694 156.99 127.643 156.637 130.274 157.419M119.8 143.172C127.793 139.385 138.37 147.35 130.274 157.419" stroke="black" stroke-width="1.66645" stroke-linecap="round"/>
<circle cx="145.553" cy="127.894" r="2.4312" fill="white" stroke="#1FB141" stroke-width="1.66645" stroke-linecap="round"/>
<path d="M127.402 9.67796C120.332 11.9129 119.803 19.8877 120.466 23.9793C120.494 24.1544 120.701 24.2306 120.839 24.1195L131.181 15.8148C131.274 15.7403 131.296 15.6081 131.233 15.507L127.671 9.7771C127.615 9.68694 127.503 9.64596 127.402 9.67796Z" stroke="#1FB141" stroke-width="1.41258" stroke-linecap="round"/>
<path d="M120.626 24.2151C132.234 5.64115 149.845 16.2708 148.721 28.4507C148.711 28.5523 148.636 28.6364 148.536 28.6575L141.01 30.2419C140.743 30.2981 140.77 30.6877 141.042 30.7071L150.565 31.3874C150.707 31.3975 150.808 31.5286 150.777 31.6672C148.435 42.0304 132.164 51.6376 120.604 31.5287C120.562 31.4554 120.48 31.4062 120.396 31.4076C116.854 31.4673 114.671 33.8169 113.614 35.736C113.484 35.9719 113 35.8738 113 35.6043V18.7851C113 18.5496 113.314 18.4573 113.448 18.6507C116.006 22.3295 118.993 23.9247 120.37 24.3207C120.468 24.3488 120.572 24.3013 120.626 24.2151Z" stroke="black" stroke-width="1.41258" stroke-linecap="round"/>
<circle cx="140.186" cy="21.9077" r="0.982667" fill="black"/>
<path d="M143.133 16.6674V13.5549C143.133 3.39985 154.761 3.56386 154.761 13.5549V15.5208" stroke="black" stroke-width="1.41258" stroke-linecap="round"/>
<path d="M121.301 38.0999L128.557 33.2625C128.705 33.1637 128.905 33.2587 128.922 33.4359L129.981 44.4714C130 44.6746 129.769 44.8046 129.605 44.6826L121.291 38.4846C121.161 38.3873 121.166 38.1902 121.301 38.0999Z" stroke="#1FB141" stroke-width="1.41258" stroke-linecap="round"/>
<circle cx="154.924" cy="18.6322" r="2.56927" stroke="#1FB141" stroke-width="1.41258"/>
<path d="M219.629 95.5016C219.629 101.334 215.783 106.158 214.27 97.7086" stroke="black" stroke-width="1.89173" stroke-linecap="round"/>
<path d="M245.64 95.5016C245.64 101.334 249.487 106.158 251 97.7086" stroke="black" stroke-width="1.89173" stroke-linecap="round"/>
<path d="M230.193 95.0287C229.72 100.862 227.513 111.424 224.676 101.965" stroke="black" stroke-width="1.89173" stroke-linecap="round"/>
<path d="M235.865 94.8711C236.338 100.704 238.545 111.266 241.383 101.807" stroke="black" stroke-width="1.89173" stroke-linecap="round"/>
<path d="M219.315 95.344C215.691 94.4029 220.892 85.8854 220.892 85.8854L245.642 86.516C245.642 86.516 250.699 95.3045 247.06 95.8169C244.336 96.2006 244.427 90.8786 241.701 91.2453C239.324 91.5649 239.994 95.6458 237.602 95.8169C235.04 96.0003 235.435 91.0619 232.873 91.2453C230.481 91.4164 231.164 96.0131 228.774 95.8169C226.54 95.6336 227.464 91.8469 225.306 91.2453C222.575 90.4843 222.059 96.0563 219.315 95.344Z" stroke="#1FB141" stroke-width="1.89173" stroke-linecap="round"/>
<path d="M248.791 75.5841C242.013 56.5094 217.105 63.9184 216.474 76.845C216.316 79.2623 217.515 84.4438 223.568 85.8311H242.959C249.895 85.8311 249.838 78.5287 248.791 75.5841Z" stroke="black" stroke-width="1.89173" stroke-linecap="round"/>
<path d="M44.928 144.511C44.3356 147.617 44.4379 154.197 49.5865 155.664M49.5865 155.664C51.5526 156.101 52.6868 155.969 52.9301 156.081C50.5306 155.147 50.7561 152.797 51.8215 150.79C59.4545 136.409 47.1562 132.85 43.1039 138.06C40.4248 141.505 37.3121 149.876 43.4452 153.187C45.9861 154.627 48.0427 155.321 49.5865 155.664Z" stroke="#1FB141" stroke-width="1.39478" stroke-linecap="round"/>
<path d="M14.8221 142.178C13.7598 143.13 12.4719 143.728 11.9607 143.908C29.1092 158.626 39.6318 144.829 40.3165 133.617C40.6526 118.171 24.1569 121.466 21.9332 134.595C20.6661 135.802 16.6616 138.539 10.7799 139.828C13.0575 141.93 21.0669 145.755 26.875 139.959" stroke="black" stroke-width="1.39478" stroke-linecap="round"/>
<path d="M42.6112 137.232L40.3125 133.616C40.5574 134.946 40.0074 136.938 39.7018 137.768L42.6112 137.232Z" fill="black"/>
<circle cx="35.8797" cy="133.316" r="1.13397" transform="rotate(16.1326 35.8797 133.316)" fill="black"/>
<circle cx="46.5674" cy="140.481" r="0.755981" transform="rotate(24.6311 46.5674 140.481)" fill="#1FB141"/>
<path d="M40.5665 138.146L43.1006 138.061C42.4363 138.421 41.8596 139.709 41.6543 140.308L40.5665 138.146Z" fill="#1FB141"/>
<path d="M57.3322 154.397H13.8633C13.8633 156.791 15.3752 161.806 21.4231 162.713H49.5834C54.724 161.957 57.3322 156.854 57.3322 154.397Z" stroke="black" stroke-width="1.39478" stroke-linecap="round"/>
<path d="M223.287 144.619C221.506 145.03 221.195 144.245 220.627 143.217C214.189 131.573 203.332 133.97 207.613 139.107C208.606 140.1 210.121 141.477 213.065 143.67C213.255 143.811 213.345 144.05 213.297 144.281C212.435 148.47 211.354 157.675 213.105 158.858C213.261 158.963 213.437 159.064 213.584 159.181C214.52 159.926 218.403 161.783 222.978 159.168C223.181 159.052 223.435 159.057 223.637 159.175C229.438 162.562 236.989 155.611 242.659 158.971C245.289 160.529 248.992 159.803 251.345 160.197C251.931 160.295 252.789 159.673 252.567 159.122C251.361 156.136 248.094 151.744 241.652 152.18" stroke="black" stroke-width="2.70587"/>
<circle cx="233.93" cy="145.272" r="9.94865" stroke="#1FB141" stroke-width="2.70587"/>
<path d="M204 131.192C205.029 131.604 207.117 133.044 207.241 135.514M207.858 129.186C208.733 129.906 210.327 132.057 209.71 134.896" stroke="black" stroke-width="2.70587" stroke-linecap="round"/>
<path d="M14.8594 32.3291C17.7073 27.9735 34.1247 26.4661 43.8412 34.6745" stroke="black" stroke-width="0.860659"/>
<path d="M30.4127 21.0979C35.9806 21.5154 40.9392 22.7424 44.4511 24.3747C46.2085 25.1915 47.5817 26.1003 48.4906 27.0407C49.4 27.9815 49.8102 28.9155 49.7434 29.8052C49.6766 30.6948 49.1317 31.5574 48.0923 32.3519C47.0533 33.1461 45.5597 33.8392 43.7004 34.3847C39.9843 35.4749 34.8982 35.9495 29.3303 35.532C23.7625 35.1144 18.8048 33.8865 15.2929 32.2542C13.5355 31.4374 12.1614 30.5295 11.2524 29.5891C10.3432 28.6485 9.93391 27.7143 10.0005 26.8247C10.0673 25.9351 10.6114 25.0725 11.6507 24.2779C12.6898 23.4836 14.1839 22.7898 16.0436 22.2443C19.7597 21.1541 24.845 20.6804 30.4127 21.0979Z" stroke="black" stroke-width="0.860659"/>
<path d="M29.9319 42.5482C13.1794 41.8781 9.29311 31.7371 9.57232 27.1023C18.2081 38.1609 47.9831 36.936 50.1653 29.3974C47.2169 39.5829 35.4601 42.7158 29.9319 42.5482Z" fill="#1FB141"/>
<path d="M46.1785 24.9579C45.8434 23.171 48.1218 18.7595 59.9155 15.409C60.5851 12.3936 57.3352 10.6513 39.6445 22.4451" stroke="black" stroke-width="0.860659"/>
<path d="M59.9235 15.4093C59.4208 19.0946 48.7003 18.5921 47.5273 25.9628" stroke="black" stroke-width="0.860659"/>
<ellipse cx="55.7091" cy="15.1476" rx="1.67747" ry="0.838734" transform="rotate(-21.8895 55.7091 15.1476)" fill="#1FB141"/>
<path d="M35.6272 11.7243C20.0482 8.54121 18.4838 15.8008 18.8747 19.7655C9.89552 30.3532 20.5505 30.822 28.7586 23.6184C39.7482 24.1545 44.0344 19.8612 45.176 17.2524C48.695 9.21108 39.8153 9.37892 35.6272 11.7243Z" stroke="black" stroke-width="0.860659"/>
<path d="M29.4614 13.5184C30.8909 13.2303 32.2385 13.3376 33.2563 13.7227C34.2806 14.1102 34.9097 14.7486 35.0593 15.491C35.209 16.2335 34.8765 17.0658 34.0824 17.8199C33.2933 18.5692 32.0925 19.1904 30.663 19.4786C29.2334 19.7668 27.8851 19.6597 26.8672 19.2746C25.843 18.887 25.2148 18.2484 25.0651 17.506C24.9154 16.7635 25.2471 15.9314 26.0411 15.1773C26.8303 14.4279 28.0318 13.8067 29.4614 13.5184Z" stroke="black" stroke-width="0.860659"/>
<ellipse cx="28.0794" cy="16.1073" rx="1.17261" ry="1.84267" transform="rotate(63.5533 28.0794 16.1073)" fill="#1FB141"/>
<path d="M115.549 92.7311C113.611 93.0292 112.005 92.8294 110.692 92.3036M116.277 88.9073C114.916 87.9352 112.614 85.8278 110.692 83.9923M110.692 83.9923C109.735 83.0778 108.872 82.2308 108.266 81.6254C104.917 78.4277 103.987 89.6181 110.692 92.3036M110.692 83.9923C109.561 77.7341 116.566 71.1239 118.369 87.4514M118.462 88.3618C118.432 88.0507 118.401 87.7473 118.369 87.4514M118.369 87.4514C123.874 80.2876 132.984 88.5511 123.731 94.8612C123.454 95.0498 123.61 95.5851 123.945 95.5987C132.011 95.9267 136.77 105.596 126.29 104.565M120.828 97.6468C129.567 102.744 128.657 118.038 116.823 100.742M118.369 97.1006C117.369 105.839 106.081 102.198 110.692 92.3036" stroke="black" stroke-width="0.772429" stroke-linecap="round"/>
<path d="M109.907 98.3748C108.835 99.5545 107.572 101.177 106.716 103.837M105.72 111.119C105.72 108.052 106.119 105.692 106.716 103.837M104.445 98.3748C105.292 99.103 106.931 101.215 106.716 103.837" stroke="black" stroke-width="0.772429" stroke-linecap="round"/>
<path d="M105.173 101.834C103.322 101.356 100.002 99.1048 101.282 93.9006C101.319 93.7526 101.46 93.6529 101.611 93.6752C103.858 94.0068 107.819 95.5882 107.539 99.6492" stroke="#1FB141" stroke-width="0.772429" stroke-linecap="round"/>
<path d="M145.328 62.1881C146.109 60.5054 147.7 58.0072 149.004 59.3727C149.029 59.3991 149.049 59.4312 149.062 59.4652C149.302 60.0965 149.709 61.7127 149.599 63.6309C149.593 63.7271 149.631 63.8202 149.701 63.8867C150.714 64.8534 152.328 67.3462 151.664 70.5642C151.628 70.7384 151.74 70.9096 151.905 70.977C152.815 71.3494 153.73 72.6692 151.773 75.7996M151.773 75.7996C152.32 75.7389 153.594 75.7268 154.322 76.1637M151.773 75.7996C151.227 76.1637 150.673 76.2723 149.654 76.7093" stroke="#1FB141" stroke-width="0.772429" stroke-linecap="round"/>
<path d="M126.101 64.8761C127.193 65.665 129.082 67.7891 128.649 71.2482C128.103 75.6177 129.378 78.8947 130.652 80.5333M122.277 71.2482C123.612 71.5516 126.465 72.8868 127.739 77.0741C127.982 78.0451 128.686 80.2056 129.56 81.0795" stroke="black" stroke-width="0.772429" stroke-linecap="round"/>
<path d="M132.841 82.1724C128.472 65.9685 137.939 47.3985 142.126 56.3192C143.151 58.5039 144.699 63.5615 148.134 67.2428C150.568 69.8499 151.143 72.6562 149.162 76.8339C149.049 77.0725 149.261 77.3496 149.522 77.3086C153.163 76.7362 158.721 78.1654 156.165 88.1037C156.152 88.1521 156.151 88.2045 156.162 88.2532C156.75 90.8639 156.635 94.7959 150.683 93.0953C148.134 92.3671 142.454 90.8014 140.852 90.3644" stroke="black" stroke-width="0.772429" stroke-linecap="round"/>
<path d="M138.031 63.6376C138.333 61.1307 136.243 59.6963 134.836 59.1688C134.654 59.1005 134.567 58.8831 134.659 58.7115C138.354 51.8403 141.049 54.1062 141.945 56.1369C143.583 60.142 145.95 65.0577 148.681 67.7887C151.315 70.686 150.178 74.6945 149.039 76.8268C148.912 77.0648 149.118 77.3642 149.385 77.3297C157.645 76.2658 157.389 83.8296 156.168 87.9231C156.153 87.9728 156.152 88.0268 156.162 88.0777C157.409 94.2321 153.227 94.0718 150.249 92.9792C149.955 92.8715 150.019 92.4462 150.323 92.3749C153.314 91.6746 152.706 89.5549 151.81 88.282C151.702 88.1279 151.74 87.9105 151.897 87.8064C154.947 85.7861 152.677 83.9854 151.55 82.698C151.465 82.6012 151.458 82.4589 151.518 82.3451C153.154 79.2496 149.462 78.7587 146.939 78.563C146.724 78.5463 146.593 78.324 146.694 78.1336C147.389 76.8166 148.677 74.8947 147.042 74.3081C146.709 74.1887 146.554 73.4613 146.855 73.2751C149.411 71.6931 148.059 70.3319 146.723 69.7081C146.592 69.647 146.517 69.5068 146.522 69.3624C146.575 68.0287 145.022 67.9283 143.949 68.0859C143.758 68.114 143.578 67.9733 143.562 67.7805C143.254 64.1299 140.303 63.7243 138.445 64.0385C138.214 64.0775 138.003 63.8698 138.031 63.6376Z" fill="#1FB141"/>
<path d="M134.295 83.0822C134.416 82.5998 134.556 81.9804 134.67 81.2616M135.934 59.5964C132.584 62.5094 133.127 70.825 134.295 74.5254C135.077 77.0025 134.957 79.4485 134.67 81.2616M134.67 81.2616C135.636 80.4031 136.92 78.8202 137.754 76.7803M137.936 64.1479C136.771 65.4588 137.29 67.425 137.754 68.5174C138.457 70.1722 138.676 71.7699 138.582 73.251M138.582 73.251C139.763 72.7655 142.415 71.0662 143.58 68.1533M138.582 73.251C138.502 74.5266 138.189 75.7157 137.754 76.7803M137.754 76.7803C138.473 76.8771 140.47 76.5723 142.763 74.6021C142.82 74.5533 142.893 74.5257 142.967 74.5239C143.449 74.5121 144.416 74.4289 145.218 74.1613M142.852 80.7154C141.802 81.7656 139.552 82.879 137.742 83.6459C137.419 83.7831 137.523 84.2787 137.873 84.2527C140.41 84.0641 144.032 83.6131 146.493 82.7181M144.126 79.9872C144.733 79.6838 146.056 78.9677 146.493 78.5307M146.493 82.7181L149.5 80.0645C149.557 80.0147 149.629 79.9872 149.705 79.9872H151.591M146.493 82.7181L146.857 85.2669M146.857 85.2669L145.218 87.0876M146.857 85.2669C148.131 84.7815 151.081 83.8469 152.683 83.9925M145.218 87.0876C143.459 87.0269 139.611 86.7963 138.3 86.3593M145.218 87.0876C146.007 87.9372 149.588 88.544 151.591 87.9979" stroke="black" stroke-width="0.772429" stroke-linecap="round"/>
<path d="M144.402 60.4878C146.762 56.6762 151.853 52.4482 151.595 62.2373C151.594 62.2934 151.606 62.3505 151.634 62.3995C153.228 65.2467 156.325 71.5748 153.56 75.3899C153.421 75.5805 153.512 75.8623 153.739 75.9219C157.045 76.787 161.881 79.4079 156.761 87.9862" stroke="black" stroke-width="0.772429" stroke-linecap="round"/>
<circle cx="139.032" cy="57.9573" r="1.8206" fill="white"/>
<circle cx="141.213" cy="61.5987" r="1.09236" fill="white"/>
<circle cx="144.127" cy="64.5121" r="0.728241" fill="white"/>
<path d="M132.805 82.1323C128.909 77.9219 128.322 83.5827 131.725 83.8037C131.848 83.8117 131.962 83.8856 132.014 83.9978C133.594 87.4024 137.277 87.9937 140.672 91.2576C140.894 91.4706 141.249 91.286 141.158 90.9926C139.896 86.9359 135.255 83.5044 132.885 82.1956C132.855 82.1793 132.828 82.1572 132.805 82.1323Z" fill="#1FB141"/>
<ellipse cx="118.879" cy="93.0699" rx="3.35303" ry="5.1972" transform="rotate(-25.3215 118.879 93.0699)" fill="#1FB141"/>
</svg>
