<svg width="261" height="179" viewBox="0 0 261 179" fill="none" xmlns="http://www.w3.org/2000/svg">
<path d="M21.041 16.6621H25.5612C26.6374 16.6621 27.0679 16.8774 27.0679 18.5993V33.0209L21.041 36.4648" stroke="black" stroke-width="1.93214" stroke-linejoin="round"/>
<path d="M20.6105 14.5093V43.1371M2.31445 25.7021V43.1371M20.6105 43.1371V44.3658C20.6105 45.4704 19.715 46.3658 18.6105 46.3658H4.31445C3.20988 46.3658 2.31445 45.4704 2.31445 44.3658V43.1371M20.6105 43.1371H15.2293M2.31445 43.1371H7.26514M7.26514 43.1371V30.6528M7.26514 43.1371H10.9243M10.9243 43.1371V35.6035M10.9243 43.1371H15.2293M15.2293 43.1371V30.6528" stroke="black" stroke-width="1.93214" stroke-linejoin="round"/>
<path d="M19.1043 6.76057C18.2433 3.53185 16.5213 2.24036 13.7231 2.02513C9.64547 1.71149 7.6962 4.39285 7.6962 6.76057V9.98927H4.46609C1.36653 9.98927 0.878635 12.7157 1.02213 14.079V24.1956C1.5966 25.3436 3.04687 26.9508 4.25225 24.1956V19.4601M15.8756 8.69778C17.2388 7.40629 20.3527 5.59822 21.9025 8.69778C22.2613 9.63051 22.5913 12.0987 21.0415 14.5095H8.34194V19.4601C6.61997 21.8709 4.89799 20.4646 4.25225 19.4601M4.25225 13.6485V19.4601" stroke="#FFC84D" stroke-width="1.93214" stroke-linejoin="round"/>
<path d="M121.758 27.0198L122.17 28.2304M136.286 27.2215L134.728 31.0553M122.17 28.2304L127.553 44.053C127.851 44.9295 129.077 44.965 129.426 44.1073L132.187 37.3103M122.17 28.2304L132.187 37.3103M132.187 37.3103L134.728 31.0553M134.728 31.0553L129.627 26.6162" stroke="black" stroke-width="1.81121" stroke-linejoin="round"/>
<path d="M119.132 19.1512C117.72 20.4291 115.621 23.6306 118.527 26.2134C119.872 27.0205 123.088 27.7872 125.187 24.3974C126.33 26.1461 129.263 28.5943 131.845 24.3974C132.585 26.0116 135.316 28.6347 138.706 26.2134C140.118 25.2045 142.015 22.5814 138.302 18.5459" stroke="black" stroke-width="1.81121" stroke-linejoin="round"/>
<path d="M128.013 5.63195C126.802 5.96825 124.623 7.44793 125.592 10.6763M120.546 11.2817C118.595 12.4923 115.5 15.7207 119.133 19.1509C120.277 20.0925 123.088 21.1283 125.187 17.7385C126.263 19.3527 129.182 21.6529 132.249 17.9402C133.796 19.2182 137.455 20.8458 139.714 17.1331C140.522 15.7207 140.683 12.9362 137.293 11.4834C136.969 4.0581 131.509 2.06725 128.82 2C121.758 1.99999 120.479 8.05326 120.546 11.2817Z" stroke="#DF32C8" stroke-width="1.81121" stroke-linecap="round" stroke-linejoin="round"/>
<path d="M214.729 19V12.625M241.409 22.0695V12.625M223.465 2H217.562C215.201 2 214.729 3.65278 214.729 4.83334V12.625M223.465 2V22.3056H240.937M223.465 2H232.201M232.201 2H239.048C239.992 2 241.409 2.56667 241.409 4.83334V12.625M232.201 2V25.6111M214.729 12.625H241.409" stroke="#CD8B62" stroke-width="2.11942" stroke-linejoin="round"/>
<path d="M214.963 31.2779V41.3195C214.963 42.4241 215.858 43.3195 216.963 43.3195H239.407C240.512 43.3195 241.407 42.4241 241.407 41.3195V35.2917M232.434 25.8473L227.806 33.2524C227.143 34.3129 225.678 34.5038 224.621 33.8356C221.067 31.5893 216.794 31.0788 214.006 31.1518C213.049 31.1769 212.127 30.6268 211.905 29.6963C210.902 25.4904 211.793 21.9402 212.778 19.8581C213.165 19.0379 214.135 18.7561 214.981 19.0839L232.434 25.8473ZM232.434 25.8473L241.183 22.2021C242.45 21.6742 243.86 22.5499 243.948 23.9194L244.559 33.3953C244.639 34.6329 243.58 35.6604 242.374 35.3681C238.958 34.5394 234.906 32.3104 232.434 25.8473Z" stroke="black" stroke-width="2.11942" stroke-linejoin="round"/>
<path d="M26.8205 80.77C26.7667 83.4083 25.9191 87.5094 23.4075 89.9877M9.70508 80.77C9.99731 85.4457 11.5319 88.3091 13.321 89.9877M13.321 89.9877C15.0739 91.6324 17.071 92.1397 18.3833 92.1C20.5307 92.0349 22.1708 91.208 23.4075 89.9877M13.321 89.9877C13.5621 90.7722 13.8514 92.6303 13.08 93.7874M23.4075 89.9877C22.993 90.6918 22.4128 92.4374 23.4075 93.7874" stroke="black" stroke-width="1.44258"/>
<path d="M34.0496 94.9927C33.0853 95.3784 32.3622 97.3229 32.1211 98.1265C35.1746 99.4925 41.86 100.585 44.1742 94.9927" stroke="black" stroke-width="1.44258"/>
<path d="M33.5684 78.1178V75.2251H46.1036V78.1178M33.5684 78.1178L39.836 84.8676M33.5684 78.1178H46.1036M39.836 84.8676L46.1036 78.1178M39.836 84.8676V91.8584" stroke="black" stroke-width="1.44258"/>
<path d="M28.5089 94.9927H52.6151V91.8589H27.0625V94.5106" stroke="#E47C3B" stroke-width="1.44258"/>
<path d="M10.4284 94.0278C6.65171 94.1082 -0.467669 97.6438 1.26798 111.143H32.1234M25.8558 94.0278C27.6236 94.51 31.352 96.0045 32.1234 98.1259V111.143M32.1234 111.143C33.3287 112.991 36.4626 115.579 39.3553 111.143L38.6321 99.5723" stroke="black" stroke-width="1.44258"/>
<path d="M17.9007 97.1614L10.4277 92.0991V103.911L17.9007 99.5721L25.8557 103.911V92.0991L17.9007 97.1614Z" stroke="#E47C3B" stroke-width="1.44258"/>
<path d="M14.7649 71.85C7.24376 71.2715 8.25623 77.3945 9.7026 80.5283C12.7883 80.1425 14.0417 77.957 14.2827 76.9124C17.301 80.3837 20.8437 79.323 22.2378 78.3588C24.3591 80.8658 26.3358 80.8497 27.059 80.5283C28.7947 68.7644 19.5861 69.8412 14.7649 71.85Z" stroke="black" stroke-width="1.44258"/>
<path d="M15.7305 100.778V111.621M20.5517 111.621V101.019" stroke="#E47C3B" stroke-width="1.44258"/>
<path d="M118.209 83.4393V71.5923C118.209 71.04 118.657 70.5923 119.209 70.5923H141.867C142.419 70.5923 142.867 71.04 142.867 71.5923V84.4754M128.362 87.1691H132.921M142.867 84.4754V86.1691C142.867 86.7214 142.419 87.1691 141.867 87.1691H132.921M142.867 84.4754H127.948M132.921 87.1691V91.1061" stroke="#87C8C6" stroke-width="1.86" stroke-linecap="round" stroke-linejoin="round"/>
<path d="M145.148 91.106V83.6104C145.148 83.0581 145.596 82.6104 146.148 82.6104H150.365C150.917 82.6104 151.365 83.0581 151.365 83.6104V84.268M151.365 91.106V88.6195M151.365 84.268H152.851C153.404 84.268 153.851 84.7158 153.851 85.268V87.0699C153.851 87.5003 153.576 87.8824 153.168 88.0185L151.365 88.6195M151.365 84.268V88.6195" stroke="#87C8C6" stroke-width="1.86" stroke-linecap="round"/>
<path d="M115.723 91.106H112.615V93.7997M112.615 111.827V93.7997M129.192 91.106H144.526M154.057 111.827V93.7997M144.526 91.106H154.057V93.7997M144.526 91.106V111.827M112.615 93.7997H116.138M134.005 93.7997H154.057" stroke="black" stroke-width="1.86" stroke-linecap="round" stroke-linejoin="round"/>
<path d="M129.402 93.7995H134.375C136.034 93.7995 136.516 95.0428 136.654 95.6644L137.422 99.8086M129.402 93.7995L128.159 85.5111C128.02 84.8204 127.95 83.439 126.501 83.439H116.14C115.517 83.439 114.725 83.9363 114.897 85.0967L117.176 100.43C117.385 101.674 118.088 102.917 120.077 102.917H126.707M129.402 93.7995L130.232 99.8086H137.422M137.422 99.8086L137.69 101.259C137.856 102.585 136.654 102.917 136.033 102.917H130.022M126.707 102.917V106.439M126.707 102.917H130.022M126.707 106.439H130.022M126.707 106.439H122.563L120.283 108.511M130.022 102.917V106.439M130.022 106.439H133.752L135.41 108.511" stroke="#87C8C6" stroke-width="1.86"/>
<circle cx="120.074" cy="109.755" r="0.934896" stroke="black" stroke-width="1.86"/>
<circle cx="135.408" cy="109.755" r="0.934896" stroke="black" stroke-width="1.86"/>
<path d="M149.29 73.7002C150.327 74.3218 151.363 75.5651 149.29 78.466C148.874 79.0877 148.793 79.8751 150.119 80.5381M146.805 75.3579C147.081 75.7723 147.385 76.9741 146.391 78.466C145.975 79.0877 146.142 79.8336 146.805 80.3309" stroke="black" stroke-width="1.24" stroke-linecap="round" stroke-linejoin="round"/>
<path d="M233.76 76.5747C237.466 78.6554 244.684 82.0366 242.343 91.0098L237.076 105.25" stroke="black" stroke-width="1.75101"/>
<path d="M225.373 74.4286L215.778 80.2187C214.919 80.7366 214.801 81.9342 215.541 82.6103L223.847 90.2008C224.6 90.8886 225.805 90.6412 226.225 89.7126L231.03 79.1102M225.373 74.4286L231.03 79.1102M225.373 74.4286C226.218 72.3479 228.884 68.7717 232.59 71.6978C234.541 73.2583 235.555 76.4573 231.03 79.1102" stroke="#F2D362" stroke-width="1.75101"/>
<path d="M237.109 105.25H226.56C226.42 105.25 226.28 105.279 226.153 105.339C222.677 106.983 221.912 110.097 221.972 112.031C221.987 112.513 222.406 112.857 222.888 112.857H240.883C241.384 112.857 241.815 112.486 241.831 111.985C241.955 108.006 239.096 105.925 237.424 105.303C237.324 105.266 237.217 105.25 237.109 105.25Z" stroke="black" stroke-width="1.75101"/>
<path d="M11.789 143.046L1 145.643V157.032L3.19777 157.581M12.1886 159.829L7.1937 158.58M3.19777 157.581V154.434M3.19777 157.581L7.1937 158.58M7.1937 158.58V154.434" stroke="black" stroke-width="1.79345"/>
<path d="M18.3834 149.04C19.1826 154.954 22.3794 156.033 24.1776 156.033C28.3733 156.033 30.1715 153.302 30.5711 151.637V141.647C29.9335 140.516 29.192 139.655 28.3733 139.024M22.5792 162.426C19.5423 162.426 16.9183 162.426 15.9859 162.426C11.9899 160.988 9.92537 156.499 9.39258 154.435V145.244C13.7448 141.008 22.8296 134.749 28.3733 139.024M21.78 158.031C21.5136 160.961 23.0187 166.502 31.1704 165.224C34.1674 164.757 40.3611 162.147 41.1603 155.434C41.5599 150.239 41.0005 139.642 28.3733 139.024" stroke="#D82111" stroke-width="1.79345"/>
<circle cx="3.398" cy="153.835" r="0.896726" stroke="black" stroke-width="0.604112"/>
<circle cx="6.9937" cy="153.835" r="0.896726" stroke="black" stroke-width="0.604112"/>
<g filter="url(#filter0_i_2756_265)">
<path d="M136.941 153.569V166.58M133.256 158.379H152.112C152.786 159.528 153.023 160.895 152.982 162.315M133.359 162.315H152.982M152.982 162.315C152.942 163.738 152.624 165.214 152.188 166.58M152.188 166.58C151.617 168.369 150.843 169.969 150.226 171.008H139.975C137.81 171.008 137.05 168.329 136.941 166.99V166.58M152.188 166.58H136.941" stroke="#F3E8A0" stroke-width="2.26206"/>
<path d="M118.656 167.399L117.791 168.129L118.3 168.731L119.041 168.463L118.656 167.399ZM115.704 148.62L116.728 149.098L116.744 149.065L116.757 149.031L115.704 148.62ZM131.285 137.631L131.333 138.761L131.354 138.76L131.375 138.758L131.285 137.631ZM148.342 148.046L149.422 147.708L149.407 147.662L149.389 147.617L148.342 148.046ZM141.454 151.9L141.614 153.02L141.623 153.018L141.632 153.017L141.454 151.9ZM133.253 158.953L132.131 158.814L132.107 159.002L132.147 159.187L133.253 158.953ZM128.825 169.04L128.109 169.915L128.548 170.275L129.099 170.137L128.825 169.04ZM119.52 166.67C118.363 165.299 116.789 162.72 115.952 159.555C115.119 156.406 115.029 152.739 116.728 149.098L114.679 148.141C112.704 152.373 112.832 156.606 113.765 160.134C114.694 163.646 116.434 166.521 117.791 168.129L119.52 166.67ZM116.757 149.031C118.031 145.77 122.762 139.128 131.333 138.761L131.237 136.501C121.439 136.921 116.11 144.471 114.65 148.208L116.757 149.031ZM131.375 138.758C135.256 138.45 143.822 140.002 147.296 148.475L149.389 147.617C145.384 137.851 135.57 136.156 131.195 136.503L131.375 138.758ZM147.263 148.383C147.196 148.168 147.431 148.436 146.639 149.024C145.863 149.6 144.278 150.304 141.276 150.783L141.632 153.017C144.797 152.512 146.792 151.727 147.987 150.84C149.166 149.966 149.763 148.799 149.422 147.708L147.263 148.383ZM141.294 150.78C139.913 150.978 137.842 151.594 136.011 152.825C134.163 154.068 132.478 156 132.131 158.814L134.376 159.091C134.619 157.116 135.79 155.7 137.273 154.702C138.773 153.694 140.507 153.178 141.614 153.02L141.294 150.78ZM132.147 159.187C132.421 160.486 132.542 162.504 132.045 164.292C131.559 166.037 130.535 167.446 128.55 167.942L129.099 170.137C132.1 169.387 133.591 167.173 134.224 164.898C134.845 162.665 134.686 160.263 134.36 158.719L132.147 159.187ZM129.541 168.164C127.849 166.78 123.298 164.515 118.27 166.336L119.041 168.463C123.067 167.004 126.793 168.839 128.109 169.915L129.541 168.164Z" fill="black"/>
<circle cx="127.099" cy="159.526" r="1.90324" stroke="#C5BC81" stroke-width="2.26206"/>
</g>
<path d="M245.651 145.148H250.318V164.705H245.651M221.65 172.038V175.594C221.65 176.187 221.65 177.372 222.984 177.372H233.429M243.429 172.038V175.594C243.429 177.194 242.762 177.372 242.096 177.372H237.762M233.429 177.372V172.038M233.429 177.372H237.762M237.762 177.372V172.038" stroke="black" stroke-width="1.99483" stroke-linejoin="round"/>
<path d="M243.654 137.592H220.986C219.209 137.592 218.986 139.148 218.986 140.037V169.816C218.986 171.372 219.875 172.038 220.986 172.038H243.654C245.432 172.038 245.654 170.927 245.654 169.816V140.037C245.654 138.037 244.543 137.592 243.654 137.592Z" stroke="black" stroke-width="1.99483" stroke-linejoin="round"/>
<path d="M223.209 149.148V141.592H241.432V149.148H223.209Z" stroke="#FFC84D" stroke-width="1.99483" stroke-linejoin="round"/>
<path d="M229.431 167.816H224.542C223.876 167.816 223.209 167.55 223.209 166.483V162.483M229.431 167.816V152.927M229.431 167.816H235.432M229.431 152.927H224.542C223.476 152.927 223.209 153.816 223.209 154.482V157.816M229.431 152.927H235.432M235.432 167.816H240.321C241.565 167.816 241.654 166.927 241.654 166.483V162.483M235.432 167.816V152.927M235.432 152.927H240.321C240.988 152.927 241.654 153.149 241.654 154.482V157.816M223.209 162.483H241.654M223.209 162.483V157.816M241.654 162.483V157.816M223.209 157.816H241.654" stroke="#FFC84D" stroke-width="1.99483" stroke-linejoin="round"/>
<defs>
<filter id="filter0_i_2756_265" x="113.111" y="136.462" width="42.9689" height="37.3949" filterUnits="userSpaceOnUse" color-interpolation-filters="sRGB">
<feFlood flood-opacity="0" result="BackgroundImageFix"/>
<feBlend mode="normal" in="SourceGraphic" in2="BackgroundImageFix" result="shape"/>
<feColorMatrix in="SourceAlpha" type="matrix" values="0 0 0 0 0 0 0 0 0 0 0 0 0 0 0 0 0 0 127 0" result="hardAlpha"/>
<feOffset dx="2.69913" dy="1.71763"/>
<feGaussianBlur stdDeviation="0.981503"/>
<feComposite in2="hardAlpha" operator="arithmetic" k2="-1" k3="1"/>
<feColorMatrix type="matrix" values="0 0 0 0 0 0 0 0 0 0 0 0 0 0 0 0 0 0 0.25 0"/>
<feBlend mode="normal" in2="shape" result="effect1_innerShadow_2756_265"/>
</filter>
</defs>
</svg>
