<svg width="260" height="178" viewBox="0 0 260 178" fill="none" xmlns="http://www.w3.org/2000/svg">
<path fill-rule="evenodd" clip-rule="evenodd" d="M60.983 61.6837L49.0349 70.3733C48.9311 70.4487 48.8028 70.4827 48.6753 70.4685C45.4395 70.1089 36.4389 69.6018 26.459 70.4685C22.9963 70.972 19.9196 74.6904 18.186 82.0582C18.1824 82.0734 18.1782 82.0883 18.1732 82.1031C17.1899 85.0531 14.8796 88.7013 11.178 90.1559C12.0375 90.3255 13.1443 90.3753 14.3791 90.1746C16.429 89.8414 18.7879 88.823 20.8662 86.5707C21.8239 83.9249 21.817 81.3518 21.5366 79.8565C21.4843 79.5771 21.6683 79.3081 21.9476 79.2558C22.227 79.2034 22.496 79.3874 22.5483 79.6668C23.1078 82.6506 22.6823 89.5582 16.5656 93.6566V103.213H21.5712C21.5729 103.056 21.5627 102.887 21.536 102.715C21.4665 102.268 21.2922 101.84 20.9698 101.526C20.6566 101.221 20.1527 100.974 19.3191 100.974C19.0348 100.974 18.8044 100.744 18.8044 100.46V95.5575C18.8044 95.3059 18.9863 95.0912 19.2344 95.0499C21.9966 94.5895 27.669 92.1541 30.4152 86.0857C30.783 85.2728 31.0991 84.3935 31.3491 83.4434C31.4215 83.1686 31.7029 83.0044 31.9778 83.0767C32.2527 83.149 32.4169 83.4305 32.3446 83.7054C32.1422 84.4744 31.8985 85.2012 31.6199 85.8876C32.7693 86.0525 33.9114 86.1791 35.0338 86.2735C38.6798 86.5802 42.111 86.5462 44.8884 86.3788C47.259 86.2359 49.1449 85.9964 50.2743 85.7915C50.5411 85.743 50.7997 85.91 50.8655 86.173L54.1336 99.2455C54.1386 99.2656 54.1425 99.286 54.145 99.3065L54.6334 103.213H59.6232C59.4847 102.157 58.9228 101.41 58.2264 100.884C57.4049 100.264 56.4059 99.9631 55.7492 99.881C55.4917 99.8488 55.2984 99.6299 55.2984 99.3703V89.0213C55.2984 88.9414 55.317 88.8626 55.3527 88.7911C57.0487 85.3992 57.4772 81.3456 57.4772 79.7616C57.4772 79.6999 57.4883 79.6387 57.5099 79.5809C58.2102 77.7136 60.0643 75.6453 62.0148 73.8539C63.9847 72.0447 66.1306 70.4489 67.5107 69.5288C67.5952 69.4724 67.6946 69.4424 67.7962 69.4424C71.1569 69.4424 72.9819 68.312 73.9444 66.9976C74.801 65.828 75.0268 64.4422 74.9599 63.3908H69.4303C69.2269 63.3908 69.0425 63.271 68.9599 63.0851C68.1895 61.3517 66.7681 60.7442 65.2196 60.6943C63.6611 60.644 62.0248 61.1696 60.983 61.6837ZM31.1875 86.8647C28.3454 92.779 22.8895 95.3326 19.8337 95.9833V99.9724C20.6307 100.06 21.242 100.355 21.6878 100.789C22.0893 101.18 22.3271 101.655 22.4586 102.122H25.166C24.9516 100.978 24.0374 100.494 23.4873 100.287C23.2864 100.212 23.1533 100.02 23.1533 99.8055V97.2322C23.1533 96.9978 23.3117 96.793 23.5386 96.7341C29.4386 95.2021 32.9723 90.1103 34.2502 87.2367C33.241 87.1405 32.2171 87.0179 31.1875 86.8647ZM35.3298 87.3303C34.1226 90.2519 30.4827 95.8073 24.1827 97.6248V99.4646C24.998 99.8483 26.2413 100.736 26.2413 102.636C26.2413 102.92 26.0109 103.151 25.7267 103.151H22.6006C22.6023 103.391 22.583 103.615 22.5502 103.812C22.5088 104.061 22.2941 104.243 22.0425 104.243H16.0509C15.7667 104.243 15.5363 104.012 15.5363 103.728V93.3788C15.5363 93.2037 15.6253 93.0406 15.7726 92.9459C17.5212 91.8218 18.786 90.4512 19.6862 89.0071C17.9697 90.2677 16.1755 90.9255 14.5442 91.1906C12.2847 91.5578 10.2914 91.1769 9.2499 90.552C9.06757 90.4426 8.97128 90.2323 9.00757 90.0228C9.04386 89.8133 9.20526 89.6477 9.41375 89.606C13.4981 88.7891 16.121 84.9862 17.1894 81.7995C18.9408 74.3756 22.1742 70.0411 26.3272 69.4475C26.3365 69.4462 26.346 69.4451 26.3554 69.4443C36.2187 68.5864 45.1369 69.0596 48.5901 69.424L60.4126 60.8258C60.4355 60.8091 60.4597 60.7944 60.4851 60.7817C61.624 60.2122 63.453 59.6074 65.2528 59.6655C66.9934 59.7216 68.7505 60.4079 69.7544 62.3614H75.4218C75.6758 62.3614 75.8919 62.5468 75.9305 62.7978C76.1275 64.0784 75.9542 65.9953 74.7749 67.6058C73.5944 69.2178 71.4708 70.4356 67.9539 70.4709C66.6075 71.3785 64.5757 72.8994 62.7111 74.612C60.8005 76.3667 59.1388 78.2574 58.506 79.8585C58.4897 81.585 58.0396 85.6525 56.3277 89.1417V98.9361C57.0807 99.0951 58.0267 99.4436 58.8466 100.063C59.8577 100.826 60.6852 102.012 60.6852 103.728C60.6852 104.012 60.4548 104.243 60.1706 104.243H54.179C53.9195 104.243 53.7005 104.049 53.6683 103.792L53.1275 99.465L51.2754 92.0567L49.3445 100.113C50.37 100.52 51.7796 101.597 51.7796 103.728C51.7796 104.012 51.5491 104.243 51.2649 104.243H45.464C45.1798 104.243 44.9494 104.012 44.9494 103.728V100.47L44.4261 87.4359C41.8061 87.5738 38.665 87.5907 35.3298 87.3303ZM45.4538 87.3741L45.9783 100.439C45.9786 100.446 45.9787 100.453 45.9787 100.46V103.213H50.711C50.4778 101.738 49.2635 101.1 48.6239 100.963C48.4885 100.934 48.3704 100.851 48.2966 100.734C48.2228 100.617 48.1994 100.475 48.2317 100.34L50.735 89.8952L49.9826 86.8854C48.8879 87.0617 47.3306 87.2469 45.4538 87.3741Z" fill="black"/>
<path fill-rule="evenodd" clip-rule="evenodd" d="M132.425 56.3933C132.845 56.7439 133.1 57.3345 132.987 57.9562C132.567 60.2809 132.841 63.1695 134.932 64.6327L134.197 65.6816C131.461 63.7664 131.284 60.1772 131.728 57.7282C131.753 57.5868 131.692 57.4494 131.604 57.3759C131.564 57.3421 131.534 57.3358 131.524 57.3349C131.524 57.3349 131.524 57.3349 131.524 57.3349C131.52 57.3345 131.504 57.3326 131.468 57.3584C129.1 59.0536 126.402 62.3594 126.879 67.0123L125.606 67.143C125.065 61.8716 128.135 58.1699 130.723 56.3173C131.315 55.8933 131.987 56.0275 132.425 56.3933Z" fill="black"/>
<path fill-rule="evenodd" clip-rule="evenodd" d="M141.196 96.0907C150.413 90.2989 153.64 79.6199 149.078 72.3608C144.517 65.1017 133.495 63.377 124.278 69.1688C115.062 74.9606 111.834 85.6396 116.396 92.8987C120.958 100.158 131.98 101.883 141.196 96.0907ZM141.878 97.1748C151.501 91.1271 155.211 79.7126 150.163 71.6796C145.115 63.6466 133.221 62.0371 123.597 68.0847C113.973 74.1323 110.264 85.5469 115.312 93.5799C120.36 101.613 132.254 103.222 141.878 97.1748Z" fill="black"/>
<path fill-rule="evenodd" clip-rule="evenodd" d="M149.166 59.1511C147.383 59.8833 146.178 61.5777 146.005 62.9554C145.923 63.6119 145.567 64.5046 145.047 65.2539C144.538 65.9882 143.756 66.7483 142.747 66.8604L142.605 65.5879C143.058 65.5376 143.557 65.1567 143.995 64.5242C144.424 63.9066 144.684 63.2064 144.735 62.7966C144.969 60.9249 146.503 58.8603 148.679 57.9667C150.931 57.0421 153.788 57.3916 156.586 60.1892C157.784 61.3873 158.423 63.7289 157.898 65.9238C157.355 68.1954 155.576 70.301 151.994 71.0175C152.003 71.0157 152.002 71.016 151.991 71.0205C151.97 71.0297 151.909 71.056 151.802 71.1177C151.664 71.198 151.49 71.3139 151.303 71.4596C150.924 71.7542 150.526 72.1412 150.251 72.5542L149.185 71.844C149.56 71.2822 150.068 70.7983 150.517 70.4489C150.744 70.2725 150.965 70.1231 151.16 70.0101C151.334 69.9091 151.548 69.801 151.743 69.762C154.863 69.1381 156.232 67.3853 156.653 65.6258C157.092 63.7897 156.513 61.9275 155.681 61.0946C153.194 58.6082 150.873 58.4501 149.166 59.1511Z" fill="black"/>
<path d="M150.851 61.4542C150.851 61.7907 150.579 62.0634 150.242 62.0634C149.906 62.0634 149.633 61.7907 149.633 61.4542C149.633 61.1177 149.906 60.845 150.242 60.845C150.579 60.845 150.851 61.1177 150.851 61.4542Z" fill="black"/>
<path fill-rule="evenodd" clip-rule="evenodd" d="M134.643 73.5272L136 64.6071L137.266 64.7997L135.893 73.8212L141.529 79.4567L152.176 77.8793L152.364 79.1458L141.833 80.7059L139.974 89.0715L145.209 94.3061L144.303 95.2114L139.072 89.9797L131.118 91.8294L129.957 100.731L128.687 100.565L129.865 91.5362L123.813 85.484L113.363 86.8642L113.195 85.5949L123.532 84.2296L125.564 76.4718L120.137 71.0453L121.043 70.1399L126.472 75.5698L134.643 73.5272ZM135.015 74.7539L126.799 76.8078L124.755 84.615L130.742 90.6024L138.735 88.7434L140.603 80.3414L135.015 74.7539Z" fill="black"/>
<path d="M154.914 65.5157C154.914 65.8522 154.641 66.125 154.305 66.125C153.968 66.125 153.695 65.8522 153.695 65.5157C153.695 65.1793 153.968 64.9065 154.305 64.9065C154.641 64.9065 154.914 65.1793 154.914 65.5157Z" fill="black"/>
<path fill-rule="evenodd" clip-rule="evenodd" d="M106.196 80.8897C109.137 75.8564 114.073 75.0684 116.308 75.4071L116.117 76.673C114.293 76.3967 109.927 77.0418 107.302 81.5356C107.28 81.5725 107.28 81.5954 107.281 81.6096C107.283 81.628 107.292 81.6564 107.317 81.6884C107.371 81.7559 107.467 81.8016 107.577 81.7838C108.939 81.5622 110.563 81.4389 111.872 81.6423C112.524 81.7435 113.161 81.9346 113.65 82.2883C114.168 82.6635 114.505 83.2157 114.505 83.9355H113.225C113.225 83.6716 113.123 83.4877 112.899 83.3255C112.645 83.1419 112.237 82.9946 111.676 82.9075C110.561 82.7343 109.091 82.8347 107.782 83.0475C107.19 83.1438 106.641 82.8949 106.316 82.4858C105.982 82.0667 105.868 81.4522 106.196 80.8897Z" fill="black"/>
<path fill-rule="evenodd" clip-rule="evenodd" d="M157.486 84.0171C155.104 84.2694 152.706 83.323 151.504 82.5541L152.195 81.4757C153.229 82.1378 155.339 82.957 157.351 82.7439C158.044 82.6705 158.724 83.0221 159.138 83.465C159.352 83.6942 159.537 83.9915 159.602 84.3354C159.672 84.6991 159.599 85.0873 159.336 85.4189C157.305 87.9774 153.796 90.5054 148.996 89.9054L149.155 88.6349C153.366 89.1613 156.475 86.9638 158.333 84.623C158.348 84.6035 158.349 84.5992 158.345 84.5747C158.336 84.5305 158.3 84.4439 158.202 84.3389C157.991 84.1135 157.685 83.996 157.486 84.0171Z" fill="black"/>
<path fill-rule="evenodd" clip-rule="evenodd" d="M140.089 98.0404C141.658 103.035 138.065 106.875 135.132 108.816C134.517 109.224 133.844 109.06 133.41 108.687C132.993 108.328 132.731 107.735 132.828 107.111C133.284 104.161 131.713 101.565 130.715 100.617L131.597 99.6887C132.816 100.847 134.629 103.839 134.093 107.306C134.069 107.462 134.138 107.624 134.245 107.716C134.294 107.758 134.334 107.77 134.353 107.773C134.365 107.774 134.385 107.775 134.425 107.749C137.254 105.876 140.162 102.543 138.867 98.4243L140.089 98.0404Z" fill="black"/>
<path fill-rule="evenodd" clip-rule="evenodd" d="M229.012 5.97128C226.877 7.40152 225.277 9.33906 224.386 10.7961C224.14 11.1998 223.686 11.4243 223.218 11.3816C220.854 11.1657 217.665 11.5749 215.308 13.4277C212.991 15.2483 211.366 18.5545 212.272 24.3928C212.363 24.9776 212.686 25.5766 213.375 26.0002C214.073 26.4299 215.194 26.707 216.915 26.5299C217.8 26.4388 218.492 27.2795 218.308 28.1145C217.406 32.1874 220.116 34.9472 222.015 36.0495C222.38 36.2614 222.637 36.6538 222.637 37.108V40.2597C222.637 40.9295 222.099 41.4146 221.506 41.4809C218.784 41.7854 217.682 44.1426 217.394 45.8923C217.39 45.9194 217.396 45.9409 217.416 45.962C217.438 45.986 217.476 46.007 217.527 46.007H226.345C226.322 45.1642 226.56 44.1519 227.263 43.2189C228.15 42.0433 229.731 41.0489 232.316 40.6357C232.39 40.6238 232.537 40.5242 232.609 40.2601C232.681 39.9969 232.608 39.8201 232.543 39.7624C231.113 38.4961 229.866 36.7235 229.944 34.6234C230.022 32.5063 231.435 30.2574 234.865 28.0282C235.1 27.875 235.416 27.9419 235.569 28.1776C235.722 28.4132 235.655 28.7285 235.419 28.8816C232.119 31.027 231.021 33.0194 230.961 34.6609C230.9 36.3195 231.888 37.8228 233.218 39.0003C233.683 39.4124 233.719 40.0581 233.591 40.5279C233.463 40.9968 233.102 41.5407 232.476 41.6408C230.08 42.0239 228.765 42.9178 228.076 43.8316C227.514 44.5775 227.34 45.3739 227.363 46.007H240.169C243.568 45.7466 245.956 44.5071 247.522 42.7742C249.095 41.0323 249.876 38.7483 249.972 36.343C250.165 31.4994 247.582 26.3404 243.426 24.4009C241.587 23.5428 238.804 22.7496 235.955 22.1137C233.114 21.4795 230.247 21.0101 228.262 20.7898C227.658 20.7229 227.196 20.2154 227.196 19.6029V16.9681C227.196 16.4714 227.508 16.0383 227.95 15.8581C236.263 12.4738 237.317 6.87374 236.853 4.24834C236.848 4.22089 236.823 4.18338 236.766 4.17327C233.774 3.63876 231.141 4.54518 229.012 5.97128ZM228.446 5.12567C230.731 3.59439 233.629 2.5788 236.945 3.17129C237.392 3.25121 237.771 3.59463 237.856 4.07134C238.409 7.20303 237.058 13.249 228.334 16.8008C228.257 16.8321 228.214 16.904 228.214 16.9681V19.6029C228.214 19.6912 228.28 19.7678 228.374 19.7782C230.4 20.003 233.304 20.479 236.176 21.1203C239.041 21.7597 241.914 22.5718 243.857 23.4785C248.465 25.6292 251.195 31.2272 250.989 36.3835C250.886 38.9782 250.04 41.5049 248.277 43.4565C246.509 45.4139 243.857 46.7494 240.227 47.0234C240.217 47.0241 240.207 47.0246 240.197 47.0248C240.194 47.0248 240.191 47.0248 240.189 47.0248H217.527C216.867 47.0248 216.27 46.4586 216.39 45.7271C216.704 43.8179 217.98 40.8511 221.393 40.4694C221.545 40.4524 221.619 40.3394 221.619 40.2597V37.108C221.619 37.0482 221.584 36.976 221.504 36.9299C219.424 35.7225 216.274 32.5917 217.314 27.8945C217.332 27.811 217.308 27.7166 217.243 27.6406C217.178 27.5654 217.095 27.5346 217.019 27.5424C215.157 27.7339 213.79 27.451 212.842 26.8671C211.883 26.2773 211.4 25.4093 211.266 24.5488C210.319 18.4451 212.003 14.7306 214.679 12.6275C217.313 10.5564 220.798 10.1386 223.311 10.368C223.396 10.3757 223.475 10.3352 223.518 10.2654C224.469 8.708 226.166 6.6528 228.446 5.12567Z" fill="black"/>
<path fill-rule="evenodd" clip-rule="evenodd" d="M221.845 124.208C222.101 122.866 223.253 120.904 225.133 119.812C226.11 119.244 227.288 118.909 228.638 119.022C229.985 119.134 231.47 119.691 233.069 120.854C234.508 121.901 236.672 124.732 235.374 128.556C241.216 132.268 251.798 143.155 249.799 158.883C249.766 159.144 249.528 159.328 249.267 159.295C249.006 159.262 248.821 159.024 248.854 158.763C250.801 143.454 240.415 132.839 234.764 129.297C234.428 129.087 234.319 128.684 234.439 128.346C235.627 124.995 233.748 122.525 232.509 121.624C231.02 120.541 229.697 120.066 228.558 119.971C227.422 119.876 226.436 120.156 225.611 120.635C223.934 121.609 222.939 123.394 222.768 124.458C222.702 124.865 222.325 125.232 221.84 125.167C220.492 124.988 218.375 124.838 216.093 124.939C213.977 125.032 211.749 125.338 209.867 126.017C211.158 128.835 215.492 134.67 224.115 138.169C224.359 138.268 224.476 138.546 224.377 138.789C224.278 139.033 224.001 139.151 223.757 139.052C215.787 135.818 211.328 130.62 209.504 127.391C209.061 132.524 210.191 141.42 215.825 148.504C217.452 150.55 219.455 152.446 221.907 154.059C220.733 150.005 220.981 146.862 222.245 144.69C223.647 142.279 226.224 141.187 229.145 141.329C234.959 141.612 242.283 146.753 245.588 156.497C245.672 156.746 245.539 157.017 245.29 157.101C245.041 157.186 244.77 157.052 244.686 156.803C241.476 147.337 234.434 142.54 229.098 142.28C226.443 142.151 224.25 143.136 223.068 145.168C221.876 147.217 221.64 150.452 223.194 154.965L225.558 159.824C225.753 160.226 225.578 160.711 225.17 160.895L218.967 163.692H249.327C249.59 163.692 249.803 163.905 249.803 164.168C249.803 164.431 249.59 164.644 249.327 164.644H218.229C217.374 164.644 217.124 163.479 217.903 163.127L224.63 160.094L222.387 155.484C220.077 154.101 218.122 152.482 216.476 150.718C216.721 152.022 216.819 153.579 216.586 155.195C216.207 157.827 214.948 160.625 212.019 162.718C211.805 162.871 211.507 162.821 211.355 162.607C211.202 162.393 211.251 162.096 211.465 161.943C214.148 160.027 215.295 157.48 215.644 155.059C215.989 152.663 215.548 150.401 215.034 149.039C208.613 140.921 207.893 130.562 208.768 125.665C208.796 125.505 208.906 125.37 209.057 125.308C211.172 124.449 213.713 124.09 216.051 123.987C218.328 123.887 220.444 124.029 221.845 124.208Z" fill="black"/>
<path d="M226.61 126.75C226.61 127.765 227.433 128.588 228.448 128.588C229.462 128.588 230.285 127.765 230.285 126.75C230.285 125.736 229.462 124.913 228.448 124.913C227.433 124.913 226.61 125.736 226.61 126.75Z" fill="black"/>
<path fill-rule="evenodd" clip-rule="evenodd" d="M47.9112 135.484C47.9802 135.76 47.8123 136.039 47.5362 136.108C46.5832 136.347 45.1417 136.924 43.9505 137.865C42.7626 138.804 41.8783 140.056 41.8783 141.657C41.8783 141.941 41.6476 142.172 41.363 142.172C41.0784 142.172 40.8477 141.941 40.8477 141.657C40.8477 139.629 41.9795 138.109 43.3116 137.057C44.6406 136.007 46.2232 135.374 47.2863 135.109C47.5624 135.04 47.8422 135.207 47.9112 135.484ZM48.4945 136.929C48.6002 137.194 48.4717 137.493 48.2075 137.599C46.8917 138.125 44.9797 140.222 45.2033 143.129C45.2251 143.413 45.0128 143.661 44.729 143.683C44.4453 143.705 44.1976 143.492 44.1757 143.208C43.9155 139.825 46.1163 137.326 47.8247 136.642C48.0889 136.536 48.3888 136.665 48.4945 136.929Z" fill="black"/>
<path fill-rule="evenodd" clip-rule="evenodd" d="M10.0178 128.821C10.0918 128.546 10.3746 128.384 10.6494 128.458C13.4014 129.199 16.6285 131.264 18.1846 135.467C19.7356 139.657 19.5904 145.875 15.8294 154.859C14.9549 156.949 14.5195 160.02 15.9109 162.539C17.2801 165.017 20.5305 167.149 27.4506 167.149C27.7352 167.149 27.966 167.38 27.966 167.664C27.966 167.949 27.7352 168.18 27.4506 168.18C20.3388 168.18 16.6336 165.977 15.0089 163.037C13.4065 160.137 13.9387 156.707 14.8787 154.462C18.5866 145.604 18.6431 139.675 17.218 135.825C15.798 131.989 12.8714 130.123 10.3815 129.453C10.1067 129.379 9.94386 129.096 10.0178 128.821Z" fill="black"/>
<path fill-rule="evenodd" clip-rule="evenodd" d="M45.5928 116.745C45.7255 116.842 45.804 116.997 45.804 117.161V124.249C46.8965 124.382 48.2999 124.805 49.4557 125.715C50.7734 126.753 51.7344 128.399 51.5709 130.841C52.3402 131.469 53.1307 132.259 53.7577 133.136C54.4404 134.091 54.9596 135.191 54.9971 136.325C55.0356 137.489 54.5624 138.618 53.3985 139.581C52.3156 140.476 50.6409 141.223 48.2233 141.769V164.338C48.2233 166.489 47.5617 168.13 46.5003 168.884C45.9549 169.272 45.3125 169.413 44.6625 169.246C44.0936 169.101 43.5655 168.732 43.1074 168.179H27.4463C27.3281 168.179 27.2135 168.139 27.1217 168.064C22.5194 164.333 21.4892 160.417 22.186 157.014C22.8712 153.668 25.2041 150.924 27.1284 149.416C27.132 149.413 27.1356 149.411 27.1392 149.408C30.8473 146.657 32.719 144.291 33.5733 142.488C34.395 140.754 34.2581 139.593 33.9949 139.067C30.7099 136.235 30.3091 132.373 31.4881 129.239C32.6001 126.282 35.1661 123.867 38.1382 123.622C38.2941 121.499 39.4447 119.956 40.809 118.868C42.2671 117.704 43.9998 117.03 45.1324 116.67C45.2891 116.62 45.4601 116.648 45.5928 116.745ZM35.228 139.99C35.2461 140.802 35.0409 141.798 34.5046 142.93C33.5549 144.933 31.5471 147.42 27.7588 150.231C25.9545 151.647 23.8153 154.194 23.1957 157.221C22.5937 160.161 23.4038 163.661 27.6302 167.149H42.4397C42.1823 166.647 41.9558 166.059 41.768 165.383L41.7674 165.38L40.3199 160.073C39.2302 159.05 37.5513 158.539 35.7995 158.348C34.0104 158.153 32.2393 158.3 31.1671 158.494C30.8871 158.545 30.619 158.359 30.5683 158.079C30.5175 157.799 30.7035 157.531 30.9835 157.48C32.1381 157.271 34.0097 157.116 35.9114 157.323C37.2723 157.472 38.6985 157.812 39.8883 158.49L38.1384 152.074C38.0635 151.8 38.2254 151.516 38.4999 151.441C38.7745 151.367 39.0578 151.528 39.1327 151.803L42.761 165.107C42.7611 165.107 42.7612 165.108 42.7613 165.108C43.0397 166.11 43.396 166.848 43.7729 167.358C44.1704 167.896 44.5733 168.16 44.9181 168.248C45.2508 168.333 45.5844 168.271 45.9034 168.044C46.5711 167.57 47.1927 166.34 47.1927 164.338V141.354C47.1927 141.11 47.3637 140.9 47.6024 140.85C50.1645 140.313 51.7819 139.58 52.7419 138.786C53.6809 138.01 53.9941 137.177 53.967 136.359C53.9389 135.509 53.5409 134.605 52.9194 133.735C52.302 132.872 51.4938 132.085 50.7173 131.478C50.578 131.369 50.5042 131.197 50.5218 131.021C50.7458 128.78 49.9149 127.388 48.8181 126.525C47.6912 125.638 46.2459 125.283 45.2641 125.236C44.9894 125.223 44.7734 124.996 44.7734 124.721V117.881C43.7615 118.252 42.5151 118.824 41.4519 119.673C40.1479 120.714 39.1508 122.141 39.1508 124.116C39.1508 124.401 38.9201 124.632 38.6355 124.632C36.011 124.632 33.5255 126.749 32.4527 129.601C31.394 132.416 31.7642 135.83 34.7347 138.344C35.9235 139.35 37.544 140.226 39.6888 140.86C39.9617 140.941 40.1176 141.227 40.037 141.5C39.9563 141.773 39.6697 141.929 39.3968 141.848C37.7476 141.361 36.3663 140.729 35.228 139.99Z" fill="black"/>
<path fill-rule="evenodd" clip-rule="evenodd" d="M32.647 14.0343C32.4135 14.2211 32.3756 14.5619 32.5625 14.7954C32.9611 15.2937 33.6881 16.0187 34.6071 16.6233C35.5229 17.2258 36.6782 17.7407 37.921 17.7407C37.9494 17.7407 37.9778 17.7385 38.0059 17.734C40.8291 17.2859 45.2573 17.2372 48.9514 18.5197C50.7928 19.1589 52.4214 20.1181 53.5875 21.4929C54.7459 22.8586 55.4769 24.6677 55.4769 27.0705C55.4769 27.0747 55.4769 27.0789 55.477 27.0831C55.5209 28.9719 54.9886 32.2019 54.0861 36.0293C53.1877 39.8388 51.9356 44.1875 50.569 48.2872C50.4745 48.5709 50.6278 48.8776 50.9115 48.9721C51.1952 49.0667 51.5019 48.9134 51.5965 48.6297C52.9719 44.5033 54.2333 40.1231 55.1401 36.2778C56.0418 32.4542 56.606 29.1064 56.5599 27.0643C56.5586 24.4248 55.7474 22.365 54.4134 20.7923C53.0859 19.2274 51.2698 18.1781 49.3066 17.4966C45.4112 16.1443 40.8172 16.1979 37.8801 16.6575C36.943 16.6462 36.0114 16.2509 35.2023 15.7186C34.3847 15.1806 33.7407 14.5346 33.4081 14.1189C33.2213 13.8854 32.8806 13.8475 32.647 14.0343ZM16.6502 19.4126C16.3583 19.3478 16.069 19.5318 16.0041 19.8238C15.5323 21.9466 15.3193 25.3025 16.2167 28.512C17.0992 31.6679 19.0688 34.7141 22.934 36.2507L26.1543 48.5951C26.2298 48.8845 26.5256 49.0579 26.815 48.9824C27.1043 48.9069 27.2777 48.6111 27.2022 48.3218L23.9118 35.7084C23.8672 35.5374 23.742 35.399 23.5764 35.3374C19.9392 33.9865 18.0939 31.2037 17.2597 28.2203C16.4206 25.2191 16.619 22.0489 17.0613 20.0587C17.1262 19.7668 16.9421 19.4775 16.6502 19.4126ZM29.1681 37.089C29.098 37.3797 29.2767 37.6723 29.5675 37.7425C30.6699 38.0086 31.8368 38.2023 33.0301 38.3379L31.6261 48.3835C31.5847 48.6797 31.7912 48.9533 32.0874 48.9947C32.3836 49.0361 32.6572 48.8296 32.6986 48.5334L34.1087 38.4446C37.0924 38.6974 40.1928 38.6229 42.8533 38.423C43.9556 40.1601 45.8794 44.2248 45.8794 48.4584C45.8794 48.7575 46.1219 48.9999 46.4209 48.9999C46.72 48.9999 46.9624 48.7575 46.9624 48.4584C46.9624 44.3111 45.2479 40.3669 44.058 38.3216C45.8384 38.1557 47.363 37.9417 48.436 37.7491C48.7304 37.6962 48.9262 37.4148 48.8733 37.1204C48.8205 36.8261 48.5391 36.6303 48.2447 36.6831C47.0364 36.9 45.2151 37.1486 43.0874 37.3186C40.2442 37.5458 36.8725 37.6312 33.6968 37.3195C32.3465 37.1869 31.0368 36.983 29.8216 36.6897C29.5309 36.6195 29.2383 36.7983 29.1681 37.089Z" fill="black"/>
<path fill-rule="evenodd" clip-rule="evenodd" d="M18.3642 9.52753C18.1809 7.81549 18.8633 6.34187 20.0134 5.24221C21.294 4.01779 23.1533 3.25003 25.0836 3.05149C27.0171 2.85264 29.0764 3.2193 30.7554 4.33372C32.4485 5.45746 33.7108 7.31329 34.0731 9.99398C34.3315 11.9061 33.8238 14.7965 32.1599 16.9787C31.3202 18.0799 30.1803 19.0076 28.6928 19.5269C27.2057 20.0462 25.4067 20.145 23.2679 19.6459C21.4461 19.2208 20.2178 17.2123 20.4894 15.217C20.7735 13.1296 22.6233 11.1994 26.6049 10.6306C26.9009 10.5883 27.1752 10.794 27.2175 11.0901C27.2598 11.3861 27.0541 11.6604 26.758 11.7027C23.0619 12.2307 21.7583 13.9246 21.5625 15.363C21.3542 16.8935 22.3195 18.3125 23.514 18.5913C25.4881 19.0519 27.0742 18.945 28.3358 18.5045C29.5972 18.064 30.57 17.2777 31.2987 16.322C32.7716 14.3903 33.2237 11.7949 32.9999 10.139L32.9999 10.139C32.6767 7.74775 31.5739 6.1768 30.1565 5.23605C28.7251 4.28599 26.9284 3.95046 25.1944 4.1288C23.4573 4.30747 21.8377 4.99629 20.7618 6.02497C19.701 7.0393 19.1691 8.3756 19.5314 9.9447C19.5693 10.109 19.5285 10.2816 19.4211 10.4116C19.3136 10.5415 19.1517 10.614 18.9832 10.6076C15.6578 10.4813 12.3534 12.8088 10.8668 15.1891C10.1171 16.3895 9.92337 17.4493 10.2178 18.1505C10.4891 18.7965 11.3005 19.3997 13.2455 19.3997H19.8264C20.1254 19.3997 20.3679 19.6421 20.3679 19.9412C20.3679 20.2403 20.1254 20.4827 19.8264 20.4827H13.2455C11.1322 20.4827 9.74324 19.8177 9.21929 18.5698C8.71857 17.3773 9.13497 15.9176 9.94822 14.6154C11.4924 12.143 14.8056 9.68381 18.3642 9.52753Z" fill="black"/>
<path d="M147.582 20.7104C147.582 22.2314 146.897 25.6154 144.16 26.9843M147.011 33.8284C148.342 33.5433 151.289 32.0604 152.43 28.4101M135.89 26.4139C134.559 27.4596 131.612 30.1782 130.471 32.6877" stroke="black" stroke-width="1.17096" stroke-linecap="round" stroke-linejoin="round"/>
<path d="M126.484 38.1056H142.994C143.385 38.1056 143.77 37.9932 144.077 37.7518C146.584 35.7823 149.424 31.4105 144.117 26.8431C143.785 26.5579 143.356 26.4135 142.919 26.4135H129.573C129.056 26.4135 128.559 26.2079 128.193 25.8419L122.778 20.4261C122.412 20.0601 121.915 19.8545 121.398 19.8545H117.073" stroke="black" stroke-width="1.17096" stroke-linecap="round" stroke-linejoin="round"/>
<path d="M131.899 48.6556C131.899 41.8115 139.313 42.9522 143.876 42.3818C164.123 39.5301 160.701 14.72 145.587 14.72H115.929C111.652 14.72 105.378 10.1587 111.652 4.16929C115.359 1.31855 122.773 2.17233 129.047 9.01654" stroke="black" stroke-width="1.17096" stroke-linecap="round" stroke-linejoin="round"/>
<circle cx="1.42587" cy="1.42587" r="1.42587" transform="matrix(-1 0 0 1 131.895 18.4286)" fill="black"/>
<path fill-rule="evenodd" clip-rule="evenodd" d="M241.675 75.266C242.669 74.8164 243.748 74.8804 244.482 75.0733C244.747 75.1432 245.019 74.9846 245.089 74.719C245.159 74.4534 245 74.1814 244.735 74.1115C243.855 73.88 242.528 73.7888 241.265 74.3597C239.976 74.9428 238.833 76.1799 238.294 78.4452C238.23 78.7124 238.395 78.9805 238.662 79.0441C238.93 79.1077 239.198 78.9427 239.261 78.6756C239.741 76.6626 240.707 75.7035 241.675 75.266Z" fill="black"/>
<path fill-rule="evenodd" clip-rule="evenodd" d="M245.414 78.5494C246.457 78.3347 247.545 78.69 248.333 79.1625C248.568 79.3038 248.874 79.2275 249.015 78.992C249.156 78.7565 249.08 78.451 248.844 78.3097C247.934 77.7636 246.588 77.2923 245.214 77.5753C243.8 77.8664 242.485 78.9276 241.626 81.1842C241.528 81.4408 241.657 81.7282 241.913 81.8259C242.17 81.9237 242.457 81.7949 242.555 81.5383C243.325 79.5166 244.411 78.7559 245.414 78.5494Z" fill="black"/>
<path fill-rule="evenodd" clip-rule="evenodd" d="M236.486 83.6653C236.211 83.6653 235.988 83.8879 235.988 84.1626C235.988 88.9445 237.348 91.9916 239.139 93.8456C240.922 95.6921 243.086 96.3063 244.608 96.3063C244.883 96.3063 245.105 96.0836 245.105 95.809C245.105 95.5344 244.883 95.3117 244.608 95.3117C243.329 95.3117 241.432 94.7885 239.854 93.1547C238.284 91.5284 236.983 88.7522 236.983 84.1626C236.983 83.8879 236.76 83.6653 236.486 83.6653Z" fill="black"/>
<path fill-rule="evenodd" clip-rule="evenodd" d="M241.581 84.174C241.306 84.174 241.083 84.3966 241.083 84.6712C241.083 88.4313 242.188 90.6672 243.721 91.8649C245.242 93.0532 247.079 93.1354 248.377 92.8109C248.644 92.7443 248.806 92.4743 248.739 92.2079C248.672 91.9414 248.402 91.7794 248.136 91.846C247.057 92.1157 245.556 92.0364 244.333 91.0812C243.123 90.1353 242.078 88.2454 242.078 84.6712C242.078 84.3966 241.855 84.174 241.581 84.174Z" fill="black"/>
<path fill-rule="evenodd" clip-rule="evenodd" d="M207.985 61.3932C207.927 61.6617 208.098 61.9261 208.367 61.9836C208.919 62.1019 209.367 62.4535 209.732 63.0107C210.102 63.5747 210.37 64.3254 210.551 65.1728C210.912 66.8669 210.902 68.8245 210.778 70.108C210.764 70.2476 210.81 70.3863 210.904 70.4901C210.999 70.594 211.132 70.6532 211.273 70.6532C211.347 70.6532 211.423 70.653 211.501 70.6528C212.766 70.6498 214.395 70.6459 216.022 71.4314C217.723 72.2523 219.492 73.977 220.733 77.6984C221.002 78.5067 221.564 79.7001 222.391 80.6764C223.213 81.6468 224.374 82.4869 225.83 82.3656C226.103 82.3428 226.307 82.1025 226.284 81.8288C226.261 81.5551 226.021 81.3517 225.747 81.3745C224.757 81.457 223.881 80.8965 223.15 80.0335C222.424 79.1763 221.916 78.1034 221.676 77.3839L221.225 77.5343L221.676 77.3838C220.37 73.4652 218.447 71.4974 216.455 70.5357C214.751 69.7136 213.05 69.6577 211.811 69.6574C211.895 68.3349 211.863 66.558 211.523 64.9652C211.329 64.0533 211.027 63.1711 210.564 62.4654C210.097 61.753 209.449 61.1984 208.575 61.0111C208.307 60.9536 208.043 61.1246 207.985 61.3932ZM209.574 73.7173C209.432 73.9519 209.506 74.2578 209.741 74.4006C210.607 74.9279 211.754 76.1747 212.821 78.3048C213.881 80.4235 214.843 83.3826 215.364 87.284C216.149 93.176 220.274 99.3971 226.582 102.381C232.926 105.382 241.397 105.075 250.788 98.0578C250.9 97.9743 250.972 97.8478 250.985 97.709C251.096 96.6057 250.385 94.4928 247.317 93.6161C247.053 93.5406 246.777 93.6935 246.702 93.9576C246.626 94.2217 246.779 94.4969 247.043 94.5723C249.42 95.2515 249.96 96.6927 249.999 97.4052C240.93 104.1 232.921 104.28 227.007 101.482C221.014 98.6468 217.092 92.7205 216.349 87.1526C215.817 83.1595 214.827 80.0916 213.71 77.8597C212.599 75.6394 211.344 74.2122 210.258 73.5511C210.023 73.4083 209.717 73.4827 209.574 73.7173Z" fill="black"/>
<path fill-rule="evenodd" clip-rule="evenodd" d="M238.012 97.1737C231.389 97.1737 226.019 91.8041 226.019 85.1804C226.019 78.5567 231.389 73.1872 238.012 73.1872C244.636 73.1872 250.005 78.5567 250.005 85.1804C250.005 91.8041 244.636 97.1737 238.012 97.1737ZM238.012 98.1682C230.839 98.1682 225.024 92.3534 225.024 85.1804C225.024 78.0075 230.839 72.1926 238.012 72.1926C245.185 72.1926 251 78.0075 251 85.1804C251 92.3534 245.185 98.1682 238.012 98.1682Z" fill="black"/>
<path fill-rule="evenodd" clip-rule="evenodd" d="M131.051 126.988C132.083 123.729 136.035 118.664 144.923 119.339C145.876 119.411 146.259 120.499 145.736 121.186C144.889 122.3 143.855 123.883 143.111 125.538C142.378 127.168 141.975 128.76 142.187 130.021C146.701 132.752 155.288 140.845 156.042 153.071C158.994 154.105 164.235 157.475 164.993 164.099C165.065 164.731 164.598 165.305 163.952 165.347C162.771 165.424 161.06 165.378 159.268 165.021C157.541 164.677 155.693 164.036 154.173 162.896C153.54 163.856 152.584 165.038 151.409 165.993C150.17 166.999 148.612 167.813 146.89 167.737C146.608 167.725 146.32 167.602 146.115 167.361C145.315 166.418 144.896 164.71 145.195 162.815C145.494 160.921 146.513 158.784 148.665 156.856C147.176 153.938 144.706 152.014 142.157 150.753C140.027 149.699 137.869 149.123 136.25 148.821C136.748 150.842 137.553 152.627 138.237 153.829C138.679 154.604 138.105 155.662 137.13 155.57C131.223 155.014 127.727 153.091 125.807 150.782C125.742 150.704 125.679 150.625 125.618 150.547C119.067 152.941 114.45 154.252 111.306 154.772C109.712 155.036 108.459 155.104 107.507 154.988C106.57 154.874 105.802 154.566 105.361 153.951C104.907 153.319 104.937 152.559 105.148 151.872C105.359 151.182 105.785 150.447 106.316 149.718C107.365 148.276 108.935 146.706 110.523 145.326C110.588 142.046 111.676 137.353 114.77 133.524C117.902 129.646 123.041 126.72 131.051 126.988ZM124.843 149.366C118.482 151.679 114.052 152.924 111.082 153.415C109.546 153.67 108.439 153.716 107.673 153.623C106.894 153.528 106.59 153.306 106.478 153.149C106.378 153.01 106.314 152.758 106.462 152.276C106.61 151.795 106.937 151.202 107.428 150.527C108.405 149.183 109.92 147.666 111.498 146.3C111.746 146.085 111.891 145.778 111.896 145.446C111.938 142.394 112.95 137.964 115.839 134.388C118.702 130.845 123.459 128.073 131.151 128.367C131.691 128.388 132.174 128.034 132.325 127.523C133.105 124.88 136.388 120.24 144.397 120.682C143.555 121.828 142.584 123.358 141.857 124.974C141.069 126.725 140.516 128.694 140.86 130.405C140.925 130.731 141.127 130.99 141.388 131.145C145.654 133.687 154.01 141.508 154.677 153.289C154.704 153.77 155.025 154.18 155.474 154.33C158.087 155.204 162.799 158.179 163.593 163.99C162.53 164.036 161.064 163.976 159.537 163.672C157.872 163.341 156.184 162.729 154.864 161.693C154.322 161.268 153.507 161.385 153.124 161.986C152.552 162.884 151.645 164.029 150.542 164.926C149.47 165.796 148.284 166.377 147.082 166.367C146.653 165.773 146.311 164.564 146.553 163.029C146.805 161.433 147.688 159.535 149.697 157.778C150.069 157.452 150.218 156.895 149.979 156.409C148.325 153.047 145.538 150.891 142.766 149.52C140.247 148.274 137.708 147.66 135.958 147.374C135.716 145.835 135.692 144.231 136.035 142.686C136.118 142.315 135.884 141.948 135.513 141.866C135.143 141.783 134.775 142.017 134.693 142.388C134.264 144.321 134.349 146.293 134.689 148.105C135.138 150.506 136.042 152.667 136.849 154.16C131.436 153.578 128.442 151.8 126.864 149.903C125.243 147.953 125.042 145.79 125.338 144.406C125.418 144.035 125.181 143.67 124.81 143.59C124.439 143.511 124.073 143.747 123.994 144.118C123.693 145.521 123.807 147.465 124.843 149.366Z" fill="black"/>
<path d="M121.729 138.986C121.729 139.619 121.216 140.132 120.583 140.132C119.95 140.132 119.438 139.619 119.438 138.986C119.438 138.353 119.95 137.84 120.583 137.84C121.216 137.84 121.729 138.353 121.729 138.986Z" fill="black"/>
</svg>
