<svg width="20" height="24" viewBox="0 0 20 24" fill="none" xmlns="http://www.w3.org/2000/svg">
<path d="M13.5073 3.64752C14.4104 2.68073 15.0212 1.33847 14.854 0C13.553 0.0464296 11.9762 0.763701 11.0423 1.73041C10.2052 2.58623 9.47229 3.95401 9.66789 5.26622C11.1196 5.36443 12.6028 4.61275 13.5073 3.64752ZM16.278 12.8911C16.2503 9.89033 18.6538 8.44912 18.7602 8.37948C17.409 6.34176 15.3046 6.06294 14.5551 6.03149C12.7632 5.84338 11.0612 7.11666 10.1515 7.11666C9.24541 7.11666 7.84396 6.05619 6.3578 6.08467C4.40405 6.11686 2.60383 7.25455 1.60041 9.05765C-0.429164 12.685 1.08021 18.0584 3.05792 21.0007C4.02471 22.4411 5.17582 24.0569 6.68742 23.9984C8.14658 23.94 8.69666 23.0279 10.4571 23.0279C12.2183 23.0279 12.7114 23.9984 14.2522 23.9692C15.8201 23.94 16.8123 22.5011 17.7709 21.0562C18.88 19.3857 19.3372 17.7684 19.3634 17.6867C19.3297 17.6672 16.3102 16.4794 16.278 12.8911Z" fill="#515154"/>
</svg>
