<svg width="260" height="190" viewBox="0 0 260 190" fill="none" xmlns="http://www.w3.org/2000/svg">
<path d="M53.9766 6.96094H18.8431C3.55396 6.96094 2.91729 26.5959 17.9849 26.5959M53.9766 6.96094L48.0156 1M53.9766 6.96094L48.0156 12.919" stroke="black" stroke-width="2" stroke-linecap="round" stroke-linejoin="round"/>
<path fill-rule="evenodd" clip-rule="evenodd" d="M134.196 11.8774C134.582 11.4907 135.209 11.4907 135.596 11.8774L143.495 19.7762C143.882 20.1629 143.882 20.7899 143.495 21.1766L135.596 29.0753C135.209 29.462 134.582 29.462 134.196 29.0753C133.809 28.6886 133.809 28.0616 134.196 27.6749L140.404 21.4666H124.035C123.488 21.4666 123.045 21.0233 123.045 20.4764C123.045 19.9295 123.488 19.4861 124.035 19.4861H140.404L134.196 13.2778C133.809 12.8911 133.809 12.2641 134.196 11.8774Z" fill="black"/>
<path fill-rule="evenodd" clip-rule="evenodd" d="M145.571 2.98047H121.382C118.386 2.98047 115.957 5.40914 115.957 8.40506V32.5949C115.957 35.5909 118.386 38.0195 121.382 38.0195H145.571C148.567 38.0195 150.996 35.5909 150.996 32.5949V8.40506C150.996 5.40914 148.567 2.98047 145.571 2.98047ZM121.382 1C117.292 1 113.977 4.31536 113.977 8.40506V32.5949C113.977 36.6846 117.292 40 121.382 40H145.571C149.661 40 152.977 36.6846 152.977 32.5949V8.40506C152.977 4.31536 149.661 1 145.571 1H121.382Z" fill="black"/>
<path d="M212.977 1V38.9688" stroke="black" stroke-width="2" stroke-linecap="round" stroke-linejoin="round"/>
<path d="M238.289 3.03125L221.258 20.0625M221.258 20.0625L238.289 37.0938M221.258 20.0625H252.977" stroke="black" stroke-width="2" stroke-linecap="round" stroke-linejoin="round"/>
<path fill-rule="evenodd" clip-rule="evenodd" d="M35.9666 72.3561C35.632 72.7688 35.6953 73.3745 36.108 73.7091L45.7814 81.5524H7.41977C6.88852 81.5524 6.45785 81.9831 6.45785 82.5144C6.45785 83.0456 6.88852 83.4763 7.41977 83.4763H46.1728L36.0336 93.6155C35.658 93.9911 35.658 94.6002 36.0336 94.9758C36.4093 95.3515 37.0183 95.3515 37.394 94.9758L49.1753 83.1945C49.368 83.0018 49.4699 82.7365 49.4557 82.4643C49.4415 82.1922 49.3126 81.9388 49.1009 81.7672L37.3196 72.2148C36.907 71.8802 36.3012 71.9435 35.9666 72.3561Z" fill="black"/>
<path fill-rule="evenodd" clip-rule="evenodd" d="M19.9474 96.8747C20.282 97.2873 20.2187 97.8931 19.8061 98.2277L10.1327 106.071H48.4943C49.0255 106.071 49.4562 106.502 49.4562 107.033C49.4562 107.564 49.0255 107.995 48.4943 107.995H9.74124L19.8804 118.134C20.2561 118.51 20.2561 119.119 19.8804 119.494C19.5048 119.87 18.8957 119.87 18.5201 119.494L6.73877 107.713C6.54608 107.52 6.44416 107.255 6.45834 106.983C6.47251 106.711 6.60146 106.457 6.81313 106.286L18.5944 96.7333C19.0071 96.3987 19.6128 96.462 19.9474 96.8747Z" fill="black"/>
<path d="M120.604 79.0959L127.699 72M127.699 72L134.795 79.0959M127.699 72V97.8493" stroke="black" stroke-width="1.89744" stroke-linecap="round" stroke-linejoin="round"/>
<path d="M109.457 96.835V104.438C109.457 106.677 111.272 108.492 113.512 108.492H142.402C144.642 108.492 146.457 106.677 146.457 104.438V96.835" stroke="black" stroke-width="1.89744" stroke-linecap="round"/>
<path d="M206.457 72H253.545" stroke="black" stroke-width="2" stroke-linecap="round"/>
<path d="M209.133 102.5L231.071 80.5615L253.01 102.5" stroke="black" stroke-width="2" stroke-linecap="round"/>
<circle cx="25" cy="170.776" r="18" stroke="black" stroke-width="2"/>
<path d="M20.5 178.776L29.5 171.276L20.5 162.276" stroke="black" stroke-width="2" stroke-linecap="round" stroke-linejoin="round"/>
<path d="M133.5 151.776L146 164.276M146 164.276L133.5 176.776M146 164.276H104" stroke="black" stroke-width="2" stroke-linecap="round" stroke-linejoin="round"/>
<path fill-rule="evenodd" clip-rule="evenodd" d="M215.367 160.496C212.698 162.887 210.439 165.591 208.771 168.092L216.27 166.593C216.758 166.495 217.234 166.812 217.331 167.301C217.429 167.789 217.112 168.265 216.624 168.362L207.079 170.271C206.814 170.324 206.539 170.256 206.33 170.084C206.121 169.913 206 169.657 206 169.386V158.697C206 158.198 206.404 157.794 206.902 157.794C207.401 157.794 207.805 158.198 207.805 158.697V166.311C209.489 163.913 211.653 161.4 214.163 159.152C217.608 156.066 221.753 153.437 226.253 152.332C230.782 151.221 235.642 151.664 240.42 154.683C245.171 157.685 249.768 163.187 253.915 172.059C254.126 172.51 253.931 173.047 253.48 173.258C253.028 173.469 252.491 173.274 252.28 172.823C248.218 164.132 243.813 158.961 239.456 156.208C235.127 153.473 230.776 153.08 226.683 154.085C222.562 155.096 218.674 157.533 215.367 160.496Z" fill="black"/>
</svg>
