<svg width="260" height="178" viewBox="0 0 260 178" fill="none" xmlns="http://www.w3.org/2000/svg">
<path d="M129.34 77.8222L135.285 71.877M135.285 71.877L141.23 77.8222M135.285 71.877V93.5345" stroke="black" stroke-width="1.58974" stroke-linecap="round" stroke-linejoin="round"/>
<path d="M120 92.6852V99.055C120 100.931 121.521 102.452 123.397 102.452H147.603C149.479 102.452 151 100.931 151 99.055V92.6852" stroke="black" stroke-width="1.58974" stroke-linecap="round"/>
<path d="M51.4902 18.3947H19.6941C5.85732 18.3947 5.28113 36.1646 18.9175 36.1646M51.4902 18.3947L46.0955 13M51.4902 18.3947L46.0955 23.7868" stroke="black" stroke-width="1.81002" stroke-linecap="round" stroke-linejoin="round"/>
<path fill-rule="evenodd" clip-rule="evenodd" d="M135.384 17.353C135.717 17.0205 136.256 17.0205 136.588 17.353L143.379 24.1441C143.712 24.4766 143.712 25.0157 143.379 25.3482L136.588 32.1393C136.256 32.4718 135.717 32.4718 135.384 32.1393C135.052 31.8068 135.052 31.2678 135.384 30.9353L140.722 25.5975H126.648C126.178 25.5975 125.797 25.2164 125.797 24.7462C125.797 24.276 126.178 23.8948 126.648 23.8948H140.722L135.384 18.557C135.052 18.2245 135.052 17.6855 135.384 17.353Z" fill="black"/>
<path fill-rule="evenodd" clip-rule="evenodd" d="M145.165 9.70276H124.367C121.791 9.70276 119.703 11.7909 119.703 14.3667V35.1646C119.703 37.7404 121.791 39.8285 124.367 39.8285H145.165C147.74 39.8285 149.828 37.7404 149.828 35.1646V14.3667C149.828 11.7909 147.74 9.70276 145.165 9.70276ZM124.367 8C120.85 8 118 10.8505 118 14.3667V35.1646C118 38.6808 120.85 41.5312 124.367 41.5312H145.165C148.681 41.5312 151.531 38.6808 151.531 35.1646V14.3667C151.531 10.8505 148.681 8 145.165 8H124.367Z" fill="black"/>
<path fill-rule="evenodd" clip-rule="evenodd" d="M30.9613 68.266C30.7123 68.5731 30.7594 69.0238 31.0665 69.2728L38.2648 75.1093H9.7186C9.32328 75.1093 9.0028 75.4298 9.0028 75.8251C9.0028 76.2204 9.32328 76.5409 9.7186 76.5409H38.5561L31.0112 84.0858C30.7316 84.3654 30.7316 84.8186 31.0112 85.0981C31.2907 85.3776 31.7439 85.3776 32.0235 85.0981L40.7903 76.3312C40.9337 76.1878 41.0096 75.9904 40.999 75.7878C40.9885 75.5853 40.8925 75.3968 40.735 75.2691L31.9681 68.1608C31.6611 67.9118 31.2103 67.9589 30.9613 68.266Z" fill="black"/>
<path fill-rule="evenodd" clip-rule="evenodd" d="M19.0387 86.5112C19.2877 86.8183 19.2406 87.2691 18.9335 87.518L11.7352 93.3545H40.2814C40.6767 93.3545 40.9972 93.675 40.9972 94.0703C40.9972 94.4656 40.6767 94.7861 40.2814 94.7861H11.4439L18.9888 102.331C19.2684 102.611 19.2684 103.064 18.9888 103.343C18.7093 103.623 18.2561 103.623 17.9765 103.343L9.20965 94.5765C9.06626 94.4331 8.99042 94.2356 9.00097 94.0331C9.01152 93.8306 9.10747 93.642 9.26499 93.5143L18.0319 86.406C18.3389 86.1571 18.7897 86.2042 19.0387 86.5112Z" fill="black"/>
<path d="M218.373 10V40.9688" stroke="black" stroke-width="1.63128" stroke-linecap="round" stroke-linejoin="round"/>
<path d="M239.02 11.6565L225.129 25.5478M225.129 25.5478L239.02 39.4392M225.129 25.5478H251" stroke="black" stroke-width="1.63128" stroke-linecap="round" stroke-linejoin="round"/>
<path fill-rule="evenodd" clip-rule="evenodd" d="M218.806 144.859C216.582 146.852 214.699 149.105 213.31 151.19L219.558 149.94C219.966 149.859 220.362 150.123 220.443 150.53C220.525 150.937 220.261 151.333 219.853 151.415L211.899 153.006C211.678 153.05 211.449 152.993 211.275 152.85C211.101 152.707 211 152.494 211 152.268V143.36C211 142.945 211.337 142.608 211.752 142.608C212.167 142.608 212.504 142.945 212.504 143.36V149.705C213.908 147.707 215.711 145.613 217.802 143.739C220.673 141.168 224.128 138.976 227.878 138.056C231.652 137.13 235.703 137.499 239.684 140.015C243.643 142.516 247.475 147.102 250.93 154.495C251.106 154.871 250.944 155.319 250.567 155.495C250.191 155.671 249.744 155.508 249.568 155.132C246.183 147.89 242.511 143.58 238.881 141.286C235.273 139.006 231.648 138.68 228.237 139.517C224.802 140.359 221.562 142.39 218.806 144.859Z" fill="black"/>
<path d="M215 75.7695H250.094" stroke="black" stroke-width="1.84258" stroke-linecap="round"/>
<path d="M216.994 98.5018L233.345 82.1512L249.695 98.5018" stroke="black" stroke-width="1.84258" stroke-linecap="round"/>
<path d="M141.139 137L151.639 147.5M151.639 147.5L141.139 158M151.639 147.5H116.359" stroke="black" stroke-width="1.68" stroke-linecap="round" stroke-linejoin="round"/>
<circle cx="26.042" cy="146.958" r="16.145" stroke="black" stroke-width="1.79389"/>
<path d="M22.002 154.133L30.0745 147.406L22.002 139.334" stroke="black" stroke-width="1.79389" stroke-linecap="round" stroke-linejoin="round"/>
</svg>
