<svg width="260" height="178" viewBox="0 0 260 178" fill="none" xmlns="http://www.w3.org/2000/svg">
<path d="M136.4 92.2387C134.87 90.7088 131.182 87.8421 128.669 88.6151M136.4 92.2387V106.733M136.4 92.2387C137.25 93.0118 141.956 93.205 143.647 92.9634M136.4 92.2387C136.48 91.4335 137.124 89.5814 139.057 88.6151M112.484 88.132C108.216 88.0515 100.115 91.659 101.855 106.733H118.04M136.4 106.733C137.527 108.907 140.7 111.951 144.372 106.733L143.647 92.9634M136.4 106.733H123.113M143.647 92.9634C145.096 92.7219 148.333 91.514 149.686 88.6151M149.686 88.6151H139.057M149.686 88.6151H158.383V86.1994H144.734M139.057 88.6151H131.085V86.1994H144.734M144.734 86.1994V77.2612M144.734 77.2612L151.619 70.014M144.734 77.2612L138.332 70.014M151.619 70.014V67.5983H138.332V70.014M151.619 70.014H138.332M123.113 95.1376V106.733M123.113 106.733H118.04M118.04 94.6544V106.733" stroke="black" stroke-width="1.74674" stroke-linecap="round" stroke-linejoin="round"/>
<path d="M126.252 88.373L128.668 86.9236V98.036L120.213 93.4461L112.724 98.036L112.483 86.9236L114.657 88.3731" stroke="black" stroke-width="1.74674" stroke-linecap="round" stroke-linejoin="round"/>
<path d="M125.775 84.2666C125.533 85.0718 125.292 87.0205 126.258 88.3733L120.218 91.9969L114.421 88.3733C115.58 87.2138 115.387 84.6692 115.145 83.5419" stroke="black" stroke-width="1.74674" stroke-linecap="round" stroke-linejoin="round"/>
<path d="M111.282 73.1545C111.443 77.5029 113.94 85.7163 120.221 85.9579C123.603 86.088 129.352 84.6051 130.125 73.3961" stroke="black" stroke-width="1.74674" stroke-linecap="round" stroke-linejoin="round"/>
<path d="M117.064 63.2491C131.106 58.5028 131.548 68.4818 130.351 73.1536C129.19 73.9267 126.405 72.1874 125.279 70.9795C123.54 72.7188 118.032 71.4626 116.341 69.5301C115.181 71.6559 112.315 72.8316 111.026 73.1536C108.043 65.3772 112.257 61.6074 117.064 63.2491Z" stroke="black" stroke-width="1.74674" stroke-linecap="round" stroke-linejoin="round"/>
<path d="M214.93 91.0381L213.771 100.183M213.141 105.153L213.771 100.183M221.292 91.0381L222.58 100.183M223.28 105.153L222.58 100.183M213.771 100.183H222.58M232.823 91.0381L231.406 100.183M230.636 105.153L231.406 100.183M238.787 91.0381L240.461 100.183M241.371 105.153L240.461 100.183M240.461 100.183H231.406" stroke="black" stroke-width="1.56136" stroke-linecap="round" stroke-linejoin="round"/>
<path d="M206.382 83.4832H204.195V78.3142H212.545M206.382 83.4832V104.756M206.382 83.4832H247.536M247.536 83.4832H250.12V78.3142H241.372M247.536 83.4832V104.756M212.545 73.5428L207.774 67.9762H212.943M212.545 73.5428L218.112 67.9762H212.943M212.545 73.5428V78.3142M212.545 78.3142H226.859M226.859 73.5428L221.889 67.9762H226.462M226.859 73.5428L232.426 67.9762H226.462M226.859 73.5428V78.3142M226.859 78.3142H241.372M241.372 73.5428L236.402 67.9762H242.168M241.372 73.5428L246.939 67.9762H242.168M241.372 73.5428V78.3142M212.943 67.9762L215.13 64.5964L217.317 64M226.462 67.9762L224.275 64H221.889M242.168 67.9762L244.553 64H246.939" stroke="black" stroke-width="1.56136" stroke-linecap="round" stroke-linejoin="round"/>
<rect x="212.335" y="86.8481" width="11.9576" height="3.60766" rx="1.80383" stroke="black" stroke-width="1.56136" stroke-linecap="round" stroke-linejoin="round"/>
<rect x="229.828" y="86.8481" width="11.9576" height="3.60766" rx="1.80383" stroke="black" stroke-width="1.56136" stroke-linecap="round" stroke-linejoin="round"/>
<path d="M37.1789 160.813V163.19C37.1789 164.243 36.3253 165.097 35.2724 165.097H18.4776C17.4247 165.097 16.5711 164.243 16.5711 163.19V160.813M37.1789 160.813V146.149C37.1789 144.96 38.2741 144.07 39.4532 143.915C41.7308 143.614 44.2025 142.163 43.9868 137.905C43.9293 136.157 42.4238 132.998 37.0059 133.479C36.3152 133.54 35.6336 133.277 35.1501 132.78C32.0848 129.628 25.4672 126.305 18.0487 132.928C17.5759 133.35 16.9361 133.532 16.3036 133.492C13.0631 133.29 7.89119 134.817 9.21115 140.512C9.42457 141.7 10.8249 143.92 14.6694 144.479C15.7113 144.631 16.5711 145.463 16.5711 146.516V160.813M37.1789 160.813H16.5711M20.0715 141.63C22.2182 142.934 27.7994 144.759 32.9514 141.63" stroke="black" stroke-width="1.90651" stroke-linecap="round"/>
<path d="M111.563 47.5677L109.668 21.0319C109.628 20.4735 110.07 19.9984 110.63 19.9984H114.393C114.722 19.9984 115.026 20.1668 115.213 20.4373C118.168 24.7096 125.053 30.024 131.494 20.4478C131.677 20.175 131.988 19.9984 132.317 19.9984H136.809C137.373 19.9984 137.816 20.4798 137.77 21.0417L135.61 47.5119C135.553 48.21 134.791 48.6264 134.149 48.3481C129.907 46.5109 121.555 44.7181 112.971 48.3979C112.341 48.668 111.612 48.2514 111.563 47.5677Z" stroke="black" stroke-width="1.92957" stroke-linecap="round" stroke-linejoin="round"/>
<path d="M112.403 19.998L109.23 6.75243C109.104 6.2261 109.435 5.69902 109.964 5.58464L113.567 4.80576C114.074 4.69613 114.577 5.00707 114.705 5.50965L117.73 17.3346M117.73 17.3346V11.3449C117.73 10.8121 118.162 10.3801 118.695 10.3801H123.057M117.73 17.3346V23.2533M123.057 10.3801V25.7687M123.057 10.3801V6.16603C123.057 5.63319 123.489 5.20124 124.022 5.20124H128.159C128.692 5.20124 129.124 5.63319 129.124 6.16603V18.3703M129.124 23.2533V18.3703M129.124 18.3703L130.757 7.21077C130.835 6.67613 131.337 6.30998 131.87 6.39881L136.1 7.1038C136.649 7.19535 137.007 7.73161 136.881 8.274L134.154 19.998" stroke="black" stroke-width="1.92957" stroke-linecap="round" stroke-linejoin="round"/>
<path d="M115.367 38.7902C118.031 40.0232 125.074 41.7495 131.94 38.7902" stroke="black" stroke-width="1.92957" stroke-linecap="round" stroke-linejoin="round"/>
<path d="M18.2957 70.5934H30.3953C30.9881 70.5934 31.4685 71.0739 31.4685 71.6666V80.5968C31.4685 80.7421 31.4964 80.8862 31.56 81.0169C32.1984 82.3283 33.7142 83.8759 35.4509 81.0637C35.549 80.9048 35.5973 80.7188 35.5973 80.5321V69.807C35.6629 68.6273 35.3614 66.268 33.6312 66.268H30.8542C30.3974 66.268 29.9962 65.9774 29.811 65.5598C28.5041 62.6127 25.1517 59.0689 20.0641 64.3019M18.2957 70.5934L16.9599 67.9238C16.9323 67.8686 16.9084 67.8087 16.8919 67.7492C15.8215 63.8966 21.0595 63.1437 22.62 65.8747M18.2957 70.5934V73.5425M33.6312 82.7832V101.264M18.2957 101.264V103.927C18.2957 104.52 18.7762 105 19.3689 105H32.5581C33.1508 105 33.6312 104.52 33.6312 103.927V101.264M18.2957 101.264H22.0308M18.2957 101.264V94.7763M33.6312 101.264H29.8946M29.8946 101.264V88.4848M29.8946 101.264H25.7658M25.7658 101.264V93.4M25.7658 101.264H22.0308M22.0308 101.264V88.4848M18.2957 94.7763L12.5729 91.7365C12.2223 91.5503 12.0032 91.1858 12.0032 90.7888V76.4916C12.0032 75.5086 11.8065 73.5425 13.7726 73.5425H18.2957M18.2957 94.7763V73.5425" stroke="black" stroke-width="2.05305" stroke-linecap="round" stroke-linejoin="round"/>
<path d="M216.161 17.5062C215.191 18.8197 213.729 22.2691 215.648 25.5586C217.566 28.8481 215.648 31.3837 214.449 32.2404" stroke="black" stroke-width="1.81366" stroke-linecap="round" stroke-linejoin="round"/>
<path d="M237.714 17.5062C238.684 18.8197 240.146 22.2691 238.227 25.5586C236.309 28.8481 238.227 31.3837 239.426 32.2404" stroke="black" stroke-width="1.81366" stroke-linecap="round" stroke-linejoin="round"/>
<path d="M220.447 10.1392C219.476 11.4527 218.014 14.9021 219.933 18.1915C221.852 21.481 219.933 24.0167 218.734 24.8733" stroke="black" stroke-width="1.81366" stroke-linecap="round" stroke-linejoin="round"/>
<path d="M233.424 10.1392C234.395 11.4527 235.857 14.9021 233.938 18.1915C232.02 21.481 233.938 24.0167 235.137 24.8733" stroke="black" stroke-width="1.81366" stroke-linecap="round" stroke-linejoin="round"/>
<path d="M224.556 5C223.585 6.31351 222.123 9.7629 224.042 13.0524C225.961 16.3419 224.043 18.8775 222.844 19.7341" stroke="black" stroke-width="1.81366" stroke-linecap="round" stroke-linejoin="round"/>
<path d="M229.315 5C230.286 6.31351 231.748 9.7629 229.829 13.0524C227.91 16.3419 229.828 18.8775 231.027 19.7341" stroke="black" stroke-width="1.81366" stroke-linecap="round" stroke-linejoin="round"/>
<path d="M238.779 43.0355L250.43 37.553H204L214.108 43.0355M238.779 43.0355H214.108M238.779 43.0355V46.976H214.108V43.0355" stroke="black" stroke-width="1.81366" stroke-linecap="round" stroke-linejoin="round"/>
<path d="M16.2949 18.9262V13.2733C10.7513 10.7933 13.9851 7.98507 16.2949 6.89095C18.8471 2.87919 22.309 2.56673 23.7706 2.51453C28.8765 2.33217 31.6125 5.06742 32.5243 6.89095C37.4843 9.22507 34.591 12.1184 32.5243 13.2733V18.9262M16.2949 18.9262H32.5243M16.2949 18.9262C16.1067 22.122 16.8413 27.8542 20.4882 30.4924M32.5243 18.9262C32.8845 25.3845 30.8583 28.8193 28.5677 30.4924M20.4882 30.4924C21.5581 31.2663 22.8786 31.774 24.5 31.8733C25.6185 31.8915 27.1442 31.5322 28.5677 30.4924M20.4882 30.4924V32.6027M20.4882 32.6027C17.3275 32.7243 10.6047 34.6086 9 41.1733V48.8321H16.8412M20.4882 32.6027C21.2841 33.6408 22.0841 34.289 22.8588 34.6496M28.5677 30.4924V32.6027M28.5677 32.6027C31.7706 32.6027 38.5412 34.3168 40 41.1733V48.8321H16.8412M28.5677 32.6027C28.1439 33.1994 27.4917 33.8742 26.6882 34.3588M16.8412 48.8321V41.1733H22.8588M26.6882 34.3588V41.1733H22.8588M26.6882 34.3588C25.6188 35.0038 24.2815 35.3117 22.8588 34.6496M22.8588 41.1733V34.6496" stroke="black" stroke-width="1.72222"/>
<circle cx="20.7712" cy="43.4027" r="0.825897" fill="black"/>
<circle cx="20.7712" cy="46.9034" r="0.825897" fill="black"/>
<path d="M108.171 131.006V134.015M108.171 134.015C107.36 134.333 105.903 135.734 106.014 138.873C106.032 139.404 106.487 139.802 107.019 139.802H109.31C109.847 139.802 110.305 139.397 110.31 138.86C110.337 136.026 109.008 134.434 108.171 134.015Z" stroke="black" stroke-width="1.68205"/>
<path d="M114.96 131.006V134.015M114.96 134.015C114.149 134.333 112.693 135.734 112.803 138.873C112.821 139.404 113.276 139.802 113.808 139.802H116.099C116.636 139.802 117.094 139.397 117.099 138.86C117.126 136.026 115.797 134.434 114.96 134.015Z" stroke="black" stroke-width="1.68205"/>
<path d="M121.663 131.006V134.015M121.663 134.015C120.852 134.333 119.396 135.734 119.506 138.873C119.525 139.404 119.979 139.802 120.511 139.802H122.802C123.339 139.802 123.797 139.397 123.802 138.86C123.829 136.026 122.5 134.434 121.663 134.015Z" stroke="black" stroke-width="1.68205"/>
<path d="M115.227 156.353V162.735C115.227 163.305 114.77 163.767 114.208 163.864C112.627 164.136 110.549 164.982 110.25 167M117.657 156.353V162.685C117.657 163.274 118.143 163.745 118.729 163.808C120.528 164.002 122.865 164.797 122.865 167" stroke="black" stroke-width="1.68205"/>
<path d="M131.887 156.353V162.735C131.887 163.305 131.43 163.767 130.869 163.864C129.287 164.136 127.209 164.982 126.91 167M134.317 156.353V162.685C134.317 163.274 134.803 163.745 135.39 163.808C137.188 164.002 139.525 164.797 139.525 167" stroke="black" stroke-width="1.68205"/>
<path d="M106.662 149.293H105.051C104.471 149.293 104 148.822 104 148.241V144.326C104 143.745 104.471 143.274 105.051 143.274H144.728C145.309 143.274 145.78 143.745 145.78 144.326V148.241C145.78 148.822 145.309 149.293 144.728 149.293H143.233M106.662 149.293V165.948C106.662 166.529 107.133 167 107.713 167H142.182C142.763 167 143.233 166.529 143.233 165.948V149.293M106.662 149.293H143.233" stroke="black" stroke-width="1.68205"/>
<path d="M104 129.955V126.04C104 125.459 104.471 124.989 105.051 124.989H144.728C145.309 124.989 145.78 125.459 145.78 126.04V129.955C145.78 130.536 145.309 131.007 144.728 131.007H105.051C104.471 131.007 104 130.536 104 129.955Z" stroke="black" stroke-width="1.68205"/>
<path d="M116.734 152.447C118.649 152.447 120.348 152.712 121.538 153.115C122.137 153.318 122.563 153.54 122.82 153.747C122.946 153.848 123.012 153.929 123.044 153.981C123.059 154.006 123.064 154.023 123.066 154.03C123.067 154.033 123.068 154.035 123.068 154.036V154.037L123.066 154.044C123.064 154.051 123.059 154.067 123.044 154.092C123.012 154.144 122.946 154.225 122.82 154.326C122.563 154.532 122.138 154.756 121.538 154.959C120.348 155.362 118.649 155.626 116.734 155.626C114.819 155.626 113.12 155.362 111.93 154.959C111.33 154.756 110.906 154.532 110.648 154.326C110.522 154.225 110.455 154.144 110.424 154.092C110.409 154.067 110.404 154.051 110.401 154.044C110.4 154.04 110.4 154.038 110.399 154.037V154.036C110.4 154.035 110.4 154.033 110.401 154.03C110.404 154.023 110.409 154.006 110.424 153.981C110.455 153.929 110.522 153.848 110.648 153.747C110.906 153.541 111.331 153.318 111.93 153.115C113.12 152.712 114.819 152.447 116.734 152.447Z" stroke="black" stroke-width="1.68205"/>
<path d="M133.395 152.447C135.309 152.447 137.008 152.712 138.198 153.115C138.798 153.318 139.223 153.54 139.48 153.747C139.607 153.848 139.672 153.929 139.704 153.981C139.719 154.006 139.724 154.023 139.727 154.03C139.728 154.033 139.728 154.035 139.729 154.036V154.037L139.727 154.044C139.724 154.051 139.719 154.067 139.704 154.092C139.673 154.144 139.607 154.225 139.48 154.326C139.223 154.532 138.798 154.756 138.198 154.959C137.008 155.362 135.309 155.626 133.395 155.626C131.479 155.626 129.78 155.362 128.59 154.959C127.991 154.756 127.566 154.532 127.309 154.326C127.182 154.225 127.116 154.144 127.084 154.092C127.069 154.067 127.064 154.051 127.062 154.044C127.06 154.04 127.06 154.038 127.06 154.037V154.036C127.06 154.035 127.061 154.033 127.062 154.03C127.064 154.023 127.069 154.006 127.084 153.981C127.116 153.929 127.182 153.848 127.309 153.747C127.566 153.541 127.991 153.318 128.59 153.115C129.78 152.712 131.479 152.447 133.395 152.447Z" stroke="black" stroke-width="1.68205"/>
<path d="M132.82 143.274V139.673C132.82 139.456 132.888 139.244 133.013 139.067L134.017 137.645C134.142 137.467 134.209 137.255 134.209 137.038V134.826M138.144 143.274V139.695C138.144 139.464 138.068 139.24 137.928 139.057L136.856 137.655C136.715 137.471 136.639 137.247 136.639 137.016V134.826M134.209 134.826V134.373C134.209 133.792 134.68 133.321 135.26 133.321H135.588C136.169 133.321 136.639 133.792 136.639 134.373V134.826M134.209 134.826H136.639M141.732 134.826H144.046" stroke="black" stroke-width="1.68205"/>
<path d="M140.344 143.274V139.673C140.344 139.456 140.411 139.244 140.536 139.067L141.54 137.645C141.665 137.467 141.733 137.255 141.733 137.038V134.373C141.733 133.792 142.203 133.321 142.784 133.321H143.112C143.692 133.321 144.163 133.792 144.163 134.373V137.016C144.163 137.247 144.239 137.471 144.379 137.655L145.451 139.057C145.591 139.24 145.667 139.464 145.667 139.695V143.274" stroke="black" stroke-width="1.68205"/>
<path d="M234.842 149.99L222.368 130.733C222.12 130.35 222.395 129.844 222.852 129.844H247.488C247.951 129.844 248.225 130.362 247.964 130.744L234.842 149.99ZM234.842 149.99V165.558M234.842 165.558H241.023M234.842 165.558H228.661" stroke="black" stroke-width="2" stroke-linecap="round" stroke-linejoin="round"/>
<path d="M223.243 136.851C223.305 137.163 223.102 137.468 222.787 137.507C221.484 137.666 220.158 137.491 218.936 136.993C217.537 136.423 216.335 135.453 215.482 134.206C214.628 132.959 214.16 131.488 214.135 129.976C214.11 128.465 214.529 126.98 215.341 125.705C216.153 124.43 217.321 123.421 218.701 122.805C220.081 122.188 221.612 121.99 223.104 122.236C224.595 122.482 225.982 123.161 227.091 124.188C228.059 125.084 228.778 126.211 229.185 127.459C229.283 127.762 229.092 128.074 228.783 128.15L228.145 128.306C227.836 128.382 227.527 128.192 227.422 127.891C227.104 126.987 226.57 126.17 225.862 125.515C225.013 124.729 223.951 124.209 222.81 124.021C221.668 123.833 220.496 123.984 219.439 124.456C218.383 124.928 217.488 125.7 216.867 126.676C216.245 127.652 215.924 128.789 215.943 129.947C215.962 131.104 216.321 132.23 216.974 133.185C217.628 134.14 218.548 134.882 219.619 135.318C220.512 135.682 221.478 135.821 222.432 135.726C222.749 135.695 223.052 135.895 223.114 136.207L223.243 136.851Z" fill="black"/>
</svg>
