<svg width="24" height="16" viewBox="0 0 24 16" fill="none" xmlns="http://www.w3.org/2000/svg">
<path d="M11.0082 1.57616C11.4703 2.22731 11.7087 3.01082 11.6875 3.809C11.7263 4.58641 11.483 5.35167 11.0022 5.96386C10.6845 6.31373 10.3001 6.59667 9.87157 6.79611C10.5699 7.0252 11.1726 7.47923 11.5856 8.08723C11.9841 8.72876 12.1844 9.47368 12.1614 10.2286C12.1735 11.0538 11.9436 11.8645 11.5001 12.5604C11.2276 13.0078 10.8711 13.3984 10.4504 13.7106C9.95431 14.0781 9.38181 14.3293 8.77539 14.4453C8.08403 14.5816 7.38065 14.6474 6.67602 14.6418H0V0.0166285H7.16487C7.88308 -0.0447912 8.60563 0.0644727 9.27357 0.335504C9.9415 0.606535 10.5359 1.03165 11.0082 1.57616ZM2.95562 2.55687V5.78391H6.55455C7.10318 5.80644 7.64756 5.6789 8.12908 5.41502C8.33591 5.27542 8.50095 5.08227 8.60659 4.8562C8.71223 4.63013 8.75451 4.37962 8.72891 4.13141C8.75902 3.85072 8.69781 3.56782 8.55436 3.32469C8.41092 3.08156 8.19289 2.89118 7.93264 2.78181C7.36376 2.61496 6.7723 2.53805 6.17966 2.55387L2.95562 2.55687ZM2.95562 8.2042V12.103H6.55455C7.06717 12.1264 7.57876 12.0384 8.05411 11.8451C8.38121 11.6738 8.64914 11.4079 8.82299 11.0821C8.99684 10.7564 9.06857 10.3858 9.02882 10.0187C9.05589 9.69113 8.97941 9.36338 8.81017 9.08167C8.64093 8.79996 8.38748 8.57852 8.0856 8.44862C7.6127 8.26803 7.10845 8.18391 6.60254 8.2012H2.95562V8.2042ZM21.1242 4.04743C21.8955 4.38884 22.5527 4.94409 23.0182 5.64745C23.4796 6.31468 23.7794 7.08016 23.8939 7.88329C23.9829 8.5954 24.016 9.31338 23.9929 10.0307H16.0017C15.9794 10.4777 16.0734 10.923 16.2748 11.3228C16.4761 11.7226 16.7779 12.0633 17.1504 12.3115C17.6286 12.5943 18.1771 12.7357 18.7324 12.7194C19.3038 12.7447 19.866 12.5697 20.322 12.2245C20.568 12.0175 20.7691 11.7624 20.9128 11.4747H23.8429C23.7071 12.2215 23.3349 12.9049 22.7812 13.4241C22.2452 13.967 21.5996 14.3894 20.8875 14.6633C20.1754 14.9371 19.4131 15.056 18.6515 15.0122C17.2486 15.0327 15.8827 14.5622 14.7901 13.6821C14.1946 13.1393 13.7333 12.4656 13.4429 11.714C13.1525 10.9624 13.0408 10.1535 13.1166 9.35135C13.0643 8.5678 13.1711 7.78177 13.4307 7.04059C13.6902 6.29942 14.097 5.61843 14.6267 5.03864C15.1447 4.53668 15.7592 4.145 16.4329 3.88725C17.1067 3.62951 17.8257 3.51107 18.5465 3.53908C19.4319 3.52574 20.3102 3.69895 21.1242 4.04743ZM16.8355 6.4917C16.4072 6.95277 16.139 7.53964 16.0707 8.16521H21.0193C21.0139 7.84215 20.9424 7.52362 20.809 7.22932C20.6757 6.93502 20.4834 6.67121 20.244 6.45422C19.7662 6.05992 19.1612 5.85309 18.542 5.87239C18.2307 5.85411 17.919 5.89947 17.6259 6.00569C17.3327 6.11191 17.0643 6.27677 16.837 6.4902L16.8355 6.4917ZM15.3359 2.51938H21.6896V0.698926H15.3314L15.3359 2.51938Z" fill="black"/>
</svg>
