<svg width="260" height="186" viewBox="0 0 260 186" fill="none" xmlns="http://www.w3.org/2000/svg">
<path d="M45.36 15.6067C45.36 14.4364 45.2525 13.3606 45.0566 12.3749M45.36 15.6067L52.6834 20.6757M45.36 15.6067C44.8274 15.873 40.6013 17.6502 35.2219 17.7633M25.0838 15.6067C24.9532 14.7249 24.9286 13.5932 25.0838 12.3749M25.0838 15.6067L17.3504 20.6757M25.0838 15.6067C28.5184 17.3239 32.0683 17.8296 35.2219 17.7633M25.0838 12.3749C25.5979 8.34036 28.084 3.35638 35.2219 3.35645C38.7569 3.35648 43.781 5.95908 45.0566 12.3749M25.0838 12.3749C20.578 12.6073 10.8066 15.6067 15.368 19.4084M15.368 19.4084C15.8928 19.8458 16.5597 20.2714 17.3504 20.6757M15.368 19.4084L26.8562 27.4344C33.1925 29.5465 40.3737 28.7017 44.1755 27.4344L55.4976 19.4084M55.4976 19.4084C60.9882 16.4515 55.0743 12.6497 45.0566 12.3749M55.4976 19.4084C54.5745 19.87 53.635 20.2917 52.6834 20.6757M17.3504 20.6757C21.1428 22.615 27.7811 24.0658 35.2219 23.9827M52.6834 20.6757C46.9974 22.9702 40.8778 23.9196 35.2219 23.9827M35.2219 17.7633V23.9827" stroke="white" stroke-width="2.85174"/>
<mask id="path-2-inside-1_2756_221" fill="white">
<ellipse cx="27.6171" cy="20.2536" rx="2.95695" ry="1.68968"/>
</mask>
<path d="M27.7223 20.2536C27.7223 19.7787 27.8982 19.4191 28.0495 19.2147C28.1216 19.1174 28.187 19.0552 28.2274 19.021C28.2681 18.9866 28.2928 18.9726 28.2931 18.9724C28.2939 18.972 28.2783 18.9809 28.2433 18.9944C28.2088 19.0077 28.1604 19.0236 28.0981 19.0386C27.9717 19.0692 27.8081 19.0916 27.6171 19.0916V24.7951C28.838 24.7951 30.0835 24.5184 31.1228 23.9244C32.0815 23.3766 33.4258 22.1853 33.4258 20.2536H27.7223ZM27.6171 19.0916C27.4261 19.0916 27.2625 19.0692 27.1361 19.0386C27.0738 19.0236 27.0254 19.0077 26.9909 18.9944C26.9559 18.9809 26.9403 18.972 26.9411 18.9724C26.9414 18.9726 26.9661 18.9866 27.0068 19.021C27.0472 19.0552 27.1126 19.1174 27.1847 19.2147C27.336 19.4191 27.5119 19.7787 27.5119 20.2536H21.8084C21.8084 22.1853 23.1527 23.3766 24.1114 23.9244C25.1507 24.5184 26.3962 24.7951 27.6171 24.7951V19.0916ZM27.5119 20.2536C27.5119 20.7285 27.336 21.0882 27.1847 21.2926C27.1126 21.3899 27.0472 21.4521 27.0068 21.4863C26.9661 21.5207 26.9414 21.5347 26.9411 21.5349C26.9403 21.5353 26.9559 21.5264 26.9909 21.5129C27.0254 21.4996 27.0738 21.4837 27.1361 21.4687C27.2625 21.4381 27.4261 21.4157 27.6171 21.4157V15.7122C26.3962 15.7122 25.1507 15.9889 24.1114 16.5829C23.1527 17.1307 21.8084 18.322 21.8084 20.2536H27.5119ZM27.6171 21.4157C27.8081 21.4157 27.9717 21.4381 28.0981 21.4687C28.1604 21.4837 28.2088 21.4996 28.2433 21.5129C28.2783 21.5264 28.2939 21.5353 28.2931 21.5349C28.2928 21.5347 28.2681 21.5207 28.2274 21.4863C28.187 21.4521 28.1216 21.3899 28.0495 21.2926C27.8982 21.0882 27.7223 20.7285 27.7223 20.2536H33.4258C33.4258 18.322 32.0815 17.1307 31.1228 16.5829C30.0835 15.9889 28.838 15.7122 27.6171 15.7122V21.4157Z" fill="white" mask="url(#path-2-inside-1_2756_221)"/>
<mask id="path-4-inside-2_2756_221" fill="white">
<ellipse cx="41.9804" cy="20.2536" rx="2.95695" ry="1.68968"/>
</mask>
<path d="M42.0856 20.2536C42.0856 19.7787 42.2615 19.4191 42.4128 19.2147C42.4849 19.1174 42.5503 19.0552 42.5907 19.021C42.6314 18.9866 42.6561 18.9726 42.6564 18.9724C42.6572 18.972 42.6415 18.9809 42.6066 18.9944C42.5721 19.0077 42.5237 19.0236 42.4614 19.0386C42.335 19.0692 42.1713 19.0916 41.9804 19.0916V24.7951C43.2013 24.7951 44.4468 24.5184 45.4861 23.9244C46.4448 23.3766 47.7891 22.1853 47.7891 20.2536H42.0856ZM41.9804 19.0916C41.7894 19.0916 41.6257 19.0692 41.4994 19.0386C41.4371 19.0236 41.3887 19.0077 41.3542 18.9944C41.3192 18.9809 41.3035 18.972 41.3044 18.9724C41.3047 18.9726 41.3293 18.9866 41.3701 19.021C41.4105 19.0552 41.4759 19.1174 41.5479 19.2147C41.6992 19.4191 41.8752 19.7787 41.8752 20.2536H36.1717C36.1717 22.1853 37.516 23.3766 38.4746 23.9244C39.514 24.5184 40.7595 24.7951 41.9804 24.7951V19.0916ZM41.8752 20.2536C41.8752 20.7285 41.6992 21.0882 41.5479 21.2926C41.4759 21.3899 41.4105 21.4521 41.3701 21.4863C41.3293 21.5207 41.3047 21.5347 41.3044 21.5349C41.3035 21.5353 41.3192 21.5264 41.3542 21.5129C41.3887 21.4996 41.4371 21.4837 41.4994 21.4687C41.6257 21.4381 41.7894 21.4157 41.9804 21.4157V15.7122C40.7595 15.7122 39.514 15.9889 38.4746 16.5829C37.516 17.1307 36.1717 18.322 36.1717 20.2536H41.8752ZM41.9804 21.4157C42.1713 21.4157 42.335 21.4381 42.4614 21.4687C42.5237 21.4837 42.5721 21.4996 42.6066 21.5129C42.6415 21.5264 42.6572 21.5353 42.6564 21.5349C42.6561 21.5347 42.6314 21.5207 42.5907 21.4863C42.5503 21.4521 42.4849 21.3899 42.4128 21.2926C42.2615 21.0882 42.0856 20.7285 42.0856 20.2536H47.7891C47.7891 18.322 46.4448 17.1307 45.4861 16.5829C44.4468 15.9889 43.2013 15.7122 41.9804 15.7122V21.4157Z" fill="white" mask="url(#path-4-inside-2_2756_221)"/>
<mask id="path-6-inside-3_2756_221" fill="white">
<ellipse cx="41.6088" cy="12.6532" rx="2.30744" ry="1.31854" transform="rotate(42.9967 41.6088 12.6532)"/>
</mask>
<path d="M41.2107 12.282C41.5695 11.8972 41.99 11.7308 42.2944 11.6744C42.5776 11.622 42.7665 11.6594 42.82 11.672C42.9172 11.6949 42.8247 11.6906 42.6543 11.5318L38.7648 15.7033C39.5266 16.4135 40.4792 16.9802 41.5126 17.2236C42.4556 17.4456 44.1348 17.5093 45.3822 16.1715L41.2107 12.282ZM42.6543 11.5318C42.484 11.373 42.4733 11.281 42.5029 11.3763C42.5193 11.4289 42.5698 11.6146 42.5372 11.9009C42.5022 12.2084 42.3657 12.6395 42.0069 13.0244L37.8354 9.13484C36.588 10.4726 36.7688 12.1433 37.0563 13.0685C37.3713 14.0824 38.0031 14.993 38.7648 15.7033L42.6543 11.5318ZM42.0069 13.0244C41.6481 13.4092 41.2276 13.5755 40.9232 13.6319C40.6399 13.6844 40.4511 13.647 40.3975 13.6344C40.3004 13.6115 40.3929 13.6158 40.5632 13.7745L44.4527 9.60307C43.691 8.8928 42.7384 8.32616 41.705 8.08278C40.762 7.8607 39.0828 7.79704 37.8354 9.13484L42.0069 13.0244ZM40.5632 13.7745C40.7335 13.9333 40.7442 14.0254 40.7146 13.93C40.6983 13.8775 40.6478 13.6917 40.6803 13.4055C40.7153 13.0979 40.8519 12.6668 41.2107 12.282L45.3822 16.1715C46.6295 14.8337 46.4487 13.1631 46.1613 12.2379C45.8463 11.224 45.2145 10.3133 44.4527 9.60307L40.5632 13.7745Z" fill="white" mask="url(#path-6-inside-3_2756_221)"/>
<mask id="path-8-inside-4_2756_221" fill="white">
<ellipse cx="37.9198" cy="8.10753" rx="2.78313" ry="1.59036" transform="rotate(42.9967 37.9198 8.10753)"/>
</mask>
<path d="M37.8696 8.06074C38.2028 7.70338 38.5892 7.5541 38.8538 7.50508C39.0973 7.45997 39.2406 7.49504 39.2459 7.49629C39.2466 7.49645 39.0463 7.43334 38.78 7.18497L34.8904 11.3565C35.7483 12.1563 36.8086 12.7818 37.9385 13.0479C38.978 13.2927 40.7425 13.343 42.0411 11.9503L37.8696 8.06074ZM38.78 7.18497C38.5136 6.9366 38.4366 6.74123 38.4368 6.7419C38.4385 6.7471 38.4835 6.88765 38.4555 7.13372C38.4251 7.40108 38.3031 7.79695 37.9699 8.15432L33.7985 4.26481C32.4999 5.65751 32.6733 7.41416 32.9902 8.43402C33.3346 9.5426 34.0326 10.5566 34.8904 11.3565L38.78 7.18497ZM37.9699 8.15432C37.6367 8.51169 37.2503 8.66097 36.9858 8.70998C36.7422 8.75509 36.5989 8.72003 36.5936 8.71878C36.5929 8.71862 36.7932 8.78172 37.0596 9.0301L40.9491 4.85862C40.0912 4.05877 39.0309 3.43328 37.901 3.16718C36.8615 2.92237 35.097 2.8721 33.7985 4.26481L37.9699 8.15432ZM37.0596 9.0301C37.3259 9.27847 37.4029 9.47384 37.4027 9.47317C37.4011 9.46797 37.3561 9.32741 37.384 9.08134C37.4144 8.81399 37.5364 8.41811 37.8696 8.06074L42.0411 11.9503C43.3396 10.5576 43.1662 8.8009 42.8493 7.78105C42.5049 6.67246 41.8069 5.65846 40.9491 4.85862L37.0596 9.0301Z" fill="white" mask="url(#path-8-inside-4_2756_221)"/>
<path d="M137.494 12.3726H145.293M145.293 12.3726H150.134V19.9027H145.293V12.3726Z" stroke="white" stroke-width="2.8"/>
<path d="M122.979 12.6421H129.971" stroke="white" stroke-width="2.8"/>
<path d="M134.807 27.9707V10.7589C132.186 6.5652 129.62 4.68273 127.277 4.22233M134.807 27.9707H117.596V10.7589C119.291 7.48618 122.89 3.36002 127.277 4.22233M134.807 27.9707H154.709V11.8346C153.848 6.67109 149.509 4.60829 147.447 4.22233H127.277" stroke="white" stroke-width="2.8"/>
<circle cx="230.262" cy="16.0388" r="14.1534" stroke="white" stroke-width="2.8"/>
<path d="M225.08 1.96651C226.135 3.19769 227.431 5.23494 228.641 8.1173M230.268 16.0389C230.373 13.2682 229.646 10.5121 228.641 8.1173M230.268 16.0389C228.661 16.8906 225.991 18.8339 223.881 21.642M230.268 16.0389C231.934 17.0173 234.949 18.3198 238.189 18.7627M221.006 27.8888C221.438 25.3303 222.481 23.5052 223.881 21.642M244.707 18.2606C242.442 19.5112 240.708 19.107 238.189 18.7627M228.641 8.1173C224.9 9.30876 217.567 12.2131 216.562 20.4825M223.881 21.642C227.845 23.9283 236.148 27.6795 242.485 23.8153M232.486 1.59619C234.708 4.59095 238.962 11.2087 238.189 18.7627" stroke="white" stroke-width="2.8"/>
<path fill-rule="evenodd" clip-rule="evenodd" d="M16.8627 99.7716L24.5049 92.1294L26.2089 93.8334L18.5667 101.476C18.0962 101.946 17.3332 101.946 16.8627 101.476C16.3921 101.005 16.3921 100.242 16.8627 99.7716Z" fill="white"/>
<path fill-rule="evenodd" clip-rule="evenodd" d="M34.683 70.5923L48.0221 83.9314L46.318 85.6354L44.9871 84.3045L37.785 92.2036C38.3309 93.3949 38.8195 95.0303 38.8772 96.8227C38.9503 99.0889 38.3313 101.654 36.2241 103.825L35.3722 104.703L14.6934 84.0236L15.3978 83.1783C16.2305 82.179 17.78 80.9589 19.8264 80.3856C21.7211 79.8548 24.0026 79.8915 26.45 81.1053L34.7 74.0173L32.979 72.2963L34.683 70.5923ZM36.4089 75.7263L26.736 84.0368L25.9927 83.5976C23.839 82.325 21.9559 82.2917 20.4766 82.7061C19.4843 82.9841 18.6523 83.4708 18.0388 83.961L35.2745 101.197C36.2161 99.8232 36.5144 98.3208 36.4686 96.9003C36.411 95.1131 35.8053 93.5055 35.2887 92.6115L34.8478 91.8483L43.2812 82.5986L36.4089 75.7263Z" fill="white"/>
<path d="M139.269 88.5302V82.4167M110.332 94.5758V89.617L111.69 88.6542M132.614 98.1759H117.668M135.465 79.6996H139.269V82.4167M135.465 79.6996H124.325L122.695 80.855M135.465 79.6996L141.714 72.2275H152.719V76.8466H143.616L139.269 82.4167M122.695 80.855L120.249 77.39L109.381 84.8621L111.69 88.6542M122.695 80.855L111.69 88.6542M130.167 88.5302H119.434M130.167 92.8776H119.434" stroke="white" stroke-width="2.35736"/>
<circle cx="7.33619" cy="7.33619" r="6.15751" transform="matrix(-1 0 0 1 146.332 88.394)" stroke="white" stroke-width="2.35736"/>
<circle cx="4.8908" cy="4.8908" r="3.94785" transform="matrix(-1 0 0 1 117.805 93.0132)" stroke="white" stroke-width="1.88589"/>
<circle cx="3.53224" cy="3.53224" r="2.35356" transform="matrix(-1 0 0 1 142.525 92.1982)" stroke="white" stroke-width="2.35736"/>
<circle cx="2.35483" cy="2.35483" r="1.41188" transform="matrix(-1 0 0 1 115.264 95.5488)" stroke="white" stroke-width="1.88589"/>
<path d="M243.322 101.246C244.743 101.246 245.237 99.9234 245.307 99.2619V92.0549H234.862M243.322 101.246H214.808M243.322 101.246L242.173 103.858H215.957L214.808 101.246M214.808 101.246C214.111 101.212 212.719 100.766 212.719 99.2619V92.0549H228.177M228.177 92.0549H234.862M228.177 92.0549L236.429 84.0498M234.862 92.0549L239.771 87.244M239.771 87.244L245.307 81.8189C244.555 79.9806 242.905 78.8247 242.173 78.4766L236.429 84.0498M239.771 87.244L236.429 84.0498" stroke="white" stroke-width="2.05995"/>
<path d="M231.208 71.4783C228.492 71.165 222.852 72.5229 226.716 79.4164C227.761 81.2966 228.805 83.6989 226.716 86.2057" stroke="white" stroke-width="2.05995"/>
<path d="M224.414 79.758C222.557 79.5453 218.699 80.4672 221.343 85.1476C222.057 86.4241 222.771 88.0551 221.343 89.7571" stroke="white" stroke-width="2.05995"/>
<path d="M33.541 152.69C34.6656 149.084 39.2869 143.225 47.1976 146.134C51.9111 147.866 54.5267 153.114 50.9913 159.205M44.5928 163.509C43.8173 163.703 41.8473 163.975 40.1721 163.509M35.635 160.834C35.0146 160.252 33.7737 158.554 33.7737 156.413" stroke="white" stroke-width="2.7344"/>
<path d="M41.3368 157.227L44.7105 155.133L57.042 163.393C57.2747 164.401 57.1583 166.301 54.8316 165.836L53.4356 164.873M41.5694 160.95L44.7105 158.856L53.4356 164.873M53.4356 164.873V177.237H47.3862M35.0547 168.046V177.237H41.5694M41.5694 177.237V169.908H47.3862V177.237M41.5694 177.237H47.3862" stroke="white" stroke-width="2.7344"/>
<path d="M41.1047 157.11L32.8449 152.224C30.9833 151.573 29.3549 153.194 28.7734 154.086L25.0507 161.996L27.8427 166.766C25.516 168.255 26.0202 170.566 26.5631 171.536C23.8641 172.28 23.9647 174.561 24.3524 175.608C21.5602 175.98 21.6379 178.4 22.0257 179.563C19.0476 180.307 20.1644 182.743 21.0951 183.867H24.3524L32.0305 168.395L38.1966 167.464L41.4537 161.066C42.7566 159.111 41.7639 157.614 41.1047 157.11Z" stroke="white" stroke-width="2.7344"/>
<circle cx="34.5592" cy="158.658" r="1.52594" stroke="white" stroke-width="2.7344"/>
<circle cx="44.5979" cy="163.625" r="1.3672" stroke="white" stroke-width="1.45366"/>
<path fill-rule="evenodd" clip-rule="evenodd" d="M131.564 157.768C131.188 157.753 130.871 158.044 130.856 158.42L130.737 161.244C130.721 161.62 131.013 161.937 131.389 161.953C131.764 161.969 132.082 161.677 132.097 161.301L132.216 158.477C132.231 158.101 131.94 157.784 131.564 157.768Z" fill="white"/>
<path fill-rule="evenodd" clip-rule="evenodd" d="M147.343 160.267C145.971 161.267 142.925 161.878 139.418 161.731C135.911 161.584 132.927 160.721 131.643 159.609C131.194 159.22 130.953 158.8 130.971 158.37C131.041 156.712 134.935 155.529 139.67 155.728C144.404 155.926 148.186 157.431 148.116 159.089C148.098 159.519 147.823 159.917 147.343 160.267ZM132.398 158.304C132.398 158.304 132.399 158.307 132.402 158.313C132.4 158.307 132.398 158.304 132.398 158.304ZM132.503 158.434C132.522 158.418 132.544 158.401 132.569 158.382C132.831 158.183 133.294 157.949 133.991 157.737C135.372 157.318 137.36 157.079 139.609 157.173C141.858 157.267 143.819 157.672 145.16 158.205C145.837 158.475 146.279 158.747 146.523 158.967C146.546 158.988 146.567 159.007 146.584 159.025C146.565 159.041 146.544 159.058 146.519 159.077C146.257 159.276 145.793 159.51 145.096 159.722C143.715 160.141 141.727 160.38 139.478 160.286C137.229 160.192 135.269 159.787 133.928 159.254C133.251 158.984 132.808 158.712 132.564 158.492C132.541 158.471 132.521 158.452 132.503 158.434ZM146.7 158.903C146.7 158.903 146.698 158.906 146.695 158.912C146.699 158.906 146.7 158.903 146.7 158.903ZM146.689 159.155C146.69 159.155 146.689 159.152 146.685 159.146C146.687 159.152 146.689 159.155 146.689 159.155ZM132.392 158.547C132.389 158.553 132.387 158.556 132.387 158.556C132.388 158.556 132.39 158.553 132.392 158.547Z" fill="white"/>
<path fill-rule="evenodd" clip-rule="evenodd" d="M120.122 163.066C120.122 163.066 120.123 163.069 120.126 163.075C120.124 163.069 120.122 163.066 120.122 163.066ZM120.228 163.198C120.247 163.182 120.269 163.164 120.294 163.145C120.557 162.945 121.024 162.709 121.726 162.495C123.117 162.073 125.119 161.832 127.384 161.927C129.649 162.022 131.623 162.429 132.974 162.967C133.655 163.238 134.101 163.512 134.347 163.734C134.37 163.755 134.391 163.774 134.408 163.792C134.389 163.808 134.367 163.826 134.342 163.845C134.079 164.045 133.612 164.281 132.91 164.494C131.519 164.917 129.517 165.157 127.252 165.062C124.987 164.967 123.013 164.56 121.662 164.023C120.981 163.752 120.535 163.477 120.289 163.256C120.266 163.235 120.245 163.215 120.228 163.198ZM134.525 163.67C134.525 163.67 134.523 163.673 134.52 163.679C134.524 163.673 134.525 163.67 134.525 163.67ZM134.514 163.923C134.515 163.923 134.513 163.92 134.51 163.914C134.512 163.92 134.514 163.923 134.514 163.923ZM120.116 163.311C120.112 163.317 120.111 163.32 120.111 163.32C120.111 163.32 120.113 163.317 120.116 163.311ZM127.191 166.518C122.423 166.318 118.615 164.803 118.685 163.133C118.755 161.463 122.677 160.272 127.445 160.472C132.213 160.671 136.021 162.187 135.951 163.857C135.881 165.526 131.959 166.718 127.191 166.518Z" fill="white"/>
<path fill-rule="evenodd" clip-rule="evenodd" d="M127.789 176.342C127.788 176.342 127.789 176.345 127.793 176.351C127.79 176.345 127.789 176.342 127.789 176.342ZM127.892 176.47C127.911 176.454 127.932 176.437 127.957 176.419C128.214 176.223 128.67 175.992 129.356 175.784C130.715 175.371 132.671 175.136 134.884 175.229C137.097 175.322 139.026 175.719 140.346 176.244C141.012 176.51 141.447 176.777 141.687 176.994C141.71 177.015 141.73 177.034 141.747 177.051C141.729 177.066 141.707 177.084 141.683 177.102C141.425 177.298 140.969 177.528 140.283 177.737C138.924 178.15 136.969 178.385 134.756 178.292C132.543 178.199 130.613 177.801 129.294 177.276C128.628 177.011 128.192 176.743 127.952 176.527C127.929 176.506 127.909 176.487 127.892 176.47ZM141.861 176.931C141.861 176.931 141.859 176.934 141.856 176.94C141.86 176.934 141.862 176.932 141.861 176.931ZM141.851 177.179C141.851 177.179 141.85 177.176 141.847 177.17C141.849 177.176 141.851 177.179 141.851 177.179ZM127.783 176.581C127.779 176.586 127.778 176.589 127.778 176.589C127.778 176.589 127.78 176.587 127.783 176.581ZM134.696 179.714C130.037 179.519 126.316 178.038 126.384 176.407C126.453 174.776 130.285 173.611 134.944 173.807C139.602 174.002 143.323 175.483 143.255 177.114C143.187 178.745 139.355 179.909 134.696 179.714Z" fill="white"/>
<path fill-rule="evenodd" clip-rule="evenodd" d="M147.541 158.737C147.165 158.721 146.848 159.013 146.832 159.389L146.634 164.115C144.527 165.232 139.799 166.644 135.437 164.517C135.099 164.352 134.691 164.493 134.527 164.831C134.362 165.169 134.502 165.576 134.84 165.741C139.29 167.91 143.992 166.808 146.569 165.658L146.455 168.394C145.274 168.992 143.513 169.664 141.601 169.875C139.504 170.107 137.282 169.782 135.414 168.267C135.122 168.03 134.693 168.075 134.456 168.367C134.219 168.659 134.264 169.087 134.556 169.324C136.792 171.137 139.417 171.486 141.75 171.228C143.517 171.033 145.149 170.487 146.39 169.932L146.269 172.827C145.6 173.485 143.775 174.658 140.974 174.541C140.599 174.525 140.282 174.817 140.266 175.193C140.25 175.568 140.542 175.885 140.917 175.901C144.392 176.047 146.687 174.464 147.46 173.543L147.609 173.365L148.192 159.446C148.208 159.07 147.916 158.753 147.541 158.737Z" fill="white"/>
<path fill-rule="evenodd" clip-rule="evenodd" d="M135.207 163.606C134.831 163.591 134.514 163.882 134.498 164.258L134.319 168.524C127.952 171.096 122.252 169.31 119.899 167.952L120.079 163.653C120.095 163.278 119.803 162.961 119.427 162.945C119.052 162.929 118.734 163.221 118.719 163.596L118.206 175.818L118.418 176.03C119.421 177.03 122.407 178.673 126.953 178.275C127.327 178.242 127.604 177.912 127.572 177.537C127.539 177.163 127.209 176.886 126.834 176.919C122.994 177.255 120.51 175.995 119.593 175.255L119.682 173.122C122.348 174.528 127.6 175.839 134.107 173.59L134.092 173.954C134.076 174.329 134.368 174.646 134.743 174.662C135.119 174.678 135.436 174.386 135.452 174.011L135.858 164.315C135.874 163.939 135.582 163.622 135.207 163.606ZM134.169 172.121C127.204 174.713 121.816 172.913 119.746 171.587L119.835 169.46C122.662 170.862 128.15 172.259 134.257 170.007L134.169 172.121Z" fill="white"/>
<path fill-rule="evenodd" clip-rule="evenodd" d="M142.67 176.978C142.294 176.963 141.977 177.254 141.961 177.63L141.777 182.015C135.509 185.151 129.787 183.044 127.438 181.442L127.623 177.029C127.639 176.653 127.347 176.336 126.972 176.32C126.596 176.305 126.279 176.596 126.263 176.972L126.048 182.109L126.333 182.324C128.813 184.195 135.499 186.886 142.759 183.04L143.104 182.857L143.321 177.687C143.337 177.311 143.045 176.994 142.67 176.978Z" fill="white"/>
<path fill-rule="evenodd" clip-rule="evenodd" d="M141.252 144.642L145.803 144.911L144.339 149.059L143.047 148.631L143.664 147.037L135.101 151.979L128.938 150.58L119.023 156.244L118.348 155.062L128.722 149.135L134.883 150.534L142.503 146.135L141.195 146.002L141.252 144.642Z" fill="white"/>
<path fill-rule="evenodd" clip-rule="evenodd" d="M208.906 149.055H219.364L219.381 150.162C219.45 154.889 221.33 157.599 222.048 158.248L223.04 159.145L218.866 162.393C220.893 167.34 224.852 170.039 227.139 171.03L229.814 167.315L230.703 167.842C233.214 169.331 237.195 170.081 238.897 170.26L239.906 170.366V180.068L238.829 180.117C226.241 180.684 218.514 175.832 214.062 169.413C209.662 163.069 208.543 155.322 208.845 150.114L208.906 149.055ZM211.056 151.303C210.978 156.108 212.161 162.721 215.916 168.134C219.78 173.706 226.446 178.127 237.652 177.907V172.362C235.788 172.076 232.838 171.425 230.465 170.265L227.987 173.707L227.206 173.457C224.559 172.611 218.88 169.256 216.454 162.39L216.185 161.628L219.668 158.918C218.61 157.454 217.427 154.88 217.174 151.303H211.056Z" fill="white"/>
</svg>
