<svg width="260" height="178" viewBox="0 0 260 178" fill="none" xmlns="http://www.w3.org/2000/svg">
<rect width="260" height="178" fill="white"/>
<path d="M31.7578 164.535V131.622C31.7578 131.144 32.1456 130.756 32.624 130.756H47.7814C48.2598 130.756 48.6476 131.144 48.6476 131.622V164.535" stroke="black" stroke-width="1.1946" stroke-linecap="round"/>
<path d="M30.8898 144.614H21.3622C20.8839 144.614 20.4961 145.002 20.4961 145.48V164.802" stroke="black" stroke-width="1.1946" stroke-linecap="round"/>
<path d="M49.0918 140.283H61.6381C62.1164 140.283 62.5042 140.671 62.5042 141.15V164.535" stroke="black" stroke-width="1.1946" stroke-linecap="round"/>
<path d="M14 165.185H69" stroke="black" stroke-width="1.1946" stroke-linecap="round"/>
<path d="M36.5215 164.319V153.492C36.5215 153.014 36.9093 152.626 37.3876 152.626H43.0175C43.4959 152.626 43.8837 153.014 43.8837 153.492V164.319" stroke="black" stroke-width="1.1946" stroke-linecap="round"/>
<path d="M36.9531 135.52V138.335" stroke="black" stroke-width="1.1946" stroke-linecap="square"/>
<path d="M36.9531 143.315V146.13" stroke="black" stroke-width="1.1946" stroke-linecap="square"/>
<path d="M25.6934 150.894V152.193" stroke="black" stroke-width="1.1946" stroke-linecap="square"/>
<path d="M25.6934 157.606V158.906" stroke="black" stroke-width="1.1946" stroke-linecap="square"/>
<path d="M43.4492 143.315V146.13" stroke="black" stroke-width="1.1946" stroke-linecap="square"/>
<path d="M53.4102 144.614V147.429" stroke="black" stroke-width="1.1946" stroke-linecap="square"/>
<path d="M58.1719 144.614V147.429" stroke="black" stroke-width="1.1946" stroke-linecap="square"/>
<path d="M53.4102 151.543V154.358" stroke="black" stroke-width="1.1946" stroke-linecap="square"/>
<path d="M58.1719 151.543V154.358" stroke="black" stroke-width="1.1946" stroke-linecap="square"/>
<path d="M53.4102 158.472V161.287" stroke="black" stroke-width="1.1946" stroke-linecap="square"/>
<path d="M58.1719 158.472V161.287" stroke="black" stroke-width="1.1946" stroke-linecap="square"/>
<path d="M43.4492 135.52V138.335" stroke="black" stroke-width="1.1946" stroke-linecap="square"/>
<path d="M211.736 137.877H199.257C199.115 137.877 199 137.992 199 138.134V164.379C199 164.521 199.115 164.636 199.257 164.636H211.736" stroke="black" stroke-width="1.54381"/>
<path d="M211.738 164.377L211.991 129.391C211.992 129.206 212.182 129.083 212.352 129.157L232.038 137.809C232.131 137.85 232.192 137.943 232.192 138.045V164.379C232.192 164.521 232.077 164.636 231.934 164.636H211.995C211.853 164.636 211.737 164.52 211.738 164.377Z" stroke="black" stroke-width="1.54381"/>
<path d="M201.83 142.38H203.888" stroke="black" stroke-width="1.54381"/>
<path d="M204.918 142.38H208.52" stroke="black" stroke-width="1.54381"/>
<path d="M201.83 148.298H203.888" stroke="black" stroke-width="1.54381"/>
<path d="M204.918 148.298H208.52" stroke="black" stroke-width="1.54381"/>
<path d="M220.613 151.128H232.192" stroke="black" stroke-width="1.54381"/>
<path d="M220.613 158.075H232.192" stroke="black" stroke-width="1.54381"/>
<path d="M201.83 154.215H203.888" stroke="black" stroke-width="1.54381"/>
<path d="M204.918 154.215H208.52" stroke="black" stroke-width="1.54381"/>
<path d="M201.83 160.133H203.888" stroke="black" stroke-width="1.54381"/>
<path d="M204.918 160.133H208.52" stroke="black" stroke-width="1.54381"/>
<path d="M218.039 132.216V143.023" stroke="black" stroke-width="1.54381"/>
<path d="M226.531 135.175V145.982" stroke="black" stroke-width="1.54381"/>
<path d="M127.688 165.647V132.771H140.767V166" stroke="black" stroke-width="1.17834" stroke-linecap="square"/>
<path d="M140.65 166H102.354" stroke="black" stroke-width="1.17834" stroke-linecap="square"/>
<path d="M102 166V143.965H114.962V165.882" stroke="black" stroke-width="1.17834" stroke-linecap="square"/>
<path d="M115.08 151.271H127.453" stroke="black" stroke-width="1.17834" stroke-linecap="square"/>
<path d="M108.246 143.258V129H121.208V150.799" stroke="black" stroke-width="1.17834" stroke-linecap="square"/>
<path d="M106.713 147.736V147.971" stroke="black" stroke-width="1.17834" stroke-linecap="square"/>
<path d="M110.484 147.736V147.971" stroke="black" stroke-width="1.17834" stroke-linecap="square"/>
<path d="M132.4 136.895V137.131" stroke="black" stroke-width="1.17834" stroke-linecap="square"/>
<path d="M136.172 136.895V137.131" stroke="black" stroke-width="1.17834" stroke-linecap="square"/>
<path d="M132.4 140.666V140.901" stroke="black" stroke-width="1.17834" stroke-linecap="square"/>
<path d="M136.172 140.666V140.901" stroke="black" stroke-width="1.17834" stroke-linecap="square"/>
<path d="M132.4 144.436V144.672" stroke="black" stroke-width="1.17834" stroke-linecap="square"/>
<path d="M136.172 144.436V144.672" stroke="black" stroke-width="1.17834" stroke-linecap="square"/>
<path d="M132.4 148.207V148.443" stroke="black" stroke-width="1.17834" stroke-linecap="square"/>
<path d="M136.172 148.207V148.443" stroke="black" stroke-width="1.17834" stroke-linecap="square"/>
<path d="M132.4 151.978V152.213" stroke="black" stroke-width="1.17834" stroke-linecap="square"/>
<path d="M136.172 151.978V152.213" stroke="black" stroke-width="1.17834" stroke-linecap="square"/>
<path d="M132.4 155.748V155.984" stroke="black" stroke-width="1.17834" stroke-linecap="square"/>
<path d="M136.172 155.748V155.984" stroke="black" stroke-width="1.17834" stroke-linecap="square"/>
<path d="M132.4 159.519V159.755" stroke="black" stroke-width="1.17834" stroke-linecap="square"/>
<path d="M136.172 159.519V159.755" stroke="black" stroke-width="1.17834" stroke-linecap="square"/>
<path d="M112.842 132.889V133.124" stroke="black" stroke-width="1.17834" stroke-linecap="square"/>
<path d="M116.611 132.889V133.124" stroke="black" stroke-width="1.17834" stroke-linecap="square"/>
<path d="M112.842 136.659V136.895" stroke="black" stroke-width="1.17834" stroke-linecap="square"/>
<path d="M116.611 136.659V136.895" stroke="black" stroke-width="1.17834" stroke-linecap="square"/>
<path d="M112.842 140.43V140.666" stroke="black" stroke-width="1.17834" stroke-linecap="square"/>
<path d="M116.611 140.43V140.666" stroke="black" stroke-width="1.17834" stroke-linecap="square"/>
<path d="M119.439 154.57V154.806" stroke="black" stroke-width="1.17834" stroke-linecap="square"/>
<path d="M123.211 154.57V154.806" stroke="black" stroke-width="1.17834" stroke-linecap="square"/>
<path d="M119.439 158.105V158.341" stroke="black" stroke-width="1.17834" stroke-linecap="square"/>
<path d="M123.211 158.105V158.341" stroke="black" stroke-width="1.17834" stroke-linecap="square"/>
<path d="M119.439 161.64V161.876" stroke="black" stroke-width="1.17834" stroke-linecap="square"/>
<path d="M123.211 161.64V161.876" stroke="black" stroke-width="1.17834" stroke-linecap="square"/>
<path d="M106.713 151.271V151.506" stroke="black" stroke-width="1.17834" stroke-linecap="square"/>
<path d="M110.484 151.271V151.506" stroke="black" stroke-width="1.17834" stroke-linecap="square"/>
<path d="M106.713 154.806V155.041" stroke="black" stroke-width="1.17834" stroke-linecap="square"/>
<path d="M110.484 154.806V155.041" stroke="black" stroke-width="1.17834" stroke-linecap="square"/>
<path d="M108.48 161.758V165.764" stroke="black" stroke-width="1.17834" stroke-linecap="square"/>
<path d="M196.943 109.25V75.0906C196.943 74.5841 197.354 74.1735 197.86 74.1735H219.411C219.917 74.1735 220.328 74.5841 220.328 75.0906V109.25" stroke="black" stroke-width="1.14628" stroke-linecap="round"/>
<path d="M221.016 87.3558H234.083C234.59 87.3558 235 87.7664 235 88.2728V109.364" stroke="black" stroke-width="1.14628" stroke-linecap="round"/>
<path d="M203.707 79.1026H201.873C201.619 79.1026 201.414 79.3078 201.414 79.5611V82.4268" stroke="black" stroke-width="1.14628" stroke-linecap="round"/>
<path d="M210.127 79.1026H208.292C208.039 79.1026 207.834 79.3078 207.834 79.5611V82.4268" stroke="black" stroke-width="1.14628" stroke-linecap="round"/>
<path d="M216.314 79.1026H214.48C214.227 79.1026 214.021 79.3078 214.021 79.5611V82.4268" stroke="black" stroke-width="1.14628" stroke-linecap="round"/>
<path d="M203.591 87.3558H201.757C201.504 87.3558 201.299 87.5611 201.299 87.8143V90.68" stroke="black" stroke-width="1.14628" stroke-linecap="round"/>
<path d="M210.011 87.3558H208.177C207.924 87.3558 207.719 87.5611 207.719 87.8143V90.68" stroke="black" stroke-width="1.14628" stroke-linecap="round"/>
<path d="M216.201 87.3558H214.367C214.113 87.3558 213.908 87.5611 213.908 87.8143V90.68" stroke="black" stroke-width="1.14628" stroke-linecap="round"/>
<path d="M203.591 95.3798H201.757C201.504 95.3798 201.299 95.5851 201.299 95.8383V98.704" stroke="black" stroke-width="1.14628" stroke-linecap="round"/>
<path d="M210.011 95.3798H208.177C207.924 95.3798 207.719 95.5851 207.719 95.8383V98.704" stroke="black" stroke-width="1.14628" stroke-linecap="round"/>
<path d="M216.201 95.3798H214.367C214.113 95.3798 213.908 95.5851 213.908 95.8383V98.704" stroke="black" stroke-width="1.14628" stroke-linecap="round"/>
<path d="M203.591 103.633H201.757C201.504 103.633 201.299 103.838 201.299 104.092V109.021" stroke="black" stroke-width="1.14628" stroke-linecap="round"/>
<path d="M210.011 103.633H208.177C207.924 103.633 207.719 103.838 207.719 104.092V109.021" stroke="black" stroke-width="1.14628" stroke-linecap="round"/>
<path d="M216.201 103.633H214.367C214.113 103.633 213.908 103.838 213.908 104.092V109.021" stroke="black" stroke-width="1.14628" stroke-linecap="round"/>
<path d="M226.287 91.7117H224.453C224.199 91.7117 223.994 91.917 223.994 92.1702V94.1189" stroke="black" stroke-width="1.14628" stroke-linecap="round"/>
<path d="M226.287 97.6724H224.453C224.199 97.6724 223.994 97.8776 223.994 98.1309V100.08" stroke="black" stroke-width="1.14628" stroke-linecap="round"/>
<path d="M226.287 103.633H224.453C224.199 103.633 223.994 103.838 223.994 104.092V106.04" stroke="black" stroke-width="1.14628" stroke-linecap="round"/>
<path d="M231.56 91.7117H229.726C229.473 91.7117 229.268 91.917 229.268 92.1702V94.1189" stroke="black" stroke-width="1.14628" stroke-linecap="round"/>
<path d="M231.56 97.6724H229.726C229.473 97.6724 229.268 97.8776 229.268 98.1309V100.08" stroke="black" stroke-width="1.14628" stroke-linecap="round"/>
<path d="M231.56 103.633H229.726C229.473 103.633 229.268 103.838 229.268 104.092V106.04" stroke="black" stroke-width="1.14628" stroke-linecap="round"/>
<rect x="112.339" y="74.8197" width="20.623" height="34.6951" stroke="black" stroke-width="0.970492"/>
<path d="M112.824 78.7016H132.113" stroke="black" stroke-width="0.970492" stroke-linecap="square"/>
<path d="M112.824 82.341H132.113" stroke="black" stroke-width="0.970492" stroke-linecap="square"/>
<path d="M112.824 85.9803H132.113" stroke="black" stroke-width="0.970492" stroke-linecap="square"/>
<path d="M112.824 89.6197H132.113" stroke="black" stroke-width="0.970492" stroke-linecap="square"/>
<path d="M112.824 93.259H132.113" stroke="black" stroke-width="0.970492" stroke-linecap="square"/>
<path d="M112.824 96.8984H132.113" stroke="black" stroke-width="0.970492" stroke-linecap="square"/>
<path d="M112.824 100.538H132.113" stroke="black" stroke-width="0.970492" stroke-linecap="square"/>
<path d="M112.824 104.177H132.113" stroke="black" stroke-width="0.970492" stroke-linecap="square"/>
<path d="M116.584 75.3049V108.666" stroke="black" stroke-width="0.970492" stroke-linecap="square"/>
<path d="M120.83 75.3049V104.056" stroke="black" stroke-width="0.970492" stroke-linecap="square"/>
<path d="M124.955 75.3049V104.177" stroke="black" stroke-width="0.970492" stroke-linecap="square"/>
<path d="M129.08 75.3049V108.666" stroke="black" stroke-width="0.970492" stroke-linecap="square"/>
<path d="M107 109.515H138.298" stroke="black" stroke-width="0.970492" stroke-linecap="square"/>
<path d="M115.129 73H130.172" stroke="black" stroke-width="0.970492" stroke-linecap="square"/>
<path d="M26.0801 110.233V91.942L40.5602 83.0506V110.233H33.4472V72L48.1814 81.2724V110.233" stroke="black" stroke-width="1.27019" stroke-linecap="square"/>
<path d="M21 110.36H53.1358" stroke="black" stroke-width="1.27019" stroke-linecap="square"/>
<path d="M222.168 52.8478V18.079H236.001V53.2216" stroke="black" stroke-width="1.24619" stroke-linecap="square"/>
<path d="M235.874 53.2216H195.373" stroke="black" stroke-width="1.24619" stroke-linecap="square"/>
<path d="M195 53.2216V29.9178H208.708V53.097" stroke="black" stroke-width="1.24619" stroke-linecap="square"/>
<path d="M208.832 37.6442H221.917" stroke="black" stroke-width="1.24619" stroke-linecap="square"/>
<path d="M201.605 29.1701V14.0912H215.314V37.1457" stroke="black" stroke-width="1.24619" stroke-linecap="square"/>
<path d="M199.986 33.9056V34.1549" stroke="black" stroke-width="1.24619" stroke-linecap="square"/>
<path d="M203.973 33.9056V34.1549" stroke="black" stroke-width="1.24619" stroke-linecap="square"/>
<path d="M227.152 22.4407V22.6899" stroke="black" stroke-width="1.24619" stroke-linecap="square"/>
<path d="M231.141 22.4407V22.6899" stroke="black" stroke-width="1.24619" stroke-linecap="square"/>
<path d="M227.152 26.4285V26.6777" stroke="black" stroke-width="1.24619" stroke-linecap="square"/>
<path d="M231.141 26.4285V26.6777" stroke="black" stroke-width="1.24619" stroke-linecap="square"/>
<path d="M227.152 30.4163V30.6655" stroke="black" stroke-width="1.24619" stroke-linecap="square"/>
<path d="M231.141 30.4163V30.6655" stroke="black" stroke-width="1.24619" stroke-linecap="square"/>
<path d="M227.152 34.4041V34.6534" stroke="black" stroke-width="1.24619" stroke-linecap="square"/>
<path d="M231.141 34.4041V34.6534" stroke="black" stroke-width="1.24619" stroke-linecap="square"/>
<path d="M227.152 38.3919V38.6412" stroke="black" stroke-width="1.24619" stroke-linecap="square"/>
<path d="M231.141 38.3919V38.6412" stroke="black" stroke-width="1.24619" stroke-linecap="square"/>
<path d="M227.152 42.3797V42.629" stroke="black" stroke-width="1.24619" stroke-linecap="square"/>
<path d="M231.141 42.3797V42.629" stroke="black" stroke-width="1.24619" stroke-linecap="square"/>
<path d="M227.152 46.3676V46.6168" stroke="black" stroke-width="1.24619" stroke-linecap="square"/>
<path d="M231.141 46.3676V46.6168" stroke="black" stroke-width="1.24619" stroke-linecap="square"/>
<path d="M206.465 18.2036V18.4529" stroke="black" stroke-width="1.24619" stroke-linecap="square"/>
<path d="M210.453 18.2036V18.4529" stroke="black" stroke-width="1.24619" stroke-linecap="square"/>
<path d="M206.465 22.1914V22.4407" stroke="black" stroke-width="1.24619" stroke-linecap="square"/>
<path d="M210.453 22.1914V22.4407" stroke="black" stroke-width="1.24619" stroke-linecap="square"/>
<path d="M206.465 26.1792V26.4285" stroke="black" stroke-width="1.24619" stroke-linecap="square"/>
<path d="M210.453 26.1792V26.4285" stroke="black" stroke-width="1.24619" stroke-linecap="square"/>
<path d="M213.443 41.1336V41.3828" stroke="black" stroke-width="1.24619" stroke-linecap="square"/>
<path d="M217.432 41.1336V41.3828" stroke="black" stroke-width="1.24619" stroke-linecap="square"/>
<path d="M213.443 44.8721V45.1214" stroke="black" stroke-width="1.24619" stroke-linecap="square"/>
<path d="M217.432 44.8721V45.1214" stroke="black" stroke-width="1.24619" stroke-linecap="square"/>
<path d="M213.443 48.6107V48.8599" stroke="black" stroke-width="1.24619" stroke-linecap="square"/>
<path d="M217.432 48.6107V48.8599" stroke="black" stroke-width="1.24619" stroke-linecap="square"/>
<path d="M199.986 37.6442V37.8935" stroke="black" stroke-width="1.24619" stroke-linecap="square"/>
<path d="M203.973 37.6442V37.8935" stroke="black" stroke-width="1.24619" stroke-linecap="square"/>
<path d="M199.986 41.3828V41.632" stroke="black" stroke-width="1.24619" stroke-linecap="square"/>
<path d="M203.973 41.3828V41.632" stroke="black" stroke-width="1.24619" stroke-linecap="square"/>
<path d="M201.854 48.7353V52.9724" stroke="black" stroke-width="1.24619" stroke-linecap="square"/>
<path d="M101 52.9601H141.88" stroke="black" stroke-width="1.07265" stroke-linecap="square"/>
<path d="M111.012 30.0769V52.7218" stroke="black" stroke-width="1.07265" stroke-linecap="square"/>
<path d="M124.359 16.2517V52.7217" stroke="black" stroke-width="1.07265" stroke-linecap="square"/>
<path d="M106.723 52.245V33.1563L111.483 29.1235H123.647" stroke="black" stroke-width="1.07265" stroke-linecap="square"/>
<path d="M119.117 28.9525V19.3142L123.928 15.2982H136.756V52.245" stroke="black" stroke-width="1.07265" stroke-linecap="square"/>
<path d="M126.982 41.9953H129.366" stroke="black" stroke-width="1.07265" stroke-linecap="round"/>
<path d="M126.982 45.094H129.366" stroke="black" stroke-width="1.07265" stroke-linecap="round"/>
<path d="M126.982 39.1349H129.366" stroke="black" stroke-width="1.07265" stroke-linecap="round"/>
<path d="M126.982 36.2745H129.366" stroke="black" stroke-width="1.07265" stroke-linecap="round"/>
<path d="M126.982 33.4141H129.366" stroke="black" stroke-width="1.07265" stroke-linecap="round"/>
<path d="M126.982 30.5537H129.366" stroke="black" stroke-width="1.07265" stroke-linecap="round"/>
<path d="M126.982 27.6933H129.366" stroke="black" stroke-width="1.07265" stroke-linecap="round"/>
<path d="M126.982 24.8329H129.366" stroke="black" stroke-width="1.07265" stroke-linecap="round"/>
<path d="M126.982 21.9725H129.366" stroke="black" stroke-width="1.07265" stroke-linecap="round"/>
<path d="M126.982 19.1121H129.366" stroke="black" stroke-width="1.07265" stroke-linecap="round"/>
<path d="M131.75 41.9953H134.134" stroke="black" stroke-width="1.07265" stroke-linecap="round"/>
<path d="M131.75 45.094H134.134" stroke="black" stroke-width="1.07265" stroke-linecap="round"/>
<path d="M131.75 39.1349H134.134" stroke="black" stroke-width="1.07265" stroke-linecap="round"/>
<path d="M131.75 36.2745H134.134" stroke="black" stroke-width="1.07265" stroke-linecap="round"/>
<path d="M131.75 33.4141H134.134" stroke="black" stroke-width="1.07265" stroke-linecap="round"/>
<path d="M131.75 30.5537H134.134" stroke="black" stroke-width="1.07265" stroke-linecap="round"/>
<path d="M131.75 27.6933H134.134" stroke="black" stroke-width="1.07265" stroke-linecap="round"/>
<path d="M131.75 24.8329H134.134" stroke="black" stroke-width="1.07265" stroke-linecap="round"/>
<path d="M131.75 21.9725H134.134" stroke="black" stroke-width="1.07265" stroke-linecap="round"/>
<path d="M131.75 19.1121H134.134" stroke="black" stroke-width="1.07265" stroke-linecap="round"/>
<path d="M113.275 32.9373H121.737" stroke="black" stroke-width="1.07265" stroke-linecap="round"/>
<path d="M113.275 36.0361H121.737" stroke="black" stroke-width="1.07265" stroke-linecap="round"/>
<path d="M113.275 39.1349H121.737" stroke="black" stroke-width="1.07265" stroke-linecap="round"/>
<path d="M113.275 42.2336H121.737" stroke="black" stroke-width="1.07265" stroke-linecap="round"/>
<path d="M113.275 45.3324H121.737" stroke="black" stroke-width="1.07265" stroke-linecap="round"/>
<path d="M113.275 48.4312H121.737" stroke="black" stroke-width="1.07265" stroke-linecap="round"/>
<path d="M126.742 52.4834V49.3846C126.742 49.1213 126.956 48.9079 127.219 48.9079H133.893C134.156 48.9079 134.37 49.1213 134.37 49.3846V52.4834" stroke="black" stroke-width="1.07265" stroke-linecap="round"/>
<path d="M17.8379 34.1422L28.5578 28.959C28.6791 28.9003 28.8195 28.8954 28.9447 28.9454L32.9445 30.5454" stroke="black" stroke-width="1.07905" stroke-linecap="round"/>
<path d="M17.7168 38.0987L28.4406 32.9136C28.5597 32.856 28.6972 32.8501 28.8207 32.8974L32.7036 34.382" stroke="black" stroke-width="1.07905" stroke-linecap="round"/>
<path d="M17.4766 41.9353L28.207 36.747C28.3222 36.6913 28.4548 36.6839 28.5754 36.7265L32.4633 38.0987" stroke="black" stroke-width="1.07905" stroke-linecap="round"/>
<path d="M17.8379 45.5321L28.591 41.16C28.6927 41.1186 28.8056 41.1134 28.9107 41.1453L32.7048 42.295" stroke="black" stroke-width="1.07905" stroke-linecap="round"/>
<path d="M17.4766 49.4886L28.403 45.8069C28.4713 45.7839 28.544 45.7766 28.6156 45.7855L32.3434 46.2515" stroke="black" stroke-width="1.07905" stroke-linecap="round"/>
<path d="M17.7168 30.6653L28.4232 25.018C28.5521 24.95 28.7049 24.9443 28.8386 25.0025L33.303 26.9486" stroke="black" stroke-width="1.07905" stroke-linecap="round"/>
<path d="M17.9551 26.9486L28.5412 21.4203C28.6703 21.3528 28.8232 21.3478 28.9565 21.4065L35.8193 24.4308" stroke="black" stroke-width="1.07905" stroke-linecap="round"/>
<path d="M17.4766 52.486V20.6316C17.4766 20.4601 17.5681 20.3016 17.7167 20.216L28.2937 14.1228C28.4275 14.0457 28.5902 14.0377 28.7309 14.1014L39.6149 19.0279C39.7865 19.1055 39.8968 19.2765 39.8968 19.4648V22.6324" stroke="black" stroke-width="1.07905" stroke-linecap="round"/>
<path d="M28.627 14.3597V52.3661" stroke="black" stroke-width="1.07905" stroke-linecap="round"/>
<path d="M17.8379 23.4716L28.5445 17.9418C28.6734 17.8753 28.8254 17.8706 28.9581 17.9291L39.8984 22.7523" stroke="black" stroke-width="1.07905" stroke-linecap="round"/>
<path d="M23.7109 50.6876L28.6671 49.6256C28.7196 49.6143 28.7737 49.6119 28.8271 49.6186L32.5831 50.0881" stroke="black" stroke-width="1.07905" stroke-linecap="round"/>
<path d="M35.1016 52.3661V27.5958C35.1016 27.4188 35.199 27.2562 35.3552 27.1728L43.6455 22.7437C43.7769 22.6735 43.9333 22.6683 44.069 22.7297L52.3241 26.4614C52.4958 26.539 52.6061 26.71 52.6061 26.8984V52.3661" stroke="black" stroke-width="1.07905" stroke-linecap="round"/>
<path d="M44.0938 22.8722V52.2462" stroke="black" stroke-width="1.07905" stroke-linecap="round"/>
<path d="M35.3418 29.9459L43.5386 25.8475C43.6629 25.7853 43.8082 25.7802 43.9366 25.8334L52.127 29.2265" stroke="black" stroke-width="1.07905" stroke-linecap="round"/>
<path d="M35.7012 33.1831L43.898 29.0847C44.0223 29.0225 44.1675 29.0173 44.296 29.0705L52.4863 32.4637" stroke="black" stroke-width="1.07905" stroke-linecap="round"/>
<path d="M35.7012 36.5401L43.898 32.4417C44.0223 32.3795 44.1675 32.3744 44.296 32.4276L52.4863 35.8207" stroke="black" stroke-width="1.07905" stroke-linecap="round"/>
<path d="M35.7012 39.6573L43.7937 35.9043C43.9091 35.8508 44.0409 35.8453 44.1604 35.889L52.4863 38.938" stroke="black" stroke-width="1.07905" stroke-linecap="round"/>
<path d="M35.7012 42.7746L44.0661 39.7114C44.162 39.6763 44.2665 39.6727 44.3645 39.7011L52.4863 42.0552" stroke="black" stroke-width="1.07905" stroke-linecap="round"/>
<path d="M35.7012 45.5321L44.0897 42.9329C44.1709 42.9077 44.2573 42.9046 44.34 42.9238L52.4863 44.8128" stroke="black" stroke-width="1.07905" stroke-linecap="round"/>
<path d="M35.7012 48.1698L44.2602 46.5056C44.3088 46.4961 44.3586 46.4942 44.4078 46.5L52.4863 47.4504" stroke="black" stroke-width="1.07905" stroke-linecap="round"/>
<path d="M35.7012 50.5677L44.4534 49.8483H52.4863" stroke="black" stroke-width="1.07905" stroke-linecap="round"/>
<path d="M14 52.8457H55.6032" stroke="black" stroke-width="1.07905" stroke-linecap="round"/>
</svg>
