<svg width="260" height="178" viewBox="0 0 260 178" fill="none" xmlns="http://www.w3.org/2000/svg">
<mask id="path-1-inside-1_851_3637" fill="white">
<rect x="33.5879" y="20.7469" width="9.81582" height="6.79557" rx="1.03674"/>
</mask>
<rect x="33.5879" y="20.7469" width="9.81582" height="6.79557" rx="1.03674" stroke="black" stroke-width="2.07521" mask="url(#path-1-inside-1_851_3637)"/>
<path d="M33.9699 23.7673H23.6813C23.1087 23.7673 22.6445 24.2315 22.6445 24.8041V40.4736C22.6445 41.0462 23.1087 41.5104 23.6813 41.5104H53.6962C54.2688 41.5104 54.733 41.0462 54.733 40.4736V24.8041C54.733 24.2315 54.2688 23.7673 53.6962 23.7673H43.0301" stroke="black" stroke-width="1.03761"/>
<path d="M23.3976 23.7671H21.0367C20.4642 23.7671 20 23.3029 20 22.7303V14.2335C20 13.6609 20.4642 13.1968 21.0367 13.1968H55.9594C56.5319 13.1968 56.9961 13.6609 56.9961 14.2335V22.7303C56.9961 23.3029 56.5319 23.7671 55.9594 23.7671H53.976" stroke="black" stroke-width="1.03761"/>
<path d="M31.7031 13.1972V8.94848C31.7031 8.37591 32.1673 7.91174 32.7399 7.91174H44.2575C44.8301 7.91174 45.2943 8.37591 45.2943 8.94848V13.1972" stroke="black" stroke-width="1.03761"/>
<path d="M207.775 21.8159H228.386" stroke="black"/>
<path d="M207.775 13.2773H228.386" stroke="black"/>
<path d="M217.786 6.50537C213.566 9.74414 207.657 18.7538 217.786 28.8823" stroke="black"/>
<path d="M218.376 6.50537C222.596 9.74414 228.505 18.7538 218.376 28.8823" stroke="black"/>
<path d="M218.082 6.50537V28.8823" stroke="black"/>
<circle cx="218.083" cy="17.6938" r="10.9829" stroke="black"/>
<path d="M225.736 38.0097C225.167 35.6404 225.038 30.5987 228.847 28.7705C229.11 28.6444 229.322 28.43 229.429 28.159C230.113 26.4266 231.58 23.738 233.097 24.1713C234.048 24.4431 234.569 26.8212 232.213 31.5322M225.736 38.0097L232.646 40.1358C233.084 40.2706 233.374 40.6863 233.35 41.1441L233.161 44.7303C233.128 45.3641 232.52 45.8069 231.907 45.6445L224.274 43.624C223.661 43.4618 223.352 42.7773 223.636 42.2102L225.736 38.0097ZM233.391 38.3041L239.39 28.0212C239.509 27.8167 239.552 27.5766 239.511 27.3435L237.035 13.3165C236.968 12.9334 236.679 12.6007 236.292 12.6383C234.789 12.7845 232.777 14.8273 233.391 22.4047" stroke="black" stroke-linecap="round" stroke-linejoin="round"/>
<path d="M209.839 38.0097C210.407 35.6404 210.537 30.5987 206.727 28.7705C206.464 28.6444 206.252 28.43 206.145 28.159C205.461 26.4266 203.994 23.738 202.478 24.1713C201.526 24.4431 201.005 26.8212 203.361 31.5322M209.839 38.0097L202.929 40.1358C202.49 40.2706 202.2 40.6863 202.224 41.1441L202.413 44.7303C202.446 45.3641 203.054 45.8069 203.667 45.6445L211.3 43.624C211.913 43.4618 212.222 42.7773 211.939 42.2102L209.839 38.0097ZM202.183 38.3041L196.185 28.0212C196.065 27.8167 196.023 27.5766 196.064 27.3435L198.539 13.3165C198.607 12.9334 198.895 12.6007 199.282 12.6383C200.786 12.7845 202.797 14.8273 202.183 22.4047" stroke="black" stroke-linecap="round" stroke-linejoin="round"/>
<path d="M20 87.7618L33.9428 96.4432C34.328 96.683 34.8219 96.6573 35.18 96.3787L44.4899 89.1377M50.8188 85.2853L61 78.4061M20 91.6142L33.9631 100.572C34.3376 100.812 34.8211 100.799 35.1819 100.538L44.4899 93.8155M50.8188 89.688L61 82.8088M20 95.7417L33.9631 104.699C34.3376 104.939 34.8211 104.926 35.1819 104.666L44.4899 97.943M50.8188 94.3659L61 86.9363" stroke="black" stroke-width="1.08295" stroke-linecap="round" stroke-linejoin="round"/>
<path d="M41.7395 83.359L34.9166 88.413C34.5521 88.683 34.0579 88.6972 33.6785 88.4486L27.5879 84.4582C26.9693 84.053 26.9299 83.1606 27.5103 82.7024L31.5583 79.5066M39.8133 74.5536L45.8149 69.8024C46.1757 69.5167 46.6777 69.4903 47.0665 69.7366L53.3573 73.7207C53.9946 74.1244 54.0343 75.0398 53.4341 75.497L48.8938 78.9563" stroke="black" stroke-width="1.08295" stroke-linecap="round" stroke-linejoin="round"/>
<path d="M31.0069 76.2046L21.5272 83.2537C20.921 83.7044 20.9509 84.6216 21.5851 85.0319L33.6605 92.8454C34.0485 93.0965 34.5531 93.0736 34.9169 92.7885L44.4902 85.2851M50.819 81.708L59.7344 75.2021C60.3462 74.7557 60.3226 73.8353 59.6887 73.4209L47.3179 65.3323C46.9409 65.0858 46.4508 65.0984 46.0869 65.3639L36.5103 72.3523" stroke="black" stroke-width="1.08295" stroke-linecap="round" stroke-linejoin="round"/>
<path d="M44.0064 84.9639L31.6619 76.7342C31.0595 76.3326 31.0132 75.4646 31.5693 75.0011L34.7976 72.3108C35.161 72.0081 35.6787 71.9761 36.0765 72.2318L50.3202 81.3884C50.6301 81.5877 50.8175 81.9309 50.8175 82.2994V94.5828C50.8175 94.9607 50.6205 95.3113 50.2976 95.5078L46.1347 98.0418C45.413 98.4811 44.4886 97.9616 44.4886 97.1167V85.8649C44.4886 85.5028 44.3077 85.1647 44.0064 84.9639Z" stroke="black" stroke-width="1.08295" stroke-linecap="round" stroke-linejoin="round"/>
<circle cx="34.0343" cy="83.9095" r="1.10067" fill="black"/>
<circle cx="47.2432" cy="75.104" r="1.10067" fill="black"/>
<rect x="108.512" y="67.5125" width="39.9779" height="6.78507" rx="0.512498" stroke="black" stroke-width="1.025" stroke-linecap="round" stroke-linejoin="round"/>
<path d="M110.929 74.3217V94.8231M110.929 94.8231H146.074M110.929 94.8231H108M146.074 94.8231V74.3217M146.074 94.8231H149.491" stroke="black" stroke-width="1.025" stroke-linecap="round" stroke-linejoin="round"/>
<circle cx="122.16" cy="84.0842" r="5.83276" stroke="black" stroke-width="1.025" stroke-linecap="round" stroke-linejoin="round"/>
<path d="M131.432 78.7151H141.68" stroke="black" stroke-width="1.025" stroke-linecap="round" stroke-linejoin="round"/>
<path d="M134.361 83.5962H141.193" stroke="black" stroke-width="1.025" stroke-linecap="round" stroke-linejoin="round"/>
<path d="M128.014 85.0587H123.183C122.617 85.0587 122.158 84.5998 122.158 84.0337V78.2268" stroke="black" stroke-width="1.025" stroke-linecap="round" stroke-linejoin="round"/>
<path d="M128.5 94.8232V100.5" stroke="black" stroke-width="1.025" stroke-linecap="round" stroke-linejoin="round"/>
<circle cx="128.5" cy="104.097" r="3.39147" stroke="black" stroke-width="1.025" stroke-linecap="round" stroke-linejoin="round"/>
<circle cx="217.472" cy="70.2947" r="4.76612" stroke="black" stroke-width="1.05708" stroke-linecap="round" stroke-linejoin="round"/>
<circle cx="217.472" cy="95.7053" r="4.76612" stroke="black" stroke-width="1.05708" stroke-linecap="round" stroke-linejoin="round"/>
<circle cx="200.531" cy="95.7053" r="4.76612" stroke="black" stroke-width="1.05708" stroke-linecap="round" stroke-linejoin="round"/>
<circle cx="234.412" cy="95.7053" r="4.76612" stroke="black" stroke-width="1.05708" stroke-linecap="round" stroke-linejoin="round"/>
<path d="M217.47 75.0583V90.94M200.529 90.94V83.526C200.529 82.6503 201.239 81.9404 202.115 81.9404H232.824C233.7 81.9404 234.41 82.6503 234.41 83.526V90.94" stroke="black" stroke-width="1.05708" stroke-linecap="round" stroke-linejoin="round"/>
<path d="M45.058 127.82L42.6659 138.585C42.5589 139.066 42.7053 139.569 43.054 139.917L45.7474 142.611C46.3107 143.174 47.2239 143.174 47.7871 142.611L50.4571 139.941C50.8185 139.579 50.9617 139.054 50.8334 138.559L48.0492 127.82" stroke="black" stroke-width="0.961508" stroke-linecap="round" stroke-linejoin="round"/>
<path d="M43.7759 126.965L36.0005 130.853C35.0043 131.351 34.375 132.369 34.375 133.483V142.349M49.7583 126.965L57.1557 130.84C58.1247 131.348 58.7319 132.351 58.7319 133.445V142.349" stroke="black" stroke-width="0.961508" stroke-linecap="round" stroke-linejoin="round"/>
<path d="M22.4082 146.622V138.769C22.4082 138.331 22.6074 137.916 22.9495 137.643L26.6813 134.657" stroke="black" stroke-width="0.961508" stroke-linecap="round" stroke-linejoin="round"/>
<path d="M19.4199 152.604L22.944 163.568C23.1357 164.165 23.6906 164.569 24.3171 164.569H56.3629C57.0069 164.569 57.5728 164.142 57.7497 163.523L60.8693 152.604" stroke="black" stroke-width="0.961508" stroke-linecap="round" stroke-linejoin="round"/>
<rect x="16.4808" y="146.675" width="48.6068" height="5.87551" rx="0.961508" stroke="black" stroke-width="0.961508" stroke-linecap="round" stroke-linejoin="round"/>
<ellipse cx="28.8197" cy="133.802" rx="2.56388" ry="2.13657" fill="black"/>
<path d="M52.2672 121.838C52.2672 125.144 49.7734 127.767 46.7656 127.767C43.7578 127.767 41.264 125.144 41.264 121.838C41.264 118.531 43.7578 115.909 46.7656 115.909C49.7734 115.909 52.2672 118.531 52.2672 121.838Z" stroke="black" stroke-width="0.961508" stroke-linecap="round" stroke-linejoin="round"/>
<path d="M119.195 140.313V125.464C119.195 124.655 119.851 124 120.659 124H142.446C143.255 124 143.91 124.655 143.91 125.464V140.313" stroke="black" stroke-width="0.975963" stroke-linecap="round" stroke-linejoin="round"/>
<path d="M111.547 149.892V163.139C111.547 163.948 112.202 164.603 113.011 164.603H148.921C149.729 164.603 150.384 163.948 150.384 163.139V149.892" stroke="black" stroke-width="0.975963" stroke-linecap="round" stroke-linejoin="round"/>
<path d="M111.445 145.773C111.445 142.792 113.861 140.376 116.842 140.376H145.087C148.067 140.376 150.484 142.792 150.484 145.773V149.992H111.445V145.773Z" stroke="black" stroke-width="0.975963" stroke-linecap="round" stroke-linejoin="round"/>
<path d="M117.328 157.541C117.328 155.211 119.217 153.322 121.547 153.322H141.555C143.885 153.322 145.774 155.211 145.774 157.541V159.407H117.328V157.541Z" stroke="black" stroke-width="0.975963" stroke-linecap="round" stroke-linejoin="round"/>
<path d="M125.668 129.296H139.202" stroke="black" stroke-width="0.975963" stroke-linecap="round" stroke-linejoin="round"/>
<path d="M126.256 136.357L136.848 136.357" stroke="black" stroke-width="0.975963" stroke-linecap="round" stroke-linejoin="round"/>
<path d="M123.904 132.827H140.381" stroke="black" stroke-width="0.975963" stroke-linecap="round" stroke-linejoin="round"/>
<circle cx="143.909" cy="145.773" r="1.1769" fill="black"/>
<path d="M215.23 140.752H226.825M215.23 148.657H225.771M215.23 156.562H223.663" stroke="black" stroke-width="0.906977" stroke-linecap="round" stroke-linejoin="round"/>
<path d="M231.568 141.953V127.049C231.568 126.548 231.161 126.142 230.661 126.142H219.973M213.122 126.142H201.907C201.406 126.142 201 126.548 201 127.049V162.127C201 162.628 201.406 163.034 201.907 163.034H223.135" stroke="black" stroke-width="0.906977" stroke-linecap="round" stroke-linejoin="round"/>
<path d="M220.792 127.316C217.252 121.428 213.784 124.635 212.276 127.332C212.14 127.576 211.909 127.751 211.639 127.826C209.963 128.292 207.33 129.722 206.869 132.616C206.79 133.11 207.205 133.52 207.706 133.52H224.865C225.366 133.52 225.779 133.111 225.72 132.614C225.344 129.438 223.011 128.141 221.486 127.801C221.201 127.737 220.942 127.566 220.792 127.316Z" stroke="black" stroke-width="0.906977"/>
<path d="M223.662 150.385L230.947 143.101C231.293 142.755 231.851 142.746 232.208 143.08L240 150.385M223.662 150.385H240M223.662 150.385V163.034M240 150.385V163.034M228.932 163.034V155.656M234.73 163.034V155.656" stroke="black" stroke-width="0.906977" stroke-linecap="round" stroke-linejoin="round"/>
<circle cx="216.285" cy="126.669" r="1.05405" fill="black"/>
<rect x="207.252" y="137.663" width="5.41735" height="5.41735" rx="0.453488" stroke="black" stroke-width="0.906977"/>
<rect x="207.252" y="145.948" width="5.41735" height="5.41735" rx="0.453488" stroke="black" stroke-width="0.906977"/>
<rect x="207.252" y="153.474" width="5.41735" height="5.41735" rx="0.453488" stroke="black" stroke-width="0.906977"/>
<path d="M119.307 30.9015L125.97 24.2379C126.322 23.8862 126.892 23.8862 127.244 24.2379L130.965 27.9594C131.317 28.311 131.887 28.311 132.239 27.9594L139.287 20.9115M139.287 20.9115H133.907M139.287 20.9115V26.2907" stroke="black" stroke-linecap="round"/>
<path d="M129.213 37.4335V43.9654" stroke="black" stroke-linecap="round"/>
<path d="M113.303 13.9949V36.5325C113.303 37.0298 113.706 37.433 114.203 37.433H144.293C144.791 37.433 145.194 37.0298 145.194 36.5325V13.9949" stroke="black" stroke-linecap="round"/>
<mask id="path-58-inside-2_851_3637" fill="white">
<rect x="110" y="9" width="38.4232" height="5.37925" rx="0.900544"/>
</mask>
<rect x="110" y="9" width="38.4232" height="5.37925" rx="0.900544" stroke="black" stroke-width="2" mask="url(#path-58-inside-2_851_3637)"/>
<circle cx="129.067" cy="47.039" r="2.95809" stroke="black"/>
</svg>
