<svg width="270" height="178" viewBox="0 0 270 178" fill="none" xmlns="http://www.w3.org/2000/svg">
<path fill-rule="evenodd" clip-rule="evenodd" d="M31.2127 12.6987H45.0837V18.5054H57.498V48.0946H18.498V18.5054H31.2127V12.6987ZM32.6694 18.5054H43.6271V14.1553H32.6694V18.5054ZM19.9547 19.9621V31.3202H37.2197V28.7447H38.6763V31.3202H56.0414V19.9621H19.9547ZM56.0414 32.7769H38.6763V35.853H37.2197V32.7769H19.9547V46.638H56.0414V32.7769Z" fill="black"/>
<path fill-rule="evenodd" clip-rule="evenodd" d="M122.748 11.0083C122.846 10.899 122.986 10.8364 123.132 10.8364H144.635C144.928 10.8364 145.374 10.8963 145.766 11.0982C146.178 11.3097 146.583 11.7143 146.583 12.3751V18.5187H145.554V12.3751C145.554 12.2167 145.482 12.1094 145.295 12.0137C145.091 11.9084 144.819 11.8659 144.635 11.8659H123.647V17.0852C123.647 17.3694 123.417 17.5999 123.132 17.5999H118.528V47.7676C118.557 47.9602 118.658 48.254 118.862 48.4948C119.06 48.7301 119.364 48.9266 119.856 48.9266H144.567C144.78 48.8647 145.066 48.7369 145.28 48.5509C145.502 48.3586 145.604 48.1496 145.561 47.8877C145.556 47.8597 145.554 47.8314 145.554 47.8031V37.6613L144.097 41.8293C144.067 41.915 144.015 41.9912 143.946 42.0503L141.079 44.5077C140.986 44.5877 140.867 44.6316 140.744 44.6316H132.143V43.6022H140.044L139.229 40.9939C139.195 40.885 139.198 40.768 139.238 40.6611L147.224 19.1586C147.272 19.0311 147.368 18.9275 147.491 18.8705C148.677 18.323 149.633 18.401 150.339 18.8392C151.01 19.2563 151.358 19.9418 151.483 20.4417C151.507 20.5391 151.502 20.6415 151.469 20.7364L146.583 34.7158V47.7639C146.682 48.4623 146.347 48.9887 145.955 49.3283C145.568 49.6645 145.089 49.8585 144.76 49.9407C144.719 49.9509 144.677 49.9561 144.635 49.9561H119.856C119.037 49.9561 118.453 49.6065 118.075 49.1592C117.712 48.7295 117.546 48.2217 117.502 47.8669C117.499 47.8457 117.498 47.8244 117.498 47.8031V17.0852C117.498 16.9587 117.545 16.8367 117.629 16.7423L122.748 11.0083ZM141.002 43.2176L143.171 41.3588L150.442 20.5539C150.339 20.2594 150.126 19.9189 149.795 19.7136C149.47 19.5114 148.945 19.3876 148.113 19.7228L140.264 40.8547L141.002 43.2176ZM119.162 16.5704H122.618V12.7005L119.162 16.5704ZM139.106 37.6689H123.132V36.6395H139.106V37.6689ZM137.467 40.9455H123.747V39.916H137.467V40.9455Z" fill="black"/>
<path d="M125.757 23.3784C125.419 24.8311 125.586 26.3559 126.231 27.7009C126.876 29.0458 127.961 30.1304 129.306 30.7753C130.651 31.4203 132.176 31.587 133.628 31.248C135.081 30.909 136.375 30.0846 137.295 28.9109C138.216 27.7372 138.709 26.2845 138.692 24.7929C138.675 23.3013 138.15 21.86 137.203 20.7072C136.257 19.5545 134.945 18.7592 133.485 18.4529C132.025 18.1465 130.504 18.3475 129.174 19.0224L129.541 19.7446C130.706 19.1531 132.039 18.977 133.319 19.2455C134.598 19.514 135.748 20.2109 136.578 21.2212C137.407 22.2315 137.867 23.4947 137.882 24.8019C137.897 26.1092 137.465 27.3824 136.658 28.411C135.851 29.4397 134.718 30.1623 133.444 30.4594C132.171 30.7565 130.835 30.6103 129.656 30.0451C128.477 29.4798 127.526 28.5293 126.961 27.3506C126.395 26.1719 126.249 24.8355 126.546 23.5623L125.757 23.3784Z" fill="black"/>
<path fill-rule="evenodd" clip-rule="evenodd" d="M131.729 28.7104V21.5547H132.758V28.7104H131.729Z" fill="black"/>
<path d="M133.336 23.7143C133.307 23.4566 133.187 23.2569 132.977 23.1154C132.766 22.972 132.501 22.9003 132.182 22.9003C131.953 22.9003 131.755 22.9366 131.588 23.0092C131.421 23.08 131.291 23.178 131.199 23.3032C131.108 23.4266 131.063 23.5673 131.063 23.7252C131.063 23.8577 131.093 23.9721 131.155 24.0683C131.219 24.1645 131.301 24.2452 131.403 24.3106C131.506 24.3741 131.617 24.4277 131.735 24.4712C131.853 24.513 131.966 24.5475 132.075 24.5747L132.62 24.7163C132.798 24.7598 132.98 24.8188 133.167 24.8932C133.354 24.9676 133.527 25.0657 133.687 25.1873C133.847 25.3089 133.976 25.4595 134.074 25.6392C134.174 25.8189 134.223 26.034 134.223 26.2845C134.223 26.6003 134.142 26.8807 133.978 27.1258C133.817 27.3708 133.582 27.5641 133.273 27.7057C132.967 27.8473 132.595 27.918 132.16 27.918C131.742 27.918 131.381 27.8518 131.076 27.7193C130.771 27.5868 130.533 27.3989 130.36 27.1557C130.188 26.9107 130.092 26.6203 130.074 26.2845H130.918C130.935 26.486 131 26.6538 131.114 26.7882C131.23 26.9207 131.378 27.0196 131.558 27.0849C131.74 27.1485 131.938 27.1802 132.154 27.1802C132.392 27.1802 132.604 27.143 132.789 27.0686C132.976 26.9924 133.123 26.8871 133.23 26.7528C133.337 26.6166 133.39 26.4578 133.39 26.2763C133.39 26.1111 133.343 25.9759 133.249 25.8706C133.156 25.7654 133.03 25.6782 132.87 25.6093C132.712 25.5403 132.534 25.4795 132.334 25.4269L131.675 25.2472C131.229 25.1256 130.875 24.9468 130.613 24.7108C130.354 24.4749 130.224 24.1627 130.224 23.7742C130.224 23.453 130.311 23.1725 130.485 22.9329C130.66 22.6934 130.896 22.5073 131.193 22.3748C131.491 22.2405 131.827 22.1733 132.201 22.1733C132.578 22.1733 132.911 22.2396 133.2 22.3721C133.49 22.5046 133.719 22.687 133.886 22.9193C134.053 23.1498 134.14 23.4148 134.147 23.7143H133.336Z" fill="black"/>
<path fill-rule="evenodd" clip-rule="evenodd" d="M217.215 20.5078C217.209 20.5111 217.206 20.5127 217.206 20.5127L217.206 20.5125L216.565 19.4426C216.719 19.3498 217.338 19.0529 218.173 18.6595C219.032 18.2547 220.171 17.7241 221.414 17.1481C223.9 15.9959 226.805 14.6602 228.721 13.7817L229.241 14.916C227.325 15.794 224.422 17.1289 221.938 18.2801C220.696 18.8558 219.56 19.3851 218.705 19.7881C218.277 19.9898 217.921 20.1591 217.658 20.2867C217.526 20.3505 217.419 20.403 217.339 20.4434C217.299 20.4636 217.267 20.48 217.243 20.4927C217.231 20.4991 217.222 20.504 217.215 20.5078ZM245.965 20.5442L233.75 14.9155L234.272 13.7823L246.488 19.411L245.965 20.5442ZM223.018 25.1841L229.535 15.0884L230.583 15.765L224.102 25.8051L229.291 28.7774L228.671 29.8601L223.425 26.8549L215.973 38.3996L214.924 37.7229L222.34 26.2338L216.336 22.7943L216.956 21.7116L223.018 25.1841ZM238.655 25.7916L232.287 15.7611L233.34 15.0923L239.745 25.1795L245.921 21.7091L246.532 22.7969L240.415 26.2344L247.711 37.7268L246.658 38.3956L239.325 26.8465L233.957 29.8627L233.346 28.7749L238.655 25.7916ZM230.753 28.0014V15.786H232V28.0014H230.753ZM214.875 23.8099V37.7019H213.627V23.8099H214.875ZM247.878 37.7019V23.8099H249.126V37.7019H247.878ZM245.909 40.0355L233.335 32.6105L233.969 31.536L246.544 38.9611L245.909 40.0355ZM229.308 32.6049L217.212 40.03L216.559 38.9667L228.655 31.5416L229.308 32.6049ZM230.753 45.0073V33.3906H232V45.0073H230.753ZM217.127 40.7195L229.103 45.7494L228.62 46.8998L216.644 41.8699L217.127 40.7195ZM233.435 45.7398L246.009 41.0692L246.444 42.2388L233.869 46.9094L233.435 45.7398Z" fill="black"/>
<path fill-rule="evenodd" clip-rule="evenodd" d="M231.378 32.2624C232.276 32.2624 233.005 31.5342 233.005 30.6359C233.005 29.7377 232.276 29.0094 231.378 29.0094C230.48 29.0094 229.752 29.7377 229.752 30.6359C229.752 31.5342 230.48 32.2624 231.378 32.2624ZM231.378 33.5102C232.966 33.5102 234.252 32.2233 234.252 30.6359C234.252 29.0486 232.966 27.7617 231.378 27.7617C229.791 27.7617 228.504 29.0486 228.504 30.6359C228.504 32.2233 229.791 33.5102 231.378 33.5102Z" fill="black"/>
<path fill-rule="evenodd" clip-rule="evenodd" d="M214.372 22.6824C215.271 22.6824 215.999 21.9542 215.999 21.0559C215.999 20.1576 215.271 19.4294 214.372 19.4294C213.474 19.4294 212.746 20.1576 212.746 21.0559C212.746 21.9542 213.474 22.6824 214.372 22.6824ZM214.372 23.9301C215.96 23.9301 217.246 22.6433 217.246 21.0559C217.246 19.4685 215.96 18.1816 214.372 18.1816C212.785 18.1816 211.498 19.4685 211.498 21.0559C211.498 22.6433 212.785 23.9301 214.372 23.9301Z" fill="black"/>
<path fill-rule="evenodd" clip-rule="evenodd" d="M214.372 42.0828C215.271 42.0828 215.999 41.3545 215.999 40.4563C215.999 39.558 215.271 38.8298 214.372 38.8298C213.474 38.8298 212.746 39.558 212.746 40.4563C212.746 41.3545 213.474 42.0828 214.372 42.0828ZM214.372 43.3305C215.96 43.3305 217.246 42.0436 217.246 40.4563C217.246 38.8689 215.96 37.582 214.372 37.582C212.785 37.582 211.498 38.8689 211.498 40.4563C211.498 42.0436 212.785 43.3305 214.372 43.3305Z" fill="black"/>
<path fill-rule="evenodd" clip-rule="evenodd" d="M248.628 22.6824C249.526 22.6824 250.255 21.9542 250.255 21.0559C250.255 20.1576 249.526 19.4294 248.628 19.4294C247.73 19.4294 247.002 20.1576 247.002 21.0559C247.002 21.9542 247.73 22.6824 248.628 22.6824ZM248.628 23.9301C250.216 23.9301 251.502 22.6433 251.502 21.0559C251.502 19.4685 250.216 18.1816 248.628 18.1816C247.041 18.1816 245.754 19.4685 245.754 21.0559C245.754 22.6433 247.041 23.9301 248.628 23.9301Z" fill="black"/>
<path fill-rule="evenodd" clip-rule="evenodd" d="M248.628 42.0828C249.526 42.0828 250.255 41.3545 250.255 40.4563C250.255 39.558 249.526 38.8298 248.628 38.8298C247.73 38.8298 247.002 39.558 247.002 40.4563C247.002 41.3545 247.73 42.0828 248.628 42.0828ZM248.628 43.3305C250.216 43.3305 251.502 42.0436 251.502 40.4563C251.502 38.8689 250.216 37.582 248.628 37.582C247.041 37.582 245.754 38.8689 245.754 40.4563C245.754 42.0436 247.041 43.3305 248.628 43.3305Z" fill="black"/>
<path fill-rule="evenodd" clip-rule="evenodd" d="M231.378 14.7776C232.276 14.7776 233.005 14.0494 233.005 13.1511C233.005 12.2528 232.276 11.5246 231.378 11.5246C230.48 11.5246 229.752 12.2528 229.752 13.1511C229.752 14.0494 230.48 14.7776 231.378 14.7776ZM231.378 16.0253C232.966 16.0253 234.252 14.7385 234.252 13.1511C234.252 11.5637 232.966 10.2769 231.378 10.2769C229.791 10.2769 228.504 11.5637 228.504 13.1511C228.504 14.7385 229.791 16.0253 231.378 16.0253Z" fill="black"/>
<path fill-rule="evenodd" clip-rule="evenodd" d="M231.378 49.2683C232.276 49.2683 233.005 48.5401 233.005 47.6418C233.005 46.7435 232.276 46.0153 231.378 46.0153C230.48 46.0153 229.752 46.7435 229.752 47.6418C229.752 48.5401 230.48 49.2683 231.378 49.2683ZM231.378 50.516C232.966 50.516 234.252 49.2292 234.252 47.6418C234.252 46.0544 232.966 44.7676 231.378 44.7676C229.791 44.7676 228.504 46.0544 228.504 47.6418C228.504 49.2292 229.791 50.516 231.378 50.516Z" fill="black"/>
<path fill-rule="evenodd" clip-rule="evenodd" d="M36.548 69.5757H45.3428L45.7405 78.9216L44.2762 78.9839L43.9812 72.0503L30.4887 86.0685L23.6848 79.2646L15.7424 87.5523L14.6842 86.5382L23.6625 77.1696L30.4687 83.9758L42.9181 71.0413H36.548V69.5757ZM40.7811 82.634H52.3623V108.009H40.7811V82.634ZM42.2467 84.0996V106.544H50.8967V84.0996H42.2467ZM27.3549 89.623H38.7522V108.009H27.3549V89.623ZM28.8205 91.0886V106.544H37.2866V91.0886H28.8205ZM13.377 98.2672H23.4868V108.009H13.377V98.2672ZM14.8426 99.7329V106.544H22.0212V99.7329H14.8426Z" fill="black"/>
<path fill-rule="evenodd" clip-rule="evenodd" d="M148.328 68.6831V74.6256H154.556L146.927 82.2548H141.461V82.1893L134.086 89.5652C133.788 89.8631 133.305 89.8631 133.007 89.5652C132.709 89.2672 132.709 88.7842 133.007 88.4863L140.699 80.7944V76.3123L148.328 68.6831ZM142.224 80.729H146.295L150.873 76.1514H146.802V72.3667L142.224 76.9443V80.729Z" fill="black"/>
<path d="M140.647 87.3019C140.807 88.7064 140.525 90.126 139.838 91.3617C139.151 92.5973 138.095 93.587 136.817 94.1919C135.539 94.7968 134.104 94.9866 132.713 94.7348C131.322 94.4829 130.045 93.8019 129.06 92.7874C128.076 91.7728 127.434 90.4756 127.224 89.0776C127.014 87.6796 127.247 86.2509 127.89 84.992C128.533 83.7331 129.554 82.707 130.81 82.0577C132.065 81.4084 133.493 81.1684 134.892 81.3715L134.634 83.1484C133.606 82.9992 132.557 83.1756 131.634 83.6527C130.712 84.1298 129.961 84.8838 129.489 85.8088C129.016 86.7339 128.845 87.7837 128.999 88.8109C129.154 89.8382 129.626 90.7914 130.349 91.5369C131.072 92.2824 132.011 92.7828 133.033 92.9679C134.055 93.153 135.11 93.0135 136.049 92.569C136.987 92.1245 137.764 91.3973 138.268 90.4893C138.773 89.5814 138.981 88.5382 138.863 87.5062L140.647 87.3019Z" fill="black"/>
<path d="M144.96 86.7825C145.229 89.0871 144.77 91.4183 143.648 93.4491C142.525 95.4798 140.795 97.1083 138.7 98.1061C136.605 99.1039 134.251 99.421 131.967 99.0129C129.682 98.6048 127.583 97.492 125.963 95.8306C124.344 94.1691 123.285 92.0423 122.935 89.7485C122.585 87.4547 122.962 85.1088 124.012 83.04C125.063 80.9712 126.735 79.2831 128.794 78.2125C130.852 77.142 133.194 76.7426 135.491 77.0704L135.168 79.3358C133.344 79.0754 131.484 79.3926 129.849 80.2427C128.215 81.0929 126.887 82.4334 126.053 84.0762C125.218 85.7191 124.919 87.5819 125.197 89.4034C125.475 91.2249 126.316 92.9138 127.602 94.2332C128.888 95.5525 130.555 96.4362 132.369 96.7603C134.183 97.0844 136.053 96.8326 137.716 96.0402C139.38 95.2478 140.754 93.9547 141.645 92.342C142.536 90.7294 142.901 88.8782 142.687 87.0481L144.96 86.7825Z" fill="black"/>
<path d="M115.858 86.2627C116.28 82.0467 118.163 78.1112 121.182 75.1379C124.2 72.1645 128.164 70.3407 132.386 69.9823L132.552 71.9373C128.786 72.257 125.251 73.8837 122.559 76.5357C119.866 79.1877 118.187 82.6979 117.81 86.4582L115.858 86.2627Z" fill="black"/>
<path d="M132.827 106.192C128.808 105.949 124.985 104.377 121.958 101.723C118.93 99.0693 116.871 95.4847 116.104 91.5328L117.959 91.1725C118.646 94.713 120.491 97.9245 123.203 100.302C125.916 102.679 129.341 104.088 132.941 104.306L132.827 106.192Z" fill="black"/>
<path d="M152.068 88.3553C152.005 92.3805 150.606 96.2707 148.091 99.414C145.576 102.557 142.087 104.775 138.174 105.72L137.759 103.998C141.29 103.146 144.438 101.144 146.708 98.3074C148.978 95.4708 150.241 91.9602 150.297 88.3277L152.068 88.3553Z" fill="black"/>
<path fill-rule="evenodd" clip-rule="evenodd" d="M123.146 90.0732H113.133V88.5474H123.146V90.0732Z" fill="black"/>
<path fill-rule="evenodd" clip-rule="evenodd" d="M135.922 98.8466L135.922 109.718L134.396 109.718L134.396 98.8466L135.922 98.8466Z" fill="black"/>
<path fill-rule="evenodd" clip-rule="evenodd" d="M135.873 67.516L135.873 79.3413L134.348 79.3413L134.348 67.516L135.873 67.516Z" fill="black"/>
<path fill-rule="evenodd" clip-rule="evenodd" d="M154.847 88.3066H143.689V86.7808H154.847V88.3066Z" fill="black"/>
<path fill-rule="evenodd" clip-rule="evenodd" d="M245.502 74.5761C245.919 74.5618 246.268 74.8877 246.282 75.304L246.54 82.7838L240.959 88.1067C240.658 88.3943 240.18 88.383 239.893 88.0816C239.605 87.7801 239.617 87.3026 239.918 87.0151L244.486 82.6584L239.027 79.8593C238.657 79.6692 238.51 79.2146 238.7 78.8439C238.891 78.4732 239.345 78.3268 239.716 78.5169L244.976 81.2145L244.774 75.356C244.76 74.9397 245.086 74.5905 245.502 74.5761Z" fill="black"/>
<path fill-rule="evenodd" clip-rule="evenodd" d="M216.371 71.2925H256.625V100.382H237.252V104.784H250.863C251.28 104.784 251.617 105.122 251.617 105.538C251.617 105.955 251.28 106.292 250.863 106.292H222.051C221.634 106.292 221.296 105.955 221.296 105.538C221.296 105.122 221.634 104.784 222.051 104.784H235.744V100.382H216.371V71.2925ZM217.88 72.8011V94.6051H220.393V83.9338H225.268V94.6051H227.699V78.7624H232.819V94.6051H235.005V90.3366H240.289V94.6051H255.116V72.8011H217.88ZM255.116 96.1137H217.88V98.8736H255.116V96.1137ZM238.781 94.6051V91.8452H236.513V94.6051H238.781ZM231.311 94.6051V80.271H229.208V94.6051H231.311ZM223.759 94.6051V85.4425H221.902V94.6051H223.759Z" fill="black"/>
<path fill-rule="evenodd" clip-rule="evenodd" d="M245.771 88.9257C249.245 88.9257 252.061 86.1098 252.061 82.6361C252.061 79.1625 249.245 76.3465 245.771 76.3465C242.297 76.3465 239.481 79.1625 239.481 82.6361C239.481 86.1098 242.297 88.9257 245.771 88.9257ZM245.771 90.4344C250.078 90.4344 253.569 86.943 253.569 82.6361C253.569 78.3293 250.078 74.8379 245.771 74.8379C241.464 74.8379 237.973 78.3293 237.973 82.6361C237.973 86.943 241.464 90.4344 245.771 90.4344Z" fill="black"/>
<path fill-rule="evenodd" clip-rule="evenodd" d="M50.1774 129.834C49.7372 129.513 49.1865 129.446 48.8257 129.491C48.795 129.495 48.7641 129.497 48.7331 129.497H17.0781C17.0626 129.497 17.0471 129.496 17.0316 129.495C16.1144 129.438 15.6497 129.808 15.3744 130.26C15.0633 130.771 14.9709 131.446 14.9969 131.912C14.9976 131.926 14.998 131.94 14.998 131.954V156.072C14.998 156.089 14.9975 156.105 14.9964 156.122C14.9727 156.476 15.0496 157.011 15.324 157.43C15.5675 157.803 16.005 158.152 16.8896 158.152H35.5431C35.9553 158.152 36.2894 158.486 36.2894 158.898C36.2894 159.311 35.9553 159.645 35.5431 159.645H16.8896C15.5132 159.645 14.6003 159.052 14.0745 158.247C13.5869 157.5 13.4714 156.636 13.5055 156.049V131.974C13.4724 131.31 13.5903 130.32 14.0996 129.484C14.6472 128.584 15.6194 127.92 17.1004 128.004H48.6901C49.333 127.935 50.262 128.048 51.0573 128.628C51.9121 129.252 52.4941 130.329 52.4941 131.954V144.39C52.4941 144.802 52.16 145.136 51.7479 145.136C51.3358 145.136 51.0017 144.802 51.0017 144.39V131.954C51.0017 130.714 50.5788 130.127 50.1774 129.834ZM17.6504 137.418C17.6504 137.006 17.9845 136.672 18.3966 136.672H47.4138C47.8259 136.672 48.16 137.006 48.16 137.418C48.16 137.83 47.8259 138.165 47.4138 138.165H18.3966C17.9845 138.165 17.6504 137.83 17.6504 137.418ZM17.6504 144.39C17.6504 143.978 17.9845 143.644 18.3966 143.644H35.5431C35.9553 143.644 36.2894 143.978 36.2894 144.39C36.2894 144.802 35.9553 145.136 35.5431 145.136H18.3966C17.9845 145.136 17.6504 144.802 17.6504 144.39ZM17.6504 150.043C17.6504 149.63 17.9845 149.296 18.3966 149.296H29.702C30.1141 149.296 30.4482 149.63 30.4482 150.043C30.4482 150.455 30.1141 150.789 29.702 150.789H18.3966C17.9845 150.789 17.6504 150.455 17.6504 150.043ZM41.0074 158.152C41.4195 158.152 41.7536 158.486 41.7536 158.898V164.717L46.0781 162.033C46.3228 161.881 46.633 161.884 46.8752 162.039L51.0017 164.692V158.898C51.0017 158.486 51.3358 158.152 51.7479 158.152C52.16 158.152 52.4941 158.486 52.4941 158.898V166.059C52.4941 166.332 52.3451 166.583 52.1055 166.714C51.8659 166.844 51.574 166.834 51.3444 166.686L46.4647 163.55L41.4009 166.693C41.1708 166.835 40.8813 166.842 40.6446 166.711C40.4079 166.579 40.2612 166.329 40.2612 166.059V158.898C40.2612 158.486 40.5953 158.152 41.0074 158.152Z" fill="black"/>
<path fill-rule="evenodd" clip-rule="evenodd" d="M46.2844 156.464C48.8942 156.464 51.0099 154.349 51.0099 151.739C51.0099 149.129 48.8942 147.013 46.2844 147.013C43.6745 147.013 41.5589 149.129 41.5589 151.739C41.5589 154.349 43.6745 156.464 46.2844 156.464ZM46.2844 157.957C49.7185 157.957 52.5023 155.173 52.5023 151.739C52.5023 148.305 49.7185 145.521 46.2844 145.521C42.8503 145.521 40.0664 148.305 40.0664 151.739C40.0664 155.173 42.8503 157.957 46.2844 157.957Z" fill="black"/>
<path d="M36.2964 150.043C36.2964 150.459 35.959 150.796 35.5428 150.796C35.1265 150.796 34.7891 150.459 34.7891 150.043C34.7891 149.627 35.1265 149.289 35.5428 149.289C35.959 149.289 36.2964 149.627 36.2964 150.043Z" fill="black"/>
<path fill-rule="evenodd" clip-rule="evenodd" d="M139.334 129.737H129.367V139.704H139.334V129.737ZM127.648 128.019V141.422H141.052V128.019H127.648Z" fill="black"/>
<path fill-rule="evenodd" clip-rule="evenodd" d="M139.334 155.088H129.367V165.054H139.334V155.088ZM127.648 153.369V166.773H141.052V153.369H127.648Z" fill="black"/>
<path fill-rule="evenodd" clip-rule="evenodd" d="M154.783 155.088H144.816V165.054H154.783V155.088ZM143.098 153.369V166.773H156.502V153.369H143.098Z" fill="black"/>
<path fill-rule="evenodd" clip-rule="evenodd" d="M124.187 155.088H114.221V165.054H124.187V155.088ZM112.502 153.369V166.773H125.906V153.369H112.502Z" fill="black"/>
<path fill-rule="evenodd" clip-rule="evenodd" d="M133.498 146.683V143.463H135.216V146.683H148.928L149.067 146.732C149.652 146.938 150.398 147.437 150.916 148.28C151.449 149.149 151.704 150.329 151.367 151.812L149.691 151.431C149.937 150.351 149.731 149.636 149.451 149.179C149.198 148.767 148.856 148.519 148.612 148.402H135.216V151.622H133.498V148.402H120.833C120.463 148.597 119.593 149.363 120.044 151.439L118.365 151.804C117.699 148.742 119.2 147.124 120.39 146.727L120.522 146.683H133.498Z" fill="black"/>
<path fill-rule="evenodd" clip-rule="evenodd" d="M221.492 127.068H251.017V132.521L256.5 138.822V144.519L256.429 144.652L255.894 144.368C256.429 144.652 256.429 144.652 256.429 144.652L256.429 144.652L256.427 144.655L256.423 144.663C256.42 144.669 256.415 144.678 256.409 144.689C256.397 144.711 256.38 144.742 256.358 144.781C256.313 144.86 256.249 144.971 256.166 145.105C256.002 145.373 255.764 145.736 255.471 146.116C254.994 146.736 254.298 147.499 253.472 147.892V167.723H226.026V166.511H239.413V150.963H250.035V166.511H252.26V148.168C251.823 148.171 251.388 148.084 250.983 147.954C250.334 147.747 249.707 147.413 249.17 147.073C248.631 146.731 248.164 146.371 247.833 146.097C247.804 146.074 247.777 146.051 247.75 146.029C247.544 146.236 247.27 146.496 246.952 146.76C246.269 147.326 245.258 148.018 244.23 148.082C243.611 148.121 243.005 147.934 242.473 147.677C241.937 147.418 241.435 147.068 241.011 146.726C240.636 146.423 240.311 146.119 240.066 145.874C239.905 146.07 239.705 146.298 239.478 146.532C238.886 147.141 237.991 147.907 237.012 148.075C236.295 148.198 235.597 147.994 234.995 147.688C234.389 147.379 233.828 146.94 233.358 146.508C232.934 146.118 232.569 145.721 232.296 145.402C232.103 145.679 231.854 146.008 231.565 146.338C231.203 146.751 230.762 147.184 230.268 147.513C229.778 147.841 229.19 148.098 228.549 148.083C227.925 148.069 227.359 147.801 226.89 147.469C226.416 147.135 225.996 146.706 225.652 146.298C225.416 146.018 225.21 145.74 225.04 145.496C224.834 145.792 224.573 146.14 224.271 146.491C223.879 146.944 223.403 147.416 222.871 147.778C222.343 148.137 221.713 148.418 221.028 148.411C220.728 148.408 220.44 148.35 220.167 148.255V166.511H223.898V167.723H218.955V147.564C218.29 147.039 217.725 146.359 217.322 145.808C217.092 145.492 216.907 145.209 216.779 145.003C216.715 144.901 216.665 144.817 216.631 144.758C216.614 144.729 216.601 144.705 216.591 144.689L216.58 144.67L216.577 144.664L216.576 144.662L216.576 144.662C216.576 144.662 216.576 144.661 217.106 144.368L216.576 144.661L216.5 144.524V138.838L221.492 132.537V127.068ZM222.391 133.354L218.359 138.443H224.976L227.223 133.354H222.391ZM228.548 133.354L226.301 138.443H232.196L232.791 133.354H228.548ZM234.012 133.354L233.417 138.443H239.355L238.892 133.354H234.012ZM240.11 133.354L240.572 138.443H246.993L244.547 133.354H240.11ZM245.892 133.354L248.338 138.443H254.563L250.135 133.354H245.892ZM249.805 132.142V128.28H222.704V132.142H249.805ZM255.288 139.655H248.317V144.918C248.393 144.985 248.49 145.068 248.605 145.163C248.909 145.414 249.334 145.742 249.819 146.049C250.307 146.358 250.836 146.635 251.352 146.8C251.872 146.966 252.327 147.002 252.698 146.895C253.309 146.719 253.964 146.087 254.511 145.377C254.771 145.039 254.985 144.712 255.134 144.47C255.198 144.365 255.25 144.276 255.288 144.211V139.655ZM247.105 144.952V139.655H240.625V144.708C240.681 144.769 240.752 144.844 240.836 144.93C241.067 145.165 241.393 145.476 241.772 145.782C242.153 146.09 242.576 146.381 243.001 146.586C243.43 146.794 243.821 146.894 244.154 146.873C244.763 146.834 245.511 146.38 246.178 145.827C246.495 145.564 246.766 145.302 246.958 145.106C247.014 145.048 247.063 144.997 247.105 144.952ZM239.413 144.744V139.655H232.851V144.165C232.919 144.253 233.015 144.374 233.135 144.516C233.392 144.824 233.755 145.226 234.178 145.615C234.604 146.007 235.074 146.368 235.545 146.608C236.02 146.849 236.444 146.942 236.807 146.88C237.372 146.783 238.032 146.281 238.609 145.687C238.882 145.406 239.112 145.131 239.274 144.925C239.329 144.855 239.375 144.794 239.413 144.744ZM231.639 144.2V139.655H225.65V144.206C225.696 144.283 225.761 144.39 225.844 144.519C226.022 144.793 226.275 145.156 226.579 145.517C226.885 145.881 227.23 146.226 227.589 146.479C227.951 146.735 228.283 146.865 228.576 146.872C228.876 146.878 229.218 146.757 229.595 146.506C229.968 146.256 230.33 145.908 230.653 145.539C230.974 145.173 231.242 144.802 231.431 144.522C231.52 144.39 231.59 144.279 231.639 144.2ZM224.438 144.202V139.655H217.712V144.205C217.738 144.249 217.77 144.302 217.809 144.363C217.924 144.549 218.092 144.806 218.301 145.093C218.726 145.675 219.293 146.334 219.907 146.762C220.316 147.047 220.698 147.195 221.04 147.199C221.386 147.202 221.773 147.059 222.19 146.775C222.603 146.495 223.001 146.107 223.354 145.698C223.704 145.292 223.997 144.883 224.202 144.573C224.304 144.419 224.384 144.291 224.438 144.202ZM248.823 166.511V155.694H240.625V166.511H248.823ZM240.625 154.482H248.823V152.175H240.625V154.482ZM247.711 130.817H224.798V129.605H247.711V130.817ZM232.736 144.013C232.736 144.013 232.736 144.013 232.736 144.013V144.013ZM222.719 150.963H237.515V160.44H222.719V150.963ZM223.931 152.175V159.228H236.303V152.175H223.931Z" fill="black"/>
</svg>
