<svg width="245" height="287" viewBox="0 0 245 287" fill="none" xmlns="http://www.w3.org/2000/svg">
<rect y="1.5" width="115" height="34" rx="10" fill="#F2F2F2"/>
<rect x="126" width="73" height="37" rx="10" fill="#F2F2F2"/>
<rect y="50" width="73" height="37" rx="10" fill="#F2F2F2"/>
<rect x="84" y="50" width="80" height="37" rx="10" fill="#F2F2F2"/>
<rect x="175" y="50" width="64" height="37" rx="10" fill="#F2F2F2"/>
<rect y="100" width="79" height="37" rx="10" fill="#F2F2F2"/>
<rect x="90" y="100" width="71" height="37" rx="10" fill="#F2F2F2"/>
<rect y="150" width="87" height="37" rx="10" fill="#F2F2F2"/>
<rect x="98" y="150" width="73" height="37" rx="10" fill="#F2F2F2"/>
<rect y="200" width="91" height="37" rx="10" fill="#F2F2F2"/>
<rect x="102" y="200" width="69" height="37" rx="10" fill="#F2F2F2"/>
<rect y="250" width="79" height="37" rx="10" fill="#F2F2F2"/>
<rect x="90" y="250" width="92" height="37" rx="10" fill="#F2F2F2"/>
</svg>
