<svg width="245" height="346" viewBox="0 0 245 346" fill="none" xmlns="http://www.w3.org/2000/svg">
<rect y="59" width="73" height="37" rx="10" fill="#F2F2F2"/>
<rect x="84" y="59" width="73" height="37" rx="10" fill="#F2F2F2"/>
<rect y="109" width="80" height="37" rx="10" fill="#F2F2F2"/>
<rect x="91" y="109" width="64" height="37" rx="10" fill="#F2F2F2"/>
<rect x="166" y="109" width="79" height="37" rx="10" fill="#F2F2F2"/>
<rect y="159" width="71" height="37" rx="10" fill="#F2F2F2"/>
<rect x="82" y="159" width="87" height="37" rx="10" fill="#F2F2F2"/>
<rect y="209" width="73" height="37" rx="10" fill="#F2F2F2"/>
<rect x="84" y="209" width="91" height="37" rx="10" fill="#F2F2F2"/>
<rect y="259" width="69" height="37" rx="10" fill="#F2F2F2"/>
<rect x="80" y="259" width="79" height="37" rx="10" fill="#F2F2F2"/>
<rect y="309" width="92" height="37" rx="10" fill="#F2F2F2"/>
<rect x="35" width="115" height="34" rx="10" fill="#F2F2F2"/>
</svg>
