<svg width="1116" height="984" viewBox="0 0 1116 984" fill="none" xmlns="http://www.w3.org/2000/svg">
<rect x="0.5" y="0.5" width="355" height="311" rx="9.5" stroke="#F2F2F2"/>
<rect x="380.5" y="0.5" width="355" height="311" rx="9.5" stroke="#F2F2F2"/>
<rect x="760.5" y="0.5" width="355" height="311" rx="9.5" stroke="#F2F2F2"/>
<rect x="0.5" y="336.5" width="355" height="311" rx="9.5" stroke="#F2F2F2"/>
<rect x="380.5" y="336.5" width="355" height="311" rx="9.5" stroke="#F2F2F2"/>
<rect x="760.5" y="336.5" width="355" height="311" rx="9.5" stroke="#F2F2F2"/>
<rect x="0.5" y="672.5" width="355" height="311" rx="9.5" stroke="#F2F2F2"/>
<rect x="380.5" y="672.5" width="355" height="311" rx="9.5" stroke="#F2F2F2"/>
<rect x="760.5" y="672.5" width="355" height="311" rx="9.5" stroke="#F2F2F2"/>
<rect x="46" y="42" width="265" height="177" rx="10" fill="#F2F2F2"/>
<rect x="426" y="42" width="265" height="177" rx="10" fill="#F2F2F2"/>
<rect x="806" y="42" width="265" height="177" rx="10" fill="#F2F2F2"/>
<rect x="246" y="256" width="71" height="21" rx="10" fill="#F2F2F2"/>
<rect x="621" y="256" width="75" height="21" rx="10" fill="#F2F2F2"/>
<rect x="417" y="256" width="62" height="21" rx="10" fill="#F2F2F2"/>
<rect x="797" y="256" width="82" height="21" rx="10" fill="#F2F2F2"/>
<rect x="1004" y="256" width="73" height="21" rx="10" fill="#F2F2F2"/>
<rect x="41" y="256" width="81" height="21" rx="10" fill="#F2F2F2"/>
<rect x="46" y="378" width="265" height="177" rx="10" fill="#F2F2F2"/>
<rect x="46" y="714" width="265" height="177" rx="10" fill="#F2F2F2"/>
<rect x="806" y="378" width="265" height="177" rx="10" fill="#F2F2F2"/>
<rect x="806" y="714" width="265" height="177" rx="10" fill="#F2F2F2"/>
<rect x="426" y="378" width="265" height="177" rx="10" fill="#F2F2F2"/>
<rect x="426" y="714" width="265" height="177" rx="10" fill="#F2F2F2"/>
<rect x="246" y="592" width="71" height="21" rx="10" fill="#F2F2F2"/>
<rect x="246" y="928" width="71" height="21" rx="10" fill="#F2F2F2"/>
<rect x="1006" y="592" width="71" height="21" rx="10" fill="#F2F2F2"/>
<rect x="1006" y="928" width="71" height="21" rx="10" fill="#F2F2F2"/>
<rect x="626" y="592" width="71" height="21" rx="10" fill="#F2F2F2"/>
<rect x="626" y="928" width="71" height="21" rx="10" fill="#F2F2F2"/>
<rect x="41" y="592" width="61" height="21" rx="10" fill="#F2F2F2"/>
<rect x="41" y="928" width="52" height="21" rx="10" fill="#F2F2F2"/>
<rect x="801" y="592" width="61" height="21" rx="10" fill="#F2F2F2"/>
<rect x="801" y="928" width="53" height="21" rx="10" fill="#F2F2F2"/>
<rect x="421" y="592" width="52" height="21" rx="10" fill="#F2F2F2"/>
<rect x="421" y="928" width="77" height="21" rx="10" fill="#F2F2F2"/>
</svg>
