<svg width="32" height="32" viewBox="0 0 32 32" fill="none" xmlns="http://www.w3.org/2000/svg">
<g clip-path="url(#clip0_2667_837)">
<path d="M12.6667 12H6C4.89733 12 4 11.1027 4 10V6C4 4.89733 4.89733 4 6 4H12.6667C13.7693 4 14.6667 4.89733 14.6667 6V10C14.6667 11.1027 13.7693 12 12.6667 12ZM6 5.33333C5.63333 5.33333 5.33333 5.632 5.33333 6V10C5.33333 10.368 5.63333 10.6667 6 10.6667H12.6667C13.0333 10.6667 13.3333 10.368 13.3333 10V6C13.3333 5.632 13.0333 5.33333 12.6667 5.33333H6Z" fill="#110638"/>
<path d="M25.9987 28H19.332C18.2294 28 17.332 27.1027 17.332 26V22C17.332 20.8973 18.2294 20 19.332 20H25.9987C27.1014 20 27.9987 20.8973 27.9987 22V26C27.9987 27.1027 27.1014 28 25.9987 28ZM19.332 21.3333C18.9654 21.3333 18.6654 21.632 18.6654 22V26C18.6654 26.368 18.9654 26.6667 19.332 26.6667H25.9987C26.3654 26.6667 26.6654 26.368 26.6654 26V22C26.6654 21.632 26.3654 21.3333 25.9987 21.3333H19.332Z" fill="#110638"/>
<path d="M25.9987 17.3333H19.332C18.2294 17.3333 17.332 16.436 17.332 15.3333V6C17.332 4.89733 18.2294 4 19.332 4H25.9987C27.1014 4 27.9987 4.89733 27.9987 6V15.3333C27.9987 16.436 27.1014 17.3333 25.9987 17.3333ZM19.332 5.33333C18.9654 5.33333 18.6654 5.632 18.6654 6V15.3333C18.6654 15.7013 18.9654 16 19.332 16H25.9987C26.3654 16 26.6654 15.7013 26.6654 15.3333V6C26.6654 5.632 26.3654 5.33333 25.9987 5.33333H19.332Z" fill="#110638"/>
<path d="M12.6667 28.0003H6C4.89733 28.0003 4 27.103 4 26.0003V16.667C4 15.5643 4.89733 14.667 6 14.667H12.6667C13.7693 14.667 14.6667 15.5643 14.6667 16.667V26.0003C14.6667 27.103 13.7693 28.0003 12.6667 28.0003Z" fill="#6766DB"/>
<path d="M28.6667 32H3.33333C1.49467 32 0 30.504 0 28.6667V3.33333C0 1.496 1.49467 0 3.33333 0H28.6667C30.5053 0 32 1.496 32 3.33333V28.6667C32 30.504 30.5053 32 28.6667 32ZM3.33333 1.33333C2.23067 1.33333 1.33333 2.23067 1.33333 3.33333V28.6667C1.33333 29.7693 2.23067 30.6667 3.33333 30.6667H28.6667C29.7693 30.6667 30.6667 29.7693 30.6667 28.6667V3.33333C30.6667 2.23067 29.7693 1.33333 28.6667 1.33333H3.33333Z" fill="#110638"/>
</g>
<defs>
<clipPath id="clip0_2667_837">
<rect width="32" height="32" fill="white"/>
</clipPath>
</defs>
</svg>
