<svg width="260" height="178" viewBox="0 0 260 178" fill="none" xmlns="http://www.w3.org/2000/svg">
<path fill-rule="evenodd" clip-rule="evenodd" d="M212.562 138.314C214.201 139.151 217.129 139.612 220.483 138.856C220.45 139.965 220.451 141.128 220.499 142.328C219.912 142.503 219.342 142.691 218.79 142.89C214.328 144.497 210.995 146.835 209.003 149.027C209.001 148.922 209 148.816 209 148.71C209 144.792 210.33 141.184 212.562 138.314ZM213.945 136.745C215.919 134.765 218.38 133.27 221.134 132.456C220.905 133.682 220.712 135.146 220.591 136.777C217.78 137.526 215.341 137.267 213.945 136.745ZM223.251 131.976L223.265 131.979C223.021 133.077 222.801 134.468 222.652 136.062C224.548 135.245 226.534 133.938 228.43 131.943C227.619 131.824 226.79 131.763 225.947 131.763C225.029 131.763 224.129 131.836 223.251 131.976ZM230.675 132.431C228.065 135.469 225.206 137.282 222.501 138.264C222.451 139.384 222.438 140.572 222.476 141.803C227.688 140.586 234.103 140.368 241.564 142.119C239.594 137.456 235.596 133.858 230.675 132.431ZM242.32 144.321L242.311 144.358C234.449 142.311 227.817 142.544 222.581 143.828C222.677 145.128 222.832 146.462 223.059 147.804C223.103 148.065 223.15 148.327 223.199 148.588C227.972 147.108 234.275 148.074 242.216 153.47C242.657 151.96 242.894 150.362 242.894 148.71C242.894 147.192 242.694 145.721 242.32 144.321ZM241.518 155.41C233.588 149.898 227.744 149.205 223.625 150.546C224.945 155.9 227.531 161.034 232.143 164.488C236.349 162.835 239.734 159.549 241.518 155.41ZM229.85 165.205C225.537 161.512 223.079 156.458 221.769 151.34C217.692 153.535 215.428 157.965 214.774 161.452C217.757 164.069 221.666 165.656 225.947 165.656C227.29 165.656 228.597 165.5 229.85 165.205ZM213.116 159.781C214.136 156.064 216.672 151.709 221.064 149.459C221.146 149.416 221.23 149.375 221.314 149.334C221.234 148.934 221.16 148.534 221.093 148.136C220.879 146.869 220.726 145.609 220.624 144.375C220.228 144.499 219.842 144.63 219.466 144.765C213.944 146.754 210.514 149.837 209.306 151.932C209.877 154.896 211.219 157.584 213.116 159.781Z" fill="#ED892D"/>
<g filter="url(#filter0_i_652_2)">
<path d="M35.5469 138.301C36.9849 134.488 42.2887 127.646 52.0001 130.776C50.9634 134.856 46.2214 142.073 35.5469 138.301Z" fill="#9CDF00"/>
</g>
<g filter="url(#filter1_i_652_2)">
<path d="M23.0776 154.352C18.583 140.788 29.2308 138.133 35.1165 138.5H38.5277C44.5137 137.631 55.4424 139.584 51.2689 154.352C47.0954 169.119 40.2591 167.4 37.2235 165.688C34.3809 167.561 27.5721 167.916 23.0776 154.352Z" fill="#F75749"/>
</g>
<g filter="url(#filter2_d_652_2)">
<path d="M35.3341 141.712C36.1367 137.618 33.4614 135.324 32.0234 134.689C33.9296 132.85 37.9626 131.679 38.8455 141.712H35.3341Z" fill="#507511"/>
</g>
<g filter="url(#filter3_i_652_2)">
<ellipse cx="221.299" cy="87.9868" rx="16.2992" ry="16.0229" fill="#FBC302"/>
</g>
<g filter="url(#filter4_i_652_2)">
<path d="M221.852 73.6216C220.011 73.9899 216.382 73.2901 216.603 67.5439C218.906 67.7281 223.179 69.2015 221.852 73.6216Z" fill="#87C607"/>
</g>
<g filter="url(#filter5_i_652_2)">
<path d="M222.637 72.611C223.595 70.9958 226.543 68.7677 230.665 72.7767C228.988 74.3646 225.034 76.5545 222.637 72.611Z" fill="#87C607"/>
</g>
<path d="M220.756 79.4724C220.783 79.7763 221.052 80.0002 221.356 79.9726C221.66 79.945 221.884 79.6762 221.856 79.3724L220.756 79.4724ZM231.83 67.2677C229.806 67.1713 226.822 67.6576 224.439 69.4651C222.019 71.3012 220.299 74.4424 220.756 79.4724L221.856 79.3724C221.43 74.6781 223.024 71.9258 225.107 70.3455C227.228 68.7367 229.934 68.2836 231.778 68.3715L231.83 67.2677Z" fill="#4C8801"/>
<g filter="url(#filter6_i_652_2)">
<path d="M246.762 87.9863H217.202C216.318 101.026 226.595 103.917 231.844 103.733C244.22 103.291 246.946 93.051 246.762 87.9863Z" fill="#FCF38A"/>
<path d="M231.296 100.971C221.351 101.413 219.233 92.6828 219.417 88.2627H243.451C241.683 99.313 234.611 101.339 231.296 100.971Z" fill="#FABA01"/>
<path d="M221.344 96.2742C221.565 96.2742 227.513 90.9332 230.46 88.2627M231.565 88.2627V101.247M232.947 88.2627L240.682 96.2742" stroke="#FCF38A" stroke-width="1.10503"/>
</g>
<path d="M139.656 64.0136C139.256 67.0788 135.935 71.3433 134.325 73.0924C132.743 72.2595 129.444 69.2777 128.911 64.0136C127.301 64.0691 123.897 65.1297 123.164 68.9278C123.164 72.8426 123.581 81.6715 121.831 87.2521C121.72 88.5848 122.181 90.8503 124.913 89.2511L118 105.077C119.36 104.716 122.514 104.21 124.247 105.077V107.326C125.968 106.659 129.977 105.726 132.243 107.326C133.409 106.687 136.541 105.793 139.739 107.326C140.766 106.631 143.304 105.493 145.236 106.493C145.986 105.549 148.102 103.944 150.567 105.077L143.737 89.2511C146.469 90.8503 147.208 88.5848 147.236 87.2521C144.57 82.7876 145.014 73.1757 145.57 68.9278C145.303 64.4634 141.516 63.7915 139.656 64.0136Z" fill="#FF7DAC"/>
<path d="M124.913 89.2511C122.181 90.8503 121.72 88.5848 121.831 87.2521C123.581 81.6715 123.164 72.8426 123.164 68.9278C123.897 65.1297 127.301 64.0691 128.911 64.0136C129.444 69.2777 132.743 72.2595 134.325 73.0924C135.935 71.3433 139.256 67.0788 139.656 64.0136C141.516 63.7915 145.303 64.4634 145.57 68.9278C145.014 73.1757 144.57 82.7876 147.236 87.2521C147.208 88.5848 146.469 90.8503 143.737 89.2511M124.913 89.2511L126.996 84.087V77.7568C125.802 76.5075 124.13 73.2258 126.996 70.094M124.913 89.2511L118 105.077C119.36 104.716 122.514 104.21 124.247 105.077V107.326C125.968 106.659 129.977 105.726 132.243 107.326C133.409 106.687 136.541 105.793 139.739 107.326C140.766 106.631 143.304 105.493 145.236 106.493C145.986 105.549 148.102 103.944 150.567 105.077L143.737 89.2511M143.737 89.2511L141.155 84.087V77.7568C142.405 76.4797 144.154 73.1591 141.155 70.094M128.911 86.086L124.913 103.744M132.243 86.086L130.494 103.744M135.908 86.086L137.574 103.744M139.656 86.086L143.737 103.744" stroke="black" stroke-width="0.381623"/>
<path d="M139.404 64.5137H128.992C129.592 69.7777 132.796 72.4264 134.323 73.0928C137.455 69.961 139.015 66.0685 139.404 64.5137Z" fill="#FC5E8F" stroke="black" stroke-width="0.381623"/>
<path d="M28.1562 77.5093C28.5174 74.4847 30.9461 68.4355 37.7717 68.4355C40.0288 68.4355 45.0307 70.2503 46.9808 77.5093" stroke="#C69312" stroke-width="1.35429"/>
<path d="M19.0768 77.5088H56.0488C56.9517 78.1408 58.2157 79.8652 56.0488 81.7071H54.5594L53.1249 87.6659L51.2991 95.25L49.2777 103.647H43.1157H31.672H25.4422L23.4208 95.25L21.5951 87.6659L20.1605 81.7071H19.0768C18.2642 81.1202 17.1266 79.459 19.0768 77.5088Z" fill="#F4C80F"/>
<path d="M20.1605 81.7071H19.0768C18.2642 81.1202 17.1266 79.459 19.0768 77.5088H56.0488C56.9517 78.1408 58.2157 79.8652 56.0488 81.7071H54.5594M20.1605 81.7071H31.672M20.1605 81.7071L21.5951 87.6659M54.5594 81.7071H43.1157M54.5594 81.7071L53.1249 87.6659M31.672 81.7071V103.647M31.672 81.7071H43.1157M31.672 103.647H25.4422L23.4208 95.25M31.672 103.647H43.1157M43.1157 81.7071V103.647M43.1157 103.647H49.2777L51.2991 95.25M21.5951 87.6659H53.1249M21.5951 87.6659L23.4208 95.25M53.1249 87.6659L51.2991 95.25M51.2991 95.25H23.4208" stroke="#C69312" stroke-width="1.35429"/>
<g filter="url(#filter7_i_652_2)">
<path d="M240.584 11.2531C229.264 9.80928 207.353 13.852 210.264 41.5736C222.045 42.7286 244.603 38.2816 240.584 11.2531Z" fill="#B5633A"/>
</g>
<g filter="url(#filter8_i_652_2)">
<path d="M219.795 41.2276L210.266 31.8716L210.959 28.7529L222.914 40.7079L219.795 41.2276Z" fill="#F3D19F"/>
</g>
<g filter="url(#filter9_i_652_2)">
<path d="M240.245 24.5935L228.117 11.9456L231.063 11.4258L240.765 21.6481L240.245 24.5935Z" fill="#F3D19F"/>
</g>
<path d="M218.406 33.0836L232.44 19.5693M218.406 29.6184L222.045 33.0836M221.352 27.1928L224.47 30.1382M223.777 24.5939L226.896 27.8858M226.376 22.1682L229.495 25.2869M229.495 19.5693L232.44 22.8613" stroke="#F3D19F" stroke-width="1.38608"/>
<path d="M113 25.3951C113.351 29.435 115.732 32.7382 116.879 33.8848L126.906 34.4703C128.252 31.0159 129.687 27.3711 130.126 25.9806C131.238 23.2873 129.418 19.9304 129.101 18.8814C127.403 19.4084 126.54 20.8087 126.32 21.443C126.964 16.5833 126.052 13.9535 125.515 13.246C123.876 14.1243 123.417 15.466 123.393 16.0271C123.393 13.7437 122.075 11.4163 121.417 10.5381C120.011 12.0604 119.66 14.295 119.66 15.2221C119.601 13.407 118.904 12.6117 118.562 12.441C115.81 14.256 116.049 18.7107 116.513 20.7111C115.635 19.3645 114.439 18.2471 113.951 17.8568C113.015 22.0724 114.976 25.8098 116.074 27.1516C114.61 25.8049 113.415 25.4195 113 25.3951Z" fill="#A2B84B" stroke="black" stroke-width="0.585497"/>
<path d="M134.007 22.9811C133.246 22.1029 132.324 22.3224 131.958 22.542C129.03 21.9565 128.64 24.7376 128.811 26.2014C126.996 26.8454 127.469 28.8117 127.933 29.7144C124.712 30.5926 125.274 33.6421 125.957 35.057H148.864L149.45 33.886C150.211 31.7782 148.693 30.9586 147.84 30.8122C149.596 27.6505 147.693 25.4939 146.522 24.8108C146.229 23.2885 145.18 23.2983 144.693 23.4935C144.107 22.2054 142.692 22.6152 142.058 22.9811C141.121 21.3417 139.179 22.0053 138.325 22.542C135.983 20.3171 134.471 21.9077 134.007 22.9811Z" fill="#C4D166" stroke="black" stroke-width="0.585497"/>
<path d="M150.474 33.8125H113.734L116.881 43.6196H147.62L150.474 33.8125Z" fill="#93999D" stroke="black" stroke-width="0.585497"/>
<path d="M128.083 21.0039C127.614 21.9407 127.888 23.1995 128.083 23.7118C127.029 23.7118 126.375 24.3461 126.18 24.6633C126.414 25.7757 127.546 26.005 128.083 25.9806C127.732 27.0345 128.229 27.8835 128.522 28.1762C129.693 27.942 130.181 27.1516 130.278 26.7857C131.156 27.137 132.401 26.9321 132.913 26.7857C133.089 25.9074 132.254 25.0048 131.815 24.6633C132.635 23.9021 132.742 23.1751 132.693 22.9068C131.698 22.3798 130.668 22.6872 130.278 22.9068C129.81 21.8529 128.619 21.1991 128.083 21.0039Z" fill="#F8ADDF" stroke="black" stroke-width="0.585497"/>
<path d="M133.413 27.1193C133.423 28.1666 134.239 29.1628 134.647 29.5299C133.708 30.01 133.415 30.8726 133.386 31.2439C134.101 32.1274 135.213 31.8158 135.68 31.5496C135.848 32.6477 136.677 33.1768 137.071 33.3041C138.007 32.5621 138.081 31.6362 138.001 31.266C138.943 31.1786 139.957 30.4293 140.347 30.0656C140.103 29.2038 138.949 28.7804 138.402 28.6764C138.785 27.6254 138.55 26.9294 138.384 26.7127C137.258 26.6971 136.482 27.4397 136.234 27.813C135.337 27.0883 133.979 27.0486 133.413 27.1193Z" fill="#F8ADDF" stroke="black" stroke-width="0.585497"/>
<path d="M142.539 20.8766C141.941 21.7362 142.03 23.0212 142.149 23.5563C141.107 23.4045 140.368 23.938 140.129 24.2237C140.201 25.3583 141.288 25.7483 141.823 25.8015C141.323 26.7938 141.693 27.7056 141.941 28.0374C143.133 27.9743 143.73 27.2624 143.879 26.9143C144.698 27.3884 145.959 27.3648 146.487 27.2937C146.787 26.45 146.091 25.4366 145.706 25.0353C146.627 24.4002 146.838 23.6962 146.828 23.4236C145.919 22.7588 144.856 22.9148 144.438 23.0758C144.126 21.9655 143.042 21.147 142.539 20.8766Z" fill="#F8ADDF" stroke="black" stroke-width="0.585497"/>
<circle cx="129.68" cy="24.8099" r="0.51231" stroke="black" stroke-width="0.585497"/>
<circle cx="136.576" cy="29.7727" r="0.51231" transform="rotate(-27.1028 136.576 29.7727)" stroke="black" stroke-width="0.585497"/>
<circle cx="143.579" cy="24.8726" r="0.51231" transform="rotate(8.28036 143.579 24.8726)" stroke="black" stroke-width="0.585497"/>
<path d="M137.445 11.4902C137.836 12.588 138.382 16.1888 137.445 21.8096" stroke="black" stroke-width="0.585497"/>
<path d="M137.449 11.489C134.669 11.6214 134.327 8.41518 134.522 6.5855L136.278 7.90287L137.449 6L138.254 7.75649L140.23 6.87825C140.465 10.4498 138.474 11.4402 137.449 11.489Z" fill="#ED67C0" stroke="black" stroke-width="0.585497"/>
<path d="M137.964 16.247C137.94 15.4176 137.174 13.7294 134.305 13.6123C134.597 14.7101 135.739 16.774 137.964 16.247Z" fill="#6D860C" stroke="black" stroke-width="0.585497"/>
<path d="M137.966 17.2724C137.99 16.443 138.756 14.7548 141.625 14.6377C141.332 15.7355 140.191 17.7994 137.966 17.2724Z" fill="#6D860C" stroke="black" stroke-width="0.585497"/>
<path d="M32.8316 24.7876V9.58051C34.0519 9.14244 36.7554 8.52915 37.8068 9.58051V10.8009C39.0584 10.5818 41.8432 10.4066 42.9697 11.458V12.866C44.1587 12.6157 46.8184 12.3591 47.9448 13.3354V14.368C49.8973 13.617 51.0738 14.6809 51.418 15.3066V34.2685C50.592 42.6043 41.4364 44.6882 36.9619 44.6882C28.3258 45.4392 23.5384 38.0547 22.2242 34.2685L18 18.3105C18.6759 15.0062 21.5984 14.9311 22.9752 15.3066L26.6361 28.0731L32.8316 24.7876Z" fill="#ECC19C"/>
<path d="M37.8068 22.0654V10.8009M37.8068 10.8009V9.58051C36.7554 8.52915 34.0519 9.14244 32.8316 9.58051V24.7876L26.6361 28.0731L22.9752 15.3066C21.5984 14.9311 18.6759 15.0062 18 18.3105L22.2242 34.2685C23.5384 38.0547 28.3258 45.4392 36.9619 44.6882C41.4364 44.6882 50.592 42.6043 51.418 34.2685V15.3066C51.0738 14.6809 49.8973 13.617 47.9448 14.368M37.8068 10.8009C39.0584 10.5818 41.8432 10.4066 42.9697 11.458V12.866M42.9697 20.7512V12.866M42.9697 12.866C44.1587 12.6157 46.8184 12.3591 47.9448 13.3354V14.368M47.9448 20.7512V14.368" stroke="black" stroke-width="0.563225"/>
<path d="M22.1328 33.5166C26.9202 38.4918 38.5414 45.701 46.727 34.7369M31.8015 38.0224L30.7689 41.4018M35.7441 38.0224V42.1527M39.9683 38.0224L41.0009 41.4018" stroke="#FF3B65" stroke-width="0.563225"/>
<path d="M32.7391 9.67366C27.2571 8.8476 23.9466 13.0843 22.9766 15.3059L26.7314 28.0724L32.7391 24.693V9.67366Z" fill="#DFB28B" stroke="black" stroke-width="0.563225"/>
<path d="M23.8203 18.1226C25.6351 15.901 29.9782 11.777 32.8319 13.0536" stroke="black" stroke-width="0.563225"/>
<path d="M29.3588 26.571L27.5753 14.6494C26.6741 15.0249 24.634 17.1213 23.7266 18.1226L26.8243 28.0729L29.3588 26.571Z" fill="#EFF3F9" stroke="black" stroke-width="0.375484"/>
<path d="M30.9548 25.7268L29.6406 13.3358C31.1426 12.5098 32.3942 12.8665 32.8322 13.1481V24.6942L30.9548 25.7268Z" fill="#EFF3F9" stroke="black" stroke-width="0.375484"/>
<path d="M24.5703 20.7513L28.1374 18.3106M25.3213 23.3797L28.5129 21.3145M26.1661 25.7264L28.8884 24.0368M30.1087 17.5597L32.8309 15.9639M30.2964 20.7513L32.8309 19.2493M30.7658 23.3797L32.8309 22.1593" stroke="black" stroke-width="0.563225"/>
<g filter="url(#filter10_i_652_2)">
<circle cx="45.1438" cy="29.2005" r="8.54225" fill="#EFF3F9"/>
</g>
<path d="M44.9659 37.7427C45.0853 34.6762 47.0447 28.5553 53.6873 29.0809M43.8906 35.6519H46.3995M44.7269 32.9638L47.1164 33.5611M46.1009 30.5146L48.55 31.7691M48.2514 29.081L50.1629 30.5146M50.9395 28.0654L52.1342 29.8575" stroke="#FF3B65" stroke-width="0.59736"/>
<path d="M45.323 20.6582C45.5022 23.2269 43.9133 28.615 36.6016 29.3797M38.5729 27.8863L39.0507 30.0965M40.6636 27.1097L41.5597 29.1407M41.9778 25.8552L43.6504 27.7668M43.292 24.3021L45.4425 25.1384M43.7699 22.3905L46.2788 22.5698" stroke="#FF3B65" stroke-width="0.59736"/>
<path d="M141.795 130.766V126.411H129.352V130.766H131.663C128.7 132.188 122.775 136.356 122.775 141.653V160.095C122.731 162.302 122.109 166.183 126.908 166.716C127.862 166.822 131.841 166.716 133.707 166.716H144.017C147.643 166.574 148.253 162.243 148.105 160.095V141.653C148.318 136.25 142.684 132.144 139.84 130.766H141.795Z" fill="#8AC9FE"/>
<path d="M139.84 130.766H141.795V126.411H129.352V130.766H131.663M139.84 130.766C142.684 132.144 148.318 136.25 148.105 141.653V160.095C148.253 162.243 147.643 166.574 144.017 166.716H133.707C131.841 166.716 127.862 166.822 126.908 166.716C122.109 166.183 122.731 162.302 122.775 160.095V141.653C122.775 136.356 128.7 132.188 131.663 130.766M139.84 130.766H131.663" stroke="black" stroke-width="0.258706" stroke-linecap="round"/>
<rect x="-0.129353" y="0.129353" width="25.0708" height="18.3163" transform="matrix(-1 0 0 1 147.866 141.698)" fill="#FFD364" stroke="black" stroke-width="0.258706"/>
<rect x="-0.129353" y="0.129353" width="12.1839" height="4.0962" rx="0.759404" transform="matrix(-1 0 0 1 141.562 126.411)" fill="#FE866E" stroke="black" stroke-width="0.258706"/>
<path d="M137.23 149.121V145.877H133.808V149.121H130.342V152.631H133.808V156.053H137.23V152.631H140.562V149.121H137.23Z" fill="#FE866E" stroke="black" stroke-width="0.258706" stroke-linecap="round"/>
<rect x="-0.17621" y="0.0491358" width="23.8266" height="9.07324" rx="4.53662" transform="matrix(-0.871051 -0.491192 -0.491192 0.871051 140.257 162.871)" fill="#FD4755" stroke="black" stroke-width="0.258706"/>
<path d="M138.158 166.952C139.389 164.77 138.617 162.003 136.435 160.772L130.548 157.452L126.091 165.355L131.978 168.675C134.16 169.906 136.927 169.134 138.158 166.952Z" fill="#ECEFF1" stroke="black" stroke-width="0.258706"/>
<defs>
<filter id="filter0_i_652_2" x="35.5469" y="129.979" width="17.4564" height="10.5828" filterUnits="userSpaceOnUse" color-interpolation-filters="sRGB">
<feFlood flood-opacity="0" result="BackgroundImageFix"/>
<feBlend mode="normal" in="SourceGraphic" in2="BackgroundImageFix" result="shape"/>
<feColorMatrix in="SourceAlpha" type="matrix" values="0 0 0 0 0 0 0 0 0 0 0 0 0 0 0 0 0 0 127 0" result="hardAlpha"/>
<feOffset dx="1.00324" dy="1.40454"/>
<feGaussianBlur stdDeviation="0.601947"/>
<feComposite in2="hardAlpha" operator="arithmetic" k2="-1" k3="1"/>
<feColorMatrix type="matrix" values="0 0 0 0 0 0 0 0 0 0 0 0 0 0 0 0 0 0 0.25 0"/>
<feBlend mode="normal" in2="shape" result="effect1_innerShadow_652_2"/>
</filter>
<filter id="filter1_i_652_2" x="22" y="138.326" width="32.2018" height="28.8681" filterUnits="userSpaceOnUse" color-interpolation-filters="sRGB">
<feFlood flood-opacity="0" result="BackgroundImageFix"/>
<feBlend mode="normal" in="SourceGraphic" in2="BackgroundImageFix" result="shape"/>
<feColorMatrix in="SourceAlpha" type="matrix" values="0 0 0 0 0 0 0 0 0 0 0 0 0 0 0 0 0 0 127 0" result="hardAlpha"/>
<feOffset dx="4.21363" dy="0.401298"/>
<feGaussianBlur stdDeviation="1.00324"/>
<feComposite in2="hardAlpha" operator="arithmetic" k2="-1" k3="1"/>
<feColorMatrix type="matrix" values="0 0 0 0 0 0 0 0 0 0 0 0 0 0 0 0 0 0 0.25 0"/>
<feBlend mode="normal" in2="shape" result="effect1_innerShadow_652_2"/>
</filter>
<filter id="filter2_d_652_2" x="31.0202" y="133.253" width="9.2281" height="10.6656" filterUnits="userSpaceOnUse" color-interpolation-filters="sRGB">
<feFlood flood-opacity="0" result="BackgroundImageFix"/>
<feColorMatrix in="SourceAlpha" type="matrix" values="0 0 0 0 0 0 0 0 0 0 0 0 0 0 0 0 0 0 127 0" result="hardAlpha"/>
<feOffset dx="0.200649" dy="1.00324"/>
<feGaussianBlur stdDeviation="0.601947"/>
<feComposite in2="hardAlpha" operator="out"/>
<feColorMatrix type="matrix" values="0 0 0 0 0 0 0 0 0 0 0 0 0 0 0 0 0 0 0.25 0"/>
<feBlend mode="normal" in2="BackgroundImageFix" result="effect1_dropShadow_652_2"/>
<feBlend mode="normal" in="SourceGraphic" in2="effect1_dropShadow_652_2" result="shape"/>
</filter>
<filter id="filter3_i_652_2" x="205" y="71.4114" width="37.0217" height="32.5984" filterUnits="userSpaceOnUse" color-interpolation-filters="sRGB">
<feFlood flood-opacity="0" result="BackgroundImageFix"/>
<feBlend mode="normal" in="SourceGraphic" in2="BackgroundImageFix" result="shape"/>
<feColorMatrix in="SourceAlpha" type="matrix" values="0 0 0 0 0 0 0 0 0 0 0 0 0 0 0 0 0 0 127 0" result="hardAlpha"/>
<feOffset dx="5.52515" dy="-0.552515"/>
<feGaussianBlur stdDeviation="2.21006"/>
<feComposite in2="hardAlpha" operator="arithmetic" k2="-1" k3="1"/>
<feColorMatrix type="matrix" values="0 0 0 0 0 0 0 0 0 0 0 0 0 0 0 0 0 0 0.25 0"/>
<feBlend mode="normal" in2="shape" result="effect1_innerShadow_652_2"/>
</filter>
<filter id="filter4_i_652_2" x="216.594" y="67.5439" width="6.61284" height="7.26323" filterUnits="userSpaceOnUse" color-interpolation-filters="sRGB">
<feFlood flood-opacity="0" result="BackgroundImageFix"/>
<feBlend mode="normal" in="SourceGraphic" in2="BackgroundImageFix" result="shape"/>
<feColorMatrix in="SourceAlpha" type="matrix" values="0 0 0 0 0 0 0 0 0 0 0 0 0 0 0 0 0 0 127 0" result="hardAlpha"/>
<feOffset dx="1.10503" dy="1.10503"/>
<feGaussianBlur stdDeviation="1.10503"/>
<feComposite in2="hardAlpha" operator="arithmetic" k2="-1" k3="1"/>
<feColorMatrix type="matrix" values="0 0 0 0 0 0 0 0 0 0 0 0 0 0 0 0 0 0 0.25 0"/>
<feBlend mode="normal" in2="shape" result="effect1_innerShadow_652_2"/>
</filter>
<filter id="filter5_i_652_2" x="222.633" y="70.5186" width="8.03125" height="6.52451" filterUnits="userSpaceOnUse" color-interpolation-filters="sRGB">
<feFlood flood-opacity="0" result="BackgroundImageFix"/>
<feBlend mode="normal" in="SourceGraphic" in2="BackgroundImageFix" result="shape"/>
<feColorMatrix in="SourceAlpha" type="matrix" values="0 0 0 0 0 0 0 0 0 0 0 0 0 0 0 0 0 0 127 0" result="hardAlpha"/>
<feOffset dy="2.21006"/>
<feGaussianBlur stdDeviation="1.10503"/>
<feComposite in2="hardAlpha" operator="arithmetic" k2="-1" k3="1"/>
<feColorMatrix type="matrix" values="0 0 0 0 0 0 0 0 0 0 0 0 0 0 0 0 0 0 0.25 0"/>
<feBlend mode="normal" in2="shape" result="effect1_innerShadow_652_2"/>
</filter>
<filter id="filter6_i_652_2" x="217.148" y="87.301" width="30.73" height="16.4402" filterUnits="userSpaceOnUse" color-interpolation-filters="sRGB">
<feFlood flood-opacity="0" result="BackgroundImageFix"/>
<feBlend mode="normal" in="SourceGraphic" in2="BackgroundImageFix" result="shape"/>
<feColorMatrix in="SourceAlpha" type="matrix" values="0 0 0 0 0 0 0 0 0 0 0 0 0 0 0 0 0 0 127 0" result="hardAlpha"/>
<feOffset dx="1.10503" dy="-0.552515"/>
<feGaussianBlur stdDeviation="1.65754"/>
<feComposite in2="hardAlpha" operator="arithmetic" k2="-1" k3="1"/>
<feColorMatrix type="matrix" values="0 0 0 0 0 0 0 0 0 0 0 0 0 0 0 0 0 0 0.25 0"/>
<feBlend mode="normal" in2="shape" result="effect1_innerShadow_652_2"/>
</filter>
<filter id="filter7_i_652_2" x="208.55" y="9.55045" width="32.5042" height="32.1869" filterUnits="userSpaceOnUse" color-interpolation-filters="sRGB">
<feFlood flood-opacity="0" result="BackgroundImageFix"/>
<feBlend mode="normal" in="SourceGraphic" in2="BackgroundImageFix" result="shape"/>
<feColorMatrix in="SourceAlpha" type="matrix" values="0 0 0 0 0 0 0 0 0 0 0 0 0 0 0 0 0 0 127 0" result="hardAlpha"/>
<feOffset dx="-2.6575" dy="-1.93273"/>
<feGaussianBlur stdDeviation="0.724774"/>
<feComposite in2="hardAlpha" operator="arithmetic" k2="-1" k3="1"/>
<feColorMatrix type="matrix" values="0 0 0 0 0 0 0 0 0 0 0 0 0 0 0 0 0 0 0.25 0"/>
<feBlend mode="normal" in2="shape" result="effect1_innerShadow_652_2"/>
</filter>
<filter id="filter8_i_652_2" x="210.024" y="27.7866" width="12.89" height="13.441" filterUnits="userSpaceOnUse" color-interpolation-filters="sRGB">
<feFlood flood-opacity="0" result="BackgroundImageFix"/>
<feBlend mode="normal" in="SourceGraphic" in2="BackgroundImageFix" result="shape"/>
<feColorMatrix in="SourceAlpha" type="matrix" values="0 0 0 0 0 0 0 0 0 0 0 0 0 0 0 0 0 0 127 0" result="hardAlpha"/>
<feOffset dx="-0.241591" dy="-0.966365"/>
<feGaussianBlur stdDeviation="0.483183"/>
<feComposite in2="hardAlpha" operator="arithmetic" k2="-1" k3="1"/>
<feColorMatrix type="matrix" values="0 0 0 0 0 0 0 0 0 0 0 0 0 0 0 0 0 0 0.25 0"/>
<feBlend mode="normal" in2="shape" result="effect1_innerShadow_652_2"/>
</filter>
<filter id="filter9_i_652_2" x="227.876" y="10.4594" width="12.89" height="14.1343" filterUnits="userSpaceOnUse" color-interpolation-filters="sRGB">
<feFlood flood-opacity="0" result="BackgroundImageFix"/>
<feBlend mode="normal" in="SourceGraphic" in2="BackgroundImageFix" result="shape"/>
<feColorMatrix in="SourceAlpha" type="matrix" values="0 0 0 0 0 0 0 0 0 0 0 0 0 0 0 0 0 0 127 0" result="hardAlpha"/>
<feOffset dx="-0.241591" dy="-0.966365"/>
<feGaussianBlur stdDeviation="0.483183"/>
<feComposite in2="hardAlpha" operator="arithmetic" k2="-1" k3="1"/>
<feColorMatrix type="matrix" values="0 0 0 0 0 0 0 0 0 0 0 0 0 0 0 0 0 0 0.25 0"/>
<feBlend mode="normal" in2="shape" result="effect1_innerShadow_652_2"/>
</filter>
<filter id="filter10_i_652_2" x="35.5338" y="19.8219" width="18.1537" height="17.9213" filterUnits="userSpaceOnUse" color-interpolation-filters="sRGB">
<feFlood flood-opacity="0" result="BackgroundImageFix"/>
<feBlend mode="normal" in="SourceGraphic" in2="BackgroundImageFix" result="shape"/>
<feColorMatrix in="SourceAlpha" type="matrix" values="0 0 0 0 0 0 0 0 0 0 0 0 0 0 0 0 0 0 127 0" result="hardAlpha"/>
<feOffset dx="-1.43366" dy="-0.836304"/>
<feGaussianBlur stdDeviation="0.533891"/>
<feComposite in2="hardAlpha" operator="arithmetic" k2="-1" k3="1"/>
<feColorMatrix type="matrix" values="0 0 0 0 0 0 0 0 0 0 0 0 0 0 0 0 0 0 0.25 0"/>
<feBlend mode="normal" in2="shape" result="effect1_innerShadow_652_2"/>
</filter>
</defs>
</svg>
