<svg width="260" height="192" viewBox="0 0 260 192" fill="none" xmlns="http://www.w3.org/2000/svg">
<path d="M29.5473 19.4462V2.15753C30.9347 1.6595 34.0082 0.962261 35.2035 2.15753V3.54494C36.6264 3.29593 39.7925 3.09671 41.0731 4.29198V5.89278C42.4249 5.6082 45.4486 5.31649 46.7293 6.42638V7.60031C48.9491 6.74658 50.2866 7.95602 50.6779 8.66746V30.2249C49.7388 39.7017 39.33 42.0709 34.243 42.0709C24.4248 42.9246 18.982 34.5293 17.488 30.2249L12.6855 12.0825C13.4539 8.32595 16.7765 8.24058 18.3417 8.66746L22.5038 23.1814L29.5473 19.4462Z" fill="#ECC19C"/>
<path d="M35.2035 16.3514V3.54494M35.2035 3.54494V2.15753C34.0082 0.962261 30.9347 1.6595 29.5473 2.15753V19.4462L22.5038 23.1814L18.3417 8.66746C16.7765 8.24058 13.4539 8.32595 12.6855 12.0825L17.488 30.2249C18.982 34.5293 24.4248 42.9246 34.243 42.0709C39.33 42.0709 49.7388 39.7017 50.6779 30.2249V8.66746C50.2866 7.95602 48.9491 6.74658 46.7293 7.6003M35.2035 3.54494C36.6264 3.29593 39.7925 3.09671 41.0731 4.29198V5.89278M41.0731 14.8573V5.89278M41.0731 5.89278C42.4249 5.6082 45.4486 5.31649 46.7293 6.42638V7.6003M46.7293 14.8573V7.6003" stroke="black" stroke-width="0.878392"/>
<path d="M17.3848 29.3706C22.8275 35.0268 36.0394 43.2229 45.3454 30.758M28.3769 34.4932L27.203 38.3351M32.8592 34.4932V39.1889M37.6616 34.4932L38.8355 38.3351" stroke="#FF3B65" stroke-width="0.878392"/>
<path d="M29.4387 2.26425C23.2063 1.32511 19.4426 6.14175 18.3398 8.66746L22.6087 23.1814L29.4387 19.3395V2.26425Z" fill="#DFB28B" stroke="black" stroke-width="0.878392"/>
<path d="M19.3008 11.8689C21.364 9.34318 26.3016 4.65461 29.5459 6.106" stroke="black" stroke-width="0.878392"/>
<path d="M25.6005 21.4739L23.5728 7.92041C22.5483 8.34729 20.2289 10.7307 19.1973 11.8691L22.719 23.1814L25.6005 21.4739Z" fill="#EFF3F9" stroke="black" stroke-width="0.585595"/>
<path d="M27.4101 20.5134L25.916 6.42636C27.6235 5.48722 29.0465 5.89276 29.5445 6.21292V19.3395L27.4101 20.5134Z" fill="#EFF3F9" stroke="black" stroke-width="0.585595"/>
<path d="M20.1543 14.8573L24.2097 12.0826M21.0081 17.8454L24.6365 15.4976M21.9685 20.5134L25.0634 18.5925M26.4508 11.2288L29.5457 9.41455M26.6642 14.8573L29.5457 13.1498M27.1978 17.8454L29.5457 16.4581" stroke="black" stroke-width="0.878392"/>
<g filter="url(#filter0_i_2756_156)">
<circle cx="43.5455" cy="24.463" r="9.71153" fill="#EFF3F9"/>
</g>
<path d="M43.3435 34.1747C43.4794 30.6885 45.7069 23.7297 53.2588 24.3274M42.1211 31.7978H44.9734M43.0719 28.7417L45.7884 29.4208M44.6339 25.9573L47.4183 27.3834M47.0787 24.3274L49.2519 25.9573M50.1348 23.1729L51.4931 25.2102" stroke="#FF3B65" stroke-width="0.931628"/>
<path d="M43.7493 14.7515C43.953 17.6717 42.1465 23.7975 33.834 24.6667M36.0751 22.9689L36.6184 25.4817M38.4521 22.0861L39.4707 24.3951M39.9461 20.6599L41.8477 22.8331M41.4402 18.8941L43.8851 19.8449M41.9835 16.7209L44.8359 16.9247" stroke="#FF3B65" stroke-width="0.931628"/>
<path d="M113.258 22.4359C113.63 26.7214 116.156 30.2253 117.373 31.4416L128.009 32.0627C129.437 28.3983 130.959 24.532 131.425 23.0569C132.605 20.2 130.674 16.6391 130.338 15.5263C128.537 16.0852 127.62 17.5707 127.388 18.2435C128.071 13.0885 127.103 10.2988 126.534 9.54831C124.795 10.4799 124.308 11.9033 124.282 12.4985C124.282 10.0762 122.885 7.60741 122.186 6.67578C120.695 8.29061 120.323 10.6611 120.323 11.6445C120.261 9.71911 119.52 8.87546 119.158 8.69431C116.239 10.6197 116.493 15.3451 116.984 17.4672C116.053 16.0387 114.785 14.8534 114.267 14.4394C113.273 18.9112 115.354 22.8758 116.519 24.2991C114.966 22.8706 113.698 22.4617 113.258 22.4359Z" fill="#A2B84B" stroke="black" stroke-width="0.852007"/>
<path d="M135.544 19.8753C134.737 18.9437 133.759 19.1766 133.37 19.4095C130.265 18.7884 129.851 21.7386 130.032 23.2913C128.107 23.9745 128.609 26.0604 129.1 27.0179C125.684 27.9495 126.28 31.1843 127.004 32.6853H151.304L151.925 31.4431C152.733 29.2072 151.123 28.3377 150.217 28.1824C152.081 24.8285 150.062 22.5409 148.82 21.8163C148.509 20.2014 147.397 20.2118 146.879 20.4188C146.258 19.0524 144.757 19.4872 144.084 19.8753C143.09 18.1363 141.031 18.8402 140.125 19.4095C137.64 17.0494 136.036 18.7367 135.544 19.8753Z" fill="#C4D166" stroke="black" stroke-width="0.852007"/>
<path d="M153.008 31.3643H114.035L117.373 41.7675H149.981L153.008 31.3643Z" fill="#93999D" stroke="black" stroke-width="0.852007"/>
<path d="M129.255 17.7778C128.758 18.7716 129.048 20.1069 129.255 20.6504C128.137 20.6504 127.443 21.3232 127.236 21.6596C127.485 22.8397 128.686 23.0829 129.255 23.0571C128.883 24.175 129.41 25.0756 129.721 25.3861C130.963 25.1377 131.48 24.2992 131.584 23.9111C132.516 24.2837 133.835 24.0663 134.379 23.9111C134.565 22.9794 133.68 22.0219 133.214 21.6596C134.084 20.8522 134.198 20.081 134.146 19.7964C133.09 19.2374 131.998 19.5635 131.584 19.7964C131.087 18.6784 129.824 17.9849 129.255 17.7778Z" fill="#F8ADDF" stroke="black" stroke-width="0.852007"/>
<path d="M134.908 24.2654C134.919 25.3763 135.785 26.433 136.217 26.8224C135.222 27.3317 134.911 28.2467 134.88 28.6406C135.639 29.5779 136.818 29.2473 137.314 28.9649C137.491 30.1298 138.371 30.691 138.789 30.8261C139.782 30.039 139.86 29.0568 139.776 28.6641C140.775 28.5714 141.851 27.7766 142.264 27.3908C142.005 26.4766 140.781 26.0274 140.201 25.9171C140.608 24.8022 140.358 24.0638 140.182 23.834C138.987 23.8174 138.164 24.6052 137.901 25.0012C136.95 24.2324 135.509 24.1903 134.908 24.2654Z" fill="#F8ADDF" stroke="black" stroke-width="0.852007"/>
<path d="M144.591 17.6433C143.957 18.5551 144.051 19.9183 144.178 20.4859C143.072 20.3249 142.288 20.8908 142.035 21.1939C142.111 22.3974 143.264 22.8111 143.831 22.8675C143.302 23.9201 143.694 24.8873 143.956 25.2393C145.221 25.1724 145.854 24.4172 146.013 24.048C146.881 24.5509 148.218 24.5259 148.778 24.4505C149.097 23.5554 148.359 22.4804 147.95 22.0548C148.927 21.381 149.151 20.6343 149.141 20.3451C148.176 19.6399 147.049 19.8053 146.605 19.9762C146.275 18.7983 145.125 17.9301 144.591 17.6433Z" fill="#F8ADDF" stroke="black" stroke-width="0.852007"/>
<circle cx="130.95" cy="21.8154" r="0.427991" stroke="black" stroke-width="0.852007"/>
<circle cx="138.268" cy="27.0796" r="0.427991" transform="rotate(-27.1028 138.268 27.0796)" stroke="black" stroke-width="0.852007"/>
<circle cx="145.697" cy="21.8812" r="0.427991" transform="rotate(8.28036 145.697 21.8812)" stroke="black" stroke-width="0.852007"/>
<path d="M139.189 7.68555C139.604 8.85008 140.183 12.6698 139.189 18.6322" stroke="black" stroke-width="0.852007"/>
<path d="M139.194 7.6845C136.245 7.8249 135.882 4.4238 136.089 2.4829L137.952 3.88035L139.194 1.86182L140.048 3.72508L142.145 2.79345C142.393 6.58208 140.281 7.63275 139.194 7.6845Z" fill="#ED67C0" stroke="black" stroke-width="0.852007"/>
<path d="M139.735 12.7314C139.709 11.8515 138.897 10.0607 135.854 9.93652C136.164 11.1011 137.375 13.2904 139.735 12.7314Z" fill="#6D860C" stroke="black" stroke-width="0.852007"/>
<path d="M139.741 13.8198C139.767 12.9399 140.58 11.1491 143.623 11.0249C143.313 12.1894 142.101 14.3788 139.741 13.8198Z" fill="#6D860C" stroke="black" stroke-width="0.852007"/>
<g filter="url(#filter1_i_2756_156)">
<path d="M246.792 5.11798C234.288 3.52309 210.084 7.98878 213.299 38.6106C226.313 39.8866 251.232 34.9743 246.792 5.11798Z" fill="#B5633A"/>
</g>
<g filter="url(#filter2_i_2756_156)">
<path d="M223.827 38.2276L213.301 27.8927L214.066 24.4478L227.272 37.6534L223.827 38.2276Z" fill="#F3D19F"/>
</g>
<g filter="url(#filter3_i_2756_156)">
<path d="M246.417 19.8545L233.02 5.88324L236.273 5.30908L246.991 16.6009L246.417 19.8545Z" fill="#F3D19F"/>
</g>
<path d="M222.291 29.2324L237.793 14.3042M222.291 25.4046L226.31 29.2324M225.545 22.7252L228.99 25.9788M228.224 19.8544L231.669 23.4908M231.095 17.175L234.54 20.62M234.54 14.3042L237.793 17.9405" stroke="#F3D19F" stroke-width="2.10035"/>
<path d="M23.8809 86.1469C24.2642 82.9362 26.8424 76.5146 34.0882 76.5146C36.4843 76.5146 41.7941 78.4411 43.8643 86.1469" stroke="black" stroke-width="1.5"/>
<path d="M14.2466 86.147H53.4946C54.4531 86.8179 55.7949 88.6485 53.4946 90.6037H51.9135L50.3907 96.9294L48.4525 104.98L46.3066 113.894H39.7653H27.6171H21.0039L18.8581 104.98L16.9199 96.9294L15.397 90.6037H14.2466C13.384 89.9807 12.1764 88.2172 14.2466 86.147Z" fill="#F4C80F"/>
<path d="M15.397 90.6037H14.2466C13.384 89.9807 12.1764 88.2172 14.2466 86.147H53.4946C54.4531 86.8179 55.7949 88.6485 53.4946 90.6037H51.9135M15.397 90.6037H27.6171M15.397 90.6037L16.9199 96.9294M51.9135 90.6037H39.7653M51.9135 90.6037L50.3907 96.9294M27.6171 90.6037V113.894M27.6171 90.6037H39.7653M27.6171 113.894H21.0039L18.8581 104.98M27.6171 113.894H39.7653M39.7653 90.6037V113.894M39.7653 113.894H46.3066L48.4525 104.98M16.9199 96.9294H50.3907M16.9199 96.9294L18.8581 104.98M50.3907 96.9294L48.4525 104.98M48.4525 104.98H18.8581" stroke="black" stroke-width="1.5"/>
<path d="M135.818 74.1674C135.43 77.1474 132.201 81.2936 130.636 82.9942C129.097 82.1844 125.89 79.2853 125.372 74.1674C123.806 74.2214 120.497 75.2525 119.784 78.9452C119.784 82.7513 120.189 91.3352 118.489 96.7609C118.381 98.0565 118.829 100.259 121.485 98.7044L114.764 114.091C116.086 113.74 119.153 113.248 120.837 114.091V116.277C122.511 115.629 126.409 114.722 128.611 116.277C129.745 115.656 132.79 114.787 135.9 116.277C136.898 115.602 139.365 114.496 141.244 115.467C141.973 114.55 144.03 112.989 146.427 114.091L139.787 98.7044C142.443 100.259 143.161 98.0565 143.188 96.7609C140.596 92.4203 141.028 83.0752 141.568 78.9452C141.309 74.6047 137.627 73.9514 135.818 74.1674Z" fill="#FF7DAC"/>
<path d="M121.485 98.7044C118.829 100.259 118.381 98.0565 118.489 96.7609C120.189 91.3352 119.784 82.7513 119.784 78.9452C120.497 75.2525 123.806 74.2214 125.372 74.1674C125.89 79.2853 129.097 82.1844 130.636 82.9942C132.201 81.2936 135.43 77.1474 135.818 74.1674C137.627 73.9514 141.309 74.6047 141.568 78.9452C141.028 83.0752 140.596 92.4203 143.188 96.7609C143.161 98.0565 142.443 100.259 139.787 98.7044M121.485 98.7044L123.51 93.6837V87.5292C122.349 86.3145 120.724 83.1238 123.51 80.079M121.485 98.7044L114.764 114.091C116.086 113.74 119.153 113.248 120.837 114.091V116.277C122.511 115.629 126.409 114.722 128.611 116.277C129.745 115.656 132.79 114.787 135.9 116.277C136.898 115.602 139.365 114.496 141.244 115.467C141.973 114.55 144.03 112.989 146.427 114.091L139.787 98.7044M139.787 98.7044L137.276 93.6837V87.5292C138.491 86.2875 140.191 83.059 137.276 80.079M125.372 95.6272L121.485 112.795M128.611 95.6272L126.911 112.795M132.174 95.6272L133.794 112.795M135.818 95.6272L139.787 112.795" stroke="black" stroke-linecap="round" stroke-linejoin="round"/>
<path d="M135.576 74.6533H125.453C126.036 79.7713 129.151 82.3464 130.636 82.9943C133.681 79.9494 135.198 76.165 135.576 74.6533Z" fill="#FC5E8F" stroke="black"/>
<g filter="url(#filter4_i_2756_156)">
<ellipse cx="222.219" cy="97.3456" rx="15.7915" ry="15.5238" fill="#FBC302"/>
</g>
<g filter="url(#filter5_i_2756_156)">
<path d="M222.757 83.4274C220.973 83.7843 217.457 83.1062 217.671 77.5391C219.902 77.7175 224.042 79.145 222.757 83.4274Z" fill="#87C607"/>
</g>
<g filter="url(#filter6_i_2756_156)">
<path d="M223.514 82.4479C224.443 80.8831 227.298 78.7244 231.293 82.6085C229.667 84.147 225.836 86.2687 223.514 82.4479Z" fill="#87C607"/>
</g>
<path d="M221.496 89.1144C221.533 89.5183 221.89 89.816 222.294 89.7792C222.698 89.7425 222.996 89.3853 222.959 88.9814L221.496 89.1144ZM232.433 77.073C230.44 76.9781 227.498 77.4552 225.143 79.2423C222.738 81.0672 221.048 84.1806 221.496 89.1144L222.959 88.9814C222.551 84.4939 224.073 81.8974 226.031 80.4123C228.038 78.8894 230.609 78.4565 232.363 78.54L232.433 77.073Z" fill="#4C8801"/>
<g filter="url(#filter7_i_2756_156)">
<path d="M246.89 97.3452H218.251C217.395 109.978 227.351 112.78 232.437 112.601C244.428 112.173 247.068 102.252 246.89 97.3452Z" fill="#FCF38A"/>
<path d="M231.906 109.925C222.271 110.353 220.219 101.895 220.397 97.6128H243.683C241.97 108.319 235.118 110.282 231.906 109.925Z" fill="#FABA01"/>
<path d="M222.264 105.375C222.478 105.375 228.241 100.2 231.096 97.6128M232.167 97.6128V110.192M233.505 97.6128L240.999 105.375" stroke="#FCF38A" stroke-width="1.46866"/>
</g>
<g filter="url(#filter8_i_2756_156)">
<path d="M32.8887 159.19C34.4855 154.957 40.3751 147.359 51.1591 150.835C50.0079 155.365 44.7422 163.379 32.8887 159.19Z" fill="#9CDF00"/>
</g>
<path d="M32.8887 159.19C34.4855 154.957 40.3751 147.359 51.1591 150.835C50.0079 155.365 44.7422 163.379 32.8887 159.19Z" stroke="black"/>
<g filter="url(#filter9_i_2756_156)">
<path d="M19.0423 177.014C14.0513 161.952 25.8751 159.004 32.4109 159.412H36.1988C42.846 158.447 54.9818 160.615 50.3473 177.014C45.7128 193.413 38.1214 191.503 34.7506 189.603C31.594 191.683 24.0332 192.076 19.0423 177.014Z" fill="#F75749"/>
</g>
<path d="M19.0423 177.014C14.0513 161.952 25.8751 159.004 32.4109 159.412H36.1988C42.846 158.447 54.9818 160.615 50.3473 177.014C45.7128 193.413 38.1214 191.503 34.7506 189.603C31.594 191.683 24.0332 192.076 19.0423 177.014Z" stroke="black"/>
<g filter="url(#filter10_d_2756_156)">
<path d="M32.6568 162.978C33.5481 158.432 30.5773 155.885 28.9805 155.179C31.0972 153.137 35.5757 151.837 36.556 162.978H32.6568Z" fill="#507511"/>
<path d="M32.6568 162.978C33.5481 158.432 30.5773 155.885 28.9805 155.179C31.0972 153.137 35.5757 151.837 36.556 162.978H32.6568Z" stroke="black"/>
</g>
<path d="M137.905 151.589V149.277C137.905 148.725 137.457 148.277 136.905 148.277H126.585C126.033 148.277 125.585 148.725 125.585 149.277V151.589C125.585 152.141 126.033 152.589 126.585 152.589H127.873C124.94 153.997 119.074 158.124 119.074 163.368V181.627C119.03 183.812 118.414 187.655 123.165 188.183C124.11 188.288 128.049 188.183 129.897 188.183H140.104C143.695 188.042 144.299 183.754 144.152 181.627V163.368C144.363 158.018 138.784 153.953 135.969 152.589H136.905C137.457 152.589 137.905 152.141 137.905 151.589Z" fill="#8AC9FE"/>
<path d="M135.969 152.589H136.905C137.457 152.589 137.905 152.141 137.905 151.589V149.277C137.905 148.725 137.457 148.277 136.905 148.277H126.585C126.033 148.277 125.585 148.725 125.585 149.277V151.589C125.585 152.141 126.033 152.589 126.585 152.589H127.873M135.969 152.589C138.784 153.953 144.363 158.018 144.152 163.368V181.627C144.299 183.754 143.695 188.042 140.104 188.183H129.897C128.049 188.183 124.11 188.288 123.165 188.183C118.414 187.655 119.03 183.812 119.074 181.627V163.368C119.074 158.124 124.94 153.997 127.873 152.589M135.969 152.589H127.873" stroke="black" stroke-linecap="round"/>
<rect x="-0.25" y="0.25" width="24.5783" height="17.8907" transform="matrix(-1 0 0 1 143.672 163.414)" fill="#FFD364" stroke="black" stroke-width="0.5"/>
<rect x="-0.175686" y="0.175686" width="11.9678" height="3.96033" rx="0.824314" transform="matrix(-1 0 0 1 137.578 148.278)" fill="#FE866E" stroke="black" stroke-width="0.351371"/>
<path d="M133.388 170.762V167.55H130V170.762H126.568V174.237H130V177.625H133.388V174.237H136.688V170.762H133.388Z" fill="#FE866E" stroke="black" stroke-linecap="round"/>
<rect x="-0.681122" y="0.18993" width="22.8464" height="8.23936" rx="4.11968" transform="matrix(-0.871051 -0.491192 -0.491192 0.871051 135.506 184.145)" fill="#FD4755" stroke="black"/>
<path d="M132.418 182.621L126.913 179.517L122.866 186.694L128.371 189.798C130.353 190.915 132.865 190.215 133.983 188.233C135.1 186.251 134.4 183.739 132.418 182.621Z" fill="#ECEFF1" stroke="black"/>
<path fill-rule="evenodd" clip-rule="evenodd" d="M207.932 159.088C209.768 160.043 212.952 160.577 216.611 159.862C216.59 160.854 216.595 161.881 216.63 162.933C216.073 163.105 215.53 163.286 215.001 163.477C210.176 165.215 206.488 167.717 204.172 170.139C204.226 165.934 205.647 162.058 208.011 158.936L207.932 159.088ZM210.042 156.659C212.086 154.705 214.566 153.203 217.321 152.313C217.093 153.58 216.899 155.058 216.769 156.689C213.939 157.387 211.498 157.149 210.042 156.659ZM220.141 151.637L220.562 151.73C220.33 152.778 220.116 154.068 219.956 155.538C221.761 154.669 223.629 153.382 225.433 151.532C224.689 151.444 223.931 151.398 223.162 151.398C222.134 151.398 221.125 151.48 220.141 151.637ZM228.528 152.167L228.795 152.395C225.903 155.769 222.731 157.829 219.704 158.977C219.664 159.986 219.652 161.043 219.675 162.133C225.416 160.87 232.397 160.683 240.456 162.53C238.192 157.555 233.844 153.729 228.528 152.167ZM241.511 165.472L241.396 165.915C232.823 163.683 225.578 163.891 219.832 165.24C219.94 166.573 220.104 167.936 220.335 169.306C220.359 169.446 220.383 169.585 220.408 169.725C225.827 168.22 232.841 169.441 241.512 175.303C241.931 173.736 242.154 172.089 242.154 170.39C242.154 168.689 241.931 167.041 241.511 165.472ZM240.44 178.285C231.83 172.283 225.511 171.434 221.06 172.729C222.556 178.551 225.416 184.065 230.408 187.78L230.226 188.025C234.753 186.21 238.419 182.702 240.44 178.285ZM227.031 188.987C222.407 184.926 219.706 179.485 218.216 173.965C214.02 176.461 211.677 181.186 211.021 184.9L210.878 184.875C214.19 187.686 218.478 189.382 223.162 189.382C224.488 189.382 225.782 189.246 227.031 188.987ZM208.46 182.413C209.674 178.227 212.557 173.393 217.5 170.86L217.502 170.859C217.434 170.511 217.372 170.163 217.313 169.817C217.101 168.563 216.942 167.315 216.829 166.088C216.562 166.176 216.299 166.267 216.04 166.361C209.754 168.625 205.973 172.147 204.78 174.377L204.565 174.262C205.197 177.31 206.559 180.091 208.46 182.413Z" fill="#ED892D"/>
<defs>
<filter id="filter0_i_2756_156" x="32.1687" y="13.4472" width="21.0891" height="20.7271" filterUnits="userSpaceOnUse" color-interpolation-filters="sRGB">
<feFlood flood-opacity="0" result="BackgroundImageFix"/>
<feBlend mode="normal" in="SourceGraphic" in2="BackgroundImageFix" result="shape"/>
<feColorMatrix in="SourceAlpha" type="matrix" values="0 0 0 0 0 0 0 0 0 0 0 0 0 0 0 0 0 0 127 0" result="hardAlpha"/>
<feOffset dx="-2.23591" dy="-1.30428"/>
<feGaussianBlur stdDeviation="0.832642"/>
<feComposite in2="hardAlpha" operator="arithmetic" k2="-1" k3="1"/>
<feColorMatrix type="matrix" values="0 0 0 0 0 0 0 0 0 0 0 0 0 0 0 0 0 0 0.25 0"/>
<feBlend mode="normal" in2="shape" result="effect1_innerShadow_2756_156"/>
</filter>
<filter id="filter1_i_2756_156" x="210.811" y="2.64185" width="36.5032" height="36.1492" filterUnits="userSpaceOnUse" color-interpolation-filters="sRGB">
<feFlood flood-opacity="0" result="BackgroundImageFix"/>
<feBlend mode="normal" in="SourceGraphic" in2="BackgroundImageFix" result="shape"/>
<feColorMatrix in="SourceAlpha" type="matrix" values="0 0 0 0 0 0 0 0 0 0 0 0 0 0 0 0 0 0 127 0" result="hardAlpha"/>
<feOffset dx="-4.02697" dy="-2.92871"/>
<feGaussianBlur stdDeviation="1.09826"/>
<feComposite in2="hardAlpha" operator="arithmetic" k2="-1" k3="1"/>
<feColorMatrix type="matrix" values="0 0 0 0 0 0 0 0 0 0 0 0 0 0 0 0 0 0 0.25 0"/>
<feBlend mode="normal" in2="shape" result="effect1_innerShadow_2756_156"/>
</filter>
<filter id="filter2_i_2756_156" x="212.935" y="22.9834" width="14.3368" height="15.2441" filterUnits="userSpaceOnUse" color-interpolation-filters="sRGB">
<feFlood flood-opacity="0" result="BackgroundImageFix"/>
<feBlend mode="normal" in="SourceGraphic" in2="BackgroundImageFix" result="shape"/>
<feColorMatrix in="SourceAlpha" type="matrix" values="0 0 0 0 0 0 0 0 0 0 0 0 0 0 0 0 0 0 127 0" result="hardAlpha"/>
<feOffset dx="-0.366088" dy="-1.46435"/>
<feGaussianBlur stdDeviation="0.732177"/>
<feComposite in2="hardAlpha" operator="arithmetic" k2="-1" k3="1"/>
<feColorMatrix type="matrix" values="0 0 0 0 0 0 0 0 0 0 0 0 0 0 0 0 0 0 0.25 0"/>
<feBlend mode="normal" in2="shape" result="effect1_innerShadow_2756_156"/>
</filter>
<filter id="filter3_i_2756_156" x="232.653" y="3.84473" width="14.3368" height="16.0098" filterUnits="userSpaceOnUse" color-interpolation-filters="sRGB">
<feFlood flood-opacity="0" result="BackgroundImageFix"/>
<feBlend mode="normal" in="SourceGraphic" in2="BackgroundImageFix" result="shape"/>
<feColorMatrix in="SourceAlpha" type="matrix" values="0 0 0 0 0 0 0 0 0 0 0 0 0 0 0 0 0 0 127 0" result="hardAlpha"/>
<feOffset dx="-0.366088" dy="-1.46435"/>
<feGaussianBlur stdDeviation="0.732177"/>
<feComposite in2="hardAlpha" operator="arithmetic" k2="-1" k3="1"/>
<feColorMatrix type="matrix" values="0 0 0 0 0 0 0 0 0 0 0 0 0 0 0 0 0 0 0.25 0"/>
<feBlend mode="normal" in2="shape" result="effect1_innerShadow_2756_156"/>
</filter>
<filter id="filter4_i_2756_156" x="206.428" y="81.0874" width="37.4567" height="31.7822" filterUnits="userSpaceOnUse" color-interpolation-filters="sRGB">
<feFlood flood-opacity="0" result="BackgroundImageFix"/>
<feBlend mode="normal" in="SourceGraphic" in2="BackgroundImageFix" result="shape"/>
<feColorMatrix in="SourceAlpha" type="matrix" values="0 0 0 0 0 0 0 0 0 0 0 0 0 0 0 0 0 0 127 0" result="hardAlpha"/>
<feOffset dx="7.3433" dy="-0.73433"/>
<feGaussianBlur stdDeviation="2.93732"/>
<feComposite in2="hardAlpha" operator="arithmetic" k2="-1" k3="1"/>
<feColorMatrix type="matrix" values="0 0 0 0 0 0 0 0 0 0 0 0 0 0 0 0 0 0 0.25 0"/>
<feBlend mode="normal" in2="shape" result="effect1_innerShadow_2756_156"/>
</filter>
<filter id="filter5_i_2756_156" x="217.662" y="77.5391" width="6.80655" height="7.43546" filterUnits="userSpaceOnUse" color-interpolation-filters="sRGB">
<feFlood flood-opacity="0" result="BackgroundImageFix"/>
<feBlend mode="normal" in="SourceGraphic" in2="BackgroundImageFix" result="shape"/>
<feColorMatrix in="SourceAlpha" type="matrix" values="0 0 0 0 0 0 0 0 0 0 0 0 0 0 0 0 0 0 127 0" result="hardAlpha"/>
<feOffset dx="1.46866" dy="1.46866"/>
<feGaussianBlur stdDeviation="1.46866"/>
<feComposite in2="hardAlpha" operator="arithmetic" k2="-1" k3="1"/>
<feColorMatrix type="matrix" values="0 0 0 0 0 0 0 0 0 0 0 0 0 0 0 0 0 0 0.25 0"/>
<feBlend mode="normal" in2="shape" result="effect1_innerShadow_2756_156"/>
</filter>
<filter id="filter6_i_2756_156" x="223.514" y="80.4204" width="7.7793" height="7.11799" filterUnits="userSpaceOnUse" color-interpolation-filters="sRGB">
<feFlood flood-opacity="0" result="BackgroundImageFix"/>
<feBlend mode="normal" in="SourceGraphic" in2="BackgroundImageFix" result="shape"/>
<feColorMatrix in="SourceAlpha" type="matrix" values="0 0 0 0 0 0 0 0 0 0 0 0 0 0 0 0 0 0 127 0" result="hardAlpha"/>
<feOffset dy="2.93732"/>
<feGaussianBlur stdDeviation="1.46866"/>
<feComposite in2="hardAlpha" operator="arithmetic" k2="-1" k3="1"/>
<feColorMatrix type="matrix" values="0 0 0 0 0 0 0 0 0 0 0 0 0 0 0 0 0 0 0.25 0"/>
<feBlend mode="normal" in2="shape" result="effect1_innerShadow_2756_156"/>
</filter>
<filter id="filter7_i_2756_156" x="218.199" y="96.3345" width="30.1679" height="16.2749" filterUnits="userSpaceOnUse" color-interpolation-filters="sRGB">
<feFlood flood-opacity="0" result="BackgroundImageFix"/>
<feBlend mode="normal" in="SourceGraphic" in2="BackgroundImageFix" result="shape"/>
<feColorMatrix in="SourceAlpha" type="matrix" values="0 0 0 0 0 0 0 0 0 0 0 0 0 0 0 0 0 0 127 0" result="hardAlpha"/>
<feOffset dx="1.46866" dy="-0.73433"/>
<feGaussianBlur stdDeviation="2.20299"/>
<feComposite in2="hardAlpha" operator="arithmetic" k2="-1" k3="1"/>
<feColorMatrix type="matrix" values="0 0 0 0 0 0 0 0 0 0 0 0 0 0 0 0 0 0 0.25 0"/>
<feBlend mode="normal" in2="shape" result="effect1_innerShadow_2756_156"/>
</filter>
<filter id="filter8_i_2756_156" x="32.2402" y="149.45" width="21.0478" height="13.2489" filterUnits="userSpaceOnUse" color-interpolation-filters="sRGB">
<feFlood flood-opacity="0" result="BackgroundImageFix"/>
<feBlend mode="normal" in="SourceGraphic" in2="BackgroundImageFix" result="shape"/>
<feColorMatrix in="SourceAlpha" type="matrix" values="0 0 0 0 0 0 0 0 0 0 0 0 0 0 0 0 0 0 127 0" result="hardAlpha"/>
<feOffset dx="1.52826" dy="2.13956"/>
<feGaussianBlur stdDeviation="0.916954"/>
<feComposite in2="hardAlpha" operator="arithmetic" k2="-1" k3="1"/>
<feColorMatrix type="matrix" values="0 0 0 0 0 0 0 0 0 0 0 0 0 0 0 0 0 0 0.25 0"/>
<feBlend mode="normal" in2="shape" result="effect1_innerShadow_2756_156"/>
</filter>
<filter id="filter9_i_2756_156" x="17.3457" y="158.719" width="37.5878" height="33.2231" filterUnits="userSpaceOnUse" color-interpolation-filters="sRGB">
<feFlood flood-opacity="0" result="BackgroundImageFix"/>
<feBlend mode="normal" in="SourceGraphic" in2="BackgroundImageFix" result="shape"/>
<feColorMatrix in="SourceAlpha" type="matrix" values="0 0 0 0 0 0 0 0 0 0 0 0 0 0 0 0 0 0 127 0" result="hardAlpha"/>
<feOffset dx="6.41867" dy="0.611302"/>
<feGaussianBlur stdDeviation="1.52826"/>
<feComposite in2="hardAlpha" operator="arithmetic" k2="-1" k3="1"/>
<feColorMatrix type="matrix" values="0 0 0 0 0 0 0 0 0 0 0 0 0 0 0 0 0 0 0.25 0"/>
<feBlend mode="normal" in2="shape" result="effect1_innerShadow_2756_156"/>
</filter>
<filter id="filter10_d_2756_156" x="26.5694" y="153" width="12.6717" height="13.8397" filterUnits="userSpaceOnUse" color-interpolation-filters="sRGB">
<feFlood flood-opacity="0" result="BackgroundImageFix"/>
<feColorMatrix in="SourceAlpha" type="matrix" values="0 0 0 0 0 0 0 0 0 0 0 0 0 0 0 0 0 0 127 0" result="hardAlpha"/>
<feOffset dx="0.305651" dy="1.52826"/>
<feGaussianBlur stdDeviation="0.916954"/>
<feComposite in2="hardAlpha" operator="out"/>
<feColorMatrix type="matrix" values="0 0 0 0 0 0 0 0 0 0 0 0 0 0 0 0 0 0 0.25 0"/>
<feBlend mode="normal" in2="BackgroundImageFix" result="effect1_dropShadow_2756_156"/>
<feBlend mode="normal" in="SourceGraphic" in2="effect1_dropShadow_2756_156" result="shape"/>
</filter>
</defs>
</svg>
