<svg width="261" height="179" viewBox="0 0 261 179" fill="none" xmlns="http://www.w3.org/2000/svg">
<path d="M15.8316 16.7876V1.58051C17.0519 1.14244 19.7554 0.529153 20.8068 1.58051V2.80087C22.0584 2.58184 24.8432 2.40661 25.9697 3.45797V4.86603C27.1587 4.61571 29.8184 4.35913 30.9448 5.33539V6.36797C32.8973 5.61703 34.0738 6.68085 34.418 7.30663V26.2685C33.592 34.6043 24.4364 36.6882 19.9619 36.6882C11.3258 37.4392 6.53838 30.0547 5.22419 26.2685L1 10.3105C1.67587 7.00624 4.59838 6.93115 5.97516 7.30663L9.63612 20.0731L15.8316 16.7876Z" fill="#ECC19C"/>
<path d="M20.8068 14.0654V2.80087M20.8068 2.80087V1.58051C19.7554 0.529153 17.0519 1.14244 15.8316 1.58051V16.7876L9.63612 20.0731L5.97516 7.30663C4.59838 6.93115 1.67587 7.00624 1 10.3105L5.22419 26.2685C6.53838 30.0547 11.3258 37.4392 19.9619 36.6882C24.4364 36.6882 33.592 34.6043 34.418 26.2685V7.30663C34.0738 6.68085 32.8973 5.61703 30.9448 6.36797M20.8068 2.80087C22.0584 2.58184 24.8432 2.40661 25.9697 3.45797V4.86603M25.9697 12.7512V4.86603M25.9697 4.86603C27.1587 4.61571 29.8184 4.35913 30.9448 5.33539V6.36797M30.9448 12.7512V6.36797" stroke="black" stroke-width="0.563225"/>
<path d="M5.13281 25.5166C9.92023 30.4918 21.5414 37.701 29.727 26.7369M14.8015 30.0224L13.7689 33.4018M18.7441 30.0224V34.1527M22.9683 30.0224L24.0009 33.4018" stroke="#FF3B65" stroke-width="0.563225"/>
<path d="M15.7391 1.67366C10.2571 0.847599 6.94656 5.0843 5.97656 7.30592L9.7314 20.0724L15.7391 16.693V1.67366Z" fill="#DFB28B" stroke="black" stroke-width="0.563225"/>
<path d="M6.82031 10.1226C8.63515 7.90102 12.9782 3.77696 15.8319 5.0536" stroke="black" stroke-width="0.563225"/>
<path d="M12.3588 18.571L10.5753 6.64941C9.67411 7.0249 7.63398 9.12135 6.72656 10.1226L9.8243 20.0729L12.3588 18.571Z" fill="#EFF3F9" stroke="black" stroke-width="0.375484"/>
<path d="M13.9548 17.7268L12.6406 5.33582C14.1426 4.50976 15.3942 4.86646 15.8322 5.14808V16.6942L13.9548 17.7268Z" fill="#EFF3F9" stroke="black" stroke-width="0.375484"/>
<path d="M7.57031 12.7513L11.1374 10.3106M8.32128 15.3797L11.5129 13.3145M9.16612 17.7264L11.8884 16.0368M13.1087 9.55967L15.8309 7.96387M13.2964 12.7513L15.8309 11.2493M13.7658 15.3797L15.8309 14.1593" stroke="black" stroke-width="0.563225"/>
<g filter="url(#filter0_i_652_134)">
<circle cx="28.1438" cy="21.2005" r="8.54225" fill="#EFF3F9"/>
</g>
<path d="M27.9659 29.7427C28.0853 26.6762 30.0447 20.5553 36.6873 21.0809M26.8906 27.6519H29.3995M27.7269 24.9638L30.1164 25.5611M29.1009 22.5146L31.55 23.7691M31.2514 21.081L33.1629 22.5146M33.9395 20.0654L35.1342 21.8575" stroke="#FF3B65" stroke-width="0.59736"/>
<path d="M28.323 12.6582C28.5022 15.2269 26.9133 20.615 19.6016 21.3797M21.5729 19.8863L22.0507 22.0965M23.6636 19.1097L24.5597 21.1407M24.9778 17.8552L26.6504 19.7668M26.292 16.3021L28.4425 17.1384M26.7699 14.3905L29.2788 14.5698" stroke="#FF3B65" stroke-width="0.59736"/>
<path d="M96.6875 20.3951C97.0388 24.435 99.4198 27.7382 100.566 28.8848L110.593 29.4703C111.94 26.0159 113.374 22.3711 113.813 20.9806C114.926 18.2873 113.106 14.9304 112.789 13.8814C111.091 14.4084 110.227 15.8087 110.008 16.443C110.652 11.5833 109.739 8.95349 109.203 8.24601C107.563 9.12426 107.104 10.466 107.08 11.0271C107.08 8.74368 105.763 6.41633 105.104 5.53809C103.699 7.06038 103.348 9.29503 103.348 10.2221C103.289 8.40702 102.591 7.61172 102.25 7.44095C99.4979 9.25599 99.737 13.7107 100.2 15.7111C99.3222 14.3645 98.1268 13.2471 97.6389 12.8568C96.7021 17.0724 98.6636 20.8098 99.7614 22.1516C98.2976 20.8049 97.1022 20.4195 96.6875 20.3951Z" fill="#A2B84B" stroke="black" stroke-width="0.585497"/>
<path d="M117.695 17.9811C116.934 17.1029 116.011 17.3224 115.645 17.542C112.718 16.9565 112.328 19.7376 112.499 21.2014C110.684 21.8454 111.157 23.8117 111.62 24.7144C108.4 25.5926 108.961 28.6421 109.644 30.057H132.552L133.137 28.886C133.898 26.7782 132.381 25.9586 131.527 25.8122C133.284 22.6505 131.381 20.4939 130.21 19.8108C129.917 18.2885 128.868 18.2983 128.38 18.4935C127.795 17.2054 126.38 17.6152 125.745 17.9811C124.809 16.3417 122.867 17.0053 122.013 17.542C119.671 15.3171 118.158 16.9077 117.695 17.9811Z" fill="#C4D166" stroke="black" stroke-width="0.585497"/>
<path d="M134.162 28.8125H97.4219L100.569 38.6196H131.308L134.162 28.8125Z" fill="#93999D" stroke="black" stroke-width="0.585497"/>
<path d="M111.77 16.0039C111.302 16.9407 111.575 18.1995 111.77 18.7118C110.716 18.7118 110.062 19.3461 109.867 19.6633C110.101 20.7757 111.233 21.005 111.77 20.9806C111.419 22.0345 111.917 22.8835 112.209 23.1762C113.38 22.942 113.868 22.1516 113.966 21.7857C114.844 22.137 116.088 21.9321 116.6 21.7857C116.776 20.9074 115.942 20.0048 115.503 19.6633C116.322 18.9021 116.43 18.1751 116.381 17.9068C115.385 17.3798 114.356 17.6872 113.966 17.9068C113.497 16.8529 112.307 16.1991 111.77 16.0039Z" fill="#F8ADDF" stroke="black" stroke-width="0.585497"/>
<path d="M117.1 22.1193C117.11 23.1666 117.927 24.1628 118.334 24.5299C117.396 25.01 117.103 25.8726 117.073 26.2439C117.789 27.1274 118.901 26.8158 119.368 26.5496C119.535 27.6477 120.365 28.1768 120.759 28.3041C121.694 27.5621 121.769 26.6362 121.689 26.266C122.631 26.1786 123.645 25.4293 124.034 25.0656C123.79 24.2038 122.637 23.7804 122.09 23.6764C122.473 22.6254 122.237 21.9294 122.072 21.7127C120.945 21.6971 120.169 22.4397 119.922 22.813C119.024 22.0883 117.667 22.0486 117.1 22.1193Z" fill="#F8ADDF" stroke="black" stroke-width="0.585497"/>
<path d="M126.227 15.8766C125.629 16.7362 125.718 18.0212 125.837 18.5563C124.794 18.4045 124.056 18.938 123.817 19.2237C123.888 20.3583 124.976 20.7483 125.51 20.8015C125.011 21.7938 125.381 22.7056 125.628 23.0374C126.821 22.9743 127.418 22.2624 127.567 21.9143C128.385 22.3884 129.646 22.3648 130.174 22.2937C130.474 21.45 129.779 20.4366 129.393 20.0353C130.314 19.4002 130.525 18.6962 130.515 18.4236C129.606 17.7588 128.543 17.9148 128.125 18.0758C127.814 16.9655 126.73 16.147 126.227 15.8766Z" fill="#F8ADDF" stroke="black" stroke-width="0.585497"/>
<circle cx="113.368" cy="19.8099" r="0.51231" stroke="black" stroke-width="0.585497"/>
<circle cx="120.263" cy="24.7727" r="0.51231" transform="rotate(-27.1028 120.263 24.7727)" stroke="black" stroke-width="0.585497"/>
<circle cx="127.267" cy="19.8726" r="0.51231" transform="rotate(8.28036 127.267 19.8726)" stroke="black" stroke-width="0.585497"/>
<path d="M121.133 6.49023C121.523 7.58804 122.07 11.1888 121.133 16.8096" stroke="black" stroke-width="0.585497"/>
<path d="M121.137 6.48904C118.357 6.62138 118.014 3.41518 118.209 1.5855L119.966 2.90287L121.137 1L121.942 2.75649L123.918 1.87825C124.152 5.44978 122.161 6.44024 121.137 6.48904Z" fill="#ED67C0" stroke="black" stroke-width="0.585497"/>
<path d="M121.652 11.247C121.627 10.4176 120.861 8.7294 117.992 8.6123C118.285 9.71011 119.427 11.774 121.652 11.247Z" fill="#6D860C" stroke="black" stroke-width="0.585497"/>
<path d="M121.653 12.2724C121.678 11.443 122.444 9.75479 125.312 9.6377C125.02 10.7355 123.878 12.7994 121.653 12.2724Z" fill="#6D860C" stroke="black" stroke-width="0.585497"/>
<g filter="url(#filter1_i_652_134)">
<path d="M224.74 1.25312C213.421 -0.190715 191.509 3.85201 194.42 31.5736C206.201 32.7286 228.76 28.2816 224.74 1.25312Z" fill="#B5633A"/>
</g>
<g filter="url(#filter2_i_652_134)">
<path d="M203.951 31.2276L194.422 21.8716L195.115 18.7529L207.07 30.7079L203.951 31.2276Z" fill="#F3D19F"/>
</g>
<g filter="url(#filter3_i_652_134)">
<path d="M224.402 14.5935L212.273 1.94556L215.219 1.42578L224.921 11.6481L224.402 14.5935Z" fill="#F3D19F"/>
</g>
<path d="M202.562 23.0836L216.597 9.56934M202.562 19.6184L206.201 23.0836M205.508 17.1928L208.627 20.1382M207.934 14.5939L211.052 17.8858M210.532 12.1682L213.651 15.2869M213.651 9.56934L216.597 12.8613" stroke="#F3D19F" stroke-width="1.38608"/>
<path d="M11.1562 66.6929C11.5174 63.6683 13.9461 57.6191 20.7717 57.6191C23.0288 57.6191 28.0307 59.4339 29.9808 66.6929" stroke="#C69312" stroke-width="1.35429"/>
<path d="M2.07679 66.6924H39.0488C39.9517 67.3244 41.2157 69.0488 39.0488 70.8907H37.5594L36.1249 76.8495L34.2991 84.4335L32.2777 92.8301H26.1157H14.672H8.44223L6.42083 84.4335L4.59505 76.8495L3.16051 70.8907H2.07679C1.26422 70.3038 0.126618 68.6426 2.07679 66.6924Z" fill="#F4C80F"/>
<path d="M3.16051 70.8907H2.07679C1.26422 70.3038 0.126618 68.6426 2.07679 66.6924H39.0488C39.9517 67.3244 41.2157 69.0488 39.0488 70.8907H37.5594M3.16051 70.8907H14.672M3.16051 70.8907L4.59505 76.8495M37.5594 70.8907H26.1157M37.5594 70.8907L36.1249 76.8495M14.672 70.8907V92.8301M14.672 70.8907H26.1157M14.672 92.8301H8.44223L6.42083 84.4335M14.672 92.8301H26.1157M26.1157 70.8907V92.8301M26.1157 92.8301H32.2777L34.2991 84.4335M4.59505 76.8495H36.1249M4.59505 76.8495L6.42083 84.4335M36.1249 76.8495L34.2991 84.4335M34.2991 84.4335H6.42083" stroke="#C69312" stroke-width="1.35429"/>
<path d="M121.898 57.6562C121.498 60.7213 118.178 64.9859 116.567 66.735C114.985 65.9021 111.686 62.9202 111.153 57.6562C109.543 57.7117 106.139 58.7723 105.406 62.5704C105.406 66.4851 105.823 75.3141 104.074 80.8947C103.962 82.2273 104.423 84.4929 107.155 82.8937L100.242 98.7192C101.603 98.3583 104.757 97.853 106.489 98.7192V100.968C108.21 100.302 112.22 99.3689 114.485 100.968C115.651 100.33 118.783 99.4355 121.981 100.968C123.009 100.274 125.546 99.1357 127.479 100.135C128.228 99.1912 130.344 97.5864 132.809 98.7192L125.979 82.8937C128.711 84.4929 129.45 82.2273 129.478 80.8947C126.812 76.4302 127.257 66.8183 127.812 62.5704C127.545 58.106 123.758 57.4341 121.898 57.6562Z" fill="#FF7DAC"/>
<path d="M107.155 82.8937C104.423 84.4929 103.962 82.2273 104.074 80.8947C105.823 75.3141 105.406 66.4851 105.406 62.5704C106.139 58.7723 109.543 57.7117 111.153 57.6562C111.686 62.9202 114.985 65.9021 116.567 66.735C118.178 64.9859 121.498 60.7213 121.898 57.6562C123.758 57.4341 127.545 58.106 127.812 62.5704C127.257 66.8183 126.812 76.4302 129.478 80.8947C129.45 82.2273 128.711 84.4929 125.979 82.8937M107.155 82.8937L109.238 77.7296V71.3994C108.044 70.15 106.372 66.8683 109.238 63.7365M107.155 82.8937L100.242 98.7192C101.603 98.3583 104.757 97.853 106.489 98.7192V100.968C108.21 100.302 112.22 99.3689 114.485 100.968C115.651 100.33 118.783 99.4355 121.981 100.968C123.009 100.274 125.546 99.1357 127.479 100.135C128.228 99.1912 130.344 97.5864 132.809 98.7192L125.979 82.8937M125.979 82.8937L123.397 77.7296V71.3994C124.647 70.1223 126.396 66.8017 123.397 63.7365M111.153 79.7286L107.155 97.3865M114.485 79.7286L112.736 97.3865M118.15 79.7286L119.816 97.3865M121.898 79.7286L125.979 97.3865" stroke="black" stroke-width="0.381623"/>
<path d="M121.646 58.1562H111.234C111.834 63.4203 115.038 66.069 116.565 66.7353C119.697 63.6035 121.257 59.711 121.646 58.1562Z" fill="#FC5E8F" stroke="black" stroke-width="0.381623"/>
<g filter="url(#filter4_i_652_134)">
<ellipse cx="209.112" cy="78.062" rx="16.2992" ry="16.0229" fill="#FBC302"/>
</g>
<g filter="url(#filter5_i_652_134)">
<path d="M209.665 63.6968C207.823 64.0651 204.195 63.3653 204.416 57.6191C206.718 57.8033 210.992 59.2767 209.665 63.6968Z" fill="#87C607"/>
</g>
<g filter="url(#filter6_i_652_134)">
<path d="M210.449 62.6862C211.408 61.071 214.355 58.8429 218.478 62.8519C216.8 64.4398 212.846 66.6297 210.449 62.6862Z" fill="#87C607"/>
</g>
<path d="M208.568 69.5476C208.596 69.8515 208.865 70.0754 209.169 70.0478C209.472 70.0202 209.696 69.7514 209.669 69.4475L208.568 69.5476ZM219.643 57.3429C217.619 57.2465 214.634 57.7328 212.252 59.5403C209.832 61.3764 208.111 64.5175 208.568 69.5476L209.669 69.4475C209.242 64.7533 210.837 62.001 212.92 60.4207C215.04 58.8119 217.746 58.3588 219.59 58.4467L219.643 57.3429Z" fill="#4C8801"/>
<g filter="url(#filter7_i_652_134)">
<path d="M234.574 78.0615H205.015C204.13 91.1009 214.407 93.9924 219.656 93.8082C232.032 93.3662 234.758 83.1262 234.574 78.0615Z" fill="#FCF38A"/>
<path d="M219.109 91.0457C209.163 91.4877 207.045 82.758 207.229 78.3379H231.264C229.496 89.3882 222.424 91.4141 219.109 91.0457Z" fill="#FABA01"/>
<path d="M209.156 86.3494C209.377 86.3494 215.326 81.0084 218.273 78.3379M219.378 78.3379V91.322M220.759 78.3379L228.494 86.3494" stroke="#FCF38A" stroke-width="1.10503"/>
</g>
<g filter="url(#filter8_i_652_134)">
<path d="M14.5469 128.289C15.9849 124.477 21.2887 117.635 31.0001 120.765C29.9634 124.845 25.2214 132.061 14.5469 128.289Z" fill="#9CDF00"/>
</g>
<g filter="url(#filter9_i_652_134)">
<path d="M2.07756 144.34C-2.41698 130.776 8.23079 128.121 14.1165 128.489H17.5277C23.5137 127.619 34.4424 129.572 30.2689 144.34C26.0954 159.108 19.2591 157.388 16.2235 155.677C13.3809 157.549 6.5721 157.904 2.07756 144.34Z" fill="#F75749"/>
</g>
<g filter="url(#filter10_d_652_134)">
<path d="M14.3341 131.7C15.1367 127.607 12.4614 125.313 11.0234 124.677C12.9296 122.838 16.9626 121.668 17.8455 131.7H14.3341Z" fill="#507511"/>
</g>
<path d="M117.99 124.323V119.968H105.548V124.323H107.858C104.896 125.745 98.9706 129.913 98.9706 135.21V153.652C98.9262 155.859 98.3041 159.74 103.103 160.273C104.057 160.379 108.036 160.273 109.902 160.273H120.212C123.838 160.131 124.448 155.799 124.3 153.652V135.21C124.514 129.806 118.879 125.7 116.035 124.323H117.99Z" fill="#8AC9FE"/>
<path d="M116.035 124.323H117.99V119.968H105.548V124.323H107.858M116.035 124.323C118.879 125.7 124.514 129.806 124.3 135.21V153.652C124.448 155.799 123.838 160.131 120.212 160.273H109.902C108.036 160.273 104.057 160.379 103.103 160.273C98.3041 159.74 98.9262 155.859 98.9706 153.652V135.21C98.9706 129.913 104.896 125.745 107.858 124.323M116.035 124.323H107.858" stroke="black" stroke-width="0.258706" stroke-linecap="round"/>
<rect x="-0.129353" y="0.129353" width="25.0708" height="18.3163" transform="matrix(-1 0 0 1 124.062 135.255)" fill="#FFD364" stroke="black" stroke-width="0.258706"/>
<rect x="-0.129353" y="0.129353" width="12.1839" height="4.0962" rx="0.759404" transform="matrix(-1 0 0 1 117.757 119.968)" fill="#FE866E" stroke="black" stroke-width="0.258706"/>
<path d="M113.425 142.678V139.434H110.003V142.678H106.537V146.188H110.003V149.61H113.425V146.188H116.758V142.678H113.425Z" fill="#FE866E" stroke="black" stroke-width="0.258706" stroke-linecap="round"/>
<rect x="-0.17621" y="0.0491358" width="23.8266" height="9.07324" rx="4.53662" transform="matrix(-0.871051 -0.491192 -0.491192 0.871051 116.452 156.428)" fill="#FD4755" stroke="black" stroke-width="0.258706"/>
<path d="M112.63 154.329L106.743 151.009L102.286 158.912L108.173 162.232C110.356 163.463 113.123 162.691 114.353 160.509C115.584 158.326 114.812 155.559 112.63 154.329Z" fill="#ECEFF1" stroke="black" stroke-width="0.258706"/>
<path fill-rule="evenodd" clip-rule="evenodd" d="M187.882 126.519C189.521 127.356 192.45 127.817 195.804 127.061C195.77 128.17 195.772 129.333 195.819 130.533C195.232 130.708 194.662 130.896 194.11 131.095C189.648 132.702 186.315 135.04 184.323 137.232C184.321 137.127 184.32 137.021 184.32 136.915C184.32 132.997 185.65 129.389 187.882 126.519ZM189.265 124.951C191.239 122.97 193.7 121.475 196.454 120.661C196.226 121.887 196.032 123.352 195.912 124.982C193.1 125.731 190.662 125.472 189.265 124.951ZM198.572 120.181L198.585 120.184C198.341 121.282 198.121 122.673 197.972 124.267C199.869 123.45 201.854 122.143 203.75 120.148C202.939 120.029 202.111 119.968 201.267 119.968C200.35 119.968 199.449 120.041 198.572 120.181ZM205.995 120.636C203.386 123.674 200.526 125.487 197.821 126.469C197.771 127.59 197.759 128.777 197.796 130.008C203.008 128.791 209.424 128.573 216.885 130.324C214.914 125.661 210.916 122.063 205.995 120.636ZM217.64 132.526L217.631 132.563C209.769 130.517 203.137 130.749 197.901 132.033C197.997 133.333 198.152 134.667 198.379 136.009C198.423 136.27 198.47 136.532 198.52 136.793C203.292 135.313 209.596 136.279 217.536 141.675C217.977 140.165 218.214 138.567 218.214 136.915C218.214 135.397 218.014 133.926 217.64 132.526ZM216.838 143.615C208.908 138.103 203.065 137.41 198.946 138.751C200.265 144.106 202.851 149.239 207.463 152.693C211.669 151.04 215.055 147.754 216.838 143.615ZM205.17 153.41C200.857 149.717 198.399 144.663 197.09 139.545C193.012 141.74 190.748 146.17 190.094 149.657C193.077 152.274 196.987 153.861 201.267 153.861C202.61 153.861 203.917 153.705 205.17 153.41ZM188.436 147.986C189.457 144.269 191.992 139.914 196.384 137.664C196.467 137.622 196.55 137.58 196.634 137.539C196.554 137.139 196.481 136.74 196.413 136.341C196.199 135.074 196.046 133.814 195.944 132.58C195.549 132.704 195.163 132.835 194.786 132.97C189.265 134.959 185.834 138.042 184.626 140.137C185.197 143.101 186.539 145.79 188.436 147.986Z" fill="#ED892D"/>
<defs>
<filter id="filter0_i_652_134" x="18.5338" y="11.8219" width="18.1537" height="17.9213" filterUnits="userSpaceOnUse" color-interpolation-filters="sRGB">
<feFlood flood-opacity="0" result="BackgroundImageFix"/>
<feBlend mode="normal" in="SourceGraphic" in2="BackgroundImageFix" result="shape"/>
<feColorMatrix in="SourceAlpha" type="matrix" values="0 0 0 0 0 0 0 0 0 0 0 0 0 0 0 0 0 0 127 0" result="hardAlpha"/>
<feOffset dx="-1.43366" dy="-0.836304"/>
<feGaussianBlur stdDeviation="0.533891"/>
<feComposite in2="hardAlpha" operator="arithmetic" k2="-1" k3="1"/>
<feColorMatrix type="matrix" values="0 0 0 0 0 0 0 0 0 0 0 0 0 0 0 0 0 0 0.25 0"/>
<feBlend mode="normal" in2="shape" result="effect1_innerShadow_652_134"/>
</filter>
<filter id="filter1_i_652_134" x="192.707" y="-0.449548" width="32.5042" height="32.1869" filterUnits="userSpaceOnUse" color-interpolation-filters="sRGB">
<feFlood flood-opacity="0" result="BackgroundImageFix"/>
<feBlend mode="normal" in="SourceGraphic" in2="BackgroundImageFix" result="shape"/>
<feColorMatrix in="SourceAlpha" type="matrix" values="0 0 0 0 0 0 0 0 0 0 0 0 0 0 0 0 0 0 127 0" result="hardAlpha"/>
<feOffset dx="-2.6575" dy="-1.93273"/>
<feGaussianBlur stdDeviation="0.724774"/>
<feComposite in2="hardAlpha" operator="arithmetic" k2="-1" k3="1"/>
<feColorMatrix type="matrix" values="0 0 0 0 0 0 0 0 0 0 0 0 0 0 0 0 0 0 0.25 0"/>
<feBlend mode="normal" in2="shape" result="effect1_innerShadow_652_134"/>
</filter>
<filter id="filter2_i_652_134" x="194.18" y="17.7866" width="12.89" height="13.441" filterUnits="userSpaceOnUse" color-interpolation-filters="sRGB">
<feFlood flood-opacity="0" result="BackgroundImageFix"/>
<feBlend mode="normal" in="SourceGraphic" in2="BackgroundImageFix" result="shape"/>
<feColorMatrix in="SourceAlpha" type="matrix" values="0 0 0 0 0 0 0 0 0 0 0 0 0 0 0 0 0 0 127 0" result="hardAlpha"/>
<feOffset dx="-0.241591" dy="-0.966365"/>
<feGaussianBlur stdDeviation="0.483183"/>
<feComposite in2="hardAlpha" operator="arithmetic" k2="-1" k3="1"/>
<feColorMatrix type="matrix" values="0 0 0 0 0 0 0 0 0 0 0 0 0 0 0 0 0 0 0.25 0"/>
<feBlend mode="normal" in2="shape" result="effect1_innerShadow_652_134"/>
</filter>
<filter id="filter3_i_652_134" x="212.032" y="0.459416" width="12.89" height="14.1343" filterUnits="userSpaceOnUse" color-interpolation-filters="sRGB">
<feFlood flood-opacity="0" result="BackgroundImageFix"/>
<feBlend mode="normal" in="SourceGraphic" in2="BackgroundImageFix" result="shape"/>
<feColorMatrix in="SourceAlpha" type="matrix" values="0 0 0 0 0 0 0 0 0 0 0 0 0 0 0 0 0 0 127 0" result="hardAlpha"/>
<feOffset dx="-0.241591" dy="-0.966365"/>
<feGaussianBlur stdDeviation="0.483183"/>
<feComposite in2="hardAlpha" operator="arithmetic" k2="-1" k3="1"/>
<feColorMatrix type="matrix" values="0 0 0 0 0 0 0 0 0 0 0 0 0 0 0 0 0 0 0.25 0"/>
<feBlend mode="normal" in2="shape" result="effect1_innerShadow_652_134"/>
</filter>
<filter id="filter4_i_652_134" x="192.812" y="61.4865" width="37.0217" height="32.5984" filterUnits="userSpaceOnUse" color-interpolation-filters="sRGB">
<feFlood flood-opacity="0" result="BackgroundImageFix"/>
<feBlend mode="normal" in="SourceGraphic" in2="BackgroundImageFix" result="shape"/>
<feColorMatrix in="SourceAlpha" type="matrix" values="0 0 0 0 0 0 0 0 0 0 0 0 0 0 0 0 0 0 127 0" result="hardAlpha"/>
<feOffset dx="5.52515" dy="-0.552515"/>
<feGaussianBlur stdDeviation="2.21006"/>
<feComposite in2="hardAlpha" operator="arithmetic" k2="-1" k3="1"/>
<feColorMatrix type="matrix" values="0 0 0 0 0 0 0 0 0 0 0 0 0 0 0 0 0 0 0.25 0"/>
<feBlend mode="normal" in2="shape" result="effect1_innerShadow_652_134"/>
</filter>
<filter id="filter5_i_652_134" x="204.406" y="57.6191" width="6.61284" height="7.26323" filterUnits="userSpaceOnUse" color-interpolation-filters="sRGB">
<feFlood flood-opacity="0" result="BackgroundImageFix"/>
<feBlend mode="normal" in="SourceGraphic" in2="BackgroundImageFix" result="shape"/>
<feColorMatrix in="SourceAlpha" type="matrix" values="0 0 0 0 0 0 0 0 0 0 0 0 0 0 0 0 0 0 127 0" result="hardAlpha"/>
<feOffset dx="1.10503" dy="1.10503"/>
<feGaussianBlur stdDeviation="1.10503"/>
<feComposite in2="hardAlpha" operator="arithmetic" k2="-1" k3="1"/>
<feColorMatrix type="matrix" values="0 0 0 0 0 0 0 0 0 0 0 0 0 0 0 0 0 0 0.25 0"/>
<feBlend mode="normal" in2="shape" result="effect1_innerShadow_652_134"/>
</filter>
<filter id="filter6_i_652_134" x="210.445" y="60.5938" width="8.03125" height="6.52451" filterUnits="userSpaceOnUse" color-interpolation-filters="sRGB">
<feFlood flood-opacity="0" result="BackgroundImageFix"/>
<feBlend mode="normal" in="SourceGraphic" in2="BackgroundImageFix" result="shape"/>
<feColorMatrix in="SourceAlpha" type="matrix" values="0 0 0 0 0 0 0 0 0 0 0 0 0 0 0 0 0 0 127 0" result="hardAlpha"/>
<feOffset dy="2.21006"/>
<feGaussianBlur stdDeviation="1.10503"/>
<feComposite in2="hardAlpha" operator="arithmetic" k2="-1" k3="1"/>
<feColorMatrix type="matrix" values="0 0 0 0 0 0 0 0 0 0 0 0 0 0 0 0 0 0 0.25 0"/>
<feBlend mode="normal" in2="shape" result="effect1_innerShadow_652_134"/>
</filter>
<filter id="filter7_i_652_134" x="204.961" y="77.3762" width="30.73" height="16.4402" filterUnits="userSpaceOnUse" color-interpolation-filters="sRGB">
<feFlood flood-opacity="0" result="BackgroundImageFix"/>
<feBlend mode="normal" in="SourceGraphic" in2="BackgroundImageFix" result="shape"/>
<feColorMatrix in="SourceAlpha" type="matrix" values="0 0 0 0 0 0 0 0 0 0 0 0 0 0 0 0 0 0 127 0" result="hardAlpha"/>
<feOffset dx="1.10503" dy="-0.552515"/>
<feGaussianBlur stdDeviation="1.65754"/>
<feComposite in2="hardAlpha" operator="arithmetic" k2="-1" k3="1"/>
<feColorMatrix type="matrix" values="0 0 0 0 0 0 0 0 0 0 0 0 0 0 0 0 0 0 0.25 0"/>
<feBlend mode="normal" in2="shape" result="effect1_innerShadow_652_134"/>
</filter>
<filter id="filter8_i_652_134" x="14.5469" y="119.968" width="17.4564" height="10.5828" filterUnits="userSpaceOnUse" color-interpolation-filters="sRGB">
<feFlood flood-opacity="0" result="BackgroundImageFix"/>
<feBlend mode="normal" in="SourceGraphic" in2="BackgroundImageFix" result="shape"/>
<feColorMatrix in="SourceAlpha" type="matrix" values="0 0 0 0 0 0 0 0 0 0 0 0 0 0 0 0 0 0 127 0" result="hardAlpha"/>
<feOffset dx="1.00324" dy="1.40454"/>
<feGaussianBlur stdDeviation="0.601947"/>
<feComposite in2="hardAlpha" operator="arithmetic" k2="-1" k3="1"/>
<feColorMatrix type="matrix" values="0 0 0 0 0 0 0 0 0 0 0 0 0 0 0 0 0 0 0.25 0"/>
<feBlend mode="normal" in2="shape" result="effect1_innerShadow_652_134"/>
</filter>
<filter id="filter9_i_652_134" x="1" y="128.314" width="32.2018" height="28.8681" filterUnits="userSpaceOnUse" color-interpolation-filters="sRGB">
<feFlood flood-opacity="0" result="BackgroundImageFix"/>
<feBlend mode="normal" in="SourceGraphic" in2="BackgroundImageFix" result="shape"/>
<feColorMatrix in="SourceAlpha" type="matrix" values="0 0 0 0 0 0 0 0 0 0 0 0 0 0 0 0 0 0 127 0" result="hardAlpha"/>
<feOffset dx="4.21363" dy="0.401298"/>
<feGaussianBlur stdDeviation="1.00324"/>
<feComposite in2="hardAlpha" operator="arithmetic" k2="-1" k3="1"/>
<feColorMatrix type="matrix" values="0 0 0 0 0 0 0 0 0 0 0 0 0 0 0 0 0 0 0.25 0"/>
<feBlend mode="normal" in2="shape" result="effect1_innerShadow_652_134"/>
</filter>
<filter id="filter10_d_652_134" x="10.0202" y="123.242" width="9.2281" height="10.6656" filterUnits="userSpaceOnUse" color-interpolation-filters="sRGB">
<feFlood flood-opacity="0" result="BackgroundImageFix"/>
<feColorMatrix in="SourceAlpha" type="matrix" values="0 0 0 0 0 0 0 0 0 0 0 0 0 0 0 0 0 0 127 0" result="hardAlpha"/>
<feOffset dx="0.200649" dy="1.00324"/>
<feGaussianBlur stdDeviation="0.601947"/>
<feComposite in2="hardAlpha" operator="out"/>
<feColorMatrix type="matrix" values="0 0 0 0 0 0 0 0 0 0 0 0 0 0 0 0 0 0 0.25 0"/>
<feBlend mode="normal" in2="BackgroundImageFix" result="effect1_dropShadow_652_134"/>
<feBlend mode="normal" in="SourceGraphic" in2="effect1_dropShadow_652_134" result="shape"/>
</filter>
</defs>
</svg>
