<svg width="260" height="179" viewBox="0 0 260 179" fill="none" xmlns="http://www.w3.org/2000/svg">
<path d="M32.7222 16.7876V1.58051C33.9425 1.14244 36.646 0.529153 37.6974 1.58051V2.80087C38.949 2.58184 41.7338 2.40661 42.8603 3.45797V4.86603C44.0493 4.61571 46.709 4.35913 47.8354 5.33539V6.36797C49.7879 5.61703 50.9645 6.68085 51.3087 7.30663V26.2685C50.4826 34.6043 41.3271 36.6882 36.8525 36.6882C28.2164 37.4392 23.429 30.0547 22.1148 26.2685L17.8906 10.3105C18.5665 7.00624 21.489 6.93115 22.8658 7.30663L26.5267 20.0731L32.7222 16.7876Z" fill="#ECC19C"/>
<path d="M37.6974 14.0654V2.80087M37.6974 2.80087V1.58051C36.646 0.529153 33.9425 1.14244 32.7222 1.58051V16.7876L26.5267 20.0731L22.8658 7.30663C21.489 6.93115 18.5665 7.00624 17.8906 10.3105L22.1148 26.2685C23.429 30.0547 28.2164 37.4392 36.8525 36.6882C41.3271 36.6882 50.4826 34.6043 51.3087 26.2685V7.30663C50.9645 6.68085 49.7879 5.61703 47.8354 6.36797M37.6974 2.80087C38.949 2.58184 41.7338 2.40661 42.8603 3.45797V4.86603M42.8603 12.7512V4.86603M42.8603 4.86603C44.0493 4.61571 46.709 4.35913 47.8354 5.33539V6.36797M47.8354 12.7512V6.36797" stroke="black" stroke-width="0.563225"/>
<path d="M22.0234 25.5166C26.8109 30.4918 38.4321 37.701 46.6176 26.7369M31.6921 30.0224L30.6596 33.4018M35.6347 30.0224V34.1527M39.8589 30.0224L40.8915 33.4018" stroke="#FF3B65" stroke-width="0.563225"/>
<path d="M32.6298 1.67366C27.1477 0.847599 23.8372 5.0843 22.8672 7.30592L26.622 20.0724L32.6298 16.693V1.67366Z" fill="#DFB28B" stroke="black" stroke-width="0.563225"/>
<path d="M23.7109 10.1226C25.5258 7.90102 29.8689 3.77696 32.7225 5.0536" stroke="black" stroke-width="0.563225"/>
<path d="M29.2494 18.571L27.4659 6.64941C26.5647 7.0249 24.5246 9.12135 23.6172 10.1226L26.7149 20.0729L29.2494 18.571Z" fill="#EFF3F9" stroke="black" stroke-width="0.375484"/>
<path d="M30.8454 17.7268L29.5312 5.33582C31.0332 4.50976 32.2848 4.86646 32.7229 5.14808V16.6942L30.8454 17.7268Z" fill="#EFF3F9" stroke="black" stroke-width="0.375484"/>
<path d="M24.4609 12.7513L28.028 10.3106M25.2119 15.3797L28.4035 13.3145M26.0567 17.7264L28.779 16.0368M29.9993 9.55967L32.7216 7.96387M30.1871 12.7513L32.7216 11.2493M30.6564 15.3797L32.7216 14.1593" stroke="black" stroke-width="0.563225"/>
<g filter="url(#filter0_i_652_134)">
<circle cx="45.0344" cy="21.2005" r="8.54225" fill="#EFF3F9"/>
</g>
<path d="M44.8565 29.7427C44.976 26.6762 46.9353 20.5553 53.578 21.0809M43.7812 27.6519H46.2902M44.6176 24.9638L47.007 25.5611M45.9915 22.5146L48.4407 23.7691M48.142 21.081L50.0535 22.5146M50.8301 20.0654L52.0248 21.8575" stroke="#FF3B65" stroke-width="0.59736"/>
<path d="M45.2136 12.6582C45.3929 15.2269 43.8039 20.615 36.4922 21.3797M38.4635 19.8863L38.9414 22.0965M40.5542 19.1097L41.4503 21.1407M41.8684 17.8552L43.541 19.7668M43.1826 16.3021L45.3331 17.1384M43.6605 14.3905L46.1694 14.5698" stroke="#FF3B65" stroke-width="0.59736"/>
<path d="M113.578 20.3951C113.929 24.435 116.31 27.7382 117.457 28.8848L127.484 29.4703C128.83 26.0159 130.265 22.3711 130.704 20.9806C131.816 18.2873 129.996 14.9304 129.679 13.8814C127.981 14.4084 127.118 15.8087 126.898 16.443C127.542 11.5833 126.63 8.95349 126.093 8.24601C124.454 9.12426 123.995 10.466 123.971 11.0271C123.971 8.74368 122.653 6.41633 121.995 5.53809C120.589 7.06038 120.238 9.29503 120.238 10.2221C120.18 8.40702 119.482 7.61172 119.14 7.44095C116.389 9.25599 116.628 13.7107 117.091 15.7111C116.213 14.3645 115.017 13.2471 114.53 12.8568C113.593 17.0724 115.554 20.8098 116.652 22.1516C115.188 20.8049 113.993 20.4195 113.578 20.3951Z" fill="#A2B84B" stroke="black" stroke-width="0.585497"/>
<path d="M134.585 17.9811C133.824 17.1029 132.902 17.3224 132.536 17.542C129.608 16.9565 129.218 19.7376 129.389 21.2014C127.574 21.8454 128.047 23.8117 128.511 24.7144C125.291 25.5926 125.852 28.6421 126.535 30.057H149.442L150.028 28.886C150.789 26.7782 149.272 25.9586 148.418 25.8122C150.174 22.6505 148.271 20.4939 147.1 19.8108C146.808 18.2885 145.759 18.2983 145.271 18.4935C144.685 17.2054 143.27 17.6152 142.636 17.9811C141.699 16.3417 139.757 17.0053 138.903 17.542C136.561 15.3171 135.049 16.9077 134.585 17.9811Z" fill="#C4D166" stroke="black" stroke-width="0.585497"/>
<path d="M151.052 28.8125H114.312L117.46 38.6196H148.198L151.052 28.8125Z" fill="#93999D" stroke="black" stroke-width="0.585497"/>
<path d="M128.661 16.0039C128.192 16.9407 128.466 18.1995 128.661 18.7118C127.607 18.7118 126.953 19.3461 126.758 19.6633C126.992 20.7757 128.124 21.005 128.661 20.9806C128.31 22.0345 128.807 22.8835 129.1 23.1762C130.271 22.942 130.759 22.1516 130.856 21.7857C131.735 22.137 132.979 21.9321 133.491 21.7857C133.667 20.9074 132.832 20.0048 132.393 19.6633C133.213 18.9021 133.32 18.1751 133.271 17.9068C132.276 17.3798 131.247 17.6872 130.856 17.9068C130.388 16.8529 129.198 16.1991 128.661 16.0039Z" fill="#F8ADDF" stroke="black" stroke-width="0.585497"/>
<path d="M133.991 22.1193C134.001 23.1666 134.818 24.1628 135.225 24.5299C134.287 25.01 133.993 25.8726 133.964 26.2439C134.679 27.1274 135.792 26.8158 136.258 26.5496C136.426 27.6477 137.255 28.1768 137.649 28.3041C138.585 27.5621 138.659 26.6362 138.579 26.266C139.521 26.1786 140.535 25.4293 140.925 25.0656C140.681 24.2038 139.527 23.7804 138.981 23.6764C139.364 22.6254 139.128 21.9294 138.962 21.7127C137.836 21.6971 137.06 22.4397 136.812 22.813C135.915 22.0883 134.558 22.0486 133.991 22.1193Z" fill="#F8ADDF" stroke="black" stroke-width="0.585497"/>
<path d="M143.118 15.8766C142.519 16.7362 142.608 18.0212 142.728 18.5563C141.685 18.4045 140.946 18.938 140.707 19.2237C140.779 20.3583 141.866 20.7483 142.401 20.8015C141.902 21.7938 142.272 22.7056 142.519 23.0374C143.712 22.9743 144.308 22.2624 144.457 21.9143C145.276 22.3884 146.537 22.3648 147.065 22.2937C147.365 21.45 146.669 20.4366 146.284 20.0353C147.205 19.4002 147.416 18.6962 147.406 18.4236C146.497 17.7588 145.434 17.9148 145.016 18.0758C144.704 16.9655 143.621 16.147 143.118 15.8766Z" fill="#F8ADDF" stroke="black" stroke-width="0.585497"/>
<circle cx="130.258" cy="19.8099" r="0.51231" stroke="black" stroke-width="0.585497"/>
<circle cx="137.154" cy="24.7727" r="0.51231" transform="rotate(-27.1028 137.154 24.7727)" stroke="black" stroke-width="0.585497"/>
<circle cx="144.157" cy="19.8726" r="0.51231" transform="rotate(8.28036 144.157 19.8726)" stroke="black" stroke-width="0.585497"/>
<path d="M138.023 6.49023C138.414 7.58804 138.96 11.1888 138.023 16.8096" stroke="black" stroke-width="0.585497"/>
<path d="M138.027 6.48904C135.247 6.62138 134.905 3.41518 135.1 1.5855L136.856 2.90287L138.027 1L138.832 2.75649L140.808 1.87825C141.043 5.44978 139.052 6.44024 138.027 6.48904Z" fill="#ED67C0" stroke="black" stroke-width="0.585497"/>
<path d="M138.542 11.247C138.518 10.4176 137.752 8.7294 134.883 8.6123C135.176 9.71011 136.317 11.774 138.542 11.247Z" fill="#6D860C" stroke="black" stroke-width="0.585497"/>
<path d="M138.544 12.2724C138.568 11.443 139.334 9.75479 142.203 9.6377C141.91 10.7355 140.769 12.7994 138.544 12.2724Z" fill="#6D860C" stroke="black" stroke-width="0.585497"/>
<g filter="url(#filter1_i_652_134)">
<path d="M241.631 1.25312C230.311 -0.190715 208.4 3.85201 211.31 31.5736C223.092 32.7286 245.65 28.2816 241.631 1.25312Z" fill="#B5633A"/>
</g>
<g filter="url(#filter2_i_652_134)">
<path d="M220.842 31.2276L211.312 21.8716L212.006 18.7529L223.96 30.7079L220.842 31.2276Z" fill="#F3D19F"/>
</g>
<g filter="url(#filter3_i_652_134)">
<path d="M241.292 14.5935L229.164 1.94556L232.109 1.42578L241.812 11.6481L241.292 14.5935Z" fill="#F3D19F"/>
</g>
<path d="M219.453 23.0836L233.487 9.56934M219.453 19.6184L223.092 23.0836M222.399 17.1928L225.517 20.1382M224.824 14.5939L227.943 17.8858M227.423 12.1682L230.542 15.2869M230.542 9.56934L233.487 12.8613" stroke="#F3D19F" stroke-width="1.38608"/>
<path d="M23.3672 66.6929C23.7283 63.6683 26.157 57.6191 32.9826 57.6191C35.2398 57.6191 40.2416 59.4339 42.1918 66.6929" stroke="#C69312" stroke-width="1.35429"/>
<path d="M14.2877 66.6924H51.2598C52.1626 67.3244 53.4266 69.0488 51.2598 70.8907H49.7704L48.3358 76.8495L46.51 84.4335L44.4886 92.8301H38.3266H26.8829H20.6532L18.6318 84.4335L16.806 76.8495L15.3714 70.8907H14.2877C13.4752 70.3038 12.3376 68.6426 14.2877 66.6924Z" fill="#F4C80F"/>
<path d="M15.3714 70.8907H14.2877C13.4752 70.3038 12.3376 68.6426 14.2877 66.6924H51.2598C52.1626 67.3244 53.4266 69.0488 51.2598 70.8907H49.7703M15.3714 70.8907H26.8829M15.3714 70.8907L16.806 76.8495M49.7703 70.8907H38.3266M49.7703 70.8907L48.3358 76.8495M26.8829 70.8907V92.8301M26.8829 70.8907H38.3266M26.8829 92.8301H20.6532L18.6318 84.4335M26.8829 92.8301H38.3266M38.3266 70.8907V92.8301M38.3266 92.8301H44.4886L46.51 84.4335M16.806 76.8495H48.3358M16.806 76.8495L18.6318 84.4335M48.3358 76.8495L46.51 84.4335M46.51 84.4335H18.6318" stroke="#C69312" stroke-width="1.35429"/>
<path d="M134.109 57.6562C133.709 60.7213 130.389 64.9859 128.778 66.735C127.196 65.9021 123.897 62.9202 123.364 57.6562C121.754 57.7117 118.35 58.7723 117.617 62.5704C117.617 66.4851 118.034 75.3141 116.284 80.8947C116.173 82.2273 116.634 84.4929 119.366 82.8937L112.453 98.7192C113.814 98.3583 116.968 97.853 118.7 98.7192V100.968C120.421 100.302 124.431 99.3689 126.696 100.968C127.862 100.33 130.994 99.4355 134.192 100.968C135.22 100.274 137.757 99.1357 139.69 100.135C140.439 99.1912 142.555 97.5864 145.02 98.7192L138.19 82.8937C140.922 84.4929 141.661 82.2273 141.689 80.8947C139.023 76.4302 139.468 66.8183 140.023 62.5704C139.756 58.106 135.969 57.4341 134.109 57.6562Z" fill="#FF7DAC"/>
<path d="M119.366 82.8937C116.634 84.4929 116.173 82.2273 116.284 80.8947C118.034 75.3141 117.617 66.4851 117.617 62.5704C118.35 58.7723 121.754 57.7117 123.364 57.6562C123.897 62.9202 127.196 65.9021 128.778 66.735C130.389 64.9859 133.709 60.7213 134.109 57.6562C135.969 57.4341 139.756 58.106 140.023 62.5704C139.468 66.8183 139.023 76.4302 141.689 80.8947C141.661 82.2273 140.922 84.4929 138.19 82.8937M119.366 82.8937L121.449 77.7296V71.3994C120.255 70.15 118.583 66.8683 121.449 63.7365M119.366 82.8937L112.453 98.7192C113.814 98.3583 116.968 97.853 118.7 98.7192V100.968C120.421 100.302 124.431 99.3689 126.696 100.968C127.862 100.33 130.994 99.4355 134.192 100.968C135.22 100.274 137.757 99.1357 139.69 100.135C140.439 99.1912 142.555 97.5864 145.02 98.7192L138.19 82.8937M138.19 82.8937L135.608 77.7296V71.3994C136.858 70.1223 138.607 66.8017 135.608 63.7365M123.364 79.7286L119.366 97.3865M126.696 79.7286L124.947 97.3865M130.361 79.7286L132.027 97.3865M134.109 79.7286L138.19 97.3865" stroke="black" stroke-width="0.381623"/>
<path d="M133.857 58.1562H123.445C124.045 63.4203 127.249 66.069 128.776 66.7353C131.908 63.6035 133.468 59.711 133.857 58.1562Z" fill="#FC5E8F" stroke="black" stroke-width="0.381623"/>
<g filter="url(#filter4_i_652_134)">
<ellipse cx="221.323" cy="78.062" rx="16.2992" ry="16.0229" fill="#FBC302"/>
</g>
<g filter="url(#filter5_i_652_134)">
<path d="M221.876 63.6968C220.034 64.0651 216.406 63.3653 216.627 57.6191C218.929 57.8033 223.203 59.2767 221.876 63.6968Z" fill="#87C607"/>
</g>
<g filter="url(#filter6_i_652_134)">
<path d="M222.66 62.6862C223.619 61.071 226.566 58.8429 230.689 62.8519C229.011 64.4398 225.057 66.6297 222.66 62.6862Z" fill="#87C607"/>
</g>
<path d="M220.779 69.5476C220.807 69.8515 221.076 70.0754 221.379 70.0478C221.683 70.0202 221.907 69.7514 221.88 69.4475L220.779 69.5476ZM231.854 57.3429C229.83 57.2465 226.845 57.7328 224.463 59.5403C222.043 61.3764 220.322 64.5175 220.779 69.5476L221.88 69.4475C221.453 64.7533 223.047 62.001 225.13 60.4207C227.251 58.8119 229.957 58.3588 231.801 58.4467L231.854 57.3429Z" fill="#4C8801"/>
<g filter="url(#filter7_i_652_134)">
<path d="M246.785 78.0615H217.225C216.341 91.1009 226.618 93.9924 231.867 93.8082C244.243 93.3662 246.969 83.1262 246.785 78.0615Z" fill="#FCF38A"/>
<path d="M231.319 91.0457C221.374 91.4877 219.256 82.758 219.44 78.3379H243.475C241.707 89.3882 234.635 91.4141 231.319 91.0457Z" fill="#FABA01"/>
<path d="M221.367 86.3494C221.588 86.3494 227.537 81.0084 230.484 78.3379M231.589 78.3379V91.322M232.97 78.3379L240.705 86.3494" stroke="#FCF38A" stroke-width="1.10503"/>
</g>
<g filter="url(#filter8_i_652_134)">
<path d="M34.9375 128.289C36.3755 124.477 41.6793 117.635 51.3907 120.765C50.354 124.845 45.612 132.061 34.9375 128.289Z" fill="#9CDF00"/>
</g>
<g filter="url(#filter9_i_652_134)">
<path d="M22.4682 144.34C17.9736 130.776 28.6214 128.121 34.5071 128.489H37.9183C43.9043 127.619 54.833 129.572 50.6595 144.34C46.486 159.108 39.6497 157.388 36.6141 155.677C33.7715 157.549 26.9627 157.904 22.4682 144.34Z" fill="#F75749"/>
</g>
<g filter="url(#filter10_d_652_134)">
<path d="M34.7248 131.7C35.5274 127.607 32.852 125.313 31.4141 124.677C33.3202 122.838 37.3533 121.668 38.2361 131.7H34.7248Z" fill="#507511"/>
</g>
<path d="M138.381 124.323V119.968H125.938V124.323H128.249C125.286 125.745 119.361 129.913 119.361 135.21V153.652C119.317 155.859 118.695 159.74 123.494 160.273C124.448 160.379 128.427 160.273 130.293 160.273H140.603C144.229 160.131 144.839 155.799 144.691 153.652V135.21C144.904 129.806 139.27 125.7 136.426 124.323H138.381Z" fill="#8AC9FE"/>
<path d="M136.426 124.323H138.381V119.968H125.938V124.323H128.249M136.426 124.323C139.27 125.7 144.904 129.806 144.691 135.21V153.652C144.839 155.799 144.229 160.131 140.603 160.273H130.293C128.427 160.273 124.448 160.379 123.494 160.273C118.695 159.74 119.317 155.859 119.361 153.652V135.21C119.361 129.913 125.286 125.745 128.249 124.323M136.426 124.323H128.249" stroke="black" stroke-width="0.258706" stroke-linecap="round"/>
<rect x="-0.129353" y="0.129353" width="25.0708" height="18.3163" transform="matrix(-1 0 0 1 144.452 135.255)" fill="#FFD364" stroke="black" stroke-width="0.258706"/>
<rect x="-0.129353" y="0.129353" width="12.1839" height="4.0962" rx="0.759404" transform="matrix(-1 0 0 1 138.148 119.968)" fill="#FE866E" stroke="black" stroke-width="0.258706"/>
<path d="M133.816 142.678V139.434H130.394V142.678H126.928V146.188H130.394V149.61H133.816V146.188H137.148V142.678H133.816Z" fill="#FE866E" stroke="black" stroke-width="0.258706" stroke-linecap="round"/>
<rect x="-0.17621" y="0.0491358" width="23.8266" height="9.07324" rx="4.53662" transform="matrix(-0.871051 -0.491192 -0.491192 0.871051 136.843 156.428)" fill="#FD4755" stroke="black" stroke-width="0.258706"/>
<path d="M133.021 154.329L127.134 151.009L122.677 158.912L128.564 162.232C130.746 163.463 133.513 162.691 134.744 160.509C135.975 158.326 135.203 155.559 133.021 154.329Z" fill="#ECEFF1" stroke="black" stroke-width="0.258706"/>
<path fill-rule="evenodd" clip-rule="evenodd" d="M208.273 126.519C209.911 127.356 212.84 127.817 216.194 127.061C216.16 128.17 216.162 129.333 216.21 130.533C215.623 130.708 215.053 130.896 214.501 131.095C210.039 132.702 206.706 135.04 204.714 137.232C204.712 137.127 204.711 137.021 204.711 136.915C204.711 132.997 206.041 129.389 208.273 126.519ZM209.655 124.951C211.63 122.97 214.091 121.475 216.845 120.661C216.616 121.887 216.423 123.352 216.302 124.982C213.491 125.731 211.052 125.472 209.655 124.951ZM218.962 120.181L218.976 120.184C218.732 121.282 218.512 122.673 218.363 124.267C220.259 123.45 222.245 122.143 224.14 120.148C223.33 120.029 222.501 119.968 221.658 119.968C220.74 119.968 219.84 120.041 218.962 120.181ZM226.386 120.636C223.776 123.674 220.917 125.487 218.212 126.469C218.162 127.59 218.149 128.777 218.187 130.008C223.399 128.791 229.814 128.573 237.275 130.324C235.305 125.661 231.307 122.063 226.386 120.636ZM238.031 132.526L238.021 132.563C230.16 130.517 223.528 130.749 218.292 132.033C218.388 133.333 218.543 134.667 218.77 136.009C218.814 136.27 218.861 136.532 218.91 136.793C223.683 135.313 229.986 136.279 237.927 141.675C238.368 140.165 238.605 138.567 238.605 136.915C238.605 135.397 238.405 133.926 238.031 132.526ZM237.229 143.615C229.299 138.103 223.455 137.41 219.336 138.751C220.656 144.106 223.242 149.239 227.853 152.693C232.06 151.04 235.445 147.754 237.229 143.615ZM225.561 153.41C221.248 149.717 218.79 144.663 217.48 139.545C213.403 141.74 211.139 146.17 210.485 149.657C213.468 152.274 217.377 153.861 221.658 153.861C223.001 153.861 224.308 153.705 225.561 153.41ZM208.827 147.986C209.847 144.269 212.383 139.914 216.775 137.664C216.857 137.622 216.941 137.58 217.025 137.539C216.945 137.139 216.871 136.74 216.804 136.341C216.59 135.074 216.437 133.814 216.335 132.58C215.939 132.704 215.553 132.835 215.177 132.97C209.655 134.959 206.225 138.042 205.017 140.137C205.588 143.101 206.93 145.79 208.827 147.986Z" fill="#ED892D"/>
<defs>
<filter id="filter0_i_652_134" x="35.4244" y="11.8219" width="18.1537" height="17.9213" filterUnits="userSpaceOnUse" color-interpolation-filters="sRGB">
<feFlood flood-opacity="0" result="BackgroundImageFix"/>
<feBlend mode="normal" in="SourceGraphic" in2="BackgroundImageFix" result="shape"/>
<feColorMatrix in="SourceAlpha" type="matrix" values="0 0 0 0 0 0 0 0 0 0 0 0 0 0 0 0 0 0 127 0" result="hardAlpha"/>
<feOffset dx="-1.43366" dy="-0.836304"/>
<feGaussianBlur stdDeviation="0.533891"/>
<feComposite in2="hardAlpha" operator="arithmetic" k2="-1" k3="1"/>
<feColorMatrix type="matrix" values="0 0 0 0 0 0 0 0 0 0 0 0 0 0 0 0 0 0 0.25 0"/>
<feBlend mode="normal" in2="shape" result="effect1_innerShadow_652_134"/>
</filter>
<filter id="filter1_i_652_134" x="209.597" y="-0.449548" width="32.5042" height="32.1869" filterUnits="userSpaceOnUse" color-interpolation-filters="sRGB">
<feFlood flood-opacity="0" result="BackgroundImageFix"/>
<feBlend mode="normal" in="SourceGraphic" in2="BackgroundImageFix" result="shape"/>
<feColorMatrix in="SourceAlpha" type="matrix" values="0 0 0 0 0 0 0 0 0 0 0 0 0 0 0 0 0 0 127 0" result="hardAlpha"/>
<feOffset dx="-2.6575" dy="-1.93273"/>
<feGaussianBlur stdDeviation="0.724774"/>
<feComposite in2="hardAlpha" operator="arithmetic" k2="-1" k3="1"/>
<feColorMatrix type="matrix" values="0 0 0 0 0 0 0 0 0 0 0 0 0 0 0 0 0 0 0.25 0"/>
<feBlend mode="normal" in2="shape" result="effect1_innerShadow_652_134"/>
</filter>
<filter id="filter2_i_652_134" x="211.071" y="17.7866" width="12.89" height="13.441" filterUnits="userSpaceOnUse" color-interpolation-filters="sRGB">
<feFlood flood-opacity="0" result="BackgroundImageFix"/>
<feBlend mode="normal" in="SourceGraphic" in2="BackgroundImageFix" result="shape"/>
<feColorMatrix in="SourceAlpha" type="matrix" values="0 0 0 0 0 0 0 0 0 0 0 0 0 0 0 0 0 0 127 0" result="hardAlpha"/>
<feOffset dx="-0.241591" dy="-0.966365"/>
<feGaussianBlur stdDeviation="0.483183"/>
<feComposite in2="hardAlpha" operator="arithmetic" k2="-1" k3="1"/>
<feColorMatrix type="matrix" values="0 0 0 0 0 0 0 0 0 0 0 0 0 0 0 0 0 0 0.25 0"/>
<feBlend mode="normal" in2="shape" result="effect1_innerShadow_652_134"/>
</filter>
<filter id="filter3_i_652_134" x="228.922" y="0.459416" width="12.89" height="14.1343" filterUnits="userSpaceOnUse" color-interpolation-filters="sRGB">
<feFlood flood-opacity="0" result="BackgroundImageFix"/>
<feBlend mode="normal" in="SourceGraphic" in2="BackgroundImageFix" result="shape"/>
<feColorMatrix in="SourceAlpha" type="matrix" values="0 0 0 0 0 0 0 0 0 0 0 0 0 0 0 0 0 0 127 0" result="hardAlpha"/>
<feOffset dx="-0.241591" dy="-0.966365"/>
<feGaussianBlur stdDeviation="0.483183"/>
<feComposite in2="hardAlpha" operator="arithmetic" k2="-1" k3="1"/>
<feColorMatrix type="matrix" values="0 0 0 0 0 0 0 0 0 0 0 0 0 0 0 0 0 0 0.25 0"/>
<feBlend mode="normal" in2="shape" result="effect1_innerShadow_652_134"/>
</filter>
<filter id="filter4_i_652_134" x="205.023" y="61.4865" width="37.0217" height="32.5984" filterUnits="userSpaceOnUse" color-interpolation-filters="sRGB">
<feFlood flood-opacity="0" result="BackgroundImageFix"/>
<feBlend mode="normal" in="SourceGraphic" in2="BackgroundImageFix" result="shape"/>
<feColorMatrix in="SourceAlpha" type="matrix" values="0 0 0 0 0 0 0 0 0 0 0 0 0 0 0 0 0 0 127 0" result="hardAlpha"/>
<feOffset dx="5.52515" dy="-0.552515"/>
<feGaussianBlur stdDeviation="2.21006"/>
<feComposite in2="hardAlpha" operator="arithmetic" k2="-1" k3="1"/>
<feColorMatrix type="matrix" values="0 0 0 0 0 0 0 0 0 0 0 0 0 0 0 0 0 0 0.25 0"/>
<feBlend mode="normal" in2="shape" result="effect1_innerShadow_652_134"/>
</filter>
<filter id="filter5_i_652_134" x="216.617" y="57.6191" width="6.61284" height="7.26323" filterUnits="userSpaceOnUse" color-interpolation-filters="sRGB">
<feFlood flood-opacity="0" result="BackgroundImageFix"/>
<feBlend mode="normal" in="SourceGraphic" in2="BackgroundImageFix" result="shape"/>
<feColorMatrix in="SourceAlpha" type="matrix" values="0 0 0 0 0 0 0 0 0 0 0 0 0 0 0 0 0 0 127 0" result="hardAlpha"/>
<feOffset dx="1.10503" dy="1.10503"/>
<feGaussianBlur stdDeviation="1.10503"/>
<feComposite in2="hardAlpha" operator="arithmetic" k2="-1" k3="1"/>
<feColorMatrix type="matrix" values="0 0 0 0 0 0 0 0 0 0 0 0 0 0 0 0 0 0 0.25 0"/>
<feBlend mode="normal" in2="shape" result="effect1_innerShadow_652_134"/>
</filter>
<filter id="filter6_i_652_134" x="222.656" y="60.5938" width="8.03125" height="6.52451" filterUnits="userSpaceOnUse" color-interpolation-filters="sRGB">
<feFlood flood-opacity="0" result="BackgroundImageFix"/>
<feBlend mode="normal" in="SourceGraphic" in2="BackgroundImageFix" result="shape"/>
<feColorMatrix in="SourceAlpha" type="matrix" values="0 0 0 0 0 0 0 0 0 0 0 0 0 0 0 0 0 0 127 0" result="hardAlpha"/>
<feOffset dy="2.21006"/>
<feGaussianBlur stdDeviation="1.10503"/>
<feComposite in2="hardAlpha" operator="arithmetic" k2="-1" k3="1"/>
<feColorMatrix type="matrix" values="0 0 0 0 0 0 0 0 0 0 0 0 0 0 0 0 0 0 0.25 0"/>
<feBlend mode="normal" in2="shape" result="effect1_innerShadow_652_134"/>
</filter>
<filter id="filter7_i_652_134" x="217.172" y="77.3762" width="30.73" height="16.4402" filterUnits="userSpaceOnUse" color-interpolation-filters="sRGB">
<feFlood flood-opacity="0" result="BackgroundImageFix"/>
<feBlend mode="normal" in="SourceGraphic" in2="BackgroundImageFix" result="shape"/>
<feColorMatrix in="SourceAlpha" type="matrix" values="0 0 0 0 0 0 0 0 0 0 0 0 0 0 0 0 0 0 127 0" result="hardAlpha"/>
<feOffset dx="1.10503" dy="-0.552515"/>
<feGaussianBlur stdDeviation="1.65754"/>
<feComposite in2="hardAlpha" operator="arithmetic" k2="-1" k3="1"/>
<feColorMatrix type="matrix" values="0 0 0 0 0 0 0 0 0 0 0 0 0 0 0 0 0 0 0.25 0"/>
<feBlend mode="normal" in2="shape" result="effect1_innerShadow_652_134"/>
</filter>
<filter id="filter8_i_652_134" x="34.9375" y="119.968" width="17.4564" height="10.5828" filterUnits="userSpaceOnUse" color-interpolation-filters="sRGB">
<feFlood flood-opacity="0" result="BackgroundImageFix"/>
<feBlend mode="normal" in="SourceGraphic" in2="BackgroundImageFix" result="shape"/>
<feColorMatrix in="SourceAlpha" type="matrix" values="0 0 0 0 0 0 0 0 0 0 0 0 0 0 0 0 0 0 127 0" result="hardAlpha"/>
<feOffset dx="1.00324" dy="1.40454"/>
<feGaussianBlur stdDeviation="0.601947"/>
<feComposite in2="hardAlpha" operator="arithmetic" k2="-1" k3="1"/>
<feColorMatrix type="matrix" values="0 0 0 0 0 0 0 0 0 0 0 0 0 0 0 0 0 0 0.25 0"/>
<feBlend mode="normal" in2="shape" result="effect1_innerShadow_652_134"/>
</filter>
<filter id="filter9_i_652_134" x="21.3906" y="128.314" width="32.2018" height="28.8681" filterUnits="userSpaceOnUse" color-interpolation-filters="sRGB">
<feFlood flood-opacity="0" result="BackgroundImageFix"/>
<feBlend mode="normal" in="SourceGraphic" in2="BackgroundImageFix" result="shape"/>
<feColorMatrix in="SourceAlpha" type="matrix" values="0 0 0 0 0 0 0 0 0 0 0 0 0 0 0 0 0 0 127 0" result="hardAlpha"/>
<feOffset dx="4.21363" dy="0.401298"/>
<feGaussianBlur stdDeviation="1.00324"/>
<feComposite in2="hardAlpha" operator="arithmetic" k2="-1" k3="1"/>
<feColorMatrix type="matrix" values="0 0 0 0 0 0 0 0 0 0 0 0 0 0 0 0 0 0 0.25 0"/>
<feBlend mode="normal" in2="shape" result="effect1_innerShadow_652_134"/>
</filter>
<filter id="filter10_d_652_134" x="30.4108" y="123.242" width="9.2281" height="10.6656" filterUnits="userSpaceOnUse" color-interpolation-filters="sRGB">
<feFlood flood-opacity="0" result="BackgroundImageFix"/>
<feColorMatrix in="SourceAlpha" type="matrix" values="0 0 0 0 0 0 0 0 0 0 0 0 0 0 0 0 0 0 127 0" result="hardAlpha"/>
<feOffset dx="0.200649" dy="1.00324"/>
<feGaussianBlur stdDeviation="0.601947"/>
<feComposite in2="hardAlpha" operator="out"/>
<feColorMatrix type="matrix" values="0 0 0 0 0 0 0 0 0 0 0 0 0 0 0 0 0 0 0.25 0"/>
<feBlend mode="normal" in2="BackgroundImageFix" result="effect1_dropShadow_652_134"/>
<feBlend mode="normal" in="SourceGraphic" in2="effect1_dropShadow_652_134" result="shape"/>
</filter>
</defs>
</svg>
