<svg width="390" height="310" viewBox="0 0 390 310" fill="none" xmlns="http://www.w3.org/2000/svg">
<rect x="1" y="11" width="378" height="298" rx="4" fill="white" stroke="#181818" stroke-width="2"/>
<rect x="230" y="55" width="124" height="35" rx="4" stroke="#E8E8E8" stroke-width="2"/>
<path d="M28.75 242H26.0568V233.273H28.8693C29.7159 233.273 30.4403 233.447 31.0426 233.797C31.6449 234.143 32.1065 234.642 32.4276 235.293C32.7486 235.94 32.9091 236.716 32.9091 237.619C32.9091 238.528 32.7472 239.311 32.4233 239.967C32.0994 240.621 31.6278 241.124 31.0085 241.476C30.3892 241.825 29.6364 242 28.75 242ZM27.1136 241.062H28.6818C29.4034 241.062 30.0014 240.923 30.4759 240.645C30.9503 240.366 31.304 239.97 31.5369 239.456C31.7699 238.942 31.8864 238.33 31.8864 237.619C31.8864 236.915 31.7713 236.308 31.5412 235.8C31.3111 235.288 30.9673 234.896 30.5099 234.624C30.0526 234.348 29.483 234.21 28.8011 234.21H27.1136V241.062ZM37.2898 242.136C36.6591 242.136 36.1151 241.997 35.6577 241.719C35.2031 241.438 34.8523 241.045 34.6051 240.543C34.3608 240.037 34.2386 239.449 34.2386 238.778C34.2386 238.108 34.3608 237.517 34.6051 237.006C34.8523 236.491 35.196 236.091 35.6364 235.804C36.0795 235.514 36.5966 235.369 37.1875 235.369C37.5284 235.369 37.8651 235.426 38.1974 235.54C38.5298 235.653 38.8324 235.838 39.1051 236.094C39.3778 236.347 39.5952 236.682 39.7571 237.099C39.919 237.517 40 238.031 40 238.642V239.068H34.9545V238.199H38.9773C38.9773 237.83 38.9034 237.5 38.7557 237.21C38.6108 236.92 38.4034 236.692 38.1335 236.524C37.8665 236.357 37.5511 236.273 37.1875 236.273C36.7869 236.273 36.4403 236.372 36.1477 236.571C35.858 236.767 35.6349 237.023 35.4787 237.338C35.3224 237.653 35.2443 237.991 35.2443 238.352V238.932C35.2443 239.426 35.3295 239.845 35.5 240.189C35.6733 240.53 35.9134 240.79 36.2202 240.969C36.527 241.145 36.8835 241.233 37.2898 241.233C37.554 241.233 37.7926 241.196 38.0057 241.122C38.2216 241.045 38.4077 240.932 38.5639 240.781C38.7202 240.628 38.8409 240.437 38.9261 240.21L39.8977 240.483C39.7955 240.812 39.6236 241.102 39.3821 241.352C39.1406 241.599 38.8423 241.793 38.4872 241.932C38.1321 242.068 37.733 242.136 37.2898 242.136ZM43.456 242.153C43.0412 242.153 42.6648 242.075 42.3267 241.919C41.9886 241.76 41.7202 241.531 41.5213 241.233C41.3224 240.932 41.223 240.568 41.223 240.142C41.223 239.767 41.2969 239.463 41.4446 239.23C41.5923 238.994 41.7898 238.81 42.0369 238.676C42.2841 238.543 42.5568 238.443 42.8551 238.378C43.1563 238.31 43.4588 238.256 43.7628 238.216C44.1605 238.165 44.483 238.126 44.7301 238.101C44.9801 238.072 45.1619 238.026 45.2756 237.96C45.392 237.895 45.4503 237.781 45.4503 237.619V237.585C45.4503 237.165 45.3352 236.838 45.1051 236.605C44.8778 236.372 44.5327 236.256 44.0696 236.256C43.5895 236.256 43.2131 236.361 42.9403 236.571C42.6676 236.781 42.4759 237.006 42.3651 237.244L41.4105 236.903C41.581 236.506 41.8082 236.196 42.0923 235.974C42.3793 235.75 42.6918 235.594 43.0298 235.506C43.3707 235.415 43.706 235.369 44.0355 235.369C44.2457 235.369 44.4872 235.395 44.7599 235.446C45.0355 235.494 45.3011 235.595 45.5568 235.749C45.8153 235.902 46.0298 236.134 46.2003 236.443C46.3707 236.753 46.456 237.168 46.456 237.688V242H45.4503V241.114H45.3991C45.331 241.256 45.2173 241.408 45.0582 241.57C44.8991 241.732 44.6875 241.869 44.4233 241.983C44.1591 242.097 43.8366 242.153 43.456 242.153ZM43.6094 241.25C44.0071 241.25 44.3423 241.172 44.6151 241.016C44.8906 240.859 45.098 240.658 45.2372 240.411C45.3793 240.163 45.4503 239.903 45.4503 239.631V238.71C45.4077 238.761 45.3139 238.808 45.169 238.851C45.027 238.891 44.8622 238.926 44.6747 238.957C44.4901 238.986 44.3097 239.011 44.1335 239.034C43.9602 239.054 43.8196 239.071 43.7116 239.085C43.4503 239.119 43.206 239.175 42.9787 239.251C42.7543 239.325 42.5724 239.437 42.4332 239.588C42.2969 239.736 42.2287 239.937 42.2287 240.193C42.2287 240.543 42.358 240.807 42.6165 240.986C42.8778 241.162 43.2088 241.25 43.6094 241.25ZM51.2063 235.455V236.307H47.6779V235.455H51.2063ZM48.7347 242V234.551C48.7347 234.176 48.8228 233.864 48.9989 233.614C49.1751 233.364 49.4038 233.176 49.685 233.051C49.9663 232.926 50.2631 232.864 50.5756 232.864C50.8228 232.864 51.0245 232.884 51.1808 232.923C51.337 232.963 51.4535 233 51.5302 233.034L51.2404 233.903C51.1893 233.886 51.1183 233.865 51.0273 233.839C50.9393 233.814 50.8228 233.801 50.6779 233.801C50.3455 233.801 50.1055 233.885 49.9577 234.053C49.8129 234.22 49.7404 234.466 49.7404 234.79V242H48.7347ZM54.3544 242.153C53.9396 242.153 53.5632 242.075 53.2251 241.919C52.8871 241.76 52.6186 241.531 52.4197 241.233C52.2209 240.932 52.1214 240.568 52.1214 240.142C52.1214 239.767 52.1953 239.463 52.343 239.23C52.4908 238.994 52.6882 238.81 52.9354 238.676C53.1825 238.543 53.4553 238.443 53.7536 238.378C54.0547 238.31 54.3572 238.256 54.6612 238.216C55.0589 238.165 55.3814 238.126 55.6286 238.101C55.8786 238.072 56.0604 238.026 56.174 237.96C56.2905 237.895 56.3487 237.781 56.3487 237.619V237.585C56.3487 237.165 56.2337 236.838 56.0036 236.605C55.7763 236.372 55.4311 236.256 54.968 236.256C54.4879 236.256 54.1115 236.361 53.8388 236.571C53.5661 236.781 53.3743 237.006 53.2635 237.244L52.3089 236.903C52.4794 236.506 52.7067 236.196 52.9908 235.974C53.2777 235.75 53.5902 235.594 53.9283 235.506C54.2692 235.415 54.6044 235.369 54.9339 235.369C55.1442 235.369 55.3857 235.395 55.6584 235.446C55.9339 235.494 56.1996 235.595 56.4553 235.749C56.7138 235.902 56.9283 236.134 57.0987 236.443C57.2692 236.753 57.3544 237.168 57.3544 237.688V242H56.3487V241.114H56.2976C56.2294 241.256 56.1158 241.408 55.9567 241.57C55.7976 241.732 55.5859 241.869 55.3217 241.983C55.0575 242.097 54.7351 242.153 54.3544 242.153ZM54.5078 241.25C54.9055 241.25 55.2408 241.172 55.5135 241.016C55.7891 240.859 55.9964 240.658 56.1357 240.411C56.2777 240.163 56.3487 239.903 56.3487 239.631V238.71C56.3061 238.761 56.2124 238.808 56.0675 238.851C55.9254 238.891 55.7607 238.926 55.5732 238.957C55.3885 238.986 55.2081 239.011 55.032 239.034C54.8587 239.054 54.718 239.071 54.6101 239.085C54.3487 239.119 54.1044 239.175 53.8771 239.251C53.6527 239.325 53.4709 239.437 53.3317 239.588C53.1953 239.736 53.1271 239.937 53.1271 240.193C53.1271 240.543 53.2564 240.807 53.5149 240.986C53.7763 241.162 54.1072 241.25 54.5078 241.25ZM63.315 239.324V235.455H64.3207V242H63.315V240.892H63.2468C63.0934 241.224 62.8548 241.507 62.5309 241.74C62.207 241.97 61.7979 242.085 61.3036 242.085C60.8945 242.085 60.5309 241.996 60.2127 241.817C59.8945 241.635 59.6445 241.362 59.4627 240.999C59.2809 240.632 59.19 240.17 59.19 239.614V235.455H60.1957V239.545C60.1957 240.023 60.3292 240.403 60.5962 240.688C60.8661 240.972 61.2099 241.114 61.6275 241.114C61.8775 241.114 62.1317 241.05 62.3903 240.922C62.6516 240.794 62.8704 240.598 63.0465 240.334C63.2255 240.07 63.315 239.733 63.315 239.324ZM67.1683 233.273V242H66.1626V233.273H67.1683ZM71.8569 235.455V236.307H68.4648V235.455H71.8569ZM69.4535 233.886H70.4592V240.125C70.4592 240.409 70.5004 240.622 70.5827 240.764C70.668 240.903 70.7759 240.997 70.9066 241.045C71.0401 241.091 71.1808 241.114 71.3285 241.114C71.4393 241.114 71.5302 241.108 71.6012 241.097C71.6722 241.082 71.729 241.071 71.7717 241.062L71.9762 241.966C71.908 241.991 71.8129 242.017 71.6907 242.043C71.5685 242.071 71.4137 242.085 71.2262 242.085C70.9421 242.085 70.6637 242.024 70.391 241.902C70.1211 241.78 69.8967 241.594 69.7177 241.344C69.5415 241.094 69.4535 240.778 69.4535 240.398V233.886ZM79.4038 242.136C78.7901 242.136 78.2617 241.991 77.8185 241.702C77.3754 241.412 77.0344 241.013 76.7958 240.504C76.5572 239.996 76.4379 239.415 76.4379 238.761C76.4379 238.097 76.56 237.51 76.8043 237.001C77.0515 236.49 77.3952 236.091 77.8356 235.804C78.2788 235.514 78.7958 235.369 79.3867 235.369C79.8469 235.369 80.2617 235.455 80.631 235.625C81.0004 235.795 81.3029 236.034 81.5387 236.341C81.7745 236.648 81.9208 237.006 81.9776 237.415H80.9719C80.8952 237.116 80.7248 236.852 80.4606 236.622C80.1992 236.389 79.8469 236.273 79.4038 236.273C79.0117 236.273 78.668 236.375 78.3725 236.58C78.0799 236.781 77.8512 237.067 77.6864 237.436C77.5245 237.803 77.4435 238.233 77.4435 238.727C77.4435 239.233 77.5231 239.673 77.6822 240.048C77.8441 240.423 78.0714 240.714 78.364 240.922C78.6594 241.129 79.006 241.233 79.4038 241.233C79.6651 241.233 79.9023 241.188 80.1154 241.097C80.3285 241.006 80.5089 240.875 80.6566 240.705C80.8043 240.534 80.9094 240.33 80.9719 240.091H81.9776C81.9208 240.477 81.7802 240.825 81.5558 241.135C81.3342 241.442 81.0401 241.686 80.6737 241.868C80.31 242.047 79.8867 242.136 79.4038 242.136ZM86.1069 242.136C85.516 242.136 84.9975 241.996 84.5515 241.714C84.1083 241.433 83.7617 241.04 83.5117 240.534C83.2646 240.028 83.141 239.437 83.141 238.761C83.141 238.08 83.2646 237.484 83.5117 236.976C83.7617 236.467 84.1083 236.072 84.5515 235.791C84.9975 235.51 85.516 235.369 86.1069 235.369C86.6978 235.369 87.2148 235.51 87.658 235.791C88.104 236.072 88.4506 236.467 88.6978 236.976C88.9478 237.484 89.0728 238.08 89.0728 238.761C89.0728 239.437 88.9478 240.028 88.6978 240.534C88.4506 241.04 88.104 241.433 87.658 241.714C87.2148 241.996 86.6978 242.136 86.1069 242.136ZM86.1069 241.233C86.5558 241.233 86.9251 241.118 87.2148 240.888C87.5046 240.658 87.7191 240.355 87.8583 239.98C87.9975 239.605 88.0671 239.199 88.0671 238.761C88.0671 238.324 87.9975 237.916 87.8583 237.538C87.7191 237.161 87.5046 236.855 87.2148 236.622C86.9251 236.389 86.5558 236.273 86.1069 236.273C85.658 236.273 85.2887 236.389 84.9989 236.622C84.7092 236.855 84.4947 237.161 84.3555 237.538C84.2163 237.916 84.1467 238.324 84.1467 238.761C84.1467 239.199 84.2163 239.605 84.3555 239.98C84.4947 240.355 84.7092 240.658 84.9989 240.888C85.2887 241.118 85.658 241.233 86.1069 241.233ZM91.6136 233.273V242H90.608V233.273H91.6136ZM96.1147 242.136C95.5238 242.136 95.0053 241.996 94.5593 241.714C94.1161 241.433 93.7695 241.04 93.5195 240.534C93.2724 240.028 93.1488 239.437 93.1488 238.761C93.1488 238.08 93.2724 237.484 93.5195 236.976C93.7695 236.467 94.1161 236.072 94.5593 235.791C95.0053 235.51 95.5238 235.369 96.1147 235.369C96.7056 235.369 97.2227 235.51 97.6658 235.791C98.1119 236.072 98.4585 236.467 98.7056 236.976C98.9556 237.484 99.0806 238.08 99.0806 238.761C99.0806 239.437 98.9556 240.028 98.7056 240.534C98.4585 241.04 98.1119 241.433 97.6658 241.714C97.2227 241.996 96.7056 242.136 96.1147 242.136ZM96.1147 241.233C96.5636 241.233 96.9329 241.118 97.2227 240.888C97.5124 240.658 97.7269 240.355 97.8661 239.98C98.0053 239.605 98.0749 239.199 98.0749 238.761C98.0749 238.324 98.0053 237.916 97.8661 237.538C97.7269 237.161 97.5124 236.855 97.2227 236.622C96.9329 236.389 96.5636 236.273 96.1147 236.273C95.6658 236.273 95.2965 236.389 95.0067 236.622C94.717 236.855 94.5025 237.161 94.3633 237.538C94.2241 237.916 94.1545 238.324 94.1545 238.761C94.1545 239.199 94.2241 239.605 94.3633 239.98C94.5025 240.355 94.717 240.658 95.0067 240.888C95.2965 241.118 95.6658 241.233 96.1147 241.233ZM100.616 242V235.455H101.587V236.443H101.656C101.775 236.119 101.991 235.857 102.303 235.655C102.616 235.453 102.968 235.352 103.36 235.352C103.434 235.352 103.526 235.354 103.637 235.357C103.748 235.359 103.832 235.364 103.888 235.369V236.392C103.854 236.384 103.776 236.371 103.654 236.354C103.535 236.334 103.408 236.324 103.275 236.324C102.957 236.324 102.673 236.391 102.423 236.524C102.175 236.655 101.979 236.837 101.835 237.07C101.692 237.3 101.621 237.562 101.621 237.858V242H100.616ZM109.717 236.92L108.814 237.176C108.757 237.026 108.673 236.879 108.562 236.737C108.454 236.592 108.306 236.473 108.119 236.379C107.931 236.286 107.691 236.239 107.399 236.239C106.998 236.239 106.664 236.331 106.397 236.516C106.133 236.697 106.001 236.929 106.001 237.21C106.001 237.46 106.092 237.658 106.274 237.803C106.456 237.947 106.74 238.068 107.126 238.165L108.098 238.403C108.683 238.545 109.119 238.763 109.406 239.055C109.693 239.345 109.836 239.719 109.836 240.176C109.836 240.551 109.728 240.886 109.512 241.182C109.299 241.477 109.001 241.71 108.618 241.881C108.234 242.051 107.788 242.136 107.279 242.136C106.612 242.136 106.059 241.991 105.622 241.702C105.184 241.412 104.907 240.989 104.791 240.432L105.745 240.193C105.836 240.545 106.008 240.81 106.261 240.986C106.517 241.162 106.85 241.25 107.262 241.25C107.731 241.25 108.103 241.151 108.379 240.952C108.657 240.75 108.797 240.509 108.797 240.227C108.797 240 108.717 239.81 108.558 239.656C108.399 239.5 108.154 239.384 107.825 239.307L106.734 239.051C106.135 238.909 105.694 238.689 105.413 238.391C105.135 238.089 104.995 237.713 104.995 237.261C104.995 236.892 105.099 236.565 105.306 236.281C105.517 235.997 105.802 235.774 106.163 235.612C106.527 235.45 106.939 235.369 107.399 235.369C108.047 235.369 108.555 235.511 108.924 235.795C109.297 236.08 109.561 236.455 109.717 236.92Z" fill="#181818"/>
<path d="M27.1136 39.1321V47.8594H26.0568V39.1321H27.1136ZM31.7553 47.9957C31.1417 47.9957 30.6133 47.8509 30.1701 47.5611C29.7269 47.2713 29.386 46.8722 29.1474 46.3636C28.9087 45.8551 28.7894 45.2741 28.7894 44.6207C28.7894 43.956 28.9116 43.3693 29.1559 42.8608C29.4031 42.3494 29.7468 41.9503 30.1871 41.6634C30.6303 41.3736 31.1474 41.2287 31.7383 41.2287C32.1985 41.2287 32.6133 41.3139 32.9826 41.4844C33.3519 41.6548 33.6545 41.8935 33.8903 42.2003C34.1261 42.5071 34.2724 42.8651 34.3292 43.2741H33.3235C33.2468 42.9759 33.0763 42.7116 32.8121 42.4815C32.5508 42.2486 32.1985 42.1321 31.7553 42.1321C31.3633 42.1321 31.0195 42.2344 30.7241 42.4389C30.4315 42.6406 30.2028 42.9261 30.038 43.2955C29.8761 43.6619 29.7951 44.0923 29.7951 44.5866C29.7951 45.0923 29.8746 45.5327 30.0337 45.9077C30.1957 46.2827 30.4229 46.5739 30.7156 46.7812C31.011 46.9886 31.3576 47.0923 31.7553 47.0923C32.0167 47.0923 32.2539 47.0469 32.467 46.956C32.68 46.8651 32.8604 46.7344 33.0082 46.5639C33.1559 46.3935 33.261 46.1889 33.3235 45.9503H34.3292C34.2724 46.3366 34.1317 46.6847 33.9073 46.9943C33.6857 47.3011 33.3917 47.5455 33.0252 47.7273C32.6616 47.9062 32.2383 47.9957 31.7553 47.9957ZM38.4585 47.9957C37.8675 47.9957 37.3491 47.8551 36.9031 47.5739C36.4599 47.2926 36.1133 46.8991 35.8633 46.3935C35.6161 45.8878 35.4925 45.2969 35.4925 44.6207C35.4925 43.9389 35.6161 43.3437 35.8633 42.8352C36.1133 42.3267 36.4599 41.9318 36.9031 41.6506C37.3491 41.3693 37.8675 41.2287 38.4585 41.2287C39.0494 41.2287 39.5664 41.3693 40.0096 41.6506C40.4556 41.9318 40.8022 42.3267 41.0494 42.8352C41.2994 43.3437 41.4244 43.9389 41.4244 44.6207C41.4244 45.2969 41.2994 45.8878 41.0494 46.3935C40.8022 46.8991 40.4556 47.2926 40.0096 47.5739C39.5664 47.8551 39.0494 47.9957 38.4585 47.9957ZM38.4585 47.0923C38.9073 47.0923 39.2766 46.9773 39.5664 46.7472C39.8562 46.517 40.0707 46.2145 40.2099 45.8395C40.3491 45.4645 40.4187 45.0582 40.4187 44.6207C40.4187 44.1832 40.3491 43.7756 40.2099 43.3977C40.0707 43.0199 39.8562 42.7145 39.5664 42.4815C39.2766 42.2486 38.9073 42.1321 38.4585 42.1321C38.0096 42.1321 37.6403 42.2486 37.3505 42.4815C37.0607 42.7145 36.8462 43.0199 36.707 43.3977C36.5678 43.7756 36.4982 44.1832 36.4982 44.6207C36.4982 45.0582 36.5678 45.4645 36.707 45.8395C36.8462 46.2145 37.0607 46.517 37.3505 46.7472C37.6403 46.9773 38.0096 47.0923 38.4585 47.0923ZM43.9652 43.9219V47.8594H42.9595V41.3139H43.9311V42.3366H44.0163C44.1697 42.0043 44.4027 41.7372 44.7152 41.5355C45.0277 41.331 45.4311 41.2287 45.9254 41.2287C46.3686 41.2287 46.7564 41.3196 47.0888 41.5014C47.4212 41.6804 47.6797 41.9531 47.8643 42.3196C48.049 42.6832 48.1413 43.1435 48.1413 43.7003V47.8594H47.1357V43.7685C47.1357 43.2543 47.0021 42.8537 46.7351 42.5668C46.468 42.277 46.1016 42.1321 45.6357 42.1321C45.3146 42.1321 45.0277 42.2017 44.7749 42.3409C44.5249 42.4801 44.3274 42.6832 44.1825 42.9503C44.0376 43.2173 43.9652 43.5412 43.9652 43.9219ZM56.0131 47.9957C55.3995 47.9957 54.8711 47.8509 54.4279 47.5611C53.9847 47.2713 53.6438 46.8722 53.4052 46.3636C53.1665 45.8551 53.0472 45.2741 53.0472 44.6207C53.0472 43.956 53.1694 43.3693 53.4137 42.8608C53.6609 42.3494 54.0046 41.9503 54.445 41.6634C54.8881 41.3736 55.4052 41.2287 55.9961 41.2287C56.4563 41.2287 56.8711 41.3139 57.2404 41.4844C57.6097 41.6548 57.9123 41.8935 58.1481 42.2003C58.3839 42.5071 58.5302 42.8651 58.587 43.2741H57.5813C57.5046 42.9759 57.3342 42.7116 57.07 42.4815C56.8086 42.2486 56.4563 42.1321 56.0131 42.1321C55.6211 42.1321 55.2773 42.2344 54.9819 42.4389C54.6893 42.6406 54.4606 42.9261 54.2958 43.2955C54.1339 43.6619 54.0529 44.0923 54.0529 44.5866C54.0529 45.0923 54.1325 45.5327 54.2915 45.9077C54.4535 46.2827 54.6808 46.5739 54.9734 46.7812C55.2688 46.9886 55.6154 47.0923 56.0131 47.0923C56.2745 47.0923 56.5117 47.0469 56.7248 46.956C56.9379 46.8651 57.1183 46.7344 57.266 46.5639C57.4137 46.3935 57.5188 46.1889 57.5813 45.9503H58.587C58.5302 46.3366 58.3896 46.6847 58.1651 46.9943C57.9435 47.3011 57.6495 47.5455 57.283 47.7273C56.9194 47.9062 56.4961 47.9957 56.0131 47.9957ZM62.7163 47.9957C62.1254 47.9957 61.6069 47.8551 61.1609 47.5739C60.7177 47.2926 60.3711 46.8991 60.1211 46.3935C59.8739 45.8878 59.7504 45.2969 59.7504 44.6207C59.7504 43.9389 59.8739 43.3437 60.1211 42.8352C60.3711 42.3267 60.7177 41.9318 61.1609 41.6506C61.6069 41.3693 62.1254 41.2287 62.7163 41.2287C63.3072 41.2287 63.8242 41.3693 64.2674 41.6506C64.7134 41.9318 65.06 42.3267 65.3072 42.8352C65.5572 43.3437 65.6822 43.9389 65.6822 44.6207C65.6822 45.2969 65.5572 45.8878 65.3072 46.3935C65.06 46.8991 64.7134 47.2926 64.2674 47.5739C63.8242 47.8551 63.3072 47.9957 62.7163 47.9957ZM62.7163 47.0923C63.1651 47.0923 63.5344 46.9773 63.8242 46.7472C64.114 46.517 64.3285 46.2145 64.4677 45.8395C64.6069 45.4645 64.6765 45.0582 64.6765 44.6207C64.6765 44.1832 64.6069 43.7756 64.4677 43.3977C64.3285 43.0199 64.114 42.7145 63.8242 42.4815C63.5344 42.2486 63.1651 42.1321 62.7163 42.1321C62.2674 42.1321 61.8981 42.2486 61.6083 42.4815C61.3185 42.7145 61.104 43.0199 60.9648 43.3977C60.8256 43.7756 60.756 44.1832 60.756 44.6207C60.756 45.0582 60.8256 45.4645 60.9648 45.8395C61.104 46.2145 61.3185 46.517 61.6083 46.7472C61.8981 46.9773 62.2674 47.0923 62.7163 47.0923ZM68.223 39.1321V47.8594H67.2173V39.1321H68.223ZM72.7241 47.9957C72.1332 47.9957 71.6147 47.8551 71.1687 47.5739C70.7255 47.2926 70.3789 46.8991 70.1289 46.3935C69.8817 45.8878 69.7582 45.2969 69.7582 44.6207C69.7582 43.9389 69.8817 43.3437 70.1289 42.8352C70.3789 42.3267 70.7255 41.9318 71.1687 41.6506C71.6147 41.3693 72.1332 41.2287 72.7241 41.2287C73.315 41.2287 73.832 41.3693 74.2752 41.6506C74.7212 41.9318 75.0678 42.3267 75.315 42.8352C75.565 43.3437 75.69 43.9389 75.69 44.6207C75.69 45.2969 75.565 45.8878 75.315 46.3935C75.0678 46.8991 74.7212 47.2926 74.2752 47.5739C73.832 47.8551 73.315 47.9957 72.7241 47.9957ZM72.7241 47.0923C73.1729 47.0923 73.5423 46.9773 73.832 46.7472C74.1218 46.517 74.3363 46.2145 74.4755 45.8395C74.6147 45.4645 74.6843 45.0582 74.6843 44.6207C74.6843 44.1832 74.6147 43.7756 74.4755 43.3977C74.3363 43.0199 74.1218 42.7145 73.832 42.4815C73.5423 42.2486 73.1729 42.1321 72.7241 42.1321C72.2752 42.1321 71.9059 42.2486 71.6161 42.4815C71.3263 42.7145 71.1119 43.0199 70.9727 43.3977C70.8335 43.7756 70.7638 44.1832 70.7638 44.6207C70.7638 45.0582 70.8335 45.4645 70.9727 45.8395C71.1119 46.2145 71.3263 46.517 71.6161 46.7472C71.9059 46.9773 72.2752 47.0923 72.7241 47.0923ZM77.2251 47.8594V41.3139H78.1967V42.3026H78.2649C78.3842 41.9787 78.6001 41.7159 78.9126 41.5142C79.2251 41.3125 79.5774 41.2116 79.9695 41.2116C80.0433 41.2116 80.1357 41.2131 80.2464 41.2159C80.3572 41.2187 80.4411 41.223 80.4979 41.2287V42.2514C80.4638 42.2429 80.3857 42.2301 80.2635 42.2131C80.1442 42.1932 80.0178 42.1832 79.8842 42.1832C79.5661 42.1832 79.282 42.25 79.032 42.3835C78.7848 42.5142 78.5888 42.696 78.4439 42.929C78.3018 43.1591 78.2308 43.4219 78.2308 43.7173V47.8594H77.2251ZM86.3263 42.7798L85.4229 43.0355C85.3661 42.8849 85.2823 42.7386 85.1715 42.5966C85.0636 42.4517 84.9158 42.3324 84.7283 42.2386C84.5408 42.1449 84.3008 42.098 84.0082 42.098C83.6076 42.098 83.2738 42.1903 83.0067 42.375C82.7425 42.5568 82.6104 42.7884 82.6104 43.0696C82.6104 43.3196 82.7013 43.517 82.8832 43.6619C83.065 43.8068 83.3491 43.9276 83.7354 44.0241L84.707 44.2628C85.2923 44.4048 85.7283 44.6222 86.0153 44.9148C86.3022 45.2045 86.4457 45.5781 86.4457 46.0355C86.4457 46.4105 86.3377 46.7457 86.1218 47.0412C85.9087 47.3366 85.6104 47.5696 85.2269 47.7401C84.8434 47.9105 84.3974 47.9957 83.8888 47.9957C83.2212 47.9957 82.6687 47.8509 82.2312 47.5611C81.7937 47.2713 81.5167 46.848 81.4002 46.2912L82.3548 46.0526C82.4457 46.4048 82.6175 46.669 82.8704 46.8452C83.1261 47.0213 83.4599 47.1094 83.8718 47.1094C84.3406 47.1094 84.7127 47.0099 84.9883 46.8111C85.2667 46.6094 85.4059 46.3679 85.4059 46.0866C85.4059 45.8594 85.3263 45.669 85.1673 45.5156C85.0082 45.3594 84.7638 45.2429 84.4343 45.1662L83.3434 44.9105C82.744 44.7685 82.3036 44.5483 82.0224 44.25C81.744 43.9489 81.6048 43.5724 81.6048 43.1207C81.6048 42.7514 81.7085 42.4247 81.9158 42.1406C82.1261 41.8565 82.4116 41.6335 82.7724 41.4716C83.136 41.3097 83.5479 41.2287 84.0082 41.2287C84.6559 41.2287 85.1644 41.3707 85.5337 41.6548C85.9059 41.9389 86.1701 42.3139 86.3263 42.7798Z" fill="#181818"/>
<path d="M230.057 47.8594V39.1321H231.114V43.0185H235.767V39.1321H236.824V47.8594H235.767V43.956H231.114V47.8594H230.057ZM238.94 47.8594V39.1321H244.207V40.0696H239.996V43.0185H243.934V43.956H239.996V46.9219H244.275V47.8594H238.94ZM246.623 39.1321L248.873 42.7628H248.941L251.191 39.1321H252.435L249.691 43.4957L252.435 47.8594H251.191L248.941 44.2969H248.873L246.623 47.8594H245.379L248.191 43.4957L245.379 39.1321H246.623Z" fill="#181818"/>
<path d="M245.22 78L247.01 67.0909H248.075L246.286 78H245.22ZM240.256 74.9744L240.426 73.9091H248.565L248.395 74.9744H240.256ZM241.385 78L243.175 67.0909H244.24L242.45 78H241.385ZM240.895 71.1818L241.065 70.1165H249.205L249.034 71.1818H240.895ZM254.15 78.1491C253.348 78.1491 252.664 77.9308 252.1 77.494C251.535 77.0536 251.104 76.4162 250.805 75.5817C250.507 74.7436 250.358 73.7315 250.358 72.5455C250.358 71.3665 250.507 70.3597 250.805 69.5252C251.107 68.6871 251.54 68.0479 252.105 67.6076C252.673 67.1637 253.355 66.9418 254.15 66.9418C254.946 66.9418 255.626 67.1637 256.191 67.6076C256.759 68.0479 257.192 68.6871 257.49 69.5252C257.792 70.3597 257.943 71.3665 257.943 72.5455C257.943 73.7315 257.794 74.7436 257.496 75.5817C257.197 76.4162 256.766 77.0536 256.201 77.494C255.637 77.9308 254.953 78.1491 254.15 78.1491ZM254.15 76.9773C254.946 76.9773 255.564 76.5937 256.004 75.8267C256.444 75.0597 256.665 73.9659 256.665 72.5455C256.665 71.6009 256.563 70.7965 256.361 70.1325C256.162 69.4684 255.874 68.9624 255.498 68.6143C255.125 68.2663 254.676 68.0923 254.15 68.0923C253.362 68.0923 252.746 68.4812 252.302 69.2589C251.858 70.033 251.636 71.1286 251.636 72.5455C251.636 73.4901 251.736 74.2926 251.934 74.9531C252.133 75.6136 252.419 76.1161 252.792 76.4606C253.169 76.805 253.621 76.9773 254.15 76.9773ZM263.525 78.1491C262.723 78.1491 262.039 77.9308 261.475 77.494C260.91 77.0536 260.479 76.4162 260.18 75.5817C259.882 74.7436 259.733 73.7315 259.733 72.5455C259.733 71.3665 259.882 70.3597 260.18 69.5252C260.482 68.6871 260.915 68.0479 261.48 67.6076C262.048 67.1637 262.73 66.9418 263.525 66.9418C264.321 66.9418 265.001 67.1637 265.566 67.6076C266.134 68.0479 266.567 68.6871 266.865 69.5252C267.167 70.3597 267.318 71.3665 267.318 72.5455C267.318 73.7315 267.169 74.7436 266.871 75.5817C266.572 76.4162 266.141 77.0536 265.576 77.494C265.012 77.9308 264.328 78.1491 263.525 78.1491ZM263.525 76.9773C264.321 76.9773 264.939 76.5937 265.379 75.8267C265.819 75.0597 266.04 73.9659 266.04 72.5455C266.04 71.6009 265.938 70.7965 265.736 70.1325C265.537 69.4684 265.249 68.9624 264.873 68.6143C264.5 68.2663 264.051 68.0923 263.525 68.0923C262.737 68.0923 262.121 68.4812 261.677 69.2589C261.233 70.033 261.011 71.1286 261.011 72.5455C261.011 73.4901 261.111 74.2926 261.309 74.9531C261.508 75.6136 261.794 76.1161 262.167 76.4606C262.544 76.805 262.996 76.9773 263.525 76.9773ZM272.9 78.1491C272.098 78.1491 271.414 77.9308 270.85 77.494C270.285 77.0536 269.854 76.4162 269.555 75.5817C269.257 74.7436 269.108 73.7315 269.108 72.5455C269.108 71.3665 269.257 70.3597 269.555 69.5252C269.857 68.6871 270.29 68.0479 270.855 67.6076C271.423 67.1637 272.105 66.9418 272.9 66.9418C273.696 66.9418 274.376 67.1637 274.941 67.6076C275.509 68.0479 275.942 68.6871 276.24 69.5252C276.542 70.3597 276.693 71.3665 276.693 72.5455C276.693 73.7315 276.544 74.7436 276.246 75.5817C275.947 76.4162 275.516 77.0536 274.951 77.494C274.387 77.9308 273.703 78.1491 272.9 78.1491ZM272.9 76.9773C273.696 76.9773 274.314 76.5937 274.754 75.8267C275.194 75.0597 275.415 73.9659 275.415 72.5455C275.415 71.6009 275.313 70.7965 275.111 70.1325C274.912 69.4684 274.624 68.9624 274.248 68.6143C273.875 68.2663 273.426 68.0923 272.9 68.0923C272.112 68.0923 271.496 68.4812 271.052 69.2589C270.608 70.033 270.386 71.1286 270.386 72.5455C270.386 73.4901 270.486 74.2926 270.684 74.9531C270.883 75.6136 271.169 76.1161 271.542 76.4606C271.919 76.805 272.371 76.9773 272.9 76.9773ZM282.275 78.1491C281.473 78.1491 280.789 77.9308 280.225 77.494C279.66 77.0536 279.229 76.4162 278.93 75.5817C278.632 74.7436 278.483 73.7315 278.483 72.5455C278.483 71.3665 278.632 70.3597 278.93 69.5252C279.232 68.6871 279.665 68.0479 280.23 67.6076C280.798 67.1637 281.48 66.9418 282.275 66.9418C283.071 66.9418 283.751 67.1637 284.316 67.6076C284.884 68.0479 285.317 68.6871 285.615 69.5252C285.917 70.3597 286.068 71.3665 286.068 72.5455C286.068 73.7315 285.919 74.7436 285.621 75.5817C285.322 76.4162 284.891 77.0536 284.326 77.494C283.762 77.9308 283.078 78.1491 282.275 78.1491ZM282.275 76.9773C283.071 76.9773 283.689 76.5937 284.129 75.8267C284.569 75.0597 284.79 73.9659 284.79 72.5455C284.79 71.6009 284.688 70.7965 284.486 70.1325C284.287 69.4684 283.999 68.9624 283.623 68.6143C283.25 68.2663 282.801 68.0923 282.275 68.0923C281.487 68.0923 280.871 68.4812 280.427 69.2589C279.983 70.033 279.761 71.1286 279.761 72.5455C279.761 73.4901 279.861 74.2926 280.059 74.9531C280.258 75.6136 280.544 76.1161 280.917 76.4606C281.294 76.805 281.746 76.9773 282.275 76.9773ZM291.65 78.1491C290.848 78.1491 290.164 77.9308 289.6 77.494C289.035 77.0536 288.604 76.4162 288.305 75.5817C288.007 74.7436 287.858 73.7315 287.858 72.5455C287.858 71.3665 288.007 70.3597 288.305 69.5252C288.607 68.6871 289.04 68.0479 289.605 67.6076C290.173 67.1637 290.855 66.9418 291.65 66.9418C292.446 66.9418 293.126 67.1637 293.691 67.6076C294.259 68.0479 294.692 68.6871 294.99 69.5252C295.292 70.3597 295.443 71.3665 295.443 72.5455C295.443 73.7315 295.294 74.7436 294.996 75.5817C294.697 76.4162 294.266 77.0536 293.701 77.494C293.137 77.9308 292.453 78.1491 291.65 78.1491ZM291.65 76.9773C292.446 76.9773 293.064 76.5937 293.504 75.8267C293.944 75.0597 294.165 73.9659 294.165 72.5455C294.165 71.6009 294.063 70.7965 293.861 70.1325C293.662 69.4684 293.374 68.9624 292.998 68.6143C292.625 68.2663 292.176 68.0923 291.65 68.0923C290.862 68.0923 290.246 68.4812 289.802 69.2589C289.358 70.033 289.136 71.1286 289.136 72.5455C289.136 73.4901 289.236 74.2926 289.434 74.9531C289.633 75.6136 289.919 76.1161 290.292 76.4606C290.669 76.805 291.121 76.9773 291.65 76.9773ZM301.025 78.1491C300.223 78.1491 299.539 77.9308 298.975 77.494C298.41 77.0536 297.979 76.4162 297.68 75.5817C297.382 74.7436 297.233 73.7315 297.233 72.5455C297.233 71.3665 297.382 70.3597 297.68 69.5252C297.982 68.6871 298.415 68.0479 298.98 67.6076C299.548 67.1637 300.23 66.9418 301.025 66.9418C301.821 66.9418 302.501 67.1637 303.066 67.6076C303.634 68.0479 304.067 68.6871 304.365 69.5252C304.667 70.3597 304.818 71.3665 304.818 72.5455C304.818 73.7315 304.669 74.7436 304.371 75.5817C304.072 76.4162 303.641 77.0536 303.076 77.494C302.512 77.9308 301.828 78.1491 301.025 78.1491ZM301.025 76.9773C301.821 76.9773 302.439 76.5937 302.879 75.8267C303.319 75.0597 303.54 73.9659 303.54 72.5455C303.54 71.6009 303.438 70.7965 303.236 70.1325C303.037 69.4684 302.749 68.9624 302.373 68.6143C302 68.2663 301.551 68.0923 301.025 68.0923C300.237 68.0923 299.621 68.4812 299.177 69.2589C298.733 70.033 298.511 71.1286 298.511 72.5455C298.511 73.4901 298.611 74.2926 298.809 74.9531C299.008 75.6136 299.294 76.1161 299.667 76.4606C300.044 76.805 300.496 76.9773 301.025 76.9773Z" fill="#181818"/>
<rect x="25" y="252.88" width="32" height="31.8329" rx="3" fill="black"/>
<rect x="32" y="65.7021" width="18" height="17.906" rx="3" fill="#00B871"/>
<path d="M25 61.7393C25 60.0824 26.3431 58.7393 28 58.7393H54C55.6569 58.7393 57 60.0824 57 61.7393V87.5722C57 89.229 55.6569 90.5722 54 90.5722H47.048C46.3695 90.5722 45.7109 90.8022 45.1799 91.2248L41.6227 94.0557C41.2582 94.3458 40.7418 94.3458 40.3773 94.0557L36.8201 91.2248C36.2891 90.8022 35.6305 90.5722 34.952 90.5722H28C26.3431 90.5722 25 89.229 25 87.5722V61.7393Z" fill="#111111"/>
<path d="M25 104C25 102.343 26.3431 101 28 101H352C353.657 101 355 102.343 355 104V193C355 194.657 353.657 196 352 196H28C26.3431 196 25 194.657 25 193V104Z" fill="url(#paint0_linear_2787_81)"/>
<path d="M25 213C25 211.343 26.3431 210 28 210H352C353.657 210 355 211.343 355 213V221C355 222.657 353.657 224 352 224H28C26.3431 224 25 222.657 25 221V213Z" fill="#EAEAEA"/>
<rect x="284" y="253.379" width="32" height="31.8329" rx="3" fill="#58BFC9"/>
<rect x="99" y="252.88" width="32" height="31.8329" rx="3" fill="#999999"/>
<rect x="99" y="58.7393" width="32" height="31.8329" rx="3" fill="#DE002A"/>
<rect x="173" y="253.379" width="32" height="31.8329" rx="3" fill="#6766DB"/>
<rect x="62" y="252.88" width="32" height="31.8329" rx="3" fill="#444444"/>
<rect x="62" y="58.7393" width="32" height="31.8329" rx="3" fill="#006CE7"/>
<g filter="url(#filter0_d_2787_81)">
<rect x="20" y="188" width="14" height="13.9269" rx="6.96345" fill="black"/>
<rect x="21.5" y="189.5" width="11" height="10.9269" rx="5.46345" stroke="white" stroke-width="3"/>
</g>
<g filter="url(#filter1_d_2787_81)">
<rect x="342" y="210" width="14" height="13.9269" rx="6.96345" fill="black"/>
<rect x="343.5" y="211.5" width="11" height="10.9269" rx="5.46345" stroke="white" stroke-width="3"/>
</g>
<rect x="321" y="253.379" width="32" height="31.8329" rx="3" fill="#F5BF6A"/>
<rect x="210" y="253.379" width="32" height="31.8329" rx="3" fill="#35A439"/>
<rect x="136.5" y="253.38" width="31" height="30.8329" rx="2.5" fill="white" stroke="#BFBFBF"/>
<rect x="247" y="253.379" width="32" height="31.8329" rx="3" fill="#006CE7"/>
<path d="M363.177 28.1196L363.354 27.9428L363.177 27.766L362.234 26.8232L362.057 26.6464L361.881 26.8232L357 31.7038L352.12 26.8232L351.943 26.6464L351.766 26.8232L350.823 27.766L350.646 27.9428L350.823 28.1196L355.704 33L350.823 37.8804L350.646 38.0572L350.823 38.234L351.766 39.1768L351.943 39.3536L352.12 39.1768L357 34.2964L361.881 39.1768L362.057 39.3536L362.234 39.1768L363.177 38.234L363.354 38.0572L363.177 37.8804L358.296 33L363.177 28.1196Z" fill="#181818" stroke="#444444" stroke-width="0.5"/>
<rect x="11" y="1" width="378" height="298" rx="4" fill="#F1E7FF" stroke="#181818" stroke-width="2"/>
<rect x="240" y="45" width="124" height="35" rx="4" stroke="#E8E8E8" stroke-width="2"/>
<path d="M38.75 232H36.0568V223.273H38.8693C39.7159 223.273 40.4403 223.447 41.0426 223.797C41.6449 224.143 42.1065 224.642 42.4276 225.293C42.7486 225.94 42.9091 226.716 42.9091 227.619C42.9091 228.528 42.7472 229.311 42.4233 229.967C42.0994 230.621 41.6278 231.124 41.0085 231.476C40.3892 231.825 39.6364 232 38.75 232ZM37.1136 231.062H38.6818C39.4034 231.062 40.0014 230.923 40.4759 230.645C40.9503 230.366 41.304 229.97 41.5369 229.456C41.7699 228.942 41.8864 228.33 41.8864 227.619C41.8864 226.915 41.7713 226.308 41.5412 225.8C41.3111 225.288 40.9673 224.896 40.5099 224.624C40.0526 224.348 39.483 224.21 38.8011 224.21H37.1136V231.062ZM47.2898 232.136C46.6591 232.136 46.1151 231.997 45.6577 231.719C45.2031 231.438 44.8523 231.045 44.6051 230.543C44.3608 230.037 44.2386 229.449 44.2386 228.778C44.2386 228.108 44.3608 227.517 44.6051 227.006C44.8523 226.491 45.196 226.091 45.6364 225.804C46.0795 225.514 46.5966 225.369 47.1875 225.369C47.5284 225.369 47.8651 225.426 48.1974 225.54C48.5298 225.653 48.8324 225.838 49.1051 226.094C49.3778 226.347 49.5952 226.682 49.7571 227.099C49.919 227.517 50 228.031 50 228.642V229.068H44.9545V228.199H48.9773C48.9773 227.83 48.9034 227.5 48.7557 227.21C48.6108 226.92 48.4034 226.692 48.1335 226.524C47.8665 226.357 47.5511 226.273 47.1875 226.273C46.7869 226.273 46.4403 226.372 46.1477 226.571C45.858 226.767 45.6349 227.023 45.4787 227.338C45.3224 227.653 45.2443 227.991 45.2443 228.352V228.932C45.2443 229.426 45.3295 229.845 45.5 230.189C45.6733 230.53 45.9134 230.79 46.2202 230.969C46.527 231.145 46.8835 231.233 47.2898 231.233C47.554 231.233 47.7926 231.196 48.0057 231.122C48.2216 231.045 48.4077 230.932 48.5639 230.781C48.7202 230.628 48.8409 230.437 48.9261 230.21L49.8977 230.483C49.7955 230.812 49.6236 231.102 49.3821 231.352C49.1406 231.599 48.8423 231.793 48.4872 231.932C48.1321 232.068 47.733 232.136 47.2898 232.136ZM53.456 232.153C53.0412 232.153 52.6648 232.075 52.3267 231.919C51.9886 231.76 51.7202 231.531 51.5213 231.233C51.3224 230.932 51.223 230.568 51.223 230.142C51.223 229.767 51.2969 229.463 51.4446 229.23C51.5923 228.994 51.7898 228.81 52.0369 228.676C52.2841 228.543 52.5568 228.443 52.8551 228.378C53.1563 228.31 53.4588 228.256 53.7628 228.216C54.1605 228.165 54.483 228.126 54.7301 228.101C54.9801 228.072 55.1619 228.026 55.2756 227.96C55.392 227.895 55.4503 227.781 55.4503 227.619V227.585C55.4503 227.165 55.3352 226.838 55.1051 226.605C54.8778 226.372 54.5327 226.256 54.0696 226.256C53.5895 226.256 53.2131 226.361 52.9403 226.571C52.6676 226.781 52.4759 227.006 52.3651 227.244L51.4105 226.903C51.581 226.506 51.8082 226.196 52.0923 225.974C52.3793 225.75 52.6918 225.594 53.0298 225.506C53.3707 225.415 53.706 225.369 54.0355 225.369C54.2457 225.369 54.4872 225.395 54.7599 225.446C55.0355 225.494 55.3011 225.595 55.5568 225.749C55.8153 225.902 56.0298 226.134 56.2003 226.443C56.3707 226.753 56.456 227.168 56.456 227.688V232H55.4503V231.114H55.3991C55.331 231.256 55.2173 231.408 55.0582 231.57C54.8991 231.732 54.6875 231.869 54.4233 231.983C54.1591 232.097 53.8366 232.153 53.456 232.153ZM53.6094 231.25C54.0071 231.25 54.3423 231.172 54.6151 231.016C54.8906 230.859 55.098 230.658 55.2372 230.411C55.3793 230.163 55.4503 229.903 55.4503 229.631V228.71C55.4077 228.761 55.3139 228.808 55.169 228.851C55.027 228.891 54.8622 228.926 54.6747 228.957C54.4901 228.986 54.3097 229.011 54.1335 229.034C53.9602 229.054 53.8196 229.071 53.7116 229.085C53.4503 229.119 53.206 229.175 52.9787 229.251C52.7543 229.325 52.5724 229.437 52.4332 229.588C52.2969 229.736 52.2287 229.937 52.2287 230.193C52.2287 230.543 52.358 230.807 52.6165 230.986C52.8778 231.162 53.2088 231.25 53.6094 231.25ZM61.2063 225.455V226.307H57.6779V225.455H61.2063ZM58.7347 232V224.551C58.7347 224.176 58.8228 223.864 58.9989 223.614C59.1751 223.364 59.4038 223.176 59.685 223.051C59.9663 222.926 60.2631 222.864 60.5756 222.864C60.8228 222.864 61.0245 222.884 61.1808 222.923C61.337 222.963 61.4535 223 61.5302 223.034L61.2404 223.903C61.1893 223.886 61.1183 223.865 61.0273 223.839C60.9393 223.814 60.8228 223.801 60.6779 223.801C60.3455 223.801 60.1055 223.885 59.9577 224.053C59.8129 224.22 59.7404 224.466 59.7404 224.79V232H58.7347ZM64.3544 232.153C63.9396 232.153 63.5632 232.075 63.2251 231.919C62.8871 231.76 62.6186 231.531 62.4197 231.233C62.2209 230.932 62.1214 230.568 62.1214 230.142C62.1214 229.767 62.1953 229.463 62.343 229.23C62.4908 228.994 62.6882 228.81 62.9354 228.676C63.1825 228.543 63.4553 228.443 63.7536 228.378C64.0547 228.31 64.3572 228.256 64.6612 228.216C65.0589 228.165 65.3814 228.126 65.6286 228.101C65.8786 228.072 66.0604 228.026 66.174 227.96C66.2905 227.895 66.3487 227.781 66.3487 227.619V227.585C66.3487 227.165 66.2337 226.838 66.0036 226.605C65.7763 226.372 65.4311 226.256 64.968 226.256C64.4879 226.256 64.1115 226.361 63.8388 226.571C63.5661 226.781 63.3743 227.006 63.2635 227.244L62.3089 226.903C62.4794 226.506 62.7067 226.196 62.9908 225.974C63.2777 225.75 63.5902 225.594 63.9283 225.506C64.2692 225.415 64.6044 225.369 64.9339 225.369C65.1442 225.369 65.3857 225.395 65.6584 225.446C65.9339 225.494 66.1996 225.595 66.4553 225.749C66.7138 225.902 66.9283 226.134 67.0987 226.443C67.2692 226.753 67.3544 227.168 67.3544 227.688V232H66.3487V231.114H66.2976C66.2294 231.256 66.1158 231.408 65.9567 231.57C65.7976 231.732 65.5859 231.869 65.3217 231.983C65.0575 232.097 64.7351 232.153 64.3544 232.153ZM64.5078 231.25C64.9055 231.25 65.2408 231.172 65.5135 231.016C65.7891 230.859 65.9964 230.658 66.1357 230.411C66.2777 230.163 66.3487 229.903 66.3487 229.631V228.71C66.3061 228.761 66.2124 228.808 66.0675 228.851C65.9254 228.891 65.7607 228.926 65.5732 228.957C65.3885 228.986 65.2081 229.011 65.032 229.034C64.8587 229.054 64.718 229.071 64.6101 229.085C64.3487 229.119 64.1044 229.175 63.8771 229.251C63.6527 229.325 63.4709 229.437 63.3317 229.588C63.1953 229.736 63.1271 229.937 63.1271 230.193C63.1271 230.543 63.2564 230.807 63.5149 230.986C63.7763 231.162 64.1072 231.25 64.5078 231.25ZM73.315 229.324V225.455H74.3207V232H73.315V230.892H73.2468C73.0934 231.224 72.8548 231.507 72.5309 231.74C72.207 231.97 71.7979 232.085 71.3036 232.085C70.8945 232.085 70.5309 231.996 70.2127 231.817C69.8945 231.635 69.6445 231.362 69.4627 230.999C69.2809 230.632 69.19 230.17 69.19 229.614V225.455H70.1957V229.545C70.1957 230.023 70.3292 230.403 70.5962 230.688C70.8661 230.972 71.2099 231.114 71.6275 231.114C71.8775 231.114 72.1317 231.05 72.3903 230.922C72.6516 230.794 72.8704 230.598 73.0465 230.334C73.2255 230.07 73.315 229.733 73.315 229.324ZM77.1683 223.273V232H76.1626V223.273H77.1683ZM81.8569 225.455V226.307H78.4648V225.455H81.8569ZM79.4535 223.886H80.4592V230.125C80.4592 230.409 80.5004 230.622 80.5827 230.764C80.668 230.903 80.7759 230.997 80.9066 231.045C81.0401 231.091 81.1808 231.114 81.3285 231.114C81.4393 231.114 81.5302 231.108 81.6012 231.097C81.6722 231.082 81.729 231.071 81.7717 231.062L81.9762 231.966C81.908 231.991 81.8129 232.017 81.6907 232.043C81.5685 232.071 81.4137 232.085 81.2262 232.085C80.9421 232.085 80.6637 232.024 80.391 231.902C80.1211 231.78 79.8967 231.594 79.7177 231.344C79.5415 231.094 79.4535 230.778 79.4535 230.398V223.886ZM89.4038 232.136C88.7901 232.136 88.2617 231.991 87.8185 231.702C87.3754 231.412 87.0344 231.013 86.7958 230.504C86.5572 229.996 86.4379 229.415 86.4379 228.761C86.4379 228.097 86.56 227.51 86.8043 227.001C87.0515 226.49 87.3952 226.091 87.8356 225.804C88.2788 225.514 88.7958 225.369 89.3867 225.369C89.8469 225.369 90.2617 225.455 90.631 225.625C91.0004 225.795 91.3029 226.034 91.5387 226.341C91.7745 226.648 91.9208 227.006 91.9776 227.415H90.9719C90.8952 227.116 90.7248 226.852 90.4606 226.622C90.1992 226.389 89.8469 226.273 89.4038 226.273C89.0117 226.273 88.668 226.375 88.3725 226.58C88.0799 226.781 87.8512 227.067 87.6864 227.436C87.5245 227.803 87.4435 228.233 87.4435 228.727C87.4435 229.233 87.5231 229.673 87.6822 230.048C87.8441 230.423 88.0714 230.714 88.364 230.922C88.6594 231.129 89.006 231.233 89.4038 231.233C89.6651 231.233 89.9023 231.188 90.1154 231.097C90.3285 231.006 90.5089 230.875 90.6566 230.705C90.8043 230.534 90.9094 230.33 90.9719 230.091H91.9776C91.9208 230.477 91.7802 230.825 91.5558 231.135C91.3342 231.442 91.0401 231.686 90.6737 231.868C90.31 232.047 89.8867 232.136 89.4038 232.136ZM96.1069 232.136C95.516 232.136 94.9975 231.996 94.5515 231.714C94.1083 231.433 93.7617 231.04 93.5117 230.534C93.2646 230.028 93.141 229.437 93.141 228.761C93.141 228.08 93.2646 227.484 93.5117 226.976C93.7617 226.467 94.1083 226.072 94.5515 225.791C94.9975 225.51 95.516 225.369 96.1069 225.369C96.6978 225.369 97.2148 225.51 97.658 225.791C98.104 226.072 98.4506 226.467 98.6978 226.976C98.9478 227.484 99.0728 228.08 99.0728 228.761C99.0728 229.437 98.9478 230.028 98.6978 230.534C98.4506 231.04 98.104 231.433 97.658 231.714C97.2148 231.996 96.6978 232.136 96.1069 232.136ZM96.1069 231.233C96.5558 231.233 96.9251 231.118 97.2148 230.888C97.5046 230.658 97.7191 230.355 97.8583 229.98C97.9975 229.605 98.0671 229.199 98.0671 228.761C98.0671 228.324 97.9975 227.916 97.8583 227.538C97.7191 227.161 97.5046 226.855 97.2148 226.622C96.9251 226.389 96.5558 226.273 96.1069 226.273C95.658 226.273 95.2887 226.389 94.9989 226.622C94.7092 226.855 94.4947 227.161 94.3555 227.538C94.2163 227.916 94.1467 228.324 94.1467 228.761C94.1467 229.199 94.2163 229.605 94.3555 229.98C94.4947 230.355 94.7092 230.658 94.9989 230.888C95.2887 231.118 95.658 231.233 96.1069 231.233ZM101.614 223.273V232H100.608V223.273H101.614ZM106.115 232.136C105.524 232.136 105.005 231.996 104.559 231.714C104.116 231.433 103.77 231.04 103.52 230.534C103.272 230.028 103.149 229.437 103.149 228.761C103.149 228.08 103.272 227.484 103.52 226.976C103.77 226.467 104.116 226.072 104.559 225.791C105.005 225.51 105.524 225.369 106.115 225.369C106.706 225.369 107.223 225.51 107.666 225.791C108.112 226.072 108.458 226.467 108.706 226.976C108.956 227.484 109.081 228.08 109.081 228.761C109.081 229.437 108.956 230.028 108.706 230.534C108.458 231.04 108.112 231.433 107.666 231.714C107.223 231.996 106.706 232.136 106.115 232.136ZM106.115 231.233C106.564 231.233 106.933 231.118 107.223 230.888C107.512 230.658 107.727 230.355 107.866 229.98C108.005 229.605 108.075 229.199 108.075 228.761C108.075 228.324 108.005 227.916 107.866 227.538C107.727 227.161 107.512 226.855 107.223 226.622C106.933 226.389 106.564 226.273 106.115 226.273C105.666 226.273 105.297 226.389 105.007 226.622C104.717 226.855 104.502 227.161 104.363 227.538C104.224 227.916 104.154 228.324 104.154 228.761C104.154 229.199 104.224 229.605 104.363 229.98C104.502 230.355 104.717 230.658 105.007 230.888C105.297 231.118 105.666 231.233 106.115 231.233ZM110.616 232V225.455H111.587V226.443H111.656C111.775 226.119 111.991 225.857 112.303 225.655C112.616 225.453 112.968 225.352 113.36 225.352C113.434 225.352 113.526 225.354 113.637 225.357C113.748 225.359 113.832 225.364 113.888 225.369V226.392C113.854 226.384 113.776 226.371 113.654 226.354C113.535 226.334 113.408 226.324 113.275 226.324C112.957 226.324 112.673 226.391 112.423 226.524C112.175 226.655 111.979 226.837 111.835 227.07C111.692 227.3 111.621 227.562 111.621 227.858V232H110.616ZM119.717 226.92L118.814 227.176C118.757 227.026 118.673 226.879 118.562 226.737C118.454 226.592 118.306 226.473 118.119 226.379C117.931 226.286 117.691 226.239 117.399 226.239C116.998 226.239 116.664 226.331 116.397 226.516C116.133 226.697 116.001 226.929 116.001 227.21C116.001 227.46 116.092 227.658 116.274 227.803C116.456 227.947 116.74 228.068 117.126 228.165L118.098 228.403C118.683 228.545 119.119 228.763 119.406 229.055C119.693 229.345 119.836 229.719 119.836 230.176C119.836 230.551 119.728 230.886 119.512 231.182C119.299 231.477 119.001 231.71 118.618 231.881C118.234 232.051 117.788 232.136 117.279 232.136C116.612 232.136 116.059 231.991 115.622 231.702C115.184 231.412 114.907 230.989 114.791 230.432L115.745 230.193C115.836 230.545 116.008 230.81 116.261 230.986C116.517 231.162 116.85 231.25 117.262 231.25C117.731 231.25 118.103 231.151 118.379 230.952C118.657 230.75 118.797 230.509 118.797 230.227C118.797 230 118.717 229.81 118.558 229.656C118.399 229.5 118.154 229.384 117.825 229.307L116.734 229.051C116.135 228.909 115.694 228.689 115.413 228.391C115.135 228.089 114.995 227.713 114.995 227.261C114.995 226.892 115.099 226.565 115.306 226.281C115.517 225.997 115.802 225.774 116.163 225.612C116.527 225.45 116.939 225.369 117.399 225.369C118.047 225.369 118.555 225.511 118.924 225.795C119.297 226.08 119.561 226.455 119.717 226.92Z" fill="#181818"/>
<path d="M37.1136 29.1321V37.8594H36.0568V29.1321H37.1136ZM41.7553 37.9957C41.1417 37.9957 40.6133 37.8509 40.1701 37.5611C39.7269 37.2713 39.386 36.8722 39.1474 36.3636C38.9087 35.8551 38.7894 35.2741 38.7894 34.6207C38.7894 33.956 38.9116 33.3693 39.1559 32.8608C39.4031 32.3494 39.7468 31.9503 40.1871 31.6634C40.6303 31.3736 41.1474 31.2287 41.7383 31.2287C42.1985 31.2287 42.6133 31.3139 42.9826 31.4844C43.3519 31.6548 43.6545 31.8935 43.8903 32.2003C44.1261 32.5071 44.2724 32.8651 44.3292 33.2741H43.3235C43.2468 32.9759 43.0763 32.7116 42.8121 32.4815C42.5508 32.2486 42.1985 32.1321 41.7553 32.1321C41.3633 32.1321 41.0195 32.2344 40.7241 32.4389C40.4315 32.6406 40.2028 32.9261 40.038 33.2955C39.8761 33.6619 39.7951 34.0923 39.7951 34.5866C39.7951 35.0923 39.8746 35.5327 40.0337 35.9077C40.1957 36.2827 40.4229 36.5739 40.7156 36.7812C41.011 36.9886 41.3576 37.0923 41.7553 37.0923C42.0167 37.0923 42.2539 37.0469 42.467 36.956C42.68 36.8651 42.8604 36.7344 43.0082 36.5639C43.1559 36.3935 43.261 36.1889 43.3235 35.9503H44.3292C44.2724 36.3366 44.1317 36.6847 43.9073 36.9943C43.6857 37.3011 43.3917 37.5455 43.0252 37.7273C42.6616 37.9062 42.2383 37.9957 41.7553 37.9957ZM48.4585 37.9957C47.8675 37.9957 47.3491 37.8551 46.9031 37.5739C46.4599 37.2926 46.1133 36.8991 45.8633 36.3935C45.6161 35.8878 45.4925 35.2969 45.4925 34.6207C45.4925 33.9389 45.6161 33.3437 45.8633 32.8352C46.1133 32.3267 46.4599 31.9318 46.9031 31.6506C47.3491 31.3693 47.8675 31.2287 48.4585 31.2287C49.0494 31.2287 49.5664 31.3693 50.0096 31.6506C50.4556 31.9318 50.8022 32.3267 51.0494 32.8352C51.2994 33.3437 51.4244 33.9389 51.4244 34.6207C51.4244 35.2969 51.2994 35.8878 51.0494 36.3935C50.8022 36.8991 50.4556 37.2926 50.0096 37.5739C49.5664 37.8551 49.0494 37.9957 48.4585 37.9957ZM48.4585 37.0923C48.9073 37.0923 49.2766 36.9773 49.5664 36.7472C49.8562 36.517 50.0707 36.2145 50.2099 35.8395C50.3491 35.4645 50.4187 35.0582 50.4187 34.6207C50.4187 34.1832 50.3491 33.7756 50.2099 33.3977C50.0707 33.0199 49.8562 32.7145 49.5664 32.4815C49.2766 32.2486 48.9073 32.1321 48.4585 32.1321C48.0096 32.1321 47.6403 32.2486 47.3505 32.4815C47.0607 32.7145 46.8462 33.0199 46.707 33.3977C46.5678 33.7756 46.4982 34.1832 46.4982 34.6207C46.4982 35.0582 46.5678 35.4645 46.707 35.8395C46.8462 36.2145 47.0607 36.517 47.3505 36.7472C47.6403 36.9773 48.0096 37.0923 48.4585 37.0923ZM53.9652 33.9219V37.8594H52.9595V31.3139H53.9311V32.3366H54.0163C54.1697 32.0043 54.4027 31.7372 54.7152 31.5355C55.0277 31.331 55.4311 31.2287 55.9254 31.2287C56.3686 31.2287 56.7564 31.3196 57.0888 31.5014C57.4212 31.6804 57.6797 31.9531 57.8643 32.3196C58.049 32.6832 58.1413 33.1435 58.1413 33.7003V37.8594H57.1357V33.7685C57.1357 33.2543 57.0021 32.8537 56.7351 32.5668C56.468 32.277 56.1016 32.1321 55.6357 32.1321C55.3146 32.1321 55.0277 32.2017 54.7749 32.3409C54.5249 32.4801 54.3274 32.6832 54.1825 32.9503C54.0376 33.2173 53.9652 33.5412 53.9652 33.9219ZM66.0131 37.9957C65.3995 37.9957 64.8711 37.8509 64.4279 37.5611C63.9847 37.2713 63.6438 36.8722 63.4052 36.3636C63.1665 35.8551 63.0472 35.2741 63.0472 34.6207C63.0472 33.956 63.1694 33.3693 63.4137 32.8608C63.6609 32.3494 64.0046 31.9503 64.445 31.6634C64.8881 31.3736 65.4052 31.2287 65.9961 31.2287C66.4563 31.2287 66.8711 31.3139 67.2404 31.4844C67.6097 31.6548 67.9123 31.8935 68.1481 32.2003C68.3839 32.5071 68.5302 32.8651 68.587 33.2741H67.5813C67.5046 32.9759 67.3342 32.7116 67.07 32.4815C66.8086 32.2486 66.4563 32.1321 66.0131 32.1321C65.6211 32.1321 65.2773 32.2344 64.9819 32.4389C64.6893 32.6406 64.4606 32.9261 64.2958 33.2955C64.1339 33.6619 64.0529 34.0923 64.0529 34.5866C64.0529 35.0923 64.1325 35.5327 64.2915 35.9077C64.4535 36.2827 64.6808 36.5739 64.9734 36.7812C65.2688 36.9886 65.6154 37.0923 66.0131 37.0923C66.2745 37.0923 66.5117 37.0469 66.7248 36.956C66.9379 36.8651 67.1183 36.7344 67.266 36.5639C67.4137 36.3935 67.5188 36.1889 67.5813 35.9503H68.587C68.5302 36.3366 68.3896 36.6847 68.1651 36.9943C67.9435 37.3011 67.6495 37.5455 67.283 37.7273C66.9194 37.9062 66.4961 37.9957 66.0131 37.9957ZM72.7163 37.9957C72.1254 37.9957 71.6069 37.8551 71.1609 37.5739C70.7177 37.2926 70.3711 36.8991 70.1211 36.3935C69.8739 35.8878 69.7504 35.2969 69.7504 34.6207C69.7504 33.9389 69.8739 33.3437 70.1211 32.8352C70.3711 32.3267 70.7177 31.9318 71.1609 31.6506C71.6069 31.3693 72.1254 31.2287 72.7163 31.2287C73.3072 31.2287 73.8242 31.3693 74.2674 31.6506C74.7134 31.9318 75.06 32.3267 75.3072 32.8352C75.5572 33.3437 75.6822 33.9389 75.6822 34.6207C75.6822 35.2969 75.5572 35.8878 75.3072 36.3935C75.06 36.8991 74.7134 37.2926 74.2674 37.5739C73.8242 37.8551 73.3072 37.9957 72.7163 37.9957ZM72.7163 37.0923C73.1651 37.0923 73.5344 36.9773 73.8242 36.7472C74.114 36.517 74.3285 36.2145 74.4677 35.8395C74.6069 35.4645 74.6765 35.0582 74.6765 34.6207C74.6765 34.1832 74.6069 33.7756 74.4677 33.3977C74.3285 33.0199 74.114 32.7145 73.8242 32.4815C73.5344 32.2486 73.1651 32.1321 72.7163 32.1321C72.2674 32.1321 71.8981 32.2486 71.6083 32.4815C71.3185 32.7145 71.104 33.0199 70.9648 33.3977C70.8256 33.7756 70.756 34.1832 70.756 34.6207C70.756 35.0582 70.8256 35.4645 70.9648 35.8395C71.104 36.2145 71.3185 36.517 71.6083 36.7472C71.8981 36.9773 72.2674 37.0923 72.7163 37.0923ZM78.223 29.1321V37.8594H77.2173V29.1321H78.223ZM82.7241 37.9957C82.1332 37.9957 81.6147 37.8551 81.1687 37.5739C80.7255 37.2926 80.3789 36.8991 80.1289 36.3935C79.8817 35.8878 79.7582 35.2969 79.7582 34.6207C79.7582 33.9389 79.8817 33.3437 80.1289 32.8352C80.3789 32.3267 80.7255 31.9318 81.1687 31.6506C81.6147 31.3693 82.1332 31.2287 82.7241 31.2287C83.315 31.2287 83.832 31.3693 84.2752 31.6506C84.7212 31.9318 85.0678 32.3267 85.315 32.8352C85.565 33.3437 85.69 33.9389 85.69 34.6207C85.69 35.2969 85.565 35.8878 85.315 36.3935C85.0678 36.8991 84.7212 37.2926 84.2752 37.5739C83.832 37.8551 83.315 37.9957 82.7241 37.9957ZM82.7241 37.0923C83.1729 37.0923 83.5423 36.9773 83.832 36.7472C84.1218 36.517 84.3363 36.2145 84.4755 35.8395C84.6147 35.4645 84.6843 35.0582 84.6843 34.6207C84.6843 34.1832 84.6147 33.7756 84.4755 33.3977C84.3363 33.0199 84.1218 32.7145 83.832 32.4815C83.5423 32.2486 83.1729 32.1321 82.7241 32.1321C82.2752 32.1321 81.9059 32.2486 81.6161 32.4815C81.3263 32.7145 81.1119 33.0199 80.9727 33.3977C80.8335 33.7756 80.7638 34.1832 80.7638 34.6207C80.7638 35.0582 80.8335 35.4645 80.9727 35.8395C81.1119 36.2145 81.3263 36.517 81.6161 36.7472C81.9059 36.9773 82.2752 37.0923 82.7241 37.0923ZM87.2251 37.8594V31.3139H88.1967V32.3026H88.2649C88.3842 31.9787 88.6001 31.7159 88.9126 31.5142C89.2251 31.3125 89.5774 31.2116 89.9695 31.2116C90.0433 31.2116 90.1357 31.2131 90.2464 31.2159C90.3572 31.2187 90.4411 31.223 90.4979 31.2287V32.2514C90.4638 32.2429 90.3857 32.2301 90.2635 32.2131C90.1442 32.1932 90.0178 32.1832 89.8842 32.1832C89.5661 32.1832 89.282 32.25 89.032 32.3835C88.7848 32.5142 88.5888 32.696 88.4439 32.929C88.3018 33.1591 88.2308 33.4219 88.2308 33.7173V37.8594H87.2251ZM96.3263 32.7798L95.4229 33.0355C95.3661 32.8849 95.2823 32.7386 95.1715 32.5966C95.0636 32.4517 94.9158 32.3324 94.7283 32.2386C94.5408 32.1449 94.3008 32.098 94.0082 32.098C93.6076 32.098 93.2738 32.1903 93.0067 32.375C92.7425 32.5568 92.6104 32.7884 92.6104 33.0696C92.6104 33.3196 92.7013 33.517 92.8832 33.6619C93.065 33.8068 93.3491 33.9276 93.7354 34.0241L94.707 34.2628C95.2923 34.4048 95.7283 34.6222 96.0153 34.9148C96.3022 35.2045 96.4457 35.5781 96.4457 36.0355C96.4457 36.4105 96.3377 36.7457 96.1218 37.0412C95.9087 37.3366 95.6104 37.5696 95.2269 37.7401C94.8434 37.9105 94.3974 37.9957 93.8888 37.9957C93.2212 37.9957 92.6687 37.8509 92.2312 37.5611C91.7937 37.2713 91.5167 36.848 91.4002 36.2912L92.3548 36.0526C92.4457 36.4048 92.6175 36.669 92.8704 36.8452C93.1261 37.0213 93.4599 37.1094 93.8718 37.1094C94.3406 37.1094 94.7127 37.0099 94.9883 36.8111C95.2667 36.6094 95.4059 36.3679 95.4059 36.0866C95.4059 35.8594 95.3263 35.669 95.1673 35.5156C95.0082 35.3594 94.7638 35.2429 94.4343 35.1662L93.3434 34.9105C92.744 34.7685 92.3036 34.5483 92.0224 34.25C91.744 33.9489 91.6048 33.5724 91.6048 33.1207C91.6048 32.7514 91.7085 32.4247 91.9158 32.1406C92.1261 31.8565 92.4116 31.6335 92.7724 31.4716C93.136 31.3097 93.5479 31.2287 94.0082 31.2287C94.6559 31.2287 95.1644 31.3707 95.5337 31.6548C95.9059 31.9389 96.1701 32.3139 96.3263 32.7798Z" fill="#181818"/>
<path d="M240.057 37.8594V29.1321H241.114V33.0185H245.767V29.1321H246.824V37.8594H245.767V33.956H241.114V37.8594H240.057ZM248.94 37.8594V29.1321H254.207V30.0696H249.996V33.0185H253.934V33.956H249.996V36.9219H254.275V37.8594H248.94ZM256.623 29.1321L258.873 32.7628H258.941L261.191 29.1321H262.435L259.691 33.4957L262.435 37.8594H261.191L258.941 34.2969H258.873L256.623 37.8594H255.379L258.191 33.4957L255.379 29.1321H256.623Z" fill="#181818"/>
<path d="M255.22 68L257.01 57.0909H258.075L256.286 68H255.22ZM250.256 64.9744L250.426 63.9091H258.565L258.395 64.9744H250.256ZM251.385 68L253.175 57.0909H254.24L252.45 68H251.385ZM250.895 61.1818L251.065 60.1165H259.205L259.034 61.1818H250.895ZM264.15 68.1491C263.348 68.1491 262.664 67.9308 262.1 67.494C261.535 67.0536 261.104 66.4162 260.805 65.5817C260.507 64.7436 260.358 63.7315 260.358 62.5455C260.358 61.3665 260.507 60.3597 260.805 59.5252C261.107 58.6871 261.54 58.0479 262.105 57.6076C262.673 57.1637 263.355 56.9418 264.15 56.9418C264.946 56.9418 265.626 57.1637 266.191 57.6076C266.759 58.0479 267.192 58.6871 267.49 59.5252C267.792 60.3597 267.943 61.3665 267.943 62.5455C267.943 63.7315 267.794 64.7436 267.496 65.5817C267.197 66.4162 266.766 67.0536 266.201 67.494C265.637 67.9308 264.953 68.1491 264.15 68.1491ZM264.15 66.9773C264.946 66.9773 265.564 66.5937 266.004 65.8267C266.444 65.0597 266.665 63.9659 266.665 62.5455C266.665 61.6009 266.563 60.7965 266.361 60.1325C266.162 59.4684 265.874 58.9624 265.498 58.6143C265.125 58.2663 264.676 58.0923 264.15 58.0923C263.362 58.0923 262.746 58.4812 262.302 59.2589C261.858 60.033 261.636 61.1286 261.636 62.5455C261.636 63.4901 261.736 64.2926 261.934 64.9531C262.133 65.6136 262.419 66.1161 262.792 66.4606C263.169 66.805 263.621 66.9773 264.15 66.9773ZM273.525 68.1491C272.723 68.1491 272.039 67.9308 271.475 67.494C270.91 67.0536 270.479 66.4162 270.18 65.5817C269.882 64.7436 269.733 63.7315 269.733 62.5455C269.733 61.3665 269.882 60.3597 270.18 59.5252C270.482 58.6871 270.915 58.0479 271.48 57.6076C272.048 57.1637 272.73 56.9418 273.525 56.9418C274.321 56.9418 275.001 57.1637 275.566 57.6076C276.134 58.0479 276.567 58.6871 276.865 59.5252C277.167 60.3597 277.318 61.3665 277.318 62.5455C277.318 63.7315 277.169 64.7436 276.871 65.5817C276.572 66.4162 276.141 67.0536 275.576 67.494C275.012 67.9308 274.328 68.1491 273.525 68.1491ZM273.525 66.9773C274.321 66.9773 274.939 66.5937 275.379 65.8267C275.819 65.0597 276.04 63.9659 276.04 62.5455C276.04 61.6009 275.938 60.7965 275.736 60.1325C275.537 59.4684 275.249 58.9624 274.873 58.6143C274.5 58.2663 274.051 58.0923 273.525 58.0923C272.737 58.0923 272.121 58.4812 271.677 59.2589C271.233 60.033 271.011 61.1286 271.011 62.5455C271.011 63.4901 271.111 64.2926 271.309 64.9531C271.508 65.6136 271.794 66.1161 272.167 66.4606C272.544 66.805 272.996 66.9773 273.525 66.9773ZM282.9 68.1491C282.098 68.1491 281.414 67.9308 280.85 67.494C280.285 67.0536 279.854 66.4162 279.555 65.5817C279.257 64.7436 279.108 63.7315 279.108 62.5455C279.108 61.3665 279.257 60.3597 279.555 59.5252C279.857 58.6871 280.29 58.0479 280.855 57.6076C281.423 57.1637 282.105 56.9418 282.9 56.9418C283.696 56.9418 284.376 57.1637 284.941 57.6076C285.509 58.0479 285.942 58.6871 286.24 59.5252C286.542 60.3597 286.693 61.3665 286.693 62.5455C286.693 63.7315 286.544 64.7436 286.246 65.5817C285.947 66.4162 285.516 67.0536 284.951 67.494C284.387 67.9308 283.703 68.1491 282.9 68.1491ZM282.9 66.9773C283.696 66.9773 284.314 66.5937 284.754 65.8267C285.194 65.0597 285.415 63.9659 285.415 62.5455C285.415 61.6009 285.313 60.7965 285.111 60.1325C284.912 59.4684 284.624 58.9624 284.248 58.6143C283.875 58.2663 283.426 58.0923 282.9 58.0923C282.112 58.0923 281.496 58.4812 281.052 59.2589C280.608 60.033 280.386 61.1286 280.386 62.5455C280.386 63.4901 280.486 64.2926 280.684 64.9531C280.883 65.6136 281.169 66.1161 281.542 66.4606C281.919 66.805 282.371 66.9773 282.9 66.9773ZM292.275 68.1491C291.473 68.1491 290.789 67.9308 290.225 67.494C289.66 67.0536 289.229 66.4162 288.93 65.5817C288.632 64.7436 288.483 63.7315 288.483 62.5455C288.483 61.3665 288.632 60.3597 288.93 59.5252C289.232 58.6871 289.665 58.0479 290.23 57.6076C290.798 57.1637 291.48 56.9418 292.275 56.9418C293.071 56.9418 293.751 57.1637 294.316 57.6076C294.884 58.0479 295.317 58.6871 295.615 59.5252C295.917 60.3597 296.068 61.3665 296.068 62.5455C296.068 63.7315 295.919 64.7436 295.621 65.5817C295.322 66.4162 294.891 67.0536 294.326 67.494C293.762 67.9308 293.078 68.1491 292.275 68.1491ZM292.275 66.9773C293.071 66.9773 293.689 66.5937 294.129 65.8267C294.569 65.0597 294.79 63.9659 294.79 62.5455C294.79 61.6009 294.688 60.7965 294.486 60.1325C294.287 59.4684 293.999 58.9624 293.623 58.6143C293.25 58.2663 292.801 58.0923 292.275 58.0923C291.487 58.0923 290.871 58.4812 290.427 59.2589C289.983 60.033 289.761 61.1286 289.761 62.5455C289.761 63.4901 289.861 64.2926 290.059 64.9531C290.258 65.6136 290.544 66.1161 290.917 66.4606C291.294 66.805 291.746 66.9773 292.275 66.9773ZM301.65 68.1491C300.848 68.1491 300.164 67.9308 299.6 67.494C299.035 67.0536 298.604 66.4162 298.305 65.5817C298.007 64.7436 297.858 63.7315 297.858 62.5455C297.858 61.3665 298.007 60.3597 298.305 59.5252C298.607 58.6871 299.04 58.0479 299.605 57.6076C300.173 57.1637 300.855 56.9418 301.65 56.9418C302.446 56.9418 303.126 57.1637 303.691 57.6076C304.259 58.0479 304.692 58.6871 304.99 59.5252C305.292 60.3597 305.443 61.3665 305.443 62.5455C305.443 63.7315 305.294 64.7436 304.996 65.5817C304.697 66.4162 304.266 67.0536 303.701 67.494C303.137 67.9308 302.453 68.1491 301.65 68.1491ZM301.65 66.9773C302.446 66.9773 303.064 66.5937 303.504 65.8267C303.944 65.0597 304.165 63.9659 304.165 62.5455C304.165 61.6009 304.063 60.7965 303.861 60.1325C303.662 59.4684 303.374 58.9624 302.998 58.6143C302.625 58.2663 302.176 58.0923 301.65 58.0923C300.862 58.0923 300.246 58.4812 299.802 59.2589C299.358 60.033 299.136 61.1286 299.136 62.5455C299.136 63.4901 299.236 64.2926 299.434 64.9531C299.633 65.6136 299.919 66.1161 300.292 66.4606C300.669 66.805 301.121 66.9773 301.65 66.9773ZM311.025 68.1491C310.223 68.1491 309.539 67.9308 308.975 67.494C308.41 67.0536 307.979 66.4162 307.68 65.5817C307.382 64.7436 307.233 63.7315 307.233 62.5455C307.233 61.3665 307.382 60.3597 307.68 59.5252C307.982 58.6871 308.415 58.0479 308.98 57.6076C309.548 57.1637 310.23 56.9418 311.025 56.9418C311.821 56.9418 312.501 57.1637 313.066 57.6076C313.634 58.0479 314.067 58.6871 314.365 59.5252C314.667 60.3597 314.818 61.3665 314.818 62.5455C314.818 63.7315 314.669 64.7436 314.371 65.5817C314.072 66.4162 313.641 67.0536 313.076 67.494C312.512 67.9308 311.828 68.1491 311.025 68.1491ZM311.025 66.9773C311.821 66.9773 312.439 66.5937 312.879 65.8267C313.319 65.0597 313.54 63.9659 313.54 62.5455C313.54 61.6009 313.438 60.7965 313.236 60.1325C313.037 59.4684 312.749 58.9624 312.373 58.6143C312 58.2663 311.551 58.0923 311.025 58.0923C310.237 58.0923 309.621 58.4812 309.177 59.2589C308.733 60.033 308.511 61.1286 308.511 62.5455C308.511 63.4901 308.611 64.2926 308.809 64.9531C309.008 65.6136 309.294 66.1161 309.667 66.4606C310.044 66.805 310.496 66.9773 311.025 66.9773Z" fill="#181818"/>
<rect x="35" y="242.88" width="32" height="31.8329" rx="3" fill="black"/>
<rect x="42" y="55.7021" width="18" height="17.906" rx="3" fill="#00B871"/>
<path d="M35 51.7393C35 50.0824 36.3431 48.7393 38 48.7393H64C65.6569 48.7393 67 50.0824 67 51.7393V77.5722C67 79.229 65.6569 80.5722 64 80.5722H57.048C56.3695 80.5722 55.7109 80.8022 55.1799 81.2248L51.6227 84.0557C51.2582 84.3458 50.7418 84.3458 50.3773 84.0557L46.8201 81.2248C46.2891 80.8022 45.6305 80.5722 44.952 80.5722H38C36.3431 80.5722 35 79.229 35 77.5722V51.7393Z" fill="#111111"/>
<path d="M35 94C35 92.3431 36.3431 91 38 91H362C363.657 91 365 92.3431 365 94V183C365 184.657 363.657 186 362 186H38C36.3431 186 35 184.657 35 183V94Z" fill="url(#paint1_linear_2787_81)"/>
<path d="M35 203C35 201.343 36.3431 200 38 200H362C363.657 200 365 201.343 365 203V211C365 212.657 363.657 214 362 214H38C36.3431 214 35 212.657 35 211V203Z" fill="#EAEAEA"/>
<rect x="294" y="243.379" width="32" height="31.8329" rx="3" fill="#58BFC9"/>
<rect x="109" y="242.88" width="32" height="31.8329" rx="3" fill="#999999"/>
<rect x="109" y="48.7393" width="32" height="31.8329" rx="3" fill="#DE002A"/>
<rect x="183" y="243.379" width="32" height="31.8329" rx="3" fill="#6766DB"/>
<rect x="72" y="242.88" width="32" height="31.8329" rx="3" fill="#444444"/>
<rect x="72" y="48.7393" width="32" height="31.8329" rx="3" fill="#006CE7"/>
<g filter="url(#filter2_d_2787_81)">
<rect x="30" y="178" width="14" height="13.9269" rx="6.96345" fill="black"/>
<rect x="31.5" y="179.5" width="11" height="10.9269" rx="5.46345" stroke="white" stroke-width="3"/>
</g>
<g filter="url(#filter3_d_2787_81)">
<rect x="352" y="200" width="14" height="13.9269" rx="6.96345" fill="black"/>
<rect x="353.5" y="201.5" width="11" height="10.9269" rx="5.46345" stroke="white" stroke-width="3"/>
</g>
<rect x="331" y="243.379" width="32" height="31.8329" rx="3" fill="#F5BF6A"/>
<rect x="220" y="243.379" width="32" height="31.8329" rx="3" fill="#35A439"/>
<rect x="146.5" y="243.38" width="31" height="30.8329" rx="2.5" fill="white" stroke="#BFBFBF"/>
<rect x="257" y="243.379" width="32" height="31.8329" rx="3" fill="#006CE7"/>
<path d="M373.177 18.1196L373.354 17.9428L373.177 17.766L372.234 16.8232L372.057 16.6464L371.881 16.8232L367 21.7038L362.12 16.8232L361.943 16.6464L361.766 16.8232L360.823 17.766L360.646 17.9428L360.823 18.1196L365.704 23L360.823 27.8804L360.646 28.0572L360.823 28.234L361.766 29.1768L361.943 29.3536L362.12 29.1768L367 24.2964L371.881 29.1768L372.057 29.3536L372.234 29.1768L373.177 28.234L373.354 28.0572L373.177 27.8804L368.296 23L373.177 18.1196Z" fill="#181818" stroke="#444444" stroke-width="0.5"/>
<rect x="1" y="11" width="378" height="298" rx="4" fill="white" stroke="#181818" stroke-width="2"/>
<rect x="230" y="55" width="124" height="35" rx="4" stroke="#E8E8E8" stroke-width="2"/>
<path d="M28.75 242H26.0568V233.273H28.8693C29.7159 233.273 30.4403 233.447 31.0426 233.797C31.6449 234.143 32.1065 234.642 32.4276 235.293C32.7486 235.94 32.9091 236.716 32.9091 237.619C32.9091 238.528 32.7472 239.311 32.4233 239.967C32.0994 240.621 31.6278 241.124 31.0085 241.476C30.3892 241.825 29.6364 242 28.75 242ZM27.1136 241.062H28.6818C29.4034 241.062 30.0014 240.923 30.4759 240.645C30.9503 240.366 31.304 239.97 31.5369 239.456C31.7699 238.942 31.8864 238.33 31.8864 237.619C31.8864 236.915 31.7713 236.308 31.5412 235.8C31.3111 235.288 30.9673 234.896 30.5099 234.624C30.0526 234.348 29.483 234.21 28.8011 234.21H27.1136V241.062ZM37.2898 242.136C36.6591 242.136 36.1151 241.997 35.6577 241.719C35.2031 241.438 34.8523 241.045 34.6051 240.543C34.3608 240.037 34.2386 239.449 34.2386 238.778C34.2386 238.108 34.3608 237.517 34.6051 237.006C34.8523 236.491 35.196 236.091 35.6364 235.804C36.0795 235.514 36.5966 235.369 37.1875 235.369C37.5284 235.369 37.8651 235.426 38.1974 235.54C38.5298 235.653 38.8324 235.838 39.1051 236.094C39.3778 236.347 39.5952 236.682 39.7571 237.099C39.919 237.517 40 238.031 40 238.642V239.068H34.9545V238.199H38.9773C38.9773 237.83 38.9034 237.5 38.7557 237.21C38.6108 236.92 38.4034 236.692 38.1335 236.524C37.8665 236.357 37.5511 236.273 37.1875 236.273C36.7869 236.273 36.4403 236.372 36.1477 236.571C35.858 236.767 35.6349 237.023 35.4787 237.338C35.3224 237.653 35.2443 237.991 35.2443 238.352V238.932C35.2443 239.426 35.3295 239.845 35.5 240.189C35.6733 240.53 35.9134 240.79 36.2202 240.969C36.527 241.145 36.8835 241.233 37.2898 241.233C37.554 241.233 37.7926 241.196 38.0057 241.122C38.2216 241.045 38.4077 240.932 38.5639 240.781C38.7202 240.628 38.8409 240.437 38.9261 240.21L39.8977 240.483C39.7955 240.812 39.6236 241.102 39.3821 241.352C39.1406 241.599 38.8423 241.793 38.4872 241.932C38.1321 242.068 37.733 242.136 37.2898 242.136ZM43.456 242.153C43.0412 242.153 42.6648 242.075 42.3267 241.919C41.9886 241.76 41.7202 241.531 41.5213 241.233C41.3224 240.932 41.223 240.568 41.223 240.142C41.223 239.767 41.2969 239.463 41.4446 239.23C41.5923 238.994 41.7898 238.81 42.0369 238.676C42.2841 238.543 42.5568 238.443 42.8551 238.378C43.1563 238.31 43.4588 238.256 43.7628 238.216C44.1605 238.165 44.483 238.126 44.7301 238.101C44.9801 238.072 45.1619 238.026 45.2756 237.96C45.392 237.895 45.4503 237.781 45.4503 237.619V237.585C45.4503 237.165 45.3352 236.838 45.1051 236.605C44.8778 236.372 44.5327 236.256 44.0696 236.256C43.5895 236.256 43.2131 236.361 42.9403 236.571C42.6676 236.781 42.4759 237.006 42.3651 237.244L41.4105 236.903C41.581 236.506 41.8082 236.196 42.0923 235.974C42.3793 235.75 42.6918 235.594 43.0298 235.506C43.3707 235.415 43.706 235.369 44.0355 235.369C44.2457 235.369 44.4872 235.395 44.7599 235.446C45.0355 235.494 45.3011 235.595 45.5568 235.749C45.8153 235.902 46.0298 236.134 46.2003 236.443C46.3707 236.753 46.456 237.168 46.456 237.688V242H45.4503V241.114H45.3991C45.331 241.256 45.2173 241.408 45.0582 241.57C44.8991 241.732 44.6875 241.869 44.4233 241.983C44.1591 242.097 43.8366 242.153 43.456 242.153ZM43.6094 241.25C44.0071 241.25 44.3423 241.172 44.6151 241.016C44.8906 240.859 45.098 240.658 45.2372 240.411C45.3793 240.163 45.4503 239.903 45.4503 239.631V238.71C45.4077 238.761 45.3139 238.808 45.169 238.851C45.027 238.891 44.8622 238.926 44.6747 238.957C44.4901 238.986 44.3097 239.011 44.1335 239.034C43.9602 239.054 43.8196 239.071 43.7116 239.085C43.4503 239.119 43.206 239.175 42.9787 239.251C42.7543 239.325 42.5724 239.437 42.4332 239.588C42.2969 239.736 42.2287 239.937 42.2287 240.193C42.2287 240.543 42.358 240.807 42.6165 240.986C42.8778 241.162 43.2088 241.25 43.6094 241.25ZM51.2063 235.455V236.307H47.6779V235.455H51.2063ZM48.7347 242V234.551C48.7347 234.176 48.8228 233.864 48.9989 233.614C49.1751 233.364 49.4038 233.176 49.685 233.051C49.9663 232.926 50.2631 232.864 50.5756 232.864C50.8228 232.864 51.0245 232.884 51.1808 232.923C51.337 232.963 51.4535 233 51.5302 233.034L51.2404 233.903C51.1893 233.886 51.1183 233.865 51.0273 233.839C50.9393 233.814 50.8228 233.801 50.6779 233.801C50.3455 233.801 50.1055 233.885 49.9577 234.053C49.8129 234.22 49.7404 234.466 49.7404 234.79V242H48.7347ZM54.3544 242.153C53.9396 242.153 53.5632 242.075 53.2251 241.919C52.8871 241.76 52.6186 241.531 52.4197 241.233C52.2209 240.932 52.1214 240.568 52.1214 240.142C52.1214 239.767 52.1953 239.463 52.343 239.23C52.4908 238.994 52.6882 238.81 52.9354 238.676C53.1825 238.543 53.4553 238.443 53.7536 238.378C54.0547 238.31 54.3572 238.256 54.6612 238.216C55.0589 238.165 55.3814 238.126 55.6286 238.101C55.8786 238.072 56.0604 238.026 56.174 237.96C56.2905 237.895 56.3487 237.781 56.3487 237.619V237.585C56.3487 237.165 56.2337 236.838 56.0036 236.605C55.7763 236.372 55.4311 236.256 54.968 236.256C54.4879 236.256 54.1115 236.361 53.8388 236.571C53.5661 236.781 53.3743 237.006 53.2635 237.244L52.3089 236.903C52.4794 236.506 52.7067 236.196 52.9908 235.974C53.2777 235.75 53.5902 235.594 53.9283 235.506C54.2692 235.415 54.6044 235.369 54.9339 235.369C55.1442 235.369 55.3857 235.395 55.6584 235.446C55.9339 235.494 56.1996 235.595 56.4553 235.749C56.7138 235.902 56.9283 236.134 57.0987 236.443C57.2692 236.753 57.3544 237.168 57.3544 237.688V242H56.3487V241.114H56.2976C56.2294 241.256 56.1158 241.408 55.9567 241.57C55.7976 241.732 55.5859 241.869 55.3217 241.983C55.0575 242.097 54.7351 242.153 54.3544 242.153ZM54.5078 241.25C54.9055 241.25 55.2408 241.172 55.5135 241.016C55.7891 240.859 55.9964 240.658 56.1357 240.411C56.2777 240.163 56.3487 239.903 56.3487 239.631V238.71C56.3061 238.761 56.2124 238.808 56.0675 238.851C55.9254 238.891 55.7607 238.926 55.5732 238.957C55.3885 238.986 55.2081 239.011 55.032 239.034C54.8587 239.054 54.718 239.071 54.6101 239.085C54.3487 239.119 54.1044 239.175 53.8771 239.251C53.6527 239.325 53.4709 239.437 53.3317 239.588C53.1953 239.736 53.1271 239.937 53.1271 240.193C53.1271 240.543 53.2564 240.807 53.5149 240.986C53.7763 241.162 54.1072 241.25 54.5078 241.25ZM63.315 239.324V235.455H64.3207V242H63.315V240.892H63.2468C63.0934 241.224 62.8548 241.507 62.5309 241.74C62.207 241.97 61.7979 242.085 61.3036 242.085C60.8945 242.085 60.5309 241.996 60.2127 241.817C59.8945 241.635 59.6445 241.362 59.4627 240.999C59.2809 240.632 59.19 240.17 59.19 239.614V235.455H60.1957V239.545C60.1957 240.023 60.3292 240.403 60.5962 240.688C60.8661 240.972 61.2099 241.114 61.6275 241.114C61.8775 241.114 62.1317 241.05 62.3903 240.922C62.6516 240.794 62.8704 240.598 63.0465 240.334C63.2255 240.07 63.315 239.733 63.315 239.324ZM67.1683 233.273V242H66.1626V233.273H67.1683ZM71.8569 235.455V236.307H68.4648V235.455H71.8569ZM69.4535 233.886H70.4592V240.125C70.4592 240.409 70.5004 240.622 70.5827 240.764C70.668 240.903 70.7759 240.997 70.9066 241.045C71.0401 241.091 71.1808 241.114 71.3285 241.114C71.4393 241.114 71.5302 241.108 71.6012 241.097C71.6722 241.082 71.729 241.071 71.7717 241.062L71.9762 241.966C71.908 241.991 71.8129 242.017 71.6907 242.043C71.5685 242.071 71.4137 242.085 71.2262 242.085C70.9421 242.085 70.6637 242.024 70.391 241.902C70.1211 241.78 69.8967 241.594 69.7177 241.344C69.5415 241.094 69.4535 240.778 69.4535 240.398V233.886ZM79.4038 242.136C78.7901 242.136 78.2617 241.991 77.8185 241.702C77.3754 241.412 77.0344 241.013 76.7958 240.504C76.5572 239.996 76.4379 239.415 76.4379 238.761C76.4379 238.097 76.56 237.51 76.8043 237.001C77.0515 236.49 77.3952 236.091 77.8356 235.804C78.2788 235.514 78.7958 235.369 79.3867 235.369C79.8469 235.369 80.2617 235.455 80.631 235.625C81.0004 235.795 81.3029 236.034 81.5387 236.341C81.7745 236.648 81.9208 237.006 81.9776 237.415H80.9719C80.8952 237.116 80.7248 236.852 80.4606 236.622C80.1992 236.389 79.8469 236.273 79.4038 236.273C79.0117 236.273 78.668 236.375 78.3725 236.58C78.0799 236.781 77.8512 237.067 77.6864 237.436C77.5245 237.803 77.4435 238.233 77.4435 238.727C77.4435 239.233 77.5231 239.673 77.6822 240.048C77.8441 240.423 78.0714 240.714 78.364 240.922C78.6594 241.129 79.006 241.233 79.4038 241.233C79.6651 241.233 79.9023 241.188 80.1154 241.097C80.3285 241.006 80.5089 240.875 80.6566 240.705C80.8043 240.534 80.9094 240.33 80.9719 240.091H81.9776C81.9208 240.477 81.7802 240.825 81.5558 241.135C81.3342 241.442 81.0401 241.686 80.6737 241.868C80.31 242.047 79.8867 242.136 79.4038 242.136ZM86.1069 242.136C85.516 242.136 84.9975 241.996 84.5515 241.714C84.1083 241.433 83.7617 241.04 83.5117 240.534C83.2646 240.028 83.141 239.437 83.141 238.761C83.141 238.08 83.2646 237.484 83.5117 236.976C83.7617 236.467 84.1083 236.072 84.5515 235.791C84.9975 235.51 85.516 235.369 86.1069 235.369C86.6978 235.369 87.2148 235.51 87.658 235.791C88.104 236.072 88.4506 236.467 88.6978 236.976C88.9478 237.484 89.0728 238.08 89.0728 238.761C89.0728 239.437 88.9478 240.028 88.6978 240.534C88.4506 241.04 88.104 241.433 87.658 241.714C87.2148 241.996 86.6978 242.136 86.1069 242.136ZM86.1069 241.233C86.5558 241.233 86.9251 241.118 87.2148 240.888C87.5046 240.658 87.7191 240.355 87.8583 239.98C87.9975 239.605 88.0671 239.199 88.0671 238.761C88.0671 238.324 87.9975 237.916 87.8583 237.538C87.7191 237.161 87.5046 236.855 87.2148 236.622C86.9251 236.389 86.5558 236.273 86.1069 236.273C85.658 236.273 85.2887 236.389 84.9989 236.622C84.7092 236.855 84.4947 237.161 84.3555 237.538C84.2163 237.916 84.1467 238.324 84.1467 238.761C84.1467 239.199 84.2163 239.605 84.3555 239.98C84.4947 240.355 84.7092 240.658 84.9989 240.888C85.2887 241.118 85.658 241.233 86.1069 241.233ZM91.6136 233.273V242H90.608V233.273H91.6136ZM96.1147 242.136C95.5238 242.136 95.0053 241.996 94.5593 241.714C94.1161 241.433 93.7695 241.04 93.5195 240.534C93.2724 240.028 93.1488 239.437 93.1488 238.761C93.1488 238.08 93.2724 237.484 93.5195 236.976C93.7695 236.467 94.1161 236.072 94.5593 235.791C95.0053 235.51 95.5238 235.369 96.1147 235.369C96.7056 235.369 97.2227 235.51 97.6658 235.791C98.1119 236.072 98.4585 236.467 98.7056 236.976C98.9556 237.484 99.0806 238.08 99.0806 238.761C99.0806 239.437 98.9556 240.028 98.7056 240.534C98.4585 241.04 98.1119 241.433 97.6658 241.714C97.2227 241.996 96.7056 242.136 96.1147 242.136ZM96.1147 241.233C96.5636 241.233 96.9329 241.118 97.2227 240.888C97.5124 240.658 97.7269 240.355 97.8661 239.98C98.0053 239.605 98.0749 239.199 98.0749 238.761C98.0749 238.324 98.0053 237.916 97.8661 237.538C97.7269 237.161 97.5124 236.855 97.2227 236.622C96.9329 236.389 96.5636 236.273 96.1147 236.273C95.6658 236.273 95.2965 236.389 95.0067 236.622C94.717 236.855 94.5025 237.161 94.3633 237.538C94.2241 237.916 94.1545 238.324 94.1545 238.761C94.1545 239.199 94.2241 239.605 94.3633 239.98C94.5025 240.355 94.717 240.658 95.0067 240.888C95.2965 241.118 95.6658 241.233 96.1147 241.233ZM100.616 242V235.455H101.587V236.443H101.656C101.775 236.119 101.991 235.857 102.303 235.655C102.616 235.453 102.968 235.352 103.36 235.352C103.434 235.352 103.526 235.354 103.637 235.357C103.748 235.359 103.832 235.364 103.888 235.369V236.392C103.854 236.384 103.776 236.371 103.654 236.354C103.535 236.334 103.408 236.324 103.275 236.324C102.957 236.324 102.673 236.391 102.423 236.524C102.175 236.655 101.979 236.837 101.835 237.07C101.692 237.3 101.621 237.562 101.621 237.858V242H100.616ZM109.717 236.92L108.814 237.176C108.757 237.026 108.673 236.879 108.562 236.737C108.454 236.592 108.306 236.473 108.119 236.379C107.931 236.286 107.691 236.239 107.399 236.239C106.998 236.239 106.664 236.331 106.397 236.516C106.133 236.697 106.001 236.929 106.001 237.21C106.001 237.46 106.092 237.658 106.274 237.803C106.456 237.947 106.74 238.068 107.126 238.165L108.098 238.403C108.683 238.545 109.119 238.763 109.406 239.055C109.693 239.345 109.836 239.719 109.836 240.176C109.836 240.551 109.728 240.886 109.512 241.182C109.299 241.477 109.001 241.71 108.618 241.881C108.234 242.051 107.788 242.136 107.279 242.136C106.612 242.136 106.059 241.991 105.622 241.702C105.184 241.412 104.907 240.989 104.791 240.432L105.745 240.193C105.836 240.545 106.008 240.81 106.261 240.986C106.517 241.162 106.85 241.25 107.262 241.25C107.731 241.25 108.103 241.151 108.379 240.952C108.657 240.75 108.797 240.509 108.797 240.227C108.797 240 108.717 239.81 108.558 239.656C108.399 239.5 108.154 239.384 107.825 239.307L106.734 239.051C106.135 238.909 105.694 238.689 105.413 238.391C105.135 238.089 104.995 237.713 104.995 237.261C104.995 236.892 105.099 236.565 105.306 236.281C105.517 235.997 105.802 235.774 106.163 235.612C106.527 235.45 106.939 235.369 107.399 235.369C108.047 235.369 108.555 235.511 108.924 235.795C109.297 236.08 109.561 236.455 109.717 236.92Z" fill="#181818"/>
<path d="M27.1136 39.1321V47.8594H26.0568V39.1321H27.1136ZM31.7553 47.9957C31.1417 47.9957 30.6133 47.8509 30.1701 47.5611C29.7269 47.2713 29.386 46.8722 29.1474 46.3636C28.9087 45.8551 28.7894 45.2741 28.7894 44.6207C28.7894 43.956 28.9116 43.3693 29.1559 42.8608C29.4031 42.3494 29.7468 41.9503 30.1871 41.6634C30.6303 41.3736 31.1474 41.2287 31.7383 41.2287C32.1985 41.2287 32.6133 41.3139 32.9826 41.4844C33.3519 41.6548 33.6545 41.8935 33.8903 42.2003C34.1261 42.5071 34.2724 42.8651 34.3292 43.2741H33.3235C33.2468 42.9759 33.0763 42.7116 32.8121 42.4815C32.5508 42.2486 32.1985 42.1321 31.7553 42.1321C31.3633 42.1321 31.0195 42.2344 30.7241 42.4389C30.4315 42.6406 30.2028 42.9261 30.038 43.2955C29.8761 43.6619 29.7951 44.0923 29.7951 44.5866C29.7951 45.0923 29.8746 45.5327 30.0337 45.9077C30.1957 46.2827 30.4229 46.5739 30.7156 46.7812C31.011 46.9886 31.3576 47.0923 31.7553 47.0923C32.0167 47.0923 32.2539 47.0469 32.467 46.956C32.68 46.8651 32.8604 46.7344 33.0082 46.5639C33.1559 46.3935 33.261 46.1889 33.3235 45.9503H34.3292C34.2724 46.3366 34.1317 46.6847 33.9073 46.9943C33.6857 47.3011 33.3917 47.5455 33.0252 47.7273C32.6616 47.9062 32.2383 47.9957 31.7553 47.9957ZM38.4585 47.9957C37.8675 47.9957 37.3491 47.8551 36.9031 47.5739C36.4599 47.2926 36.1133 46.8991 35.8633 46.3935C35.6161 45.8878 35.4925 45.2969 35.4925 44.6207C35.4925 43.9389 35.6161 43.3437 35.8633 42.8352C36.1133 42.3267 36.4599 41.9318 36.9031 41.6506C37.3491 41.3693 37.8675 41.2287 38.4585 41.2287C39.0494 41.2287 39.5664 41.3693 40.0096 41.6506C40.4556 41.9318 40.8022 42.3267 41.0494 42.8352C41.2994 43.3437 41.4244 43.9389 41.4244 44.6207C41.4244 45.2969 41.2994 45.8878 41.0494 46.3935C40.8022 46.8991 40.4556 47.2926 40.0096 47.5739C39.5664 47.8551 39.0494 47.9957 38.4585 47.9957ZM38.4585 47.0923C38.9073 47.0923 39.2766 46.9773 39.5664 46.7472C39.8562 46.517 40.0707 46.2145 40.2099 45.8395C40.3491 45.4645 40.4187 45.0582 40.4187 44.6207C40.4187 44.1832 40.3491 43.7756 40.2099 43.3977C40.0707 43.0199 39.8562 42.7145 39.5664 42.4815C39.2766 42.2486 38.9073 42.1321 38.4585 42.1321C38.0096 42.1321 37.6403 42.2486 37.3505 42.4815C37.0607 42.7145 36.8462 43.0199 36.707 43.3977C36.5678 43.7756 36.4982 44.1832 36.4982 44.6207C36.4982 45.0582 36.5678 45.4645 36.707 45.8395C36.8462 46.2145 37.0607 46.517 37.3505 46.7472C37.6403 46.9773 38.0096 47.0923 38.4585 47.0923ZM43.9652 43.9219V47.8594H42.9595V41.3139H43.9311V42.3366H44.0163C44.1697 42.0043 44.4027 41.7372 44.7152 41.5355C45.0277 41.331 45.4311 41.2287 45.9254 41.2287C46.3686 41.2287 46.7564 41.3196 47.0888 41.5014C47.4212 41.6804 47.6797 41.9531 47.8643 42.3196C48.049 42.6832 48.1413 43.1435 48.1413 43.7003V47.8594H47.1357V43.7685C47.1357 43.2543 47.0021 42.8537 46.7351 42.5668C46.468 42.277 46.1016 42.1321 45.6357 42.1321C45.3146 42.1321 45.0277 42.2017 44.7749 42.3409C44.5249 42.4801 44.3274 42.6832 44.1825 42.9503C44.0376 43.2173 43.9652 43.5412 43.9652 43.9219ZM56.0131 47.9957C55.3995 47.9957 54.8711 47.8509 54.4279 47.5611C53.9847 47.2713 53.6438 46.8722 53.4052 46.3636C53.1665 45.8551 53.0472 45.2741 53.0472 44.6207C53.0472 43.956 53.1694 43.3693 53.4137 42.8608C53.6609 42.3494 54.0046 41.9503 54.445 41.6634C54.8881 41.3736 55.4052 41.2287 55.9961 41.2287C56.4563 41.2287 56.8711 41.3139 57.2404 41.4844C57.6097 41.6548 57.9123 41.8935 58.1481 42.2003C58.3839 42.5071 58.5302 42.8651 58.587 43.2741H57.5813C57.5046 42.9759 57.3342 42.7116 57.07 42.4815C56.8086 42.2486 56.4563 42.1321 56.0131 42.1321C55.6211 42.1321 55.2773 42.2344 54.9819 42.4389C54.6893 42.6406 54.4606 42.9261 54.2958 43.2955C54.1339 43.6619 54.0529 44.0923 54.0529 44.5866C54.0529 45.0923 54.1325 45.5327 54.2915 45.9077C54.4535 46.2827 54.6808 46.5739 54.9734 46.7812C55.2688 46.9886 55.6154 47.0923 56.0131 47.0923C56.2745 47.0923 56.5117 47.0469 56.7248 46.956C56.9379 46.8651 57.1183 46.7344 57.266 46.5639C57.4137 46.3935 57.5188 46.1889 57.5813 45.9503H58.587C58.5302 46.3366 58.3896 46.6847 58.1651 46.9943C57.9435 47.3011 57.6495 47.5455 57.283 47.7273C56.9194 47.9062 56.4961 47.9957 56.0131 47.9957ZM62.7163 47.9957C62.1254 47.9957 61.6069 47.8551 61.1609 47.5739C60.7177 47.2926 60.3711 46.8991 60.1211 46.3935C59.8739 45.8878 59.7504 45.2969 59.7504 44.6207C59.7504 43.9389 59.8739 43.3437 60.1211 42.8352C60.3711 42.3267 60.7177 41.9318 61.1609 41.6506C61.6069 41.3693 62.1254 41.2287 62.7163 41.2287C63.3072 41.2287 63.8242 41.3693 64.2674 41.6506C64.7134 41.9318 65.06 42.3267 65.3072 42.8352C65.5572 43.3437 65.6822 43.9389 65.6822 44.6207C65.6822 45.2969 65.5572 45.8878 65.3072 46.3935C65.06 46.8991 64.7134 47.2926 64.2674 47.5739C63.8242 47.8551 63.3072 47.9957 62.7163 47.9957ZM62.7163 47.0923C63.1651 47.0923 63.5344 46.9773 63.8242 46.7472C64.114 46.517 64.3285 46.2145 64.4677 45.8395C64.6069 45.4645 64.6765 45.0582 64.6765 44.6207C64.6765 44.1832 64.6069 43.7756 64.4677 43.3977C64.3285 43.0199 64.114 42.7145 63.8242 42.4815C63.5344 42.2486 63.1651 42.1321 62.7163 42.1321C62.2674 42.1321 61.8981 42.2486 61.6083 42.4815C61.3185 42.7145 61.104 43.0199 60.9648 43.3977C60.8256 43.7756 60.756 44.1832 60.756 44.6207C60.756 45.0582 60.8256 45.4645 60.9648 45.8395C61.104 46.2145 61.3185 46.517 61.6083 46.7472C61.8981 46.9773 62.2674 47.0923 62.7163 47.0923ZM68.223 39.1321V47.8594H67.2173V39.1321H68.223ZM72.7241 47.9957C72.1332 47.9957 71.6147 47.8551 71.1687 47.5739C70.7255 47.2926 70.3789 46.8991 70.1289 46.3935C69.8817 45.8878 69.7582 45.2969 69.7582 44.6207C69.7582 43.9389 69.8817 43.3437 70.1289 42.8352C70.3789 42.3267 70.7255 41.9318 71.1687 41.6506C71.6147 41.3693 72.1332 41.2287 72.7241 41.2287C73.315 41.2287 73.832 41.3693 74.2752 41.6506C74.7212 41.9318 75.0678 42.3267 75.315 42.8352C75.565 43.3437 75.69 43.9389 75.69 44.6207C75.69 45.2969 75.565 45.8878 75.315 46.3935C75.0678 46.8991 74.7212 47.2926 74.2752 47.5739C73.832 47.8551 73.315 47.9957 72.7241 47.9957ZM72.7241 47.0923C73.1729 47.0923 73.5423 46.9773 73.832 46.7472C74.1218 46.517 74.3363 46.2145 74.4755 45.8395C74.6147 45.4645 74.6843 45.0582 74.6843 44.6207C74.6843 44.1832 74.6147 43.7756 74.4755 43.3977C74.3363 43.0199 74.1218 42.7145 73.832 42.4815C73.5423 42.2486 73.1729 42.1321 72.7241 42.1321C72.2752 42.1321 71.9059 42.2486 71.6161 42.4815C71.3263 42.7145 71.1119 43.0199 70.9727 43.3977C70.8335 43.7756 70.7638 44.1832 70.7638 44.6207C70.7638 45.0582 70.8335 45.4645 70.9727 45.8395C71.1119 46.2145 71.3263 46.517 71.6161 46.7472C71.9059 46.9773 72.2752 47.0923 72.7241 47.0923ZM77.2251 47.8594V41.3139H78.1967V42.3026H78.2649C78.3842 41.9787 78.6001 41.7159 78.9126 41.5142C79.2251 41.3125 79.5774 41.2116 79.9695 41.2116C80.0433 41.2116 80.1357 41.2131 80.2464 41.2159C80.3572 41.2187 80.4411 41.223 80.4979 41.2287V42.2514C80.4638 42.2429 80.3857 42.2301 80.2635 42.2131C80.1442 42.1932 80.0178 42.1832 79.8842 42.1832C79.5661 42.1832 79.282 42.25 79.032 42.3835C78.7848 42.5142 78.5888 42.696 78.4439 42.929C78.3018 43.1591 78.2308 43.4219 78.2308 43.7173V47.8594H77.2251ZM86.3263 42.7798L85.4229 43.0355C85.3661 42.8849 85.2823 42.7386 85.1715 42.5966C85.0636 42.4517 84.9158 42.3324 84.7283 42.2386C84.5408 42.1449 84.3008 42.098 84.0082 42.098C83.6076 42.098 83.2738 42.1903 83.0067 42.375C82.7425 42.5568 82.6104 42.7884 82.6104 43.0696C82.6104 43.3196 82.7013 43.517 82.8832 43.6619C83.065 43.8068 83.3491 43.9276 83.7354 44.0241L84.707 44.2628C85.2923 44.4048 85.7283 44.6222 86.0153 44.9148C86.3022 45.2045 86.4457 45.5781 86.4457 46.0355C86.4457 46.4105 86.3377 46.7457 86.1218 47.0412C85.9087 47.3366 85.6104 47.5696 85.2269 47.7401C84.8434 47.9105 84.3974 47.9957 83.8888 47.9957C83.2212 47.9957 82.6687 47.8509 82.2312 47.5611C81.7937 47.2713 81.5167 46.848 81.4002 46.2912L82.3548 46.0526C82.4457 46.4048 82.6175 46.669 82.8704 46.8452C83.1261 47.0213 83.4599 47.1094 83.8718 47.1094C84.3406 47.1094 84.7127 47.0099 84.9883 46.8111C85.2667 46.6094 85.4059 46.3679 85.4059 46.0866C85.4059 45.8594 85.3263 45.669 85.1673 45.5156C85.0082 45.3594 84.7638 45.2429 84.4343 45.1662L83.3434 44.9105C82.744 44.7685 82.3036 44.5483 82.0224 44.25C81.744 43.9489 81.6048 43.5724 81.6048 43.1207C81.6048 42.7514 81.7085 42.4247 81.9158 42.1406C82.1261 41.8565 82.4116 41.6335 82.7724 41.4716C83.136 41.3097 83.5479 41.2287 84.0082 41.2287C84.6559 41.2287 85.1644 41.3707 85.5337 41.6548C85.9059 41.9389 86.1701 42.3139 86.3263 42.7798Z" fill="#181818"/>
<path d="M230.057 47.8594V39.1321H231.114V43.0185H235.767V39.1321H236.824V47.8594H235.767V43.956H231.114V47.8594H230.057ZM238.94 47.8594V39.1321H244.207V40.0696H239.996V43.0185H243.934V43.956H239.996V46.9219H244.275V47.8594H238.94ZM246.623 39.1321L248.873 42.7628H248.941L251.191 39.1321H252.435L249.691 43.4957L252.435 47.8594H251.191L248.941 44.2969H248.873L246.623 47.8594H245.379L248.191 43.4957L245.379 39.1321H246.623Z" fill="#181818"/>
<path d="M245.22 78L247.01 67.0909H248.075L246.286 78H245.22ZM240.256 74.9744L240.426 73.9091H248.565L248.395 74.9744H240.256ZM241.385 78L243.175 67.0909H244.24L242.45 78H241.385ZM240.895 71.1818L241.065 70.1165H249.205L249.034 71.1818H240.895ZM254.15 78.1491C253.348 78.1491 252.664 77.9308 252.1 77.494C251.535 77.0536 251.104 76.4162 250.805 75.5817C250.507 74.7436 250.358 73.7315 250.358 72.5455C250.358 71.3665 250.507 70.3597 250.805 69.5252C251.107 68.6871 251.54 68.0479 252.105 67.6076C252.673 67.1637 253.355 66.9418 254.15 66.9418C254.946 66.9418 255.626 67.1637 256.191 67.6076C256.759 68.0479 257.192 68.6871 257.49 69.5252C257.792 70.3597 257.943 71.3665 257.943 72.5455C257.943 73.7315 257.794 74.7436 257.496 75.5817C257.197 76.4162 256.766 77.0536 256.201 77.494C255.637 77.9308 254.953 78.1491 254.15 78.1491ZM254.15 76.9773C254.946 76.9773 255.564 76.5937 256.004 75.8267C256.444 75.0597 256.665 73.9659 256.665 72.5455C256.665 71.6009 256.563 70.7965 256.361 70.1325C256.162 69.4684 255.874 68.9624 255.498 68.6143C255.125 68.2663 254.676 68.0923 254.15 68.0923C253.362 68.0923 252.746 68.4812 252.302 69.2589C251.858 70.033 251.636 71.1286 251.636 72.5455C251.636 73.4901 251.736 74.2926 251.934 74.9531C252.133 75.6136 252.419 76.1161 252.792 76.4606C253.169 76.805 253.621 76.9773 254.15 76.9773ZM263.525 78.1491C262.723 78.1491 262.039 77.9308 261.475 77.494C260.91 77.0536 260.479 76.4162 260.18 75.5817C259.882 74.7436 259.733 73.7315 259.733 72.5455C259.733 71.3665 259.882 70.3597 260.18 69.5252C260.482 68.6871 260.915 68.0479 261.48 67.6076C262.048 67.1637 262.73 66.9418 263.525 66.9418C264.321 66.9418 265.001 67.1637 265.566 67.6076C266.134 68.0479 266.567 68.6871 266.865 69.5252C267.167 70.3597 267.318 71.3665 267.318 72.5455C267.318 73.7315 267.169 74.7436 266.871 75.5817C266.572 76.4162 266.141 77.0536 265.576 77.494C265.012 77.9308 264.328 78.1491 263.525 78.1491ZM263.525 76.9773C264.321 76.9773 264.939 76.5937 265.379 75.8267C265.819 75.0597 266.04 73.9659 266.04 72.5455C266.04 71.6009 265.938 70.7965 265.736 70.1325C265.537 69.4684 265.249 68.9624 264.873 68.6143C264.5 68.2663 264.051 68.0923 263.525 68.0923C262.737 68.0923 262.121 68.4812 261.677 69.2589C261.233 70.033 261.011 71.1286 261.011 72.5455C261.011 73.4901 261.111 74.2926 261.309 74.9531C261.508 75.6136 261.794 76.1161 262.167 76.4606C262.544 76.805 262.996 76.9773 263.525 76.9773ZM272.9 78.1491C272.098 78.1491 271.414 77.9308 270.85 77.494C270.285 77.0536 269.854 76.4162 269.555 75.5817C269.257 74.7436 269.108 73.7315 269.108 72.5455C269.108 71.3665 269.257 70.3597 269.555 69.5252C269.857 68.6871 270.29 68.0479 270.855 67.6076C271.423 67.1637 272.105 66.9418 272.9 66.9418C273.696 66.9418 274.376 67.1637 274.941 67.6076C275.509 68.0479 275.942 68.6871 276.24 69.5252C276.542 70.3597 276.693 71.3665 276.693 72.5455C276.693 73.7315 276.544 74.7436 276.246 75.5817C275.947 76.4162 275.516 77.0536 274.951 77.494C274.387 77.9308 273.703 78.1491 272.9 78.1491ZM272.9 76.9773C273.696 76.9773 274.314 76.5937 274.754 75.8267C275.194 75.0597 275.415 73.9659 275.415 72.5455C275.415 71.6009 275.313 70.7965 275.111 70.1325C274.912 69.4684 274.624 68.9624 274.248 68.6143C273.875 68.2663 273.426 68.0923 272.9 68.0923C272.112 68.0923 271.496 68.4812 271.052 69.2589C270.608 70.033 270.386 71.1286 270.386 72.5455C270.386 73.4901 270.486 74.2926 270.684 74.9531C270.883 75.6136 271.169 76.1161 271.542 76.4606C271.919 76.805 272.371 76.9773 272.9 76.9773ZM282.275 78.1491C281.473 78.1491 280.789 77.9308 280.225 77.494C279.66 77.0536 279.229 76.4162 278.93 75.5817C278.632 74.7436 278.483 73.7315 278.483 72.5455C278.483 71.3665 278.632 70.3597 278.93 69.5252C279.232 68.6871 279.665 68.0479 280.23 67.6076C280.798 67.1637 281.48 66.9418 282.275 66.9418C283.071 66.9418 283.751 67.1637 284.316 67.6076C284.884 68.0479 285.317 68.6871 285.615 69.5252C285.917 70.3597 286.068 71.3665 286.068 72.5455C286.068 73.7315 285.919 74.7436 285.621 75.5817C285.322 76.4162 284.891 77.0536 284.326 77.494C283.762 77.9308 283.078 78.1491 282.275 78.1491ZM282.275 76.9773C283.071 76.9773 283.689 76.5937 284.129 75.8267C284.569 75.0597 284.79 73.9659 284.79 72.5455C284.79 71.6009 284.688 70.7965 284.486 70.1325C284.287 69.4684 283.999 68.9624 283.623 68.6143C283.25 68.2663 282.801 68.0923 282.275 68.0923C281.487 68.0923 280.871 68.4812 280.427 69.2589C279.983 70.033 279.761 71.1286 279.761 72.5455C279.761 73.4901 279.861 74.2926 280.059 74.9531C280.258 75.6136 280.544 76.1161 280.917 76.4606C281.294 76.805 281.746 76.9773 282.275 76.9773ZM291.65 78.1491C290.848 78.1491 290.164 77.9308 289.6 77.494C289.035 77.0536 288.604 76.4162 288.305 75.5817C288.007 74.7436 287.858 73.7315 287.858 72.5455C287.858 71.3665 288.007 70.3597 288.305 69.5252C288.607 68.6871 289.04 68.0479 289.605 67.6076C290.173 67.1637 290.855 66.9418 291.65 66.9418C292.446 66.9418 293.126 67.1637 293.691 67.6076C294.259 68.0479 294.692 68.6871 294.99 69.5252C295.292 70.3597 295.443 71.3665 295.443 72.5455C295.443 73.7315 295.294 74.7436 294.996 75.5817C294.697 76.4162 294.266 77.0536 293.701 77.494C293.137 77.9308 292.453 78.1491 291.65 78.1491ZM291.65 76.9773C292.446 76.9773 293.064 76.5937 293.504 75.8267C293.944 75.0597 294.165 73.9659 294.165 72.5455C294.165 71.6009 294.063 70.7965 293.861 70.1325C293.662 69.4684 293.374 68.9624 292.998 68.6143C292.625 68.2663 292.176 68.0923 291.65 68.0923C290.862 68.0923 290.246 68.4812 289.802 69.2589C289.358 70.033 289.136 71.1286 289.136 72.5455C289.136 73.4901 289.236 74.2926 289.434 74.9531C289.633 75.6136 289.919 76.1161 290.292 76.4606C290.669 76.805 291.121 76.9773 291.65 76.9773ZM301.025 78.1491C300.223 78.1491 299.539 77.9308 298.975 77.494C298.41 77.0536 297.979 76.4162 297.68 75.5817C297.382 74.7436 297.233 73.7315 297.233 72.5455C297.233 71.3665 297.382 70.3597 297.68 69.5252C297.982 68.6871 298.415 68.0479 298.98 67.6076C299.548 67.1637 300.23 66.9418 301.025 66.9418C301.821 66.9418 302.501 67.1637 303.066 67.6076C303.634 68.0479 304.067 68.6871 304.365 69.5252C304.667 70.3597 304.818 71.3665 304.818 72.5455C304.818 73.7315 304.669 74.7436 304.371 75.5817C304.072 76.4162 303.641 77.0536 303.076 77.494C302.512 77.9308 301.828 78.1491 301.025 78.1491ZM301.025 76.9773C301.821 76.9773 302.439 76.5937 302.879 75.8267C303.319 75.0597 303.54 73.9659 303.54 72.5455C303.54 71.6009 303.438 70.7965 303.236 70.1325C303.037 69.4684 302.749 68.9624 302.373 68.6143C302 68.2663 301.551 68.0923 301.025 68.0923C300.237 68.0923 299.621 68.4812 299.177 69.2589C298.733 70.033 298.511 71.1286 298.511 72.5455C298.511 73.4901 298.611 74.2926 298.809 74.9531C299.008 75.6136 299.294 76.1161 299.667 76.4606C300.044 76.805 300.496 76.9773 301.025 76.9773Z" fill="#181818"/>
<rect x="25" y="252.88" width="32" height="31.8329" rx="3" fill="black"/>
<rect x="32" y="65.7021" width="18" height="17.906" rx="3" fill="#00B871"/>
<path d="M25 61.7393C25 60.0824 26.3431 58.7393 28 58.7393H54C55.6569 58.7393 57 60.0824 57 61.7393V87.5722C57 89.229 55.6569 90.5722 54 90.5722H47.048C46.3695 90.5722 45.7109 90.8022 45.1799 91.2248L41.6227 94.0557C41.2582 94.3458 40.7418 94.3458 40.3773 94.0557L36.8201 91.2248C36.2891 90.8022 35.6305 90.5722 34.952 90.5722H28C26.3431 90.5722 25 89.229 25 87.5722V61.7393Z" fill="#111111"/>
<path d="M25 104C25 102.343 26.3431 101 28 101H352C353.657 101 355 102.343 355 104V193C355 194.657 353.657 196 352 196H28C26.3431 196 25 194.657 25 193V104Z" fill="url(#paint2_linear_2787_81)"/>
<path d="M25 213C25 211.343 26.3431 210 28 210H352C353.657 210 355 211.343 355 213V221C355 222.657 353.657 224 352 224H28C26.3431 224 25 222.657 25 221V213Z" fill="#EAEAEA"/>
<rect x="284" y="253.379" width="32" height="31.8329" rx="3" fill="#58BFC9"/>
<rect x="99" y="252.88" width="32" height="31.8329" rx="3" fill="#999999"/>
<rect x="99" y="58.7393" width="32" height="31.8329" rx="3" fill="#DE002A"/>
<rect x="173" y="253.379" width="32" height="31.8329" rx="3" fill="#6766DB"/>
<rect x="62" y="252.88" width="32" height="31.8329" rx="3" fill="#444444"/>
<rect x="62" y="58.7393" width="32" height="31.8329" rx="3" fill="#006CE7"/>
<g filter="url(#filter4_d_2787_81)">
<rect x="20" y="188" width="14" height="13.9269" rx="6.96345" fill="black"/>
<rect x="21.5" y="189.5" width="11" height="10.9269" rx="5.46345" stroke="white" stroke-width="3"/>
</g>
<g filter="url(#filter5_d_2787_81)">
<rect x="342" y="210" width="14" height="13.9269" rx="6.96345" fill="black"/>
<rect x="343.5" y="211.5" width="11" height="10.9269" rx="5.46345" stroke="white" stroke-width="3"/>
</g>
<rect x="321" y="253.379" width="32" height="31.8329" rx="3" fill="#F5BF6A"/>
<rect x="210" y="253.379" width="32" height="31.8329" rx="3" fill="#35A439"/>
<rect x="136.5" y="253.38" width="31" height="30.8329" rx="2.5" fill="white" stroke="#BFBFBF"/>
<rect x="247" y="253.379" width="32" height="31.8329" rx="3" fill="#006CE7"/>
<path d="M363.177 28.1196L363.354 27.9428L363.177 27.766L362.234 26.8232L362.057 26.6464L361.881 26.8232L357 31.7038L352.12 26.8232L351.943 26.6464L351.766 26.8232L350.823 27.766L350.646 27.9428L350.823 28.1196L355.704 33L350.823 37.8804L350.646 38.0572L350.823 38.234L351.766 39.1768L351.943 39.3536L352.12 39.1768L357 34.2964L361.881 39.1768L362.057 39.3536L362.234 39.1768L363.177 38.234L363.354 38.0572L363.177 37.8804L358.296 33L363.177 28.1196Z" fill="#181818" stroke="#444444" stroke-width="0.5"/>
<defs>
<filter id="filter0_d_2787_81" x="16" y="184" width="22" height="21.9268" filterUnits="userSpaceOnUse" color-interpolation-filters="sRGB">
<feFlood flood-opacity="0" result="BackgroundImageFix"/>
<feColorMatrix in="SourceAlpha" type="matrix" values="0 0 0 0 0 0 0 0 0 0 0 0 0 0 0 0 0 0 127 0" result="hardAlpha"/>
<feOffset/>
<feGaussianBlur stdDeviation="2"/>
<feComposite in2="hardAlpha" operator="out"/>
<feColorMatrix type="matrix" values="0 0 0 0 0 0 0 0 0 0 0 0 0 0 0 0 0 0 0.12 0"/>
<feBlend mode="normal" in2="BackgroundImageFix" result="effect1_dropShadow_2787_81"/>
<feBlend mode="normal" in="SourceGraphic" in2="effect1_dropShadow_2787_81" result="shape"/>
</filter>
<filter id="filter1_d_2787_81" x="338" y="206" width="22" height="21.9268" filterUnits="userSpaceOnUse" color-interpolation-filters="sRGB">
<feFlood flood-opacity="0" result="BackgroundImageFix"/>
<feColorMatrix in="SourceAlpha" type="matrix" values="0 0 0 0 0 0 0 0 0 0 0 0 0 0 0 0 0 0 127 0" result="hardAlpha"/>
<feOffset/>
<feGaussianBlur stdDeviation="2"/>
<feComposite in2="hardAlpha" operator="out"/>
<feColorMatrix type="matrix" values="0 0 0 0 0 0 0 0 0 0 0 0 0 0 0 0 0 0 0.12 0"/>
<feBlend mode="normal" in2="BackgroundImageFix" result="effect1_dropShadow_2787_81"/>
<feBlend mode="normal" in="SourceGraphic" in2="effect1_dropShadow_2787_81" result="shape"/>
</filter>
<filter id="filter2_d_2787_81" x="26" y="174" width="22" height="21.9268" filterUnits="userSpaceOnUse" color-interpolation-filters="sRGB">
<feFlood flood-opacity="0" result="BackgroundImageFix"/>
<feColorMatrix in="SourceAlpha" type="matrix" values="0 0 0 0 0 0 0 0 0 0 0 0 0 0 0 0 0 0 127 0" result="hardAlpha"/>
<feOffset/>
<feGaussianBlur stdDeviation="2"/>
<feComposite in2="hardAlpha" operator="out"/>
<feColorMatrix type="matrix" values="0 0 0 0 0 0 0 0 0 0 0 0 0 0 0 0 0 0 0.12 0"/>
<feBlend mode="normal" in2="BackgroundImageFix" result="effect1_dropShadow_2787_81"/>
<feBlend mode="normal" in="SourceGraphic" in2="effect1_dropShadow_2787_81" result="shape"/>
</filter>
<filter id="filter3_d_2787_81" x="348" y="196" width="22" height="21.9268" filterUnits="userSpaceOnUse" color-interpolation-filters="sRGB">
<feFlood flood-opacity="0" result="BackgroundImageFix"/>
<feColorMatrix in="SourceAlpha" type="matrix" values="0 0 0 0 0 0 0 0 0 0 0 0 0 0 0 0 0 0 127 0" result="hardAlpha"/>
<feOffset/>
<feGaussianBlur stdDeviation="2"/>
<feComposite in2="hardAlpha" operator="out"/>
<feColorMatrix type="matrix" values="0 0 0 0 0 0 0 0 0 0 0 0 0 0 0 0 0 0 0.12 0"/>
<feBlend mode="normal" in2="BackgroundImageFix" result="effect1_dropShadow_2787_81"/>
<feBlend mode="normal" in="SourceGraphic" in2="effect1_dropShadow_2787_81" result="shape"/>
</filter>
<filter id="filter4_d_2787_81" x="16" y="184" width="22" height="21.9268" filterUnits="userSpaceOnUse" color-interpolation-filters="sRGB">
<feFlood flood-opacity="0" result="BackgroundImageFix"/>
<feColorMatrix in="SourceAlpha" type="matrix" values="0 0 0 0 0 0 0 0 0 0 0 0 0 0 0 0 0 0 127 0" result="hardAlpha"/>
<feOffset/>
<feGaussianBlur stdDeviation="2"/>
<feComposite in2="hardAlpha" operator="out"/>
<feColorMatrix type="matrix" values="0 0 0 0 0 0 0 0 0 0 0 0 0 0 0 0 0 0 0.12 0"/>
<feBlend mode="normal" in2="BackgroundImageFix" result="effect1_dropShadow_2787_81"/>
<feBlend mode="normal" in="SourceGraphic" in2="effect1_dropShadow_2787_81" result="shape"/>
</filter>
<filter id="filter5_d_2787_81" x="338" y="206" width="22" height="21.9268" filterUnits="userSpaceOnUse" color-interpolation-filters="sRGB">
<feFlood flood-opacity="0" result="BackgroundImageFix"/>
<feColorMatrix in="SourceAlpha" type="matrix" values="0 0 0 0 0 0 0 0 0 0 0 0 0 0 0 0 0 0 127 0" result="hardAlpha"/>
<feOffset/>
<feGaussianBlur stdDeviation="2"/>
<feComposite in2="hardAlpha" operator="out"/>
<feColorMatrix type="matrix" values="0 0 0 0 0 0 0 0 0 0 0 0 0 0 0 0 0 0 0.12 0"/>
<feBlend mode="normal" in2="BackgroundImageFix" result="effect1_dropShadow_2787_81"/>
<feBlend mode="normal" in="SourceGraphic" in2="effect1_dropShadow_2787_81" result="shape"/>
</filter>
<linearGradient id="paint0_linear_2787_81" x1="355" y1="101" x2="164.589" y2="260.808" gradientUnits="userSpaceOnUse">
<stop stop-color="#E53424"/>
<stop offset="1" stop-color="#101010"/>
</linearGradient>
<linearGradient id="paint1_linear_2787_81" x1="365" y1="91" x2="174.589" y2="250.808" gradientUnits="userSpaceOnUse">
<stop stop-color="#E53424"/>
<stop offset="1" stop-color="#101010"/>
</linearGradient>
<linearGradient id="paint2_linear_2787_81" x1="355" y1="101" x2="164.589" y2="260.808" gradientUnits="userSpaceOnUse">
<stop stop-color="#E53424"/>
<stop offset="1" stop-color="#101010"/>
</linearGradient>
</defs>
</svg>
