<svg width="45" height="44" viewBox="0 0 45 44" fill="none" xmlns="http://www.w3.org/2000/svg">
<path d="M2.96223 42.4475C2.81882 42.443 2.53644 42.2907 2.39303 42.2862L0.308598 40.0683C0.0306736 39.7726 0.0395753 39.4857 0.19189 39.2034L2.45435 35.6848C2.9024 35.1245 3.23373 33.6993 3.25153 33.1256L3.27379 32.4086C3.30939 31.2613 4.23663 29.1368 4.9804 28.2985L18.2881 15.792C18.5839 15.514 19.0141 15.5274 19.292 15.8231L27.6297 24.6949C27.7687 24.8428 27.7643 24.9862 27.7554 25.273C27.7509 25.4165 27.5986 25.6988 27.4507 25.8378C27.3029 25.9768 17.4004 35.1438 14.143 38.3444C13.5426 39.187 11.3692 39.8373 10.2219 39.8017L9.50482 39.7795C8.93117 39.7617 7.48814 40.004 7.049 40.2775L3.39692 42.3174C3.24905 42.4564 3.10564 42.4519 2.96223 42.4475ZM1.76498 39.3957L3.01564 40.7265L6.22858 38.96C6.959 38.5521 8.68885 38.3186 9.54933 38.3454L10.2664 38.3676C11.1269 38.3943 12.8701 37.7307 13.3137 37.3138C16.1275 34.5301 23.9643 27.1651 26.1778 25.2241L18.8128 17.3873L6.09655 29.338C5.5051 29.8939 4.73017 31.736 4.70792 32.4531L4.68566 33.1701C4.65896 34.0306 4.31872 35.7427 3.72282 36.4419L1.76498 39.3957Z" fill="black"/>
<path d="M28.5483 27.451C28.4049 27.4466 28.118 27.4377 27.9791 27.2898L16.8621 15.4607C16.5842 15.165 16.5975 14.7347 16.8933 14.4568L21.3292 10.288C21.6249 10.01 22.0552 10.0234 22.3331 10.3191L33.45 22.1482C33.728 22.4439 33.7146 22.8742 33.4189 23.1521L28.983 27.321C28.8351 27.4599 28.6917 27.4555 28.5483 27.451ZM18.4575 14.936L28.6017 25.7301L32.0026 22.5339L21.8583 11.7399L18.4575 14.936Z" fill="black"/>
<path d="M31.597 21.8035C31.4536 21.799 31.1668 21.7901 31.0278 21.6422L22.6901 12.7704C22.4122 12.4747 22.4255 12.0445 22.7212 11.7665L33.0717 2.03919C34.1112 0.923043 35.7065 0.398351 37.2841 0.44731C39.1485 0.505171 41.1384 1.14113 42.1112 2.17618C42.667 2.76763 43.214 3.64592 43.6175 4.51974C44.5546 6.70209 44.748 9.72266 43.2693 11.1123L32.1796 21.5344C31.8838 21.8124 31.7404 21.8079 31.597 21.8035ZM24.2854 12.2457L31.6504 20.0825L42.1487 10.2162C42.8881 9.52139 42.9593 7.22678 42.1611 5.1923C41.8965 4.46633 41.4886 3.73592 40.9283 3.28788C40.3769 2.55301 38.8171 1.9304 37.2396 1.88144C36.0923 1.84583 34.9316 2.24046 34.0444 3.07424L24.2854 12.2457Z" fill="black"/>
<path d="M8.20406 35.4326C7.77382 35.4193 7.4959 35.1235 7.50925 34.6933L7.55376 33.2592C7.58937 32.1119 8.49435 30.7044 9.23812 29.8662L13.674 25.6974C13.9698 25.4194 14.4 25.4328 14.6779 25.7285C14.9558 26.0242 14.9425 26.4545 14.6468 26.7324L10.2109 30.9013C9.61495 31.6005 9.01014 32.5866 8.98789 33.3037L8.94338 34.7378C8.93003 35.168 8.6343 35.446 8.20406 35.4326Z" fill="black"/>
</svg>
