<svg width="260" height="178" viewBox="0 0 260 178" fill="none" xmlns="http://www.w3.org/2000/svg">
<rect width="260" height="178" fill="white"/>
<path d="M218.724 12.8173C215.194 11.4054 208.96 10.9539 206.463 18.8905C205.98 20.4511 205.861 24.4863 209.249 28.1424C209.361 29.5172 209.272 33.2477 208.023 37.1714C206.983 40.1068 205.772 47.382 209.249 53" stroke="black" stroke-width="1.11469" stroke-linecap="round"/>
<path d="M220.954 13.4277C223.406 14.208 226.773 15.9246 225.524 22.7911C225.339 23.237 225.235 24.3963 226.305 25.4664C226.936 25.9866 227.821 27.3168 226.305 28.476C226.23 28.5503 225.926 28.7213 225.301 28.8104C225.116 29.7765 224.543 32.0207 223.741 33.2692C223.444 34.0495 222.203 35.4986 219.617 35.0527C218.799 34.9041 216.83 34.3393 215.492 33.2692" stroke="black" stroke-width="1.11469" stroke-linecap="round"/>
<path d="M223.294 15.3232C223.331 16.4751 222.335 18.868 218.055 19.2247C217.572 20.3393 216.316 22.7917 215.157 23.6834C214.599 22.7917 212.37 22.1228 211.924 24.5752C211.475 27.0459 213.782 27.8821 215.157 28.0307" stroke="black" stroke-width="1.11469" stroke-linecap="round"/>
<path d="M206.016 20.3404C204.53 20.1918 201.446 20.9424 201 25.1336C201 26.657 202.003 29.7484 206.016 29.9268C206.871 30.0754 209.382 29.7261 212.593 27.14" stroke="black" stroke-width="1.11469"/>
<path d="M225.076 22.4566C224.779 22.0478 223.739 21.2527 221.955 21.3419" stroke="black" stroke-width="1.11469" stroke-linecap="round"/>
<path d="M222.847 25.1327C222.253 25.3556 220.863 25.534 220.061 24.4639" stroke="black" stroke-width="1.11469" stroke-linecap="round"/>
<path d="M224.408 30.2602C223.85 30.3345 222.535 30.2156 221.732 29.1455" stroke="black" stroke-width="1.11469" stroke-linecap="round"/>
<path d="M208.58 36.7188L211.255 36.732" stroke="black" stroke-width="1.11469" stroke-linecap="round"/>
<path d="M213.93 37.0596C215.007 36.7623 217.608 36.9035 219.392 39.8463L224.965 52.4424" stroke="black" stroke-width="1.11469" stroke-linecap="round"/>
<path d="M213.82 46.6475L216.719 52.6668" stroke="black" stroke-width="1.11469" stroke-linecap="round"/>
<path d="M232.992 52.8753C232.984 53.183 233.228 53.4384 233.536 53.4457C233.843 53.453 234.099 53.2095 234.106 52.9018L233.549 52.8885L232.992 52.8753ZM229.637 41.3659L229.424 40.8505L229.637 41.3659ZM227.534 42.2316L227.746 42.747L227.534 42.2316ZM232.657 47.2036V46.6463H228.518V47.2036V47.761H232.657V47.2036ZM227.534 42.2316L227.746 42.747L229.849 41.8812L229.637 41.3659L229.424 40.8505L227.322 41.7162L227.534 42.2316ZM232.657 42.1168L232.175 42.3963C232.594 43.1184 232.95 44.0738 232.992 45.2178L233.549 45.1972L234.106 45.1765C234.056 43.8213 233.634 42.6899 233.14 41.8372L232.657 42.1168ZM233.549 45.1972L232.992 45.2178C233.08 47.6075 233.029 51.3162 232.992 52.8753L233.549 52.8885L234.106 52.9018C234.143 51.3398 234.196 47.6023 234.106 45.1765L233.549 45.1972ZM229.637 41.3659L229.849 41.8812C230.815 41.4833 231.767 41.693 232.175 42.3963L232.657 42.1168L233.14 41.8372C232.343 40.4642 230.677 40.3346 229.424 40.8505L229.637 41.3659ZM225.949 44.8907L226.503 44.8324C226.409 43.9384 226.915 43.0892 227.746 42.747L227.534 42.2316L227.322 41.7162C226.033 42.2468 225.248 43.5632 225.394 44.9491L225.949 44.8907ZM228.518 47.2036V46.6463C227.481 46.6463 226.611 45.8635 226.503 44.8324L225.949 44.8907L225.394 44.9491C225.562 46.5475 226.91 47.761 228.518 47.761V47.2036Z" fill="black"/>
<path d="M226.937 34.9896C227.21 35.1324 227.547 35.0272 227.689 34.7545C227.832 34.4818 227.727 34.145 227.454 34.0022L227.196 34.4959L226.937 34.9896ZM227.196 34.4959L227.454 34.0022C227.038 33.7841 226.362 33.4841 225.664 33.2831C225.315 33.1825 224.945 33.1024 224.591 33.074C224.244 33.0461 223.868 33.064 223.533 33.1981L223.74 33.7156L223.947 34.2331C224.058 34.1888 224.239 34.164 224.502 34.1851C224.758 34.2057 225.05 34.2663 225.356 34.3543C225.967 34.5304 226.573 34.7989 226.937 34.9896L227.196 34.4959Z" fill="black"/>
<path d="M220.284 35.1641C219.69 35.6843 218.545 37.1036 218.724 38.6196" stroke="black" stroke-width="1.11469"/>
<path d="M228.645 35.9453C229.202 36.577 229.782 37.4613 229.871 38.6206" stroke="black" stroke-width="1.11469" stroke-linecap="round"/>
<path d="M227.863 39.1781C228.198 38.7322 229.089 38.0411 229.981 38.8437C230.39 39.4753 230.739 40.8947 228.867 41.5189" stroke="black" stroke-width="1.11469" stroke-linecap="round"/>
<path d="M223.74 39.2899C224.186 39.6986 225.256 40.1371 225.97 38.6211" stroke="black" stroke-width="1.11469" stroke-linecap="round"/>
<path d="M223.293 42.7457C223.541 42.7457 224.11 42.6565 224.408 42.2998" stroke="black" stroke-width="1.11469" stroke-linecap="round"/>
<path d="M222.477 40.3773C222.585 40.0891 222.439 39.7679 222.151 39.6598C221.862 39.5517 221.541 39.6977 221.433 39.9859L221.955 40.1816L222.477 40.3773ZM220.617 41.1849L220.679 41.7388C220.922 41.7118 221.268 41.6148 221.6 41.4136C221.938 41.2085 222.289 40.8783 222.477 40.3773L221.955 40.1816L221.433 39.9859C221.353 40.1984 221.202 40.3512 221.022 40.4601C220.836 40.5729 220.647 40.6208 220.556 40.6309L220.617 41.1849Z" fill="black"/>
<path d="M127.656 131.419V139.711C127.656 139.838 127.759 139.942 127.887 139.942H135.833" stroke="black" stroke-width="1.38204" stroke-linecap="round"/>
<path d="M126.573 146.112L123.801 156.216C123.177 158.486 120.831 159.822 118.56 159.199C116.289 158.575 114.953 156.23 115.576 153.959L118.349 143.855L126.573 146.112Z" stroke="black" stroke-width="1.38204"/>
<path d="M118.679 159.404L116.977 165.385" stroke="black" stroke-width="1.38204" stroke-linecap="round"/>
<path d="M114.221 164.986L119.441 166.419" stroke="black" stroke-width="1.38204" stroke-linecap="round"/>
<path d="M116.145 153.069L124.783 150.996" stroke="black" stroke-width="1.38204" stroke-linecap="round"/>
<path d="M129.427 146.041L132.199 156.145C132.823 158.416 135.169 159.751 137.44 159.128C139.711 158.505 141.047 156.159 140.424 153.888L137.651 143.784L129.427 146.041Z" stroke="black" stroke-width="1.38204"/>
<path d="M137.338 159.404L139.021 165.316" stroke="black" stroke-width="1.38204" stroke-linecap="round"/>
<path d="M141.777 164.916L136.557 166.349" stroke="black" stroke-width="1.38204" stroke-linecap="round"/>
<path d="M139.873 152.955L135.673 152.023L131.236 151.112" stroke="black" stroke-width="1.38204" stroke-linecap="round"/>
<path d="M124.606 151.469C125.65 151.759 126.749 151.918 127.885 151.918C129.006 151.918 130.09 151.763 131.121 151.48L131.52 152.807C130.362 153.127 129.144 153.3 127.885 153.3C126.611 153.3 125.378 153.124 124.208 152.796L124.606 151.469ZM127.885 126.12C135.39 126.12 141.474 132.205 141.475 139.71C141.475 142.742 140.481 145.543 138.803 147.804L138.303 146.075C139.438 144.222 140.093 142.042 140.093 139.71C140.092 132.968 134.627 127.502 127.885 127.502C121.143 127.502 115.677 132.968 115.677 139.71C115.677 142.221 116.436 144.555 117.736 146.496L117.203 148.112C115.382 145.8 114.295 142.882 114.295 139.71C114.295 132.205 120.38 126.12 127.885 126.12Z" fill="black"/>
<circle cx="124.34" cy="32.551" r="9.65217" stroke="black" stroke-width="1.93043"/>
<path d="M118.852 16.8086C112.482 19.1182 107.931 25.2222 107.931 32.3896C107.931 41.5408 115.349 48.959 124.5 48.959C124.551 48.959 124.602 48.9575 124.653 48.957L125.001 50.8828C124.835 50.8872 124.668 50.8896 124.5 50.8896C114.283 50.8896 106 42.6069 106 32.3896C106 24.2712 111.23 17.3747 118.504 14.8838L118.852 16.8086ZM126.519 14C135.786 15.0057 143 22.8546 143 32.3896C143 39.6145 138.858 45.8713 132.819 48.917L132.459 46.9238C137.59 44.108 141.069 38.6559 141.069 32.3896C141.069 24.0461 134.902 17.1445 126.878 15.9912L126.519 14Z" fill="black"/>
<path d="M133.025 43.168V48.1549H138.817" stroke="black" stroke-width="1.93043" stroke-linecap="round"/>
<path d="M117.633 20.3984L118.688 15.5243L113.027 14.2994" stroke="black" stroke-width="1.93043" stroke-linecap="round"/>
<path d="M124.5 26.7598V32.0685L128.361 36.2511" stroke="black" stroke-width="1.93043" stroke-linecap="round"/>
<path d="M44.0856 71.2925C43.8663 71.1464 43.4194 70.936 43.0807 71.0252C42.9095 71.0703 42.7531 71.2382 42.8371 71.3939C42.8551 71.4272 42.8794 71.4641 42.9116 71.5048C43.1083 71.7543 43.4183 72.0579 43.2239 72.3093C43.1991 72.3415 43.1666 72.3692 43.125 72.3901" stroke="black" stroke-width="0.82317" stroke-linecap="round"/>
<path d="M42.4414 73.8994C42.6243 74.3567 42.853 75.5458 44.9109 76.2317" stroke="black" stroke-width="0.82317" stroke-linecap="round"/>
<path d="M39.6934 75.5459C40.1049 76.6435 40.983 78.18 43.3976 77.1922" stroke="black" stroke-width="0.82317" stroke-linecap="round"/>
<path d="M37.3631 74.0361C38.4607 74.3563 40.9576 75.7099 39.4211 78.0148C37.8845 80.3197 36.3113 81.8105 35.7168 82.2678" stroke="black" stroke-width="0.82317" stroke-linecap="round"/>
<path d="M32.0117 83.6406C31.3257 84.6467 29.8715 86.6864 29.5422 86.7961C29.1306 86.9333 35.5788 89.9516 39.8318 88.9912" stroke="black" stroke-width="0.82317" stroke-linecap="round"/>
<path d="M36.5398 78.1523C36.2197 78.8383 35.0581 80.6493 34.0703 81.3078" stroke="black" stroke-width="0.82317" stroke-linecap="round"/>
<path d="M47.1037 82.6797L43.125 84.7376" stroke="black" stroke-width="0.82317" stroke-linecap="round"/>
<path d="M51.7675 82.6797C51.7217 83.4571 52.0693 85.0394 53.8254 85.1492" stroke="black" stroke-width="0.82317" stroke-linecap="round"/>
<path d="M34.618 81.8564C34.115 82.1308 33.1912 82.9814 33.5205 84.1888" stroke="black" stroke-width="0.82317" stroke-linecap="round"/>
<path d="M17.7441 103.671L19.8021 106.278" stroke="black" stroke-width="0.82317" stroke-linecap="round"/>
<path d="M19.3906 102.436L21.7229 105.454" stroke="black" stroke-width="0.82317" stroke-linecap="round"/>
<path d="M31.3262 75.6826L32.9725 78.9753" stroke="black" stroke-width="0.82317" stroke-linecap="round"/>
<path d="M46.0059 78.564C45.5669 77.4665 44.1766 77.1006 43.5364 77.0549L44.0854 76.0945L46.2805 76.3689C46.939 76.3689 46.9207 75.6372 47.2408 75.1342C47.8994 75.1342 48.3384 74.4939 48.4756 74.1738L47.7896 73.2134V70.8811C48.9969 70.2226 48.9329 69.3262 48.75 68.9604H47.2408C45.7043 68.1921 43.8567 68 43.125 68C40.7628 68.2953 40.3571 70.5986 40.4634 72.0604C40.4787 72.2701 40.2728 72.4378 40.0748 72.3671C35.8895 70.8722 34.0563 70.7485 33.6585 70.8811C32.1219 71.1006 30.7317 73.8079 30.2287 75.1342C27.0457 76.6708 26.1585 77.6951 26.1128 78.0153V79.936L24.6037 85.1494C24.0898 87.3077 27.385 86.8274 29.0829 87.0204C29.2522 87.0397 29.348 87.2152 29.2856 87.3736L25.8384 96.125V97.312C25.8384 97.5196 25.6014 97.6755 25.3939 97.6829C23.5916 97.7475 19.3788 101.583 17.3323 103.671H16.8369C16.3666 103.671 15.9188 103.872 15.6064 104.223L15.4813 104.364C15.1801 104.703 15.0658 105.169 15.1757 105.608L16.6063 111.331C16.7828 112.037 17.4901 112.48 18.2047 112.344C19.035 112.186 19.5972 111.296 19.5674 110.451C19.521 109.14 19.6779 107.554 19.8015 106.689C22.7283 105.271 28.7466 102.381 29.4051 102.162C30.0637 101.942 31.4173 100.058 32.0118 99.1433C33.3452 98.5719 34.3617 96.5129 34.8463 95.1714C34.9254 94.9526 35.2344 94.9045 35.3904 95.0771C36.8557 96.6988 39.6284 97.2758 40.9295 97.3598C39.4204 98.4573 38.5972 102.436 38.5972 102.848C38.5972 103.177 37.6826 105.546 37.2252 106.689L36.249 107.763C35.9944 108.043 35.8533 108.408 35.8533 108.786C35.8533 109.267 36.1246 109.706 36.5542 109.921L41.9382 112.613C42.4052 112.846 42.9677 112.768 43.354 112.417C43.8436 111.972 43.9072 111.225 43.4999 110.703L40.918 107.399C40.8434 107.303 40.8402 107.17 40.9102 107.071L47.1033 98.3201C48.3106 95.247 46.2344 93.2896 45.0454 92.6951L45.1825 92.5579C43.8104 90.0884 40.5181 89.5396 40.1065 88.9909C39.6949 88.4421 40.1067 86.5213 40.2439 86.3841C40.3391 86.2889 41.3354 85.0862 41.9263 84.2614C42.0418 84.1002 42.2871 84.1014 42.3979 84.2658C44.5761 87.4981 46.0688 88.4909 46.5547 88.5793C49.8563 88.5793 53.5296 85.7416 55.571 83.7246C56.0759 83.2258 56.0589 82.4224 55.5707 81.9072L54.9644 81.2672C54.4213 80.6939 53.5076 80.6963 52.9676 81.2724L51.9053 82.4055C51.137 82.9543 49.1157 83.6403 48.201 83.9146C47.9266 83.3659 46.5548 79.9362 46.0059 78.5641L46.0059 78.564Z" stroke="black" stroke-width="0.82317" stroke-linecap="round"/>
<path d="M35.6534 73.9529L31.222 75.3979C31.2004 75.4049 31.1803 75.4144 31.161 75.4263C30.2773 75.9691 28.2995 76.5135 27.4852 77.192C26.1898 78.2715 27.0809 80.3021 28.487 81.2329L34.5527 85.2482C35.2669 85.721 36.2302 85.5143 36.6875 84.7902C37.1369 84.0786 36.9261 83.1375 36.2161 82.6857L31.9537 79.9733C31.7582 79.8488 31.7954 79.5531 32.0157 79.481L36.9335 77.8715C38.0601 77.5028 38.6443 76.2622 38.2109 75.1589C37.8119 74.1433 36.6907 73.6146 35.6534 73.9529Z" stroke="black" stroke-width="0.82317" stroke-linecap="round"/>
<path d="M37.957 106.138L40.8855 107.238" stroke="black" stroke-width="0.82317" stroke-linecap="round"/>
<path d="M38.668 104.154L41.545 105.383" stroke="black" stroke-width="0.82317" stroke-linecap="round"/>
<path d="M43.8109 80.21C43.8109 82.1307 42.7133 82.9539 42.0273 84.0514" stroke="black" stroke-width="0.82317" stroke-linecap="round"/>
<path d="M25.9766 96.5361L32.1503 99.0056" stroke="black" stroke-width="0.82317" stroke-linecap="round"/>
<path d="M40.6569 97.0851C40.5196 95.1643 44.9972 92.7342 44.9972 92.7342" stroke="black" stroke-width="0.82317" stroke-linecap="round"/>
<path d="M223.311 129.553C225.8 129.553 228.023 130.092 229.602 130.934C231.207 131.79 232 132.867 232 133.897C232 134.928 231.206 136.004 229.602 136.86C228.023 137.702 225.8 138.242 223.311 138.242C220.821 138.242 218.597 137.702 217.019 136.86C215.414 136.004 214.621 134.928 214.621 133.897C214.621 132.867 215.414 131.79 217.019 130.934C218.597 130.092 220.821 129.553 223.311 129.553Z" stroke="black" stroke-width="1.24138"/>
<circle cx="219.07" cy="133.792" r="0.724138" fill="black"/>
<circle cx="223" cy="133.792" r="0.724138" fill="black"/>
<circle cx="226.931" cy="133.792" r="0.724138" fill="black"/>
<path d="M223.311 122V129.034" stroke="black" stroke-width="1.24138" stroke-linecap="round"/>
<path d="M216.275 139.069V141.759" stroke="black" stroke-width="1.24138" stroke-linecap="round"/>
<path d="M223.311 140.518V143.207" stroke="black" stroke-width="1.24138" stroke-linecap="round"/>
<path d="M230.346 139.276V141.966" stroke="black" stroke-width="1.24138" stroke-linecap="round"/>
<circle cx="223.415" cy="149.931" r="4.44828" stroke="black" stroke-width="1.24138"/>
<path d="M216.689 167H230.034C230.263 167 230.448 166.815 230.448 166.586V161.414C230.448 158.9 228.41 156.862 225.896 156.862H220.827C218.313 156.862 216.275 158.9 216.275 161.414V166.586C216.275 166.815 216.461 167 216.689 167Z" stroke="black" stroke-width="1.24138" stroke-linecap="round"/>
<path d="M133.094 91.4541L140.031 105.33M140.031 105.33L141.263 107.69C141.417 107.986 141.203 108.34 140.869 108.34V108.34C140.623 108.34 140.424 108.539 140.424 108.785V109.082C140.424 109.417 140.2 109.71 139.877 109.798L139.654 109.859C139.258 109.967 138.984 110.326 138.984 110.736V110.736C138.984 111.107 138.758 111.441 138.413 111.579L138.33 111.613C137.934 111.771 137.675 112.154 137.675 112.579V112.677C137.675 113.372 138.27 113.918 138.962 113.858L148.698 113.021C149.312 112.968 149.743 112.393 149.622 111.789L149.549 111.422C149.495 111.152 149.258 110.958 148.983 110.958V110.958C148.722 110.958 148.495 110.782 148.404 110.537C148.149 109.851 147.652 108.949 146.969 108.864H146.472C146.207 108.864 145.957 108.743 145.791 108.537L145.758 108.496C145.614 108.315 145.394 108.209 145.163 108.209H145.027C144.78 108.209 144.56 108.051 144.482 107.817V107.817C144.404 107.582 144.184 107.424 143.937 107.424H143.711C143.38 107.424 143.077 107.24 142.924 106.947L142.364 105.873C141.949 105.078 140.954 104.791 140.18 105.243L140.031 105.33Z" stroke="black" stroke-width="0.785402" stroke-linecap="round"/>
<path d="M123.143 106.507L123.369 108.396C123.464 109.186 124.134 109.78 124.929 109.78H129.792C130.385 109.78 130.866 109.299 130.866 108.706V108.706C130.866 108.251 130.579 107.846 130.151 107.694L127.506 106.755C127.064 106.598 126.715 106.252 126.555 105.811L126.284 105.067" stroke="black" stroke-width="0.785402" stroke-linecap="round"/>
<path d="M132.043 88.967L132.64 90.4586C132.894 91.0938 133.595 91.4257 134.247 91.2197V91.2197C134.967 90.9922 135.345 90.2034 135.072 89.4994L134.661 88.4434" stroke="black" stroke-width="0.785402" stroke-linecap="round"/>
<path d="M128.248 67.1066C127.736 65.8249 126.093 64.1416 123.568 67.4143C123.46 67.5543 123.402 67.6565 123.341 67.8223V67.8223C122.906 68.9951 122.578 70.4904 123.697 69.9304C123.816 69.8707 123.939 69.8025 124.067 69.725C124.64 69.3776 124.847 68.4531 125.465 68.1934C125.71 68.0902 126.059 68.0229 126.547 68.0229" stroke="black" stroke-width="0.785402" stroke-linecap="round"/>
<path d="M112.409 105.2L111.67 106.123C111.002 106.959 111.346 108.203 112.348 108.576L117.031 110.323C117.577 110.526 118.182 110.229 118.353 109.672V109.672C118.478 109.266 118.337 108.825 117.999 108.568L116.431 107.373C116.041 107.076 115.812 106.614 115.812 106.124V105.593" stroke="black" stroke-width="0.785402" stroke-linecap="round"/>
<path d="M122.357 90.6689C122.189 93.4796 120.892 99.8396 116.139 104.979C115.779 105.368 115.237 105.527 114.719 105.418L112.72 105.002C112.559 104.968 112.468 104.796 112.531 104.644C113.043 103.409 113.917 101.155 114.11 100.094C114.372 98.6539 115.55 96.4286 117.382 96.8213" stroke="black" stroke-width="0.785402" stroke-linecap="round"/>
<path d="M116.204 96.6911C115.55 94.5094 114.503 89.1774 115.55 85.3027" stroke="black" stroke-width="0.785402" stroke-linecap="round"/>
<path d="M125.369 85.4337C125.369 85.7401 125.241 86.445 124.787 87.2374C124.53 87.687 124.013 87.9019 123.499 87.8384C121.173 87.5516 117.402 86.6724 115.372 84.789C114.963 84.4095 114.897 83.8082 115.107 83.2914C115.999 81.102 117.37 77.635 117.645 76.5325C118.038 74.9617 121.572 70.9038 125.761 72.3437M125.761 72.3437C125.587 70.5984 126.206 67.1601 130.081 67.3695C131.366 67.5837 133.474 68.5336 133.454 70.7067C133.445 71.6099 132.399 71.9808 131.599 71.5617L130.632 71.0551C130.469 70.9698 130.267 71.0243 130.17 71.1803V71.1803C130 71.4528 129.546 71.3777 129.392 71.0953C129.218 70.775 128.97 70.5112 128.641 70.5112C128.147 70.5112 127.836 70.9972 127.684 71.3958C127.611 71.5847 127.529 71.7721 127.405 71.9318L127.326 72.0343C126.954 72.5123 126.287 72.6442 125.761 72.3437V72.3437ZM125.761 72.3437C125.736 73.3695 125.852 74.8717 126.31 75.71C126.801 76.6065 128.278 76.9713 128.237 77.9924C128.206 78.7557 128.051 79.6723 127.665 80.6738C127.624 80.7803 127.653 80.902 127.741 80.9751L133.092 85.4337C133.828 86.0231 135 87.2593 134.718 88.1342C134.608 88.4736 134.206 88.5754 133.85 88.5754H132.746C132.096 88.5754 131.521 88.1512 131.33 87.5295V87.5295C131.202 87.1135 130.898 86.7749 130.497 86.6034L129.726 86.2727C129.453 86.1557 129.142 86.1649 128.877 86.2976V86.2976C128.499 86.4865 128.046 86.4176 127.714 86.1571C126.858 85.4868 125.495 84.6484 124.321 84.6484C123.143 84.4912 120.647 83.8528 119.245 82.5037C118.952 82.2215 118.85 81.8049 118.913 81.4029C119.101 80.2186 119.479 78.4076 120.002 77.4489C120.63 76.297 121.223 75.5726 121.442 75.3545" stroke="black" stroke-width="0.785402" stroke-linecap="round"/>
<path d="M123.93 76.7939C123.646 77.7191 123.042 79.4508 122.545 80.2288C122.433 80.4041 122.476 80.7106 122.663 80.8025C124.22 81.5702 126.87 82.9348 127.726 83.6008C128.534 84.2288 129.463 84.8375 129.987 85.1637C130.136 85.2568 130.271 85.3716 130.384 85.5069L131.522 86.8733" stroke="black" stroke-width="0.785402" stroke-linecap="round"/>
<path d="M120.262 77.8418L123.011 79.2817" stroke="black" stroke-width="0.785402" stroke-linecap="round"/>
<path d="M127.592 80.9609L126.021 82.2063" stroke="black" stroke-width="0.785402" stroke-linecap="round"/>
<path d="M124.581 87.7881C125.323 90.8424 126.806 97.2391 126.806 98.391C126.806 99.3247 126.52 102.443 126.295 104.706C126.215 105.507 125.541 106.114 124.736 106.114H124.216C123.445 106.114 122.788 105.556 122.68 104.793C122.446 103.13 122.185 100.89 122.213 99.5969C122.217 99.4049 122.264 99.217 122.355 99.0479C122.672 98.4589 123.254 97.6462 123.796 97.7365C124.581 97.8674 121.701 98.2601 121.57 95.5112" stroke="black" stroke-width="0.785402" stroke-linecap="round"/>
<path d="M133.354 71.2959C133.176 71.58 132.628 72.6853 131.979 73.3125C131.727 73.5562 131.521 73.8736 131.521 74.2244V74.5261C131.521 74.9543 131.129 75.2755 130.709 75.1915V75.1915C130.414 75.1325 130.124 75.283 129.93 75.5121C129.554 75.9538 128.985 76.2434 128.358 75.6875C127.92 75.3001 127.124 75.3232 126.939 75.8774V75.8774" stroke="black" stroke-width="0.785402" stroke-linecap="round"/>
<path d="M142.518 99.7002C143.949 99.8886 146.968 100.142 148.979 99.8707C149.525 99.7971 150.096 99.9281 150.464 100.337C151.313 101.283 152.448 102.804 152.859 104.282C153.382 106.167 154.648 107.162 155.215 107.423" stroke="black" stroke-width="0.785402" stroke-linecap="round"/>
<path d="M151.549 112.137H155.999" stroke="black" stroke-width="0.785402" stroke-linecap="round"/>
<path d="M147.359 101.927L148.014 102.843" stroke="black" stroke-width="0.785402" stroke-linecap="round"/>
<path d="M149.586 102.319L150.24 103.236" stroke="black" stroke-width="0.785402" stroke-linecap="round"/>
<path d="M148.799 105.2L149.453 106.116" stroke="black" stroke-width="0.785402" stroke-linecap="round"/>
<path d="M151.156 105.723L151.811 106.639" stroke="black" stroke-width="0.785402" stroke-linecap="round"/>
<path d="M150.109 108.864L150.764 109.781" stroke="black" stroke-width="0.785402" stroke-linecap="round"/>
<path d="M152.465 108.864L153.119 109.781" stroke="black" stroke-width="0.785402" stroke-linecap="round"/>
<path d="M154.559 108.864L155.213 109.781" stroke="black" stroke-width="0.785402" stroke-linecap="round"/>
<path d="M135.316 90.9307L141.6 104.937" stroke="black" stroke-width="0.523602" stroke-linecap="round"/>
<path d="M140.814 109.651L145.92 109.127" stroke="black" stroke-width="0.785402" stroke-linecap="round"/>
<path d="M138.852 111.614L148.538 110.697" stroke="black" stroke-width="0.785402" stroke-linecap="round"/>
<path d="M20 165.462H41.8772" stroke="black" stroke-width="1.2744" stroke-linecap="round"/>
<path d="M39.8611 143.797V161.638L38.4805 165.037" stroke="black" stroke-width="1.2744" stroke-linecap="round"/>
<path d="M33.2047 125C33.2047 125.801 33.0657 127.672 32.5096 128.752C31.9536 129.833 32.7413 131.804 33.2047 132.655C33.4363 133.105 33.6216 134.456 32.5096 136.257" stroke="black" stroke-width="1.2744" stroke-linecap="round"/>
<path d="M40.1777 148.151H43.3637C43.7156 148.151 44.0009 148.437 44.0009 148.789V159.196C44.0009 159.548 43.7156 159.833 43.3637 159.833H40.1777" stroke="black" stroke-width="1.2744" stroke-linecap="round"/>
<path d="M31.0439 140.504C33.5888 140.504 35.8627 140.946 37.4766 141.635C38.2846 141.98 38.898 142.375 39.2998 142.78C39.6988 143.183 39.8583 143.562 39.8584 143.902C39.8584 144.243 39.699 144.622 39.2998 145.025C38.898 145.431 38.2846 145.825 37.4766 146.17C35.8627 146.859 33.589 147.301 31.0439 147.301C28.4987 147.301 26.2243 146.859 24.6104 146.17C23.8023 145.825 23.1889 145.431 22.7871 145.025C22.388 144.622 22.2285 144.243 22.2285 143.902C22.2287 143.562 22.3881 143.183 22.7871 142.78C23.1889 142.375 23.8022 141.98 24.6104 141.635C26.2243 140.946 28.4988 140.504 31.0439 140.504Z" stroke="black" stroke-width="1.2744"/>
<path d="M27.541 130.522C27.541 131.089 27.4136 132.413 26.9038 133.177C26.3941 133.942 27.1162 135.337 27.541 135.939C27.7534 136.257 27.9232 137.213 26.9038 138.487" stroke="black" stroke-width="1.2744" stroke-linecap="round"/>
<path d="M22.3362 143.903V161.745L23.7168 165.143" stroke="black" stroke-width="1.2744" stroke-linecap="round"/>
<path d="M220.909 108.16C220.526 108.254 220.29 108.641 220.384 109.024C220.478 109.408 220.864 109.643 221.248 109.55L221.079 108.855L220.909 108.16ZM212.657 102.714L211.998 102.435L211.441 103.752L212.1 104.031L212.378 103.372L212.657 102.714ZM219.906 106.557L219.627 107.216L219.906 106.557ZM218.467 110.368L218.241 111.046L218.467 110.368ZM202.74 99.7048L202.702 100.419L202.74 99.7048ZM213.433 100.006L214.147 99.9594L213.433 100.006ZM213.183 100.259L213.221 99.5451L213.183 100.259ZM212.487 91.4419L211.997 90.9205L212.487 91.4419ZM212.888 91.6002L213.601 91.5539L212.888 91.6002ZM207.084 96.5141L207.573 97.0355L207.084 96.5141ZM204.701 92.5757L204.195 92.0701L204.701 92.5757ZM212.308 84.9683L212.814 85.4739L212.308 84.9683ZM228.182 84.9766L227.652 85.4572L228.182 84.9766ZM235.072 92.5674L234.542 93.048L235.072 92.5674ZM232.93 95.924L232.46 96.4629L232.46 96.4629L232.93 95.924ZM227.359 91.5691L226.646 91.5135L227.359 91.5691ZM227.753 91.408L228.223 90.8691L227.753 91.408ZM226.953 100.258L226.912 99.5438L226.953 100.258ZM226.702 100.001L225.989 99.9457L226.702 100.001ZM237.649 104.816L237.48 104.121L237.649 104.816ZM221.079 108.855L221.248 109.55L237.818 105.511L237.649 104.816L237.48 104.121L220.909 108.16L221.079 108.855ZM236.882 99.6849L236.841 98.971L226.912 99.5438L226.953 100.258L226.994 100.972L236.923 100.399L236.882 99.6849ZM226.702 100.001L227.415 100.057L228.072 91.6247L227.359 91.5691L226.646 91.5135L225.989 99.9457L226.702 100.001ZM227.753 91.408L227.283 91.9469L232.46 96.4629L232.93 95.924L233.4 95.3851L228.223 90.8691L227.753 91.408ZM233.087 95.9828V96.6979H238.957V95.9828V95.2677H233.087V95.9828ZM238.957 92.6456V91.9304H235.248V92.6456V93.3607H238.957V92.6456ZM235.072 92.5674L235.601 92.0868L228.711 84.496L228.182 84.9766L227.652 85.4572L234.542 93.048L235.072 92.5674ZM228.005 84.8984V84.1833H212.477V84.8984V85.6136H228.005V84.8984ZM212.308 84.9683L211.803 84.4626L204.195 92.0701L204.701 92.5757L205.207 93.0814L212.814 85.4739L212.308 84.9683ZM204.532 92.6456V91.9304H200.996V92.6456V93.3607H204.532V92.6456ZM200.996 96.5787V97.2938H206.92V96.5787V95.8636H200.996V96.5787ZM207.084 96.5141L207.573 97.0355L212.976 91.9632L212.487 91.4419L211.997 90.9205L206.594 95.9928L207.084 96.5141ZM212.888 91.6002L212.174 91.6466L212.72 100.052L213.433 100.006L214.147 99.9594L213.601 91.5539L212.888 91.6002ZM213.183 100.259L213.221 99.5451L202.778 98.9907L202.74 99.7048L202.702 100.419L213.145 100.973L213.183 100.259ZM201.773 104.803L201.547 105.482L218.241 111.046L218.467 110.368L218.693 109.69L201.999 104.125L201.773 104.803ZM219.906 106.557L220.184 105.898L212.657 102.714L212.378 103.372L212.1 104.031L219.627 107.216L219.906 106.557ZM221.032 109.116L221.706 109.355C222.194 107.982 221.526 106.466 220.184 105.898L219.906 106.557L219.627 107.216C220.272 107.488 220.593 108.217 220.358 108.877L221.032 109.116ZM218.467 110.368L218.241 111.046C219.664 111.521 221.205 110.769 221.706 109.355L221.032 109.116L220.358 108.877C220.117 109.556 219.377 109.918 218.693 109.69L218.467 110.368ZM199.983 102.319H199.268C199.268 103.754 200.186 105.028 201.547 105.482L201.773 104.803L201.999 104.125C201.222 103.866 200.698 103.139 200.698 102.319H199.983ZM202.74 99.7048L202.778 98.9907C200.87 98.8894 199.268 100.409 199.268 102.319H199.983H200.698C200.698 101.229 201.613 100.361 202.702 100.419L202.74 99.7048ZM213.433 100.006L212.72 100.052C212.701 99.7672 212.936 99.53 213.221 99.5451L213.183 100.259L213.145 100.973C213.715 101.004 214.184 100.529 214.147 99.9594L213.433 100.006ZM212.487 91.4419L212.976 91.9632C212.682 92.239 212.2 92.0486 212.174 91.6466L212.888 91.6002L213.601 91.5539C213.549 90.7497 212.585 90.369 211.997 90.9205L212.487 91.4419ZM206.92 96.5787V97.2938C207.163 97.2938 207.396 97.2015 207.573 97.0355L207.084 96.5141L206.594 95.9928C206.683 95.9098 206.799 95.8636 206.92 95.8636V96.5787ZM199.029 94.6121H198.314C198.314 96.0932 199.515 97.2938 200.996 97.2938V96.5787V95.8636C200.305 95.8636 199.744 95.3033 199.744 94.6121H199.029ZM200.996 92.6456V91.9304C199.515 91.9304 198.314 93.1311 198.314 94.6121H199.029H199.744C199.744 93.921 200.305 93.3607 200.996 93.3607V92.6456ZM204.701 92.5757L204.195 92.0701C204.285 91.9807 204.406 91.9304 204.532 91.9304V92.6456V93.3607C204.785 93.3607 205.028 93.2602 205.207 93.0814L204.701 92.5757ZM212.477 84.8984V84.1833C212.224 84.1833 211.982 84.2838 211.803 84.4626L212.308 84.9683L212.814 85.4739C212.725 85.5633 212.603 85.6136 212.477 85.6136V84.8984ZM228.182 84.9766L228.711 84.496C228.531 84.2969 228.274 84.1833 228.005 84.1833V84.8984V85.6136C227.871 85.6136 227.743 85.5568 227.652 85.4572L228.182 84.9766ZM235.248 92.6456V91.9304C235.383 91.9304 235.511 91.9872 235.601 92.0868L235.072 92.5674L234.542 93.048C234.723 93.2471 234.979 93.3607 235.248 93.3607V92.6456ZM240.625 94.3142H241.34C241.34 92.9977 240.273 91.9304 238.957 91.9304V92.6456V93.3607C239.483 93.3607 239.91 93.7876 239.91 94.3142H240.625ZM238.957 95.9828V96.6979C240.273 96.6979 241.34 95.6307 241.34 94.3142H240.625H239.91C239.91 94.8408 239.483 95.2677 238.957 95.2677V95.9828ZM232.93 95.924L232.46 96.4629C232.634 96.6144 232.856 96.6979 233.087 96.6979V95.9828V95.2677C233.202 95.2677 233.313 95.3094 233.4 95.3851L232.93 95.924ZM227.359 91.5691L228.072 91.6247C228.041 92.0155 227.578 92.2046 227.283 91.9469L227.753 91.408L228.223 90.8691C227.632 90.3537 226.707 90.7319 226.646 91.5135L227.359 91.5691ZM226.953 100.258L226.912 99.5438C227.2 99.5272 227.437 99.7688 227.415 100.057L226.702 100.001L225.989 99.9457C225.944 100.522 226.418 101.005 226.994 100.972L226.953 100.258ZM239.57 101.7L240.267 101.539C239.903 99.9624 238.456 98.8778 236.841 98.971L236.882 99.6849L236.923 100.399C237.843 100.346 238.666 100.963 238.873 101.86L239.57 101.7ZM237.649 104.816L237.818 105.511C239.584 105.08 240.676 103.31 240.267 101.539L239.57 101.7L238.873 101.86C239.106 102.868 238.485 103.876 237.48 104.121L237.649 104.816Z" fill="black"/>
<path d="M227.157 102.896L219.648 105.876" stroke="black" stroke-width="1.43024" stroke-linecap="square"/>
<circle cx="220.006" cy="76.4361" r="5.72095" stroke="black" stroke-width="1.43024"/>
<path d="M26.7234 17.0674H22.2624C22.1175 17.0674 22 17.1849 22 17.3298V49.7376C22 49.8825 22.1175 50 22.2624 50H56.6383C56.7832 50 56.9007 49.8825 56.9007 49.7376V17.3298C56.9007 17.1849 56.7832 17.0674 56.6383 17.0674H52.3085" stroke="black" stroke-width="1.57447" stroke-linecap="round"/>
<rect x="27.1173" y="13.7872" width="2.3617" height="6.56028" rx="1.18085" fill="#D9D9D9" stroke="black" stroke-width="1.57447"/>
<rect x="34.465" y="13.7872" width="2.3617" height="6.56028" rx="1.18085" fill="#D9D9D9" stroke="black" stroke-width="1.57447"/>
<rect x="41.8107" y="13.7872" width="2.3617" height="6.56028" rx="1.18085" fill="#D9D9D9" stroke="black" stroke-width="1.57447"/>
<rect x="49.1603" y="13.7872" width="2.3617" height="6.56028" rx="1.18085" fill="#D9D9D9" stroke="black" stroke-width="1.57447"/>
<path d="M30.2656 17.1992H33.4146" stroke="black" stroke-width="1.57447" stroke-linecap="round"/>
<path d="M37.877 17.1992H41.5507" stroke="black" stroke-width="1.57447" stroke-linecap="round"/>
<path d="M45.2227 17.1992H48.3716" stroke="black" stroke-width="1.57447" stroke-linecap="round"/>
<path d="M23.1797 24.0215H55.9811" stroke="black" stroke-width="1.57447" stroke-linecap="round"/>
<path d="M39.7129 32.6807V37.9289C39.7129 38.0738 39.8304 38.1913 39.9753 38.1913H44.5675" stroke="black" stroke-width="1.57447" stroke-linecap="round"/>
<path d="M34.3575 27.8545L33.6587 30.9666C33.6276 31.1049 33.712 31.2429 33.8493 31.2782L37.2014 32.1407" stroke="black" stroke-width="1.57447" stroke-linecap="round"/>
<path d="M39.5811 27.958C45.1606 27.958 49.6844 32.481 49.6846 38.0605L49.6709 38.5811C49.3999 43.9187 44.9861 48.1641 39.5811 48.1641L39.0615 48.1504C33.7237 47.8797 29.4788 43.4656 29.4785 38.0605C29.4786 35.9249 30.1424 33.9442 31.2734 32.3125L32.4297 33.415C31.5597 34.7517 31.0528 36.3469 31.0527 38.0605C31.053 42.7702 34.8714 46.5886 39.5811 46.5889C44.291 46.5889 48.1091 42.7704 48.1094 38.0605C48.1092 33.3506 44.291 29.5322 39.5811 29.5322C37.6816 29.5323 35.9272 30.153 34.5098 31.2031L33.3584 30.1045C35.0738 28.7608 37.2331 27.9581 39.5811 27.958Z" fill="black"/>
</svg>
