<svg width="260" height="178" viewBox="0 0 260 178" fill="none" xmlns="http://www.w3.org/2000/svg">
<path d="M42.5802 162.753V165.117H33.743V162.753H42.5802ZM44.6349 160.698V132.419C44.6349 131.284 43.7149 130.364 42.5802 130.364H33.743C32.6082 130.364 31.6883 131.284 31.6883 132.419V160.698C31.6883 161.833 32.6082 162.753 33.743 162.753V165.117L33.629 165.115C31.2791 165.056 29.3851 163.162 29.3257 160.812L29.3242 160.698V132.419C29.3242 130.016 31.2413 128.062 33.629 128.001L33.743 128H42.5802L42.6945 128.001C45.0821 128.062 46.9989 130.017 46.9989 132.419V160.698L46.9975 160.812C46.938 163.162 45.0442 165.056 42.6945 165.115L42.5802 165.117V162.753C43.7149 162.753 44.6349 161.833 44.6349 160.698Z" fill="black"/>
<path d="M22.2559 148.613V150.977H13.4187V148.613H22.2559ZM24.3106 146.558V132.419C24.3106 131.284 23.3907 130.364 22.2559 130.364H13.4187C12.284 130.364 11.364 131.284 11.364 132.419V146.558C11.364 147.693 12.284 148.613 13.4187 148.613V150.977L13.3048 150.976C10.955 150.916 9.06102 149.022 9.00144 146.673L9 146.558V132.419C9 130.016 10.917 128.062 13.3048 128.001L13.4187 128H22.2559L22.3702 128.001C24.7578 128.062 26.6747 130.017 26.6747 132.419V146.558L26.6732 146.673C26.6137 149.022 24.7199 150.916 22.3702 150.976L22.2559 150.977V148.613C23.3907 148.613 24.3106 147.693 24.3106 146.558Z" fill="black"/>
<path d="M23.1399 162.753V165.117H12.5348V162.753H23.1399ZM24.3107 161.582V156.279C24.3106 155.653 23.8188 155.141 23.2002 155.11L23.1399 155.109H12.5348C11.8883 155.109 11.3641 155.633 11.3641 156.279V161.582C11.3641 162.229 11.8883 162.753 12.5348 162.753V165.117L12.4436 165.116C10.5639 165.068 9.04882 163.553 9.00115 161.673L9 161.582V156.279C9.00007 154.358 10.5336 152.794 12.4436 152.746L12.5348 152.745H23.1399L23.2311 152.746C25.1412 152.794 26.6747 154.358 26.6747 156.279V161.582L26.6736 161.673C26.6259 163.553 25.1109 165.068 23.2311 165.116L23.1399 165.117V162.753C23.7865 162.753 24.3106 162.229 24.3107 161.582Z" fill="black"/>
<path d="M36.6026 75.7231C37.7423 75.636 38.5413 76.6155 38.4884 77.5995L38.4801 77.6979C37.5821 85.7055 35.0046 90.1804 31.8019 92.0646C28.5927 93.9527 25.1443 93.0014 23.2476 90.9778L23.1583 90.8808C21.5094 89.0442 21.0207 87.0382 21.5927 85.0822C22.1286 83.2494 23.5301 81.6946 25.1359 80.4522C28.359 77.9583 33.0846 76.2021 36.4876 75.7356L36.6026 75.7231ZM35.4633 78.8177C32.6677 79.4524 29.246 80.8732 26.8788 82.7048C25.4808 83.7865 24.6187 84.8823 24.3265 85.8815C24.0703 86.7576 24.1889 87.7651 25.2777 88.9779L25.3792 89.0861C26.4561 90.1863 28.428 90.7452 30.3576 89.61C32.2743 88.4824 34.4815 85.4788 35.4633 78.8177Z" fill="black"/>
<path d="M14.8182 76.1732C14.1333 75.8114 13.2793 76.0716 12.9706 76.782C11.2834 80.6645 10.9788 85.0254 12.1351 89.1273C13.4187 93.6808 16.4041 97.5663 20.4733 99.9794C24.5425 102.393 29.3838 103.148 33.995 102.091C38.6061 101.033 42.6339 98.2423 45.2445 94.2968C47.855 90.3513 48.8483 85.5531 48.0188 80.8954C47.1893 76.2378 44.6005 72.0775 40.7884 69.2759C36.9762 66.4743 32.2327 65.2459 27.5399 65.8451C23.3125 66.3848 19.4179 68.3704 16.5042 71.4414C15.9711 72.0033 16.0655 72.891 16.6664 73.38V73.38C17.2672 73.8689 18.1465 73.773 18.6873 73.2183C21.1405 70.7023 24.3823 69.0763 27.8951 68.6277C31.8737 68.1198 35.8952 69.1612 39.1271 71.5364C42.359 73.9115 44.5538 77.4386 45.257 81.3873C45.9603 85.336 45.1181 89.4039 42.905 92.7489C40.6918 96.0938 37.277 98.4596 33.3677 99.3564C29.4585 100.253 25.354 99.6123 21.9042 97.5665C18.4543 95.5207 15.9233 92.2266 14.8351 88.3662C13.8743 84.9577 14.1033 81.3382 15.4597 78.0964C15.7587 77.3818 15.5032 76.5351 14.8182 76.1732V76.1732Z" fill="black"/>
<path d="M140.584 161.31H146.659V147.619H140.584V161.31ZM149.16 162.874L149.159 162.922C149.135 163.401 148.75 163.786 148.27 163.81L148.222 163.812H139.02L138.972 163.81C138.492 163.786 138.108 163.402 138.083 162.922L138.082 162.874V146.055C138.082 145.553 138.476 145.143 138.972 145.118L139.02 145.117H148.222L148.27 145.118C148.766 145.143 149.16 145.553 149.16 146.055V162.874Z" fill="black"/>
<path d="M126.037 161.31H132.112V154.543H126.037V161.31ZM134.613 162.874L134.612 162.922C134.588 163.402 134.203 163.786 133.724 163.81L133.675 163.812H124.473L124.425 163.81C123.945 163.786 123.561 163.402 123.536 162.922L123.535 162.874V152.979C123.535 152.477 123.929 152.067 124.425 152.042L124.473 152.041H133.675L133.724 152.042C134.219 152.067 134.613 152.477 134.613 152.979V162.874Z" fill="black"/>
<path d="M111.502 161.31H117.577V158.005H111.502V161.31ZM120.078 162.874L120.077 162.922C120.053 163.402 119.668 163.786 119.188 163.811L119.14 163.812H109.938L109.89 163.811C109.41 163.786 109.026 163.402 109.001 162.922L109 162.874V156.441C109 155.939 109.394 155.529 109.89 155.504L109.938 155.503H119.14L119.188 155.504C119.684 155.529 120.078 155.939 120.078 156.441V162.874Z" fill="black"/>
<path d="M147.809 123.787C149.035 123.787 150.013 124.79 149.998 126.001L149.993 126.118L149.155 138.977C149.032 140.855 146.754 141.713 145.423 140.383L142.564 137.524C133.2 146.277 120.9 148.712 113.095 148.139L112.724 148.109C112.22 148.065 111.738 147.864 111.376 147.485C111.019 147.11 110.849 146.63 110.848 146.16C110.846 145.204 111.518 144.377 112.5 144.12L112.93 144.006C117.385 142.797 122.15 140.845 126.333 138.529C130.533 136.204 134.041 133.57 136.083 131.043L132.564 127.524C131.185 126.145 132.162 123.787 134.112 123.787H147.809ZM138.066 129.488L138.133 129.558C138.786 130.272 138.921 131.38 138.327 132.232L138.265 132.316C135.954 135.314 132.011 138.245 127.545 140.718C123.937 142.715 119.913 144.453 115.985 145.709C123.244 145.558 133.277 142.889 141.044 135.519L141.126 135.446C141.952 134.736 143.206 134.713 144.044 135.471L144.127 135.549L146.703 138.125L147.475 126.289H134.867L138.066 129.488Z" fill="black"/>
<path d="M127.21 80.4263V82.6858H117.476V80.4263H127.21ZM128.426 79.2097V69.4762C128.426 68.8043 127.882 68.2596 127.21 68.2595H117.476C116.804 68.2595 116.26 68.8042 116.26 69.4762V79.2097C116.26 79.8816 116.804 80.4263 117.476 80.4263V82.6858L117.387 82.6847C115.538 82.6379 114.048 81.1479 114.001 79.2993L114 79.2097V69.4762C114 67.5863 115.508 66.0487 117.387 66.0011L117.476 66H127.21L127.299 66.0011C129.178 66.0487 130.686 67.5863 130.686 69.4762V79.2097L130.685 79.2993C130.638 81.1479 129.148 82.6379 127.299 82.6847L127.21 82.6858V80.4263C127.882 80.4263 128.426 79.8815 128.426 79.2097Z" fill="black"/>
<path d="M127.21 99.893V102.153H117.476V99.893H127.21ZM128.426 98.6763V88.9429C128.426 88.2709 127.882 87.7263 127.21 87.7262H117.476C116.804 87.7262 116.26 88.2709 116.26 88.9429V98.6763C116.26 99.3482 116.804 99.893 117.476 99.893V102.153L117.387 102.151C115.538 102.105 114.048 100.615 114.001 98.766L114 98.6763V88.9429C114 87.053 115.508 85.5153 117.387 85.4678L117.476 85.4667H127.21L127.299 85.4678C129.178 85.5154 130.686 87.053 130.686 88.9429V98.6763L130.685 98.766C130.638 100.615 129.148 102.105 127.299 102.151L127.21 102.153V99.893C127.882 99.8929 128.426 99.3482 128.426 98.6763Z" fill="black"/>
<path d="M146.674 80.4263V82.6858H136.941V80.4263H146.674ZM147.891 79.2097V69.4762C147.891 68.8043 147.346 68.2596 146.674 68.2595H136.941C136.269 68.2595 135.724 68.8042 135.724 69.4762V79.2097C135.724 79.8816 136.269 80.4263 136.941 80.4263V82.6858L136.851 82.6847C135.003 82.6379 133.513 81.1479 133.466 79.2993L133.465 79.2097V69.4762C133.465 67.5863 134.973 66.0487 136.851 66.0011L136.941 66H146.674L146.764 66.0011C148.643 66.0487 150.151 67.5863 150.151 69.4762V79.2097L150.15 79.2993C150.103 81.1479 148.613 82.6379 146.764 82.6847L146.674 82.6858V80.4263C147.346 80.4263 147.891 79.8815 147.891 79.2097Z" fill="black"/>
<path d="M132.359 98.8574V90.1961C132.359 89.5721 132.865 89.0663 133.489 89.0663C134.113 89.0663 134.619 89.5721 134.619 90.1961V98.8574C134.619 99.9902 134.915 100.347 135.072 100.475C135.278 100.642 135.636 100.74 136.277 100.74H146.385C147.759 100.74 148.24 100.403 148.423 100.19C148.633 99.9479 148.741 99.5509 148.741 98.8574V90.1961C148.741 88.6823 148.354 88.0009 148.009 87.6783C147.652 87.3442 147.117 87.1832 146.385 87.1832H136.277C135.654 87.1832 135.148 86.6774 135.148 86.0535C135.148 85.4295 135.654 84.9237 136.277 84.9237H146.385C147.396 84.9237 148.604 85.1395 149.554 86.0292C150.516 86.9306 151.001 88.3206 151.001 90.1961V98.8574C151.001 99.6704 150.9 100.78 150.133 101.667C149.341 102.584 148.079 103 146.385 103H136.277C135.525 103 134.489 102.911 133.649 102.23C132.761 101.51 132.359 100.361 132.359 98.8574Z" fill="black"/>
<path d="M248.813 11.1266C248.813 10.6086 248.393 10.1886 247.875 10.1886H219.111C218.593 10.1886 218.173 10.6086 218.173 11.1266V16.4418H248.813V11.1266ZM251.002 18.6304H215.984V11.1266C215.984 9.45378 217.298 8.0877 218.95 8.00401L219.111 8H247.875L248.036 8.00401C249.688 8.0877 251.002 9.45378 251.002 11.1266V18.6304Z" fill="black"/>
<path d="M215.984 40.5163V20.5063H225.989V43.6429H219.111V41.4543H223.801V22.6949H218.173V40.5163C218.173 41.0344 218.593 41.4543 219.111 41.4543V43.6429L218.95 43.6389C217.351 43.5579 216.069 42.2761 215.988 40.6774L215.984 40.5163Z" fill="black"/>
<path d="M248.811 40.5163V22.6949H230.677V41.4543H247.873V43.6429H228.488V20.5063H251V40.5163L250.995 40.6774C250.914 42.276 249.633 43.5579 248.034 43.6389L247.873 43.6429V41.4543C248.391 41.4543 248.811 41.0343 248.811 40.5163Z" fill="black"/>
<path d="M246.148 94.6548V96.962H220.768V94.6548H246.148ZM249.609 91.1939V71.7682C249.609 69.8568 248.06 68.3073 246.148 68.3073H220.768C218.857 68.3073 217.307 69.8568 217.307 71.7682V91.1939C217.307 93.1053 218.857 94.6548 220.768 94.6548V96.962L220.619 96.9604C217.552 96.8826 215.08 94.4102 215.002 91.3428L215 91.1939V71.7682C215 68.6323 217.502 66.081 220.619 66.002L220.768 66H246.148L246.297 66.002C249.414 66.081 251.916 68.6323 251.916 71.7682V91.1939L251.914 91.3428C251.837 94.4102 249.365 96.8826 246.297 96.9604L246.148 96.962V94.6548C248.06 94.6548 249.609 93.1053 249.609 91.1939Z" fill="black"/>
<path d="M243.97 73.5041C244.41 73.0809 245.109 73.0727 245.559 73.4954C246.023 73.9316 246.046 74.6615 245.61 75.1258L235.661 85.7164L230.277 81.5283L221.172 90.6329L221.129 90.6737C220.676 91.0829 219.977 91.0693 219.541 90.6329C219.09 90.1824 219.09 89.4518 219.541 89.0013L230.086 78.4566L235.418 82.6048L243.928 73.5463L243.97 73.5041Z" fill="black"/>
<path d="M235.892 96.4425C236.009 95.8435 236.576 95.4348 237.187 95.5221C237.798 95.6095 238.229 96.1606 238.173 96.7684L238.166 96.8273C237.818 99.2611 239.373 100.847 240.32 101.465H241.787L241.847 101.466C242.456 101.497 242.941 102.001 242.941 102.619C242.941 103.236 242.456 103.74 241.847 103.771L241.787 103.772H224.818C224.181 103.772 223.664 103.256 223.664 102.619C223.664 101.981 224.181 101.465 224.818 101.465H226.084C226.889 101.107 227.468 100.373 227.862 99.4331C228.284 98.4274 228.428 97.3331 228.428 96.6642C228.428 96.0271 228.944 95.5106 229.581 95.5106C230.218 95.5106 230.735 96.0271 230.735 96.6642C230.735 97.5831 230.55 98.9894 229.99 100.326C229.83 100.706 229.635 101.092 229.397 101.465H237.073C236.216 100.259 235.582 98.6003 235.882 96.5011L235.892 96.4425Z" fill="black"/>
<path d="M18.0234 37.3714V33.5255C18.0234 32.833 18.5848 32.2716 19.2773 32.2716C19.9698 32.2716 20.5312 32.833 20.5312 33.5255V37.3714C20.5312 38.0639 19.9698 38.6253 19.2773 38.6253C18.5848 38.6253 18.0234 38.0639 18.0234 37.3714ZM18.0234 27.2319V13.5957C18.0234 12.9032 18.5848 12.3418 19.2773 12.3418C19.9698 12.3418 20.5312 12.9032 20.5312 13.5957V27.2319L20.5297 27.2964C20.4961 27.9589 19.9482 28.4858 19.2773 28.4858C18.6065 28.4858 18.0586 27.9589 18.025 27.2964L18.0234 27.2319Z" fill="black"/>
<path d="M42.0071 41.1574V43.6652H16.1335V41.1574H42.0071ZM46.4922 36.6723V14.295C46.4922 11.818 44.4842 9.80992 42.0071 9.80992H16.1335C13.6565 9.80993 11.6484 11.818 11.6484 14.295V36.6723C11.6484 39.1494 13.6565 41.1574 16.1335 41.1574V43.6652L15.9529 43.6628C12.2342 43.5685 9.23691 40.5713 9.14277 36.8526L9.14062 36.6723V14.295C9.14063 10.4933 12.1743 7.40007 15.9529 7.30427L16.1335 7.30212H42.0071L42.1877 7.30427C45.9664 7.4 49 10.4933 49 14.295V36.6723L48.9979 36.8526C48.9037 40.5714 45.9065 43.5685 42.1877 43.6628L42.0071 43.6652V41.1574C44.4842 41.1574 46.4922 39.1494 46.4922 36.6723Z" fill="black"/>
<path d="M20.3015 30.3792C20.3015 29.8332 19.859 29.3905 19.313 29.3904C18.767 29.3904 18.3242 29.8332 18.3242 30.3792C18.3243 30.9251 18.767 31.3677 19.313 31.3677V33.8755L19.133 33.8709C17.3451 33.7803 15.9116 32.3468 15.821 30.5589L15.8164 30.3792C15.8164 28.4481 17.382 26.8826 19.313 26.8826L19.4927 26.8872C21.3402 26.9808 22.8093 28.5084 22.8093 30.3792L22.8047 30.5589C22.7111 32.4063 21.1837 33.8754 19.313 33.8755V31.3677C19.8589 31.3676 20.3014 30.9251 20.3015 30.3792Z" fill="black"/>
<path d="M38.7937 28.2808C38.7937 27.7348 38.3511 27.2921 37.8052 27.292C37.2592 27.292 36.8164 27.7348 36.8164 28.2808C36.8165 28.8267 37.2592 29.2693 37.8052 29.2693V31.7771L37.6252 31.7725C35.8373 31.6819 34.4038 30.2484 34.3132 28.4605L34.3086 28.2808C34.3086 26.3497 35.8742 24.7842 37.8052 24.7842L37.9849 24.7888C39.8324 24.8824 41.3015 26.4101 41.3015 28.2808L41.2969 28.4605C41.2033 30.3079 39.6759 31.777 37.8052 31.7771V29.2693C38.3511 29.2692 38.7936 28.8267 38.7937 28.2808Z" fill="black"/>
<path d="M29.7077 21.2879C29.7077 20.7419 29.2652 20.2991 28.7193 20.2991C28.1732 20.2991 27.7305 20.7418 27.7305 21.2879C27.7305 21.8338 28.1733 22.2764 28.7193 22.2764V24.7842L28.5393 24.7796C26.7514 24.689 25.3178 23.2554 25.2272 21.4676L25.2227 21.2879C25.2227 19.3568 26.7882 17.7913 28.7193 17.7913L28.899 17.7959C30.7464 17.8895 32.2156 19.4171 32.2156 21.2879L32.211 21.4676C32.1174 23.315 30.5899 24.7841 28.7193 24.7842V22.2764C29.2652 22.2763 29.7077 21.8338 29.7077 21.2879Z" fill="black"/>
<path d="M27.4648 37.3714V24.4348C27.4648 23.7423 28.0262 23.1809 28.7187 23.1809C29.4113 23.1809 29.9726 23.7423 29.9726 24.4348V37.3714C29.9726 38.0639 29.4113 38.6253 28.7187 38.6253C28.0262 38.6253 27.4648 38.0639 27.4648 37.3714ZM27.4648 18.1411V13.5957C27.4648 12.9032 28.0262 12.3418 28.7187 12.3418C29.4113 12.3418 29.9726 12.9032 29.9726 13.5957V18.1411L29.9711 18.2057C29.9375 18.8682 29.3896 19.395 28.7187 19.395C28.0479 19.395 27.5 18.8682 27.4664 18.2057L27.4648 18.1411Z" fill="black"/>
<path d="M36.5586 37.3714V31.4276C36.5586 30.7351 37.12 30.1737 37.8125 30.1737C38.505 30.1737 39.0664 30.7351 39.0664 31.4276V37.3714C39.0664 38.0639 38.505 38.6253 37.8125 38.6253C37.12 38.6253 36.5586 38.0639 36.5586 37.3714ZM36.5586 25.134V13.5957C36.5586 12.9032 37.12 12.3418 37.8125 12.3418C38.505 12.3418 39.0664 12.9032 39.0664 13.5957V25.134C39.0664 25.8265 38.505 26.3879 37.8125 26.3879C37.12 26.3879 36.5586 25.8265 36.5586 25.134Z" fill="black"/>
<path d="M251.523 140.701C252.752 140.776 253.603 141.994 253.223 143.188L246.882 163.117L246.857 163.191C246.592 163.919 245.913 164.416 245.139 164.447L245.061 164.449H213.038L212.958 164.447C212.157 164.414 211.461 163.882 211.218 163.118L211.195 163.041L205.76 143.111C205.439 141.934 206.287 140.772 207.486 140.701L207.603 140.698H251.402L251.523 140.701ZM213.914 161.392H244.223L249.835 143.755H209.104L213.914 161.392Z" fill="black"/>
<path d="M227.992 157.639V154.268H223.79C222.946 154.268 222.262 153.584 222.262 152.74C222.262 151.895 222.946 151.211 223.79 151.211H227.992V146.843C227.992 145.999 228.676 145.315 229.521 145.315C230.365 145.315 231.049 145.999 231.049 146.843V151.211H235.334L235.412 151.213C236.22 151.254 236.862 151.922 236.862 152.74C236.862 153.557 236.22 154.225 235.412 154.266L235.334 154.268H231.049V157.639C231.049 158.483 230.365 159.168 229.521 159.168C228.676 159.168 227.992 158.483 227.992 157.639Z" fill="black"/>
<path d="M240.939 128L241.065 128.002C242.367 128.05 243.535 128.83 244.074 130.024L248.916 140.746L248.946 140.818C249.241 141.571 248.897 142.431 248.152 142.768C247.406 143.105 246.534 142.794 246.164 142.075L246.13 142.004L241.287 131.282C241.233 131.162 241.122 131.08 240.995 131.061L240.939 131.057H217.23C217.08 131.057 216.943 131.145 216.881 131.282L212.039 142.004C211.692 142.773 210.786 143.115 210.017 142.768C209.248 142.421 208.906 141.515 209.253 140.746L214.095 130.024L214.149 129.91C214.728 128.743 215.92 128 217.23 128H240.939Z" fill="black"/>
<path d="M124.083 14.1392C124.083 13.2171 123.335 12.4695 122.413 12.4695C121.491 12.4695 120.743 13.2171 120.743 14.1392C120.743 15.0614 121.49 15.8092 122.413 15.8093V18.2788L122.306 18.2773C120.105 18.2215 118.33 16.4474 118.275 14.2462L118.273 14.1392C118.273 11.8532 120.127 10 122.413 10L122.52 10.0012C124.756 10.0579 126.552 11.8889 126.552 14.1392L126.551 14.2462C126.494 16.4829 124.663 18.2788 122.413 18.2788V15.8093C123.335 15.8093 124.083 15.0614 124.083 14.1392Z" fill="black"/>
<path d="M134.622 25.4282C134.622 24.506 133.874 23.7584 132.952 23.7584C132.03 23.7585 131.282 24.506 131.282 25.4282C131.282 26.3504 132.03 27.0982 132.952 27.0982V29.5677L132.845 29.5662C130.644 29.5105 128.87 27.7364 128.814 25.5352L128.812 25.4282C128.813 23.1422 130.666 21.289 132.952 21.2889L133.059 21.2901C135.295 21.3469 137.091 23.1779 137.091 25.4282L137.09 25.5352C137.033 27.7718 135.202 29.5677 132.952 29.5677V27.0982C133.874 27.0982 134.622 26.3504 134.622 25.4282Z" fill="black"/>
<path d="M144.399 35.9649C144.399 35.0427 143.651 34.2952 142.729 34.2952C141.807 34.2952 141.059 35.0428 141.059 35.9649C141.059 36.8871 141.807 37.6349 142.729 37.635V40.1044L142.622 40.1029C140.421 40.0472 138.647 38.2731 138.591 36.0719L138.59 35.9649C138.59 33.6789 140.443 31.8257 142.729 31.8257L142.836 31.8269C145.073 31.8836 146.869 33.7146 146.869 35.9649L146.867 36.0719C146.81 38.3086 144.979 40.1044 142.729 40.1044V37.635C143.651 37.635 144.399 36.8871 144.399 35.9649Z" fill="black"/>
<path d="M138.97 34.7302L139.034 34.732C139.686 34.7651 140.205 35.3044 140.205 35.9649C140.205 36.6255 139.686 37.165 139.034 37.1982L138.97 37.1997H116.392C115.71 37.1997 115.158 36.6469 115.158 35.9649C115.158 35.283 115.71 34.7302 116.392 34.7302H138.97ZM152.141 34.7302L152.204 34.732C152.857 34.7651 153.376 35.3043 153.376 35.9649C153.376 36.6255 152.857 37.1651 152.204 37.1982L152.141 37.1997H146.496C145.815 37.1997 145.262 36.6469 145.262 35.9649C145.262 35.283 145.815 34.7302 146.496 34.7302H152.141ZM129.187 23.8176L129.25 23.8191C129.902 23.8522 130.421 24.3918 130.421 25.0524C130.421 25.7129 129.902 26.2522 129.25 26.2853L129.187 26.2871H112.629C111.947 26.2871 111.395 25.7343 111.395 25.0524C111.395 24.3704 111.947 23.8176 112.629 23.8176H129.187ZM148.754 23.8176L148.818 23.8191C149.47 23.8522 149.989 24.3917 149.989 25.0524C149.989 25.713 149.47 26.2523 148.818 26.2853L148.754 26.2871H136.713C136.031 26.2871 135.478 25.7343 135.478 25.0524C135.478 24.3705 136.031 23.8176 136.713 23.8176H148.754ZM118.65 12.9048L118.714 12.9063C119.366 12.9394 119.885 13.479 119.885 14.1395C119.885 14.8001 119.366 15.3396 118.714 15.3728L118.65 15.3743H112.629C111.947 15.3743 111.395 14.8215 111.395 14.1395C111.395 13.4576 111.947 12.9048 112.629 12.9048H118.65ZM152.141 12.9048L152.204 12.9063C152.857 12.9394 153.376 13.4789 153.376 14.1395C153.376 14.8002 152.857 15.3397 152.204 15.3728L152.141 15.3743H126.176C125.494 15.3743 124.941 14.8215 124.941 14.1395C124.941 13.4576 125.494 12.9048 126.176 12.9048H152.141Z" fill="black"/>
<path d="M153.376 24.9712C153.376 25.7384 152.754 26.3603 151.987 26.3603C151.22 26.3603 150.598 25.7384 150.598 24.9712C150.598 24.2041 151.22 23.5822 151.987 23.5822C152.754 23.5822 153.376 24.2041 153.376 24.9712Z" fill="black"/>
<path d="M114.481 36.0839C114.481 36.8511 113.859 37.473 113.092 37.473C112.325 37.473 111.703 36.8511 111.703 36.0839C111.703 35.3167 112.325 34.6948 113.092 34.6948C113.859 34.6948 114.481 35.3167 114.481 36.0839Z" fill="black"/>
</svg>
