<svg width="260" height="178" viewBox="0 0 260 178" fill="none" xmlns="http://www.w3.org/2000/svg">
<rect width="260" height="178" fill="white"/>
<path d="M33.1979 20.2883C33.4979 20.2884 33.8138 20.3776 34.0858 20.5771L34.1396 20.6183L34.316 20.7672C34.7395 21.1408 35.2339 21.6944 35.538 22.3646C35.9067 23.1769 36.0266 24.2744 35.244 25.2764C35.04 25.5376 34.7666 25.7065 34.4819 25.7872C32.6138 26.3166 28.0879 27.0509 23.263 26.233C22.1838 26.8532 20.6772 27.8794 19.3173 29.1408C18.0731 30.2948 17.0429 31.5621 16.5101 32.8203L28.3698 36.2581L42.0986 36.6342C42.7281 36.6514 43.2246 37.1758 43.2074 37.8054C43.1901 38.4349 42.6658 38.9314 42.0362 38.9142L28.2102 38.5352C28.081 38.5316 27.9527 38.5118 27.8286 38.4758L15.0962 34.7851C14.3553 34.5703 13.8346 33.7935 14.0549 32.961L14.1102 32.7631C14.7122 30.7269 16.2228 28.9001 17.7663 27.4684C19.3823 25.9696 21.1685 24.7815 22.3936 24.1052L22.4544 24.0733C22.7185 23.9427 23.0029 23.8985 23.2734 23.9252L23.3973 23.9422L23.8202 24.0146C27.9142 24.6746 31.769 24.1202 33.5405 23.6772C33.5423 23.665 33.5441 23.6537 33.5446 23.643C33.5478 23.5731 33.5317 23.4628 33.4611 23.3071C33.3445 23.0503 33.1306 22.7846 32.9057 22.5691H23.8213C23.1915 22.5691 22.6809 22.0585 22.6809 21.4287C22.6809 20.7989 23.1915 20.2883 23.8213 20.2883H33.1979Z" fill="black"/>
<path d="M42.3359 12.7261C42.9245 12.5657 43.5311 12.8969 43.7191 13.47L43.7362 13.5264L43.8011 13.7714C44.4689 16.3529 44.9761 20.4382 44.4396 24.732C43.8854 29.1679 42.2001 33.9409 38.296 37.4555C38.221 37.523 38.1362 37.5862 38.041 37.6411C36.8029 38.355 34.767 39.1132 32.8933 38.6334C31.9023 38.3796 30.9964 37.7859 30.3486 36.7547C29.7187 35.752 29.3772 34.4086 29.3325 32.7043C29.3305 32.6271 29.3343 32.5433 29.3467 32.4552L29.406 32.0621C29.564 31.0885 29.8548 29.7401 30.2877 28.4049C30.7683 26.9224 31.482 25.2683 32.5165 24.2339C32.9618 23.7885 33.6837 23.7885 34.1291 24.2339C34.5744 24.6792 34.5744 25.4011 34.1291 25.8464C33.4999 26.4756 32.9196 27.6826 32.4575 29.1079C32.0203 30.4564 31.7412 31.8332 31.6148 32.7073C31.6595 34.1264 31.9445 35.0074 32.28 35.5415C32.6025 36.0549 33.007 36.3082 33.459 36.4239C34.4494 36.6775 35.7921 36.287 36.833 35.703C40.1522 32.68 41.6671 28.5251 42.1763 24.4495C42.6892 20.3447 42.1652 16.435 41.5356 14.1263C41.37 13.5187 41.7284 12.8918 42.3359 12.7261Z" fill="black"/>
<path d="M50.4303 15.4028C50.4303 16.1386 49.8903 16.812 49.101 16.904C48.1603 17.0137 46.8115 17.0302 45.4927 16.7336C44.1892 16.4404 42.7398 15.7985 41.8685 14.4432L43.787 13.2096C44.198 13.849 44.9709 14.2786 45.9931 14.5085C46.7239 14.6729 47.4936 14.713 48.1495 14.6893V11.7834C47.5281 11.4784 46.8228 11.5013 46.054 11.7638C45.151 12.0721 44.3042 12.6721 43.7643 13.1766C43.7719 13.1875 43.7797 13.1984 43.787 13.2096L41.8685 14.4432C41.7085 14.1943 41.6586 13.9066 41.7045 13.6362H36.1755C35.5457 13.6362 35.0352 13.1256 35.0352 12.4958C35.0352 11.866 35.5458 11.3554 36.1755 11.3554H42.3782C43.0874 10.7282 44.1297 10.0105 45.3172 9.60512C46.654 9.14874 48.316 9.05091 49.8107 10.1293C50.2234 10.427 50.4303 10.8941 50.4303 11.348V15.4028Z" fill="black"/>
<path d="M42.6859 14.6498C42.8555 14.0638 43.4543 13.7184 44.0416 13.8565L44.0984 13.8714L44.2394 13.9144C47.1862 14.8539 52.0216 19.0516 52.3231 28.5497L52.3342 29.0134L52.3335 29.072C52.3125 29.675 51.8221 30.1622 51.212 30.1719C50.602 30.1816 50.0962 29.7103 50.056 29.1084L50.0534 29.0497L50.0434 28.6239C49.7734 20.0519 45.5541 16.7937 43.6444 16.1202L43.4643 16.0623L43.4083 16.0445C42.838 15.8476 42.5163 15.2359 42.6859 14.6498Z" fill="black"/>
<path d="M48.3949 29.0809C51.7705 28.0104 54.4129 28.4124 56.3642 29.5542C58.2794 30.6749 59.3926 32.4279 59.9037 33.8414C60.3068 34.9563 59.3574 35.8987 58.3844 35.8363C54.3904 35.5803 52.018 35.6359 50.4529 36.1415C49.7103 36.3814 49.1709 36.7182 48.729 37.172C48.2757 37.6374 47.8793 38.2731 47.4932 39.1739C47.1247 40.0337 46.6994 40.7076 46.1869 41.1596C45.6409 41.641 44.9859 41.8721 44.2996 41.7684C43.6692 41.6731 43.1804 41.3199 42.8459 40.9888C42.5028 40.6493 42.236 40.249 42.0478 39.8904C41.9464 39.6972 41.8947 39.4946 41.8807 39.3024C41.4149 32.878 45.9818 29.8118 48.3949 29.0805V29.0809ZM55.2123 31.5224C53.8958 30.7521 51.9327 30.3485 49.0716 31.2588L49.0642 31.2611L49.0564 31.2633C47.3259 31.7877 43.8705 34.0571 44.1452 38.9683C44.2379 39.1218 44.3437 39.2622 44.4503 39.3677C44.5274 39.4441 44.5834 39.4811 44.6151 39.4988C44.6304 39.4884 44.6513 39.4728 44.6782 39.449C44.834 39.3117 45.0939 38.9818 45.3965 38.2756C45.8473 37.2239 46.3791 36.316 47.0949 35.5809C47.822 34.8343 48.693 34.3131 49.752 33.9709C51.5537 33.389 53.9479 33.3178 57.202 33.4835C56.7496 32.7595 56.0958 32.0394 55.2123 31.5224Z" fill="black"/>
<path d="M23.0647 23.8995C23.6945 23.8995 24.2051 24.4101 24.2051 25.0399C24.2051 25.6697 23.6945 26.1803 23.0647 26.1803H10.1404C9.51057 26.1803 9 25.6697 9 25.0399C9 24.4101 9.51057 23.8995 10.1404 23.8995H23.0647Z" fill="black"/>
<path d="M23.8265 24.8501C23.8265 25.4799 23.316 25.9905 22.6862 25.9905C22.0564 25.9905 21.5458 25.4799 21.5458 24.8501V15.537H12.6128V24.8501C12.6128 25.4799 12.1022 25.9905 11.4724 25.9905C10.8426 25.9905 10.332 25.4799 10.332 24.8501V14.7767C10.332 13.937 11.0128 13.2562 11.8525 13.2562H22.306C23.1458 13.2562 23.8265 13.937 23.8265 14.7767V24.8501Z" fill="black"/>
<path d="M24.1982 38.7246C24.1982 37.9898 23.6026 37.3942 22.8678 37.3942C22.133 37.3942 21.5374 37.9898 21.5374 38.7246C21.5374 39.4594 22.133 40.0551 22.8678 40.0551V41.9557C21.0833 41.9557 19.6367 40.5091 19.6367 38.7246C19.6367 36.9401 21.0833 35.4935 22.8678 35.4935C24.6523 35.4935 26.0989 36.9401 26.0989 38.7246C26.0989 40.5091 24.6523 41.9557 22.8678 41.9557V40.0551C23.6026 40.0551 24.1982 39.4594 24.1982 38.7246Z" fill="black"/>
<path d="M53.0967 39.1047C53.0967 38.37 52.501 37.7743 51.7662 37.7743C51.0315 37.7743 50.4358 38.37 50.4358 39.1047C50.4358 39.8395 51.0315 40.4352 51.7662 40.4352V42.3358C49.9818 42.3358 48.5352 40.8892 48.5352 39.1047C48.5352 37.3203 49.9818 35.8737 51.7662 35.8737C53.5507 35.8737 54.9973 37.3203 54.9973 39.1047C54.9973 40.8892 53.5507 42.3358 51.7662 42.3358V40.4352C52.501 40.4352 53.0967 39.8395 53.0967 39.1047Z" fill="black"/>
<path d="M20.0417 35.1961C18.8794 36.0228 18.1206 37.3799 18.1206 38.9149C18.1206 41.4342 20.1629 43.4765 22.6821 43.4765C25.2014 43.4765 27.2437 41.4342 27.2437 38.9149C27.2437 38.2436 27.0972 37.6068 26.8368 37.0329L29.422 37.7315C29.489 38.1159 29.5244 38.5113 29.5244 38.9149C29.5244 42.6938 26.461 45.7572 22.6821 45.7572C18.9032 45.7572 15.8398 42.6938 15.8398 38.9149C15.8398 37.2312 16.4482 35.6898 17.4569 34.4978L20.0417 35.1961Z" fill="black"/>
<path d="M50.8379 34.4912C52.5804 33.9918 54.7469 34.0949 57.3888 35.2864L57.8488 35.4939L57.7482 35.2726C58.4126 36.3273 58.7972 37.576 58.7972 38.9146C58.7972 42.6935 55.7338 45.7569 51.9549 45.7569C48.6315 45.7569 45.8617 43.3875 45.2422 40.2458C45.7816 38.6839 46.9221 36.7319 48.7506 35.479C49.1547 35.2021 49.5939 34.9593 50.0688 34.7615C48.4909 35.4792 47.3934 37.0682 47.3934 38.9146C47.3934 41.4339 49.4357 43.4762 51.9549 43.4762C54.4742 43.4762 56.5164 41.4339 56.5164 38.9146C56.5164 36.3954 54.4742 34.3531 51.9549 34.3531C51.5695 34.3531 51.1954 34.4012 50.8379 34.4912Z" fill="black"/>
<path d="M131.22 2.0009V2.00063C134.07 2.00063 136.064 3.37999 137.367 5.0611C138.651 6.71806 139.284 8.6871 139.481 10.0159L139.619 10.9485H123.008L123.089 10.0614C123.38 6.85491 124.771 4.79781 126.451 3.56476C128.093 2.35943 129.96 1.97885 131.22 2.0009ZM131.203 3.62725C130.248 3.60778 128.735 3.9068 127.413 4.87654C126.267 5.71757 125.223 7.0935 124.827 9.3216H137.673C137.399 8.31236 136.89 7.10124 136.081 6.05751C135.02 4.68824 133.467 3.62751 131.22 3.62751H131.211L131.203 3.62725Z" fill="black"/>
<path d="M127.112 12.4398H135.449L137.239 10.2921L137.864 10.8129H139.084V13.2034C139.25 13.2843 139.402 13.3855 139.536 13.5087C139.84 13.7887 140 14.1325 140.065 14.4657C140.188 15.0897 139.99 15.7005 139.812 16.0574C139.687 16.3061 139.499 16.4955 139.338 16.6301C139.17 16.7705 138.983 16.8902 138.809 16.9886C138.65 17.0778 138.488 17.1567 138.335 17.2243C138.09 18.8366 137.64 19.9477 137.358 20.4209C136.52 22.131 135.025 23.0174 133.579 23.4366C132.135 23.8553 130.669 23.8332 129.735 23.6818L129.728 23.6807L129.721 23.6797C127.358 23.2555 125.886 21.9848 125.037 20.5514C124.341 19.3758 124.073 18.1084 124.035 17.1314C123.542 16.8168 123.158 16.4071 122.993 16.2017L122.94 16.1344L122.901 16.0574C122.517 15.2881 122.564 14.5699 122.889 14.0021C123.052 13.7157 123.271 13.4935 123.493 13.3287V10.8129H124.578L125.186 10.2725L127.112 12.4398ZM136.211 14.0667H126.381L125.12 12.6474V14.3463L124.609 14.5507C124.507 14.5915 124.369 14.6911 124.301 14.8091C124.273 14.8581 124.257 14.9104 124.256 14.9754C124.255 15.0314 124.266 15.1219 124.321 15.2521C124.39 15.33 124.498 15.4395 124.629 15.5508C124.808 15.7023 124.992 15.8237 125.151 15.8874L125.691 16.1034L125.661 16.6841C125.623 17.4317 125.794 18.6371 126.437 19.7224C127.061 20.7761 128.141 21.7418 130.006 22.0774C130.745 22.1956 131.957 22.2129 133.126 21.8741C134.289 21.537 135.336 20.8733 135.911 19.6789L135.93 19.6387L135.954 19.6008C136.1 19.3673 136.578 18.307 136.785 16.5475L136.845 16.0343L137.336 15.871C137.499 15.8164 137.769 15.7073 138.01 15.5712C138.13 15.5036 138.227 15.4384 138.295 15.3814C138.335 15.348 138.355 15.3267 138.361 15.3186C138.398 15.2425 138.436 15.1417 138.457 15.0358C138.48 14.9227 138.48 14.8354 138.469 14.7792C138.46 14.733 138.447 14.7176 138.434 14.7061C138.418 14.6911 138.345 14.6325 138.137 14.5978L137.457 14.4845V12.5716L136.211 14.0667Z" fill="black"/>
<path d="M140.81 23.6924L143.561 29.1945V46.4687H119.293V28.7931L121.766 23.6924H140.81ZM120.92 29.1662V44.8418H141.934V29.5787L139.804 25.3193H122.785L120.92 29.1662Z" fill="black"/>
<path d="M142.474 28.3019V29.9288H126.477V28.3019H142.474Z" fill="black"/>
<path d="M132.037 24.6414V28.9797H130.41V24.6414H132.037Z" fill="black"/>
<path d="M129.053 29.3865V32.2335H133.662V29.3865H135.289V33.8604H127.426V29.3865H129.053Z" fill="black"/>
<path d="M123.22 28.4375V30.0644H120.102V28.4375H123.22Z" fill="black"/>
<path d="M124.037 33.5892V40.5035H122.41V33.5892H124.037Z" fill="black"/>
<path d="M124.037 31.1489V32.6402H122.41V31.1489H124.037Z" fill="black"/>
<path d="M135.017 45.3841H133.391V42.5672L133.037 42.877L132.26 41.9706L131.311 42.9199L130.544 42.0241L129.813 42.877L129.459 42.5672V45.3841H127.832V38.9819L129.647 40.5704L130.544 39.5248L131.403 40.5275L132.352 39.5782L133.202 40.5704L135.017 38.9819V45.3841Z" fill="black"/>
<path d="M121.404 27.0531C120.519 27.2945 119.05 27.9516 117.818 29.1191C116.602 30.2704 115.631 31.8979 115.631 34.1318V45.5452L115.629 45.5706C115.613 45.8246 115.663 46.1976 115.82 46.474C115.946 46.6957 116.141 46.8755 116.58 46.8755H145.864C146.095 46.8755 146.46 46.7995 146.744 46.5951C146.987 46.4205 147.219 46.1223 147.219 45.5197V34.1226L147.22 34.1136C147.259 32.3484 146.147 28.3457 141.185 27.0555L141.594 25.4811C147.463 27.0068 148.89 31.8224 148.846 34.1316V45.5197C148.846 46.6525 148.356 47.4391 147.695 47.9153C147.075 48.3616 146.355 48.5023 145.864 48.5024H116.58C115.501 48.5024 114.792 47.959 114.405 47.2769C114.057 46.6645 113.98 45.9718 114.004 45.5028V34.1313C114.004 31.3657 115.226 29.3325 116.699 27.9378C118.155 26.5592 119.872 25.7844 120.975 25.4835L121.404 27.0531Z" fill="black"/>
<path d="M122.002 45.7909V47.5533H120.375V45.7909H122.002Z" fill="black"/>
<path d="M142.338 45.6553V47.5533H140.711V45.6553H142.338Z" fill="black"/>
<path d="M116.94 42.1882C118.117 41.8762 119.353 41.9716 120.144 42.1504L119.786 43.7373C119.177 43.5998 118.216 43.5327 117.357 43.7606C116.527 43.9809 115.867 44.4465 115.592 45.3499L114.035 44.8762C114.519 43.2851 115.735 42.508 116.94 42.1882Z" fill="black"/>
<path d="M142.801 41.8632C146.561 41.4993 148.378 43.6582 148.806 45.0021L147.256 45.4954C147.051 44.8508 145.922 43.1956 142.958 43.4824L142.801 41.8632Z" fill="black"/>
<path d="M120.103 38.7411V40.368H115.223V38.7411H120.103Z" fill="black"/>
<path d="M147.623 38.7411V40.368H142.742V38.7411H147.623Z" fill="black"/>
<path d="M127.967 21.7943V24.3702H126.34V21.7943H127.967Z" fill="black"/>
<path d="M135.967 21.6588V24.3703H134.34V21.6588H135.967Z" fill="black"/>
<path d="M234.617 12.6565V42.7073H223.19V40.1508H232.061V15.213H202V12.6565H234.617Z" fill="black"/>
<path d="M218.744 24.1394V26.6959H208.982V41.7527H206.426V24.1394H218.744Z" fill="black"/>
<path d="M215.705 18.6406V21.1971H205.199V18.6406H215.705Z" fill="black"/>
<path d="M250.999 22.6838V42.5611H248.443V25.2403H233.695V22.6838H250.999Z" fill="black"/>
<path d="M242.631 24.1239V31.5791H249.543V34.1356H240.074V24.1239H242.631Z" fill="black"/>
<path d="M212.859 39.6501H218.914V44.8256H212.859V39.6501Z" fill="black"/>
<path d="M238.504 39.6501H244.558V44.8256H238.504V39.6501Z" fill="black"/>
<path d="M32.9967 70.2374L33.5727 73.273C34.1994 74.0007 35.0365 75.0342 35.6762 75.7244H39.3834C40.3297 75.3515 41.2373 74.4537 41.6879 73.5639L42.7384 69.6738L43.1173 69.776V66.0302C42.9025 65.189 42.2509 64.7376 41.3849 64.4525C40.3625 64.1159 38.1488 63.4769 36.3585 63.8445L34.534 64.385L32.9967 66.2411V70.2374ZM44.8523 69.9321H43.6951L44.4132 70.1261L43.3542 74.0482C43.3316 74.1319 43.3003 74.2191 43.2568 74.3068C42.6348 75.5614 41.3787 76.8352 39.9318 77.3727C39.7651 77.4346 39.5981 77.4594 39.4427 77.4594H35.5455C35.1643 77.4593 34.7848 77.3085 34.5074 77.0152C33.8113 76.2791 32.7985 75.029 32.2117 74.3509C32.0454 74.1588 31.9309 73.9251 31.8827 73.6712L31.2871 70.5345C31.2703 70.4456 31.2617 70.3553 31.2617 70.2648V66.1369C31.2617 65.8001 31.3792 65.4737 31.5941 65.2143L33.2542 63.2106C33.4372 62.9897 33.6818 62.8281 33.9568 62.7466L35.9052 62.1694L35.9383 62.1595L35.9722 62.1525C38.277 61.6649 40.9226 62.4737 41.9274 62.8045C43.0499 63.174 44.4069 63.9429 44.8153 65.6679C44.842 65.7808 44.8523 65.8901 44.8523 65.9903V69.9321Z" fill="black"/>
<path d="M48.6191 69.0737V70.8087H31.5586V69.0737H48.6191Z" fill="black"/>
<path d="M51.5078 80.9293H71.4599V100.881H51.5078V95.7573H53.2428V99.1465H69.725V82.6643H53.2428V88.5955H51.5078V80.9293Z" fill="black"/>
<path d="M45.7892 85.7419L52.7418 84.2173L53.1134 85.9122L45.0401 87.6827L41.3281 82.4595L42.7426 81.4545L45.7892 85.7419Z" fill="black"/>
<path d="M52.6323 86.8374C53.0462 86.7076 53.6323 86.613 54.1668 86.9035L54.2185 86.9328L54.3085 86.9904C54.7431 87.2893 54.9342 87.7398 54.9532 88.1844C54.9713 88.6059 54.8396 89.0167 54.6946 89.3475C54.672 89.3989 54.6477 89.4502 54.6228 89.5017C56.1421 89.4516 57.2226 89.8856 57.9101 90.6174C58.6056 91.3577 58.7796 92.2789 58.7253 92.9247L58.7205 92.9818L58.7081 93.038C58.1697 95.4919 56.4894 96.6905 54.7028 97.1554C52.9808 97.6035 51.1285 97.391 49.9344 97.0679C48.2139 96.6416 47.2993 95.6441 46.9951 94.464C46.7136 93.3724 46.9927 92.2736 47.3102 91.5939L47.3356 91.5433C47.3622 91.4943 47.3919 91.4495 47.4237 91.4089L49.0068 89.3921L49.0401 89.3495L49.0785 89.3116C49.5971 88.7978 50.4385 88.0575 51.2893 87.5069C51.7115 87.2337 52.1767 86.9803 52.6323 86.8374ZM53.1516 88.4927C52.9097 88.5686 52.5947 88.7287 52.2319 88.9635C51.5308 89.4172 50.8024 90.0504 50.3354 90.5089L48.8481 92.404C48.6571 92.8506 48.5339 93.4834 48.675 94.0308C48.7976 94.5063 49.1512 95.0567 50.2436 95.3558L50.3518 95.384L50.3617 95.3866L50.3718 95.3894C51.3728 95.663 52.9142 95.8281 54.2659 95.4764C55.5471 95.143 56.6175 94.3694 56.9994 92.7257C57.0065 92.4717 56.9225 92.1002 56.6456 91.8054C56.3767 91.5192 55.8051 91.1786 54.5842 91.2395L53.1279 91.6004C52.203 91.8294 51.5822 90.7379 52.1709 90.0489L52.3053 89.8874C52.6199 89.4997 52.9343 89.0418 53.1059 88.6506C53.1329 88.5889 53.1534 88.5346 53.1694 88.4876C53.1636 88.4894 53.1576 88.4908 53.1516 88.4927Z" fill="black"/>
<path d="M35.1115 77.5002L31.6539 77.8942C31.1243 78.6208 30.4269 79.62 29.8331 80.5606C29.4916 81.1014 29.1936 81.6087 28.9821 82.0264C28.8763 82.2355 28.799 82.409 28.7493 82.5443C28.7076 82.6578 28.6977 82.7115 28.6957 82.7195L28.6956 82.7133L28.6807 83.0307C28.5614 85.3051 27.7796 97.5421 27.381 103.727L27.3253 104.593L25.5937 104.481L25.6497 103.615C26.0771 96.9845 26.9346 83.5546 26.9615 82.6611C26.9691 82.406 27.0453 82.1513 27.1208 81.9458C27.202 81.7249 27.3109 81.4861 27.4341 81.2427C27.6808 80.7554 28.0115 80.1962 28.3662 79.6345C29.0771 78.5084 29.9214 77.3152 30.4829 76.5583L30.7073 76.256L34.915 75.7763L35.1115 77.5002Z" fill="black"/>
<path d="M41.1032 81.4289C41.1032 81.3629 41.0762 81.2037 40.9728 80.9384C40.8753 80.6882 40.7334 80.4021 40.5647 80.1031C40.2272 79.5049 39.8173 78.9172 39.5476 78.5658L39.0195 77.8776L40.3959 76.8215L40.9239 77.5097C41.2325 77.9118 41.6902 78.5675 42.0755 79.2503C42.2682 79.5918 42.4517 79.9558 42.5891 80.3084C42.7207 80.646 42.8382 81.0428 42.8382 81.4289C42.8382 82.343 42.7418 87.5783 42.5468 90.2458L42.4835 91.111L40.7531 90.9845L40.8163 90.1193C41.0069 87.5119 41.1032 82.3238 41.1032 81.4289Z" fill="black"/>
<path d="M31.4799 81.279C32.1326 80.8715 33.1585 80.4895 34.2414 80.6996C35.4507 80.9342 36.4687 81.8493 37.0525 83.5875L37.1078 83.7583L37.1135 83.777L37.1183 83.7956L38.6392 89.6043H49.1913V91.3392H37.3001L35.4466 84.2604C35.0058 82.8484 34.3623 82.4902 33.911 82.4026C33.3652 82.2968 32.7439 82.5143 32.329 82.796L31.6112 83.2834L30.6367 81.848L31.3543 81.3606L31.4799 81.279Z" fill="black"/>
<path d="M30.5277 87.0499L30.5291 87.0545L30.5305 87.0587L32.1458 92.5652L32.1537 92.5914L32.1596 92.618C32.279 93.146 32.6057 93.9836 33.1742 94.6907C33.7275 95.3787 34.4642 95.8926 35.4347 95.9651L51.4964 95.8129L51.5128 97.5478L35.3816 97.7009L35.3491 97.6986C33.7489 97.5937 32.5918 96.735 31.8222 95.7779C31.0731 94.8463 30.6473 93.7737 30.4746 93.032L28.8682 87.556L27.2891 82.3768L28.9484 81.8707L30.5277 87.0499Z" fill="black"/>
<path d="M41.9166 96.805L40.9929 104.735L39.2695 104.534L40.1932 96.6042L41.9166 96.805Z" fill="black"/>
<path d="M57.8672 82.2407H59.6022V87.4456H63.0721V82.2407H64.8071V89.1806H57.8672V82.2407Z" fill="black"/>
<path d="M24.0394 66.7604V68.4953H11.6055V66.7604H24.0394Z" fill="black"/>
<path d="M27.5031 73.7002V75.4352H18.5391V73.7002H27.5031Z" fill="black"/>
<path d="M21.4315 80.6404L21.4315 82.3753L16.2266 82.3753L16.2266 80.6404L21.4315 80.6404Z" fill="black"/>
<path d="M22.5906 93.9415L22.5906 95.6765L9 95.6765L9 93.9415L22.5906 93.9415Z" fill="black"/>
<path d="M22.2999 100.014L22.2999 101.749L13.3359 101.749L13.3359 100.014L22.2999 100.014Z" fill="black"/>
<path d="M142.827 71.1115C143.803 71.1115 145.328 71.3203 146.874 71.9312C148.413 72.539 150.056 73.5792 151.159 75.2976C152.398 76.9493 154.923 81.3006 155.551 86.1545C155.822 87.551 156.158 91.1833 155.554 95.5136L155.503 95.8785L155.242 96.139C154.512 96.8689 152.664 97.7631 150.067 97.3115L150.444 95.1454C151.971 95.411 152.98 95.029 153.435 94.7637C153.929 90.8265 153.602 87.6139 153.387 86.5398L153.379 86.5019L153.375 86.4632C152.812 82.0551 150.459 78.0146 149.379 76.5878L149.351 76.5513L149.327 76.5127C148.548 75.2833 147.337 74.4773 146.067 73.9756C144.792 73.4723 143.544 73.3097 142.827 73.3097C140.74 73.3097 139.425 73.5177 138.572 73.7026C138.107 73.8035 137.845 73.8802 137.508 73.9595C137.261 74.0177 136.844 74.1153 136.422 74.031L136.853 71.8757C136.74 71.8533 136.71 71.8892 137.004 71.8199C137.209 71.7715 137.644 71.6543 138.107 71.554C139.111 71.3365 140.581 71.1115 142.827 71.1115Z" fill="black"/>
<path d="M143.415 73.1175L142.506 79.132C142.238 80.9051 143.611 82.5013 145.404 82.5013H153.594V84.6996H145.404C142.266 84.6996 139.863 81.9065 140.332 78.8035L141.241 72.7891L143.415 73.1175Z" fill="black"/>
<path d="M134.546 89.0479C134.546 87.599 134.899 84.3956 135.345 81.0265C135.795 77.6262 136.355 73.9564 136.792 71.521C136.932 70.7391 136.833 70.2013 136.656 69.824C136.478 69.4427 136.178 69.1334 135.768 68.8848C134.912 68.3649 133.711 68.1965 132.844 68.2326L132.76 68.2362L132.677 68.2269C130.988 68.0392 126.928 68.0754 122.44 68.2083C117.992 68.34 113.228 68.5623 110.202 68.727L110.145 68.7288C109.564 68.731 109.077 68.2766 109.045 67.6895C109.012 67.0833 109.476 66.565 110.082 66.532L111.3 66.4676C114.313 66.3122 118.463 66.1269 122.375 66.011C126.742 65.8818 130.917 65.8362 132.835 66.0343C133.948 66.0005 135.583 66.2005 136.909 67.0057C137.608 67.4298 138.249 68.0402 138.648 68.8927C139.048 69.7493 139.162 70.76 138.956 71.9093C138.526 74.3022 137.972 77.937 137.525 81.3149C137.073 84.724 136.745 87.773 136.745 89.0479C136.745 90.4642 136.58 91.6319 136.509 92.5521C136.457 93.226 136.446 93.8414 136.542 94.5103H139.112V96.7085H134.798L134.582 95.8888C134.23 94.5505 134.235 93.4567 134.318 92.3835C134.402 91.292 134.546 90.3551 134.546 89.0479Z" fill="black"/>
<path d="M122.397 74.4539V76.6521H108.779C108.172 76.6521 107.68 76.16 107.68 75.553C107.68 74.946 108.172 74.4539 108.779 74.4539H122.397Z" fill="black"/>
<path d="M124.626 81.387V83.5852H110.884C110.277 83.5852 109.785 83.0931 109.785 82.4861C109.785 81.8791 110.277 81.387 110.884 81.387H124.626Z" fill="black"/>
<path d="M117.927 67.2969L117.003 93.5041C116.989 93.9186 117.321 94.2626 117.736 94.2626H120.295V96.4609H117.736C116.077 96.4609 114.748 95.0847 114.807 93.4264L115.73 67.2196L117.927 67.2969Z" fill="black"/>
<path d="M134.819 89.4033L116.496 90.0222L116.422 87.8254L134.745 87.2064L134.819 89.4033Z" fill="black"/>
<path d="M129.854 96.5998C129.854 94.3952 128.067 92.6079 125.862 92.6079C123.657 92.608 121.87 94.3952 121.87 96.5998C121.87 98.8045 123.657 100.592 125.862 100.592V102.79C122.443 102.79 119.672 100.019 119.672 96.5998C119.672 93.1811 122.443 90.4097 125.862 90.4097C129.281 90.4097 132.052 93.1811 132.052 96.5998C132.052 100.019 129.281 102.79 125.862 102.79V100.592C128.067 100.592 129.854 98.8045 129.854 96.5998Z" fill="black"/>
<path d="M148.674 96.5998C148.674 94.3952 146.887 92.6079 144.682 92.6079C142.478 92.608 140.69 94.3952 140.69 96.5998C140.69 98.8045 142.478 100.592 144.682 100.592V102.79C141.264 102.79 138.492 100.019 138.492 96.5998C138.492 93.1811 141.264 90.4097 144.682 90.4097C148.101 90.4097 150.873 93.1811 150.873 96.5998C150.873 100.019 148.101 102.79 144.682 102.79V100.592C146.887 100.592 148.674 98.8045 148.674 96.5998Z" fill="black"/>
<path d="M135.152 94.5101V96.7084H131.438V94.5101H135.152Z" fill="black"/>
<path d="M144.251 106.141C144.483 106.149 144.711 106.149 144.934 106.144L144.951 106.877C144.714 106.883 144.473 106.882 144.227 106.873L144.251 106.141ZM146.396 106.757C146.161 106.791 145.92 106.818 145.676 106.838L145.645 106.473L145.615 106.108C145.845 106.089 146.07 106.063 146.291 106.032L146.396 106.757ZM142.888 106.023C143.119 106.055 143.346 106.08 143.569 106.1L143.505 106.83C143.269 106.809 143.03 106.782 142.787 106.749L142.888 106.023ZM141.541 105.769C141.768 105.822 141.992 105.87 142.212 105.912L142.144 106.272L142.076 106.632C141.845 106.588 141.61 106.538 141.373 106.482L141.541 105.769ZM147.717 106.106L147.816 106.458C147.586 106.522 147.351 106.58 147.11 106.63L146.96 105.913C147.185 105.866 147.405 105.812 147.619 105.752L147.717 106.106ZM140.219 105.397C140.441 105.469 140.66 105.536 140.877 105.597L140.678 106.302C140.452 106.238 140.223 106.169 139.992 106.094L140.106 105.746L140.219 105.397ZM149.188 105.978C148.969 106.072 148.743 106.159 148.51 106.24L148.268 105.549C148.485 105.473 148.696 105.391 148.901 105.304L149.188 105.978ZM139.568 105.172L139.316 105.859C139.203 105.818 139.09 105.775 138.977 105.731L139.242 105.048C139.351 105.091 139.46 105.132 139.568 105.172ZM150.485 105.321C150.28 105.443 150.067 105.56 149.847 105.671L149.682 105.344L149.516 105.018C149.721 104.914 149.92 104.804 150.111 104.691L150.485 105.321ZM151.684 104.499C151.497 104.647 151.301 104.791 151.097 104.931L150.683 104.326C150.874 104.195 151.056 104.061 151.231 103.923L151.684 104.499ZM152.501 103.272L152.764 103.527C152.599 103.696 152.425 103.865 152.24 104.031L151.75 103.487C151.922 103.331 152.085 103.174 152.238 103.016L152.501 103.272ZM153.704 102.41C153.567 102.6 153.417 102.792 153.254 102.986L152.694 102.514C152.845 102.334 152.984 102.156 153.11 101.981L153.704 102.41ZM154.485 101.377C154.407 101.436 154.328 101.493 154.248 101.551C154.204 101.632 154.158 101.714 154.108 101.797L153.479 101.421C153.538 101.323 153.592 101.226 153.642 101.133L153.683 101.056L153.752 101.006C153.85 100.936 153.947 100.865 154.041 100.793L154.485 101.377ZM155.623 100.4C155.445 100.573 155.259 100.742 155.065 100.908L154.589 100.352C154.771 100.196 154.945 100.036 155.113 99.8739L155.623 100.4ZM156.633 99.2875C156.479 99.4817 156.316 99.6722 156.146 99.8592L155.604 99.3666C155.763 99.1913 155.915 99.0128 156.06 98.831L156.633 99.2875ZM157.492 98.0513C157.363 98.2655 157.227 98.4767 157.082 98.6843L156.48 98.2664C156.616 98.072 156.743 97.8742 156.864 97.6735L157.492 98.0513ZM158.182 96.7164C158.082 96.9453 157.974 97.1716 157.859 97.3948L157.533 97.2263L157.208 97.0581C157.316 96.8489 157.417 96.6366 157.512 96.4216L158.182 96.7164ZM158.352 95.2022L158.702 95.3085C158.63 95.5478 158.55 95.7851 158.464 96.0198L157.776 95.7665C157.858 95.5454 157.933 95.3217 158.001 95.0956L158.352 95.2022ZM159.058 93.8551C159.012 94.1006 158.959 94.3443 158.9 94.5861L158.544 94.4992L158.188 94.4126C158.244 94.1835 158.294 93.9521 158.338 93.7188L159.058 93.8551ZM158.9 92.3427L159.264 92.3764C159.241 92.6246 159.213 92.8718 159.179 93.1174L158.453 93.0168C158.486 92.7828 158.513 92.5468 158.535 92.3095L158.9 92.3427ZM159.337 90.8905C159.335 91.1391 159.328 91.3871 159.316 91.634L158.584 91.5985C158.596 91.3618 158.602 91.1235 158.604 90.8844L159.337 90.8905ZM159.294 89.406C159.31 89.6534 159.322 89.9005 159.329 90.147L158.596 90.1688C158.589 89.9312 158.578 89.6926 158.563 89.4536L159.294 89.406ZM159.15 87.9319C159.181 88.1772 159.21 88.4227 159.234 88.6679L158.504 88.7394C158.481 88.502 158.454 88.2641 158.423 88.026L158.786 87.9791L159.15 87.9319ZM158.918 86.4714C158.963 86.7137 159.005 86.9563 159.044 87.1991L158.32 87.3143C158.283 87.0783 158.242 86.8422 158.198 86.6063L158.918 86.4714ZM158.609 85.0273C158.666 85.2666 158.721 85.5067 158.772 85.7472L158.414 85.8241L158.055 85.9007C158.005 85.6662 157.952 85.432 157.896 85.1984L158.609 85.0273ZM158.232 83.6015C158.3 83.8374 158.365 84.0743 158.428 84.3121L157.72 84.4996C157.658 84.2672 157.594 84.0355 157.527 83.8048L158.232 83.6015ZM157.794 82.195C157.871 82.4272 157.947 82.6608 158.02 82.8956L157.32 83.1135C157.248 82.8836 157.174 82.6548 157.098 82.4273L157.794 82.195ZM157.3 80.8072C157.386 81.0359 157.471 81.2666 157.553 81.4988L156.863 81.7442C156.782 81.5164 156.699 81.2901 156.614 81.0655L157.3 80.8072ZM156.757 79.4415C156.851 79.6658 156.943 79.8923 157.034 80.1209L156.353 80.3921C156.264 80.1675 156.173 79.9449 156.081 79.7245L156.757 79.4415ZM156.164 78.0926C156.266 78.3137 156.367 78.5376 156.466 78.7642L155.795 79.059C155.697 78.8363 155.598 78.6161 155.498 78.3989L156.164 78.0926ZM155.527 76.7688C155.636 76.9848 155.743 77.2046 155.851 77.4275L155.191 77.7452C155.085 77.5261 154.979 77.3099 154.872 77.0976L155.527 76.7688ZM154.843 75.465C154.959 75.6771 155.075 75.8937 155.191 76.1147L154.542 76.4553C154.428 76.2382 154.314 76.0251 154.2 75.8167L154.843 75.465ZM154.111 74.1855C154.234 74.3917 154.358 74.6039 154.483 74.8217L153.847 75.1855C153.725 74.9719 153.603 74.7636 153.482 74.5616L154.111 74.1855ZM153.726 73.5569L153.105 73.9461C153.041 73.8444 152.978 73.7446 152.915 73.6467L153.531 73.2502C153.596 73.3505 153.661 73.4529 153.726 73.5569Z" fill="black"/>
<path d="M126.777 108.755C126.536 108.771 126.289 108.777 126.036 108.774L126.046 108.041C126.28 108.044 126.507 108.039 126.728 108.024L126.777 108.755ZM124.687 107.922C124.918 107.959 125.144 107.987 125.365 108.006L125.301 108.736C125.063 108.715 124.82 108.685 124.573 108.646L124.629 108.284L124.687 107.922ZM128.241 108.528C128.006 108.586 127.763 108.635 127.514 108.674L127.458 108.311L127.402 107.949C127.63 107.914 127.85 107.87 128.064 107.817L128.241 108.528ZM123.345 107.624C123.572 107.689 123.795 107.745 124.013 107.794L123.853 108.509C123.621 108.457 123.385 108.397 123.145 108.329L123.345 107.624ZM129.645 108.036C129.423 108.138 129.193 108.231 128.955 108.315L128.712 107.623C128.928 107.548 129.137 107.463 129.338 107.37L129.645 108.036ZM122.033 107.179C122.254 107.266 122.471 107.346 122.685 107.419L122.449 108.112C122.224 108.036 121.996 107.952 121.765 107.862L122.033 107.179ZM120.763 106.618C120.975 106.722 121.184 106.819 121.391 106.911L121.094 107.581C120.879 107.486 120.661 107.384 120.441 107.276L120.763 106.618ZM130.931 107.292C130.731 107.433 130.523 107.568 130.305 107.694L129.938 107.06C130.135 106.945 130.325 106.823 130.507 106.694L130.931 107.292ZM119.833 106.132C119.937 106.19 120.041 106.247 120.144 106.302L119.799 106.948C119.693 106.891 119.585 106.833 119.477 106.773L119.157 106.595L119.512 105.954L119.833 106.132ZM132.059 106.331C131.888 106.504 131.707 106.673 131.516 106.835L131.041 106.278C131.215 106.129 131.381 105.975 131.538 105.816L132.059 106.331ZM133.009 105.198C132.869 105.395 132.718 105.591 132.557 105.783L131.996 105.313C132.144 105.136 132.282 104.956 132.411 104.774L133.009 105.198ZM136.917 104.059L136.563 104.701L135.921 104.348L136.275 103.705L136.917 104.059ZM133.767 103.932C133.661 104.146 133.542 104.363 133.412 104.581L132.784 104.204C132.904 104.004 133.012 103.803 133.11 103.607L133.767 103.932ZM135.632 103.352L135.278 103.993L134.636 103.639L134.989 102.997L135.632 103.352ZM134.347 102.644L134.183 102.941C134.147 103.044 134.109 103.149 134.068 103.254L134.02 103.236L133.993 103.285L133.672 103.108L133.676 103.1L133.385 102.986C133.428 102.878 133.466 102.773 133.501 102.67L133.642 102.256L134.347 102.644Z" fill="black"/>
<path d="M38.9211 134.519C38.9211 134.105 38.8134 133.488 38.5396 133.017C38.2995 132.604 37.9706 132.342 37.3841 132.342H14.4259L14.3943 132.34C14.3184 132.336 14.0736 132.369 13.842 132.606C13.6257 132.827 13.3052 133.35 13.3052 134.519V157.573C13.3052 157.806 13.3806 158.173 13.5659 158.445C13.7094 158.655 13.9387 158.854 14.4582 158.854H18.5565V161.159H14.4582C13.1335 161.159 12.2096 160.547 11.6615 159.744C11.1552 159.002 11 158.151 11 157.573V134.519C11 132.922 11.4481 131.758 12.1923 130.995C12.9005 130.27 13.7776 130.015 14.4621 130.036H37.3841C38.9494 130.036 39.9656 130.883 40.5325 131.858C41.0655 132.775 41.2267 133.823 41.2267 134.519V161.287H28.6747V158.982H38.9211V134.519Z" fill="black"/>
<path d="M27.0063 159.494C27.0063 157.726 25.5726 156.293 23.8042 156.293C22.0359 156.293 20.6025 157.726 20.6025 159.494C20.6025 161.263 22.0358 162.696 23.8042 162.697V165.002C20.7626 165.002 18.2969 162.536 18.2969 159.494C18.2969 156.453 20.7626 153.987 23.8042 153.987C26.8459 153.987 29.3115 156.453 29.3116 159.494C29.3116 162.536 26.8459 165.002 23.8042 165.002V162.697C25.5726 162.697 27.0063 161.263 27.0063 159.494Z" fill="black"/>
<path d="M54.9282 159.494C54.9282 157.726 53.4945 156.293 51.7261 156.293C49.9577 156.293 48.5244 157.726 48.5243 159.494C48.5243 161.263 49.9577 162.696 51.7261 162.697V165.002C48.6845 165.002 46.2188 162.536 46.2188 159.494C46.2188 156.453 48.6845 153.987 51.7261 153.987C54.7677 153.987 57.2334 156.453 57.2334 159.494C57.2334 162.536 54.7678 165.002 51.7261 165.002V162.697C53.4945 162.697 54.9282 161.263 54.9282 159.494Z" fill="black"/>
<path d="M60.6942 148.544C60.6941 147.838 60.3553 146.987 60.1521 146.599L55.1464 140.242L55.1145 140.201L55.086 140.158C54.0464 138.562 52.6578 138.055 52.1983 137.977H45.3248V158.982H46.9249V161.288H43.0195V135.672H52.3533L52.4211 135.68C53.4609 135.803 55.5148 136.63 56.9827 138.848L62.0836 145.325L62.1275 145.403C62.4141 145.913 62.9997 147.231 62.9998 148.544V157.764L62.99 157.839C62.926 158.322 62.6725 158.733 62.4226 159.036C62.1572 159.357 61.8142 159.657 61.4238 159.918C60.6416 160.443 59.5883 160.872 58.3651 161.021L58.2952 161.03H56.852V158.724H58.1473C58.981 158.613 59.6682 158.319 60.1398 158.003C60.3823 157.841 60.5477 157.686 60.6447 157.568C60.6668 157.542 60.6823 157.519 60.6942 157.502V148.544Z" fill="black"/>
<path d="M32.3907 143.741C32.3907 140.204 29.5236 137.337 25.9868 137.337C22.45 137.337 19.5829 140.204 19.5829 143.741C19.583 147.278 22.45 150.145 25.9868 150.145V152.45L25.762 152.447C21.1305 152.33 17.3976 148.597 17.2802 143.966L17.2773 143.741C17.2773 138.931 21.1768 135.031 25.9868 135.031L26.2116 135.034C30.9177 135.153 34.6959 139.006 34.6959 143.741L34.6931 143.966C34.5738 148.672 30.7216 152.45 25.9868 152.45V150.145C29.5235 150.145 32.3906 147.278 32.3907 143.741Z" fill="black"/>
<path d="M27.6493 138.618V144.837L23.3357 148L21.9727 146.141L25.3437 143.669V138.618H27.6493Z" fill="black"/>
<path d="M50.9621 139.386C51.6411 139.386 52.2302 139.736 52.5781 139.982C52.9171 140.221 53.2114 140.497 53.4135 140.715L53.4946 140.804L53.5347 140.85L53.5702 140.901L56.877 145.607C57.594 146.47 58.3761 148.01 58.6665 148.633L59.432 150.273H50.2226C49.3061 150.331 48.5659 150.012 48.0814 149.436C47.6368 148.907 47.5039 148.277 47.5039 147.839V139.386H50.9621ZM49.8091 147.839C49.8092 147.839 49.8106 147.866 49.8218 147.901C49.8317 147.931 49.8421 147.947 49.8457 147.952C49.847 147.953 49.8494 147.954 49.8531 147.955C49.867 147.96 49.9374 147.985 50.0979 147.971L50.1457 147.967H55.7071C55.4921 147.607 55.2729 147.276 55.0818 147.053L55.0456 147.01L55.014 146.965L51.7262 142.287C51.6202 142.172 51.4427 142.002 51.2477 141.864C51.1415 141.789 51.0517 141.739 50.9846 141.71C50.9584 141.699 50.9412 141.694 50.9326 141.691H49.8091V147.839Z" fill="black"/>
<path d="M115.227 130.485C115.683 130.485 116.053 130.855 116.053 131.311L116.054 132.549L116.053 132.592C116.03 133.028 115.669 133.375 115.227 133.375C114.77 133.375 114.4 133.005 114.4 132.549L114.4 131.311C114.4 130.855 114.77 130.485 115.227 130.485Z" fill="black"/>
<path d="M130.814 128.69C130.891 128.255 131.296 127.96 131.73 128.015L131.772 128.021L148.862 131.048L148.904 131.057C149.33 131.155 149.609 131.571 149.532 132.006C149.454 132.44 149.049 132.735 148.615 132.68L148.573 132.674L131.483 129.647L131.442 129.638C131.015 129.54 130.736 129.125 130.814 128.69Z" fill="black"/>
<path d="M145.685 139.567V141.218H142.653V139.567H145.685ZM148.993 136.264V130.485C148.993 128.661 147.512 127.183 145.685 127.183H142.653C140.826 127.183 139.345 128.661 139.345 130.485V136.264C139.345 138.088 140.826 139.567 142.653 139.567V141.218C139.913 141.218 137.691 139 137.691 136.264V130.485C137.691 127.749 139.913 125.532 142.653 125.532H145.685C148.425 125.532 150.646 127.749 150.646 130.485V136.264C150.646 139 148.425 141.218 145.685 141.218V139.567C147.512 139.567 148.993 138.088 148.993 136.264Z" fill="black"/>
<path d="M129.028 151.438L133.102 154.598C133.697 155.06 133.663 155.968 133.035 156.384L131.318 157.521V164.059H150.365V141.493H139.487L129.028 151.438ZM152.019 164.61C152.019 165.218 151.525 165.711 150.916 165.711H130.766C130.157 165.711 129.664 165.218 129.664 164.61V157.226C129.664 156.857 129.849 156.512 130.157 156.308L131.481 155.431L127.508 152.35C126.976 151.937 126.936 151.147 127.424 150.683L138.506 140.146C138.711 139.951 138.983 139.842 139.266 139.842H150.916C151.525 139.842 152.019 140.335 152.019 140.943V164.61Z" fill="black"/>
<path d="M115.033 153.045C115.331 152.719 115.831 152.686 116.169 152.964L116.201 152.992L124.465 160.522L129.495 156.921C129.866 156.656 130.383 156.741 130.649 157.111C130.915 157.482 130.829 157.998 130.458 158.263L125.066 162.124C124.643 162.427 124.065 162.393 123.68 162.042L115.086 154.212L115.055 154.182C114.747 153.872 114.734 153.372 115.033 153.045Z" fill="black"/>
<path d="M128.362 151.854C128.72 151.571 129.24 151.631 129.524 151.988C129.808 152.345 129.748 152.865 129.39 153.148L125.751 156.03C125.328 156.365 124.725 156.345 124.326 155.983L121.154 153.113L121.123 153.084C120.815 152.774 120.8 152.274 121.097 151.947C121.394 151.619 121.894 151.585 122.233 151.862L122.265 151.889L125.09 154.446L128.362 151.854Z" fill="black"/>
<path d="M121.841 143.144V144.796H108.611V143.144H121.841ZM122.806 142.181C122.806 141.649 122.374 141.218 121.841 141.218H108.611C108.078 141.218 107.646 141.649 107.646 142.181C107.646 142.713 108.078 143.144 108.611 143.144V144.796C107.165 144.796 105.992 143.625 105.992 142.181C105.992 140.737 107.165 139.567 108.611 139.567H121.841C123.288 139.567 124.46 140.737 124.46 142.181C124.46 143.625 123.288 144.796 121.841 144.796V143.144C122.374 143.144 122.806 142.713 122.806 142.181Z" fill="black"/>
<path d="M114.788 132.412C116.091 132.34 117.999 132.599 119.709 133.703C121.409 134.8 122.842 136.688 123.307 139.714L123.35 140.011L123.456 140.83L121.816 141.042L121.709 140.223L121.673 139.969C121.277 137.384 120.095 135.918 118.811 135.09C117.451 134.212 115.899 134 114.86 134.061L114.836 134.063H114.812C112.737 134.063 111.271 135.023 110.266 136.267C109.242 137.534 108.725 139.07 108.604 140.078L108.505 140.897L106.863 140.701L106.962 139.881C107.116 138.595 107.743 136.76 108.979 135.23C110.231 133.68 112.134 132.419 114.788 132.412Z" fill="black"/>
<path d="M110.479 120.65C110.888 120.448 111.384 120.615 111.587 121.024C112.051 121.959 112.318 122.705 112.292 123.47C112.266 124.224 111.955 124.886 111.593 125.612C111.426 125.949 111.428 126.388 111.578 126.86C111.73 127.341 111.989 127.702 112.122 127.821C112.463 128.124 112.492 128.646 112.188 128.986C111.884 129.326 111.361 129.356 111.021 129.052C110.619 128.694 110.222 128.055 110.001 127.358C109.777 126.651 109.687 125.734 110.112 124.879C110.491 124.116 110.627 123.76 110.639 123.414C110.65 123.1 110.557 122.696 110.184 121.918L110.105 121.757L110.087 121.718C109.913 121.317 110.083 120.846 110.479 120.65Z" fill="black"/>
<path d="M114.174 120.115C114.584 119.913 115.08 120.08 115.282 120.489C115.746 121.423 116.013 122.17 115.987 122.935C115.962 123.689 115.65 124.35 115.289 125.077C115.122 125.413 115.123 125.853 115.273 126.324C115.425 126.806 115.684 127.166 115.817 127.285C116.158 127.589 116.188 128.111 115.883 128.451C115.579 128.791 115.057 128.821 114.716 128.517C114.314 128.159 113.917 127.52 113.696 126.823C113.472 126.116 113.382 125.198 113.807 124.343C114.186 123.581 114.323 123.225 114.334 122.879C114.345 122.564 114.252 122.161 113.879 121.382L113.8 121.221L113.783 121.183C113.608 120.782 113.778 120.311 114.174 120.115Z" fill="black"/>
<path d="M118.042 120.941C118.451 120.738 118.947 120.905 119.15 121.314C119.613 122.249 119.881 122.995 119.855 123.76C119.829 124.514 119.517 125.176 119.156 125.903C118.989 126.239 118.991 126.678 119.14 127.15C119.293 127.631 119.551 127.992 119.684 128.111C120.025 128.414 120.055 128.936 119.751 129.277C119.446 129.617 118.924 129.646 118.583 129.343C118.181 128.984 117.784 128.345 117.563 127.648C117.339 126.941 117.249 126.024 117.675 125.169C118.053 124.406 118.19 124.05 118.202 123.704C118.212 123.39 118.12 122.987 117.746 122.208L117.668 122.047L117.65 122.008C117.476 121.608 117.645 121.137 118.042 120.941Z" fill="black"/>
<path d="M148.163 160.757C148.163 161.517 147.546 162.133 146.784 162.133H141.823C141.366 162.133 140.996 161.763 140.996 161.307C140.996 160.851 141.366 160.482 141.823 160.482H146.509V155.253C146.509 154.797 146.879 154.427 147.336 154.427C147.792 154.427 148.163 154.797 148.163 155.253V160.757Z" fill="black"/>
<path d="M110.023 148.098C110.786 151.06 113.163 151.985 114.161 151.95L114.176 151.949H121.431V148.098H110.023ZM123.085 152.224C123.085 152.984 122.468 153.6 121.707 153.6H114.208C112.386 153.658 109.131 152.12 108.316 148.051C108.141 147.176 108.84 146.447 109.652 146.447H121.707C122.468 146.447 123.085 147.063 123.085 147.823V152.224Z" fill="black"/>
<path d="M245.924 147.413V158.983L227.795 165.288L210.734 158.969V147.563H212.531V157.718L227.815 163.379L244.127 157.705V147.413H245.924Z" fill="black"/>
<path d="M229.152 145.466V163.884H227.355V145.466H229.152Z" fill="black"/>
<path d="M211.062 138.556C211.355 138.134 211.882 137.949 212.37 138.087L212.467 138.119L228.233 144.049C228.935 144.313 229.224 145.149 228.837 145.79L224.81 152.455C224.51 152.951 223.897 153.161 223.356 152.954L207.175 146.741C206.45 146.463 206.177 145.577 206.621 144.939L211.062 138.556ZM208.533 145.338L223.531 151.096L226.926 145.477L212.27 139.965L208.533 145.338Z" fill="black"/>
<path d="M246.345 138.556C246.051 138.134 245.524 137.949 245.036 138.087L244.939 138.119L229.173 144.049C228.472 144.313 228.182 145.149 228.57 145.79L232.596 152.455C232.896 152.951 233.509 153.161 234.051 152.954L250.231 146.741C250.957 146.463 251.229 145.577 250.785 144.939L246.345 138.556ZM248.873 145.338L233.875 151.096L230.48 145.477L245.136 139.965L248.873 145.338Z" fill="black"/>
<path d="M217.299 135.943C217.762 135.765 218.282 135.996 218.46 136.459C218.638 136.922 218.407 137.442 217.944 137.62L212.104 139.866C211.641 140.044 211.121 139.813 210.943 139.35C210.765 138.887 210.996 138.367 211.459 138.189L217.299 135.943Z" fill="black"/>
<path d="M240.04 135.538C239.585 135.341 239.056 135.55 238.859 136.005C238.662 136.461 238.871 136.99 239.326 137.187L245.068 139.672C245.524 139.869 246.053 139.66 246.25 139.205C246.447 138.749 246.238 138.22 245.782 138.023L240.04 135.538Z" fill="black"/>
<path d="M235.951 132.459C236.271 132.079 236.838 132.031 237.217 132.351C237.597 132.671 237.645 133.238 237.325 133.617C233.909 137.669 230.014 138.682 226.608 138.117C223.382 137.581 220.659 135.64 219.259 133.733L219.128 133.548L219.103 133.51C218.853 133.105 218.961 132.572 219.357 132.299C219.753 132.026 220.29 132.113 220.579 132.49L220.607 132.528L220.713 132.676C221.845 134.216 224.158 135.889 226.903 136.344C229.661 136.802 232.929 136.043 235.951 132.459Z" fill="black"/>
<path d="M224.958 128.096C224.958 129.254 224.02 130.193 222.862 130.193C221.704 130.193 220.766 129.254 220.766 128.096C220.766 126.939 221.704 126 222.862 126C224.02 126 224.958 126.939 224.958 128.096Z" fill="black"/>
<path d="M235.74 128.096C235.74 129.254 234.801 130.193 233.643 130.193C232.485 130.193 231.547 129.254 231.547 128.096C231.547 126.939 232.485 126 233.643 126C234.801 126 235.74 126.939 235.74 128.096Z" fill="black"/>
<path d="M250.052 91.6584C250.576 91.6584 251 92.0829 251 92.6066C251 93.1302 250.576 93.5547 250.052 93.5547H219.87C219.346 93.5547 218.922 93.1302 218.922 92.6066C218.922 92.0829 219.346 91.6584 219.87 91.6584H250.052Z" fill="black"/>
<path d="M234.251 72.0638C236.768 72.0638 240.097 73.8222 242.679 77.0853C245.297 80.3947 247.219 85.3241 246.892 91.8637C246.866 92.3866 246.421 92.7894 245.898 92.7633C245.375 92.7372 244.972 92.2921 244.998 91.7692C245.303 85.6672 243.512 81.1943 241.192 78.2618C238.841 75.2903 236.015 73.9664 234.264 73.9601C229.369 74.1128 224.85 77.3358 221.299 81.4349C217.755 85.5273 215.349 90.2967 214.628 93.1544L214.447 93.8707H209.284C208.76 93.8707 208.336 93.4462 208.336 92.9226C208.336 92.399 208.76 91.9745 209.284 91.9745H212.991C213.972 88.7731 216.433 84.1565 219.866 80.1936C223.554 75.9352 228.536 72.2339 234.223 72.0642L234.237 72.0638H234.251Z" fill="black"/>
<path d="M231.368 76.5565C231.854 76.362 232.406 76.5984 232.6 77.0846C232.795 77.5707 232.558 78.1224 232.072 78.3169C229.701 79.2652 226.957 81.4293 225.877 82.4063C225.489 82.7576 224.889 82.7276 224.538 82.3394C224.187 81.9511 224.217 81.3515 224.605 81.0002C225.737 79.9756 228.682 77.6309 231.368 76.5565Z" fill="black"/>
<path d="M223.032 83.4415C223.555 83.4415 223.98 83.866 223.98 84.3897C223.98 84.7397 223.789 85.0442 223.507 85.2085C223.484 85.2351 223.452 85.2732 223.411 85.3248C223.264 85.5091 223.072 85.7808 222.855 86.1035C222.424 86.7438 221.943 87.5194 221.632 88.038C221.363 88.4869 220.78 88.6324 220.331 88.363C219.882 88.0936 219.737 87.5111 220.006 87.0621C220.327 86.5273 220.826 85.7226 221.281 85.0461C221.506 84.7105 221.732 84.3895 221.925 84.1458C222.02 84.027 222.125 83.9029 222.231 83.8005C222.283 83.7506 222.358 83.6833 222.45 83.6224C222.512 83.5816 222.727 83.4415 223.032 83.4415Z" fill="black"/>
<path d="M220.49 101.661C221.879 99.8625 221.498 97.7986 220.376 96.9314C219.254 96.0643 217.161 96.2167 215.771 98.0148C214.382 99.8129 214.763 101.877 215.885 102.744L214.725 104.244L214.627 104.166C212.588 102.494 212.42 99.2512 214.271 96.8554C216.151 94.4216 219.404 93.7838 221.535 95.4309L221.634 95.5094C223.673 97.1812 223.841 100.424 221.99 102.82L221.901 102.933C220.008 105.273 216.824 105.866 214.725 104.244L215.885 102.744C217.007 103.611 219.1 103.459 220.49 101.661Z" fill="black"/>
<path d="M241.349 101.661C242.738 99.8625 242.358 97.7986 241.235 96.9314C240.113 96.0643 238.02 96.2167 236.631 98.0148C235.241 99.8129 235.622 101.877 236.744 102.744L235.585 104.244L235.486 104.166C233.447 102.494 233.279 99.2512 235.13 96.8554C237.011 94.4216 240.263 93.7838 242.395 95.4309L242.493 95.5094C244.532 97.1812 244.701 100.424 242.85 102.82L242.76 102.933C240.868 105.273 237.683 105.866 235.585 104.244L236.744 102.744C237.867 103.611 239.96 103.459 241.349 101.661Z" fill="black"/>
<path d="M238.181 67.212C239.57 65.4139 239.19 63.35 238.067 62.4828C236.945 61.6157 234.852 61.7681 233.463 63.5662C232.073 65.3643 232.454 67.4282 233.576 68.2953L232.417 69.7959L232.318 69.7174C230.279 68.0456 230.111 64.8025 231.962 62.4068C233.843 59.973 237.095 59.3352 239.227 60.9823L239.325 61.0608C241.364 62.7326 241.533 65.9756 239.682 68.3714L239.592 68.4843C237.7 70.8246 234.515 71.4172 232.417 69.7959L233.576 68.2953C234.699 69.1625 236.792 69.0101 238.181 67.212Z" fill="black"/>
<path d="M220.662 68.7454C221.186 68.7454 221.61 69.1699 221.61 69.6935C221.61 70.2171 221.186 70.6416 220.662 70.6416H209.917C209.393 70.6416 208.969 70.2171 208.969 69.6935C208.969 69.1699 209.393 68.7454 209.917 68.7454H220.662Z" fill="black"/>
<path d="M215.916 75.0663C216.44 75.0663 216.864 75.4908 216.864 76.0144C216.864 76.538 216.44 76.9625 215.916 76.9625H211.807C211.284 76.9625 210.859 76.538 210.859 76.0144C210.859 75.4908 211.284 75.0663 211.807 75.0663H215.916Z" fill="black"/>
</svg>
