<svg width="260" height="178" viewBox="0 0 260 178" fill="none" xmlns="http://www.w3.org/2000/svg">
<g clip-path="url(#clip0_2683_307)">
<path d="M15.5326 38.0001C15.4059 38.0001 15.1526 37.8734 15.0259 37.8734L13.1259 35.9734C12.8726 35.7201 12.8726 35.4668 12.9992 35.2134L14.8992 32.0468C15.2792 31.5401 15.5326 30.2734 15.5326 29.7668V29.1334C15.5326 28.1201 16.2926 26.2201 16.9259 25.4601L28.3259 14.0601C28.5792 13.8068 28.9592 13.8068 29.2126 14.0601L36.8126 21.6601C36.9392 21.7868 36.9392 21.9134 36.9392 22.1668C36.9392 22.2934 36.8126 22.5468 36.6859 22.6734C36.5592 22.8001 28.0726 31.1601 25.2859 34.0734C24.7792 34.8334 22.8792 35.4668 21.8659 35.4668H21.2326C20.7259 35.4668 19.4592 35.7201 19.0792 35.9734L15.9126 37.8734C15.7859 38.0001 15.6592 38.0001 15.5326 38.0001ZM14.3926 35.3401L15.5326 36.4801L18.3192 34.8334C18.9526 34.4534 20.4726 34.2001 21.2326 34.2001H21.8659C22.6259 34.2001 24.1459 33.5668 24.5259 33.1868C26.9326 30.6534 33.6459 23.9401 35.5459 22.1668L28.8326 15.4534L17.9392 26.3468C17.4326 26.8534 16.7992 28.5001 16.7992 29.1334V29.7668C16.7992 30.5268 16.5459 32.0468 16.0392 32.6801L14.3926 35.3401Z" fill="black"/>
<path d="M37.6991 24.0668C37.5725 24.0668 37.3191 24.0668 37.1925 23.9402L27.0591 13.8068C26.8058 13.5535 26.8058 13.1735 27.0591 12.9202L30.8591 9.12018C31.1125 8.86684 31.4925 8.86684 31.7458 9.12018L41.8791 19.2535C42.1325 19.5068 42.1325 19.8868 41.8791 20.1402L38.0791 23.9402C37.9525 24.0668 37.8258 24.0668 37.6991 24.0668ZM28.4525 13.3002L37.6991 22.5468L40.6125 19.6335L31.3658 10.3868L28.4525 13.3002Z" fill="black"/>
<path d="M40.2322 19C40.1055 19 39.8522 19 39.7255 18.8733L32.1255 11.2733C31.8722 11.02 31.8722 10.64 32.1255 10.3867L40.9922 1.52C41.8789 0.506667 43.2722 0 44.6655 0C46.3122 0 48.0855 0.506667 48.9722 1.39333C49.4789 1.9 49.9855 2.66 50.3655 3.42C51.2522 5.32 51.5055 7.98 50.2389 9.24667L40.7389 18.7467C40.4855 19 40.3589 19 40.2322 19ZM33.5189 10.7667L40.2322 17.48L49.2255 8.48667C49.8589 7.85333 49.8589 5.82667 49.0989 4.05333C48.8455 3.42 48.4655 2.78667 47.9589 2.40667C47.4522 1.77333 46.0589 1.26667 44.6655 1.26667C43.6522 1.26667 42.6389 1.64667 41.8789 2.40667L33.5189 10.7667Z" fill="black"/>
<path d="M19.9654 31.6668C19.5854 31.6668 19.332 31.4135 19.332 31.0335V29.7668C19.332 28.7535 20.092 27.4868 20.7254 26.7268L24.5254 22.9268C24.7787 22.6735 25.1587 22.6735 25.412 22.9268C25.6654 23.1801 25.6654 23.5601 25.412 23.8135L21.612 27.6135C21.1054 28.2468 20.5987 29.1335 20.5987 29.7668V31.0335C20.5987 31.4135 20.3454 31.6668 19.9654 31.6668Z" fill="black"/>
</g>
<g clip-path="url(#clip1_2683_307)">
<path d="M129.365 32.3001H125.565C124.679 32.3001 123.792 31.9201 123.032 31.1601L118.472 26.4734C116.952 24.9534 116.952 22.5468 118.472 21.0268L136.585 2.02677C136.712 1.9001 136.839 1.77344 137.092 1.77344C137.345 1.77344 137.472 1.9001 137.599 1.9001L148.999 13.3001C149.252 13.5534 149.252 13.9334 148.999 14.1868L132.152 31.1601C131.519 31.9201 130.379 32.3001 129.365 32.3001ZM136.965 3.4201L119.359 21.9134C118.345 22.9268 118.345 24.5734 119.359 25.5868L123.919 30.2734C124.425 30.7801 124.932 31.0334 125.565 31.0334H129.365C129.999 31.0334 130.759 30.7801 131.265 30.2734L147.479 13.9334L136.965 3.4201Z" fill="black"/>
<path d="M135.7 27.2337C135.573 27.2337 135.32 27.2337 135.193 27.107L124.426 16.3403C124.173 16.087 124.173 15.707 124.426 15.4537C124.68 15.2003 125.06 15.2003 125.313 15.4537L136.08 26.2203C136.333 26.4737 136.333 26.8537 136.08 27.107C136.08 27.2337 135.826 27.2337 135.7 27.2337Z" fill="black"/>
<path d="M119.233 32.2999H111.633C111.253 32.2999 111 32.0465 111 31.6665C111 31.2865 111.253 31.0332 111.633 31.0332H119.233C119.613 31.0332 119.867 31.2865 119.867 31.6665C119.867 32.0465 119.613 32.2999 119.233 32.2999Z" fill="black"/>
<path d="M134.433 36.1002H119.233C118.853 36.1002 118.6 35.8468 118.6 35.4668C118.6 35.0868 118.853 34.8335 119.233 34.8335H134.433C134.813 34.8335 135.066 35.0868 135.066 35.4668C135.066 35.8468 134.813 36.1002 134.433 36.1002Z" fill="black"/>
</g>
<path d="M230.534 5.06647C230.154 5.06647 229.9 4.81314 229.9 4.43314C229.9 4.05314 230.154 3.7998 230.534 3.7998C230.914 3.7998 231.167 4.05314 231.167 4.43314C231.167 4.81314 230.914 5.06647 230.534 5.06647Z" fill="black"/>
<path d="M230.534 7.60016C230.154 7.60016 229.9 7.34683 229.9 6.96683C229.9 6.58683 230.154 6.3335 230.534 6.3335C230.914 6.3335 231.167 6.58683 231.167 6.96683C231.167 7.34683 230.914 7.60016 230.534 7.60016Z" fill="black"/>
<path d="M233.069 2.53327C232.689 2.53327 232.436 2.27993 232.436 1.89993C232.436 1.51993 232.689 1.2666 233.069 1.2666C233.449 1.2666 233.702 1.51993 233.702 1.89993C233.702 2.27993 233.449 2.53327 233.069 2.53327Z" fill="black"/>
<path d="M233.069 6.33356C232.689 6.33356 232.436 6.08023 232.436 5.70023C232.436 5.32023 232.689 5.06689 233.069 5.06689C233.449 5.06689 233.702 5.32023 233.702 5.70023C233.702 6.08023 233.449 6.33356 233.069 6.33356Z" fill="black"/>
<path d="M229.268 6.33356C228.888 6.33356 228.635 6.08023 228.635 5.70023C228.635 5.32023 228.888 5.06689 229.268 5.06689C229.648 5.06689 229.901 5.32023 229.901 5.70023C229.901 6.08023 229.648 6.33356 229.268 6.33356Z" fill="black"/>
<path d="M233.069 10.1334C232.689 10.1334 232.436 9.88003 232.436 9.50003C232.436 9.12003 232.689 8.8667 233.069 8.8667C233.449 8.8667 233.702 9.12003 233.702 9.50003C233.702 9.88003 233.449 10.1334 233.069 10.1334Z" fill="black"/>
<path d="M235.602 3.79987C235.222 3.79987 234.969 3.54654 234.969 3.16654C234.969 2.78654 235.222 2.5332 235.602 2.5332C235.982 2.5332 236.235 2.78654 236.235 3.16654C236.235 3.54654 235.982 3.79987 235.602 3.79987Z" fill="black"/>
<path d="M236.868 1.26667C236.488 1.26667 236.234 1.01333 236.234 0.633333C236.234 0.253333 236.488 0 236.868 0C237.248 0 237.501 0.253333 237.501 0.633333C237.501 1.01333 237.248 1.26667 236.868 1.26667Z" fill="black"/>
<path d="M235.602 8.86676C235.222 8.86676 234.969 8.61343 234.969 8.23343C234.969 7.85343 235.222 7.6001 235.602 7.6001C235.982 7.6001 236.235 7.85343 236.235 8.23343C236.235 8.61343 235.982 8.86676 235.602 8.86676Z" fill="black"/>
<path d="M235.602 12.6666C235.222 12.6666 234.969 12.4132 234.969 12.0332C234.969 11.6532 235.222 11.3999 235.602 11.3999C235.982 11.3999 236.235 11.6532 236.235 12.0332C236.235 12.4132 235.982 12.6666 235.602 12.6666Z" fill="black"/>
<path d="M238.133 6.33307C237.753 6.33307 237.5 6.07974 237.5 5.69974C237.5 5.31974 237.753 5.06641 238.133 5.06641C238.513 5.06641 238.767 5.31974 238.767 5.69974C238.767 6.07974 238.513 6.33307 238.133 6.33307Z" fill="black"/>
<path d="M238.133 15.2003C237.753 15.2003 237.5 14.9469 237.5 14.5669C237.5 14.1869 237.753 13.9336 238.133 13.9336C238.513 13.9336 238.767 14.1869 238.767 14.5669C238.767 14.9469 238.513 15.2003 238.133 15.2003Z" fill="black"/>
<path d="M243.202 6.33307C242.822 6.33307 242.568 6.07974 242.568 5.69974C242.568 5.31974 242.822 5.06641 243.202 5.06641C243.582 5.06641 243.835 5.31974 243.835 5.69974C243.835 6.07974 243.582 6.33307 243.202 6.33307Z" fill="black"/>
<path d="M243.202 1.26667C242.822 1.26667 242.568 1.01333 242.568 0.633333C242.568 0.253333 242.822 0 243.202 0C243.582 0 243.835 0.253333 243.835 0.633333C243.835 1.01333 243.582 1.26667 243.202 1.26667Z" fill="black"/>
<path d="M243.202 11.4C242.822 11.4 242.568 11.1466 242.568 10.7666C242.568 10.3866 242.822 10.1333 243.202 10.1333C243.582 10.1333 243.835 10.3866 243.835 10.7666C243.835 11.1466 243.582 11.4 243.202 11.4Z" fill="black"/>
<path d="M243.202 16.4669C242.822 16.4669 242.568 16.2135 242.568 15.8335C242.568 15.4535 242.822 15.2002 243.202 15.2002C243.582 15.2002 243.835 15.4535 243.835 15.8335C243.835 16.2135 243.582 16.4669 243.202 16.4669Z" fill="black"/>
<path d="M240.668 2.53327C240.288 2.53327 240.035 2.27993 240.035 1.89993C240.035 1.51993 240.288 1.2666 240.668 1.2666C241.048 1.2666 241.302 1.51993 241.302 1.89993C241.302 2.27993 241.048 2.53327 240.668 2.53327Z" fill="black"/>
<path d="M240.668 7.60016C240.288 7.60016 240.035 7.34683 240.035 6.96683C240.035 6.58683 240.288 6.3335 240.668 6.3335C241.048 6.3335 241.302 6.58683 241.302 6.96683C241.302 7.34683 241.048 7.60016 240.668 7.60016Z" fill="black"/>
<path d="M238.133 11.4C237.753 11.4 237.5 11.1466 237.5 10.7666C237.5 10.3866 237.753 10.1333 238.133 10.1333C238.513 10.1333 238.767 10.3866 238.767 10.7666C238.767 11.1466 238.513 11.4 238.133 11.4Z" fill="black"/>
<path d="M222.933 12.6668H219.133C218.753 12.6668 218.5 12.4134 218.5 12.0334V8.23343C218.5 7.85343 218.753 7.6001 219.133 7.6001C219.513 7.6001 219.767 7.85343 219.767 8.23343V11.4001H222.3V8.23343C222.3 7.85343 222.553 7.6001 222.933 7.6001C223.313 7.6001 223.567 7.85343 223.567 8.23343V12.0334C223.567 12.4134 223.313 12.6668 222.933 12.6668Z" fill="black"/>
<path d="M226.101 37.9999H215.968C213.815 37.9999 212.168 36.3532 212.168 34.1999V15.1999C212.168 13.0466 213.815 11.3999 215.968 11.3999H226.101C228.255 11.3999 229.901 13.0466 229.901 15.1999V34.1999C229.901 36.3532 228.128 37.9999 226.101 37.9999ZM215.968 12.6666C214.575 12.6666 213.435 13.8066 213.435 15.1999V34.1999C213.435 35.5932 214.575 36.7332 215.968 36.7332H226.101C227.495 36.7332 228.635 35.5932 228.635 34.1999V15.1999C228.635 13.8066 227.495 12.6666 226.101 12.6666H215.968Z" fill="black"/>
<path d="M224.201 8.8666H217.868C217.488 8.8666 217.234 8.61327 217.234 8.23327V5.0666C217.234 2.91327 218.881 1.2666 221.034 1.2666H224.201C224.581 1.2666 224.834 1.51993 224.834 1.89993V8.23327C224.834 8.61327 224.581 8.8666 224.201 8.8666ZM218.501 7.59993H223.568V2.53327H221.034C219.641 2.53327 218.501 3.67327 218.501 5.0666V7.59993Z" fill="black"/>
<path d="M229.268 30.4H212.801C212.421 30.4 212.168 30.1467 212.168 29.7667V19.6333C212.168 19.2533 212.421 19 212.801 19H229.268C229.648 19 229.901 19.2533 229.901 19.6333V29.7667C229.901 30.1467 229.648 30.4 229.268 30.4ZM213.435 29.1333H228.635V20.2667H213.435V29.1333Z" fill="black"/>
<path d="M50.3667 102.934H13.6333C13.2533 102.934 13 102.68 13 102.3V75.7002C13 75.3202 13.2533 75.0669 13.6333 75.0669H50.3667C50.7467 75.0669 51 75.3202 51 75.7002V102.3C51 102.68 50.7467 102.934 50.3667 102.934ZM14.2667 101.667H49.7333V76.3336H14.2667V101.667Z" fill="black"/>
<path d="M17.4341 81.4005C17.0541 81.4005 16.8008 81.1471 16.8008 80.7671C16.8008 80.3871 17.0541 80.1338 17.4341 80.1338C17.8141 80.1338 18.0674 80.3871 18.0674 80.7671C18.0674 81.1471 17.8141 81.4005 17.4341 81.4005Z" fill="black"/>
<path d="M17.4341 78.8668C17.0541 78.8668 16.8008 78.6134 16.8008 78.2334C16.8008 77.8534 17.0541 77.6001 17.4341 77.6001C17.8141 77.6001 18.0674 77.8534 18.0674 78.2334C18.0674 78.6134 17.8141 78.8668 17.4341 78.8668Z" fill="black"/>
<path d="M19.9654 85.2003C19.5854 85.2003 19.332 84.9469 19.332 84.5669C19.332 84.1869 19.5854 83.9336 19.9654 83.9336C20.3454 83.9336 20.5987 84.1869 20.5987 84.5669C20.5987 84.9469 20.3454 85.2003 19.9654 85.2003Z" fill="black"/>
<path d="M14.9009 87.7335C14.5209 87.7335 14.2676 87.4801 14.2676 87.1001C14.2676 86.7201 14.5209 86.4668 14.9009 86.4668C15.2809 86.4668 15.5342 86.7201 15.5342 87.1001C15.5342 87.4801 15.2809 87.7335 14.9009 87.7335Z" fill="black"/>
<path d="M14.9009 90.2667C14.5209 90.2667 14.2676 90.0133 14.2676 89.6333C14.2676 89.2533 14.5209 89 14.9009 89C15.2809 89 15.5342 89.2533 15.5342 89.6333C15.5342 90.0133 15.2809 90.2667 14.9009 90.2667Z" fill="black"/>
<path d="M14.9009 92.8004C14.5209 92.8004 14.2676 92.547 14.2676 92.167C14.2676 91.787 14.5209 91.5337 14.9009 91.5337C15.2809 91.5337 15.5342 91.787 15.5342 92.167C15.5342 92.547 15.2809 92.8004 14.9009 92.8004Z" fill="black"/>
<path d="M14.9009 95.3336C14.5209 95.3336 14.2676 95.0802 14.2676 94.7002C14.2676 94.3202 14.5209 94.0669 14.9009 94.0669C15.2809 94.0669 15.5342 94.3202 15.5342 94.7002C15.5342 95.0802 15.2809 95.3336 14.9009 95.3336Z" fill="black"/>
<path d="M14.9009 97.8668C14.5209 97.8668 14.2676 97.6134 14.2676 97.2334C14.2676 96.8534 14.5209 96.6001 14.9009 96.6001C15.2809 96.6001 15.5342 96.8534 15.5342 97.2334C15.5342 97.6134 15.2809 97.8668 14.9009 97.8668Z" fill="black"/>
<path d="M14.9009 100.4C14.5209 100.4 14.2676 100.147 14.2676 99.7671C14.2676 99.3871 14.5209 99.1338 14.9009 99.1338C15.2809 99.1338 15.5342 99.3871 15.5342 99.7671C15.5342 100.147 15.2809 100.4 14.9009 100.4Z" fill="black"/>
<path d="M22.5005 83.9337C22.1205 83.9337 21.8672 83.6803 21.8672 83.3003C21.8672 82.9203 22.1205 82.667 22.5005 82.667C22.8805 82.667 23.1339 82.9203 23.1339 83.3003C23.1339 83.6803 22.8805 83.9337 22.5005 83.9337Z" fill="black"/>
<path d="M22.5005 86.4669C22.1205 86.4669 21.8672 86.2135 21.8672 85.8335C21.8672 85.4535 22.1205 85.2002 22.5005 85.2002C22.8805 85.2002 23.1339 85.4535 23.1339 85.8335C23.1339 86.2135 22.8805 86.4669 22.5005 86.4669Z" fill="black"/>
<path d="M17.4341 89.0001C17.0541 89.0001 16.8008 88.7467 16.8008 88.3667C16.8008 87.9867 17.0541 87.7334 17.4341 87.7334C17.8141 87.7334 18.0674 87.9867 18.0674 88.3667C18.0674 88.7467 17.8141 89.0001 17.4341 89.0001Z" fill="black"/>
<path d="M17.4341 91.5338C17.0541 91.5338 16.8008 91.2804 16.8008 90.9004C16.8008 90.5204 17.0541 90.2671 17.4341 90.2671C17.8141 90.2671 18.0674 90.5204 18.0674 90.9004C18.0674 91.2804 17.8141 91.5338 17.4341 91.5338Z" fill="black"/>
<path d="M17.4341 94.067C17.0541 94.067 16.8008 93.8136 16.8008 93.4336C16.8008 93.0536 17.0541 92.8003 17.4341 92.8003C17.8141 92.8003 18.0674 93.0536 18.0674 93.4336C18.0674 93.8136 17.8141 94.067 17.4341 94.067Z" fill="black"/>
<path d="M17.4341 96.6002C17.0541 96.6002 16.8008 96.3468 16.8008 95.9668C16.8008 95.5868 17.0541 95.3335 17.4341 95.3335C17.8141 95.3335 18.0674 95.5868 18.0674 95.9668C18.0674 96.3468 17.8141 96.6002 17.4341 96.6002Z" fill="black"/>
<path d="M17.4341 99.1334C17.0541 99.1334 16.8008 98.88 16.8008 98.5C16.8008 98.12 17.0541 97.8667 17.4341 97.8667C17.8141 97.8667 18.0674 98.12 18.0674 98.5C18.0674 98.88 17.8141 99.1334 17.4341 99.1334Z" fill="black"/>
<path d="M17.4341 101.667C17.0541 101.667 16.8008 101.414 16.8008 101.034C16.8008 100.654 17.0541 100.4 17.4341 100.4C17.8141 100.4 18.0674 100.654 18.0674 101.034C18.0674 101.414 17.8141 101.667 17.4341 101.667Z" fill="black"/>
<path d="M14.9009 82.6671C14.5209 82.6671 14.2676 82.4137 14.2676 82.0337C14.2676 81.6537 14.5209 81.4004 14.9009 81.4004C15.2809 81.4004 15.5342 81.6537 15.5342 82.0337C15.5342 82.4137 15.2809 82.6671 14.9009 82.6671Z" fill="black"/>
<path d="M14.9009 80.1334C14.5209 80.1334 14.2676 79.88 14.2676 79.5C14.2676 79.12 14.5209 78.8667 14.9009 78.8667C15.2809 78.8667 15.5342 79.12 15.5342 79.5C15.5342 79.88 15.2809 80.1334 14.9009 80.1334Z" fill="black"/>
<path d="M25.0337 85.2003C24.6537 85.2003 24.4004 84.9469 24.4004 84.5669C24.4004 84.1869 24.6537 83.9336 25.0337 83.9336C25.4137 83.9336 25.6671 84.1869 25.6671 84.5669C25.6671 84.9469 25.4137 85.2003 25.0337 85.2003Z" fill="black"/>
<path d="M17.4341 86.4669C17.0541 86.4669 16.8008 86.2135 16.8008 85.8335C16.8008 85.4535 17.0541 85.2002 17.4341 85.2002C17.8141 85.2002 18.0674 85.4535 18.0674 85.8335C18.0674 86.2135 17.8141 86.4669 17.4341 86.4669Z" fill="black"/>
<path d="M19.9654 90.2667C19.5854 90.2667 19.332 90.0133 19.332 89.6333C19.332 89.2533 19.5854 89 19.9654 89C20.3454 89 20.5987 89.2533 20.5987 89.6333C20.5987 90.0133 20.3454 90.2667 19.9654 90.2667Z" fill="black"/>
<path d="M19.9654 92.8004C19.5854 92.8004 19.332 92.547 19.332 92.167C19.332 91.787 19.5854 91.5337 19.9654 91.5337C20.3454 91.5337 20.5987 91.787 20.5987 92.167C20.5987 92.547 20.3454 92.8004 19.9654 92.8004Z" fill="black"/>
<path d="M19.9654 95.3336C19.5854 95.3336 19.332 95.0802 19.332 94.7002C19.332 94.3202 19.5854 94.0669 19.9654 94.0669C20.3454 94.0669 20.5987 94.3202 20.5987 94.7002C20.5987 95.0802 20.3454 95.3336 19.9654 95.3336Z" fill="black"/>
<path d="M19.9654 97.8668C19.5854 97.8668 19.332 97.6134 19.332 97.2334C19.332 96.8534 19.5854 96.6001 19.9654 96.6001C20.3454 96.6001 20.5987 96.8534 20.5987 97.2334C20.5987 97.6134 20.3454 97.8668 19.9654 97.8668Z" fill="black"/>
<path d="M19.9654 100.4C19.5854 100.4 19.332 100.147 19.332 99.7671C19.332 99.3871 19.5854 99.1338 19.9654 99.1338C20.3454 99.1338 20.5987 99.3871 20.5987 99.7671C20.5987 100.147 20.3454 100.4 19.9654 100.4Z" fill="black"/>
<path d="M19.9654 82.6671C19.5854 82.6671 19.332 82.4137 19.332 82.0337C19.332 81.6537 19.5854 81.4004 19.9654 81.4004C20.3454 81.4004 20.5987 81.6537 20.5987 82.0337C20.5987 82.4137 20.3454 82.6671 19.9654 82.6671Z" fill="black"/>
<path d="M19.9654 80.1339C19.5854 80.1339 19.332 79.8805 19.332 79.5005C19.332 79.1205 19.5854 78.8672 19.9654 78.8672C20.3454 78.8672 20.5987 79.1205 20.5987 79.5005C20.5987 79.8805 20.3454 80.1339 19.9654 80.1339Z" fill="black"/>
<path d="M14.9009 85.2003C14.5209 85.2003 14.2676 84.9469 14.2676 84.5669C14.2676 84.1869 14.5209 83.9336 14.9009 83.9336C15.2809 83.9336 15.5342 84.1869 15.5342 84.5669C15.5342 84.9469 15.2809 85.2003 14.9009 85.2003Z" fill="black"/>
<path d="M22.5005 89.0001C22.1205 89.0001 21.8672 88.7467 21.8672 88.3667C21.8672 87.9867 22.1205 87.7334 22.5005 87.7334C22.8805 87.7334 23.1339 87.9867 23.1339 88.3667C23.1339 88.7467 22.8805 89.0001 22.5005 89.0001Z" fill="black"/>
<path d="M22.5005 91.5333C22.1205 91.5333 21.8672 91.2799 21.8672 90.8999C21.8672 90.5199 22.1205 90.2666 22.5005 90.2666C22.8805 90.2666 23.1339 90.5199 23.1339 90.8999C23.1339 91.2799 22.8805 91.5333 22.5005 91.5333Z" fill="black"/>
<path d="M22.5005 94.067C22.1205 94.067 21.8672 93.8136 21.8672 93.4336C21.8672 93.0536 22.1205 92.8003 22.5005 92.8003C22.8805 92.8003 23.1339 93.0536 23.1339 93.4336C23.1339 93.8136 22.8805 94.067 22.5005 94.067Z" fill="black"/>
<path d="M22.5005 96.6002C22.1205 96.6002 21.8672 96.3468 21.8672 95.9668C21.8672 95.5868 22.1205 95.3335 22.5005 95.3335C22.8805 95.3335 23.1339 95.5868 23.1339 95.9668C23.1339 96.3468 22.8805 96.6002 22.5005 96.6002Z" fill="black"/>
<path d="M22.5005 99.1339C22.1205 99.1339 21.8672 98.8805 21.8672 98.5005C21.8672 98.1205 22.1205 97.8672 22.5005 97.8672C22.8805 97.8672 23.1339 98.1205 23.1339 98.5005C23.1339 98.8805 22.8805 99.1339 22.5005 99.1339Z" fill="black"/>
<path d="M22.5005 101.667C22.1205 101.667 21.8672 101.414 21.8672 101.034C21.8672 100.654 22.1205 100.4 22.5005 100.4C22.8805 100.4 23.1339 100.654 23.1339 101.034C23.1339 101.414 22.8805 101.667 22.5005 101.667Z" fill="black"/>
<path d="M22.5005 81.4005C22.1205 81.4005 21.8672 81.1471 21.8672 80.7671C21.8672 80.3871 22.1205 80.1338 22.5005 80.1338C22.8805 80.1338 23.1339 80.3871 23.1339 80.7671C23.1339 81.1471 22.8805 81.4005 22.5005 81.4005Z" fill="black"/>
<path d="M22.5005 78.8668C22.1205 78.8668 21.8672 78.6134 21.8672 78.2334C21.8672 77.8534 22.1205 77.6001 22.5005 77.6001C22.8805 77.6001 23.1339 77.8534 23.1339 78.2334C23.1339 78.6134 22.8805 78.8668 22.5005 78.8668Z" fill="black"/>
<path d="M17.4341 83.9337C17.0541 83.9337 16.8008 83.6803 16.8008 83.3003C16.8008 82.9203 17.0541 82.667 17.4341 82.667C17.8141 82.667 18.0674 82.9203 18.0674 83.3003C18.0674 83.6803 17.8141 83.9337 17.4341 83.9337Z" fill="black"/>
<path d="M19.9654 87.7335C19.5854 87.7335 19.332 87.4801 19.332 87.1001C19.332 86.7201 19.5854 86.4668 19.9654 86.4668C20.3454 86.4668 20.5987 86.7201 20.5987 87.1001C20.5987 87.4801 20.3454 87.7335 19.9654 87.7335Z" fill="black"/>
<path d="M25.0337 90.2667C24.6537 90.2667 24.4004 90.0133 24.4004 89.6333C24.4004 89.2533 24.6537 89 25.0337 89C25.4137 89 25.6671 89.2533 25.6671 89.6333C25.6671 90.0133 25.4137 90.2667 25.0337 90.2667Z" fill="black"/>
<path d="M25.0337 92.8004C24.6537 92.8004 24.4004 92.547 24.4004 92.167C24.4004 91.787 24.6537 91.5337 25.0337 91.5337C25.4137 91.5337 25.6671 91.787 25.6671 92.167C25.6671 92.547 25.4137 92.8004 25.0337 92.8004Z" fill="black"/>
<path d="M25.0337 95.3336C24.6537 95.3336 24.4004 95.0802 24.4004 94.7002C24.4004 94.3202 24.6537 94.0669 25.0337 94.0669C25.4137 94.0669 25.6671 94.3202 25.6671 94.7002C25.6671 95.0802 25.4137 95.3336 25.0337 95.3336Z" fill="black"/>
<path d="M25.0337 97.8668C24.6537 97.8668 24.4004 97.6134 24.4004 97.2334C24.4004 96.8534 24.6537 96.6001 25.0337 96.6001C25.4137 96.6001 25.6671 96.8534 25.6671 97.2334C25.6671 97.6134 25.4137 97.8668 25.0337 97.8668Z" fill="black"/>
<path d="M25.0337 100.4C24.6537 100.4 24.4004 100.147 24.4004 99.7671C24.4004 99.3871 24.6537 99.1338 25.0337 99.1338C25.4137 99.1338 25.6671 99.3871 25.6671 99.7671C25.6671 100.147 25.4137 100.4 25.0337 100.4Z" fill="black"/>
<path d="M25.0337 82.6671C24.6537 82.6671 24.4004 82.4137 24.4004 82.0337C24.4004 81.6537 24.6537 81.4004 25.0337 81.4004C25.4137 81.4004 25.6671 81.6537 25.6671 82.0337C25.6671 82.4137 25.4137 82.6671 25.0337 82.6671Z" fill="black"/>
<path d="M25.0337 87.7335C24.6537 87.7335 24.4004 87.4801 24.4004 87.1001C24.4004 86.7201 24.6537 86.4668 25.0337 86.4668C25.4137 86.4668 25.6671 86.7201 25.6671 87.1001C25.6671 87.4801 25.4137 87.7335 25.0337 87.7335Z" fill="black"/>
<path d="M30.1001 92.8004C29.7201 92.8004 29.4668 92.547 29.4668 92.167C29.4668 91.787 29.7201 91.5337 30.1001 91.5337C30.4801 91.5337 30.7335 91.787 30.7335 92.167C30.7335 92.547 30.4801 92.8004 30.1001 92.8004Z" fill="black"/>
<path d="M33.9009 81.4005C33.5209 81.4005 33.2676 81.1471 33.2676 80.7671C33.2676 80.3871 33.5209 80.1338 33.9009 80.1338C34.2809 80.1338 34.5342 80.3871 34.5342 80.7671C34.5342 81.1471 34.2809 81.4005 33.9009 81.4005Z" fill="black"/>
<path d="M37.6997 80.1339C37.3197 80.1339 37.0664 79.8805 37.0664 79.5005C37.0664 79.1205 37.3197 78.8672 37.6997 78.8672C38.0797 78.8672 38.3331 79.1205 38.3331 79.5005C38.3331 79.8805 38.0797 80.1339 37.6997 80.1339Z" fill="black"/>
<path d="M37.6997 85.2003C37.3197 85.2003 37.0664 84.9469 37.0664 84.5669C37.0664 84.1869 37.3197 83.9336 37.6997 83.9336C38.0797 83.9336 38.3331 84.1869 38.3331 84.5669C38.3331 84.9469 38.0797 85.2003 37.6997 85.2003Z" fill="black"/>
<path d="M37.6997 92.8004C37.3197 92.8004 37.0664 92.547 37.0664 92.167C37.0664 91.787 37.3197 91.5337 37.6997 91.5337C38.0797 91.5337 38.3331 91.787 38.3331 92.167C38.3331 92.547 38.0797 92.8004 37.6997 92.8004Z" fill="black"/>
<path d="M37.6997 99.1339C37.3197 99.1339 37.0664 98.8805 37.0664 98.5005C37.0664 98.1205 37.3197 97.8672 37.6997 97.8672C38.0797 97.8672 38.3331 98.1205 38.3331 98.5005C38.3331 98.8805 38.0797 99.1339 37.6997 99.1339Z" fill="black"/>
<path d="M41.5005 78.8668C41.1205 78.8668 40.8672 78.6134 40.8672 78.2334C40.8672 77.8534 41.1205 77.6001 41.5005 77.6001C41.8805 77.6001 42.1339 77.8534 42.1339 78.2334C42.1339 78.6134 41.8805 78.8668 41.5005 78.8668Z" fill="black"/>
<path d="M41.5005 83.9337C41.1205 83.9337 40.8672 83.6803 40.8672 83.3003C40.8672 82.9203 41.1205 82.667 41.5005 82.667C41.8805 82.667 42.1339 82.9203 42.1339 83.3003C42.1339 83.6803 41.8805 83.9337 41.5005 83.9337Z" fill="black"/>
<path d="M41.5005 91.5333C41.1205 91.5333 40.8672 91.2799 40.8672 90.8999C40.8672 90.5199 41.1205 90.2666 41.5005 90.2666C41.8805 90.2666 42.1339 90.5199 42.1339 90.8999C42.1339 91.2799 41.8805 91.5333 41.5005 91.5333Z" fill="black"/>
<path d="M41.5005 97.8668C41.1205 97.8668 40.8672 97.6134 40.8672 97.2334C40.8672 96.8534 41.1205 96.6001 41.5005 96.6001C41.8805 96.6001 42.1339 96.8534 42.1339 97.2334C42.1339 97.6134 41.8805 97.8668 41.5005 97.8668Z" fill="black"/>
<path d="M33.9009 89.0001C33.5209 89.0001 33.2676 88.7467 33.2676 88.3667C33.2676 87.9867 33.5209 87.7334 33.9009 87.7334C34.2809 87.7334 34.5342 87.9867 34.5342 88.3667C34.5342 88.7467 34.2809 89.0001 33.9009 89.0001Z" fill="black"/>
<path d="M33.9009 96.6002C33.5209 96.6002 33.2676 96.3468 33.2676 95.9668C33.2676 95.5868 33.5209 95.3335 33.9009 95.3335C34.2809 95.3335 34.5342 95.5868 34.5342 95.9668C34.5342 96.3468 34.2809 96.6002 33.9009 96.6002Z" fill="black"/>
<path d="M30.1001 101.667C29.7201 101.667 29.4668 101.414 29.4668 101.034C29.4668 100.654 29.7201 100.4 30.1001 100.4C30.4801 100.4 30.7335 100.654 30.7335 101.034C30.7335 101.414 30.4801 101.667 30.1001 101.667Z" fill="black"/>
<path d="M30.1001 77.6002C29.7201 77.6002 29.4668 77.3468 29.4668 76.9668C29.4668 76.5868 29.7201 76.3335 30.1001 76.3335C30.4801 76.3335 30.7335 76.5868 30.7335 76.9668C30.7335 77.3468 30.4801 77.6002 30.1001 77.6002Z" fill="black"/>
<path d="M30.1001 82.6671C29.7201 82.6671 29.4668 82.4137 29.4668 82.0337C29.4668 81.6537 29.7201 81.4004 30.1001 81.4004C30.4801 81.4004 30.7335 81.6537 30.7335 82.0337C30.7335 82.4137 30.4801 82.6671 30.1001 82.6671Z" fill="black"/>
<path d="M30.1001 87.7335C29.7201 87.7335 29.4668 87.4801 29.4668 87.1001C29.4668 86.7201 29.7201 86.4668 30.1001 86.4668C30.4801 86.4668 30.7335 86.7201 30.7335 87.1001C30.7335 87.4801 30.4801 87.7335 30.1001 87.7335Z" fill="black"/>
<path d="M27.5669 94.067C27.1869 94.067 26.9336 93.8136 26.9336 93.4336C26.9336 93.0536 27.1869 92.8003 27.5669 92.8003C27.9469 92.8003 28.2003 93.0536 28.2003 93.4336C28.2003 93.8136 27.9469 94.067 27.5669 94.067Z" fill="black"/>
<path d="M30.1001 96.6002C29.7201 96.6002 29.4668 96.3468 29.4668 95.9668C29.4668 95.5868 29.7201 95.3335 30.1001 95.3335C30.4801 95.3335 30.7335 95.5868 30.7335 95.9668C30.7335 96.3468 30.4801 96.6002 30.1001 96.6002Z" fill="black"/>
<path d="M25.0337 80.1339C24.6537 80.1339 24.4004 79.8805 24.4004 79.5005C24.4004 79.1205 24.6537 78.8672 25.0337 78.8672C25.4137 78.8672 25.6671 79.1205 25.6671 79.5005C25.6671 79.8805 25.4137 80.1339 25.0337 80.1339Z" fill="black"/>
<path d="M14.9009 77.6002C14.5209 77.6002 14.2676 77.3468 14.2676 76.9668C14.2676 76.5868 14.5209 76.3335 14.9009 76.3335C15.2809 76.3335 15.5342 76.5868 15.5342 76.9668C15.5342 77.3468 15.2809 77.6002 14.9009 77.6002Z" fill="black"/>
<path d="M19.9654 77.6002C19.5854 77.6002 19.332 77.3468 19.332 76.9668C19.332 76.5868 19.5854 76.3335 19.9654 76.3335C20.3454 76.3335 20.5987 76.5868 20.5987 76.9668C20.5987 77.3468 20.3454 77.6002 19.9654 77.6002Z" fill="black"/>
<path d="M25.0337 77.6002C24.6537 77.6002 24.4004 77.3468 24.4004 76.9668C24.4004 76.5868 24.6537 76.3335 25.0337 76.3335C25.4137 76.3335 25.6671 76.5868 25.6671 76.9668C25.6671 77.3468 25.4137 77.6002 25.0337 77.6002Z" fill="black"/>
<path d="M27.5669 80.1339C27.1869 80.1339 26.9336 79.8805 26.9336 79.5005C26.9336 79.1205 27.1869 78.8672 27.5669 78.8672C27.9469 78.8672 28.2003 79.1205 28.2003 79.5005C28.2003 79.8805 27.9469 80.1339 27.5669 80.1339Z" fill="black"/>
<path d="M27.5669 85.2003C27.1869 85.2003 26.9336 84.9469 26.9336 84.5669C26.9336 84.1869 27.1869 83.9336 27.5669 83.9336C27.9469 83.9336 28.2003 84.1869 28.2003 84.5669C28.2003 84.9469 27.9469 85.2003 27.5669 85.2003Z" fill="black"/>
<path d="M27.5669 91.5333C27.1869 91.5333 26.9336 91.2799 26.9336 90.8999C26.9336 90.5199 27.1869 90.2666 27.5669 90.2666C27.9469 90.2666 28.2003 90.5199 28.2003 90.8999C28.2003 91.2799 27.9469 91.5333 27.5669 91.5333Z" fill="black"/>
<path d="M27.5669 99.1339C27.1869 99.1339 26.9336 98.8805 26.9336 98.5005C26.9336 98.1205 27.1869 97.8672 27.5669 97.8672C27.9469 97.8672 28.2003 98.1205 28.2003 98.5005C28.2003 98.8805 27.9469 99.1339 27.5669 99.1339Z" fill="black"/>
<g clip-path="url(#clip2_2683_307)">
<path d="M113.533 108C113.406 108 113.153 107.873 113.026 107.873L111.126 105.973C110.873 105.72 110.873 105.467 110.999 105.213L112.899 102.047C113.279 101.54 113.533 100.273 113.533 99.7668V99.1334C113.533 98.1201 114.293 96.2201 114.926 95.4601L126.326 84.0601C126.579 83.8068 126.959 83.8068 127.213 84.0601L134.813 91.6601C134.939 91.7868 134.939 91.9134 134.939 92.1668C134.939 92.2934 134.813 92.5468 134.686 92.6734C134.559 92.8001 126.073 101.16 123.286 104.073C122.779 104.833 120.879 105.467 119.866 105.467H119.233C118.726 105.467 117.459 105.72 117.079 105.973L113.913 107.873C113.786 108 113.659 108 113.533 108ZM112.393 105.34L113.533 106.48L116.319 104.833C116.953 104.453 118.473 104.2 119.233 104.2H119.866C120.626 104.2 122.146 103.567 122.526 103.187C124.933 100.653 131.646 93.9401 133.546 92.1668L126.833 85.4534L115.939 96.3468C115.433 96.8534 114.799 98.5001 114.799 99.1334V99.7668C114.799 100.527 114.546 102.047 114.039 102.68L112.393 105.34Z" fill="black"/>
<path d="M135.699 94.0668C135.572 94.0668 135.319 94.0668 135.192 93.9402L125.059 83.8068C124.806 83.5535 124.806 83.1735 125.059 82.9202L128.859 79.1202C129.112 78.8668 129.492 78.8668 129.746 79.1202L139.879 89.2535C140.132 89.5068 140.132 89.8868 139.879 90.1402L136.079 93.9402C135.952 94.0668 135.826 94.0668 135.699 94.0668ZM126.452 83.3002L135.699 92.5468L138.612 89.6335L129.366 80.3868L126.452 83.3002Z" fill="black"/>
<path d="M138.232 89C138.106 89 137.852 89 137.726 88.8733L130.126 81.2733C129.872 81.02 129.872 80.64 130.126 80.3867L138.992 71.52C139.879 70.5067 141.272 70 142.666 70C144.312 70 146.086 70.5067 146.972 71.3933C147.479 71.9 147.986 72.66 148.366 73.42C149.252 75.32 149.506 77.98 148.239 79.2467L138.739 88.7467C138.486 89 138.359 89 138.232 89ZM131.519 80.7667L138.232 87.48L147.226 78.4867C147.859 77.8533 147.859 75.8267 147.099 74.0533C146.846 73.42 146.466 72.7867 145.959 72.4067C145.452 71.7733 144.059 71.2667 142.666 71.2667C141.652 71.2667 140.639 71.6467 139.879 72.4067L131.519 80.7667Z" fill="black"/>
<path d="M117.965 101.667C117.585 101.667 117.332 101.413 117.332 101.033V99.7668C117.332 98.7535 118.092 97.4868 118.725 96.7268L122.525 92.9268C122.779 92.6735 123.159 92.6735 123.412 92.9268C123.665 93.1801 123.665 93.5601 123.412 93.8135L119.612 97.6135C119.105 98.2468 118.599 99.1335 118.599 99.7668V101.033C118.599 101.413 118.345 101.667 117.965 101.667Z" fill="black"/>
</g>
<g clip-path="url(#clip3_2683_307)">
<path d="M227.365 102.3H223.565C222.679 102.3 221.792 101.92 221.032 101.16L216.472 96.4734C214.952 94.9534 214.952 92.5468 216.472 91.0268L234.585 72.0268C234.712 71.9001 234.839 71.7734 235.092 71.7734C235.345 71.7734 235.472 71.9001 235.599 71.9001L246.999 83.3001C247.252 83.5534 247.252 83.9334 246.999 84.1868L230.152 101.16C229.519 101.92 228.379 102.3 227.365 102.3ZM234.965 73.4201L217.359 91.9134C216.345 92.9268 216.345 94.5734 217.359 95.5868L221.919 100.273C222.425 100.78 222.932 101.033 223.565 101.033H227.365C227.999 101.033 228.759 100.78 229.265 100.273L245.479 83.9334L234.965 73.4201Z" fill="black"/>
<path d="M233.7 97.2337C233.573 97.2337 233.32 97.2337 233.193 97.107L222.426 86.3403C222.173 86.087 222.173 85.707 222.426 85.4537C222.68 85.2003 223.06 85.2003 223.313 85.4537L234.08 96.2203C234.333 96.4737 234.333 96.8537 234.08 97.107C234.08 97.2337 233.826 97.2337 233.7 97.2337Z" fill="black"/>
<path d="M217.233 102.3H209.633C209.253 102.3 209 102.047 209 101.667C209 101.287 209.253 101.033 209.633 101.033H217.233C217.613 101.033 217.867 101.287 217.867 101.667C217.867 102.047 217.613 102.3 217.233 102.3Z" fill="black"/>
<path d="M232.433 106.1H217.233C216.853 106.1 216.6 105.847 216.6 105.467C216.6 105.087 216.853 104.833 217.233 104.833H232.433C232.813 104.833 233.066 105.087 233.066 105.467C233.066 105.847 232.813 106.1 232.433 106.1Z" fill="black"/>
</g>
<path d="M34.5337 145.066C34.1537 145.066 33.9004 144.813 33.9004 144.433C33.9004 144.053 34.1537 143.8 34.5337 143.8C34.9137 143.8 35.1671 144.053 35.1671 144.433C35.1671 144.813 34.9137 145.066 34.5337 145.066Z" fill="black"/>
<path d="M34.5337 147.6C34.1537 147.6 33.9004 147.347 33.9004 146.967C33.9004 146.587 34.1537 146.333 34.5337 146.333C34.9137 146.333 35.1671 146.587 35.1671 146.967C35.1671 147.347 34.9137 147.6 34.5337 147.6Z" fill="black"/>
<path d="M37.0689 142.533C36.6889 142.533 36.4355 142.28 36.4355 141.9C36.4355 141.52 36.6889 141.267 37.0689 141.267C37.4489 141.267 37.7022 141.52 37.7022 141.9C37.7022 142.28 37.4489 142.533 37.0689 142.533Z" fill="black"/>
<path d="M37.0689 146.334C36.6889 146.334 36.4355 146.08 36.4355 145.7C36.4355 145.32 36.6889 145.067 37.0689 145.067C37.4489 145.067 37.7022 145.32 37.7022 145.7C37.7022 146.08 37.4489 146.334 37.0689 146.334Z" fill="black"/>
<path d="M33.2681 146.334C32.8881 146.334 32.6348 146.08 32.6348 145.7C32.6348 145.32 32.8881 145.067 33.2681 145.067C33.6481 145.067 33.9014 145.32 33.9014 145.7C33.9014 146.08 33.6481 146.334 33.2681 146.334Z" fill="black"/>
<path d="M37.0689 150.133C36.6889 150.133 36.4355 149.88 36.4355 149.5C36.4355 149.12 36.6889 148.867 37.0689 148.867C37.4489 148.867 37.7022 149.12 37.7022 149.5C37.7022 149.88 37.4489 150.133 37.0689 150.133Z" fill="black"/>
<path d="M39.6021 143.8C39.2221 143.8 38.9688 143.547 38.9688 143.167C38.9688 142.787 39.2221 142.533 39.6021 142.533C39.9821 142.533 40.2354 142.787 40.2354 143.167C40.2354 143.547 39.9821 143.8 39.6021 143.8Z" fill="black"/>
<path d="M40.8677 141.267C40.4877 141.267 40.2344 141.013 40.2344 140.633C40.2344 140.253 40.4877 140 40.8677 140C41.2477 140 41.501 140.253 41.501 140.633C41.501 141.013 41.2477 141.267 40.8677 141.267Z" fill="black"/>
<path d="M39.6021 148.867C39.2221 148.867 38.9688 148.613 38.9688 148.233C38.9688 147.853 39.2221 147.6 39.6021 147.6C39.9821 147.6 40.2354 147.853 40.2354 148.233C40.2354 148.613 39.9821 148.867 39.6021 148.867Z" fill="black"/>
<path d="M39.6021 152.667C39.2221 152.667 38.9688 152.413 38.9688 152.033C38.9688 151.653 39.2221 151.4 39.6021 151.4C39.9821 151.4 40.2354 151.653 40.2354 152.033C40.2354 152.413 39.9821 152.667 39.6021 152.667Z" fill="black"/>
<path d="M42.1333 146.333C41.7533 146.333 41.5 146.08 41.5 145.7C41.5 145.32 41.7533 145.066 42.1333 145.066C42.5133 145.066 42.7667 145.32 42.7667 145.7C42.7667 146.08 42.5133 146.333 42.1333 146.333Z" fill="black"/>
<path d="M42.1333 155.2C41.7533 155.2 41.5 154.947 41.5 154.567C41.5 154.187 41.7533 153.934 42.1333 153.934C42.5133 153.934 42.7667 154.187 42.7667 154.567C42.7667 154.947 42.5133 155.2 42.1333 155.2Z" fill="black"/>
<path d="M47.2017 146.333C46.8217 146.333 46.5684 146.08 46.5684 145.7C46.5684 145.32 46.8217 145.066 47.2017 145.066C47.5817 145.066 47.835 145.32 47.835 145.7C47.835 146.08 47.5817 146.333 47.2017 146.333Z" fill="black"/>
<path d="M47.2017 141.267C46.8217 141.267 46.5684 141.013 46.5684 140.633C46.5684 140.253 46.8217 140 47.2017 140C47.5817 140 47.835 140.253 47.835 140.633C47.835 141.013 47.5817 141.267 47.2017 141.267Z" fill="black"/>
<path d="M47.2017 151.4C46.8217 151.4 46.5684 151.147 46.5684 150.767C46.5684 150.387 46.8217 150.133 47.2017 150.133C47.5817 150.133 47.835 150.387 47.835 150.767C47.835 151.147 47.5817 151.4 47.2017 151.4Z" fill="black"/>
<path d="M47.2017 156.467C46.8217 156.467 46.5684 156.214 46.5684 155.834C46.5684 155.454 46.8217 155.2 47.2017 155.2C47.5817 155.2 47.835 155.454 47.835 155.834C47.835 156.214 47.5817 156.467 47.2017 156.467Z" fill="black"/>
<path d="M44.6685 142.533C44.2885 142.533 44.0352 142.28 44.0352 141.9C44.0352 141.52 44.2885 141.267 44.6685 141.267C45.0485 141.267 45.3018 141.52 45.3018 141.9C45.3018 142.28 45.0485 142.533 44.6685 142.533Z" fill="black"/>
<path d="M44.6685 147.6C44.2885 147.6 44.0352 147.347 44.0352 146.967C44.0352 146.587 44.2885 146.333 44.6685 146.333C45.0485 146.333 45.3018 146.587 45.3018 146.967C45.3018 147.347 45.0485 147.6 44.6685 147.6Z" fill="black"/>
<path d="M42.1333 151.4C41.7533 151.4 41.5 151.147 41.5 150.767C41.5 150.387 41.7533 150.133 42.1333 150.133C42.5133 150.133 42.7667 150.387 42.7667 150.767C42.7667 151.147 42.5133 151.4 42.1333 151.4Z" fill="black"/>
<path d="M26.9333 152.667H23.1333C22.7533 152.667 22.5 152.413 22.5 152.033V148.233C22.5 147.853 22.7533 147.6 23.1333 147.6C23.5133 147.6 23.7667 147.853 23.7667 148.233V151.4H26.3V148.233C26.3 147.853 26.5533 147.6 26.9333 147.6C27.3133 147.6 27.5667 147.853 27.5667 148.233V152.033C27.5667 152.413 27.3133 152.667 26.9333 152.667Z" fill="black"/>
<path d="M30.1013 178H19.968C17.8146 178 16.168 176.353 16.168 174.2V155.2C16.168 153.047 17.8146 151.4 19.968 151.4H30.1013C32.2546 151.4 33.9013 153.047 33.9013 155.2V174.2C33.9013 176.353 32.128 178 30.1013 178ZM19.968 152.667C18.5746 152.667 17.4346 153.807 17.4346 155.2V174.2C17.4346 175.593 18.5746 176.733 19.968 176.733H30.1013C31.4946 176.733 32.6346 175.593 32.6346 174.2V155.2C32.6346 153.807 31.4946 152.667 30.1013 152.667H19.968Z" fill="black"/>
<path d="M28.201 148.867H21.8677C21.4877 148.867 21.2344 148.613 21.2344 148.233V145.067C21.2344 142.913 22.881 141.267 25.0344 141.267H28.201C28.581 141.267 28.8344 141.52 28.8344 141.9V148.233C28.8344 148.613 28.581 148.867 28.201 148.867ZM22.501 147.6H27.5677V142.533H25.0344C23.641 142.533 22.501 143.673 22.501 145.067V147.6Z" fill="black"/>
<path d="M33.268 170.4H16.8013C16.4213 170.4 16.168 170.147 16.168 169.767V159.633C16.168 159.253 16.4213 159 16.8013 159H33.268C33.648 159 33.9013 159.253 33.9013 159.633V169.767C33.9013 170.147 33.648 170.4 33.268 170.4ZM17.4346 169.133H32.6346V160.267H17.4346V169.133Z" fill="black"/>
<g clip-path="url(#clip4_2683_307)">
<path d="M114.799 177.367C114.419 177.367 114.166 177.113 114.166 176.733V141.267C114.166 140.887 114.419 140.633 114.799 140.633C115.179 140.633 115.433 140.887 115.433 141.267V176.733C115.433 177.113 115.179 177.367 114.799 177.367Z" fill="black"/>
<path d="M124.934 177.367C124.554 177.367 124.301 177.113 124.301 176.733V141.267C124.301 140.887 124.554 140.633 124.934 140.633C125.314 140.633 125.567 140.887 125.567 141.267V176.733C125.567 177.113 125.314 177.367 124.934 177.367Z" fill="black"/>
<path d="M135.067 177.367C134.687 177.367 134.434 177.113 134.434 176.733V141.267C134.434 140.887 134.687 140.633 135.067 140.633C135.447 140.633 135.7 140.887 135.7 141.267V176.733C135.7 177.113 135.447 177.367 135.067 177.367Z" fill="black"/>
<path d="M145.2 177.367C144.82 177.367 144.566 177.113 144.566 176.733V141.267C144.566 140.887 144.82 140.633 145.2 140.633C145.58 140.633 145.833 140.887 145.833 141.267V176.733C145.833 177.113 145.58 177.367 145.2 177.367Z" fill="black"/>
<path d="M147.733 174.833H112.266C111.886 174.833 111.633 174.58 111.633 174.2C111.633 173.82 111.886 173.566 112.266 173.566H147.733C148.113 173.566 148.366 173.82 148.366 174.2C148.366 174.58 148.113 174.833 147.733 174.833Z" fill="black"/>
<path d="M147.733 164.7H112.266C111.886 164.7 111.633 164.446 111.633 164.066C111.633 163.686 111.886 163.433 112.266 163.433H147.733C148.113 163.433 148.366 163.686 148.366 164.066C148.366 164.446 148.113 164.7 147.733 164.7Z" fill="black"/>
<path d="M147.733 154.566H112.266C111.886 154.566 111.633 154.313 111.633 153.933C111.633 153.553 111.886 153.3 112.266 153.3H147.733C148.113 153.3 148.366 153.553 148.366 153.933C148.366 154.313 148.113 154.566 147.733 154.566Z" fill="black"/>
<path d="M147.733 144.433H112.266C111.886 144.433 111.633 144.18 111.633 143.8C111.633 143.42 111.886 143.167 112.266 143.167H147.733C148.113 143.167 148.366 143.42 148.366 143.8C148.366 144.18 148.113 144.433 147.733 144.433Z" fill="black"/>
</g>
<path d="M239.905 147.853C239.779 147.853 239.525 147.853 239.399 147.727C232.559 140.887 223.185 140.887 216.345 147.727C216.092 147.98 215.712 147.98 215.459 147.727C215.205 147.473 215.332 147.093 215.459 146.84C222.805 139.493 232.939 139.493 240.285 146.84C240.539 147.093 240.539 147.473 240.285 147.727C240.285 147.853 240.032 147.853 239.905 147.853Z" fill="black"/>
<path d="M240.666 148.867H234.333C233.953 148.867 233.699 148.613 233.699 148.233C233.699 147.853 233.953 147.6 234.333 147.6H240.033V141.9C240.033 141.52 240.286 141.267 240.666 141.267C241.046 141.267 241.299 141.52 241.299 141.9V148.233C241.299 148.613 241.046 148.867 240.666 148.867Z" fill="black"/>
<path d="M210.266 176.733C210.139 176.733 210.139 176.733 210.013 176.733C209.759 176.607 209.633 176.353 209.633 176.1V148.233C209.633 147.98 209.759 147.727 210.013 147.6C210.266 147.6 210.519 147.6 210.773 147.727L224.706 161.66C224.959 161.913 224.959 162.293 224.706 162.547L210.773 176.48C210.646 176.607 210.393 176.733 210.266 176.733ZM210.899 149.753V174.58L223.313 162.167L210.899 149.753Z" fill="black"/>
<path d="M245.732 176.733C245.605 176.733 245.352 176.607 245.225 176.607L231.292 162.673C231.038 162.42 231.038 162.04 231.292 161.787L245.225 147.853C245.478 147.6 245.732 147.6 245.985 147.6C246.238 147.727 246.365 147.98 246.365 148.233V176.1C246.365 176.353 246.238 176.607 245.985 176.733C245.858 176.733 245.858 176.733 245.732 176.733ZM232.685 162.167L245.098 174.58V149.753L232.685 162.167Z" fill="black"/>
<path d="M227.999 175.467C227.619 175.467 227.365 175.213 227.365 174.833V171.033C227.365 170.653 227.619 170.4 227.999 170.4C228.379 170.4 228.632 170.653 228.632 171.033V174.833C228.632 175.213 228.379 175.467 227.999 175.467Z" fill="black"/>
<path d="M227.999 167.866C227.619 167.866 227.365 167.613 227.365 167.233V163.433C227.365 163.053 227.619 162.8 227.999 162.8C228.379 162.8 228.632 163.053 228.632 163.433V167.233C228.632 167.613 228.379 167.866 227.999 167.866Z" fill="black"/>
<path d="M227.999 160.266C227.619 160.266 227.365 160.013 227.365 159.633V155.833C227.365 155.453 227.619 155.2 227.999 155.2C228.379 155.2 228.632 155.453 228.632 155.833V159.633C228.632 160.013 228.379 160.266 227.999 160.266Z" fill="black"/>
<path d="M227.999 152.667C227.619 152.667 227.365 152.413 227.365 152.033V148.233C227.365 147.853 227.619 147.6 227.999 147.6C228.379 147.6 228.632 147.853 228.632 148.233V152.033C228.632 152.413 228.379 152.667 227.999 152.667Z" fill="black"/>
<defs>
<clipPath id="clip0_2683_307">
<rect width="38" height="38" fill="white" transform="translate(13)"/>
</clipPath>
<clipPath id="clip1_2683_307">
<rect width="38" height="38" fill="white" transform="translate(111)"/>
</clipPath>
<clipPath id="clip2_2683_307">
<rect width="38" height="38" fill="white" transform="translate(111 70)"/>
</clipPath>
<clipPath id="clip3_2683_307">
<rect width="38" height="38" fill="white" transform="translate(209 70)"/>
</clipPath>
<clipPath id="clip4_2683_307">
<rect width="38" height="38" fill="white" transform="translate(111 140)"/>
</clipPath>
</defs>
</svg>
