<svg width="260" height="178" viewBox="0 0 260 178" fill="none" xmlns="http://www.w3.org/2000/svg">
<path d="M35.1364 7H19.6862C17.2811 7 15.332 8.94908 15.332 11.3542V17.6875C15.332 18.343 15.864 18.875 16.5195 18.875H39.4779C40.1334 18.875 40.6654 18.343 40.6654 17.6875V15.1146V12.529C40.6654 9.47633 38.189 7 35.1364 7Z" fill="#ECEFF1"/>
<path d="M42.6458 16.5H13.3542C10.9523 16.5 9 18.4523 9 20.8542V31.1458C9 33.5478 10.9523 35.5 13.3542 35.5H42.6458C45.0478 35.5 47 33.5478 47 31.1458V20.8542C47 18.4523 45.0478 16.5 42.6458 16.5Z" fill="#607D8B"/>
<path d="M39.4779 27.5834H16.5195C15.864 27.5834 15.332 28.1154 15.332 28.7709V40.6459C15.332 43.0478 17.2843 45 19.6862 45H36.3112C38.7131 45 40.6654 43.0478 40.6654 40.6459V28.7709C40.6654 28.1154 40.1334 27.5834 39.4779 27.5834Z" fill="#ECEFF1"/>
<path d="M42.6458 35.5H39.4792C38.8237 35.5 38.2917 34.968 38.2917 34.3125C38.2917 33.657 38.8237 33.125 39.4792 33.125H42.6458C43.7368 33.125 44.625 32.2368 44.625 31.1458V20.8542C44.625 19.7633 43.7368 18.875 42.6458 18.875H13.3542C12.2633 18.875 11.375 19.7633 11.375 20.8542V31.1458C11.375 32.2368 12.2633 33.125 13.3542 33.125H16.5208C17.1763 33.125 17.7083 33.657 17.7083 34.3125C17.7083 34.968 17.1763 35.5 16.5208 35.5H13.3542C10.9523 35.5 9 33.5478 9 31.1458V20.8542C9 18.4523 10.9523 16.5 13.3542 16.5H42.6458C45.0478 16.5 47 18.4523 47 20.8542V31.1458C47 33.5478 45.0478 35.5 42.6458 35.5Z" fill="black"/>
<path d="M36.3112 45H19.6862C17.2843 45 15.332 43.0478 15.332 40.6459V28.7709C15.332 28.1154 15.864 27.5834 16.5195 27.5834H39.4779C40.1334 27.5834 40.6654 28.1154 40.6654 28.7709V40.6459C40.6654 43.0478 38.7131 45 36.3112 45ZM17.707 29.9584V40.6459C17.707 41.7368 18.5953 42.625 19.6862 42.625H36.3112C37.4021 42.625 38.2904 41.7368 38.2904 40.6459V29.9584H17.707Z" fill="black"/>
<path d="M34.7279 35.5H21.2695C20.614 35.5 20.082 34.968 20.082 34.3125C20.082 33.657 20.614 33.125 21.2695 33.125H34.7279C35.3834 33.125 35.9154 33.657 35.9154 34.3125C35.9154 34.968 35.3834 35.5 34.7279 35.5Z" fill="black"/>
<path d="M34.7279 40.25H21.2695C20.614 40.25 20.082 39.718 20.082 39.0625C20.082 38.407 20.614 37.875 21.2695 37.875H34.7279C35.3834 37.875 35.9154 38.407 35.9154 39.0625C35.9154 39.718 35.3834 40.25 34.7279 40.25Z" fill="black"/>
<path d="M39.4779 18.875C38.8224 18.875 38.2904 18.343 38.2904 17.6875V11.3542C38.2904 10.2633 37.4021 9.375 36.3112 9.375H19.6862C18.5953 9.375 17.707 10.2633 17.707 11.3542V17.6875C17.707 18.343 17.175 18.875 16.5195 18.875C15.864 18.875 15.332 18.343 15.332 17.6875V11.3542C15.332 8.95225 17.2843 7 19.6862 7H36.3112C38.7131 7 40.6654 8.95225 40.6654 11.3542V17.6875C40.6654 18.343 40.1334 18.875 39.4779 18.875Z" fill="black"/>
<rect x="110" y="22.6" width="34" height="19.6" rx="3" fill="#2196F3" stroke="black" stroke-width="2"/>
<path d="M115.4 13C115.4 11.3431 116.744 10 118.4 10H135.6C137.257 10 138.6 11.3431 138.6 13V22.4H115.4V13Z" fill="#ECEFF1" stroke="black" stroke-width="2"/>
<circle cx="123.4" cy="16.1999" r="1.8" fill="black"/>
<circle cx="130.601" cy="16.1999" r="1.8" fill="black"/>
<path d="M208.232 37.2495V32.9276C208.232 31.862 209.096 30.9982 210.162 30.9982H246.645C247.711 30.9982 248.575 31.862 248.575 32.9276V37.2495C248.575 38.3151 247.711 39.1789 246.645 39.1789H234.68C234.107 39.1789 233.564 38.9246 233.197 38.4847L230.253 34.9512C229.461 34.0009 227.992 34.0308 227.239 35.0125L224.624 38.4234C224.259 38.8997 223.693 39.1789 223.093 39.1789H210.162C209.096 39.1789 208.232 38.3151 208.232 37.2495Z" fill="#607D8B" stroke="black" stroke-width="2"/>
<path d="M207 13C207 12.4477 207.448 12 208 12H248.6C249.152 12 249.6 12.4477 249.6 13V31.2999C249.6 31.8521 249.152 32.2998 248.6 32.2998H208C207.448 32.2998 207 31.8521 207 31.2998V13Z" fill="#ECEFF1" stroke="black" stroke-width="2"/>
<path d="M215.936 19.3118V25.1908" stroke="black" stroke-width="2" stroke-linecap="round"/>
<path d="M224.246 19.3118V25.1908" stroke="black" stroke-width="2" stroke-linecap="round"/>
<path d="M232.355 19.3118V25.1908" stroke="black" stroke-width="2" stroke-linecap="round"/>
<path d="M240.463 19.3118V25.1908" stroke="black" stroke-width="2" stroke-linecap="round"/>
<rect x="13.9727" y="96.8503" width="27.7308" height="5.97009" rx="2.49786" fill="#586D91" stroke="black" stroke-width="1.5"/>
<rect x="9.75" y="85.8075" width="36.5" height="12.7906" rx="2.49786" fill="#ECEFF1" stroke="black" stroke-width="1.5"/>
<rect x="13.305" y="65.6517" width="1.46154" height="18.3504" rx="0.730769" fill="#647499" stroke="black" stroke-width="1.46154"/>
<rect x="40.5843" y="65.6517" width="1.46154" height="18.3504" rx="0.730769" fill="#647499" stroke="black" stroke-width="1.46154"/>
<circle cx="19.3932" cy="92.2029" r="1.84829" fill="#647499" stroke="black" stroke-width="1.5"/>
<circle cx="27.8366" cy="92.2029" r="1.84829" fill="#647499" stroke="black" stroke-width="1.5"/>
<circle cx="36.2819" cy="92.2029" r="1.84829" fill="#647499" stroke="black" stroke-width="1.5"/>
<path d="M12.6719 83.1088C12.6719 82.2674 13.354 81.5853 14.1954 81.5853C15.0368 81.5853 15.7189 82.2674 15.7189 83.1088V84.6323H12.6719V83.1088Z" fill="#96A1C3" stroke="black" stroke-width="1.5"/>
<path d="M39.9551 83.1088C39.9551 82.2674 40.6372 81.5853 41.4786 81.5853C42.32 81.5853 43.0021 82.2674 43.0021 83.1088V84.6323H39.9551V83.1088Z" fill="#96A1C3" stroke="black" stroke-width="1.5"/>
<path d="M24.9133 80.3481C25.8335 79.3196 28.2911 77.8797 30.7595 80.3481M23.4518 77.425C24.6968 76.1259 28.486 74.3396 32.221 77.425M21.9902 74.9892C23.7766 73.257 28.5509 70.8319 33.3578 74.9892" stroke="black" stroke-width="1.5" stroke-linecap="round" stroke-linejoin="round"/>
<path d="M129.114 68.6013H118.877C114.175 68.6013 113 72.3555 113 75.5169V82.63H134.991V75.5169C134.991 71.5651 132.716 68.6013 129.114 68.6013Z" fill="#ECEFF1" stroke="black" stroke-width="2"/>
<path d="M113.19 95.1421L113 82.63H134.991V95.1421C134.991 98.9336 131.124 104.242 123.995 104.242C120.393 104.242 113.19 102.118 113.19 95.1421Z" fill="#FFC107" stroke="black" stroke-width="2"/>
<rect x="122.529" y="73.0137" width="2.54984" height="4.82476" rx="1.27492" fill="#607D8B" stroke="black" stroke-width="2"/>
<path d="M123.996 82.6301V78.6489M123.996 72.2033V64.9994C123.933 63.2932 124.603 59.8809 127.788 59.8809H136.887C138.214 59.8809 140.868 60.9046 140.868 64.9994V80.3551C140.868 85.8529 149.778 86.0424 149.778 80.3551V64.6203" stroke="black" stroke-width="2"/>
<rect x="147.934" y="56.3308" width="4.06645" height="2.92899" fill="#607D8B" stroke="black" stroke-width="2"/>
<mask id="path-34-inside-1_851_3638" fill="white">
<path d="M146.934 59.8809H153V62.9141C153 63.9611 152.151 64.8099 151.104 64.8099H148.829C147.782 64.8099 146.934 63.9611 146.934 62.9141V59.8809Z"/>
</mask>
<path d="M146.934 59.8809H153V62.9141C153 63.9611 152.151 64.8099 151.104 64.8099H148.829C147.782 64.8099 146.934 63.9611 146.934 62.9141V59.8809Z" fill="#FFC107" stroke="black" stroke-width="4" mask="url(#path-34-inside-1_851_3638)"/>
<path d="M247.245 77.4695H208.755C206.681 77.4695 205 79.1507 205 81.2246V92.4899C205 94.5638 206.681 96.245 208.755 96.245H220.484C221.616 96.245 222.688 95.7342 223.401 94.8549L225.126 92.7274C226.583 90.9297 229.304 90.8657 230.845 92.5929L232.982 94.9893C233.695 95.7882 234.714 96.245 235.785 96.245H247.245C249.319 96.245 251 94.5638 251 92.4899V81.2246C251 79.1507 249.319 77.4695 247.245 77.4695Z" fill="#2196F3" stroke="black" stroke-width="2"/>
<path d="M215.889 71.8367C212.322 71.8367 209.63 75.5918 208.566 77.4693H247.244C245.291 73.1134 241.987 71.8367 239.546 71.8367H215.889Z" fill="#ECEFF1" stroke="black" stroke-width="2"/>
<rect x="109.049" y="134.741" width="30.7642" height="22.5731" rx="3.09552" fill="#ECEFF1" stroke="black" stroke-width="2"/>
<rect x="133.617" y="125.731" width="14.3821" height="24.2113" rx="1.04776" fill="#607D8B" stroke="black" stroke-width="2"/>
<path d="M144.291 146.847H137.328" stroke="black" stroke-width="2" stroke-linecap="round"/>
<path d="M106 162H143.679" stroke="black" stroke-width="2" stroke-linecap="round"/>
<mask id="path-41-inside-2_851_3638" fill="white">
<rect x="212.781" y="131" width="30.9995" height="23.4387" rx="1"/>
</mask>
<rect x="212.781" y="131" width="30.9995" height="23.4387" rx="1" fill="#ECEFF1" stroke="black" stroke-width="4" mask="url(#path-41-inside-2_851_3638)"/>
<path d="M247.692 153.304H209.576C209.333 153.304 209.191 153.578 209.33 153.776L214.203 160.737C214.259 160.818 214.351 160.865 214.449 160.865H242.124C242.215 160.865 242.301 160.824 242.358 160.753L247.927 153.792C248.084 153.595 247.944 153.304 247.692 153.304Z" fill="#607D8B" stroke="black" stroke-width="2"/>
<rect x="35.0975" y="131.988" width="2.4925" height="3.7425" fill="#ECEFF1" stroke="black" stroke-width="1.57"/>
<circle cx="43.0625" cy="133.703" r="5.1525" fill="#607D8B" stroke="black" stroke-width="1.57"/>
<rect x="31.3475" y="129.488" width="3.43" height="8.1175" rx="1.715" fill="#ECEFF1" stroke="black" stroke-width="1.57"/>
<mask id="path-46-inside-3_851_3638" fill="white">
<rect x="14" y="140.578" width="10" height="23.125" rx="1.5625"/>
</mask>
<rect x="14" y="140.578" width="10" height="23.125" rx="1.5625" fill="#607D8B" stroke="black" stroke-width="3.14" mask="url(#path-46-inside-3_851_3638)"/>
<rect x="13.2225" y="123.863" width="11.8675" height="19.68" rx="2.34" fill="#ECEFF1" stroke="black" stroke-width="1.57"/>
<rect x="9.785" y="127.301" width="22.18" height="12.805" rx="2.34" fill="#607D8B" stroke="black" stroke-width="1.57"/>
<path d="M16.035 132.926H19.1525V135.422C19.1525 136.283 18.4546 136.981 17.5937 136.981C16.7329 136.981 16.035 136.283 16.035 135.422V132.926Z" fill="#ECEFF1" stroke="black" stroke-width="1.57"/>
</svg>
