<svg width="260" height="178" viewBox="0 0 260 178" fill="none" xmlns="http://www.w3.org/2000/svg">
<rect width="260" height="178" fill="white"/>
<path d="M236.512 82.2035V106.638C236.512 108.48 235.018 109.974 233.175 109.974H209.336C207.494 109.974 206 108.48 206 106.638V74.3363C206 72.4937 207.494 71 209.336 71H225.189M236.512 82.2035L225.547 81.7268L225.189 71M236.512 82.2035L225.189 71" stroke="black" stroke-linecap="round"/>
<path d="M211.959 97.4603V91.1416C211.959 89.299 213.453 87.8053 215.295 87.8053H226.977C228.82 87.8053 230.314 89.299 230.314 91.1416V97.4603C230.314 99.3029 228.82 100.797 226.977 100.797H215.295C213.453 100.797 211.959 99.3029 211.959 97.4603Z" stroke="black" stroke-linecap="round"/>
<path d="M212.197 92.4536H230.194" stroke="black" stroke-linecap="round"/>
<path d="M212.197 96.6251H230.194" stroke="black" stroke-linecap="round"/>
<path d="M219.23 87.9245V100.558" stroke="black" stroke-linecap="round"/>
<path d="M133.253 76.7576V71.6315C133.253 71.2827 132.97 71 132.621 71H106.631C106.283 71 106 71.2827 106 71.6315V109.52C106 109.869 106.283 110.152 106.631 110.152H124.363C124.526 110.152 124.682 110.089 124.799 109.977L133.057 102.086C133.182 101.967 133.253 101.802 133.253 101.629V90.5759" stroke="black" stroke-linecap="round"/>
<path d="M132.87 101.515H124.481C124.132 101.515 123.85 101.798 123.85 102.147V104.97" stroke="black" stroke-linecap="round"/>
<path d="M123.85 109.768V107.081" stroke="black" stroke-linecap="round"/>
<path d="M111.113 100.488L112.989 102.676C113.222 102.948 113.635 102.971 113.898 102.727L118.79 98.1846" stroke="black" stroke-linecap="round"/>
<path d="M121.657 91.9836L128.454 84.9978L138.142 74.8252C139.137 73.7808 140.802 73.7799 141.798 74.8231L142.261 75.3079C143.222 76.3146 143.187 77.9091 142.184 78.8734L134.211 86.5332L125.301 95.2543C125.229 95.3248 125.141 95.377 125.045 95.4066L121.307 96.5566C120.829 96.7036 120.378 96.264 120.513 95.7828L121.501 92.2537C121.53 92.1521 121.583 92.0592 121.657 91.9836Z" stroke="black" stroke-linecap="round"/>
<path d="M132.295 83.6543L134.406 85.5735" stroke="black" stroke-linecap="round"/>
<path d="M141.889 75.4018L135.363 81.5432" stroke="black" stroke-linecap="round"/>
<path d="M110.799 81.1718H125.577" stroke="black" stroke-linecap="round"/>
<path d="M110.799 85.394H120.395" stroke="black" stroke-linecap="round"/>
<path d="M110.799 89.2325H118.092" stroke="black" stroke-linecap="round"/>
<path d="M209.123 164.898C206.912 165.579 203.405 160.913 205.027 153.346C206.614 145.941 204.361 134.567 203 130.031H224.485C224.774 130.615 224.832 132.513 224.485 133.81M209.123 164.898C210.314 164.275 212.797 162.211 213.205 158.945H233.785C233.105 160.93 231.166 164.898 228.853 164.898H209.123Z" stroke="black"/>
<path d="M208.102 136.664H216.095" stroke="black" stroke-linecap="round"/>
<path d="M208.102 140.917H212.184" stroke="black" stroke-linecap="round"/>
<path d="M208.135 146.241H218.81" stroke="black" stroke-linecap="round"/>
<path d="M226.106 155.97C224.755 153.403 224.485 151.782 225.451 148.403C225.674 147.624 226.224 144.269 225.451 142.863" stroke="black" stroke-linecap="round"/>
<path d="M221.271 139.328L227.089 133.349L235.381 124.642C236.233 123.748 237.658 123.747 238.511 124.64L238.907 125.055C239.729 125.917 239.7 127.282 238.841 128.107L232.017 134.663L224.39 142.128C224.329 142.188 224.253 142.233 224.171 142.258L220.972 143.242C220.563 143.368 220.177 142.992 220.292 142.58L221.138 139.559C221.163 139.473 221.208 139.393 221.271 139.328Z" stroke="black" stroke-linecap="round"/>
<path d="M230.375 132.199L232.182 133.842" stroke="black" stroke-linecap="round"/>
<path d="M238.589 125.136L233.004 130.392" stroke="black" stroke-linecap="round"/>
<path d="M26 101.213V77.6792C26 76.3139 27.1068 75.2071 28.4721 75.2071H49.2807C50.6459 75.2071 51.7527 76.3139 51.7527 77.6792V103.244C51.7527 103.978 51.4269 104.674 50.8632 105.143L45.5559 109.566C45.1116 109.936 44.5516 110.139 43.9733 110.139H28.4721C27.1068 110.139 26 109.032 26 107.667V105.039" stroke="black" stroke-linecap="round"/>
<path d="M32.1191 74.9521V74.0214C32.1191 72.3527 33.4719 71 35.1406 71H54.9779C56.6466 71 57.9994 72.3527 57.9994 74.0214V102.656C57.9994 104.324 56.6466 105.677 54.9779 105.677H50.605" stroke="black" stroke-linecap="round"/>
<path d="M44.4854 110.012L44.3695 107.286C44.2945 105.525 45.7366 104.074 47.498 104.138L51.2424 104.275" stroke="black" stroke-linecap="round"/>
<path d="M30.7188 82.0915H47.5473" stroke="black" stroke-linecap="round"/>
<path d="M30.7188 85.9162H47.5473" stroke="black" stroke-linecap="round"/>
<path d="M30.7188 89.7408H47.5473" stroke="black" stroke-linecap="round"/>
<path d="M30.7188 93.5655H47.5473" stroke="black" stroke-linecap="round"/>
<path d="M30.7188 97.3902H47.5473" stroke="black" stroke-linecap="round"/>
<path d="M30.7188 101.215H47.5473" stroke="black" stroke-linecap="round"/>
<path d="M119.736 129H130.783C132.338 129 133.835 129.593 134.968 130.659L141.431 136.738C142.659 137.892 143.355 139.502 143.355 141.188V160.474C143.355 163.848 140.62 166.583 137.246 166.583H119.736C116.362 166.583 113.627 163.848 113.627 160.474V135.109C113.627 131.735 116.362 129 119.736 129Z" stroke="black" stroke-linecap="round"/>
<path d="M132.84 129.363C132.591 131.494 132.744 135.711 134.971 137.408C135.575 137.868 136.371 137.913 137.13 137.935C138.948 137.988 141.591 138.346 142.991 139.514" stroke="black" stroke-linecap="round"/>
<path d="M113.746 132.867L112.882 133.619C111.119 135.155 110.387 137.563 110.997 139.82L113.625 149.544" stroke="black" stroke-linecap="round"/>
<path d="M118.34 166.583L119.447 167.346C120.963 168.392 122.871 168.698 124.639 168.178L130.062 166.583" stroke="black" stroke-linecap="round"/>
<path d="M143.232 163.079L144.27 161.802C145.581 160.188 145.981 158.017 145.331 156.041L143.353 150.027" stroke="black" stroke-linecap="round"/>
<path d="M118.822 143.26H127.402" stroke="black" stroke-linecap="round"/>
<path d="M118.822 148.094H137.433" stroke="black" stroke-linecap="round"/>
<path d="M118.822 152.927H137.433" stroke="black" stroke-linecap="round"/>
<path d="M118.822 157.761H137.433" stroke="black" stroke-linecap="round"/>
<path d="M215.158 31.3068L217.346 33.6632" stroke="black" stroke-linecap="round"/>
<path d="M205.901 28.1087C204.05 31.8117 203.646 35.2117 208.09 35.3464C210.104 35.4074 218.645 30.4935 218.693 24.4578C218.694 24.4233 218.691 24.3894 218.684 24.3556C218.372 22.8942 216.55 20.6277 211.624 22.8908" stroke="black" stroke-linecap="round"/>
<path d="M211.287 26.5939L212.774 24.971C212.976 24.7511 212.963 24.4099 212.745 24.2061L208.061 19.8245C207.97 19.7393 207.911 19.6254 207.894 19.5018L207.497 16.6276C207.459 16.3585 207.229 16.1581 206.958 16.1581H204.117C203.966 16.1581 203.822 16.2207 203.72 16.3309L199.314 21.0509C199.22 21.1516 199.168 21.2843 199.168 21.4221V24.03C199.168 24.3305 199.412 24.574 199.712 24.574H202.487C202.626 24.574 202.759 24.6268 202.86 24.7215L207.873 29.4309C208.087 29.6321 208.422 29.6268 208.63 29.4191L209.435 28.6137" stroke="black" stroke-linecap="round"/>
<path d="M223.912 21.376V29.7528C223.912 30.0533 224.156 30.2969 224.456 30.2969H232.665" stroke="black" stroke-linecap="round"/>
<path d="M208.256 41.0692H222.731" stroke="black" stroke-linecap="round"/>
<path d="M208.256 45.2772H222.731" stroke="black" stroke-linecap="round"/>
<path d="M213.475 16.1581H219.131C219.281 16.1581 219.424 16.22 219.527 16.3291L232.852 30.4764C232.947 30.5773 233 30.7107 233 30.8493V51" stroke="black" stroke-linecap="round"/>
<path d="M199 30.1285V50.6634" stroke="black" stroke-linecap="round"/>
<path d="M21.0001 27.4376V40.5054C21.0001 43.342 23.2996 45.6415 26.1362 45.6415H50.4178C53.2544 45.6415 55.5539 43.342 55.5539 40.5054V23.136C55.5539 20.2995 53.2544 18 50.4178 18H39.3348M61.1953 22.9613V45.4667C61.1953 48.3033 58.8958 50.6027 56.0593 50.6027H27.3467" stroke="black" stroke-linecap="round"/>
<path d="M33.9601 18.451L23.8567 23.5962C23.4772 23.7895 23.5333 24.3482 23.9436 24.4622L32.3631 26.8009C32.6203 26.8724 32.885 26.714 32.9436 26.4535L34.6275 18.9695C34.7143 18.5838 34.3124 18.2716 33.9601 18.451Z" stroke="black" stroke-linecap="round"/>
<path d="M49.5846 29.6119H36.6328" stroke="black" stroke-linecap="round"/>
<path d="M49.5833 37.651H27.6992" stroke="black" stroke-linecap="round"/>
<rect x="121.039" y="12.6081" width="31.1539" height="35.1732" rx="11.928" transform="rotate(14.3145 121.039 12.6081)" stroke="black"/>
<path d="M120.066 19.0794L116.384 19.9535C109.988 21.4713 105.881 27.7061 107.01 34.1811L108.028 40.0161C109.262 47.0926 116.221 51.6521 123.202 49.958L124.241 49.7058" stroke="black" stroke-linecap="round"/>
<path d="M124.969 26.5218L142.032 31.6045" stroke="black" stroke-linecap="round"/>
<path d="M123.152 33.7828L134.044 36.8687" stroke="black" stroke-linecap="round"/>
<path d="M46.4409 130.542H29.695C24.8929 130.542 21 134.435 21 139.237V156.305C21 161.107 24.8929 165 29.695 165H49.0172C53.8193 165 57.7122 161.107 57.7122 156.305V144.068" stroke="black" stroke-linecap="round"/>
<path d="M30.3398 149.542H40.323" stroke="black" stroke-linecap="round"/>
<path d="M30.3398 156.305H48.3739" stroke="black" stroke-linecap="round"/>
<circle cx="52.7211" cy="136.5" r="5.77972" stroke="black"/>
</svg>
