<svg width="128" height="154" viewBox="0 0 128 154" fill="none" xmlns="http://www.w3.org/2000/svg">
<path d="M86.1308 0H5.64685C0.281858 0.847199 0.28125 7.05999 0.28125 10.4488V146.001C0.28125 151.197 4.61138 153.249 6.77644 153.625H120.866C127.418 153.625 128.302 148.542 127.926 146.001V41.7952L86.1308 0Z" fill="#F7F5FB"/>
<path d="M90.3649 42.0772H127.642L86.1289 0.564453V38.406C86.1289 42.2467 88.9529 42.0772 90.3649 42.0772Z" fill="#FDB876"/>
<path fill-rule="evenodd" clip-rule="evenodd" d="M63.5398 96.2984C80.0721 96.2984 93.4742 82.8964 93.4742 66.3641C93.4742 49.8318 80.0721 36.4297 63.5398 36.4297C47.0075 36.4297 33.6055 49.8318 33.6055 66.3641C33.6055 82.8964 47.0075 96.2984 63.5398 96.2984ZM77.1881 67.9401C78.4014 67.2397 78.4014 65.4884 77.1881 64.788L58.0791 53.7553C56.8658 53.0549 55.3492 53.9305 55.3492 55.3314L55.3492 77.3967C55.3492 78.7976 56.8658 79.6732 58.0791 78.9728L77.1881 67.9401Z" fill="#FDB876"/>
<path fill-rule="evenodd" clip-rule="evenodd" d="M0 109.854H127.645V145C127.763 147.833 126.6 153.5 121 153.5H7C4.66667 153.5 0 152.4 0 148V109.854ZM35.2889 119.337H29.8254V143.983H34.1095V127.015H34.3382L41.1495 143.911H44.3506L51.1618 127.051H51.3905V143.983H55.6746V119.337H50.2111L42.8944 137.196H42.6056L35.2889 119.337ZM60.5364 119.337V143.983H65.001V135.655H69.7184C71.6198 135.655 73.2203 135.306 74.52 134.608C75.8197 133.902 76.8025 132.936 77.4683 131.708C78.1342 130.481 78.4672 129.077 78.4672 127.496C78.4672 125.932 78.1342 124.536 77.4683 123.308C76.8105 122.073 75.8357 121.102 74.5441 120.396C73.2604 119.69 71.6719 119.337 69.7786 119.337H60.5364ZM65.001 131.985H69.1167C70.2238 131.985 71.1304 131.792 71.8364 131.407C72.5424 131.022 73.0639 130.493 73.4008 129.819C73.7458 129.145 73.9183 128.371 73.9183 127.496C73.9183 126.622 73.7458 125.852 73.4008 125.186C73.0639 124.52 72.5384 124.002 71.8244 123.633C71.1184 123.256 70.2078 123.068 69.0926 123.068H65.001V131.985ZM81.6592 135.86V139.41H93.4165V143.983H97.6766V139.41H100.829V135.74H97.6766V119.337H95.0772H93.4646H92.1168L81.6592 135.86ZM93.4646 124.391H93.2721L86.2322 135.547V135.74H93.4646V124.391Z" fill="#FDB876"/>
</svg>
