<svg width="260" height="178" viewBox="0 0 260 178" fill="none" xmlns="http://www.w3.org/2000/svg">
<path fill-rule="evenodd" clip-rule="evenodd" d="M9 63.1208H22.5843V64.4742H10.3534V104.697H43.6466V64.4742H32.0951V63.1208H45V106.05H9V63.1208ZM21.3482 72.3599H32.5969L34.9066 79.9686H36.6085L38.0569 88.6589H35.8691C35.7862 88.8979 35.6612 89.1964 35.4777 89.5023C35.0515 90.2125 34.2698 91.0154 32.9553 91.1031C31.5916 91.194 30.7148 90.3573 30.2267 89.6349C29.987 89.2801 29.8202 88.9262 29.7123 88.6589H24.6205C24.607 88.6824 24.5929 88.7067 24.5781 88.7318C24.4229 88.9956 24.1935 89.35 23.8994 89.7029C23.3472 90.3656 22.3982 91.2227 21.1596 91.1013C20.0398 90.9917 19.2756 90.1672 18.8357 89.5296C18.6141 89.2084 18.4477 88.8957 18.3347 88.6589H16.1852L17.9554 79.9686H19.8536L21.3482 72.3599ZM21.2329 79.9686H33.4923L31.5933 73.7133H22.4616L21.2329 79.9686ZM19.8813 88.6589C19.9034 88.6929 19.9262 88.7269 19.9497 88.761C20.326 89.3064 20.7846 89.7048 21.2915 89.7544C21.8115 89.8053 22.3571 89.4396 22.8597 88.8364C22.9089 88.7774 22.9561 88.718 23.0011 88.6589H19.8813ZM31.2123 88.6589C31.2538 88.7314 31.299 88.8046 31.3481 88.8772C31.7091 89.4115 32.191 89.7976 32.8653 89.7527C33.5888 89.7044 34.03 89.2845 34.3171 88.806C34.3466 88.7568 34.374 88.7077 34.3995 88.6589H31.2123ZM30.8472 87.8095C30.847 87.8087 30.8469 87.8082 30.8468 87.8081L30.847 87.8086L30.8471 87.8092L30.8472 87.8095ZM19.0609 81.322L17.8421 87.3055H36.4593L35.4621 81.322H19.0609ZM24.7582 85.1263H21.2256V83.7729H24.7582V85.1263ZM32.9103 85.1263H29.5136V83.7729H32.9103V85.1263ZM36.7146 97.6263H17.693V96.2729H36.7146V97.6263ZM32.3668 101.838H21.769V100.485H32.3668V101.838Z" fill="black"/>
<path fill-rule="evenodd" clip-rule="evenodd" d="M28.4725 60.1379C30.3814 60.6096 31.8706 62.1877 32.6621 63.4349C32.7309 63.5433 32.7674 63.6691 32.7674 63.7975V68.0095C32.7674 68.3832 32.4644 68.6861 32.0907 68.6861H22.7158C22.342 68.6861 22.0391 68.3832 22.0391 68.0095V63.7975C22.0391 63.6599 22.081 63.5255 22.1594 63.4123C23.1831 61.9337 24.2483 60.9846 25.331 60.4705C26.4251 59.9511 27.4952 59.8964 28.4725 60.1379ZM23.3924 64.0119V67.3328H31.414V63.9991C30.6962 62.9341 29.5058 61.7873 28.1478 61.4517C27.4573 61.2811 26.7085 61.3147 25.9115 61.6931C25.1378 62.0604 24.2821 62.7707 23.3924 64.0119Z" fill="black"/>
<path fill-rule="evenodd" clip-rule="evenodd" d="M222.168 149.19C223.026 150.816 223.031 152.723 222.804 153.969L222.706 154.509L222.204 154.73C217.822 156.658 213.142 155.538 211.306 154.73L210.847 154.528L210.722 154.042C210.416 152.858 210.302 151.021 211.07 149.401C211.889 147.674 213.61 146.4 216.521 146.309C217.958 146.264 219.146 146.535 220.103 147.066C221.063 147.598 221.728 148.358 222.168 149.19ZM219.101 148.873C218.53 148.557 217.726 148.339 216.586 148.375C214.343 148.445 213.381 149.351 212.938 150.286C212.53 151.147 212.491 152.187 212.621 153.028C214.307 153.626 217.661 154.236 220.842 153.053C220.918 152.15 220.811 151.046 220.34 150.155C220.065 149.633 219.668 149.187 219.101 148.873Z" fill="black"/>
<path fill-rule="evenodd" clip-rule="evenodd" d="M204.848 130.204H251V162.064H204.848V130.204ZM206.914 132.271V159.998H248.934V132.271H206.914ZM237.084 147.57H227.622V145.504H237.084V147.57ZM245.337 147.57H240.707V145.504H245.337V147.57ZM245.337 154.817H227.622V152.751H245.337V154.817Z" fill="black"/>
<path fill-rule="evenodd" clip-rule="evenodd" d="M217.162 142.187C217.464 141.813 217.704 141.222 217.704 140.498C217.704 139.773 217.464 139.182 217.162 138.809C216.862 138.439 216.563 138.337 216.348 138.337C216.133 138.337 215.834 138.439 215.534 138.809C215.232 139.182 214.992 139.773 214.992 140.498C214.992 141.222 215.232 141.813 215.534 142.187C215.834 142.556 216.133 142.658 216.348 142.658C216.563 142.658 216.862 142.556 217.162 142.187ZM216.348 144.725C218.238 144.725 219.77 142.832 219.77 140.498C219.77 138.163 218.238 136.27 216.348 136.27C214.458 136.27 212.926 138.163 212.926 140.498C212.926 142.832 214.458 144.725 216.348 144.725Z" fill="black"/>
<path fill-rule="evenodd" clip-rule="evenodd" d="M207.818 60H222.041V64.0597H251.999V81.2217H248.359V96.3407H242.536V81.2217H239.819V106H213.838V81.2217H211.261V96.3407H205.019V81.2217H201.379V64.0597H207.818V60ZM209.721 64.0597H211.738V61.903H209.721V64.0597ZM213.641 61.903V64.0597H215.938V61.903H213.641ZM217.841 61.903V64.0597H220.138V61.903H217.841ZM206.922 81.2217V94.4377H209.358V81.2217H206.922ZM213.838 79.3187V75.6221H212.13V73.7191H241.388V75.6221H239.819V79.3187H250.096V65.9627H203.282V79.3187H213.838ZM237.916 75.6221H215.741V104.097H237.916V75.6221ZM244.439 81.2217V94.4377H246.456V81.2217H244.439ZM234.808 80.2417H226.269V78.3388H234.808V80.2417ZM221.072 85.7552C219.94 85.7465 219.058 85.7304 218.744 85.6956L218.954 83.8042C219.144 83.8253 219.897 83.8431 221.086 83.8522C222.242 83.8611 223.742 83.862 225.367 83.8579C228.615 83.8497 232.351 83.8217 234.799 83.7984L234.817 85.7013C232.366 85.7247 228.626 85.7527 225.372 85.7609C223.745 85.765 222.237 85.7641 221.072 85.7552ZM234.808 91.021H218.849V89.118H234.808V91.021Z" fill="black"/>
<path fill-rule="evenodd" clip-rule="evenodd" d="M226.831 99.5058C227.79 99.5058 228.568 98.7282 228.568 97.769C228.568 96.8098 227.79 96.0323 226.831 96.0323C225.872 96.0323 225.094 96.8098 225.094 97.769C225.094 98.7282 225.872 99.5058 226.831 99.5058ZM226.831 101.409C228.841 101.409 230.471 99.7792 230.471 97.769C230.471 95.7588 228.841 94.1293 226.831 94.1293C224.821 94.1293 223.191 95.7588 223.191 97.769C223.191 99.7792 224.821 101.409 226.831 101.409Z" fill="black"/>
<path d="M233.748 70.2476C233.748 70.9676 233.164 71.5512 232.444 71.5512C231.724 71.5512 231.141 70.9676 231.141 70.2476C231.141 69.5276 231.724 68.944 232.444 68.944C233.164 68.944 233.748 69.5276 233.748 70.2476Z" fill="black"/>
<path d="M240.267 70.2476C240.267 70.9676 239.684 71.5512 238.964 71.5512C238.244 71.5512 237.66 70.9676 237.66 70.2476C237.66 69.5276 238.244 68.944 238.964 68.944C239.684 68.944 240.267 69.5276 240.267 70.2476Z" fill="black"/>
<path d="M246.783 70.2476C246.783 70.9676 246.199 71.5512 245.479 71.5512C244.759 71.5512 244.176 70.9676 244.176 70.2476C244.176 69.5276 244.759 68.944 245.479 68.944C246.199 68.944 246.783 69.5276 246.783 70.2476Z" fill="black"/>
<path fill-rule="evenodd" clip-rule="evenodd" d="M118.635 6H139.91V16.685H146.341L152 26.4064L145.977 45.8751H139.778V51.0197H118.899V45.8751H112.705L106.527 26.3603L113.314 16.685H118.635V6ZM118.635 18.7009H114.363L109.577 25.5232H149.153L145.182 18.7009H139.91V21.17H141.277V23.186H117.4V21.17H118.635V18.7009ZM120.651 21.17H137.894V8.01593H120.651V21.17ZM149.539 27.5391H109.015L114.181 43.8592H118.899V36.2454H117.4V34.2295H141.672V36.2454H139.778V43.8592H144.491L149.539 27.5391ZM137.762 36.2454H120.915V49.0038H137.762V36.2454ZM135.209 41.2581H123.6V39.2422H135.209V41.2581ZM135.209 45.6113H123.6V43.5953H135.209V45.6113Z" fill="black"/>
<path fill-rule="evenodd" clip-rule="evenodd" d="M212.421 7.70972V39.8001C214.818 38.4424 217.347 38.7666 218.993 39.3603V5.86846C215.696 5.18269 213.339 6.71927 212.421 7.70972ZM220.493 39.7745H233.163V37.2956H234.663V39.7745H242.939V31.4088H234.663V33.9773H233.163V29.9094H242.939V27.104H233.163V23.5742H234.663V25.6046H242.939V17.9564H234.663V19.9869H233.163V17.9564H229.909V25.0413H225.931V23.5419H228.41V17.9564H220.493V23.5419H223.061V25.0413H220.493V29.5019C223.083 29.4394 224.788 30.4099 225.813 31.8048C226.902 33.2859 227.136 35.1283 227.037 36.3688L226.982 37.0587H220.493V39.7745ZM220.493 35.5594H225.552C225.508 34.6487 225.246 33.5643 224.605 32.6926C223.903 31.7375 222.676 30.9381 220.493 31.0016V35.5594ZM220.493 16.457H244.438V41.2738H219.54L219.365 41.1717C218.115 40.4421 215.04 39.5794 212.422 41.5972C212.428 42.6033 212.478 43.7829 212.871 44.7483C213.083 45.2707 213.383 45.6952 213.806 45.9929C214.225 46.2883 214.824 46.5006 215.707 46.5006H249.306V11.3199H220.493V16.457ZM220.493 9.82052V4.70807L219.942 4.55626C215.431 3.31184 212.187 5.58677 211.086 6.963L210.922 7.16835L210.922 41.2904C210.922 42.3122 210.921 43.9357 211.482 45.3131C211.774 46.0312 212.23 46.7166 212.942 47.2186C213.658 47.7229 214.573 48 215.707 48H250.805V9.82052H220.493Z" fill="black"/>
<path fill-rule="evenodd" clip-rule="evenodd" d="M10.6178 131.708C10.5977 131.811 10.5946 131.913 10.6004 131.988L10.6028 132.018V138.591H11.8762V135.052H27.055L23.6175 131.406H11.1797L11.1145 131.395C10.9145 131.362 10.8195 131.39 10.7864 131.403C10.7566 131.415 10.7312 131.434 10.703 131.477C10.6703 131.526 10.6382 131.604 10.6178 131.708ZM26.3781 136.65H13.4741V138.591H25.104L26.3781 136.65ZM28.6331 134.396H48.1764C48.7216 134.348 49.5161 134.435 50.2083 134.887C50.9725 135.386 51.5046 136.26 51.5046 137.555V160.628C51.5046 161.12 51.2814 161.732 50.7344 162.212C50.1787 162.699 49.3507 163 48.2148 163H11.7702C11.3553 163 10.7255 162.913 10.1682 162.619C9.57859 162.308 9.00485 161.715 9.00485 160.759V132.077C8.98063 131.688 9.03884 131.097 9.36996 130.596C9.55049 130.323 9.81514 130.074 10.1805 129.925C10.5227 129.784 10.9036 129.751 11.3067 129.808H24.3071L28.6331 134.396ZM28.7196 135.994L25.9666 140.189H10.6028V160.759C10.6028 160.957 10.6845 161.085 10.9143 161.206C11.1763 161.344 11.5297 161.402 11.7702 161.402H48.2148C49.0716 161.402 49.489 161.179 49.6806 161.01C49.8808 160.835 49.9067 160.661 49.9067 160.628V137.555C49.9067 136.752 49.6086 136.403 49.3349 136.225C49.0086 136.012 48.5829 135.96 48.2985 135.99L48.2568 135.994H28.7196Z" fill="black"/>
<path fill-rule="evenodd" clip-rule="evenodd" d="M113.126 123H126.392L130.356 127.335H147.858V134.395H152.003L146.467 166.03H114.009L109 134.395H113.126V123ZM115.037 134.395H145.948V129.245H129.514L125.551 124.91H115.037V134.395ZM111.236 136.305L115.64 164.12H144.862L149.73 136.305H111.236ZM129.876 139.761L137.794 147.679L136.443 149.03L130.89 143.477V159.13H128.98V143.781L124.596 148.971L123.136 147.738L129.876 139.761Z" fill="black"/>
<path fill-rule="evenodd" clip-rule="evenodd" d="M13.6088 6H12.7426V6.86619V16.3346H10.0141H9L9.15859 17.3362L13.4272 44.296L13.5429 45.0268H14.2828H42.2536H42.9813L43.1068 44.3099L44.5849 35.8633H42.8262L41.5258 43.2944H15.0226L11.0283 18.067H13.6088H43.3769H45.9406L44.1905 28.0676H45.9492L47.8247 17.3501L48.0025 16.3346H46.9715H44.2431V10.7978V9.93164H43.3769H28.369L25.032 6.28171L24.7744 6H24.3927H13.6088ZM42.5107 16.3346H14.475V7.73238H24.011L27.3481 11.3823L27.6056 11.664H27.9873H42.5107V16.3346ZM28.5998 21.8679L27.9336 21.2018L27.3257 21.9214L21.8214 28.4367L23.1447 29.5547L27.1211 24.8479V38.7686H28.8535V24.5716L33.8901 29.6082L35.1151 28.3832L28.5998 21.8679Z" fill="black"/>
<path fill-rule="evenodd" clip-rule="evenodd" d="M144.455 67.2883C144.455 66.807 144.323 66.0814 143.959 65.503C143.62 64.9662 143.084 64.5455 142.152 64.5455H124.175V74.7589V75.5317H123.402H113.042V100.686V100.711L113.04 100.736C112.997 101.414 113.081 102.414 113.436 103.209C113.775 103.967 114.303 104.455 115.199 104.455H142.09C142.796 104.328 144.455 103.488 144.455 100.686V84.3794H146V100.686C146 104.382 143.637 105.796 142.261 105.992L142.207 106H142.152H115.199C113.517 106 112.531 104.974 112.025 103.839C111.541 102.754 111.446 101.498 111.496 100.662V74.7589V74.4358L111.726 74.2089L122.859 63.2227L123.085 63H123.402H142.152C143.68 63 144.682 63.7512 145.266 64.6792C145.825 65.5656 146 66.5978 146 67.2883V75.364H144.455V67.2883ZM114.152 73.9862L122.629 65.621V73.9862H114.152ZM129.741 83.4014V89.8063H136.292V91.3518H129.741V97.7567H128.195V91.3518H121.498V89.8063H128.195V83.4014H129.741Z" fill="black"/>
</svg>
