<svg width="442" height="338" viewBox="0 0 442 338" fill="none" xmlns="http://www.w3.org/2000/svg">
<g opacity="0.4">
<g filter="url(#filter0_d_642_7034)">
<path d="M308.11 9.05161L236.378 79.9318C229.167 88.4519 233.978 93.2568 237.285 94.5942L308.273 120.481C320.608 124.092 329.245 119.605 332.022 116.91L400.48 47.4938C408.403 39.6025 403.229 35.2687 399.651 34.0882L326.961 7.88561C316.658 4.48579 310.101 7.24635 308.11 9.05161Z" fill="white"/>
</g>
<path opacity="0.5" d="M282.387 61.9535L303.224 43.1334M282.387 61.9535L331.628 77.6242M282.387 61.9535C281.216 62.3606 285.577 61.7737 312.385 56.1696M303.224 43.1334L351.275 58.2534M303.224 43.1334L312.385 56.1696M351.275 58.2534L331.628 77.6242M351.275 58.2534L324.208 60.5667M331.628 77.6242L324.208 60.5667M312.385 56.1696L315.97 61.2707L324.208 60.5667" stroke="black" stroke-width="1.6789"/>
</g>
<g opacity="0.25">
<g filter="url(#filter1_d_642_7034)">
<path d="M119.293 32.8397L43.4868 99.3445C35.7839 107.422 40.3016 112.504 43.5233 114.035L112.853 144.083C124.952 148.419 133.84 144.451 136.772 141.926L209.223 76.6882C217.599 69.2802 212.691 64.6474 209.19 63.257L138.18 32.7929C128.097 28.7885 121.387 31.1556 119.293 32.8397Z" fill="#FFFBFB"/>
</g>
<g opacity="0.5">
<path d="M150.509 84.9343C148.877 95.9254 136.812 103.531 123.231 101.515C109.651 99.4984 100.316 88.7163 101.947 77.7251C103.579 66.734 115.644 59.1287 129.224 61.1449C142.805 63.161 152.14 73.9431 150.509 84.9343Z" stroke="black" stroke-width="2"/>
<path d="M115 80.3505L130.15 77.3477L132.162 90.9031L115 80.3505Z" fill="white" stroke="black" stroke-width="2"/>
</g>
</g>
<g filter="url(#filter2_d_642_7034)">
<path d="M217.849 85.7359L141.676 151.821C133.929 159.856 138.418 164.962 141.631 166.511L210.794 196.942C222.869 201.344 231.779 197.426 234.724 194.917L307.535 130.081C315.952 122.719 311.07 118.059 307.576 116.65L236.736 85.7935C226.675 81.7334 219.952 84.0634 217.849 85.7359Z" fill="white"/>
<path d="M215.322 113.432L183.621 138.52C178.372 144.049 181.209 147.679 183.284 148.802L226.317 164.464C231.316 166.529 236.888 164.019 239.049 162.507L264.371 138.792C271.58 131.428 266.631 126.198 263.256 124.504L229.61 112.317C221.447 110.149 216.683 112.157 215.322 113.432Z" stroke="black" stroke-width="3"/>
<path d="M245.604 136.72C245.513 139.5 243.586 142.194 240.043 144.217C236.524 146.227 231.62 147.429 226.174 147.25C220.727 147.072 215.912 145.551 212.533 143.316C209.13 141.064 207.384 138.25 207.475 135.47C207.566 132.691 209.493 129.996 213.036 127.973C216.554 125.964 221.458 124.761 226.905 124.94C232.352 125.118 237.166 126.639 240.546 128.875C243.949 131.126 245.695 133.94 245.604 136.72Z" stroke="black" stroke-width="3"/>
<ellipse cx="256.749" cy="132.335" rx="4.74797" ry="3.16532" transform="rotate(1.87749 256.749 132.335)" fill="black"/>
</g>
<g opacity="0.4">
<g filter="url(#filter3_d_642_7034)">
<path d="M337.545 123.512L261.575 189.829C253.852 197.887 258.357 202.98 261.575 204.519L330.83 234.739C342.918 239.105 351.816 235.159 354.754 232.641L427.367 167.583C435.761 160.196 430.864 155.551 427.367 154.152L356.433 123.512C346.359 119.483 339.644 121.833 337.545 123.512Z" fill="white"/>
</g>
<path opacity="0.5" d="M308.386 179.343L342.458 148.934L381.261 167.62L360.679 186.994M308.386 179.343L348.917 198.065L360.679 186.994M308.386 179.343C315.757 176.039 331.6 171.877 336.005 181.654C343.941 178.886 359.986 176.08 360.679 186.994" stroke="black" stroke-width="2"/>
<path d="M347.422 165.177C347.621 166.038 347.267 167.014 346.385 167.911C345.507 168.803 344.154 169.558 342.526 169.933C340.899 170.309 339.351 170.222 338.172 169.805C336.986 169.386 336.241 168.663 336.042 167.802C335.844 166.941 336.197 165.965 337.08 165.068C337.957 164.177 339.31 163.421 340.938 163.046C342.565 162.671 344.113 162.757 345.292 163.174C346.478 163.594 347.223 164.316 347.422 165.177Z" stroke="black"/>
</g>
<g opacity="0.25">
<g filter="url(#filter4_d_642_7034)">
<path d="M89.9233 157.694L14.5522 224.691C6.90203 232.819 11.4527 237.871 14.6843 239.381L84.208 268.977C96.3349 273.234 105.197 269.208 108.113 266.664L180.137 200.956C188.465 193.494 183.527 188.893 180.017 187.525L108.81 157.524C98.701 153.586 92.0068 155.996 89.9233 157.694Z" fill="white"/>
</g>
</g>
<g opacity="0.25">
<g filter="url(#filter5_d_642_7034)">
<path d="M206.759 210.328L133.673 279.811C126.3 288.191 131.017 293.088 134.297 294.488L204.773 321.74C217.036 325.588 225.758 321.268 228.587 318.627L298.371 250.545C306.444 242.808 301.354 238.375 297.8 237.126L225.629 209.526C215.394 205.928 208.784 208.561 206.759 210.328Z" fill="white"/>
</g>
<path opacity="0.5" d="M206.398 262.73L203.426 281.761L245.987 255.166L200.76 248.686L196.094 247.624L206.398 262.73ZM206.398 262.73L228.062 258.448" stroke="black" stroke-width="2"/>
</g>
<path opacity="0.2" d="M100.644 196.778L98.1252 195.606C91.5589 192.92 87.5544 194.487 86.3729 195.606L73.3614 207.359C68.9962 211.724 71.5426 214.494 73.3614 215.334L98.1252 226.246C102.155 228.597 105.401 227.226 106.52 226.246L119.531 215.334C124.868 210.709 122.063 207.29 118.272 205.078M100.644 196.778L116.173 204.001C116.877 204.321 117.591 204.68 118.272 205.078M100.644 196.778C108.898 192.768 123.98 188.814 118.272 205.078" stroke="black" stroke-width="2"/>
<defs>
<filter id="filter0_d_642_7034" x="222.623" y="0.274414" width="192.023" height="135.556" filterUnits="userSpaceOnUse" color-interpolation-filters="sRGB">
<feFlood flood-opacity="0" result="BackgroundImageFix"/>
<feColorMatrix in="SourceAlpha" type="matrix" values="0 0 0 0 0 0 0 0 0 0 0 0 0 0 0 0 0 0 127 0" result="hardAlpha"/>
<feOffset dy="4"/>
<feGaussianBlur stdDeviation="5"/>
<feComposite in2="hardAlpha" operator="out"/>
<feColorMatrix type="matrix" values="0 0 0 0 0 0 0 0 0 0 0 0 0 0 0 0 0 0 0.25 0"/>
<feBlend mode="normal" in2="BackgroundImageFix" result="effect1_dropShadow_642_7034"/>
<feBlend mode="normal" in="SourceGraphic" in2="effect1_dropShadow_642_7034" result="shape"/>
</filter>
<filter id="filter1_d_642_7034" x="29.2441" y="24.5942" width="194.596" height="135.42" filterUnits="userSpaceOnUse" color-interpolation-filters="sRGB">
<feFlood flood-opacity="0" result="BackgroundImageFix"/>
<feColorMatrix in="SourceAlpha" type="matrix" values="0 0 0 0 0 0 0 0 0 0 0 0 0 0 0 0 0 0 127 0" result="hardAlpha"/>
<feOffset dy="4"/>
<feGaussianBlur stdDeviation="5"/>
<feComposite in2="hardAlpha" operator="out"/>
<feColorMatrix type="matrix" values="0 0 0 0 0 0 0 0 0 0 0 0 0 0 0 0 0 0 0.25 0"/>
<feBlend mode="normal" in2="BackgroundImageFix" result="effect1_dropShadow_642_7034"/>
<feBlend mode="normal" in="SourceGraphic" in2="effect1_dropShadow_642_7034" result="shape"/>
</filter>
<filter id="filter2_d_642_7034" x="112.203" y="77.6602" width="225.174" height="165.763" filterUnits="userSpaceOnUse" color-interpolation-filters="sRGB">
<feFlood flood-opacity="0" result="BackgroundImageFix"/>
<feColorMatrix in="SourceAlpha" type="matrix" values="0 0 0 0 0 0 0 0 0 0 0 0 0 0 0 0 0 0 127 0" result="hardAlpha"/>
<feOffset dy="19.3074"/>
<feGaussianBlur stdDeviation="12.5918"/>
<feComposite in2="hardAlpha" operator="out"/>
<feColorMatrix type="matrix" values="0 0 0 0 0 0 0 0 0 0 0 0 0 0 0 0 0 0 0.25 0"/>
<feBlend mode="normal" in2="BackgroundImageFix" result="effect1_dropShadow_642_7034"/>
<feBlend mode="normal" in="SourceGraphic" in2="effect1_dropShadow_642_7034" result="shape"/>
</filter>
<filter id="filter3_d_642_7034" x="247.311" y="115.287" width="194.691" height="135.409" filterUnits="userSpaceOnUse" color-interpolation-filters="sRGB">
<feFlood flood-opacity="0" result="BackgroundImageFix"/>
<feColorMatrix in="SourceAlpha" type="matrix" values="0 0 0 0 0 0 0 0 0 0 0 0 0 0 0 0 0 0 127 0" result="hardAlpha"/>
<feOffset dy="4"/>
<feGaussianBlur stdDeviation="5"/>
<feComposite in2="hardAlpha" operator="out"/>
<feColorMatrix type="matrix" values="0 0 0 0 0 0 0 0 0 0 0 0 0 0 0 0 0 0 0.25 0"/>
<feBlend mode="normal" in2="BackgroundImageFix" result="effect1_dropShadow_642_7034"/>
<feBlend mode="normal" in="SourceGraphic" in2="effect1_dropShadow_642_7034" result="shape"/>
</filter>
<filter id="filter4_d_642_7034" x="0.363281" y="149.394" width="194.34" height="135.446" filterUnits="userSpaceOnUse" color-interpolation-filters="sRGB">
<feFlood flood-opacity="0" result="BackgroundImageFix"/>
<feColorMatrix in="SourceAlpha" type="matrix" values="0 0 0 0 0 0 0 0 0 0 0 0 0 0 0 0 0 0 127 0" result="hardAlpha"/>
<feOffset dy="4"/>
<feGaussianBlur stdDeviation="5"/>
<feComposite in2="hardAlpha" operator="out"/>
<feColorMatrix type="matrix" values="0 0 0 0 0 0 0 0 0 0 0 0 0 0 0 0 0 0 0.25 0"/>
<feBlend mode="normal" in2="BackgroundImageFix" result="effect1_dropShadow_642_7034"/>
<feBlend mode="normal" in="SourceGraphic" in2="effect1_dropShadow_642_7034" result="shape"/>
</filter>
<filter id="filter5_d_642_7034" x="119.76" y="201.731" width="192.922" height="135.536" filterUnits="userSpaceOnUse" color-interpolation-filters="sRGB">
<feFlood flood-opacity="0" result="BackgroundImageFix"/>
<feColorMatrix in="SourceAlpha" type="matrix" values="0 0 0 0 0 0 0 0 0 0 0 0 0 0 0 0 0 0 127 0" result="hardAlpha"/>
<feOffset dy="4"/>
<feGaussianBlur stdDeviation="5"/>
<feComposite in2="hardAlpha" operator="out"/>
<feColorMatrix type="matrix" values="0 0 0 0 0 0 0 0 0 0 0 0 0 0 0 0 0 0 0.25 0"/>
<feBlend mode="normal" in2="BackgroundImageFix" result="effect1_dropShadow_642_7034"/>
<feBlend mode="normal" in="SourceGraphic" in2="effect1_dropShadow_642_7034" result="shape"/>
</filter>
</defs>
</svg>
