<svg width="260" height="178" viewBox="0 0 260 178" fill="none" xmlns="http://www.w3.org/2000/svg">
<path d="M43.7102 42.7607C42.8171 42.7608 42.093 43.4859 42.0929 44.3804C42.0929 45.2748 42.8171 45.9999 43.7102 46H52.3827C53.2759 46 54 45.2749 54 44.3804C54 43.4859 53.2759 42.7607 52.3827 42.7607H43.7102ZM34.8745 7.00491C34.0342 6.40541 32.8816 5.71828 31.5715 6.11987C30.9558 6.30862 30.4939 6.68717 30.1497 7.04041C29.8927 7.30418 29.6455 7.61343 29.4057 7.93634L29.1684 8.26252L29.1677 8.26358L26.0483 12.6294L26.0314 12.655L11 35.4548L12.1168 46H38.0733C38.9665 46 39.6905 45.2749 39.6905 44.3804C39.6905 43.4859 38.9664 42.7607 38.0733 42.7607H23.7259L30.0672 33.8098L27.4293 31.9353L21.2628 40.6395L14.9807 42.3252L14.3391 36.2688L27.8217 15.8184L34.9422 20.7342L31.3297 25.8592C30.8147 26.59 30.9885 27.6006 31.7182 28.1165C32.4479 28.6323 33.4571 28.4578 33.9722 27.727L41.7739 16.6591C42.17 16.1316 42.8187 15.1957 42.6784 13.9815C42.5359 12.7488 41.6583 11.7864 40.5718 10.9566L40.542 10.9342L40.5115 10.9131L34.8745 7.00491ZM29.6843 31.5519C28.9559 31.0343 27.9462 31.2059 27.4293 31.9353L30.0672 33.8098C30.5841 33.0803 30.4127 32.0695 29.6843 31.5519ZM32.4633 9.30432C32.5825 9.36569 32.7596 9.47245 33.0133 9.65405L33.0235 9.66108L33.0333 9.66811L38.6324 13.5496C39.0513 13.8717 39.2758 14.107 39.3901 14.2599C39.4113 14.2883 39.4271 14.3123 39.4392 14.3316C39.3975 14.4142 39.3186 14.5409 39.1662 14.7428L39.15 14.7639L39.1349 14.7857L36.8073 18.0879L29.6541 13.1492L31.7982 10.1486C32.1005 9.72633 32.3049 9.46725 32.4633 9.30432Z" fill="black"/>
<path d="M144.22 9.03337C146.814 8.81106 149.14 9.71161 150.754 11.3709C154.05 14.7594 153.962 20.6576 149.035 25.5519L149.035 25.5523L146.898 27.7201L146.893 27.7248L146.889 27.7299L129.595 44.9671L115.016 47L117.06 32.3608L134.258 15.2184L136.291 13.1535L136.298 13.1471L136.305 13.1407C138.893 10.5744 141.635 9.25486 144.22 9.03337ZM120.023 33.8164L118.692 43.3472L128.114 42.0333L143.562 26.636L135.372 18.5163L120.023 33.8164ZM148.497 13.5297C147.556 12.5629 146.167 11.9878 144.49 12.1315C142.804 12.2759 140.72 13.1624 138.53 15.3318L137.574 16.3015L145.764 24.4219L146.793 23.3787L146.799 23.3723L146.805 23.3662C150.867 19.339 150.307 15.3907 148.497 13.5297Z" fill="black"/>
<path d="M250.912 16.8686L234.874 32.9068H226.184V23.5908L241.774 8L250.912 16.8686ZM229.038 24.7728V30.0528H233.692L246.845 16.8989L241.804 12.006L229.038 24.7728Z" fill="black"/>
<path d="M232.197 9.20117V12.0552H215.901V42.146H246.2V28.5601H249.054V45H213.047V9.20117H232.197Z" fill="black"/>
<path d="M41.1971 73.2142V71.94C41.1971 69.8328 39.4888 68.1245 37.3816 68.1245H14.8155C12.7083 68.1245 11 69.8328 11 71.94V99.1845C11 101.292 12.7083 103 14.8155 103H37.3816C39.4888 103 41.1971 101.292 41.1971 99.1845V94.3684" stroke="black" stroke-width="2.28301" stroke-linecap="round"/>
<path d="M42.0588 76.8341L28.9469 89.946C28.8933 89.9995 28.8633 90.0721 28.8633 90.1478V95.4859C28.8633 95.6435 28.991 95.7713 29.1487 95.7713H34.4868C34.5625 95.7713 34.635 95.7412 34.6886 95.6877L47.8005 82.5758C47.9119 82.4644 47.9119 82.2837 47.8005 82.1722L42.4624 76.8341C42.3509 76.7227 42.1702 76.7227 42.0588 76.8341Z" stroke="black" stroke-width="2.28301" stroke-linecap="round"/>
<path d="M17.9102 77.9062H34.7099M17.9102 85.3492H28.5429M17.9102 92.5795H24.7151" stroke="black" stroke-width="2.28301" stroke-linecap="round"/>
<path d="M114.027 108L119.699 102.376M142.161 80.1049L119.699 102.376M119.699 102.376V85.9539L131.497 74.9327C144.884 61.659 160.765 78.0825 148.74 90.0051L135.581 102.376H119.699Z" stroke="black" stroke-width="2.84475" stroke-linecap="round"/>
<path d="M235.208 109.668H239.642C248.046 109.668 247.579 101.262 239.642 101.262H218.63C206.016 101.496 205.566 93.0906 218.63 93.0906H219.096" stroke="black" stroke-width="2.66841" stroke-linecap="round"/>
<path d="M224.548 86.2328L240.598 70.1827C240.713 70.068 240.898 70.0668 241.014 70.1799L249.462 78.4051C249.58 78.5204 249.582 78.7103 249.465 78.8272L232.953 95.3387C232.898 95.3943 232.822 95.4255 232.744 95.4255H224.757C224.594 95.4255 224.461 95.2928 224.461 95.129V86.4425C224.461 86.3638 224.492 86.2884 224.548 86.2328Z" stroke="black" stroke-width="2.66841" stroke-linecap="round"/>
<path d="M211 155.588V165.274H221.431L246.019 140.686C246.019 136.961 243.039 131 235.903 131L211 155.588Z" stroke="black" stroke-width="3.527"/>
<path d="M230.621 166.019H249.003" stroke="black" stroke-width="3.527"/>
<path d="M117.883 158.387H131.431M138.743 158.387H144.119" stroke="black" stroke-width="2.84533"/>
<path d="M117.883 148.494H121.539M128.851 148.494H144.119" stroke="black" stroke-width="2.84533"/>
<rect x="112.423" y="131.423" width="37.1547" height="34.1439" rx="5.69066" stroke="black" stroke-width="2.84533"/>
<circle cx="135.085" cy="138.601" r="2.44799" stroke="black" stroke-width="2.84533"/>
<circle cx="125.191" cy="148.494" r="2.44799" stroke="black" stroke-width="2.84533"/>
<circle cx="135.085" cy="158.387" r="2.44799" stroke="black" stroke-width="2.84533"/>
<path d="M117.883 138.602H131.431M138.743 138.602H144.119" stroke="black" stroke-width="2.84533"/>
<path d="M28.7617 163.92H52.5127M35.2393 152.765H52.5127M41.3569 141.969H52.5127" stroke="black" stroke-width="3.00598" stroke-linecap="round"/>
<path d="M22.0123 137.291L11 156.364L13.519 165L22.5156 161.762L33.2412 143.184C39.3454 132.612 28.2455 126.494 22.0123 137.291Z" stroke="black" stroke-width="3.00598" stroke-linecap="round"/>
</svg>
