<svg width="260" height="178" viewBox="0 0 260 178" fill="none" xmlns="http://www.w3.org/2000/svg">
<rect width="260" height="178" fill="white"/>
<path d="M207.442 154.479H232.47V154.648C232.47 154.772 232.369 154.873 232.244 154.873C232.12 154.873 232.019 154.974 232.019 155.099V157.41C232.019 157.534 232.12 157.635 232.244 157.635C232.369 157.635 232.47 157.736 232.47 157.861V158.086H207.442C206.446 158.086 205.639 157.279 205.639 156.283C205.639 155.286 206.446 154.479 207.442 154.479Z" stroke="black" stroke-width="0.62872"/>
<path d="M223.675 154.535C223.018 154.61 221.995 155.099 222.041 156.339C222.059 156.846 222.435 157.895 223.788 158.03" stroke="black" stroke-width="0.62872" stroke-linecap="round"/>
<path d="M205.853 148.955L205.74 149.057C205.664 149.127 205.713 149.253 205.816 149.253H205.92C205.982 149.253 206.033 149.304 206.033 149.366V153.841C206.033 153.904 205.982 153.954 205.92 153.954H205.79C205.69 153.954 205.64 154.073 205.708 154.145L205.785 154.225C205.907 154.352 206.076 154.424 206.253 154.424H232.751C233.311 154.424 233.766 153.97 233.766 153.409V149.857C233.766 149.296 233.311 148.842 232.751 148.842H206.144C206.036 148.842 205.932 148.882 205.853 148.955Z" stroke="black" stroke-width="0.62872" stroke-linecap="round"/>
<path d="M215.08 149.018C215.381 149.86 215.802 152.344 215.08 154.365" stroke="black" stroke-width="0.62872" stroke-linecap="round"/>
<path d="M230.838 148.96C231.139 149.802 231.559 152.285 230.838 154.307" stroke="black" stroke-width="0.62872" stroke-linecap="round"/>
<path d="M216.348 148.901C216.648 149.743 217.069 152.403 216.348 154.424" stroke="black" stroke-width="0.62872" stroke-linecap="round"/>
<path d="M232.104 148.842C232.404 149.684 232.825 152.026 232.104 154.047" stroke="black" stroke-width="0.62872" stroke-linecap="round"/>
<path d="M235.351 158.196H203.296C203.152 158.196 203.035 158.313 203.035 158.457C203.035 158.601 203.152 158.717 203.296 158.717H203.802C203.822 158.717 203.841 158.73 203.85 158.748C205.1 161.536 204.22 163.948 203.687 164.908C203.68 164.921 203.666 164.929 203.651 164.929H203.316C203.161 164.929 203.035 165.054 203.035 165.209C203.035 165.364 203.161 165.49 203.316 165.49H235.351C237.365 165.49 238.998 163.857 238.998 161.843C238.998 159.829 237.365 158.196 235.351 158.196Z" stroke="black" stroke-width="0.62872"/>
<path d="M234.528 158.634C234.475 158.864 234.56 159.463 235.326 160.016C235.361 160.229 235.613 160.75 236.336 161.133C236.372 161.523 235.971 162.339 236.482 162.849C236.233 163.15 236.104 163.13 236.104 163.981C235.476 163.981 235.326 164.861 235.326 165.364" stroke="black" stroke-width="0.502976" stroke-linecap="round"/>
<path d="M236.115 162.887H217.453" stroke="black" stroke-width="0.377232" stroke-linecap="round"/>
<path d="M236.14 161.399L230.717 161.399" stroke="black" stroke-width="0.377232" stroke-linecap="round"/>
<path d="M219.504 159.957L215.357 159.957" stroke="black" stroke-width="0.377232" stroke-linecap="round"/>
<path d="M216.487 164.232L212.34 164.232" stroke="black" stroke-width="0.377232" stroke-linecap="round"/>
<path d="M234.97 159.765L225.188 159.765" stroke="black" stroke-width="0.377232" stroke-linecap="round"/>
<path d="M235.386 164.298L224.434 164.298" stroke="black" stroke-width="0.377232" stroke-linecap="round"/>
<path d="M207.125 164.232H204.041" stroke="black" stroke-width="0.377232" stroke-linecap="round"/>
<path d="M211.335 162.975H204.545" stroke="black" stroke-width="0.377232" stroke-linecap="round"/>
<path d="M211.401 160.335H205.127" stroke="black" stroke-width="0.377232" stroke-linecap="round"/>
<path d="M224.409 148.891L231.399 148.766V143.711C231.399 143.592 231.302 143.495 231.183 143.495H224.409V148.891ZM224.409 148.891L207.893 148.836C207.768 148.836 207.668 148.735 207.668 148.61V143.359" stroke="black" stroke-width="0.62872" stroke-linecap="round"/>
<path d="M207.752 143.359L224.493 143.473" stroke="black" stroke-width="0.62872" stroke-linecap="round"/>
<path d="M221.9 143.588V148.711" stroke="black" stroke-width="0.62872" stroke-linecap="round"/>
<path d="M208.959 143.435V148.711" stroke="black" stroke-width="0.62872" stroke-linecap="round"/>
<path d="M223.111 143.555V148.831" stroke="black" stroke-width="0.62872" stroke-linecap="round"/>
<path d="M210.168 143.555V148.831" stroke="black" stroke-width="0.62872" stroke-linecap="round"/>
<path d="M224.465 144.982H228.129" stroke="black" stroke-width="0.377232" stroke-linecap="round"/>
<path d="M229.707 145.69L231.398 145.69" stroke="black" stroke-width="0.377232" stroke-linecap="round"/>
<path d="M224.578 147.752L226.269 147.752" stroke="black" stroke-width="0.377232" stroke-linecap="round"/>
<path d="M228.07 147.153L231.34 147.153" stroke="black" stroke-width="0.377232" stroke-linecap="round"/>
<path d="M217.843 134.746L222.516 130.086C222.752 129.851 222.568 129.45 222.236 129.476L209.234 130.472C209.15 130.478 209.072 130.514 209.012 130.573L199.682 139.692C199.445 139.924 199.624 140.325 199.955 140.305L206.472 139.896" stroke="black" stroke-width="0.62872"/>
<path d="M216.968 132.758L219.343 137.146C215.045 139.22 210.615 141.461 207.881 142.617L205.601 137.947C205.514 137.768 205.592 137.55 205.773 137.465C210.938 135.022 212.311 134.39 216.512 132.6C216.682 132.528 216.88 132.596 216.968 132.758Z" stroke="black" stroke-width="0.62872"/>
<path d="M202.215 137.266L202.138 141.754M202.138 141.754C202.502 141.803 203.225 142.182 203.206 143.311L203.16 146.03C203.157 146.227 202.994 146.385 202.796 146.381L201.105 146.353C200.907 146.349 200.75 146.186 200.753 145.989L200.8 143.27C200.808 142.757 201.088 141.736 202.138 141.754Z" stroke="black" stroke-width="0.62872"/>
<path d="M126.524 143.962C126.827 144.265 126.819 144.845 126.777 145.098H127.668C127.746 145.098 127.824 145.115 127.892 145.155C128.797 145.678 128.792 146.672 128.671 147.118C128.469 148.33 127.155 148.381 126.524 148.255C125.918 151.285 122.989 151.706 121.6 151.538C119.074 151.133 118.022 149.096 117.812 148.128C116.046 148.325 115.765 147.108 115.788 146.42C115.79 146.381 115.797 146.341 115.81 146.303C116.225 145.045 117.188 144.974 117.685 145.098C117.768 144.851 118.079 144.587 118.306 144.43C118.393 144.369 118.5 144.346 118.607 144.352C120.849 144.482 122.54 143.23 123.115 142.573C123.901 141.885 124.75 142.177 125.106 142.425C125.126 142.439 125.144 142.455 125.16 142.472C125.657 142.972 126.152 143.589 126.524 143.962Z" stroke="#151515" stroke-width="0.757592" stroke-linecap="square"/>
<path d="M132.84 154.315C133.008 153.6 133.395 152.093 133.597 151.79C134.018 151.369 134.481 150.275 135.113 150.275C135.47 150.275 137.007 150.654 136.88 151.79C136.796 152.169 137.007 152.8 135.87 153.432L134.986 155.073" stroke="#151515" stroke-width="0.757592" stroke-linecap="square"/>
<path d="M135.742 150.275L138.899 142.32" stroke="#151515" stroke-width="0.757592" stroke-linecap="round"/>
<path d="M126.777 153.937C127.94 153.812 129.932 152.998 129.692 150.257C129.686 150.186 129.663 150.118 129.629 150.055C129.163 149.187 128.419 146.972 128.789 144.273C128.794 144.234 128.796 144.196 128.792 144.157C128.601 142.284 127.241 138.527 123.242 138.027C121.137 137.733 116.701 138.406 115.792 143.457C115.708 143.92 115.59 145.047 115.792 145.856C115.994 146.664 115.287 148.886 114.908 149.896C114.698 150.78 114.706 152.775 116.423 153.684C116.676 153.81 117.055 154.063 117.56 154.063" stroke="#151515" stroke-width="0.757592" stroke-linecap="square"/>
<path d="M122.232 163.154C119.504 157.8 119.959 154.82 119.959 153.053C119.757 153.053 118.738 153.558 118.191 153.81C117.484 154.012 117.476 154.568 117.56 154.82C118.166 155.629 118.233 156.083 118.191 156.209C118.043 156.407 117.908 156.613 117.8 156.792C117.639 157.057 117.636 157.385 117.775 157.662C119.45 161.005 121.425 162.71 122.232 163.154Z" stroke="#151515" stroke-width="0.757592" stroke-linecap="square"/>
<path d="M122.231 163.154C124.959 157.8 124.757 154.315 124.63 153.053C124.832 153.053 125.725 153.558 126.272 153.81C126.979 154.012 126.987 154.568 126.903 154.82C126.297 155.629 126.23 156.083 126.272 156.209C126.45 156.448 126.609 156.697 126.726 156.897C126.843 157.098 126.846 157.343 126.743 157.551C125.057 160.968 123.047 162.705 122.231 163.154Z" stroke="#151515" stroke-width="0.757592" stroke-linecap="square"/>
<path d="M117.559 154.694C115.96 155.115 112.61 156.841 112.004 160.376V165.3C111.962 165.679 112.256 166.412 113.771 166.311H132.459C132.837 166.142 133.62 165.578 133.721 164.669L135.237 155.199L132.711 154.442L131.449 157.851C130.733 157.009 128.847 155.199 127.029 154.694" stroke="#151515" stroke-width="0.757592" stroke-linecap="square"/>
<path d="M115.791 163.028V166.184" stroke="#151515" stroke-width="0.757592" stroke-linecap="round"/>
<path d="M124.504 151.285L124.63 152.926" stroke="#151515" stroke-width="0.757592" stroke-linecap="square"/>
<path d="M120.086 151.285L119.96 152.926" stroke="#151515" stroke-width="0.757592" stroke-linecap="square"/>
<path d="M120.211 156.588C121.053 156.883 122.863 157.295 124.378 156.588" stroke="#151515" stroke-width="0.757592" stroke-linecap="square"/>
<path d="M123.494 137.901V131.588H147.485V146.487H129.05" stroke="#151515" stroke-width="0.757592" stroke-linecap="round"/>
<path d="M134.354 134.997H144.455" stroke="#151515" stroke-width="0.757592" stroke-linecap="round"/>
<path d="M134.354 137.901H144.455" stroke="#151515" stroke-width="0.757592" stroke-linecap="round"/>
<path d="M134.354 140.931H138.394" stroke="#151515" stroke-width="0.757592" stroke-linecap="round"/>
<path d="M126.777 139.416V134.871H131.449V140.805H127.914" stroke="#151515" stroke-width="0.757592" stroke-linecap="round"/>
<path d="M122.105 137.901V129.567H149V147.75H129.05" stroke="#151515" stroke-width="0.757592" stroke-linecap="round"/>
<path d="M128.041 136.764H129.682" stroke="#151515" stroke-width="0.757592" stroke-linecap="round"/>
<path d="M128.041 137.648H128.799" stroke="#151515" stroke-width="0.757592" stroke-linecap="round"/>
<path d="M36.1865 141.235C36.4291 141.25 36.6279 141.395 36.7383 141.579C37.6872 143.165 38.8577 143.829 39.9541 144.033C41.0641 144.24 42.1326 143.983 42.8623 143.67C43.2388 143.509 43.667 143.681 43.8516 144.025C44.1859 144.647 44.6098 144.871 45.0098 144.917C45.4304 144.966 45.8711 144.824 46.2139 144.631C46.2369 144.618 46.2595 144.604 46.2812 144.591C46.2905 144.585 46.3075 144.567 46.3076 144.53V141.358L46.6016 141.529C46.6743 141.572 46.7541 141.601 46.8369 141.616L46.9111 141.629V144.53C46.911 144.725 46.8282 144.924 46.6641 145.057V146.837C46.664 147.405 46.5412 147.827 46.3174 148.12C46.0888 148.419 45.7812 148.548 45.4902 148.579C45.4016 148.589 45.3117 148.625 45.251 148.674C45.1923 148.721 45.1807 148.761 45.1807 148.788V148.868C45.1806 148.951 45.1654 149.034 45.1367 149.111C43.5153 153.486 40.3392 154.189 38.8203 153.943C38.8094 153.941 38.799 153.94 38.7891 153.941C37.1461 154.031 35.8063 153.537 34.7852 152.57C33.8109 151.648 33.1475 150.314 32.7627 148.705C32.2524 148.576 31.8993 148.194 31.6699 147.803C31.4083 147.356 31.2747 146.845 31.2295 146.506L31.2266 146.486V146.467C31.2266 145.589 31.4103 145.047 31.6484 144.742C31.7106 144.663 31.7612 144.598 31.7988 144.532C31.8358 144.468 31.8446 144.428 31.8447 144.406V143.005H32.4482V144.312L32.4502 144.33C32.7131 145.202 33.5697 145.486 34.1572 145.542C34.162 145.543 34.1649 145.542 34.166 145.541C34.1675 145.541 34.1712 145.539 34.1748 145.535C34.183 145.527 34.1932 145.508 34.1934 145.482V143.747C34.1049 142.679 34.3266 142.002 34.7715 141.614C35.2092 141.234 35.7791 141.209 36.1865 141.235ZM36.1494 141.836C35.774 141.813 35.4163 141.853 35.168 142.069C34.9308 142.276 34.709 142.721 34.7959 143.721L34.7969 143.734V145.482C34.7965 145.833 34.5155 146.182 34.0996 146.143C33.5599 146.091 32.657 145.853 32.1445 145.085C32.1371 145.095 32.1309 145.105 32.124 145.113C32.0027 145.269 31.833 145.65 31.8301 146.445C31.8699 146.725 31.9831 147.144 32.1904 147.498C32.3768 147.816 32.6148 148.045 32.9111 148.121L33.042 148.144L33.2588 148.166L33.3066 148.379C33.6675 150.002 34.302 151.282 35.2002 152.133C36.091 152.976 37.2644 153.421 38.7559 153.338C38.8103 153.335 38.8642 153.338 38.917 153.347C40.1508 153.547 43.0499 153.006 44.5713 148.902C44.575 148.891 44.5771 148.879 44.5771 148.868V148.788C44.5771 148.531 44.7136 148.332 44.874 148.203C45.0323 148.076 45.2326 148 45.4258 147.98C45.5818 147.963 45.7267 147.899 45.8379 147.754C45.9541 147.602 46.0605 147.325 46.0605 146.837V145.362C45.7246 145.486 45.3365 145.562 44.9395 145.516C44.3283 145.445 43.7395 145.092 43.3193 144.31C43.2733 144.225 43.171 144.194 43.0996 144.225C42.2973 144.568 41.1051 144.861 39.8438 144.626C38.5688 144.388 37.254 143.617 36.2207 141.89C36.1977 141.851 36.1664 141.837 36.1494 141.836Z" fill="black"/>
<path d="M35.8563 153.389C35.7327 154.089 35.6091 155.243 34.4966 155.614C33.467 155.957 31.1825 155.618 29.4615 157.311C29.4397 157.333 29.4163 157.352 29.3904 157.368C28.4177 157.991 26.2724 159.936 25.166 162.953M52.2989 162.953C52.0866 161.66 51.2543 158.988 48.6047 157.603C48.0952 157.348 46.7959 156.686 45.6749 156.074C44.2737 155.31 42.7451 156.18 41.9808 153.389" stroke="black" stroke-width="0.603373" stroke-linecap="square"/>
<path d="M34.9902 155.614C36.4324 156.726 39.9842 158.284 42.6543 155.614" stroke="black" stroke-width="0.603373" stroke-linecap="square"/>
<path d="M31.7402 136.043V141.471C34.1413 140.568 40.4952 139.303 46.7017 141.471V136.043C40.4322 133.123 34.1151 134.826 31.7402 136.043Z" stroke="black" stroke-width="0.578503" stroke-linecap="round"/>
<path d="M31.4148 138.667L23.409 135.171C23.2541 135.104 23.255 134.884 23.4104 134.817L39.278 128.033C39.3275 128.012 39.3835 128.012 39.4325 128.034L54.61 134.818C54.7616 134.886 54.7624 135.101 54.6113 135.17L46.9407 138.667" stroke="black" stroke-width="0.578503" stroke-linecap="round"/>
<path d="M26.5566 135.23L29.164 134.163" stroke="black" stroke-width="0.578503" stroke-linecap="round"/>
<path d="M32.3613 132.385L37.1021 130.37" stroke="black" stroke-width="0.578503" stroke-linecap="round"/>
<path d="M51.6615 133.655V139.897M51.6615 139.897C51.3218 139.982 50.7443 140.457 51.1519 141.68C51.2368 141.935 51.4575 142.546 51.6615 142.954L52.2781 141.721C52.2917 141.694 52.3023 141.665 52.309 141.636C52.428 141.111 52.4538 140.095 51.6615 139.897Z" stroke="#151515" stroke-width="0.621778" stroke-linecap="square"/>
<circle cx="39.1666" cy="165.307" r="3.33806" stroke="black" stroke-width="0.489132"/>
<circle cx="39.167" cy="165.307" r="2.44981" stroke="black" stroke-width="0.489132"/>
<path d="M34.1914 155.773L37.8925 160.806H40.498L44.1399 155.565L43.2072 155.255L39.136 159.977L35.6422 156.084" stroke="black" stroke-width="0.489132" stroke-linecap="round"/>
<path d="M37.8924 160.836C37.695 161.073 37.4187 161.635 37.8924 161.99" stroke="black" stroke-width="0.489132" stroke-linecap="round"/>
<path d="M40.4974 160.836C40.6948 161.073 41.0008 161.605 40.4678 162.02" stroke="black" stroke-width="0.489132" stroke-linecap="round"/>
<path d="M213.023 82.5108V81.153C211.792 80.1205 210.162 77.2919 213.023 75.7644C213.447 75.5806 214.516 75.3231 215.399 75.7644C216.696 76.413 218.351 78.4799 215.399 81.153V82.5108M213.023 82.5108H215.399M213.023 82.5108V83.4104L213.67 84.0657H214.899L215.399 83.4104V82.5108" stroke="black" stroke-width="0.473145"/>
<path d="M214.193 78.5648V82.5108" stroke="black" stroke-width="0.473145"/>
<path d="M213.09 83.2321L215.39 83.2465" stroke="black" stroke-width="0.473145" stroke-linecap="round"/>
<path d="M213.67 84.0657H214.899" stroke="black" stroke-width="0.473145" stroke-linecap="round"/>
<path d="M209.738 77.5889L210.619 77.6983" stroke="black" stroke-width="0.473145" stroke-linecap="round"/>
<path d="M218.912 77.5306L218.031 77.64" stroke="black" stroke-width="0.473145" stroke-linecap="round"/>
<path d="M211.171 74.7097L211.742 75.3893" stroke="black" stroke-width="0.473145" stroke-linecap="round"/>
<path d="M217.48 74.6514L216.908 75.331" stroke="black" stroke-width="0.473145" stroke-linecap="round"/>
<path d="M214.295 73.5292L214.322 74.4165" stroke="black" stroke-width="0.473145" stroke-linecap="round"/>
<rect x="195.09" y="72.26" width="42.1066" height="28.1526" stroke="black" stroke-width="0.519929"/>
<path d="M198.27 72.669V85.0938L200.468 82.2265L202.57 85.0938V72.669" stroke="black" stroke-width="0.519929" stroke-linecap="round"/>
<path d="M189 107.841L194.639 101.724H237.361L243 107.841H189Z" stroke="black" stroke-width="0.573451" stroke-linecap="round"/>
<path d="M222.823 84.4065L221.311 85.2578C221.263 85.3997 221.009 85.6835 220.375 85.6835C219.583 85.6835 218.863 85.4706 218.646 85.4706C218.43 85.4706 217.638 85.4706 217.422 85.4706C217.249 85.4706 216.438 85.3287 216.054 85.2578C216.03 85.5652 216.054 86.1942 216.342 86.251C216.63 86.3078 217.566 86.6057 217.998 86.7476L218.646 87.6698C219.031 87.7881 219.856 88.0246 220.087 88.0246C220.317 88.0246 220.999 88.0246 221.311 88.0246L221.671 88.9468V89.4434L221.311 90.3657C221.623 90.5548 222.362 90.8197 222.823 90.3657C223.284 89.9116 224.072 89.94 224.408 90.0109L224.84 91.2879" stroke="black" stroke-width="0.519187" stroke-linecap="round"/>
<path d="M221.972 95.7799C221.948 95.3976 221.798 94.4323 221.681 94.203C221.564 93.9736 220.613 93.4384 220.152 93.1994L218.623 93.9879C218.38 94.4419 217.865 95.4072 217.749 95.6366C217.632 95.866 216.778 96.2578 216.365 96.4251L215.855 97.2136" stroke="black" stroke-width="0.519187" stroke-linecap="round"/>
<path d="M217.528 81.186C221.922 81.4088 225.415 85.042 225.415 89.4907L225.404 89.9184C225.181 94.3116 221.549 97.8049 217.101 97.8051L216.672 97.7944C212.42 97.5786 209.012 94.1698 208.796 89.9184L208.785 89.4907C208.785 86.5134 210.351 83.9029 212.703 82.434V83.1196C210.683 84.5167 209.358 86.8487 209.358 89.4907C209.359 93.766 212.825 97.2318 217.101 97.2319C221.376 97.2317 224.842 93.7659 224.842 89.4907C224.842 85.2152 221.376 81.7487 217.101 81.7485C216.61 81.7485 216.131 81.7951 215.666 81.8823V81.3002C216.132 81.2191 216.611 81.1752 217.101 81.1752L217.528 81.186Z" fill="black"/>
<path d="M212.513 95.6071L212.8 93.9823L213.278 92.262C213.724 92.039 212.341 89.3374 212.8 89.4903C213.258 89.6432 213.915 88.9805 214.424 88.9168L214.807 87.5788L213.278 86.1451L212.035 85.5717H210.506" stroke="black" stroke-width="0.519929" stroke-linecap="round"/>
<path d="M126.588 73.8032H146.978C148.051 73.8032 148.92 74.6727 148.92 75.7452V91.9743C148.92 93.0468 148.051 93.9162 146.978 93.9162H126.172" stroke="black" stroke-width="0.83226" stroke-linecap="round"/>
<path d="M117.016 93.6388V91.0033C117.016 89.9308 117.886 89.0613 118.958 89.0613H126.726C127.722 89.0613 128.529 88.254 128.529 87.2581V87.2581C128.529 86.2622 127.722 85.4549 126.726 85.4549H112.161C109.863 85.4549 108 87.318 108 89.6162V96.6904" stroke="black" stroke-width="0.83226" stroke-linecap="round"/>
<path d="M128.252 77.5484H130.333" stroke="black" stroke-width="0.83226" stroke-linecap="round"/>
<path d="M128.252 80.0452H133.523" stroke="black" stroke-width="0.83226" stroke-linecap="round"/>
<path d="M132.689 77.5484H137.822" stroke="black" stroke-width="0.83226" stroke-linecap="round"/>
<path d="M137.406 77.5484H139.487" stroke="black" stroke-width="0.83226" stroke-linecap="round"/>
<path d="M141.846 77.5484H143.926" stroke="black" stroke-width="0.83226" stroke-linecap="round"/>
<path d="M136.158 80.0452L143.926 80.0452" stroke="black" stroke-width="0.83226" stroke-linecap="round"/>
<circle cx="113.964" cy="80.1839" r="3.32904" stroke="black" stroke-width="0.83226"/>
<circle cx="131.303" cy="100.019" r="2.35807" stroke="black" stroke-width="0.83226"/>
<circle cx="118.819" cy="100.019" r="2.35807" stroke="black" stroke-width="0.83226"/>
<circle cx="143.788" cy="100.019" r="2.35807" stroke="black" stroke-width="0.83226"/>
<path d="M128.668 87.1194L138.378 81.7097" stroke="black" stroke-width="0.83226" stroke-linecap="round"/>
<path d="M134.909 109.868H127.696C126.623 109.868 125.754 108.998 125.754 107.926V106.816C125.754 105.744 126.623 104.874 127.696 104.874H134.909C135.981 104.874 136.851 105.744 136.851 106.816V107.926C136.851 108.998 135.981 109.868 134.909 109.868Z" stroke="black" stroke-width="0.83226" stroke-linecap="round"/>
<path d="M122.424 109.868H115.211C114.139 109.868 113.27 108.998 113.27 107.926V106.816C113.27 105.744 114.139 104.874 115.211 104.874H122.424C123.497 104.874 124.366 105.744 124.366 106.816V107.926C124.366 108.998 123.497 109.868 122.424 109.868Z" stroke="black" stroke-width="0.83226" stroke-linecap="round"/>
<path d="M147.393 109.868H140.18C139.108 109.868 138.238 108.998 138.238 107.926V106.816C138.238 105.744 139.108 104.874 140.18 104.874H147.393C148.466 104.874 149.335 105.744 149.335 106.816V107.926C149.335 108.998 148.466 109.868 147.393 109.868Z" stroke="black" stroke-width="0.83226" stroke-linecap="round"/>
<rect x="139.764" y="88.5065" width="4.1613" height="3.32904" rx="0.69355" stroke="black" stroke-width="0.83226"/>
<rect x="133.662" y="88.5065" width="4.1613" height="3.32904" rx="0.69355" stroke="black" stroke-width="0.83226"/>
<path d="M126.311 72H148.782C150.007 72 151.001 72.9936 151.001 74.2194V93.3614C151.001 94.5871 150.007 95.5807 148.782 95.5807H126.311" stroke="black" stroke-width="0.83226" stroke-linecap="round"/>
<path d="M54.4257 86.6849H68.4707L62.7672 75.7055H42.5195" stroke="#151515" stroke-width="0.8743" stroke-linecap="round"/>
<path d="M28.6153 86.7562H14.5703L19.9174 75.6342H40.0224" stroke="#151515" stroke-width="0.8743" stroke-linecap="round"/>
<path d="M16.4961 86.8987V105.079H66.9013V86.8987" stroke="#151515" stroke-width="0.8743" stroke-linecap="round"/>
<path d="M16.4953 105.079L14 105.079V107.004H68.7898V105.079L67.1144 105.079" stroke="#151515" stroke-width="0.8743" stroke-linecap="round"/>
<path d="M40.5937 78.2503L30.0415 87.3136C29.8035 87.518 29.4453 87.4919 29.2395 87.2552L28.56 86.4738C28.3532 86.236 28.3784 85.8756 28.6163 85.669L41.2324 74.7074L54.497 85.6352C54.7606 85.8524 54.7756 86.2509 54.529 86.4872L53.6482 87.3313C53.4391 87.5317 53.1128 87.5435 52.8897 87.3587L41.8808 78.2389C41.5063 77.9286 40.9627 77.9335 40.5937 78.2503Z" stroke="#151515" stroke-width="0.8743" stroke-linecap="round"/>
<path d="M30.1113 87.2552V104.722" stroke="#151515" stroke-width="0.8743" stroke-linecap="round"/>
<path d="M52.9258 87.5404V105.008" stroke="#151515" stroke-width="0.8743" stroke-linecap="round"/>
<path d="M38.2402 104.865V96.9513H45.0845V104.865" stroke="#151515" stroke-width="0.8743" stroke-linecap="round"/>
<path d="M32.6777 93.8143V89.9644H36.8841V93.8143H32.6777Z" stroke="#151515" stroke-width="0.8743" stroke-linecap="round"/>
<path d="M34.8184 90.107V93.743" stroke="#151515" stroke-width="0.8743" stroke-linecap="round"/>
<path d="M36.6699 91.9606H33.0339" stroke="#151515" stroke-width="0.8743" stroke-linecap="round"/>
<path d="M39.3828 93.6717V89.8218H43.5892V93.6717H39.3828Z" stroke="#151515" stroke-width="0.8743" stroke-linecap="round"/>
<path d="M41.5195 89.9644V93.6004" stroke="#151515" stroke-width="0.8743" stroke-linecap="round"/>
<path d="M43.373 91.8181H39.737" stroke="#151515" stroke-width="0.8743" stroke-linecap="round"/>
<path d="M54.9238 93.9569V90.107H59.1302V93.9569H54.9238Z" stroke="#151515" stroke-width="0.8743" stroke-linecap="round"/>
<path d="M57.0625 90.2496V93.8856" stroke="#151515" stroke-width="0.8743" stroke-linecap="round"/>
<path d="M58.9141 92.1032H55.278" stroke="#151515" stroke-width="0.8743" stroke-linecap="round"/>
<path d="M17.8516 94.5273V90.6774H22.0579V94.5273H17.8516Z" stroke="#151515" stroke-width="0.8743" stroke-linecap="round"/>
<path d="M19.9902 90.8199V94.4559" stroke="#151515" stroke-width="0.8743" stroke-linecap="round"/>
<path d="M21.8418 92.6736H18.2058" stroke="#151515" stroke-width="0.8743" stroke-linecap="round"/>
<path d="M17.8516 101.229V97.379H22.0579V101.229H17.8516Z" stroke="#151515" stroke-width="0.8743" stroke-linecap="round"/>
<path d="M19.9902 97.5216V101.158" stroke="#151515" stroke-width="0.8743" stroke-linecap="round"/>
<path d="M21.8418 99.3753H18.2058" stroke="#151515" stroke-width="0.8743" stroke-linecap="round"/>
<path d="M54.9238 101.229V97.379H59.1302V101.229H54.9238Z" stroke="#151515" stroke-width="0.8743" stroke-linecap="round"/>
<path d="M57.0625 97.5216V101.158" stroke="#151515" stroke-width="0.8743" stroke-linecap="round"/>
<path d="M58.9141 99.3753H55.278" stroke="#151515" stroke-width="0.8743" stroke-linecap="round"/>
<path d="M61.0527 93.9569V90.107H65.2591V93.9569H61.0527Z" stroke="#151515" stroke-width="0.8743" stroke-linecap="round"/>
<path d="M63.1953 90.2496V93.8856" stroke="#151515" stroke-width="0.8743" stroke-linecap="round"/>
<path d="M65.0488 92.1032H61.4128" stroke="#151515" stroke-width="0.8743" stroke-linecap="round"/>
<path d="M23.9824 94.5272V90.6773H28.1888V94.5272H23.9824Z" stroke="#151515" stroke-width="0.8743" stroke-linecap="round"/>
<path d="M26.1191 90.8199V94.4559" stroke="#151515" stroke-width="0.8743" stroke-linecap="round"/>
<path d="M27.9727 92.6736H24.3366" stroke="#151515" stroke-width="0.8743" stroke-linecap="round"/>
<path d="M23.9824 101.229V97.379H28.1888V101.229H23.9824Z" stroke="#151515" stroke-width="0.8743" stroke-linecap="round"/>
<path d="M26.1191 97.5216V101.158" stroke="#151515" stroke-width="0.8743" stroke-linecap="round"/>
<path d="M27.9727 99.3753H24.3366" stroke="#151515" stroke-width="0.8743" stroke-linecap="round"/>
<path d="M60.9121 101.229V97.379H65.1185V101.229H60.9121Z" stroke="#151515" stroke-width="0.8743" stroke-linecap="round"/>
<path d="M63.0508 97.5216V101.158" stroke="#151515" stroke-width="0.8743" stroke-linecap="round"/>
<path d="M64.9043 99.3753H61.2683" stroke="#151515" stroke-width="0.8743" stroke-linecap="round"/>
<path d="M46.082 93.6717V89.8218H50.2884V93.6717H46.082Z" stroke="#151515" stroke-width="0.8743" stroke-linecap="round"/>
<path d="M48.2207 89.9644V93.6004" stroke="#151515" stroke-width="0.8743" stroke-linecap="round"/>
<path d="M50.0742 91.8181H46.4382" stroke="#151515" stroke-width="0.8743" stroke-linecap="round"/>
<circle cx="41.4485" cy="84.4747" r="2.7711" stroke="black" stroke-width="0.8743"/>
<path d="M142.009 36.7241L143.547 47.3515L123.551 53.6441C122.665 52.3856 120.698 48.7499 119.915 44.2751L116 13.7912H138.933L140.751 28.7535" stroke="black" stroke-width="0.839008" stroke-linecap="round"/>
<path d="M122.012 20.2236H131.101" stroke="black" stroke-width="0.839008"/>
<path d="M131.801 20.2236H137.254" stroke="black" stroke-width="0.839008"/>
<path d="M122.711 28.1942L132.08 27.7747" stroke="black" stroke-width="0.839008"/>
<path d="M132.5 27.7746L137.534 27.495" stroke="black" stroke-width="0.839008"/>
<path d="M123.398 32.5674L138.124 31.6046" stroke="black" stroke-width="0.839008"/>
<path d="M126.908 24.2133L136.973 23.9521" stroke="black" stroke-width="0.839008"/>
<path d="M128.012 36.464L138.043 35.6054" stroke="black" stroke-width="0.839008"/>
<path d="M122.574 24.3258L126.209 24.2314" stroke="black" stroke-width="0.839008"/>
<path d="M123.689 36.8337L127.312 36.5237" stroke="black" stroke-width="0.839008"/>
<path d="M139.211 35.4656L145.364 15.1895L148.021 16.1684L142.008 36.0249L140.609 38.2623L139.211 37.8427V35.4656Z" stroke="black" stroke-width="0.839008"/>
<path d="M147.741 16.8675L148.999 17.4269L147.182 23.1601" stroke="black" stroke-width="0.839008"/>
<path d="M146.838 15.4944L147.25 14.0457" stroke="black" stroke-width="1.11868"/>
<path d="M143.688 21.4821C144.34 21.5287 145.729 21.7618 146.065 22.3211" stroke="black" stroke-width="1.11868"/>
<path d="M139.352 37.8428L139.072 40.4996L140.471 38.2623" stroke="black" stroke-width="0.559339"/>
<circle cx="219.184" cy="31.3634" r="13.5879" stroke="black" stroke-width="0.734479"/>
<path d="M233.995 50.3375L237.055 49.4806L236.321 46.6651L219.428 50.9495V53.8875L232.526 50.7047" stroke="black" stroke-width="0.734479" stroke-linecap="round"/>
<path d="M204.126 50.2151L201.066 49.3582L201.8 46.5427L218.693 50.9495V53.8875L205.595 50.5823" stroke="black" stroke-width="0.734479" stroke-linecap="round"/>
<path d="M203.762 46.9099L204.374 43.7272L207.312 44.4616" stroke="black" stroke-width="0.734479" stroke-linecap="round"/>
<path d="M208.779 44.8289L214.9 46.2978C216.859 46.9099 218.695 47.8892 218.817 50.9495" stroke="black" stroke-width="0.734479" stroke-linecap="round"/>
<path d="M219.185 50.9495C219.308 47.8892 221.144 46.9099 223.103 46.2978L229.223 44.8289L233.63 43.7272L234.242 46.9099" stroke="black" stroke-width="0.734479" stroke-linecap="round"/>
<path d="M208.902 22.9169H212.452L213.431 24.3859L214.41 27.3238L213.431 30.1393L211.105 30.8738L210.493 33.1996V36.1375L211.105 38.7082C211.187 39.6875 210.787 41.132 208.045 39.0755" stroke="black" stroke-width="0.734479" stroke-linecap="round"/>
<path d="M212.818 19.3669L215.389 20.2238L217.225 20.7135L219.061 19.3669L220.53 20.2238L222.611 20.7135H224.325L226.651 20.2238" stroke="black" stroke-width="0.734479" stroke-linecap="round"/>
<path d="M228.978 22.4273L226.407 23.8962C226.326 24.141 225.893 24.6307 224.816 24.6307C223.469 24.6307 222.245 24.2635 221.878 24.2635C221.511 24.2635 220.164 24.2635 219.797 24.2635C219.503 24.2635 218.124 24.0186 217.471 23.8962C217.43 24.4267 217.471 25.5121 217.961 25.61C218.45 25.7079 220.042 26.2221 220.776 26.4669L221.878 28.0583C222.531 28.2623 223.934 28.6703 224.326 28.6703C224.718 28.6703 225.877 28.6703 226.407 28.6703L227.019 30.2617V31.1186L226.407 32.71C226.938 33.0364 228.194 33.4934 228.978 32.71C229.761 31.9265 231.1 31.9755 231.671 32.0979L232.405 34.3013" stroke="black" stroke-width="0.734479" stroke-linecap="round"/>
<path d="M227.386 42.0134C227.345 41.3605 227.092 39.712 226.897 39.3203C226.701 38.9286 225.101 38.0145 224.326 37.6065L221.755 38.953C221.347 39.7283 220.482 41.3768 220.286 41.7685C220.09 42.1603 218.654 42.8295 217.96 43.1151L217.104 44.4616" stroke="black" stroke-width="0.734479" stroke-linecap="round"/>
<path d="M231.48 16.4746C231.548 16.6205 231.687 16.7218 231.847 16.7412L232.786 16.8544L232.093 17.499C231.975 17.6084 231.922 17.771 231.953 17.9287L232.136 18.8584L231.309 18.3974L231.254 18.372C231.144 18.3282 231.02 18.3281 230.91 18.372L230.856 18.3974L230.028 18.8574L230.211 17.9287C230.242 17.7709 230.189 17.6084 230.071 17.499L229.377 16.8544L230.317 16.7412C230.477 16.7218 230.616 16.6205 230.684 16.4746L231.082 15.6152L231.48 16.4746Z" stroke="black" stroke-width="0.54083"/>
<path d="M219.582 13.5C219.65 13.6459 219.789 13.7472 219.948 13.7666L220.888 13.8799L220.194 14.5244C220.077 14.6339 220.024 14.7964 220.055 14.9541L220.237 15.8838L219.41 15.4229L219.355 15.3975C219.245 15.3536 219.122 15.3535 219.012 15.3975L218.958 15.4229L218.13 15.8828L218.312 14.9541C218.343 14.7963 218.291 14.6339 218.173 14.5244L217.479 13.8799L218.419 13.7666C218.579 13.7472 218.717 13.6459 218.785 13.5L219.184 12.6406L219.582 13.5Z" stroke="black" stroke-width="0.54083"/>
<path d="M207.414 16.4746C207.482 16.6205 207.621 16.7218 207.78 16.7412L208.72 16.8544L208.026 17.499C207.909 17.6084 207.856 17.771 207.887 17.9287L208.069 18.8584L207.242 18.3974L207.188 18.372C207.077 18.3282 206.954 18.3281 206.844 18.372L206.79 18.3974L205.962 18.8574L206.145 17.9287C206.175 17.7709 206.123 17.6084 206.005 17.499L205.311 16.8544L206.251 16.7412C206.411 16.7218 206.549 16.6205 206.617 16.4746L207.016 15.6152L207.414 16.4746Z" stroke="black" stroke-width="0.54083"/>
<path d="M37.3529 46.735L36.4295 43.9034C36.3915 43.7866 36.4997 43.675 36.6175 43.7094L39.5795 44.5733C39.6042 44.5805 39.6266 44.5938 39.6448 44.6119L47.7074 52.6745C47.7299 52.697 47.7448 52.726 47.75 52.7574L47.8017 53.0676C47.8073 53.1008 47.8244 53.1317 47.8485 53.1552C48.8162 54.0971 48.1127 54.9657 47.742 55.2353C47.0186 55.7614 46.2319 55.4641 45.8089 55.0145C45.7783 54.982 45.7363 54.9622 45.6917 54.9622H45.4846C45.4436 54.9622 45.4044 54.9458 45.3757 54.9166L37.3892 46.7947C37.3726 46.7779 37.3602 46.7574 37.3529 46.735Z" stroke="black" stroke-width="0.757676" stroke-linecap="round"/>
<path d="M39.002 46.2229L44.5323 51.7533" stroke="black" stroke-width="0.757676" stroke-linecap="round"/>
<path d="M37.5703 46.7691C37.6964 46.4959 37.9389 45.7958 38.4591 45.7439C38.536 45.7362 38.6071 45.6883 38.6304 45.6146C38.7519 45.2302 39.052 44.7208 39.6869 44.7208" stroke="black" stroke-width="0.757676" stroke-linecap="round"/>
<path d="M37.0915 43.1505V37.5602C37.0915 37.5119 37.0699 37.4673 37.0309 37.4388C35.7622 36.5127 32.8166 34.9496 30.5707 35.6737C30.5093 35.6935 30.4688 35.7514 30.4688 35.816V48.4622C30.4688 48.5456 30.5352 48.6136 30.6186 48.6156C32.047 48.6506 35.014 48.88 36.881 49.5566C36.9826 49.5934 37.0915 49.5191 37.0915 49.4111V48.1346" stroke="black" stroke-width="0.757676" stroke-linecap="round"/>
<path d="M38.1152 43.4236V37.3614C38.1152 37.3098 38.1402 37.2622 38.1838 37.2346C39.324 36.5102 42.0436 35.2557 44.4747 35.6196C44.5481 35.6306 44.6015 35.6943 44.6015 35.7685V48.5443" stroke="black" stroke-width="0.757676" stroke-linecap="round"/>
<path d="M29.4078 38.3852C28.9767 38.3852 27.8066 38.1964 27.8066 39.2029V50.1484C27.8066 50.7775 28.2993 51.3436 29.3462 51.3436H40.3695" stroke="black" stroke-width="0.757676" stroke-linecap="round"/>
<path d="M45.5586 38.4394C46.0567 38.3715 47.1179 38.5198 47.3977 39.6506C47.4006 39.6622 47.4021 39.6744 47.4021 39.6863V51.0022" stroke="black" stroke-width="0.757676" stroke-linecap="round"/>
<path d="M26.541 26.9414V34.7303C29.9862 33.4339 39.1031 31.619 48.0085 34.7303V26.9414C39.0126 22.7515 29.9486 25.1956 26.541 26.9414Z" stroke="black" stroke-width="1.02034" stroke-linecap="round"/>
<path d="M26.074 30.7062L14.7214 25.7494C14.4482 25.6301 14.4497 25.2422 14.7238 25.125L37.331 15.4596C37.4182 15.4223 37.5169 15.4231 37.6035 15.4618L59.2273 25.127C59.4946 25.2465 59.496 25.6255 59.2296 25.747L48.3513 30.7062" stroke="black" stroke-width="1.02034" stroke-linecap="round"/>
<path d="M55.4938 23.7339V31.2163M55.4938 31.2163H53.7932C53.6054 31.2163 53.4531 31.3686 53.4531 31.5564V35.4677C53.4531 36.5948 54.3668 37.5084 55.4938 37.5084V37.5084C56.6208 37.5084 57.5345 36.5948 57.5345 35.4677V31.5564C57.5345 31.3686 57.3822 31.2163 57.1944 31.2163H55.4938Z" stroke="black" stroke-width="1.02034" stroke-linecap="round"/>
<path d="M19.1035 25.7746L22.8447 24.2441" stroke="black" stroke-width="1.02034" stroke-linecap="round"/>
<path d="M27.4355 21.6932L34.2378 18.8023" stroke="black" stroke-width="1.02034" stroke-linecap="round"/>
<path d="M53.8204 12.7365C53.9377 12.4604 54.3291 12.4604 54.4464 12.7365L55.1183 14.3173C55.1492 14.39 55.2045 14.4497 55.2746 14.4861L56.7831 15.2693C57.0276 15.3963 57.0276 15.7461 56.7831 15.873L55.2746 16.6562C55.2045 16.6927 55.1492 16.7523 55.1183 16.8251L54.4464 18.4059C54.3291 18.682 53.9377 18.682 53.8204 18.4059L53.1485 16.8251C53.1176 16.7523 53.0624 16.6927 52.9922 16.6562L51.4837 15.873C51.2392 15.7461 51.2392 15.3963 51.4837 15.2693L52.9922 14.4861C53.0624 14.4497 53.1176 14.39 53.1485 14.3173L53.8204 12.7365Z" fill="black"/>
<path d="M57.1953 21.183H60.4264" stroke="black" stroke-width="1.02034" stroke-linecap="round"/>
<path d="M58.8945 19.3124V22.8836" stroke="black" stroke-width="1.02034" stroke-linecap="round"/>
<path d="M44.4395 14.5508H47.6705" stroke="black" stroke-width="1.02034" stroke-linecap="round"/>
<path d="M46.1406 12.6802V16.2514" stroke="black" stroke-width="1.02034" stroke-linecap="round"/>
</svg>
