<svg width="260" height="178" viewBox="0 0 260 178" fill="none" xmlns="http://www.w3.org/2000/svg">
<path fill-rule="evenodd" clip-rule="evenodd" d="M218.588 123H246.515V137.696L251 141.094V164.314H212.947V141.055L218.588 137.657V123ZM218.588 139.003L214.574 141.421L218.588 144.277V139.003ZM219.741 145.098L233.074 154.589L245.362 144.71V124.153H219.741V145.098ZM246.515 143.783L249.486 141.394L246.515 139.143V143.783ZM249.847 142.584L233.116 156.034L214.1 142.499V163.161H249.847V142.584Z" fill="black"/>
<path fill-rule="evenodd" clip-rule="evenodd" d="M234.007 132.535C234.239 132.754 234.249 133.119 234.031 133.35L229.483 138.171C229.477 138.238 229.471 138.32 229.466 138.416C229.452 138.685 229.445 139.051 229.473 139.441C229.501 139.834 229.563 140.232 229.678 140.575C229.794 140.921 229.948 141.164 230.128 141.306C230.305 141.446 230.572 141.54 230.928 141.577C231.28 141.614 231.672 141.591 232.051 141.536C232.428 141.483 232.774 141.401 233.026 141.333C233.131 141.305 233.219 141.279 233.286 141.258L237.786 136.218C237.796 136.185 237.809 136.144 237.822 136.097C237.863 135.953 237.912 135.758 237.943 135.549C237.975 135.337 237.987 135.132 237.968 134.959C237.948 134.782 237.901 134.691 237.864 134.649C237.826 134.607 237.741 134.551 237.549 134.526C237.359 134.502 237.126 134.517 236.879 134.558C236.638 134.598 236.409 134.66 236.239 134.713C236.178 134.732 236.125 134.75 236.083 134.764L232.521 138.326C232.295 138.552 231.93 138.552 231.705 138.326C231.48 138.101 231.48 137.736 231.705 137.511L235.443 133.774L235.554 133.73L235.766 134.266C235.554 133.73 235.554 133.73 235.554 133.73L235.556 133.729L235.558 133.728L235.564 133.726C235.569 133.724 235.575 133.721 235.584 133.718C235.601 133.712 235.624 133.703 235.654 133.693C235.713 133.672 235.796 133.643 235.898 133.612C236.099 133.549 236.38 133.472 236.689 133.421C236.993 133.37 237.35 133.338 237.697 133.383C238.04 133.427 238.435 133.556 238.726 133.883C238.98 134.169 239.079 134.523 239.114 134.829C239.149 135.139 239.124 135.455 239.083 135.723C239.042 135.994 238.981 136.238 238.931 136.413C238.906 136.502 238.883 136.574 238.866 136.625C238.857 136.651 238.85 136.671 238.845 136.686L238.839 136.704L238.837 136.709L238.836 136.711L238.836 136.712L238.836 136.712C238.836 136.712 238.836 136.712 238.295 136.514L238.836 136.712L238.798 136.816L233.942 142.254L233.801 142.303L233.612 141.759C233.801 142.303 233.802 142.303 233.801 142.303L233.801 142.303L233.8 142.304L233.798 142.305L233.79 142.307C233.783 142.309 233.774 142.312 233.763 142.316C233.741 142.324 233.708 142.334 233.668 142.347C233.586 142.373 233.47 142.407 233.328 142.446C233.044 142.523 232.651 142.616 232.215 142.678C231.781 142.74 231.287 142.774 230.808 142.724C230.334 142.674 229.826 142.536 229.414 142.212C228.992 141.878 228.739 141.404 228.584 140.941C228.428 140.474 228.355 139.971 228.323 139.523C228.291 139.072 228.299 138.656 228.315 138.355C228.323 138.203 228.333 138.079 228.341 137.991C228.345 137.947 228.349 137.913 228.352 137.888C228.353 137.876 228.354 137.866 228.355 137.859L228.356 137.851L228.356 137.849L228.356 137.847C228.356 137.847 228.356 137.847 228.928 137.919L228.356 137.847L228.38 137.66L233.192 132.559C233.411 132.327 233.776 132.317 234.007 132.535Z" fill="black"/>
<path fill-rule="evenodd" clip-rule="evenodd" d="M9 10.5118H42V40.2899H9V10.5118ZM10.2406 12.7315V39.0493H40.7594V12.6952L25.2448 29.1646L10.2406 12.7315ZM39.9432 11.7524H11.0266L25.259 27.3403L39.9432 11.7524Z" fill="black"/>
<path fill-rule="evenodd" clip-rule="evenodd" d="M44.6516 132H8.99806V161.066H42.8585V159.61H10.4541V134.451L26.2923 149.849L44.6516 132ZM11.5192 133.456H41.0653L26.2923 147.819L11.5192 133.456ZM38.7169 143.964V145.42H47V143.964H38.7169ZM33.655 154.624H47V153.168H33.655V154.624Z" fill="black"/>
<path fill-rule="evenodd" clip-rule="evenodd" d="M110 69H144.689V86.5925H143.217V71.4735L128.111 86.1081L111.472 71.3708V98.2512H129.576V99.723H110V69ZM112.677 70.4719H142.136L128.066 84.1023L112.677 70.4719ZM149 92.989L142.085 102.031L135.05 96.0784L136 94.9548L141.855 99.909L147.831 92.0949L149 92.989Z" fill="black"/>
<path fill-rule="evenodd" clip-rule="evenodd" d="M110.258 130H145.972V144.426H144.57V133.449L129.456 148.563L111.66 132.292V161.145H129.434V162.547H110.258V130ZM112.765 131.402H144.57V131.466L129.413 146.623L112.765 131.402Z" fill="black"/>
<path fill-rule="evenodd" clip-rule="evenodd" d="M142.446 156.432L147 151.878L146.152 151.03L141.598 155.583L137.045 151.03L136.196 151.878L140.75 156.432L136.196 160.985L137.045 161.833L141.598 157.28L146.152 161.833L147 160.985L142.446 156.432Z" fill="black"/>
<path fill-rule="evenodd" clip-rule="evenodd" d="M127.485 25.564V33.2788H128.514V25.564H132.327L127.999 21.2363L123.672 25.564H127.485ZM126.155 24.5353L127.999 22.6911L129.844 24.5353H126.155Z" fill="black"/>
<path fill-rule="evenodd" clip-rule="evenodd" d="M113.587 11.1623C113.216 11.1623 112.889 11.4085 112.787 11.7656L111.196 17.3342H144.292L142.701 11.7656C142.599 11.4085 142.273 11.1623 141.901 11.1623H113.587ZM144.46 18.3628H111.029V39.647C111.029 40.1063 111.401 40.4787 111.86 40.4787H143.628C144.087 40.4787 144.46 40.1063 144.46 39.647V18.3628ZM111.798 11.483C112.026 10.6843 112.756 10.1337 113.587 10.1337H141.901C142.732 10.1337 143.462 10.6843 143.69 11.483L145.488 17.7765V39.647C145.488 40.6744 144.655 41.5074 143.628 41.5074H111.86C110.833 41.5074 110 40.6744 110 39.647V17.7765L111.798 11.483Z" fill="black"/>
<path fill-rule="evenodd" clip-rule="evenodd" d="M212 70.733C212 70.3282 212.328 70 212.733 70H250.261C250.666 70 250.994 70.3282 250.994 70.733V98.5914C250.994 98.9962 250.666 99.3244 250.261 99.3244H212.733C212.328 99.3244 212 98.9962 212 98.5914V70.733ZM213.466 72.2432V97.8584H249.528V72.2095L231.595 85.8216C231.329 86.0234 230.96 86.0201 230.698 85.8136L213.466 72.2432ZM248.083 71.4659H214.848L231.16 84.3113L248.083 71.4659ZM224.303 86.3311C224.589 86.6174 224.589 87.0815 224.303 87.3677L217.626 94.0445C217.339 94.3308 216.875 94.3308 216.589 94.0445C216.303 93.7583 216.303 93.2942 216.589 93.0079L223.266 86.3311C223.552 86.0449 224.016 86.0449 224.303 86.3311ZM237.541 86.3311C237.827 86.0449 238.291 86.0449 238.577 86.3311L245.254 93.0079C245.54 93.2942 245.54 93.7583 245.254 94.0445C244.968 94.3308 244.504 94.3308 244.217 94.0445L237.541 87.3677C237.254 87.0815 237.254 86.6174 237.541 86.3311Z" fill="black"/>
<path fill-rule="evenodd" clip-rule="evenodd" d="M232.359 7L238.42 13.0617L237.45 14.0318L233.044 9.62606V23.7303H231.673V9.62606L227.267 14.0318L226.297 13.0617L232.359 7ZM217.75 9.70878H223.145V11.0807H218.841L215.327 26.3092L213.99 26.0007L217.75 9.70878ZM245.868 11.0807H241.33V9.70878H246.975L250.487 26.0105L249.146 26.2994L245.868 11.0807ZM213.973 28.3786H225.977L226.172 28.7368C226.776 29.8475 227.602 31.0644 228.567 32.0939C229.537 33.13 230.607 33.9328 231.692 34.2861C232.743 34.6283 233.832 34.5602 234.949 33.8078C236.101 33.0324 237.332 31.4957 238.519 28.789L238.699 28.3786H250.502V44.0559H213.973V28.3786ZM215.345 29.7505V42.6841H249.13V29.7505H239.592C238.403 32.3376 237.101 34.0133 235.716 34.9458C234.224 35.9497 232.692 36.0545 231.267 35.5905C229.877 35.1375 228.618 34.1552 227.566 33.0318C226.612 32.0139 225.794 30.8444 225.167 29.7505H215.345Z" fill="black"/>
<path fill-rule="evenodd" clip-rule="evenodd" d="M9 71H45.2811V86.3221H43.879V73.3936L28.4075 88.8651L10.4021 73.2378V97.4235H22.9128V98.8256H9V71ZM11.5784 72.4021H42.8875L28.3398 86.9498L11.5784 72.4021Z" fill="black"/>
<path fill-rule="evenodd" clip-rule="evenodd" d="M36.7815 88.4538C37.0631 88.7195 37.076 89.1632 36.8103 89.4449L28.1651 98.6088C28.1517 98.7525 28.135 98.9599 28.1215 99.2142C28.0941 99.732 28.0805 100.437 28.1343 101.191C28.1884 101.948 28.309 102.732 28.5385 103.417C28.7698 104.107 29.0924 104.641 29.5121 104.972C29.9228 105.296 30.5048 105.488 31.2138 105.562C31.9173 105.636 32.6889 105.588 33.4205 105.484C34.1486 105.38 34.8147 105.223 35.3001 105.091C35.542 105.026 35.7373 104.967 35.8708 104.925C35.8819 104.922 35.8925 104.918 35.9027 104.915L44.4909 95.2965C44.5159 95.2204 44.5502 95.1116 44.5883 94.9781C44.6686 94.6972 44.7636 94.3147 44.8264 93.9013C44.8898 93.4838 44.9163 93.0606 44.8743 92.69C44.8318 92.3145 44.7265 92.0558 44.5842 91.8957C44.4298 91.7221 44.166 91.5927 43.7546 91.5396C43.346 91.4868 42.8656 91.5199 42.3833 91.6008C41.9064 91.6807 41.4596 91.8018 41.1294 91.9043C40.9653 91.9552 40.8322 92.0009 40.7415 92.0333C40.7408 92.0335 40.7401 92.0338 40.7394 92.034L33.9776 98.7958C33.7038 99.0696 33.2599 99.0696 32.9861 98.7958C32.7124 98.522 32.7124 98.0781 32.9861 97.8043L39.9593 90.8312L40.0949 90.7777L40.352 91.43C40.0949 90.7777 40.0951 90.7777 40.0952 90.7776L40.0967 90.777L40.0998 90.7758L40.1099 90.7719C40.1182 90.7687 40.1299 90.7642 40.1447 90.7586C40.1744 90.7475 40.2166 90.7318 40.27 90.7128C40.3767 90.6747 40.5284 90.6227 40.7138 90.5652C41.0826 90.4507 41.5935 90.3115 42.1514 90.2179C42.7038 90.1253 43.3354 90.0716 43.9343 90.149C44.5304 90.226 45.1695 90.4437 45.6322 90.9642C46.0383 91.4211 46.2072 91.9994 46.2676 92.5323C46.3284 93.07 46.2863 93.6266 46.2126 94.1119C46.1383 94.6011 46.0277 95.0442 45.9365 95.3632C45.8907 95.5236 45.8493 95.6545 45.8188 95.7467C45.8036 95.7928 45.7911 95.8293 45.7821 95.855C45.7776 95.8679 45.774 95.8781 45.7713 95.8854L45.7681 95.8943L45.7667 95.8982L45.7666 95.8986C45.7665 95.8987 45.7665 95.8989 45.1082 95.6577L45.7665 95.8989L45.7204 96.0247L36.7025 106.125L36.5313 106.184L36.3004 105.522C36.5313 106.184 36.5311 106.184 36.5309 106.185L36.5305 106.185L36.5253 106.187L36.5121 106.191C36.5009 106.195 36.485 106.2 36.4647 106.207C36.424 106.22 36.3654 106.24 36.2909 106.263C36.1419 106.31 35.9286 106.374 35.6665 106.445C35.1437 106.586 34.4194 106.757 33.6187 106.872C32.8215 106.985 31.9259 107.047 31.0676 106.957C30.2147 106.867 29.3403 106.622 28.6438 106.073C27.9299 105.51 27.4876 104.694 27.209 103.862C26.9287 103.025 26.7946 102.115 26.7358 101.291C26.6766 100.462 26.6918 99.6968 26.7214 99.1399C26.7362 98.8607 26.7547 98.632 26.7697 98.4718C26.7771 98.3916 26.7838 98.3285 26.7886 98.2846C26.791 98.2627 26.793 98.2455 26.7944 98.2335L26.7961 98.2192L26.7967 98.215L26.7969 98.2132C26.7969 98.213 26.7969 98.2128 27.4925 98.3001L26.7969 98.2128L26.8254 97.9856L35.7904 88.4827C36.0561 88.201 36.4998 88.1881 36.7815 88.4538Z" fill="black"/>
</svg>
