<svg width="25" height="24" viewBox="0 0 25 24" fill="none" xmlns="http://www.w3.org/2000/svg">
<path d="M24.084 12.0733C24.084 5.40541 18.7114 -1.90735e-06 12.084 -1.90735e-06C5.45656 -1.90735e-06 0.0839844 5.40541 0.0839844 12.0733C0.0839844 18.0995 4.47221 23.0943 10.209 24V15.5633H7.16211V12.0733H10.209V9.41343C10.209 6.38755 12.0005 4.71615 14.7416 4.71615C16.0545 4.71615 17.4277 4.95195 17.4277 4.95195V7.92313H15.9146C14.4239 7.92313 13.959 8.85379 13.959 9.80857V12.0733H17.2871L16.7551 15.5633H13.959V24C19.6958 23.0943 24.084 18.0995 24.084 12.0733Z" fill="#1A77F2"/>
</svg>
