<svg width="260" height="178" viewBox="0 0 260 178" fill="none" xmlns="http://www.w3.org/2000/svg">
<path fill-rule="evenodd" clip-rule="evenodd" d="M139.001 61.8674L161.548 67.5569V77H153.948V96.1031H160.4V98.4H117.4V96.1031H123.652V77H116.252V67.5549L139.001 61.8674ZM125.948 77V96.1031H137.852V77H125.948ZM140.148 77V96.1031H151.652V77H140.148ZM118.548 69.3482V74.7031H159.252V69.3462L138.999 64.2356L118.548 69.3482ZM163 108H114V105.703H163V108Z" fill="black"/>
<path fill-rule="evenodd" clip-rule="evenodd" d="M37.1697 120.365C39.3581 118.819 41.9481 118.501 43.6827 118.671L44.9249 118.793L44.6199 120.003L44.6197 120.004L44.6184 120.009L44.6128 120.032C44.6077 120.052 44.6 120.084 44.5902 120.125C44.5705 120.207 44.5421 120.327 44.5079 120.479C44.4395 120.782 44.3485 121.206 44.2586 121.69C44.0751 122.676 43.9109 123.833 43.9252 124.701C43.938 125.483 44.1032 126.519 44.2791 127.403C44.351 127.764 44.4224 128.089 44.4811 128.344C46.0456 128.919 47.2575 129.947 48.1405 130.996C48.8762 131.87 49.4118 132.791 49.755 133.555H57V148.052H52.0672C51.5932 149.754 50.6139 151.211 49.5813 152.352C48.5936 153.443 47.5114 154.295 46.6499 154.848V163.668H34.8768V158.584H31.5786V163.668H21.0766V154.025C16.7571 150.432 14.5672 146.318 14.1344 142.336C13.0505 142.294 11.8312 141.87 10.8401 140.755C9.46615 139.211 8.72195 136.55 9.09646 132.356L11.2372 132.547C10.8854 136.487 11.645 138.426 12.446 139.327C12.9457 139.889 13.5348 140.127 14.0705 140.18C14.3291 134.986 17.5704 130.457 22.4258 128.208C24.6885 127.159 27.3792 127 29.625 127.157C31.0181 127.254 32.31 127.479 33.3059 127.732C33.6311 124.122 35.1758 121.774 37.1697 120.365ZM43.5778 129.183C42.5375 129.452 42.5374 129.452 42.5374 129.452L42.5372 129.451L42.5366 129.449L42.5348 129.442L42.5283 129.416C42.5228 129.394 42.5148 129.362 42.5047 129.322C42.4846 129.241 42.4562 129.124 42.4222 128.979C42.3541 128.69 42.2632 128.285 42.1712 127.823C41.9908 126.916 41.7924 125.722 41.7762 124.737C41.7582 123.641 41.9575 122.308 42.1456 121.297C42.1779 121.123 42.2103 120.956 42.2419 120.8C41.0411 120.887 39.6273 121.26 38.4101 122.121C36.801 123.258 35.3918 125.346 35.3918 129.183V130.83L33.8843 130.166C33.2778 129.899 31.5632 129.447 29.475 129.301C27.3927 129.155 25.1201 129.328 23.3292 130.158C18.87 132.223 16.089 136.455 16.2066 141.14C16.2996 144.843 18.2073 148.983 22.8225 152.675L23.2258 152.998V161.519H29.4293V156.435H37.026V161.519H44.5006V153.609L45.0533 153.301C45.7732 152.902 46.941 152.066 47.9881 150.909C49.0375 149.75 49.897 148.346 50.1431 146.808L50.2879 145.903H54.8507V135.705H48.2507L48.0058 134.97C47.8049 134.367 47.3073 133.344 46.4963 132.381C45.689 131.422 44.6226 130.581 43.2951 130.219L42.6936 130.055L42.5374 129.452L43.5778 129.183Z" fill="black"/>
<path fill-rule="evenodd" clip-rule="evenodd" d="M144.693 139.793H159.869C160.429 139.793 160.882 140.247 160.882 140.806C160.882 141.366 160.429 141.819 159.869 141.819H145.449C144.325 142.86 143.102 144.537 142.732 146.441C142.365 148.333 142.807 150.603 145.437 152.897H159.869C160.429 152.897 160.882 153.35 160.882 153.91C160.882 154.469 160.429 154.923 159.869 154.923H144.7L144.42 154.691C141.029 151.89 140.21 148.804 140.743 146.054C141.257 143.407 142.991 141.236 144.41 140.033L144.693 139.793Z" fill="black"/>
<path fill-rule="evenodd" clip-rule="evenodd" d="M157.598 132.026H121.181C120.42 132.026 119.803 132.643 119.803 133.404V159.951C119.803 160.712 120.42 161.328 121.181 161.328H157.598C158.359 161.328 158.976 160.712 158.976 159.951V133.404C158.976 132.643 158.359 132.026 157.598 132.026ZM121.181 130C119.301 130 117.777 131.524 117.777 133.404V159.951C117.777 161.831 119.301 163.354 121.181 163.354H157.598C159.478 163.354 161.002 161.831 161.002 159.951V133.404C161.002 131.524 159.478 130 157.598 130H121.181Z" fill="black"/>
<path d="M149.519 147.391C149.519 148.417 148.688 149.248 147.662 149.248C146.636 149.248 145.805 148.417 145.805 147.391C145.805 146.365 146.636 145.534 147.662 145.534C148.688 145.534 149.519 146.365 149.519 147.391Z" fill="black"/>
<path fill-rule="evenodd" clip-rule="evenodd" d="M239.964 133.649H247.982V162.104H250.234V164.184H205.848V162.104H209.099V152.697H216.882V162.104H219.681V145.936H227.758V162.104H229.382V139.411H238.458V162.104H239.964V133.649ZM242.044 162.104H245.902V135.73H242.044V162.104ZM236.378 162.104V141.491H231.462V162.104H236.378ZM225.678 162.104V148.017H221.762V162.104H225.678ZM214.802 162.104V154.778H211.18V162.104H214.802Z" fill="black"/>
<path fill-rule="evenodd" clip-rule="evenodd" d="M244.885 118H250.628V123.626H248.548V122.103C242.722 129.213 235.027 134.615 227.604 138.529C219.345 142.884 211.349 145.436 206.473 146.455L206.047 144.419C210.734 143.439 218.547 140.953 226.633 136.689C234.157 132.722 241.855 127.249 247.504 120.081H244.885V118Z" fill="black"/>
<path fill-rule="evenodd" clip-rule="evenodd" d="M9 66.9179C9 66.411 9.41096 66 9.91791 66H49.0821C49.589 66 50 66.411 50 66.9179V91.0321C50 91.539 49.589 91.95 49.0821 91.95H9.91791C9.41096 91.95 9 91.539 9 91.0321V66.9179ZM10.8358 67.8358V90.1142H48.1642V67.8358H10.8358ZM9 96.8469C9 96.3399 9.41096 95.929 9.91791 95.929H49.0821C49.589 95.929 50 96.3399 50 96.8469C50 97.3538 49.589 97.7648 49.0821 97.7648H9.91791C9.41096 97.7648 9 97.3538 9 96.8469ZM9 103.688C9 103.181 9.41096 102.77 9.91791 102.77H49.0821C49.589 102.77 50 103.181 50 103.688C50 104.195 49.589 104.606 49.0821 104.606H9.91791C9.41096 104.606 9 104.195 9 103.688Z" fill="black"/>
<path d="M13.8943 67.2239C13.3602 70.1735 11.224 70.6874 10.2227 70.5757V67.2239H13.8943Z" fill="black"/>
<path d="M13.8943 90.4777C13.3602 87.5281 11.224 87.0141 10.2227 87.1259V90.4777H13.8943Z" fill="black"/>
<path d="M45.1057 67.2239C45.6398 70.1735 47.776 70.6874 48.7773 70.5757V67.2239H45.1057Z" fill="black"/>
<path d="M45.1057 90.4777C45.6398 87.5281 47.776 87.0141 48.7773 87.1259V90.4777H45.1057Z" fill="black"/>
<path fill-rule="evenodd" clip-rule="evenodd" d="M29.4146 83.2105C31.801 83.2105 33.7356 81.2759 33.7356 78.8895C33.7356 76.5031 31.801 74.5685 29.4146 74.5685C27.0282 74.5685 25.0936 76.5031 25.0936 78.8895C25.0936 81.2759 27.0282 83.2105 29.4146 83.2105ZM29.4146 85.0463C32.8149 85.0463 35.5714 82.2898 35.5714 78.8895C35.5714 75.4892 32.8149 72.7327 29.4146 72.7327C26.0143 72.7327 23.2578 75.4892 23.2578 78.8895C23.2578 82.2898 26.0143 85.0463 29.4146 85.0463Z" fill="black"/>
<path fill-rule="evenodd" clip-rule="evenodd" d="M228.211 5.41065C227.952 5.41065 227.741 5.62117 227.741 5.88086V12.5758C227.741 12.8355 227.952 13.046 228.211 13.046H241.925C242.184 13.046 242.395 12.8355 242.395 12.5758V5.88086C242.395 5.62117 242.184 5.41065 241.925 5.41065H228.211ZM226.33 5.88086C226.33 4.84209 227.172 4 228.211 4H241.925C242.963 4 243.805 4.84209 243.805 5.88086V6.96334H248.787C249.826 6.96334 250.668 7.80542 250.668 8.8442V43.4569C250.668 44.4956 249.826 45.3377 248.787 45.3377H220.881C219.842 45.3377 219 44.4956 219 43.4569V8.8442C219 7.80543 219.842 6.96334 220.881 6.96334H226.33V5.88086ZM226.33 8.37398H220.881C220.621 8.37398 220.411 8.5845 220.411 8.8442V43.4569C220.411 43.7165 220.621 43.9271 220.881 43.9271H248.787C249.047 43.9271 249.257 43.7165 249.257 43.4569V8.8442C249.257 8.5845 249.047 8.37398 248.787 8.37398H243.805V12.5758C243.805 13.6145 242.963 14.4566 241.925 14.4566H228.211C227.172 14.4566 226.33 13.6145 226.33 12.5758V8.37398ZM234.285 38.3938V18.8981H235.695V38.3938H234.285ZM242.558 24.8248V38.3938H241.147V24.8248H242.558ZM229.145 29.1918V38.3938H227.734V29.1918H229.145Z" fill="black"/>
<path fill-rule="evenodd" clip-rule="evenodd" d="M142.321 4L146.648 8.63588L148.74 7.53935L154.482 17.7053H157.199V45.2822H120.066V25.3993C120.066 24.8899 120.479 24.477 120.989 24.477C121.498 24.477 121.911 24.8899 121.911 25.3993V43.4377H155.354V19.5499H136.263C135.753 19.5499 135.34 19.137 135.34 18.6276C135.34 18.1183 135.753 17.7053 136.263 17.7053H152.364L148.013 10.0029L147.185 10.4366C147.166 10.458 147.146 10.4788 147.125 10.4987C146.976 10.6375 146.794 10.7176 146.606 10.7401L136.314 16.1339C135.863 16.3704 135.306 16.1963 135.069 15.7452C134.833 15.294 135.007 14.7366 135.458 14.5002L144.953 9.52389L142.244 6.6209C141.01 7.80042 139.434 9.32043 138.086 10.6504C137.28 11.4449 136.561 12.1663 136.046 12.7051C135.787 12.9759 135.588 13.1913 135.458 13.3427C135.416 13.3913 135.387 13.4276 135.367 13.453C135.219 13.7657 134.901 13.9821 134.532 13.9821C134.023 13.9821 133.61 13.5692 133.61 13.0598C133.61 12.8092 133.713 12.6203 133.732 12.5852C133.733 12.5838 133.734 12.5826 133.734 12.5816C133.771 12.5137 133.811 12.4548 133.841 12.413C133.903 12.3264 133.98 12.2321 134.06 12.1397C134.222 11.951 134.447 11.7079 134.713 11.4301C135.247 10.8716 135.981 10.1352 136.791 9.33717C138.41 7.73929 140.352 5.87296 141.646 4.64187L142.321 4Z" fill="black"/>
<path fill-rule="evenodd" clip-rule="evenodd" d="M145.571 27.4114H156.351C156.86 27.4114 157.273 27.8243 157.273 28.3337C157.273 28.843 156.86 29.2559 156.351 29.2559H146.223C144.747 30.5171 144.611 31.5521 144.776 32.2634C144.956 33.0409 145.563 33.737 146.176 34.183H156.351C156.86 34.183 157.273 34.596 157.273 35.1053C157.273 35.6147 156.86 36.0276 156.351 36.0276H145.624L145.398 35.8839C144.496 35.3114 143.331 34.1961 142.979 32.6804C142.6 31.0463 143.23 29.2691 145.319 27.6112L145.571 27.4114Z" fill="black"/>
<path fill-rule="evenodd" clip-rule="evenodd" d="M126.582 10.7255C126.837 10.7255 127.043 10.9319 127.043 11.1866V13.3486C127.043 13.6033 126.837 13.8098 126.582 13.8098C126.328 13.8098 126.121 13.6033 126.121 13.3486V11.1866C126.121 10.9319 126.328 10.7255 126.582 10.7255Z" fill="black"/>
<path fill-rule="evenodd" clip-rule="evenodd" d="M126.582 21.4373C126.837 21.4373 127.043 21.6437 127.043 21.8984V24.0604C127.043 24.3151 126.837 24.5216 126.582 24.5216C126.328 24.5216 126.121 24.3151 126.121 24.0604V21.8984C126.121 21.6437 126.328 21.4373 126.582 21.4373Z" fill="black"/>
<path fill-rule="evenodd" clip-rule="evenodd" d="M126.631 25.3604C130.931 25.3604 134.417 21.8744 134.417 17.5742C134.417 13.2739 130.931 9.78793 126.631 9.78793C122.331 9.78793 118.845 13.2739 118.845 17.5742C118.845 21.8744 122.331 25.3604 126.631 25.3604ZM126.631 27.205C131.95 27.205 136.262 22.8931 136.262 17.5742C136.262 12.2552 131.95 7.94336 126.631 7.94336C121.312 7.94336 117 12.2552 117 17.5742C117 22.8931 121.312 27.205 126.631 27.205Z" fill="black"/>
<path d="M128.405 15.6546C128.365 15.2888 128.201 15.004 127.91 14.8002C127.623 14.5964 127.249 14.4945 126.788 14.4945C126.464 14.4945 126.186 14.5434 125.955 14.6411C125.723 14.7388 125.546 14.8714 125.423 15.0389C125.3 15.2065 125.237 15.3977 125.234 15.6127C125.234 15.7914 125.275 15.9463 125.356 16.0775C125.44 16.2087 125.553 16.3204 125.695 16.4125C125.837 16.5019 125.995 16.5773 126.168 16.6387C126.341 16.7001 126.516 16.7518 126.692 16.7936L127.496 16.9946C127.82 17.07 128.131 17.1719 128.43 17.3004C128.731 17.4288 129.001 17.5907 129.238 17.7861C129.478 17.9816 129.668 18.2175 129.807 18.4939C129.947 18.7703 130.017 19.0941 130.017 19.4654C130.017 19.968 129.888 20.4105 129.632 20.793C129.375 21.1727 129.003 21.47 128.518 21.685C128.035 21.8972 127.45 22.0032 126.763 22.0032C126.096 22.0032 125.516 21.8999 125.025 21.6933C124.536 21.4867 124.154 21.1852 123.877 20.7888C123.604 20.3923 123.456 19.9093 123.434 19.3398H124.962C124.984 19.6385 125.077 19.887 125.239 20.0852C125.4 20.2835 125.611 20.4314 125.871 20.5291C126.133 20.6269 126.426 20.6757 126.75 20.6757C127.088 20.6757 127.384 20.6255 127.638 20.525C127.895 20.4217 128.096 20.2793 128.241 20.0978C128.386 19.9135 128.46 19.6986 128.463 19.4529C128.46 19.2295 128.395 19.0453 128.266 18.9001C128.138 18.7521 127.958 18.6293 127.726 18.5316C127.497 18.4311 127.229 18.3417 126.922 18.2635L125.946 18.0123C125.24 17.8308 124.682 17.5558 124.271 17.1873C123.864 16.816 123.66 16.3232 123.66 15.709C123.66 15.2037 123.797 14.7612 124.07 14.3815C124.347 14.0018 124.722 13.7072 125.197 13.4978C125.671 13.2857 126.209 13.1796 126.809 13.1796C127.418 13.1796 127.951 13.2857 128.409 13.4978C128.869 13.7072 129.231 13.999 129.493 14.3731C129.756 14.7444 129.891 15.1716 129.9 15.6546H128.405Z" fill="black"/>
<path fill-rule="evenodd" clip-rule="evenodd" d="M228.33 72.2478C227.82 72.2478 227.406 72.6615 227.406 73.1718V77.0096C227.406 77.52 227.82 77.9337 228.33 77.9337C228.84 77.9337 229.254 77.52 229.254 77.0096V73.1718C229.254 72.6615 228.84 72.2478 228.33 72.2478Z" fill="black"/>
<path fill-rule="evenodd" clip-rule="evenodd" d="M249.252 74.6431C247.554 75.9933 243.699 76.9361 239.216 76.9361C234.732 76.9361 230.878 75.9933 229.18 74.6431C228.586 74.1704 228.256 73.6478 228.256 73.0983C228.256 70.9787 233.163 69.2605 239.216 69.2605C245.269 69.2605 250.176 70.9787 250.176 73.0983C250.176 73.6478 249.846 74.1704 249.252 74.6431ZM230.074 72.9374C230.073 72.9374 230.075 72.9412 230.08 72.9487C230.076 72.9411 230.074 72.9374 230.074 72.9374ZM230.215 73.0983C230.238 73.0769 230.265 73.0535 230.296 73.028C230.619 72.7602 231.198 72.4364 232.077 72.1288C233.817 71.5195 236.341 71.1086 239.216 71.1086C242.091 71.1086 244.615 71.5195 246.355 72.1288C247.233 72.4364 247.813 72.7602 248.136 73.028C248.167 73.0535 248.194 73.0769 248.217 73.0983C248.194 73.1197 248.167 73.1431 248.136 73.1686C247.813 73.4364 247.233 73.7602 246.355 74.0678C244.615 74.6771 242.091 75.088 239.216 75.088C236.341 75.088 233.817 74.6771 232.077 74.0678C231.198 73.7602 230.619 73.4364 230.296 73.1686C230.265 73.1431 230.238 73.1197 230.215 73.0983ZM248.358 72.9374C248.358 72.9374 248.355 72.9411 248.352 72.9487C248.357 72.9412 248.359 72.9374 248.358 72.9374ZM248.358 73.2592C248.359 73.2592 248.357 73.2554 248.352 73.2479C248.355 73.2555 248.358 73.2592 248.358 73.2592ZM230.08 73.2479C230.075 73.2554 230.073 73.2592 230.074 73.2592C230.074 73.2592 230.076 73.2555 230.08 73.2479Z" fill="black"/>
<path fill-rule="evenodd" clip-rule="evenodd" d="M213.761 80.0962C213.761 80.0962 213.762 80.1 213.767 80.1075C213.764 80.0999 213.761 80.0962 213.761 80.0962ZM213.903 80.2571C213.926 80.2358 213.953 80.2123 213.983 80.1868C214.307 79.919 214.886 79.5952 215.764 79.2876C217.504 78.6784 220.028 78.2674 222.903 78.2674C225.779 78.2674 228.303 78.6784 230.042 79.2876C230.921 79.5952 231.5 79.919 231.823 80.1868C231.854 80.2123 231.881 80.2358 231.904 80.2571C231.881 80.2785 231.854 80.3019 231.823 80.3274C231.5 80.5952 230.921 80.919 230.042 81.2266C228.303 81.8359 225.779 82.2469 222.903 82.2469C220.028 82.2469 217.504 81.8359 215.764 81.2266C214.886 80.919 214.307 80.5952 213.983 80.3274C213.953 80.3019 213.926 80.2785 213.903 80.2571ZM232.046 80.0962C232.045 80.0962 232.043 80.0999 232.04 80.1075C232.044 80.1 232.046 80.0962 232.046 80.0962ZM232.046 80.418C232.046 80.418 232.044 80.4142 232.04 80.4068C232.043 80.4143 232.045 80.418 232.046 80.418ZM213.767 80.4068C213.762 80.4142 213.761 80.418 213.761 80.418C213.761 80.418 213.764 80.4143 213.767 80.4068ZM222.903 84.0949C216.85 84.0949 211.944 82.3767 211.944 80.2571C211.944 78.1376 216.85 76.4193 222.903 76.4193C228.956 76.4193 233.863 78.1376 233.863 80.2571C233.863 82.3767 228.956 84.0949 222.903 84.0949Z" fill="black"/>
<path fill-rule="evenodd" clip-rule="evenodd" d="M224.687 97.6618C224.687 97.6618 224.688 97.6655 224.693 97.673C224.69 97.6655 224.687 97.6617 224.687 97.6618ZM224.828 97.8227C224.852 97.8013 224.878 97.7779 224.909 97.7523C225.233 97.4846 225.812 97.1607 226.69 96.8531C228.43 96.2439 230.954 95.8329 233.829 95.8329C236.704 95.8329 239.228 96.2439 240.968 96.8531C241.847 97.1607 242.426 97.4846 242.749 97.7523C242.78 97.7779 242.807 97.8013 242.83 97.8227C242.807 97.844 242.78 97.8675 242.749 97.893C242.426 98.1608 241.847 98.4846 240.968 98.7922C239.228 99.4014 236.704 99.8124 233.829 99.8124C230.954 99.8124 228.43 99.4014 226.69 98.7922C225.812 98.4846 225.233 98.1608 224.909 97.893C224.878 97.8675 224.852 97.844 224.828 97.8227ZM242.971 97.6618C242.971 97.6617 242.969 97.6655 242.966 97.673C242.97 97.6655 242.972 97.6618 242.971 97.6618ZM242.971 97.9836C242.972 97.9836 242.97 97.9798 242.966 97.9723C242.969 97.9799 242.971 97.9836 242.971 97.9836ZM224.693 97.9723C224.688 97.9798 224.687 97.9836 224.687 97.9836C224.687 97.9836 224.69 97.9799 224.693 97.9723ZM233.829 101.66C227.776 101.66 222.869 99.9422 222.869 97.8227C222.869 95.7031 227.776 93.9849 233.829 93.9849C239.882 93.9849 244.789 95.7031 244.789 97.8227C244.789 99.9422 239.882 101.66 233.829 101.66Z" fill="black"/>
<path fill-rule="evenodd" clip-rule="evenodd" d="M250.064 72.6542C249.554 72.6542 249.14 73.0679 249.14 73.5782V79.9999C246.345 81.6355 240.014 83.8185 233.976 81.1819C233.508 80.9777 232.963 81.1913 232.759 81.659C232.555 82.1266 232.769 82.6713 233.236 82.8756C239.396 85.5652 245.71 83.8025 249.14 82.0965V85.8141C247.573 86.6921 245.222 87.7036 242.641 88.0991C239.81 88.5328 236.778 88.2178 234.157 86.269C233.748 85.9645 233.169 86.0496 232.864 86.4591C232.56 86.8687 232.645 87.4475 233.055 87.752C236.191 90.0839 239.77 90.4085 242.921 89.9258C245.306 89.5604 247.488 88.7278 249.14 87.9037V91.8371C248.271 92.7683 245.861 94.4632 242.057 94.4632C241.546 94.4632 241.133 94.8769 241.133 95.3872C241.133 95.8976 241.546 96.3113 242.057 96.3113C246.777 96.3113 249.801 94.0334 250.796 92.7406L250.988 92.4913V73.5782C250.988 73.0679 250.575 72.6542 250.064 72.6542Z" fill="black"/>
<path fill-rule="evenodd" clip-rule="evenodd" d="M233.607 79.9603C233.097 79.9603 232.683 80.374 232.683 80.8844V86.6804C224.193 90.5315 216.36 88.4336 213.091 86.7245V80.8844C213.091 80.374 212.678 79.9603 212.167 79.9603C211.657 79.9603 211.243 80.374 211.243 80.8844V97.4905L211.542 97.7652C212.959 99.0648 217.103 101.124 223.246 100.325C223.752 100.26 224.109 99.7961 224.043 99.29C223.978 98.7839 223.514 98.427 223.008 98.4928C217.819 99.1674 214.378 97.5997 213.091 96.6476V93.7493C216.787 95.5047 223.985 96.9846 232.683 93.5639V94.0583C232.683 94.5687 233.097 94.9824 233.607 94.9824C234.118 94.9824 234.531 94.5687 234.531 94.0583V80.8844C234.531 80.374 234.118 79.9603 233.607 79.9603ZM232.683 91.5688C223.384 95.4796 215.974 93.3452 213.091 91.6643V88.7741C217.005 90.5153 224.528 92.0974 232.683 88.6957V91.5688Z" fill="black"/>
<path fill-rule="evenodd" clip-rule="evenodd" d="M244.49 97.6735C243.98 97.6735 243.566 98.0872 243.566 98.5975V104.555C235.243 109.166 227.362 106.633 224.085 104.593V98.5975C224.085 98.0872 223.671 97.6735 223.161 97.6735C222.65 97.6735 222.237 98.0872 222.237 98.5975V105.577L222.636 105.853C226.107 108.249 235.327 111.52 244.956 105.89L245.414 105.622V98.5975C245.414 98.0872 245 97.6735 244.49 97.6735Z" fill="black"/>
<path fill-rule="evenodd" clip-rule="evenodd" d="M241.265 54H246.919L245.458 59.1153L243.681 58.6076L244.139 57.0052L232.806 64.195L224.366 62.6477L211.241 70.8938L210.258 69.329L223.992 60.7002L232.427 62.2467L242.513 55.8481H241.265V54Z" fill="black"/>
<path fill-rule="evenodd" clip-rule="evenodd" d="M51.7457 5.62142L42.7517 15.2341L41.215 13.7962L50.209 4.18359L51.7457 5.62142ZM28.5108 8.94211H38.61V19.83H47.1281V36.988C47.6789 36.8853 48.169 36.7878 48.5676 36.7058C48.9055 36.6363 49.1771 36.5781 49.3636 36.5373C49.4568 36.517 49.5287 36.501 49.5769 36.4902L49.6058 36.4837C49.6083 36.4829 49.6109 36.4821 49.6136 36.4812C49.6486 36.4702 49.6984 36.4547 49.7611 36.4358C49.8865 36.3981 50.0643 36.3465 50.279 36.2893C50.7056 36.1758 51.2922 36.0368 51.9117 35.943C52.5175 35.8513 53.2213 35.7921 53.8578 35.8755C54.4507 35.9532 55.3013 36.2004 55.721 37.0204C56.0089 37.5827 56.0343 38.1765 55.9724 38.6715C55.9103 39.1683 55.7519 39.6382 55.5886 40.0225C55.4231 40.4119 55.2371 40.7493 55.0944 40.9873C55.0224 41.1075 54.9598 41.205 54.9139 41.2744C54.8909 41.3091 54.872 41.337 54.8581 41.3572C54.8511 41.3673 54.8454 41.3755 54.841 41.3818L54.8354 41.3897L54.8334 41.3925L54.8326 41.3936L54.8323 41.3941C54.8321 41.3943 54.832 41.3945 53.9754 40.7834C54.2528 41.7984 54.2527 41.7984 54.2526 41.7984L54.086 41.8439C54.0408 41.8563 53.9868 41.871 53.9245 41.888C53.837 41.9118 53.7332 41.9401 53.6144 41.9725C53.2079 42.0832 52.6264 42.2413 51.9263 42.431C50.5261 42.8105 48.6508 43.3165 46.7513 43.8226C44.8526 44.3285 42.9265 44.8354 41.4257 45.2162C40.6762 45.4064 40.0273 45.5665 39.539 45.6796C39.2957 45.736 39.0849 45.7824 38.9181 45.8152C38.7952 45.8395 38.585 45.8806 38.4143 45.8806H38.3272L38.2413 45.8662C35.6053 45.4269 32.3895 44.2857 29.4851 43.0698C26.7057 41.9062 24.146 40.6463 22.5409 39.7894H18.1474V41.8356H9V23.9797H18.1474V25.9784H20.3734V15.6519H28.5108V8.94211ZM28.5108 17.7564H22.4779V25.9784H27.0201L27.3046 26.1987C27.5877 26.418 27.9935 26.6995 28.5108 27.0187V17.7564ZM30.6153 28.1801C32.2027 28.9689 34.2076 29.7917 36.5055 30.4207V11.0466H30.6153V28.1801ZM38.61 30.9205C38.9017 30.9792 39.197 31.0343 39.4956 31.0853L40.0347 31.1773L40.2691 31.6714C40.5936 32.3552 40.8035 33.2426 40.5639 34.1351C40.3095 35.0827 39.603 35.8352 38.4922 36.2795C37.7969 36.5576 36.9341 36.7215 35.8846 36.7606C36.9143 37.1191 37.881 37.4487 38.6819 37.717C39.4188 37.8523 40.5346 37.8486 41.8502 37.7403C42.8821 37.6554 43.9816 37.5113 45.0236 37.3492V21.9345H38.61V30.9205ZM27.4185 33.4546C27.3925 33.4358 27.3983 33.4365 27.4212 33.4566C27.4203 33.4559 27.4193 33.4553 27.4185 33.4546ZM16.0429 26.0842H11.1045V39.7311H16.0429V26.0842ZM18.1474 37.6849V28.0829H26.3108C26.9602 28.5525 27.9008 29.1415 29.0748 29.7566C31.1436 30.8404 33.9861 32.0305 37.3225 32.7958C37.7185 32.8866 38.1216 32.9715 38.5313 33.0495C38.5739 33.2571 38.5712 33.4411 38.5314 33.5894C38.478 33.7883 38.3182 34.0825 37.7107 34.3255C37.0634 34.5844 35.9613 34.7549 34.1814 34.6153C32.4156 34.4768 30.057 34.0395 26.9477 33.1565L24.6517 32.5045L25.7191 34.6393C25.8623 34.9257 26.1018 35.0994 26.1827 35.158L26.1831 35.1584C26.3082 35.249 26.4514 35.3341 26.5929 35.4114C26.8792 35.5678 27.2511 35.7422 27.6715 35.9255C28.5175 36.2946 29.6425 36.7354 30.8613 37.1911C33.3032 38.1041 36.178 39.0982 38.0803 39.735L38.1431 39.756L38.208 39.7689C39.2495 39.9773 40.639 39.9516 42.0229 39.8377C43.4325 39.7217 44.936 39.5044 46.2516 39.2816C47.3336 39.0984 48.2979 38.9099 48.9917 38.7672C49.3388 38.6958 49.6188 38.6357 49.8127 38.5933C49.9097 38.5722 49.9851 38.5554 50.0367 38.5438L50.096 38.5305L50.1116 38.5269L50.1174 38.5256C50.1175 38.5256 50.1177 38.5256 49.8829 37.4999L50.1174 38.5256L50.1649 38.5147L50.2104 38.4998L50.211 38.4996L50.2175 38.4975C50.2235 38.4956 50.2334 38.4924 50.2468 38.4882C50.2736 38.4797 50.3146 38.467 50.368 38.4509C50.4749 38.4187 50.6305 38.3735 50.8201 38.323C51.2025 38.2213 51.709 38.1021 52.2267 38.0238C52.7583 37.9433 53.2357 37.9164 53.5843 37.9621C53.744 37.9831 53.8285 38.0116 53.868 38.0291C53.8917 38.1028 53.9076 38.223 53.8842 38.4105C53.8546 38.6467 53.7708 38.9193 53.6517 39.1995C53.5412 39.4595 53.4134 39.696 53.3075 39.8749C53.2347 39.8947 53.1525 39.9171 53.0615 39.9419C52.6557 40.0524 52.075 40.2103 51.3758 40.3998C49.9773 40.7788 48.1051 41.284 46.2095 41.7891C44.313 42.2944 42.3965 42.7987 40.9082 43.1764C40.1632 43.3654 39.531 43.5213 39.0641 43.6294C38.8299 43.6837 38.6447 43.7242 38.511 43.7505C38.4813 43.7564 38.4568 43.761 38.4369 43.7646C36.0715 43.3477 33.1042 42.3035 30.2978 41.1286C27.4467 39.935 24.8323 38.6369 23.3062 37.8116L23.072 37.6849H18.1474ZM53.8973 38.0452C53.8973 38.0452 53.8959 38.0444 53.8936 38.0424C53.8963 38.0441 53.8974 38.0451 53.8973 38.0452ZM53.9754 40.7834L54.2526 41.7984L54.6143 41.6996L54.832 41.3945L53.9754 40.7834Z" fill="black"/>
<path fill-rule="evenodd" clip-rule="evenodd" d="M43.8399 5.98636C43.5449 5.98636 43.3058 6.22548 43.3058 6.52046C43.3058 6.81543 43.5449 7.05455 43.8399 7.05455C44.1349 7.05455 44.374 6.81543 44.374 6.52046C44.374 6.22548 44.1349 5.98636 43.8399 5.98636ZM43.8399 8.09084C44.7072 8.09084 45.4103 7.38776 45.4103 6.52046C45.4103 5.65316 44.7072 4.95007 43.8399 4.95007C42.9726 4.95007 42.2695 5.65316 42.2695 6.52046C42.2695 7.38776 42.9726 8.09084 43.8399 8.09084Z" fill="black"/>
<path fill-rule="evenodd" clip-rule="evenodd" d="M48.8868 12.5534C48.5918 12.5534 48.3527 12.7925 48.3527 13.0875C48.3527 13.3824 48.5918 13.6216 48.8868 13.6216C49.1818 13.6216 49.4209 13.3824 49.4209 13.0875C49.4209 12.7925 49.1818 12.5534 48.8868 12.5534ZM48.8868 14.6579C49.7541 14.6579 50.4572 13.9548 50.4572 13.0875C50.4572 12.2202 49.7541 11.5171 48.8868 11.5171C48.0195 11.5171 47.3164 12.2202 47.3164 13.0875C47.3164 13.9548 48.0195 14.6579 48.8868 14.6579Z" fill="black"/>
</svg>
