<svg width="129" height="133" viewBox="0 0 129 133" fill="none" xmlns="http://www.w3.org/2000/svg">
<path d="M12.377 130.184V103.058H28.822V130.184H42.8935V83.5615H60.1862V130.184H70.867V64.743H91.0419V130.184H101.384V48.1284H118.507V130.184H101.384H91.0419H70.867H60.1862H42.8935H28.822H12.377Z" fill="#276CD3"/>
<path fill-rule="evenodd" clip-rule="evenodd" d="M98.8828 45.6284H121.006V127.684H128V132.684H0V127.684H9.87616V100.558H31.3212V127.684H40.3927V81.0615H62.6854V127.684H68.3662V62.243H93.5411V127.684H98.8828V45.6284ZM103.883 127.684H116.006V50.6284H103.883V127.684ZM88.5411 127.684V67.243H73.3662V127.684H88.5411ZM57.6854 127.684V86.0615H45.3927V127.684H57.6854ZM26.3212 127.684V105.558H14.8762V127.684H26.3212Z" fill="#276CD3"/>
<path fill-rule="evenodd" clip-rule="evenodd" d="M112.573 0.5H128.636V16.2238H123.636V10.4212C106.793 31.3973 84.2571 47.29 62.5048 58.7595C38.7294 71.2957 15.7148 78.6394 1.69876 81.569L0.675781 76.6747C14.2377 73.8401 36.8115 66.6545 60.1728 54.3367C82.1877 42.7287 104.747 26.6446 121.15 5.5H112.573V0.5Z" fill="#276CD3"/>
</svg>
