<svg width="45" height="49" viewBox="0 0 45 49" fill="none" xmlns="http://www.w3.org/2000/svg">
<path d="M0.796761 36.7196C0.35706 36.551 0.195707 35.9043 0.436597 35.2762L13.5284 1.13794C13.7693 0.509798 14.3217 0.136853 14.7614 0.305477C15.2011 0.4741 15.3625 1.12075 15.1216 1.74889L2.02971 35.8871C1.78883 36.5153 1.23646 36.8882 0.796761 36.7196Z" fill="black"/>
<path d="M31.034 6.54593C32.4981 7.10742 33.2324 8.75523 32.6709 10.2194L27.1432 24.6333C26.5817 26.0975 24.9339 26.8317 23.4698 26.2702L7.5386 20.1607C6.91046 19.9198 6.59617 19.2145 6.83706 18.5864C7.07795 17.9582 7.78325 17.6439 8.41139 17.8848L24.3426 23.9944C24.552 24.0747 24.7871 23.9699 24.8674 23.7605L30.395 9.34659C30.4753 9.13721 30.3706 8.90211 30.1612 8.82181L14.23 2.71228C13.6019 2.47139 13.2876 1.76609 13.5284 1.13794C13.7693 0.509798 14.4746 0.195505 15.1028 0.436395L31.034 6.54593Z" fill="black"/>
<path d="M31.034 6.54593C32.4981 7.10742 33.2324 8.75523 32.6709 10.2194L27.1432 24.6333C26.5817 26.0975 24.9339 26.8317 23.4698 26.2702L7.5386 20.1607C6.91046 19.9198 6.59617 19.2145 6.83706 18.5864C7.07795 17.9582 7.78325 17.6439 8.41139 17.8848L24.3426 23.9944C24.552 24.0747 24.7871 23.9699 24.8674 23.7605L30.395 9.34659C30.4753 9.13721 30.3706 8.90211 30.1612 8.82181L14.23 2.71228C13.6019 2.47139 13.2876 1.76609 13.5284 1.13794C13.7693 0.509798 14.4746 0.195505 15.1028 0.436395L31.034 6.54593Z" stroke="black"/>
<path d="M31.7597 36.4111L16.5871 30.5925C15.123 30.031 14.3887 28.3832 14.9502 26.919L16.6957 22.3672C16.9366 21.7391 17.6419 21.4248 18.2701 21.6657C18.8982 21.9066 19.2125 22.6119 18.9716 23.24L17.2261 27.7918C17.1469 27.9981 17.2536 28.2374 17.4599 28.3166L32.6325 34.1352C32.8388 34.2143 33.0781 34.1077 33.1572 33.9013L38.6849 19.4874C38.764 19.2811 38.6574 19.0418 38.4511 18.9626L29.3475 15.4715C28.7194 15.2306 28.4051 14.5253 28.646 13.8971C28.8869 13.269 29.5922 12.9547 30.2203 13.1956L39.3239 16.6867C40.788 17.2482 41.5223 18.896 40.9608 20.3602L35.4331 34.7741C34.8716 36.2383 33.2238 36.9726 31.7597 36.4111Z" fill="black"/>
</svg>
