<svg width="260" height="178" viewBox="0 0 260 178" fill="none" xmlns="http://www.w3.org/2000/svg">
<g filter="url(#filter0_i_940_3659)">
<path d="M13.717 21.6401L9 26.1684V31.4275C9 31.6934 9.13094 31.9409 9.3407 32.1044C12.4791 34.5508 10.8937 36.8224 9.39481 37.8883C9.15713 38.0573 9 38.3229 9 38.6146V41.1138C9 41.5917 9.40709 41.9684 9.88359 41.9313L26.8455 40.612C27.1101 40.5914 27.3493 40.4393 27.4927 40.216C30.6079 35.3651 33.6948 37.5158 35.1123 39.5461C35.2897 39.8001 35.5811 39.9568 35.8901 39.9353L49.2368 39.0085C49.6666 38.9786 50 38.6213 50 38.1904V23.1238C47.9129 10.601 32.6899 9.74573 25.0883 10.9052C24.9182 10.9312 24.7662 11.0111 24.6445 11.1328L17.5965 18.1807C17.4226 18.3546 17.3398 18.5994 17.3487 18.8452C17.4392 21.3458 15.757 21.6454 14.5533 21.4204C14.254 21.3645 13.9367 21.4292 13.717 21.6401Z" fill="#FAE58F"/>
<path d="M9 26.1684L33.1535 24.7476M9 26.1684L13.717 21.6401C13.9367 21.4292 14.254 21.3645 14.5533 21.4204C15.757 21.6454 17.4392 21.3458 17.3487 18.8452C17.3398 18.5994 17.4226 18.3546 17.5966 18.1807L24.6445 11.1328C24.7662 11.0111 24.9182 10.9312 25.0883 10.9052C32.6899 9.74573 47.9129 10.601 50 23.1238M9 26.1684V31.4275C9 31.6934 9.13094 31.9409 9.3407 32.1044C12.4791 34.5508 10.8937 36.8224 9.39481 37.8883C9.15713 38.0573 9 38.3229 9 38.6146V41.1138C9 41.5917 9.40709 41.9684 9.88359 41.9313L26.8455 40.612C27.1101 40.5914 27.3493 40.4393 27.4927 40.216C30.6079 35.3651 33.6948 37.5158 35.1123 39.5461C35.2897 39.8001 35.5811 39.9568 35.8901 39.9353L49.2368 39.0085C49.6666 38.9786 50 38.6213 50 38.1904V23.1238M42.0842 23.7327L50 23.1238" stroke="black" stroke-width="1.21782"/>
<circle cx="37.6136" cy="24.3419" r="4.05941" fill="#DABE92" stroke="black" stroke-width="1.21782"/>
<circle cx="23.0133" cy="30.431" r="2.43564" fill="#DABE92" stroke="black" stroke-width="1.21782"/>
<circle cx="29.4938" cy="17.0348" r="2.43564" fill="#DABE92" stroke="black" stroke-width="1.21782"/>
</g>
<g filter="url(#filter1_i_940_3659)">
<path d="M246.841 13.826L238.412 22.5274L236.428 20.5437C237.004 19.8086 242.464 14.5823 245.21 11.9225C245.21 10.0191 246.841 5.12458 248.887 10.0193C251.749 11.3789 252.28 13.3909 246.841 13.826Z" fill="white"/>
</g>
<path d="M236.379 20.624C236.379 20.6124 236.396 20.5852 236.428 20.5437M236.428 20.5437C237.004 19.8086 242.464 14.5823 245.21 11.9225C245.21 10.0191 246.841 5.12458 248.887 10.0193C251.749 11.3789 252.28 13.3909 246.841 13.826L238.412 22.5274L236.428 20.5437Z" stroke="black" stroke-width="0.976192"/>
<g filter="url(#filter2_i_940_3659)">
<path d="M235.69 20.0803L238.681 23.0714L235.146 32.8605C235.799 41.1269 231.995 45.5164 229.436 46.7284C224.269 49.1757 213.012 50.8616 210.401 39.1147C207.791 27.3678 218.559 24.6123 224.269 24.703L235.69 20.0803Z" fill="#DD8737"/>
</g>
<path d="M235.69 20.0803L238.681 23.0714L235.146 32.8605C235.799 41.1269 231.995 45.5164 229.436 46.7284C224.269 49.1757 213.012 50.8616 210.401 39.1147C207.791 27.3678 218.559 24.6123 224.269 24.703L235.69 20.0803Z" stroke="black" stroke-width="0.976192"/>
<g filter="url(#filter3_i_940_3659)">
<path d="M116.2 24.0187C116.113 19.2424 117.19 8.5954 122.192 4.21851C126.216 0.697738 129.835 5.0327 131.91 9.16851C132.131 9.6082 132.334 10.0456 132.518 10.4712C132.756 11.0189 132.962 11.5468 133.134 12.0344C133.267 12.4241 133.414 12.8634 133.568 13.337C134.049 14.8109 134.602 16.6161 135.043 18.287C135.449 19.8241 135.761 21.2476 135.836 22.195C135.875 22.6889 135.849 23.0534 135.739 23.2371L124.276 36.2635L116.2 24.0187Z" fill="#EFFCBF"/>
</g>
<path d="M127.923 6.30269V29.2292M132.518 10.4712C132.756 11.0189 132.962 11.5468 133.134 12.0344C133.267 12.4241 133.414 12.8634 133.568 13.337M132.518 10.4712V24.8003M132.518 10.4712C132.334 10.0456 132.131 9.6082 131.91 9.16851M123.755 6.56322V26.624M121.931 9.16851H131.91M131.91 9.16851C129.835 5.0327 126.216 0.697738 122.192 4.21851C117.19 8.5954 116.113 19.2424 116.2 24.0187L124.276 36.2635L135.739 23.2371C135.849 23.0534 135.875 22.6889 135.836 22.195M120.628 13.337H133.568M133.568 13.337C134.049 14.8109 134.602 16.6161 135.043 18.287M120.628 18.287H135.043M135.043 18.287C135.449 19.8241 135.761 21.2476 135.836 22.195M120.628 22.195H135.836" stroke="black" stroke-width="0.930301"/>
<g filter="url(#filter4_i_940_3659)">
<path d="M122.473 51.1131V46.4236H127.944V51.1131H122.473Z" fill="#E99953"/>
</g>
<path d="M122.473 51.1131V46.4236H127.944V51.1131H122.473Z" stroke="black" stroke-width="0.930301"/>
<g filter="url(#filter5_i_940_3659)">
<path d="M125.061 33.1363C122.455 26.3625 111.166 20.9783 105 19.3282C108.995 21.2388 114.253 26.8618 115.303 36.5232L115.308 36.5717C115.626 39.5023 116.237 45.1264 122.455 46.1627H127.927C133.762 44.7038 135.187 39.1331 135.396 36.5232C136.067 28.125 141.127 21.673 145.643 19.3282C136.263 19.7451 127.927 28.4468 125.061 33.1363Z" fill="#05BB2D"/>
</g>
<path d="M125.061 33.1363C122.455 26.3625 111.166 20.9783 105 19.3282C108.995 21.2388 114.253 26.8618 115.303 36.5232C115.62 39.4397 116.203 45.1206 122.455 46.1627H127.927C133.762 44.7038 135.187 39.1331 135.396 36.5232C136.067 28.125 141.127 21.673 145.643 19.3282C136.263 19.7451 127.927 28.4468 125.061 33.1363ZM125.061 33.1363V38.0863" stroke="black" stroke-width="0.930301"/>
<g filter="url(#filter6_i_940_3659)">
<path d="M226.359 98.6888C209.3 97.2962 205.106 82.9627 204.961 76C209.313 90.6217 220.919 94.3371 226.359 94.3371C239.414 95.9037 247.324 82.9253 250.008 76.1802C248.992 84.3033 243.418 100.081 226.359 98.6888Z" fill="#B9EF6C"/>
<path d="M250.075 76.0587H205.035C207.994 90.5063 220.774 94.4083 226.794 94.5534C240.893 94.9015 248.189 82.3687 250.075 76.0587Z" fill="#EA5279"/>
<circle cx="219.53" cy="80.5482" r="1.00679" fill="black"/>
<circle cx="221.839" cy="83.9997" r="1.00679" fill="black"/>
<circle cx="223.561" cy="87.4512" r="1.00679" fill="black"/>
<circle cx="230.749" cy="80.5482" r="1.00679" fill="black"/>
<circle cx="233.054" cy="83.9997" r="1.00679" fill="black"/>
<circle cx="223.265" cy="80.5482" r="1.00679" fill="black"/>
<circle cx="225.577" cy="83.9997" r="1.00679" fill="black"/>
<circle cx="227.292" cy="87.4512" r="1.00679" fill="black"/>
<circle cx="234.495" cy="80.5482" r="1.00679" fill="black"/>
<circle cx="226.726" cy="80.5482" r="1.00679" fill="black"/>
<circle cx="229.026" cy="83.9997" r="1.00679" fill="black"/>
<circle cx="230.749" cy="87.4512" r="1.00679" fill="black"/>
</g>
<g filter="url(#filter7_i_940_3659)">
<path d="M113.418 72.2423C117.365 71.5684 127.339 70.6249 135.658 72.2423C131.999 74.1678 122.429 76.8635 113.418 72.2423Z" fill="#D0BC85"/>
<path d="M109.098 70.2204L115.163 63.8662H124.983C123.842 65.1213 121.315 67.1202 117.762 68.5406C115.32 69.5172 112.393 70.2204 109.098 70.2204Z" fill="#D73838"/>
<path d="M117.762 68.5406C121.315 67.1202 123.842 65.1213 124.983 63.8662H115.163L109.098 70.2204C112.393 70.2204 115.32 69.5172 117.762 68.5406ZM117.762 68.5406C117.762 68.7291 120.003 73.2049 120.581 74.2639" stroke="black" stroke-width="0.57765"/>
<path d="M127.211 74.8418L132.191 63L139.989 66.4659" stroke="black" stroke-width="0.57765"/>
<path d="M124.977 105.746C109.265 106.208 106.492 89.1865 107.069 80.618L124.977 84.3728L142.884 80.618C143.462 88.8014 140.689 105.284 124.977 105.746Z" fill="#88A451"/>
<path d="M107.078 80.3293L113.432 71.9534C122.675 76.5746 132.302 73.8789 135.961 71.9534L142.892 80.3293L124.696 84.3728L107.078 80.3293Z" fill="#F6EFD5"/>
</g>
<g filter="url(#filter8_ii_940_3659)">
<path d="M38.0547 136.151C41.2479 135.695 47.5887 136.607 47.4062 143.906C44.4411 144.438 38.4196 143.632 38.0547 136.151Z" fill="#3BB777"/>
</g>
<path d="M38.0547 136.151C41.2479 135.695 47.5887 136.607 47.4062 143.906C44.4411 144.438 38.4196 143.632 38.0547 136.151Z" stroke="black" stroke-width="0.468379"/>
<g filter="url(#filter9_i_940_3659)">
<path d="M37.6531 136.337C39.444 133.22 40.1205 126.388 28.4998 124C27.9029 129.041 28.8978 138.566 37.6531 136.337Z" fill="#3BB777"/>
</g>
<path d="M37.6531 136.337C39.444 133.22 40.1205 126.388 28.4998 124C27.9029 129.041 28.8978 138.566 37.6531 136.337Z" stroke="black" stroke-width="0.468379"/>
<g filter="url(#filter10_ii_940_3659)">
<circle cx="29.6931" cy="136.735" r="5.1736" fill="#7157A4"/>
</g>
<circle cx="29.6931" cy="136.735" r="4.93941" stroke="black" stroke-width="0.468379"/>
<g filter="url(#filter11_ii_940_3659)">
<circle cx="27.7048" cy="147.082" r="5.1736" fill="#7157A4"/>
</g>
<circle cx="27.7048" cy="147.082" r="4.93941" stroke="black" stroke-width="0.468379"/>
<g filter="url(#filter12_ii_940_3659)">
<circle cx="38.0486" cy="143.899" r="5.1736" fill="#7157A4"/>
</g>
<circle cx="38.0486" cy="143.899" r="4.93941" stroke="black" stroke-width="0.468379"/>
<path d="M37.6602 136.338C39.849 134.215 45.1818 130.448 49.0023 132.358" stroke="black" stroke-width="0.468379"/>
<g filter="url(#filter13_ii_940_3659)">
<circle cx="19.3494" cy="138.725" r="5.1736" fill="#7157A4"/>
</g>
<circle cx="19.3494" cy="138.725" r="4.93941" stroke="black" stroke-width="0.468379"/>
<g filter="url(#filter14_i_940_3659)">
<circle cx="34.8728" cy="154.816" r="5.1736" fill="#7157A4"/>
</g>
<circle cx="34.8728" cy="154.816" r="4.93941" stroke="black" stroke-width="0.468379"/>
<g filter="url(#filter15_ii_940_3659)">
<circle cx="24.5173" cy="157.117" r="5.1736" fill="#7157A4"/>
</g>
<circle cx="24.5173" cy="157.117" r="4.93941" stroke="black" stroke-width="0.468379"/>
<g filter="url(#filter16_ii_940_3659)">
<circle cx="17.3572" cy="149.073" r="5.1736" fill="#7157A4"/>
</g>
<circle cx="17.3572" cy="149.073" r="4.93941" stroke="black" stroke-width="0.468379"/>
<g filter="url(#filter17_ii_940_3659)">
<circle cx="14.1736" cy="159.107" r="5.1736" fill="#7157A4"/>
</g>
<circle cx="14.1736" cy="159.107" r="4.93941" stroke="black" stroke-width="0.468379"/>
<g filter="url(#filter18_i_940_3659)">
<path d="M22.5938 94.8173C21.0833 93.2725 16.25 90.9657 9.00004 94.0964C9.60591 95.0865 10.8466 96.4532 12.7074 97.6033C11.8836 98.1164 10.2358 99.4309 10.2358 100.584C12.3641 102.678 18.0419 105.981 23.7266 102.438L23.3146 99.6575L22.5938 94.8173Z" fill="#F69B77"/>
<path d="M23.3146 99.6575L22.5938 94.8173C21.0833 93.2725 16.25 90.9657 9.00004 94.0964C9.60591 95.0865 10.8466 96.4532 12.7074 97.6033M23.3146 99.6575C18.7164 100.267 15.1692 99.1249 12.7074 97.6033M23.3146 99.6575L23.7266 102.438C18.0419 105.981 12.3641 102.678 10.2358 100.584C10.2358 99.4309 11.8836 98.1164 12.7074 97.6033" stroke="black" stroke-width="1.00905"/>
<path d="M23.7156 102.437C29.8945 103.838 34.1855 101.853 35.5586 100.686L28.4528 92.4477C25.4869 91.6238 23.3037 93.6835 22.5828 94.8163L23.7156 102.437Z" fill="#F69B77" stroke="black" stroke-width="1.00905"/>
<path d="M35.5615 100.687C39.5984 100.192 41.6374 97.0479 42.1523 95.5375L30.8243 89.7705C29.0118 90.1824 28.5586 91.7272 28.5586 92.4481L35.5615 100.687Z" fill="white" stroke="black" stroke-width="1.00905"/>
<path d="M42.2468 95.5376C45.4598 94.137 46.0571 88.1571 45.9542 85.3423C40.9424 85.9945 30.8777 87.4637 30.713 88.1228C30.5482 88.7819 30.7816 89.4959 30.9189 89.7705C34.4203 91.6929 41.5879 95.5376 42.2468 95.5376Z" fill="#F69B77" stroke="black" stroke-width="1.00905"/>
<path d="M47.3046 82.8712C46.975 78.9166 43.7345 75.5251 42.1554 74.3236L29.4884 85.2398L29.6944 87.4024C29.7768 88.1439 30.8272 88.1233 31.3421 88.0203C38.5097 87.2788 44.2837 85.8577 46.2747 85.2398C47.3458 84.9926 47.4075 83.5577 47.3046 82.8712Z" fill="white" stroke="black" stroke-width="1.00905"/>
<path d="M21.9805 77.4129L30.7341 65.3639C31.3929 64.7048 32.0386 65.0893 32.2792 65.3639L41.5472 72.0578C42.7006 73.2112 42.2338 74.2548 41.8562 74.6324L30.7341 84.5187C28.6748 86.2694 25.5853 84.7247 24.4525 84.1068C20.8653 82.1501 21.294 78.7517 21.9805 77.4129Z" fill="#F69B77" stroke="black" stroke-width="1.00905"/>
</g>
<path d="M143.497 133.186L142.908 139.748H136.801C135.559 140.673 134.21 141.446 132.784 142.051C131.083 142.819 129.278 143.333 127.428 143.578C125.65 143.819 123.849 143.819 122.071 143.578C120.221 143.333 118.416 142.819 116.715 142.051C115.289 141.446 113.94 140.673 112.698 139.748H106.591L106.002 133.186C105.981 132.807 106.106 132.433 106.35 132.142C106.479 132.008 106.633 131.902 106.803 131.828C106.973 131.755 107.156 131.716 107.341 131.713H142.158C142.343 131.716 142.526 131.755 142.696 131.828C142.866 131.902 143.02 132.008 143.149 132.142C143.393 132.433 143.518 132.807 143.497 133.186Z" fill="#D32F2F"/>
<path d="M126.088 126.357H123.409C122.67 126.357 122.07 126.956 122.07 127.696V149.121C122.07 149.861 122.67 150.46 123.409 150.46H126.088C126.827 150.46 127.427 149.861 127.427 149.121V127.696C127.427 126.956 126.827 126.357 126.088 126.357Z" fill="#FFD54F"/>
<path d="M120.736 121H118.058C117.318 121 116.719 121.6 116.719 122.339V143.764C116.719 144.504 117.318 145.104 118.058 145.104H120.736C121.476 145.104 122.075 144.504 122.075 143.764V122.339C122.075 121.6 121.476 121 120.736 121Z" fill="#FFC107"/>
<path d="M136.791 126.357H134.113C133.373 126.357 132.773 126.956 132.773 127.696V149.121C132.773 149.861 133.373 150.46 134.113 150.46H136.791C137.53 150.46 138.13 149.861 138.13 149.121V127.696C138.13 126.956 137.53 126.357 136.791 126.357Z" fill="#FFD54F"/>
<path d="M131.435 121H128.757C128.017 121 127.418 121.6 127.418 122.339V143.764C127.418 144.504 128.017 145.104 128.757 145.104H131.435C132.175 145.104 132.774 144.504 132.774 143.764V122.339C132.774 121.6 132.175 121 131.435 121Z" fill="#FFC107"/>
<path d="M115.373 126.357H112.695C111.955 126.357 111.355 126.956 111.355 127.696V149.121C111.355 149.861 111.955 150.46 112.695 150.46H115.373C116.112 150.46 116.712 149.861 116.712 149.121V127.696C116.712 126.956 116.112 126.357 115.373 126.357Z" fill="#FFD54F"/>
<path d="M142.91 139.746L140.821 162.618C140.789 162.953 140.635 163.263 140.388 163.491C140.14 163.718 139.818 163.846 139.482 163.85H110.022C109.686 163.846 109.363 163.718 109.116 163.491C108.869 163.263 108.714 162.953 108.683 162.618L106.594 139.746H112.7C113.943 140.671 115.291 141.445 116.717 142.05C118.419 142.818 120.223 143.332 122.074 143.576C123.851 143.817 125.653 143.817 127.43 143.576C129.28 143.332 131.085 142.818 132.786 142.05C134.212 141.445 135.561 140.671 136.804 139.746H142.91Z" fill="#F44336"/>
<path d="M124.738 158.495C128.436 158.495 131.434 156.097 131.434 153.139C131.434 150.181 128.436 147.782 124.738 147.782C121.041 147.782 118.043 150.181 118.043 153.139C118.043 156.097 121.041 158.495 124.738 158.495Z" fill="#FAFAFA"/>
<path d="M249.688 128.25H215.562C215.214 128.25 214.881 128.112 214.634 127.866C214.388 127.619 214.25 127.286 214.25 126.938C214.25 126.589 214.388 126.256 214.634 126.009C214.881 125.763 215.214 125.625 215.562 125.625H249.688C250.036 125.625 250.369 125.763 250.616 126.009C250.862 126.256 251 126.589 251 126.938C251 127.286 250.862 127.619 250.616 127.866C250.369 128.112 250.036 128.25 249.688 128.25Z" fill="#455A64"/>
<path d="M218.188 144C217.839 144 217.506 143.862 217.259 143.616C217.013 143.369 216.875 143.036 216.875 142.688V124.312C216.875 123.964 217.013 123.631 217.259 123.384C217.506 123.138 217.839 123 218.188 123C218.536 123 218.869 123.138 219.116 123.384C219.362 123.631 219.5 123.964 219.5 124.312V142.688C219.5 143.036 219.362 143.369 219.116 143.616C218.869 143.862 218.536 144 218.188 144Z" fill="#FFC107"/>
<path d="M223.438 144C223.089 144 222.756 143.862 222.509 143.616C222.263 143.369 222.125 143.036 222.125 142.688V124.312C222.125 123.964 222.263 123.631 222.509 123.384C222.756 123.138 223.089 123 223.438 123C223.786 123 224.119 123.138 224.366 123.384C224.612 123.631 224.75 123.964 224.75 124.312V142.688C224.75 143.036 224.612 143.369 224.366 143.616C224.119 143.862 223.786 144 223.438 144Z" fill="#FFC107"/>
<path d="M228.688 144C228.339 144 228.006 143.862 227.759 143.616C227.513 143.369 227.375 143.036 227.375 142.688V124.312C227.375 123.964 227.513 123.631 227.759 123.384C228.006 123.138 228.339 123 228.688 123C229.036 123 229.369 123.138 229.616 123.384C229.862 123.631 230 123.964 230 124.312V142.688C230 143.036 229.862 143.369 229.616 143.616C229.369 143.862 229.036 144 228.688 144Z" fill="#FFC107"/>
<path d="M249.688 133.5H215.562C215.214 133.5 214.881 133.362 214.634 133.116C214.388 132.869 214.25 132.536 214.25 132.188C214.25 131.839 214.388 131.506 214.634 131.259C214.881 131.013 215.214 130.875 215.562 130.875H249.688C250.036 130.875 250.369 131.013 250.616 131.259C250.862 131.506 251 131.839 251 132.188C251 132.536 250.862 132.869 250.616 133.116C250.369 133.362 250.036 133.5 249.688 133.5Z" fill="#455A64"/>
<path d="M249.688 141.375H210.312C209.964 141.375 209.631 141.513 209.384 141.759C209.138 142.006 209 142.339 209 142.688C209.075 146.703 210.37 150.6 212.715 153.861C215.06 157.121 218.342 159.59 222.125 160.939V163.688C222.125 164.036 222.263 164.369 222.509 164.616C222.756 164.862 223.089 165 223.438 165H236.562C236.911 165 237.244 164.862 237.491 164.616C237.737 164.369 237.875 164.036 237.875 163.688V160.939C241.658 159.591 244.941 157.122 247.285 153.861C249.63 150.601 250.926 146.703 251 142.688C251 142.339 250.862 142.006 250.616 141.759C250.369 141.513 250.036 141.375 249.688 141.375Z" fill="#EB3224"/>
<defs>
<filter id="filter0_i_940_3659" x="6.46875" y="9.91943" width="44.1406" height="34.5452" filterUnits="userSpaceOnUse" color-interpolation-filters="sRGB">
<feFlood flood-opacity="0" result="BackgroundImageFix"/>
<feBlend mode="normal" in="SourceGraphic" in2="BackgroundImageFix" result="shape"/>
<feColorMatrix in="SourceAlpha" type="matrix" values="0 0 0 0 0 0 0 0 0 0 0 0 0 0 0 0 0 0 127 0" result="hardAlpha"/>
<feOffset dx="-4.80469" dy="2.5625"/>
<feGaussianBlur stdDeviation="0.960938"/>
<feComposite in2="hardAlpha" operator="arithmetic" k2="-1" k3="1"/>
<feColorMatrix type="matrix" values="0 0 0 0 0 0 0 0 0 0 0 0 0 0 0 0 0 0 0.25 0"/>
<feBlend mode="normal" in2="shape" result="effect1_innerShadow_940_3659"/>
</filter>
<filter id="filter1_i_940_3659" x="235.891" y="7.42029" width="15.6016" height="17.0841" filterUnits="userSpaceOnUse" color-interpolation-filters="sRGB">
<feFlood flood-opacity="0" result="BackgroundImageFix"/>
<feBlend mode="normal" in="SourceGraphic" in2="BackgroundImageFix" result="shape"/>
<feColorMatrix in="SourceAlpha" type="matrix" values="0 0 0 0 0 0 0 0 0 0 0 0 0 0 0 0 0 0 127 0" result="hardAlpha"/>
<feOffset dy="1.60157"/>
<feGaussianBlur stdDeviation="0.64063"/>
<feComposite in2="hardAlpha" operator="arithmetic" k2="-1" k3="1"/>
<feColorMatrix type="matrix" values="0 0 0 0 0 0 0 0 0 0 0 0 0 0 0 0 0 0 0.25 0"/>
<feBlend mode="normal" in2="shape" result="effect1_innerShadow_940_3659"/>
</filter>
<filter id="filter2_i_940_3659" x="209.512" y="19.5066" width="32.2969" height="31.3969" filterUnits="userSpaceOnUse" color-interpolation-filters="sRGB">
<feFlood flood-opacity="0" result="BackgroundImageFix"/>
<feBlend mode="normal" in="SourceGraphic" in2="BackgroundImageFix" result="shape"/>
<feColorMatrix in="SourceAlpha" type="matrix" values="0 0 0 0 0 0 0 0 0 0 0 0 0 0 0 0 0 0 127 0" result="hardAlpha"/>
<feOffset dx="3.84378" dy="1.92189"/>
<feGaussianBlur stdDeviation="1.28126"/>
<feComposite in2="hardAlpha" operator="arithmetic" k2="-1" k3="1"/>
<feColorMatrix type="matrix" values="0 0 0 0 0 0 0 0 0 0 0 0 0 0 0 0 0 0 0.25 0"/>
<feBlend mode="normal" in2="shape" result="effect1_innerShadow_940_3659"/>
</filter>
<filter id="filter3_i_940_3659" x="115.73" y="2.45862" width="22.488" height="35.2034" filterUnits="userSpaceOnUse" color-interpolation-filters="sRGB">
<feFlood flood-opacity="0" result="BackgroundImageFix"/>
<feBlend mode="normal" in="SourceGraphic" in2="BackgroundImageFix" result="shape"/>
<feColorMatrix in="SourceAlpha" type="matrix" values="0 0 0 0 0 0 0 0 0 0 0 0 0 0 0 0 0 0 127 0" result="hardAlpha"/>
<feOffset dx="2.21905" dy="0.634014"/>
<feGaussianBlur stdDeviation="0.951021"/>
<feComposite in2="hardAlpha" operator="arithmetic" k2="-1" k3="1"/>
<feColorMatrix type="matrix" values="0 0 0 0 0 0 0 0 0 0 0 0 0 0 0 0 0 0 0.25 0"/>
<feBlend mode="normal" in2="shape" result="effect1_innerShadow_940_3659"/>
</filter>
<filter id="filter4_i_940_3659" x="122.008" y="45.9584" width="8.30439" height="5.61987" filterUnits="userSpaceOnUse" color-interpolation-filters="sRGB">
<feFlood flood-opacity="0" result="BackgroundImageFix"/>
<feBlend mode="normal" in="SourceGraphic" in2="BackgroundImageFix" result="shape"/>
<feColorMatrix in="SourceAlpha" type="matrix" values="0 0 0 0 0 0 0 0 0 0 0 0 0 0 0 0 0 0 127 0" result="hardAlpha"/>
<feOffset dx="1.90204"/>
<feGaussianBlur stdDeviation="0.951021"/>
<feComposite in2="hardAlpha" operator="arithmetic" k2="-1" k3="1"/>
<feColorMatrix type="matrix" values="0 0 0 0 0 0 0 0 0 0 0 0 0 0 0 0 0 0 0.25 0"/>
<feBlend mode="normal" in2="shape" result="effect1_innerShadow_940_3659"/>
</filter>
<filter id="filter5_i_940_3659" x="104.801" y="16.9615" width="42.9567" height="29.6664" filterUnits="userSpaceOnUse" color-interpolation-filters="sRGB">
<feFlood flood-opacity="0" result="BackgroundImageFix"/>
<feBlend mode="normal" in="SourceGraphic" in2="BackgroundImageFix" result="shape"/>
<feColorMatrix in="SourceAlpha" type="matrix" values="0 0 0 0 0 0 0 0 0 0 0 0 0 0 0 0 0 0 127 0" result="hardAlpha"/>
<feOffset dx="3.17007" dy="-2.21905"/>
<feGaussianBlur stdDeviation="0.951021"/>
<feComposite in2="hardAlpha" operator="arithmetic" k2="-1" k3="1"/>
<feColorMatrix type="matrix" values="0 0 0 0 0 0 0 0 0 0 0 0 0 0 0 0 0 0 0.25 0"/>
<feBlend mode="normal" in2="shape" result="effect1_innerShadow_940_3659"/>
</filter>
<filter id="filter6_i_940_3659" x="204.961" y="74.4663" width="46.6469" height="24.3089" filterUnits="userSpaceOnUse" color-interpolation-filters="sRGB">
<feFlood flood-opacity="0" result="BackgroundImageFix"/>
<feBlend mode="normal" in="SourceGraphic" in2="BackgroundImageFix" result="shape"/>
<feColorMatrix in="SourceAlpha" type="matrix" values="0 0 0 0 0 0 0 0 0 0 0 0 0 0 0 0 0 0 127 0" result="hardAlpha"/>
<feOffset dx="1.91707" dy="-1.91707"/>
<feGaussianBlur stdDeviation="0.766826"/>
<feComposite in2="hardAlpha" operator="arithmetic" k2="-1" k3="1"/>
<feColorMatrix type="matrix" values="0 0 0 0 0 0 0 0 0 0 0 0 0 0 0 0 0 0 0.25 0"/>
<feBlend mode="normal" in2="shape" result="effect1_innerShadow_940_3659"/>
</filter>
<filter id="filter7_i_940_3659" x="107" y="62.6163" width="38.2002" height="43.7004" filterUnits="userSpaceOnUse" color-interpolation-filters="sRGB">
<feFlood flood-opacity="0" result="BackgroundImageFix"/>
<feBlend mode="normal" in="SourceGraphic" in2="BackgroundImageFix" result="shape"/>
<feColorMatrix in="SourceAlpha" type="matrix" values="0 0 0 0 0 0 0 0 0 0 0 0 0 0 0 0 0 0 127 0" result="hardAlpha"/>
<feOffset dx="3.93244" dy="0.561776"/>
<feGaussianBlur stdDeviation="1.12355"/>
<feComposite in2="hardAlpha" operator="arithmetic" k2="-1" k3="1"/>
<feColorMatrix type="matrix" values="0 0 0 0 0 0 0 0 0 0 0 0 0 0 0 0 0 0 0.25 0"/>
<feBlend mode="normal" in2="shape" result="effect1_innerShadow_940_3659"/>
</filter>
<filter id="filter8_ii_940_3659" x="37.8086" y="135.819" width="11.7095" height="9.70104" filterUnits="userSpaceOnUse" color-interpolation-filters="sRGB">
<feFlood flood-opacity="0" result="BackgroundImageFix"/>
<feBlend mode="normal" in="SourceGraphic" in2="BackgroundImageFix" result="shape"/>
<feColorMatrix in="SourceAlpha" type="matrix" values="0 0 0 0 0 0 0 0 0 0 0 0 0 0 0 0 0 0 127 0" result="hardAlpha"/>
<feOffset dy="1.24901"/>
<feGaussianBlur stdDeviation="0.624505"/>
<feComposite in2="hardAlpha" operator="arithmetic" k2="-1" k3="1"/>
<feColorMatrix type="matrix" values="0 0 0 0 0 0 0 0 0 0 0 0 0 0 0 0 0 0 0.25 0"/>
<feBlend mode="normal" in2="shape" result="effect1_innerShadow_940_3659"/>
<feColorMatrix in="SourceAlpha" type="matrix" values="0 0 0 0 0 0 0 0 0 0 0 0 0 0 0 0 0 0 127 0" result="hardAlpha"/>
<feOffset dx="1.87352" dy="0.624505"/>
<feGaussianBlur stdDeviation="0.936758"/>
<feComposite in2="hardAlpha" operator="arithmetic" k2="-1" k3="1"/>
<feColorMatrix type="matrix" values="0 0 0 0 0 0 0 0 0 0 0 0 0 0 0 0 0 0 0.25 0"/>
<feBlend mode="normal" in2="effect1_innerShadow_940_3659" result="effect2_innerShadow_940_3659"/>
</filter>
<filter id="filter9_i_940_3659" x="28.125" y="123.719" width="12.647" height="13.8088" filterUnits="userSpaceOnUse" color-interpolation-filters="sRGB">
<feFlood flood-opacity="0" result="BackgroundImageFix"/>
<feBlend mode="normal" in="SourceGraphic" in2="BackgroundImageFix" result="shape"/>
<feColorMatrix in="SourceAlpha" type="matrix" values="0 0 0 0 0 0 0 0 0 0 0 0 0 0 0 0 0 0 127 0" result="hardAlpha"/>
<feOffset dx="1.87352" dy="0.624505"/>
<feGaussianBlur stdDeviation="0.936758"/>
<feComposite in2="hardAlpha" operator="arithmetic" k2="-1" k3="1"/>
<feColorMatrix type="matrix" values="0 0 0 0 0 0 0 0 0 0 0 0 0 0 0 0 0 0 0.25 0"/>
<feBlend mode="normal" in2="shape" result="effect1_innerShadow_940_3659"/>
</filter>
<filter id="filter10_ii_940_3659" x="24.5195" y="131.561" width="11.5967" height="11.5962" filterUnits="userSpaceOnUse" color-interpolation-filters="sRGB">
<feFlood flood-opacity="0" result="BackgroundImageFix"/>
<feBlend mode="normal" in="SourceGraphic" in2="BackgroundImageFix" result="shape"/>
<feColorMatrix in="SourceAlpha" type="matrix" values="0 0 0 0 0 0 0 0 0 0 0 0 0 0 0 0 0 0 127 0" result="hardAlpha"/>
<feOffset dy="1.24901"/>
<feGaussianBlur stdDeviation="0.624505"/>
<feComposite in2="hardAlpha" operator="arithmetic" k2="-1" k3="1"/>
<feColorMatrix type="matrix" values="0 0 0 0 0 0 0 0 0 0 0 0 0 0 0 0 0 0 0.25 0"/>
<feBlend mode="normal" in2="shape" result="effect1_innerShadow_940_3659"/>
<feColorMatrix in="SourceAlpha" type="matrix" values="0 0 0 0 0 0 0 0 0 0 0 0 0 0 0 0 0 0 127 0" result="hardAlpha"/>
<feOffset dx="1.24901" dy="0.936758"/>
<feGaussianBlur stdDeviation="0.936758"/>
<feComposite in2="hardAlpha" operator="arithmetic" k2="-1" k3="1"/>
<feColorMatrix type="matrix" values="0 0 0 0 1 0 0 0 0 1 0 0 0 0 1 0 0 0 1 0"/>
<feBlend mode="normal" in2="effect1_innerShadow_940_3659" result="effect2_innerShadow_940_3659"/>
</filter>
<filter id="filter11_ii_940_3659" x="22.5312" y="141.909" width="11.5967" height="11.5962" filterUnits="userSpaceOnUse" color-interpolation-filters="sRGB">
<feFlood flood-opacity="0" result="BackgroundImageFix"/>
<feBlend mode="normal" in="SourceGraphic" in2="BackgroundImageFix" result="shape"/>
<feColorMatrix in="SourceAlpha" type="matrix" values="0 0 0 0 0 0 0 0 0 0 0 0 0 0 0 0 0 0 127 0" result="hardAlpha"/>
<feOffset dy="1.24901"/>
<feGaussianBlur stdDeviation="0.624505"/>
<feComposite in2="hardAlpha" operator="arithmetic" k2="-1" k3="1"/>
<feColorMatrix type="matrix" values="0 0 0 0 0 0 0 0 0 0 0 0 0 0 0 0 0 0 0.25 0"/>
<feBlend mode="normal" in2="shape" result="effect1_innerShadow_940_3659"/>
<feColorMatrix in="SourceAlpha" type="matrix" values="0 0 0 0 0 0 0 0 0 0 0 0 0 0 0 0 0 0 127 0" result="hardAlpha"/>
<feOffset dx="1.24901" dy="0.936758"/>
<feGaussianBlur stdDeviation="0.936758"/>
<feComposite in2="hardAlpha" operator="arithmetic" k2="-1" k3="1"/>
<feColorMatrix type="matrix" values="0 0 0 0 1 0 0 0 0 1 0 0 0 0 1 0 0 0 1 0"/>
<feBlend mode="normal" in2="effect1_innerShadow_940_3659" result="effect2_innerShadow_940_3659"/>
</filter>
<filter id="filter12_ii_940_3659" x="32.875" y="138.725" width="11.5967" height="11.5962" filterUnits="userSpaceOnUse" color-interpolation-filters="sRGB">
<feFlood flood-opacity="0" result="BackgroundImageFix"/>
<feBlend mode="normal" in="SourceGraphic" in2="BackgroundImageFix" result="shape"/>
<feColorMatrix in="SourceAlpha" type="matrix" values="0 0 0 0 0 0 0 0 0 0 0 0 0 0 0 0 0 0 127 0" result="hardAlpha"/>
<feOffset dy="1.24901"/>
<feGaussianBlur stdDeviation="0.624505"/>
<feComposite in2="hardAlpha" operator="arithmetic" k2="-1" k3="1"/>
<feColorMatrix type="matrix" values="0 0 0 0 0 0 0 0 0 0 0 0 0 0 0 0 0 0 0.25 0"/>
<feBlend mode="normal" in2="shape" result="effect1_innerShadow_940_3659"/>
<feColorMatrix in="SourceAlpha" type="matrix" values="0 0 0 0 0 0 0 0 0 0 0 0 0 0 0 0 0 0 127 0" result="hardAlpha"/>
<feOffset dx="1.24901" dy="0.936758"/>
<feGaussianBlur stdDeviation="0.936758"/>
<feComposite in2="hardAlpha" operator="arithmetic" k2="-1" k3="1"/>
<feColorMatrix type="matrix" values="0 0 0 0 1 0 0 0 0 1 0 0 0 0 1 0 0 0 1 0"/>
<feBlend mode="normal" in2="effect1_innerShadow_940_3659" result="effect2_innerShadow_940_3659"/>
</filter>
<filter id="filter13_ii_940_3659" x="14.1758" y="133.551" width="11.5967" height="11.5962" filterUnits="userSpaceOnUse" color-interpolation-filters="sRGB">
<feFlood flood-opacity="0" result="BackgroundImageFix"/>
<feBlend mode="normal" in="SourceGraphic" in2="BackgroundImageFix" result="shape"/>
<feColorMatrix in="SourceAlpha" type="matrix" values="0 0 0 0 0 0 0 0 0 0 0 0 0 0 0 0 0 0 127 0" result="hardAlpha"/>
<feOffset dy="1.24901"/>
<feGaussianBlur stdDeviation="0.624505"/>
<feComposite in2="hardAlpha" operator="arithmetic" k2="-1" k3="1"/>
<feColorMatrix type="matrix" values="0 0 0 0 0 0 0 0 0 0 0 0 0 0 0 0 0 0 0.25 0"/>
<feBlend mode="normal" in2="shape" result="effect1_innerShadow_940_3659"/>
<feColorMatrix in="SourceAlpha" type="matrix" values="0 0 0 0 0 0 0 0 0 0 0 0 0 0 0 0 0 0 127 0" result="hardAlpha"/>
<feOffset dx="1.24901" dy="0.936758"/>
<feGaussianBlur stdDeviation="0.936758"/>
<feComposite in2="hardAlpha" operator="arithmetic" k2="-1" k3="1"/>
<feColorMatrix type="matrix" values="0 0 0 0 1 0 0 0 0 1 0 0 0 0 1 0 0 0 1 0"/>
<feBlend mode="normal" in2="effect1_innerShadow_940_3659" result="effect2_innerShadow_940_3659"/>
</filter>
<filter id="filter14_i_940_3659" x="29.6992" y="149.642" width="11.5967" height="11.2839" filterUnits="userSpaceOnUse" color-interpolation-filters="sRGB">
<feFlood flood-opacity="0" result="BackgroundImageFix"/>
<feBlend mode="normal" in="SourceGraphic" in2="BackgroundImageFix" result="shape"/>
<feColorMatrix in="SourceAlpha" type="matrix" values="0 0 0 0 0 0 0 0 0 0 0 0 0 0 0 0 0 0 127 0" result="hardAlpha"/>
<feOffset dx="1.24901" dy="0.936758"/>
<feGaussianBlur stdDeviation="0.936758"/>
<feComposite in2="hardAlpha" operator="arithmetic" k2="-1" k3="1"/>
<feColorMatrix type="matrix" values="0 0 0 0 1 0 0 0 0 1 0 0 0 0 1 0 0 0 1 0"/>
<feBlend mode="normal" in2="shape" result="effect1_innerShadow_940_3659"/>
</filter>
<filter id="filter15_ii_940_3659" x="19.3438" y="151.944" width="11.5967" height="11.5962" filterUnits="userSpaceOnUse" color-interpolation-filters="sRGB">
<feFlood flood-opacity="0" result="BackgroundImageFix"/>
<feBlend mode="normal" in="SourceGraphic" in2="BackgroundImageFix" result="shape"/>
<feColorMatrix in="SourceAlpha" type="matrix" values="0 0 0 0 0 0 0 0 0 0 0 0 0 0 0 0 0 0 127 0" result="hardAlpha"/>
<feOffset dy="1.24901"/>
<feGaussianBlur stdDeviation="0.624505"/>
<feComposite in2="hardAlpha" operator="arithmetic" k2="-1" k3="1"/>
<feColorMatrix type="matrix" values="0 0 0 0 0 0 0 0 0 0 0 0 0 0 0 0 0 0 0.25 0"/>
<feBlend mode="normal" in2="shape" result="effect1_innerShadow_940_3659"/>
<feColorMatrix in="SourceAlpha" type="matrix" values="0 0 0 0 0 0 0 0 0 0 0 0 0 0 0 0 0 0 127 0" result="hardAlpha"/>
<feOffset dx="1.24901" dy="0.936758"/>
<feGaussianBlur stdDeviation="0.936758"/>
<feComposite in2="hardAlpha" operator="arithmetic" k2="-1" k3="1"/>
<feColorMatrix type="matrix" values="0 0 0 0 1 0 0 0 0 1 0 0 0 0 1 0 0 0 1 0"/>
<feBlend mode="normal" in2="effect1_innerShadow_940_3659" result="effect2_innerShadow_940_3659"/>
</filter>
<filter id="filter16_ii_940_3659" x="12.1836" y="143.899" width="11.5967" height="11.5962" filterUnits="userSpaceOnUse" color-interpolation-filters="sRGB">
<feFlood flood-opacity="0" result="BackgroundImageFix"/>
<feBlend mode="normal" in="SourceGraphic" in2="BackgroundImageFix" result="shape"/>
<feColorMatrix in="SourceAlpha" type="matrix" values="0 0 0 0 0 0 0 0 0 0 0 0 0 0 0 0 0 0 127 0" result="hardAlpha"/>
<feOffset dy="1.24901"/>
<feGaussianBlur stdDeviation="0.624505"/>
<feComposite in2="hardAlpha" operator="arithmetic" k2="-1" k3="1"/>
<feColorMatrix type="matrix" values="0 0 0 0 0 0 0 0 0 0 0 0 0 0 0 0 0 0 0.25 0"/>
<feBlend mode="normal" in2="shape" result="effect1_innerShadow_940_3659"/>
<feColorMatrix in="SourceAlpha" type="matrix" values="0 0 0 0 0 0 0 0 0 0 0 0 0 0 0 0 0 0 127 0" result="hardAlpha"/>
<feOffset dx="1.24901" dy="0.936758"/>
<feGaussianBlur stdDeviation="0.936758"/>
<feComposite in2="hardAlpha" operator="arithmetic" k2="-1" k3="1"/>
<feColorMatrix type="matrix" values="0 0 0 0 1 0 0 0 0 1 0 0 0 0 1 0 0 0 1 0"/>
<feBlend mode="normal" in2="effect1_innerShadow_940_3659" result="effect2_innerShadow_940_3659"/>
</filter>
<filter id="filter17_ii_940_3659" x="9" y="153.933" width="11.5967" height="11.5962" filterUnits="userSpaceOnUse" color-interpolation-filters="sRGB">
<feFlood flood-opacity="0" result="BackgroundImageFix"/>
<feBlend mode="normal" in="SourceGraphic" in2="BackgroundImageFix" result="shape"/>
<feColorMatrix in="SourceAlpha" type="matrix" values="0 0 0 0 0 0 0 0 0 0 0 0 0 0 0 0 0 0 127 0" result="hardAlpha"/>
<feOffset dy="1.24901"/>
<feGaussianBlur stdDeviation="0.624505"/>
<feComposite in2="hardAlpha" operator="arithmetic" k2="-1" k3="1"/>
<feColorMatrix type="matrix" values="0 0 0 0 0 0 0 0 0 0 0 0 0 0 0 0 0 0 0.25 0"/>
<feBlend mode="normal" in2="shape" result="effect1_innerShadow_940_3659"/>
<feColorMatrix in="SourceAlpha" type="matrix" values="0 0 0 0 0 0 0 0 0 0 0 0 0 0 0 0 0 0 127 0" result="hardAlpha"/>
<feOffset dx="1.24901" dy="0.936758"/>
<feGaussianBlur stdDeviation="0.936758"/>
<feComposite in2="hardAlpha" operator="arithmetic" k2="-1" k3="1"/>
<feColorMatrix type="matrix" values="0 0 0 0 1 0 0 0 0 1 0 0 0 0 1 0 0 0 1 0"/>
<feBlend mode="normal" in2="effect1_innerShadow_940_3659" result="effect2_innerShadow_940_3659"/>
</filter>
<filter id="filter18_i_940_3659" x="6.46821" y="62.698" width="41.3755" height="41.8066" filterUnits="userSpaceOnUse" color-interpolation-filters="sRGB">
<feFlood flood-opacity="0" result="BackgroundImageFix"/>
<feBlend mode="normal" in="SourceGraphic" in2="BackgroundImageFix" result="shape"/>
<feColorMatrix in="SourceAlpha" type="matrix" values="0 0 0 0 0 0 0 0 0 0 0 0 0 0 0 0 0 0 127 0" result="hardAlpha"/>
<feOffset dx="-3.29525" dy="-1.79741"/>
<feGaussianBlur stdDeviation="0.898705"/>
<feComposite in2="hardAlpha" operator="arithmetic" k2="-1" k3="1"/>
<feColorMatrix type="matrix" values="0 0 0 0 0 0 0 0 0 0 0 0 0 0 0 0 0 0 0.25 0"/>
<feBlend mode="normal" in2="shape" result="effect1_innerShadow_940_3659"/>
</filter>
</defs>
</svg>
