<svg width="260" height="178" viewBox="0 0 260 178" fill="none" xmlns="http://www.w3.org/2000/svg">
<g clip-path="url(#clip0_2683_435)">
<path d="M42.0819 7.14882C41.4134 6.39462 40.5925 5.79083 39.6734 5.37732C38.7543 4.96381 37.7579 4.75 36.75 4.75C35.7422 4.75 34.7458 4.96381 33.8267 5.37732C32.9076 5.79083 32.0867 6.39462 31.4182 7.14882C30.1487 7.25284 28.9303 7.69528 27.8898 8.43007C26.8494 9.16486 26.0249 10.1651 25.5023 11.3267C24.9797 12.4884 24.7781 13.7688 24.9184 15.0348C25.0587 16.3008 25.5358 17.5061 26.3 18.5251C26.4106 18.6726 26.5541 18.7923 26.719 18.8747C26.8839 18.9572 27.0657 19.0001 27.25 19.0001H46.25C46.4344 19.0001 46.6162 18.9572 46.7811 18.8747C46.946 18.7923 47.0894 18.6726 47.2 18.5251C47.9643 17.5061 48.4414 16.3008 48.5817 15.0348C48.722 13.7688 48.5204 12.4884 47.9978 11.3267C47.4752 10.1651 46.6507 9.16486 45.6103 8.43007C44.5698 7.69528 43.3514 7.25284 42.0819 7.14882V7.14882Z" fill="#4CAF50"/>
<path d="M36.75 19C36.4351 19 36.133 18.8749 35.9103 18.6522C35.6876 18.4295 35.5625 18.1274 35.5625 17.8125V13.0625C35.5625 12.7476 35.6876 12.4455 35.9103 12.2228C36.133 12.0001 36.4351 11.875 36.75 11.875C37.0649 11.875 37.367 12.0001 37.5897 12.2228C37.8124 12.4455 37.9375 12.7476 37.9375 13.0625V17.8125C37.9375 18.1274 37.8124 18.4295 37.5897 18.6522C37.367 18.8749 37.0649 19 36.75 19Z" fill="#43A047"/>
<path d="M36.75 19C36.4931 19 36.2431 18.9167 36.0375 18.7625L31.2875 15.2C31.0355 15.011 30.869 14.7297 30.8244 14.4179C30.7799 14.1062 30.861 13.7895 31.05 13.5375C31.239 13.2855 31.5203 13.119 31.8321 13.0744C32.1438 13.0299 32.4605 13.111 32.7125 13.3L37.4625 16.8625C37.6619 17.012 37.8092 17.2205 37.8835 17.4584C37.9578 17.6963 37.9554 17.9516 37.8766 18.188C37.7977 18.4245 37.6465 18.6301 37.4443 18.7759C37.2422 18.9216 36.9992 19 36.75 19Z" fill="#43A047"/>
<path d="M36.75 19C36.5008 19 36.2578 18.9216 36.0557 18.7758C35.8535 18.6301 35.7023 18.4245 35.6234 18.188C35.5446 17.9516 35.5422 17.6963 35.6165 17.4584C35.6908 17.2205 35.8381 17.012 36.0375 16.8625L40.7875 13.3C40.9123 13.2064 41.0542 13.1384 41.2053 13.0997C41.3564 13.0609 41.5136 13.0524 41.6679 13.0744C41.8223 13.0965 41.9708 13.1487 42.105 13.2282C42.2392 13.3076 42.3564 13.4127 42.45 13.5375C42.5436 13.6623 42.6116 13.8042 42.6503 13.9553C42.689 14.1064 42.6976 14.2636 42.6756 14.4179C42.6535 14.5723 42.6013 14.7208 42.5218 14.855C42.4424 14.9892 42.3373 15.1064 42.2125 15.2L37.4625 18.7625C37.2569 18.9167 37.0069 19 36.75 19Z" fill="#43A047"/>
<path d="M28.4375 2.375C26.2329 2.375 24.1186 3.25078 22.5597 4.80967C21.0008 6.36857 20.125 8.48289 20.125 10.6875C20.125 12.8921 21.0008 15.0064 22.5597 16.5653C24.1186 18.1242 26.2329 19 28.4375 19C28.7524 19 29.0545 18.8749 29.2772 18.6522C29.4999 18.4295 29.625 18.1274 29.625 17.8125V3.5625C29.625 3.24756 29.4999 2.94551 29.2772 2.72281C29.0545 2.50011 28.7524 2.375 28.4375 2.375V2.375Z" fill="#F44336"/>
<path d="M17.8059 8.22708C16.2469 9.78605 15.3711 11.9005 15.3711 14.1052C15.3711 16.3099 16.2469 18.4244 17.8059 19.9833C19.3649 21.5423 21.4793 22.4181 23.684 22.4181C25.8887 22.4181 28.0032 21.5423 29.5621 19.9833C29.7848 19.7606 29.9098 19.4586 29.9098 19.1438C29.9098 18.8289 29.7848 18.5269 29.5621 18.3042L19.485 8.22708C19.2623 8.00446 18.9603 7.87939 18.6455 7.87939C18.3306 7.87939 18.0286 8.00446 17.8059 8.22708V8.22708Z" fill="#FFC107"/>
<path d="M49.8125 16.625H14.1875C13.8726 16.625 13.5705 16.7501 13.3478 16.9728C13.1251 17.1955 13 17.4976 13 17.8125C13.0674 21.4455 14.2399 24.9717 16.3613 27.9218C18.4827 30.8718 21.4524 33.1056 24.875 34.3259V36.8125C24.875 37.1274 25.0001 37.4295 25.2228 37.6522C25.4455 37.8749 25.7476 38 26.0625 38H37.9375C38.2524 38 38.5545 37.8749 38.7772 37.6522C38.9999 37.4295 39.125 37.1274 39.125 36.8125V34.3259C42.5478 33.1059 45.5177 30.8722 47.6391 27.9221C49.7606 24.972 50.9329 21.4456 51 17.8125C51 17.4976 50.8749 17.1955 50.6522 16.9728C50.4295 16.7501 50.1274 16.625 49.8125 16.625Z" fill="#ECEFF1"/>
</g>
<path d="M146.625 10.8063L146.103 16.625H140.688C139.586 17.4453 138.39 18.131 137.125 18.6675C135.616 19.3484 134.016 19.8045 132.375 20.0213C130.799 20.2349 129.201 20.2349 127.625 20.0213C125.984 19.8045 124.384 19.3484 122.875 18.6675C121.61 18.131 120.414 17.4453 119.313 16.625H113.898L113.375 10.8063C113.357 10.4695 113.467 10.1383 113.684 9.88C113.798 9.76168 113.934 9.66716 114.085 9.60193C114.236 9.53671 114.398 9.50206 114.563 9.5H145.438C145.602 9.50206 145.764 9.53671 145.915 9.60193C146.066 9.66716 146.202 9.76168 146.316 9.88C146.533 10.1383 146.644 10.4695 146.625 10.8063V10.8063Z" fill="#D32F2F"/>
<path d="M131.188 4.75H128.812C128.157 4.75 127.625 5.28166 127.625 5.9375V24.9375C127.625 25.5933 128.157 26.125 128.812 26.125H131.188C131.843 26.125 132.375 25.5933 132.375 24.9375V5.9375C132.375 5.28166 131.843 4.75 131.188 4.75Z" fill="#FFD54F"/>
<path d="M126.438 0H124.062C123.407 0 122.875 0.531662 122.875 1.1875V20.1875C122.875 20.8433 123.407 21.375 124.062 21.375H126.438C127.093 21.375 127.625 20.8433 127.625 20.1875V1.1875C127.625 0.531662 127.093 0 126.438 0Z" fill="#FFC107"/>
<path d="M140.688 4.75H138.312C137.657 4.75 137.125 5.28166 137.125 5.9375V24.9375C137.125 25.5933 137.657 26.125 138.312 26.125H140.688C141.343 26.125 141.875 25.5933 141.875 24.9375V5.9375C141.875 5.28166 141.343 4.75 140.688 4.75Z" fill="#FFD54F"/>
<path d="M135.938 0H133.562C132.907 0 132.375 0.531662 132.375 1.1875V20.1875C132.375 20.8433 132.907 21.375 133.562 21.375H135.938C136.593 21.375 137.125 20.8433 137.125 20.1875V1.1875C137.125 0.531662 136.593 0 135.938 0Z" fill="#FFC107"/>
<path d="M121.688 4.75H119.312C118.657 4.75 118.125 5.28166 118.125 5.9375V24.9375C118.125 25.5933 118.657 26.125 119.312 26.125H121.688C122.343 26.125 122.875 25.5933 122.875 24.9375V5.9375C122.875 5.28166 122.343 4.75 121.688 4.75Z" fill="#FFD54F"/>
<path d="M146.103 16.625L144.251 36.9075C144.223 37.2041 144.086 37.4798 143.867 37.6815C143.647 37.8832 143.361 37.9966 143.063 38H116.938C116.641 37.9966 116.354 37.8832 116.135 37.6815C115.916 37.4798 115.779 37.2041 115.751 36.9075L113.898 16.625H119.313C120.415 17.4453 121.611 18.1309 122.876 18.6675C124.385 19.3484 125.985 19.8045 127.626 20.0213C129.202 20.2349 130.8 20.2349 132.376 20.0213C134.017 19.8045 135.617 19.3484 137.126 18.6675C138.391 18.1309 139.587 17.4453 140.688 16.625H146.103Z" fill="#F44336"/>
<path d="M130 33.25C133.279 33.25 135.938 31.1234 135.938 28.5C135.938 25.8766 133.279 23.75 130 23.75C126.721 23.75 124.062 25.8766 124.062 28.5C124.062 31.1234 126.721 33.25 130 33.25Z" fill="#FAFAFA"/>
<g clip-path="url(#clip1_2683_435)">
<path d="M243.438 11.8751H234.5C235.247 10.7088 235.666 9.36291 235.714 7.97874C235.762 6.59457 235.436 5.22307 234.771 4.00804C234.107 2.79302 233.127 1.77924 231.936 1.07301C230.744 0.366791 229.385 -0.00585938 228 -0.00585937C226.615 -0.00585938 225.256 0.366791 224.064 1.07301C222.873 1.77924 221.893 2.79302 221.229 4.00804C220.564 5.22307 220.238 6.59457 220.286 7.97874C220.334 9.36291 220.753 10.7088 221.5 11.8751H212.562C211.618 11.8751 210.712 12.2505 210.043 12.9186C209.375 13.5867 209 14.4928 209 15.4376C209 16.3825 209.375 17.2886 210.043 17.9567C210.712 18.6248 211.618 19.0001 212.562 19.0001H220.875V28.0251L217.918 32.4688C217.658 32.8541 217.477 33.287 217.385 33.7426C217.293 34.1982 217.292 34.6674 217.381 35.1235C217.471 35.5796 217.649 36.0135 217.907 36.4003C218.165 36.7872 218.496 37.1194 218.882 37.3779C219.673 37.8876 220.631 38.0707 221.554 37.8887C222.477 37.7066 223.294 37.1736 223.832 36.4018L228 30.1626L232.161 36.3946C232.483 36.8876 232.922 37.2926 233.44 37.573C233.957 37.8533 234.536 38.0001 235.125 38.0001C235.822 38.0066 236.505 37.7985 237.08 37.404C237.472 37.1482 237.809 36.8171 238.072 36.4299C238.335 36.0428 238.519 35.6073 238.612 35.1486C238.705 34.69 238.707 34.2174 238.616 33.7582C238.526 33.299 238.345 32.8623 238.084 32.4735L235.125 28.0251V19.0001H243.438C244.382 19.0001 245.288 18.6248 245.957 17.9567C246.625 17.2886 247 16.3825 247 15.4376C247 14.4928 246.625 13.5867 245.957 12.9186C245.288 12.2505 244.382 11.8751 243.438 11.8751Z" fill="#8D6E63"/>
<path d="M228.047 19C227.732 19 227.43 18.8749 227.207 18.6522C226.984 18.4295 226.859 18.1274 226.859 17.8125C226.859 17.5016 226.981 17.2031 227.199 16.9811C227.416 16.7591 227.712 16.6312 228.023 16.625H228.047C228.362 16.625 228.664 16.7501 228.887 16.9728C229.109 17.1955 229.234 17.4976 229.234 17.8125C229.234 18.1274 229.109 18.4295 228.887 18.6522C228.664 18.8749 228.362 19 228.047 19Z" fill="#F44336"/>
<path d="M228.047 23.75C227.732 23.75 227.43 23.6249 227.207 23.4022C226.984 23.1795 226.859 22.8774 226.859 22.5625C226.859 22.2516 226.981 21.9531 227.199 21.7311C227.416 21.5091 227.712 21.3812 228.023 21.375H228.047C228.362 21.375 228.664 21.5001 228.887 21.7228C229.109 21.9455 229.234 22.2476 229.234 22.5625C229.234 22.8774 229.109 23.1795 228.887 23.4022C228.664 23.6249 228.362 23.75 228.047 23.75Z" fill="#F44336"/>
<path d="M225.672 7.125C225.357 7.125 225.055 6.99989 224.832 6.77719C224.609 6.55449 224.484 6.25244 224.484 5.9375C224.484 5.62663 224.606 5.32813 224.824 5.1061C225.041 4.88407 225.337 4.75622 225.648 4.75H225.672C225.987 4.75 226.289 4.87511 226.512 5.09781C226.734 5.32051 226.859 5.62256 226.859 5.9375C226.859 6.25244 226.734 6.55449 226.512 6.77719C226.289 6.99989 225.987 7.125 225.672 7.125Z" fill="#FAFAFA"/>
<path d="M230.422 7.125C230.107 7.125 229.805 6.99989 229.582 6.77719C229.359 6.55449 229.234 6.25244 229.234 5.9375C229.234 5.62663 229.356 5.32813 229.574 5.1061C229.791 4.88407 230.087 4.75622 230.398 4.75H230.422C230.737 4.75 231.039 4.87511 231.262 5.09781C231.484 5.32051 231.609 5.62256 231.609 5.9375C231.609 6.25244 231.484 6.55449 231.262 6.77719C231.039 6.99989 230.737 7.125 230.422 7.125Z" fill="#FAFAFA"/>
<path d="M216.125 11.875H213.75V19H216.125V11.875Z" fill="#BCAAA4"/>
<path d="M242.25 11.875H239.875V19H242.25V11.875Z" fill="#BCAAA4"/>
<path d="M231.12 34.8366L237.283 31.2717L235.965 29.2886L229.797 32.8558L231.12 34.8366Z" fill="#BCAAA4"/>
<path d="M226.201 32.8558L220.033 29.2886L218.715 31.2717L224.878 34.8366L226.201 32.8558Z" fill="#BCAAA4"/>
</g>
<g clip-path="url(#clip2_2683_435)">
<path d="M49.8125 73.75H18.9375C18.6226 73.75 18.3205 73.6249 18.0978 73.4022C17.8751 73.1795 17.75 72.8774 17.75 72.5625C17.75 72.2476 17.8751 71.9455 18.0978 71.7228C18.3205 71.5001 18.6226 71.375 18.9375 71.375H49.8125C50.1274 71.375 50.4295 71.5001 50.6522 71.7228C50.8749 71.9455 51 72.2476 51 72.5625C51 72.8774 50.8749 73.1795 50.6522 73.4022C50.4295 73.6249 50.1274 73.75 49.8125 73.75Z" fill="#455A64"/>
<path d="M21.3125 88C20.9976 88 20.6955 87.8749 20.4728 87.6522C20.2501 87.4295 20.125 87.1274 20.125 86.8125V70.1875C20.125 69.8726 20.2501 69.5705 20.4728 69.3478C20.6955 69.1251 20.9976 69 21.3125 69C21.6274 69 21.9295 69.1251 22.1522 69.3478C22.3749 69.5705 22.5 69.8726 22.5 70.1875V86.8125C22.5 87.1274 22.3749 87.4295 22.1522 87.6522C21.9295 87.8749 21.6274 88 21.3125 88Z" fill="#FFC107"/>
<path d="M26.0625 88C25.7476 88 25.4455 87.8749 25.2228 87.6522C25.0001 87.4295 24.875 87.1274 24.875 86.8125V70.1875C24.875 69.8726 25.0001 69.5705 25.2228 69.3478C25.4455 69.1251 25.7476 69 26.0625 69C26.3774 69 26.6795 69.1251 26.9022 69.3478C27.1249 69.5705 27.25 69.8726 27.25 70.1875V86.8125C27.25 87.1274 27.1249 87.4295 26.9022 87.6522C26.6795 87.8749 26.3774 88 26.0625 88Z" fill="#FFC107"/>
<path d="M30.8125 88C30.4976 88 30.1955 87.8749 29.9728 87.6522C29.7501 87.4295 29.625 87.1274 29.625 86.8125V70.1875C29.625 69.8726 29.7501 69.5705 29.9728 69.3478C30.1955 69.1251 30.4976 69 30.8125 69C31.1274 69 31.4295 69.1251 31.6522 69.3478C31.8749 69.5705 32 69.8726 32 70.1875V86.8125C32 87.1274 31.8749 87.4295 31.6522 87.6522C31.4295 87.8749 31.1274 88 30.8125 88Z" fill="#FFC107"/>
<path d="M49.8125 78.5H18.9375C18.6226 78.5 18.3205 78.3749 18.0978 78.1522C17.8751 77.9295 17.75 77.6274 17.75 77.3125C17.75 76.9976 17.8751 76.6955 18.0978 76.4728C18.3205 76.2501 18.6226 76.125 18.9375 76.125H49.8125C50.1274 76.125 50.4295 76.2501 50.6522 76.4728C50.8749 76.6955 51 76.9976 51 77.3125C51 77.6274 50.8749 77.9295 50.6522 78.1522C50.4295 78.3749 50.1274 78.5 49.8125 78.5Z" fill="#455A64"/>
<path d="M49.8125 85.625H14.1875C13.8726 85.625 13.5705 85.7501 13.3478 85.9728C13.1251 86.1955 13 86.4976 13 86.8125C13.0674 90.4455 14.2399 93.9717 16.3613 96.9218C18.4827 99.8718 21.4524 102.106 24.875 103.326V105.812C24.875 106.127 25.0001 106.429 25.2228 106.652C25.4455 106.875 25.7476 107 26.0625 107H37.9375C38.2524 107 38.5545 106.875 38.7772 106.652C38.9999 106.429 39.125 106.127 39.125 105.812V103.326C42.5478 102.106 45.5177 99.8722 47.6391 96.9221C49.7606 93.972 50.9329 90.4456 51 86.8125C51 86.4976 50.8749 86.1955 50.6522 85.9728C50.4295 85.7501 50.1274 85.625 49.8125 85.625Z" fill="#F44336"/>
</g>
<g clip-path="url(#clip3_2683_435)">
<path d="M140.082 76.1488C139.413 75.3946 138.592 74.7908 137.673 74.3773C136.754 73.9638 135.758 73.75 134.75 73.75C133.742 73.75 132.746 73.9638 131.827 74.3773C130.908 74.7908 130.087 75.3946 129.418 76.1488C128.149 76.2528 126.93 76.6953 125.89 77.4301C124.849 78.1649 124.025 79.1651 123.502 80.3267C122.98 81.4884 122.778 82.7688 122.918 84.0348C123.059 85.3008 123.536 86.5061 124.3 87.5251C124.411 87.6726 124.554 87.7923 124.719 87.8747C124.884 87.9572 125.066 88.0001 125.25 88.0001H144.25C144.434 88.0001 144.616 87.9572 144.781 87.8747C144.946 87.7923 145.089 87.6726 145.2 87.5251C145.964 86.5061 146.441 85.3008 146.582 84.0348C146.722 82.7688 146.52 81.4884 145.998 80.3267C145.475 79.1651 144.651 78.1649 143.61 77.4301C142.57 76.6953 141.351 76.2528 140.082 76.1488V76.1488Z" fill="#4CAF50"/>
<path d="M134.75 88C134.435 88 134.133 87.8749 133.91 87.6522C133.688 87.4295 133.562 87.1274 133.562 86.8125V82.0625C133.562 81.7476 133.688 81.4455 133.91 81.2228C134.133 81.0001 134.435 80.875 134.75 80.875C135.065 80.875 135.367 81.0001 135.59 81.2228C135.812 81.4455 135.938 81.7476 135.938 82.0625V86.8125C135.938 87.1274 135.812 87.4295 135.59 87.6522C135.367 87.8749 135.065 88 134.75 88Z" fill="#43A047"/>
<path d="M134.75 88C134.493 88 134.243 87.9167 134.038 87.7625L129.288 84.2C129.036 84.011 128.869 83.7297 128.824 83.4179C128.78 83.1062 128.861 82.7895 129.05 82.5375C129.239 82.2855 129.52 82.119 129.832 82.0744C130.144 82.0299 130.461 82.111 130.713 82.3L135.463 85.8625C135.662 86.012 135.809 86.2205 135.883 86.4584C135.958 86.6963 135.955 86.9516 135.877 87.188C135.798 87.4245 135.647 87.6301 135.444 87.7759C135.242 87.9216 134.999 88 134.75 88Z" fill="#43A047"/>
<path d="M134.75 88C134.501 88 134.258 87.9216 134.056 87.7758C133.853 87.6301 133.702 87.4245 133.623 87.188C133.545 86.9516 133.542 86.6963 133.617 86.4584C133.691 86.2205 133.838 86.012 134.037 85.8625L138.787 82.3C138.912 82.2064 139.054 82.1384 139.205 82.0997C139.356 82.0609 139.514 82.0524 139.668 82.0744C139.822 82.0965 139.971 82.1487 140.105 82.2282C140.239 82.3076 140.356 82.4127 140.45 82.5375C140.544 82.6623 140.612 82.8042 140.65 82.9553C140.689 83.1064 140.698 83.2636 140.676 83.4179C140.654 83.5723 140.601 83.7208 140.522 83.855C140.442 83.9892 140.337 84.1064 140.212 84.2L135.462 87.7625C135.257 87.9167 135.007 88 134.75 88Z" fill="#43A047"/>
<path d="M126.438 71.375C124.233 71.375 122.119 72.2508 120.56 73.8097C119.001 75.3686 118.125 77.4829 118.125 79.6875C118.125 81.8921 119.001 84.0064 120.56 85.5653C122.119 87.1242 124.233 88 126.438 88C126.752 88 127.054 87.8749 127.277 87.6522C127.5 87.4295 127.625 87.1274 127.625 86.8125V72.5625C127.625 72.2476 127.5 71.9455 127.277 71.7228C127.054 71.5001 126.752 71.375 126.438 71.375V71.375Z" fill="#F44336"/>
<path d="M115.806 77.2271C114.247 78.7861 113.371 80.9005 113.371 83.1052C113.371 85.3099 114.247 87.4244 115.806 88.9833C117.365 90.5423 119.479 91.4181 121.684 91.4181C123.889 91.4181 126.003 90.5423 127.562 88.9833C127.785 88.7606 127.91 88.4586 127.91 88.1438C127.91 87.8289 127.785 87.5269 127.562 87.3042L117.485 77.2271C117.262 77.0045 116.96 76.8794 116.645 76.8794C116.331 76.8794 116.029 77.0045 115.806 77.2271V77.2271Z" fill="#FFC107"/>
<path d="M147.812 85.625H112.188C111.873 85.625 111.571 85.7501 111.348 85.9728C111.125 86.1955 111 86.4976 111 86.8125C111.067 90.4455 112.24 93.9717 114.361 96.9218C116.483 99.8718 119.452 102.106 122.875 103.326V105.812C122.875 106.127 123 106.429 123.223 106.652C123.446 106.875 123.748 107 124.062 107H135.938C136.252 107 136.554 106.875 136.777 106.652C137 106.429 137.125 106.127 137.125 105.812V103.326C140.548 102.106 143.518 99.8722 145.639 96.9221C147.761 93.972 148.933 90.4456 149 86.8125C149 86.4976 148.875 86.1955 148.652 85.9728C148.429 85.7501 148.127 85.625 147.812 85.625Z" fill="#ECEFF1"/>
</g>
<path d="M244.625 79.8063L244.103 85.625H238.688C237.586 86.4453 236.39 87.131 235.125 87.6675C233.616 88.3484 232.016 88.8045 230.375 89.0213C228.799 89.2349 227.201 89.2349 225.625 89.0213C223.984 88.8045 222.384 88.3484 220.875 87.6675C219.61 87.131 218.414 86.4453 217.313 85.625H211.898L211.375 79.8063C211.357 79.4695 211.467 79.1383 211.684 78.88C211.798 78.7617 211.934 78.6672 212.085 78.6019C212.236 78.5367 212.398 78.5021 212.563 78.5H243.438C243.602 78.5021 243.764 78.5367 243.915 78.6019C244.066 78.6672 244.202 78.7617 244.316 78.88C244.533 79.1383 244.644 79.4695 244.625 79.8063V79.8063Z" fill="#D32F2F"/>
<path d="M229.188 73.75H226.812C226.157 73.75 225.625 74.2817 225.625 74.9375V93.9375C225.625 94.5933 226.157 95.125 226.812 95.125H229.188C229.843 95.125 230.375 94.5933 230.375 93.9375V74.9375C230.375 74.2817 229.843 73.75 229.188 73.75Z" fill="#FFD54F"/>
<path d="M224.438 69H222.062C221.407 69 220.875 69.5317 220.875 70.1875V89.1875C220.875 89.8433 221.407 90.375 222.062 90.375H224.438C225.093 90.375 225.625 89.8433 225.625 89.1875V70.1875C225.625 69.5317 225.093 69 224.438 69Z" fill="#FFC107"/>
<path d="M238.688 73.75H236.312C235.657 73.75 235.125 74.2817 235.125 74.9375V93.9375C235.125 94.5933 235.657 95.125 236.312 95.125H238.688C239.343 95.125 239.875 94.5933 239.875 93.9375V74.9375C239.875 74.2817 239.343 73.75 238.688 73.75Z" fill="#FFD54F"/>
<path d="M233.938 69H231.562C230.907 69 230.375 69.5317 230.375 70.1875V89.1875C230.375 89.8433 230.907 90.375 231.562 90.375H233.938C234.593 90.375 235.125 89.8433 235.125 89.1875V70.1875C235.125 69.5317 234.593 69 233.938 69Z" fill="#FFC107"/>
<path d="M219.688 73.75H217.312C216.657 73.75 216.125 74.2817 216.125 74.9375V93.9375C216.125 94.5933 216.657 95.125 217.312 95.125H219.688C220.343 95.125 220.875 94.5933 220.875 93.9375V74.9375C220.875 74.2817 220.343 73.75 219.688 73.75Z" fill="#FFD54F"/>
<path d="M244.103 85.625L242.251 105.907C242.223 106.204 242.086 106.48 241.867 106.681C241.647 106.883 241.361 106.997 241.063 107H214.938C214.641 106.997 214.354 106.883 214.135 106.681C213.916 106.48 213.779 106.204 213.751 105.907L211.898 85.625H217.313C218.415 86.4453 219.611 87.1309 220.876 87.6675C222.385 88.3484 223.985 88.8045 225.626 89.0213C227.202 89.2349 228.8 89.2349 230.376 89.0213C232.017 88.8045 233.617 88.3484 235.126 87.6675C236.391 87.1309 237.587 86.4453 238.688 85.625H244.103Z" fill="#F44336"/>
<path d="M228 102.25C231.279 102.25 233.938 100.123 233.938 97.5C233.938 94.8766 231.279 92.75 228 92.75C224.721 92.75 222.062 94.8766 222.062 97.5C222.062 100.123 224.721 102.25 228 102.25Z" fill="#FAFAFA"/>
<g clip-path="url(#clip4_2683_435)">
<path d="M47.4375 149.875H38.5004C39.2472 148.709 39.6665 147.363 39.7142 145.979C39.7619 144.595 39.4363 143.223 38.7715 142.008C38.1067 140.793 37.1273 139.779 35.9359 139.073C34.7445 138.367 33.385 137.994 32 137.994C30.615 137.994 29.2555 138.367 28.0641 139.073C26.8727 139.779 25.8933 140.793 25.2285 142.008C24.5637 143.223 24.2381 144.595 24.2858 145.979C24.3335 147.363 24.7528 148.709 25.4996 149.875H16.5625C15.6177 149.875 14.7115 150.25 14.0434 150.919C13.3753 151.587 13 152.493 13 153.438C13 154.382 13.3753 155.289 14.0434 155.957C14.7115 156.625 15.6177 157 16.5625 157H24.875V166.025L21.9181 170.469C21.6583 170.854 21.4772 171.287 21.385 171.743C21.2928 172.198 21.2915 172.667 21.3811 173.123C21.4707 173.58 21.6494 174.013 21.907 174.4C22.1647 174.787 22.4961 175.119 22.8824 175.378C23.6732 175.888 24.631 176.071 25.5541 175.889C26.4772 175.707 27.2938 175.174 27.8319 174.402L32 168.163L36.161 174.395C36.4826 174.888 36.922 175.293 37.4396 175.573C37.9571 175.853 38.5364 176 39.125 176C39.8223 176.007 40.5047 175.799 41.0796 175.404C41.4716 175.148 41.8089 174.817 42.0719 174.43C42.3349 174.043 42.5185 173.607 42.612 173.149C42.7054 172.69 42.7069 172.217 42.6163 171.758C42.5257 171.299 42.3449 170.862 42.0843 170.474L39.125 166.025V157H47.4375C48.3823 157 49.2885 156.625 49.9566 155.957C50.6247 155.289 51 154.382 51 153.438C51 152.493 50.6247 151.587 49.9566 150.919C49.2885 150.25 48.3823 149.875 47.4375 149.875Z" fill="#8D6E63"/>
<path d="M32.0469 157C31.7319 157 31.4299 156.875 31.2072 156.652C30.9845 156.429 30.8594 156.127 30.8594 155.812C30.8593 155.502 30.9812 155.203 31.1987 154.981C31.4163 154.759 31.7123 154.631 32.0231 154.625H32.0469C32.3618 154.625 32.6639 154.75 32.8866 154.973C33.1093 155.196 33.2344 155.498 33.2344 155.812C33.2344 156.127 33.1093 156.429 32.8866 156.652C32.6639 156.875 32.3618 157 32.0469 157Z" fill="#F44336"/>
<path d="M32.0469 161.75C31.7319 161.75 31.4299 161.625 31.2072 161.402C30.9845 161.179 30.8594 160.877 30.8594 160.562C30.8593 160.252 30.9812 159.953 31.1987 159.731C31.4163 159.509 31.7123 159.381 32.0231 159.375H32.0469C32.3618 159.375 32.6639 159.5 32.8866 159.723C33.1093 159.946 33.2344 160.248 33.2344 160.562C33.2344 160.877 33.1093 161.179 32.8866 161.402C32.6639 161.625 32.3618 161.75 32.0469 161.75Z" fill="#F44336"/>
<path d="M29.6719 145.125C29.3569 145.125 29.0549 145 28.8322 144.777C28.6095 144.554 28.4844 144.252 28.4844 143.938C28.4843 143.627 28.6062 143.328 28.8237 143.106C29.0413 142.884 29.3373 142.756 29.6481 142.75H29.6719C29.9868 142.75 30.2889 142.875 30.5116 143.098C30.7343 143.321 30.8594 143.623 30.8594 143.938C30.8594 144.252 30.7343 144.554 30.5116 144.777C30.2889 145 29.9868 145.125 29.6719 145.125Z" fill="#FAFAFA"/>
<path d="M34.4219 145.125C34.1069 145.125 33.8049 145 33.5822 144.777C33.3595 144.554 33.2344 144.252 33.2344 143.938C33.2343 143.627 33.3562 143.328 33.5737 143.106C33.7913 142.884 34.0873 142.756 34.3981 142.75H34.4219C34.7368 142.75 35.0389 142.875 35.2616 143.098C35.4843 143.321 35.6094 143.623 35.6094 143.938C35.6094 144.252 35.4843 144.554 35.2616 144.777C35.0389 145 34.7368 145.125 34.4219 145.125Z" fill="#FAFAFA"/>
<path d="M20.125 149.875H17.75V157H20.125V149.875Z" fill="#BCAAA4"/>
<path d="M46.25 149.875H43.875V157H46.25V149.875Z" fill="#BCAAA4"/>
<path d="M35.1198 172.837L41.2829 169.272L39.9648 167.289L33.7969 170.856L35.1198 172.837Z" fill="#BCAAA4"/>
<path d="M30.2008 170.856L24.033 167.289L22.7148 169.272L28.878 172.837L30.2008 170.856Z" fill="#BCAAA4"/>
</g>
<g clip-path="url(#clip5_2683_435)">
<path d="M137.125 157C137.125 158.89 136.374 160.702 135.038 162.038C133.702 163.374 131.89 164.125 130 164.125C128.11 164.125 126.298 163.374 124.962 162.038C123.626 160.702 122.875 158.89 122.875 157H111C111 162.039 113.002 166.872 116.565 170.435C120.128 173.998 124.961 176 130 176C135.039 176 139.872 173.998 143.435 170.435C146.998 166.872 149 162.039 149 157H137.125Z" fill="#FFD54F"/>
<path d="M149 157H137.125C137.125 155.11 136.374 153.298 135.038 151.962C133.702 150.626 131.89 149.875 130 149.875C128.11 149.875 126.298 150.626 124.962 151.962C123.626 153.298 122.875 155.11 122.875 157H111C111 151.961 113.002 147.128 116.565 143.565C120.128 140.002 124.961 138 130 138C135.039 138 139.872 140.002 143.435 143.565C146.998 147.128 149 151.961 149 157V157Z" fill="#EC407A"/>
<path d="M118.125 157H122.875V164.125C122.875 164.755 122.625 165.359 122.179 165.804C121.734 166.25 121.13 166.5 120.5 166.5C119.87 166.5 119.266 166.25 118.821 165.804C118.375 165.359 118.125 164.755 118.125 164.125V157Z" fill="#EC407A"/>
<path d="M111 157H118.125V161.75H115.75C114.49 161.75 113.282 161.25 112.391 160.359C111.5 159.468 111 158.26 111 157Z" fill="#EC407A"/>
<path d="M139.5 166.5C138.87 166.5 138.266 166.25 137.821 165.804C137.375 165.359 137.125 164.755 137.125 164.125V157H141.875V164.125C141.875 164.755 141.625 165.359 141.179 165.804C140.734 166.25 140.13 166.5 139.5 166.5V166.5Z" fill="#EC407A"/>
<path d="M144.25 161.75H141.875V157H149C149 158.26 148.5 159.468 147.609 160.359C146.718 161.25 145.51 161.75 144.25 161.75V161.75Z" fill="#EC407A"/>
<path d="M116.097 155.466C115.862 155.465 115.633 155.396 115.437 155.265C115.242 155.134 115.09 154.949 115 154.732C114.91 154.514 114.887 154.276 114.933 154.045C114.979 153.815 115.093 153.603 115.259 153.437L116.938 151.758C117.162 151.542 117.462 151.422 117.773 151.425C118.085 151.428 118.383 151.552 118.603 151.773C118.823 151.993 118.948 152.291 118.951 152.602C118.953 152.913 118.834 153.213 118.617 153.437L116.938 155.116C116.828 155.227 116.697 155.315 116.553 155.375C116.408 155.435 116.254 155.465 116.097 155.466Z" fill="#90CAF9"/>
<path d="M120.847 148.341C120.612 148.34 120.383 148.271 120.187 148.14C119.992 148.009 119.84 147.824 119.75 147.607C119.66 147.389 119.637 147.151 119.683 146.92C119.729 146.69 119.843 146.478 120.009 146.312L121.688 144.633C121.912 144.417 122.212 144.297 122.523 144.3C122.835 144.303 123.133 144.427 123.353 144.648C123.573 144.868 123.698 145.166 123.701 145.477C123.703 145.788 123.584 146.088 123.367 146.312L121.688 147.991C121.578 148.102 121.447 148.19 121.303 148.25C121.158 148.31 121.004 148.34 120.847 148.341Z" fill="#F48FB1"/>
<path d="M139.154 148.341C138.998 148.341 138.843 148.31 138.699 148.251C138.555 148.191 138.424 148.104 138.313 147.994L136.634 146.312C136.418 146.088 136.298 145.788 136.301 145.477C136.304 145.166 136.428 144.868 136.649 144.648C136.869 144.427 137.167 144.303 137.478 144.3C137.789 144.297 138.089 144.417 138.313 144.633L139.992 146.312C140.159 146.478 140.272 146.69 140.318 146.921C140.364 147.151 140.341 147.391 140.251 147.608C140.161 147.825 140.008 148.011 139.812 148.141C139.617 148.272 139.387 148.341 139.152 148.341H139.154Z" fill="#90CAF9"/>
<path d="M143.904 155.466C143.748 155.466 143.593 155.435 143.449 155.376C143.305 155.316 143.174 155.229 143.063 155.119L141.384 153.437C141.168 153.213 141.048 152.913 141.051 152.602C141.054 152.291 141.178 151.993 141.399 151.773C141.619 151.552 141.917 151.428 142.228 151.425C142.539 151.422 142.839 151.542 143.063 151.758L144.742 153.437C144.909 153.603 145.022 153.815 145.068 154.046C145.114 154.276 145.091 154.516 145.001 154.733C144.911 154.95 144.758 155.136 144.562 155.266C144.367 155.397 144.137 155.466 143.902 155.466H143.904Z" fill="#F48FB1"/>
<path d="M131.188 145.125H128.812C128.498 145.125 128.196 145 127.973 144.777C127.75 144.554 127.625 144.252 127.625 143.938C127.625 143.623 127.75 143.321 127.973 143.098C128.196 142.875 128.498 142.75 128.812 142.75H131.188C131.502 142.75 131.804 142.875 132.027 143.098C132.25 143.321 132.375 143.623 132.375 143.938C132.375 144.252 132.25 144.554 132.027 144.777C131.804 145 131.502 145.125 131.188 145.125Z" fill="#8D6E63"/>
</g>
<g clip-path="url(#clip6_2683_435)">
<path d="M246.631 145.46C241.609 140.672 234.938 138.001 228 138.001C221.062 138.001 214.39 140.672 209.369 145.46C209.171 145.649 209.043 145.901 209.009 146.172C208.975 146.444 209.036 146.719 209.182 146.952L211.937 151.345C212.035 151.502 212.168 151.634 212.326 151.73C212.484 151.826 212.662 151.884 212.846 151.899C213.03 151.91 213.214 151.88 213.385 151.812C213.556 151.743 213.709 151.637 213.834 151.502C215.611 149.499 217.793 147.896 220.235 146.798C222.677 145.701 225.325 145.133 228.002 145.133C230.68 145.133 233.327 145.701 235.769 146.798C238.211 147.896 240.393 149.499 242.17 151.502C242.282 151.628 242.419 151.728 242.572 151.797C242.725 151.866 242.891 151.901 243.059 151.901H243.156C243.34 151.886 243.518 151.828 243.676 151.732C243.834 151.636 243.967 151.504 244.066 151.348L246.821 146.954C246.966 146.721 247.027 146.445 246.993 146.173C246.958 145.901 246.83 145.649 246.631 145.46V145.46Z" fill="#FFA000"/>
<path d="M243.944 149.92C241.943 147.666 239.488 145.861 236.739 144.626C233.991 143.39 231.011 142.751 227.998 142.751C224.984 142.751 222.005 143.39 219.256 144.626C216.508 145.861 214.052 147.666 212.052 149.92C211.88 150.113 211.776 150.356 211.754 150.613C211.733 150.87 211.796 151.127 211.933 151.345L226.991 175.451C227.098 175.622 227.246 175.763 227.422 175.861C227.598 175.958 227.796 176.009 227.998 176.009C228.199 176.009 228.397 175.958 228.573 175.861C228.75 175.763 228.898 175.622 229.005 175.451L244.062 151.345C244.2 151.127 244.263 150.87 244.241 150.613C244.22 150.356 244.115 150.113 243.944 149.92V149.92Z" fill="#FFC107"/>
<path d="M226.812 154.625C228.78 154.625 230.375 153.03 230.375 151.062C230.375 149.095 228.78 147.5 226.812 147.5C224.845 147.5 223.25 149.095 223.25 151.062C223.25 153.03 224.845 154.625 226.812 154.625Z" fill="#F44336"/>
<path d="M222.06 160.563C221.407 160.564 220.767 160.746 220.21 161.088C219.654 161.43 219.203 161.919 218.906 162.501L222.143 167.688C223.088 167.677 223.99 167.291 224.65 166.615C225.311 165.939 225.675 165.029 225.664 164.084C225.653 163.139 225.267 162.237 224.591 161.577C223.916 160.916 223.005 160.552 222.06 160.563Z" fill="#4CAF50"/>
<path d="M237.5 154.625C236.555 154.625 235.649 155 234.981 155.668C234.313 156.337 233.938 157.243 233.938 158.188C233.938 159.132 234.313 160.038 234.981 160.707C235.649 161.375 236.555 161.75 237.5 161.75H237.562L240.72 156.694C240.436 156.078 239.982 155.556 239.412 155.19C238.841 154.824 238.178 154.628 237.5 154.625V154.625Z" fill="#F44336"/>
</g>
<defs>
<clipPath id="clip0_2683_435">
<rect width="38" height="38" fill="white" transform="translate(13)"/>
</clipPath>
<clipPath id="clip1_2683_435">
<rect width="38" height="38" fill="white" transform="translate(209)"/>
</clipPath>
<clipPath id="clip2_2683_435">
<rect width="38" height="38" fill="white" transform="translate(13 69)"/>
</clipPath>
<clipPath id="clip3_2683_435">
<rect width="38" height="38" fill="white" transform="translate(111 69)"/>
</clipPath>
<clipPath id="clip4_2683_435">
<rect width="38" height="38" fill="white" transform="translate(13 138)"/>
</clipPath>
<clipPath id="clip5_2683_435">
<rect width="38" height="38" fill="white" transform="translate(111 138)"/>
</clipPath>
<clipPath id="clip6_2683_435">
<rect width="38" height="38" fill="white" transform="translate(209 138)"/>
</clipPath>
</defs>
</svg>
