<svg width="114" height="18" viewBox="0 0 114 18" fill="none" xmlns="http://www.w3.org/2000/svg">
<path d="M0.0240002 17V0.94H3.148V17H0.0240002ZM12.2158 17.418C11.1744 17.418 10.2724 17.242 9.50978 16.89C8.76178 16.538 8.13111 16.0687 7.61778 15.482C7.11911 14.8953 6.74511 14.2353 6.49578 13.502C6.24645 12.7687 6.12178 12.0207 6.12178 11.258V10.84C6.12178 10.0333 6.24645 9.26333 6.49578 8.53C6.75978 7.782 7.14845 7.122 7.66178 6.55C8.17511 5.96333 8.80578 5.50133 9.55378 5.164C10.3164 4.812 11.1964 4.636 12.1938 4.636C13.2351 4.636 14.1664 4.84133 14.9878 5.252C15.8091 5.648 16.4618 6.20533 16.9458 6.924C17.4444 7.64267 17.7231 8.47867 17.7818 9.432H14.8118C14.7384 8.816 14.4744 8.30267 14.0198 7.892C13.5798 7.48133 12.9711 7.276 12.1938 7.276C11.5191 7.276 10.9544 7.43733 10.4998 7.76C10.0598 8.08267 9.72978 8.53 9.50978 9.102C9.28978 9.65933 9.17978 10.3047 9.17978 11.038C9.17978 11.742 9.28245 12.38 9.48778 12.952C9.70778 13.524 10.0378 13.9713 10.4778 14.294C10.9324 14.6167 11.5118 14.778 12.2158 14.778C12.7438 14.778 13.1984 14.6827 13.5798 14.492C13.9611 14.3013 14.2618 14.0373 14.4818 13.7C14.7164 13.3627 14.8631 12.9813 14.9218 12.556H17.8918C17.8331 13.524 17.5471 14.3747 17.0338 15.108C16.5351 15.8267 15.8678 16.3913 15.0318 16.802C14.2104 17.2127 13.2718 17.418 12.2158 17.418ZM26.0835 17.418C25.0275 17.418 24.0962 17.2493 23.2895 16.912C22.4828 16.5747 21.8008 16.12 21.2435 15.548C20.6862 14.9613 20.2608 14.3013 19.9675 13.568C19.6888 12.8347 19.5495 12.072 19.5495 11.28V10.818C19.5495 9.99667 19.6962 9.21933 19.9895 8.486C20.2975 7.738 20.7302 7.078 21.2875 6.506C21.8595 5.91933 22.5488 5.46467 23.3555 5.142C24.1622 4.80467 25.0715 4.636 26.0835 4.636C27.0955 4.636 28.0048 4.80467 28.8115 5.142C29.6182 5.46467 30.3002 5.91933 30.8575 6.506C31.4295 7.078 31.8622 7.738 32.1555 8.486C32.4488 9.21933 32.5955 9.99667 32.5955 10.818V11.28C32.5955 12.072 32.4488 12.8347 32.1555 13.568C31.8768 14.3013 31.4588 14.9613 30.9015 15.548C30.3442 16.12 29.6622 16.5747 28.8555 16.912C28.0488 17.2493 27.1248 17.418 26.0835 17.418ZM26.0835 14.8C26.8315 14.8 27.4622 14.6387 27.9755 14.316C28.4888 13.9787 28.8775 13.5313 29.1415 12.974C29.4055 12.402 29.5375 11.7567 29.5375 11.038C29.5375 10.3047 29.3982 9.65933 29.1195 9.102C28.8555 8.53 28.4595 8.08267 27.9315 7.76C27.4182 7.42267 26.8022 7.254 26.0835 7.254C25.3648 7.254 24.7415 7.42267 24.2135 7.76C23.7002 8.08267 23.3042 8.53 23.0255 9.102C22.7468 9.65933 22.6075 10.3047 22.6075 11.038C22.6075 11.7567 22.7395 12.402 23.0035 12.974C23.2822 13.5313 23.6782 13.9787 24.1915 14.316C24.7048 14.6387 25.3355 14.8 26.0835 14.8ZM35.2732 17V5.054H37.6932V10.18H37.4732C37.4732 8.96267 37.6345 7.95067 37.9572 7.144C38.2798 6.32267 38.7565 5.70667 39.3872 5.296C40.0325 4.88533 40.8318 4.68 41.7852 4.68H41.9172C43.3398 4.68 44.4178 5.142 45.1512 6.066C45.8845 6.97533 46.2512 8.33933 46.2512 10.158V17H43.1932V9.894C43.1932 9.16067 42.9805 8.56667 42.5552 8.112C42.1445 7.65733 41.5725 7.43 40.8392 7.43C40.0912 7.43 39.4825 7.66467 39.0132 8.134C38.5585 8.58867 38.3312 9.20467 38.3312 9.982V17H35.2732ZM53.8728 17.374C52.2301 17.374 50.9394 17.0293 50.0008 16.34C49.0768 15.636 48.5928 14.668 48.5488 13.436H51.2988C51.3428 13.8467 51.5701 14.2207 51.9808 14.558C52.3914 14.8953 53.0368 15.064 53.9168 15.064C54.6501 15.064 55.2294 14.932 55.6548 14.668C56.0948 14.404 56.3148 14.0447 56.3148 13.59C56.3148 13.194 56.1461 12.8787 55.8088 12.644C55.4861 12.4093 54.9288 12.2553 54.1368 12.182L53.0808 12.072C51.7461 11.9253 50.7194 11.544 50.0008 10.928C49.2821 10.312 48.9228 9.49067 48.9228 8.464C48.9228 7.64267 49.1281 6.95333 49.5388 6.396C49.9494 5.83867 50.5141 5.42067 51.2328 5.142C51.9661 4.84867 52.8021 4.702 53.7408 4.702C55.2074 4.702 56.3954 5.02467 57.3048 5.67C58.2141 6.31533 58.6908 7.26133 58.7348 8.508H55.9848C55.9554 8.09733 55.7501 7.74533 55.3688 7.452C54.9874 7.15867 54.4374 7.012 53.7188 7.012C53.0734 7.012 52.5748 7.13667 52.2228 7.386C51.8708 7.63533 51.6948 7.958 51.6948 8.354C51.6948 8.73533 51.8341 9.02867 52.1128 9.234C52.4061 9.43933 52.8754 9.57867 53.5208 9.652L54.5768 9.762C55.9848 9.90867 57.0848 10.2973 57.8768 10.928C58.6834 11.5587 59.0868 12.4093 59.0868 13.48C59.0868 14.272 58.8668 14.9613 58.4268 15.548C58.0014 16.12 57.4001 16.5673 56.6228 16.89C55.8454 17.2127 54.9288 17.374 53.8728 17.374ZM69.335 17.418C67.9563 17.418 66.739 17.1907 65.683 16.736C64.6417 16.2667 63.7617 15.6433 63.043 14.866C62.339 14.074 61.8037 13.1867 61.437 12.204C61.085 11.2067 60.909 10.1727 60.909 9.102V8.618C60.909 7.606 61.085 6.616 61.437 5.648C61.789 4.68 62.3023 3.80733 62.977 3.03C63.6663 2.25267 64.5097 1.63667 65.507 1.182C66.519 0.712666 67.6777 0.477999 68.983 0.477999C70.391 0.477999 71.6377 0.741999 72.723 1.27C73.8083 1.78333 74.681 2.50933 75.341 3.448C76.001 4.372 76.3897 5.45 76.507 6.682H73.361C73.2583 5.99267 73.0017 5.406 72.591 4.922C72.1803 4.42333 71.6597 4.042 71.029 3.778C70.413 3.514 69.731 3.382 68.983 3.382C68.235 3.382 67.553 3.514 66.937 3.778C66.3357 4.042 65.8223 4.416 65.397 4.9C64.9717 5.384 64.6417 5.96333 64.407 6.638C64.187 7.31267 64.077 8.06067 64.077 8.882C64.077 9.77667 64.2017 10.576 64.451 11.28C64.7003 11.984 65.0523 12.5853 65.507 13.084C65.9617 13.568 66.5117 13.942 67.157 14.206C67.8023 14.4553 68.5283 14.58 69.335 14.58C70.4057 14.58 71.3443 14.36 72.151 13.92C72.9577 13.4653 73.5443 12.8787 73.911 12.16L73.361 14.69V10.554H76.243V14.118C75.5537 15.1593 74.615 15.9733 73.427 16.56C72.239 17.132 70.875 17.418 69.335 17.418ZM68.829 11.17V8.838H77.585V11.17H68.829ZM83.9877 17.374C82.609 17.374 81.5384 16.9193 80.7757 16.01C80.0277 15.1007 79.6537 13.7513 79.6537 11.962V5.032H82.7117V12.226C82.7117 12.9593 82.917 13.546 83.3277 13.986C83.7384 14.4113 84.2957 14.624 84.9997 14.624C85.7037 14.624 86.2757 14.3967 86.7157 13.942C87.1704 13.4873 87.3977 12.8713 87.3977 12.094V5.032H90.4557V17H88.0357V11.918H88.2777C88.2777 13.1207 88.1237 14.1253 87.8157 14.932C87.5077 15.7387 87.0457 16.3473 86.4297 16.758C85.8137 17.1687 85.0437 17.374 84.1197 17.374H83.9877ZM93.9685 17V5.054H96.3885V10.114H96.3225C96.3225 8.398 96.6891 7.1 97.4225 6.22C98.1558 5.34 99.2338 4.9 100.656 4.9H101.096V7.562H100.26C99.2338 7.562 98.4345 7.84067 97.8625 8.398C97.3051 8.94067 97.0265 9.73267 97.0265 10.774V17H93.9685ZM107.212 17.374C105.834 17.374 104.763 16.9193 104 16.01C103.252 15.1007 102.878 13.7513 102.878 11.962V5.032H105.936V12.226C105.936 12.9593 106.142 13.546 106.552 13.986C106.963 14.4113 107.52 14.624 108.224 14.624C108.928 14.624 109.5 14.3967 109.94 13.942C110.395 13.4873 110.622 12.8713 110.622 12.094V5.032H113.68V17H111.26V11.918H111.502C111.502 13.1207 111.348 14.1253 111.04 14.932C110.732 15.7387 110.27 16.3473 109.654 16.758C109.038 17.1687 108.268 17.374 107.344 17.374H107.212Z" fill="white"/>
</svg>
