<svg width="260" height="178" viewBox="0 0 260 178" fill="none" xmlns="http://www.w3.org/2000/svg">
<path d="M249.002 132.838H249.996C250.549 132.838 250.996 132.391 250.996 131.838V130.784C250.996 130.232 250.549 129.784 249.996 129.784H242.893M249.002 132.838V149.358M249.002 132.838H215.464M249.002 149.358H215.464M249.002 149.358V164.316C249.002 164.868 248.554 165.316 248.002 165.316H216.464C215.912 165.316 215.464 164.868 215.464 164.316V149.358M215.464 149.358V132.838M215.464 132.838H214.719C214.166 132.838 213.719 132.391 213.719 131.839V130.784C213.719 130.232 214.166 129.784 214.719 129.784H234.726M226.81 136.267V137.948C226.81 138.5 227.257 138.948 227.81 138.948H236.719C237.271 138.948 237.719 138.5 237.719 137.948V136.267M226.81 152.35V154.405C226.81 154.957 227.257 155.405 227.81 155.405H236.719C237.271 155.405 237.719 154.957 237.719 154.405V152.35M234.726 129.784H242.893M234.726 129.784V124.922M242.893 129.784V124.922M234.726 124.922V124.114C234.726 123.562 235.174 123.114 235.726 123.114H241.893C242.445 123.114 242.893 123.562 242.893 124.114V124.922M234.726 124.922H242.893" stroke="black" stroke-linecap="round" stroke-linejoin="round"/>
<path d="M222.826 119.684H219.316C218.562 119.684 218.079 118.881 218.433 118.215L220.55 114.231C220.723 113.904 221.063 113.7 221.433 113.7H224.049C224.411 113.7 224.744 113.895 224.921 114.21L227.162 118.194C227.537 118.861 227.055 119.684 226.29 119.684H222.826ZM222.826 119.684V129.721" stroke="black" stroke-linecap="round" stroke-linejoin="round"/>
<path d="M215.408 139.57H205C204.448 139.57 204 140.018 204 140.57V154.157M215.408 165.377H205C204.448 165.377 204 164.93 204 164.377V154.157M204 154.157H215.408M207.865 144.058V144.058C207.865 144.609 208.311 145.056 208.862 145.056H209.86C210.411 145.056 210.857 144.609 210.857 144.058V144.058M207.865 158.458V158.642C207.865 159.195 208.313 159.642 208.865 159.642H209.857C210.409 159.642 210.857 159.195 210.857 158.642V158.458" stroke="black" stroke-linecap="round" stroke-linejoin="round"/>
<path d="M205.556 139.508L204.8 132.322C204.738 131.732 205.201 131.217 205.794 131.217H206.647M209.733 139.508L210.383 132.307C210.435 131.722 209.974 131.217 209.387 131.217H208.611M208.611 131.217L210.481 124.859M208.611 131.217H206.647M206.647 131.217L204.995 126.417" stroke="black" stroke-linecap="round" stroke-linejoin="round"/>
<path d="M107.899 129.926V147.343M107.899 147.343H143.334M107.899 147.343H104.756C104.536 147.343 104.322 147.419 104.166 147.574C103.108 148.621 101.597 150.965 102.099 153.867C102.17 154.275 102.54 154.55 102.954 154.55H106.698M143.334 129.926V147.343M143.334 147.343H146.393C146.59 147.343 146.784 147.404 146.932 147.535C147.957 148.44 149.421 150.649 148.886 153.846C148.816 154.263 148.442 154.55 148.019 154.55H144.054M106.698 154.55V163.679M106.698 154.55H144.054M144.054 154.55V163.679M104.416 134.01H146.697M104.416 140.737H146.697" stroke="black" stroke-linecap="round" stroke-linejoin="round"/>
<path d="M45.7857 138.53H48.5C48.7761 138.53 49 138.306 49 138.03V132.482C49 132.206 48.7761 131.982 48.5 131.982H9.50031C9.22417 131.982 9.00031 132.206 9.00031 132.482V138.03C9.00031 138.306 9.22417 138.53 9.50031 138.53H12.4527M45.7857 138.53H29.0002M45.7857 138.53V149.601M29.0002 138.53V149.601M29.0002 138.53H16.5003M45.7857 149.601V161.244C45.7857 161.52 45.5619 161.744 45.2857 161.744H29.5002C29.224 161.744 29.0002 161.52 29.0002 161.244V149.601M45.7857 149.601H29.0002M12.4527 138.53V161.244C12.4527 161.52 12.6765 161.744 12.9527 161.744H16.0002C16.2764 161.744 16.5003 161.52 16.5003 161.244V138.53M12.4527 138.53H16.5003M39.4763 143.768H35.4287M39.4763 155.077H35.4287" stroke="black" stroke-linecap="round" stroke-linejoin="round"/>
<path d="M208.101 76.1442H205.98C205.439 76.1442 205 75.7057 205 75.1647V71.6111C205 71.0701 205.439 70.6316 205.98 70.6316H250.017C250.558 70.6316 250.996 71.0701 250.996 71.6111V75.1647C250.996 75.7057 250.558 76.1442 250.017 76.1442H248.326M208.101 76.1442V99.8855C208.101 100.427 208.539 100.865 209.08 100.865H210.927C211.427 100.865 211.846 100.489 211.901 99.9932L213.689 83.8208C213.744 83.3245 214.164 82.9489 214.663 82.9489H240.955C241.432 82.9489 241.839 83.2919 241.92 83.7614L244.74 100.053C244.821 100.522 245.229 100.865 245.705 100.865H247.346C247.887 100.865 248.326 100.427 248.326 99.8855V76.1442M208.101 76.1442H248.326" stroke="black"/>
<path d="M103.494 76.4416H102C101.448 76.4416 101 75.9938 101 75.4416V71C101 70.4477 101.448 70 102 70H148C148.552 70 149 70.4477 149 71V75.4416C149 75.9938 148.552 76.4416 148 76.4416H146.299M103.494 76.4416H146.299M103.494 76.4416V86.7273M146.299 76.4416V86.7273M146.299 86.7273V96.013C146.299 96.5653 145.851 97.013 145.299 97.013H136.532M146.299 86.7273H103.494M103.494 86.7273V96.013C103.494 96.5653 103.941 97.013 104.494 97.013H114.506M114.506 97.013L107.857 101.169M114.506 97.013H136.532M136.532 97.013L142.974 101.169" stroke="black" stroke-linecap="round"/>
<circle cx="123.688" cy="79.9739" r="1.37528" fill="black"/>
<circle cx="123.688" cy="90.8273" r="1.37528" fill="black"/>
<path d="M11.6443 67.8969L10.1757 65.7326C9.67578 64.9959 10.2035 64 11.0939 64H43.6911C44.543 64 45.0771 64.9204 44.6544 65.6601L43.3763 67.8969M11.6443 67.8969V92.8093M11.6443 67.8969H27.5103M43.3763 67.8969V92.8093M43.3763 67.8969H27.5103M12.8969 99.2113H12.7577C12.3866 99.2113 11.6443 98.8495 11.6443 97.402V92.8093M12.8969 99.2113V103.39C12.8969 104.003 13.3937 104.5 14.0065 104.5H14.8672C15.3513 104.5 15.7795 104.186 15.9253 103.725L17.3505 99.2113M12.8969 99.2113H17.3505M17.3505 99.2113H37.6701M41.7062 99.2113H42.1237C43.2371 99.2113 43.4227 98.0051 43.3763 97.402V92.8093M41.7062 99.2113V103.39C41.7062 104.003 41.2094 104.5 40.5966 104.5H40.1534C39.6693 104.5 39.2411 104.186 39.0953 103.725L37.6701 99.2113M41.7062 99.2113H37.6701M43.3763 92.8093H27.5103M11.6443 92.8093H27.5103M27.5103 92.8093V67.8969" stroke="black"/>
<path d="M25.4211 78.0559H23.4727V82.3703H25.4211" stroke="black" stroke-linecap="round"/>
<path d="M29.3211 78.0559H31.2695V82.3703H29.3211" stroke="black" stroke-linecap="round"/>
<path d="M211 9H215.325M250.037 9H245.484M215.325 9H245.484M215.325 9V25.9576M215.325 42.9152V34.4364M245.484 9V25.9576M245.484 42.9152V34.4364M215.325 25.9576H245.484M215.325 25.9576V34.4364M245.484 25.9576V34.4364M215.325 34.4364H245.484M226.478 14.8043V18.7876H234.217V14.8043" stroke="black" stroke-linecap="round" stroke-linejoin="round"/>
<path d="M124 29.0894H111.283C110.607 29.0894 110.09 28.4887 110.19 27.8205L113.457 5.94224C113.538 5.40074 114.003 5 114.55 5H133.299C133.844 5 134.308 5.39695 134.392 5.9353L137.801 27.8136C137.906 28.484 137.387 29.0894 136.709 29.0894H124ZM124 29.0894V46.6089M124 46.6089H117.196M124 46.6089H131.43" stroke="black" stroke-linecap="round"/>
<path d="M25.5217 13.4316L19.913 8.73237M25.5217 13.4316L20.543 24.3309C20.233 25.0097 19.3493 25.1855 18.803 24.6772L10.0433 16.5258C9.51651 16.0356 9.5985 15.179 10.2087 14.7975L19.913 8.73237M25.5217 13.4316C26.762 12.6271 27.5252 11.7904 27.9481 10.9758M19.913 8.73237C20.823 6.76176 23.2484 3.27524 26.7348 6.00381C27.8317 6.86229 29.0553 8.84352 27.9481 10.9758M27.9481 10.9758C31.7378 12.5018 38.7714 17.585 36.5886 25.7101L31.4339 39.6561M31.4339 39.6561H20.9731C20.8734 39.6561 20.7745 39.6686 20.6799 39.6999C19.4438 40.1092 16.8671 41.7148 16.8318 45.344C16.8264 45.9025 17.3049 46.326 17.8635 46.326H34.9648C35.538 46.326 36.0223 45.8809 36.006 45.308C35.888 41.1392 32.9817 39.7969 31.4339 39.6561Z" stroke="black" stroke-linejoin="round"/>
</svg>
