<svg width="260" height="178" viewBox="0 0 260 178" fill="none" xmlns="http://www.w3.org/2000/svg">
<mask id="path-1-inside-1_2782_41" fill="white">
<rect x="14.4141" y="17.8584" width="36.0396" height="28.2663" rx="1.76665"/>
</mask>
<rect x="14.4141" y="17.8584" width="36.0396" height="28.2663" rx="1.76665" stroke="#110638" stroke-width="3.9087" stroke-linecap="round" stroke-linejoin="round" mask="url(#path-1-inside-1_2782_41)"/>
<path d="M44.801 41.3555H20.5959C20.0495 41.3555 19.7099 40.762 19.9865 40.2909L25.2206 31.3788C25.5082 30.8892 26.2265 30.9215 26.469 31.4349L28.335 35.3864C28.5765 35.8978 29.291 35.9324 29.5808 35.4468L34.8366 26.6398C35.1094 26.1826 35.7707 26.1799 36.0472 26.6349L40.4564 33.8887C40.6914 34.2753 41.224 34.3446 41.55 34.031L44.3112 31.376C44.7602 30.9443 45.5077 31.2625 45.5077 31.8854V40.6488C45.5077 41.0391 45.1913 41.3555 44.801 41.3555Z" stroke="#FF7A55" stroke-width="1.95435" stroke-linecap="round" stroke-linejoin="round"/>
<circle cx="26.0725" cy="25.2776" r="2.20279" stroke="#FF7A55" stroke-width="1.95435" stroke-linecap="round" stroke-linejoin="round"/>
<path d="M41.9027 15.4401V12.7901C41.9027 11.8144 41.1118 11.0234 40.1361 11.0234H9.21977C8.24408 11.0234 7.45312 11.8144 7.45312 12.7901V37.3465C7.45312 38.3222 8.24408 39.1131 9.21977 39.1131H11.6931" stroke="#110638" stroke-width="1.95435" stroke-linecap="round" stroke-linejoin="round"/>
<path fill-rule="evenodd" clip-rule="evenodd" d="M114.354 9.07422C114.854 9.07422 115.261 9.48029 115.261 9.9812V12.477H143.25V9.9812C143.25 9.48029 143.656 9.07422 144.157 9.07422C144.657 9.07422 145.064 9.48029 145.064 9.9812V12.477H147.639C148.14 12.477 148.546 12.883 148.546 13.3839C148.546 13.8848 148.14 14.2909 147.639 14.2909H145.064V42.8575H147.639C148.14 42.8575 148.546 43.2636 148.546 43.7645C148.546 44.2654 148.14 44.6715 147.639 44.6715H145.064V47.1672C145.064 47.6682 144.657 48.0742 144.157 48.0742C143.656 48.0742 143.25 47.6682 143.25 47.1672V44.6715H115.261V47.1672C115.261 47.6682 114.854 48.0742 114.354 48.0742C113.853 48.0742 113.447 47.6682 113.447 47.1672V44.6715H111.36C110.859 44.6715 110.453 44.2654 110.453 43.7645C110.453 43.2636 110.859 42.8575 111.36 42.8575H113.447V14.2909H111.36C110.859 14.2909 110.453 13.8848 110.453 13.3839C110.453 12.883 110.859 12.477 111.36 12.477H113.447V9.9812C113.447 9.48029 113.853 9.07422 114.354 9.07422ZM115.261 14.2909V30.7164L121.862 24.1149L129.371 31.6234L134.569 26.4252L143.25 35.106V14.2909H115.261ZM143.25 37.6713L134.569 28.9905L130.653 32.906L135.21 37.4629C135.564 37.8171 135.564 38.3914 135.21 38.7456C134.856 39.0998 134.282 39.0998 133.927 38.7456L121.862 26.6802L115.261 33.2817V42.8575H143.25V37.6713Z" fill="#110638"/>
<path fill-rule="evenodd" clip-rule="evenodd" d="M137.231 22.0817C138.079 22.0817 138.767 21.3941 138.767 20.5457C138.767 19.6974 138.079 19.0098 137.231 19.0098C136.383 19.0098 135.695 19.6974 135.695 20.5457C135.695 21.3941 136.383 22.0817 137.231 22.0817ZM137.231 23.8957C139.081 23.8957 140.581 22.3959 140.581 20.5457C140.581 18.6956 139.081 17.1958 137.231 17.1958C135.381 17.1958 133.881 18.6956 133.881 20.5457C133.881 22.3959 135.381 23.8957 137.231 23.8957Z" fill="#2196F3"/>
<path fill-rule="evenodd" clip-rule="evenodd" d="M246.709 12.3773C246.049 12.0467 245.225 12.0466 244.666 12.1693C244.642 12.1746 244.617 12.1789 244.592 12.182L215.35 15.8621C214.899 15.9189 214.486 15.5989 214.429 15.1473C214.373 14.6956 214.693 14.2834 215.144 14.2266L244.351 10.5509C245.153 10.3827 246.366 10.3623 247.447 10.9032C248.61 11.4852 249.485 12.6519 249.588 14.5684L252.463 35.0952C252.66 36.0672 252.543 37.0288 251.753 37.8652C251.031 38.6297 249.821 39.2012 248.104 39.7062C247.667 39.8347 247.209 39.5848 247.08 39.1481C246.952 38.7114 247.202 38.2533 247.639 38.1248C249.303 37.6352 250.149 37.1624 250.554 36.7333C250.884 36.3842 250.971 36.0135 250.844 35.4035C250.84 35.3857 250.837 35.3678 250.835 35.3497L247.95 14.7609C247.947 14.7359 247.944 14.7108 247.943 14.6857C247.876 13.2834 247.297 12.6715 246.709 12.3773ZM243.693 19.3549C243.313 19.0383 242.833 18.9406 242.53 18.9514C242.52 18.9518 242.51 18.9519 242.5 18.9519H222.011C221.556 18.9519 221.187 18.5829 221.187 18.1277C221.187 17.6725 221.556 17.3035 222.011 17.3035H242.487C243.111 17.2848 244.004 17.4679 244.749 18.0892C245.534 18.744 246.053 19.8015 246.01 21.3225V43.2919C246.01 43.7653 245.881 44.4599 245.475 45.0727C245.043 45.7236 244.315 46.2494 243.238 46.3033C243.224 46.304 243.21 46.3043 243.196 46.3043H238.621C238.166 46.3043 237.797 45.9353 237.797 45.4801C237.797 45.0249 238.166 44.6559 238.621 44.6559H243.174C243.676 44.6258 243.938 44.408 244.101 44.1618C244.291 43.8744 244.361 43.5147 244.361 43.2919V35.179L234.543 25.3606L225.563 34.3402L228.263 37.0397C228.585 37.3616 228.585 37.8835 228.263 38.2053C227.941 38.5272 227.419 38.5272 227.097 38.2053L218.132 29.2396L210.203 37.1682V42.8941C210.203 42.9124 210.202 42.9306 210.201 42.9489C210.174 43.3539 210.233 43.9454 210.454 44.3991C210.649 44.8028 210.936 45.0538 211.468 45.0538H232.753C233.208 45.0538 233.577 45.4228 233.577 45.878C233.577 46.3332 233.208 46.7022 232.753 46.7022H211.468C210.17 46.7022 209.378 45.9585 208.971 45.1189C208.594 44.3421 208.52 43.458 208.555 42.8682V20.2165C208.555 19.1378 209.045 18.385 209.675 17.9231C210.267 17.4885 210.956 17.327 211.428 17.3045C211.441 17.3038 211.455 17.3035 211.468 17.3035H219.524C219.979 17.3035 220.348 17.6725 220.348 18.1277C220.348 18.5829 219.979 18.9519 219.524 18.9519H211.49C211.266 18.966 210.92 19.0539 210.65 19.2524C210.409 19.4287 210.203 19.7037 210.203 20.2165V34.837L217.549 27.4912C217.703 27.3367 217.913 27.2498 218.132 27.2498C218.35 27.2498 218.56 27.3367 218.714 27.4912L224.398 33.1746L233.96 23.6122C234.282 23.2903 234.804 23.2903 235.126 23.6122L244.361 32.8478V21.3105C244.361 21.3022 244.362 21.2939 244.362 21.2856C244.395 20.1877 244.036 19.6414 243.693 19.3549Z" fill="#110638"/>
<path fill-rule="evenodd" clip-rule="evenodd" d="M224.195 26.4257C225.042 26.4257 225.729 25.7388 225.729 24.8913C225.729 24.0439 225.042 23.3569 224.195 23.3569C223.347 23.3569 222.66 24.0439 222.66 24.8913C222.66 25.7388 223.347 26.4257 224.195 26.4257ZM224.195 28.0741C225.952 28.0741 227.377 26.6491 227.377 24.8913C227.377 23.1335 225.952 21.7085 224.195 21.7085C222.437 21.7085 221.012 23.1335 221.012 24.8913C221.012 26.6491 222.437 28.0741 224.195 28.0741Z" fill="#2196F3"/>
<path fill-rule="evenodd" clip-rule="evenodd" d="M44.3834 70.3536C44.7559 69.9811 45.3599 69.9811 45.7324 70.3536L50.4441 75.0653C50.8166 75.4378 50.8166 76.0418 50.4441 76.4143C50.0715 76.7869 49.4675 76.7869 49.095 76.4143L46.0118 73.3312V83.7328C46.0118 84.2596 45.5847 84.6867 45.0579 84.6867C44.5311 84.6867 44.104 84.2596 44.104 83.7328V73.3312L41.0208 76.4143C40.6483 76.7869 40.0443 76.7869 39.6717 76.4143C39.2992 76.0418 39.2992 75.4378 39.6717 75.0653L44.3834 70.3536ZM23.3962 70.8322C23.409 70.8317 23.4219 70.8314 23.4348 70.8314H37.2332C37.7601 70.8314 38.1871 71.2585 38.1871 71.7854C38.1871 72.3122 37.7601 72.7393 37.2332 72.7393H23.4552C22.583 72.7787 21.2645 73.122 20.2048 74.0053C19.1806 74.859 18.3242 76.2749 18.4144 78.6484C18.4148 78.6604 18.4151 78.6725 18.4151 78.6846V100.624L25.8387 95.6515C26.3835 95.2677 27.2865 94.8333 28.33 94.704C29.4065 94.5706 30.6718 94.7616 31.7916 95.7092C31.8189 95.7323 31.8449 95.7569 31.8695 95.783C32.214 96.1484 32.8791 96.5993 33.681 96.7104C34.4276 96.8138 35.4008 96.6399 36.4836 95.5857C36.4967 95.5729 36.5102 95.5605 36.524 95.5485L43.4783 89.5158C44.0373 88.9522 44.9644 88.3676 46.0651 88.2053C47.2439 88.0316 48.5575 88.3557 49.7017 89.5519C49.7091 89.5597 49.7164 89.5676 49.7236 89.5757L51.5921 91.6666V85.9203C51.5921 85.3935 52.0192 84.9664 52.5461 84.9664C53.0729 84.9664 53.5 85.3935 53.5 85.9203V102.411C53.5 104.886 52.4151 106.541 51.0254 107.553C49.6809 108.532 48.0949 108.885 47.0219 108.918C47.0123 108.918 47.0027 108.918 46.993 108.918H23.4568C21.0054 109.028 19.2942 107.959 18.1964 106.584C17.1261 105.243 16.6415 103.624 16.5135 102.521C16.5093 102.484 16.5072 102.448 16.5072 102.411V78.7023C16.4007 75.7685 17.492 73.7826 18.9832 72.5397C20.4346 71.33 22.1927 70.881 23.3962 70.8322ZM51.5921 94.5298L48.3124 90.8597C47.6093 90.1305 46.9216 90.0076 46.3434 90.0928C45.7049 90.1869 45.1316 90.5509 44.8176 90.875C44.7984 90.8949 44.7783 90.9138 44.7575 90.9319L37.7943 96.9723C36.3253 98.3924 34.7824 98.789 33.4193 98.6002C32.1364 98.4225 31.1122 97.7416 30.5237 97.1361C29.9028 96.628 29.2186 96.5164 28.5645 96.5974C27.8722 96.6832 27.2575 96.9841 26.9317 97.2153C26.9247 97.2203 26.9176 97.2252 26.9105 97.23L18.505 102.86C18.6791 103.638 19.051 104.597 19.6874 105.394C20.4567 106.358 21.6128 107.096 23.3894 107.011C23.4046 107.011 23.4197 107.01 23.4348 107.01H46.9778C47.756 106.984 48.9383 106.713 49.902 106.011C50.8261 105.338 51.5921 104.244 51.5921 102.411V94.5298Z" fill="#110638"/>
<path fill-rule="evenodd" clip-rule="evenodd" d="M28.9024 85.3584C30.2651 85.3584 31.3697 84.2538 31.3697 82.8912C31.3697 81.5286 30.2651 80.424 28.9024 80.424C27.5398 80.424 26.4352 81.5286 26.4352 82.8912C26.4352 84.2538 27.5398 85.3584 28.9024 85.3584ZM28.9024 87.2663C31.3187 87.2663 33.2775 85.3075 33.2775 82.8912C33.2775 80.4749 31.3187 78.5161 28.9024 78.5161C26.4861 78.5161 24.5273 80.4749 24.5273 82.8912C24.5273 85.3075 26.4861 87.2663 28.9024 87.2663Z" fill="#2196F3"/>
<path fill-rule="evenodd" clip-rule="evenodd" d="M117.598 72.1829H145.45C146.008 72.169 146.77 72.3591 147.402 72.9402C148.064 73.55 148.49 74.5012 148.49 75.8267V104.301C148.53 104.731 148.462 105.347 148.083 105.884C147.645 106.504 146.908 106.86 145.927 106.828H115.363C115.186 106.828 114.974 106.811 114.761 106.766C114.56 106.723 114.289 106.641 114.046 106.467C113.781 106.277 113.512 105.943 113.5 105.463C113.49 105.036 113.69 104.677 113.9 104.41L113.934 104.366L132.235 86.2027L132.26 86.1813C132.683 85.8192 133.402 85.3997 134.259 85.2745C135.16 85.1429 136.197 85.3433 137.105 86.2154L137.112 86.2218L145.757 94.8675C146.109 95.2194 146.109 95.79 145.757 96.142C145.405 96.4939 144.835 96.4939 144.483 96.142L135.851 87.5098C135.39 87.0707 134.932 86.9978 134.52 87.058C134.078 87.1224 133.678 87.3479 133.456 87.5312L115.829 105.025H145.96L145.976 105.026C146.236 105.036 146.387 104.994 146.467 104.958C146.542 104.924 146.583 104.884 146.611 104.844C146.682 104.744 146.709 104.579 146.694 104.461L146.687 104.406V75.8267C146.687 74.9032 146.404 74.4717 146.181 74.2667C145.933 74.0388 145.641 73.98 145.492 73.9848L145.477 73.9853H117.512L117.467 73.9808C117.144 73.9484 116.694 74.0078 116.378 74.2149C116.138 74.3724 115.859 74.6826 115.919 75.485L115.921 75.5186V98.6587C115.921 99.1564 115.518 99.5599 115.02 99.5599C114.522 99.5599 114.119 99.1564 114.119 98.6587V75.5844C114.026 74.2116 114.556 73.2538 115.39 72.7074C116.134 72.2196 117.008 72.1328 117.598 72.1829ZM115.273 105.588C115.273 105.588 115.274 105.586 115.276 105.582C115.274 105.586 115.273 105.588 115.273 105.588Z" fill="#110638"/>
<path fill-rule="evenodd" clip-rule="evenodd" d="M123.792 83.212C124.842 83.212 125.692 82.3613 125.692 81.3119C125.692 80.2625 124.842 79.4118 123.792 79.4118C122.743 79.4118 121.892 80.2625 121.892 81.3119C121.892 82.3613 122.743 83.212 123.792 83.212ZM123.792 85.0144C125.837 85.0144 127.495 83.3567 127.495 81.3119C127.495 79.267 125.837 77.6094 123.792 77.6094C121.748 77.6094 120.09 79.267 120.09 81.3119C120.09 83.3567 121.748 85.0144 123.792 85.0144Z" fill="#FFC107"/>
<path fill-rule="evenodd" clip-rule="evenodd" d="M241.523 72.9646H210.477C209.918 72.9646 209.465 73.418 209.465 73.9774V105.023C209.465 105.582 209.918 106.035 210.477 106.035H241.523C242.082 106.035 242.535 105.582 242.535 105.023V73.9774C242.535 73.418 242.082 72.9646 241.523 72.9646ZM210.477 72C209.385 72 208.5 72.8853 208.5 73.9774V105.023C208.5 106.115 209.385 107 210.477 107H241.523C242.615 107 243.5 106.115 243.5 105.023V73.9774C243.5 72.8853 242.615 72 241.523 72H210.477Z" fill="#110638"/>
<path fill-rule="evenodd" clip-rule="evenodd" d="M210.479 103.045C210.479 104.137 211.364 105.022 212.456 105.022H239.546C240.638 105.022 241.524 104.137 241.524 103.045V75.9545C241.524 74.8624 240.638 73.9771 239.546 73.9771H212.456C211.364 73.9771 210.479 74.8624 210.479 75.9544V103.045ZM240.559 87.2445V75.9545C240.559 75.3951 240.106 74.9416 239.546 74.9416H212.456C211.897 74.9416 211.443 75.3951 211.443 75.9544V91.4124L215.858 86.9975C216.818 86.037 218.376 86.037 219.336 86.9975L224.478 92.1388C224.758 92.4192 225.138 92.5767 225.535 92.5767H234.801C235.067 92.5767 235.283 92.7926 235.283 93.059C235.283 93.3253 235.067 93.5413 234.801 93.5413H225.535C224.883 93.5413 224.257 93.2821 223.796 92.8208L218.654 87.6796C218.07 87.0957 217.124 87.0957 216.54 87.6796L211.443 92.7765V103.045C211.443 103.604 211.897 104.058 212.456 104.058H239.546C240.106 104.058 240.559 103.604 240.559 103.045V88.6173L233.281 81.2468C232.57 80.6085 231.785 80.4572 231.089 80.5298C230.38 80.6037 229.783 80.9083 229.493 81.1535L222.387 88.2588C222.199 88.4471 221.894 88.4471 221.705 88.2588C221.517 88.0704 221.517 87.765 221.705 87.5767L228.824 80.4581C228.832 80.4498 228.841 80.4418 228.85 80.4341C229.289 80.0549 230.079 79.6653 230.989 79.5705C231.917 79.4737 232.99 79.6832 233.938 80.5403C233.941 80.5436 233.945 80.547 233.948 80.5504C233.951 80.5532 233.954 80.5561 233.957 80.5591L240.559 87.2445ZM228.386 95.4319C228.386 95.1655 228.602 94.9496 228.868 94.9496H237.569C237.835 94.9496 238.051 95.1655 238.051 95.4319C238.051 95.6982 237.835 95.9141 237.569 95.9141H228.868C228.602 95.9141 228.386 95.6982 228.386 95.4319ZM227.002 97.4093C227.002 97.1429 227.218 96.927 227.484 96.927H234.405C234.671 96.927 234.887 97.1429 234.887 97.4093C234.887 97.6756 234.671 97.8915 234.405 97.8915H227.484C227.218 97.8915 227.002 97.6756 227.002 97.4093ZM225.123 99.3867C225.123 99.1203 225.339 98.9044 225.606 98.9044H229.165C229.431 98.9044 229.647 99.1203 229.647 99.3867C229.647 99.653 229.431 99.8689 229.165 99.8689H225.606C225.339 99.8689 225.123 99.653 225.123 99.3867Z" fill="#FF7A55"/>
<path fill-rule="evenodd" clip-rule="evenodd" d="M215.915 79.7364C216.311 79.7364 216.631 79.4157 216.631 79.0201C216.631 78.6246 216.311 78.3039 215.915 78.3039C215.52 78.3039 215.199 78.6246 215.199 79.0201C215.199 79.4157 215.52 79.7364 215.915 79.7364ZM215.915 80.7009C216.843 80.7009 217.596 79.9484 217.596 79.0201C217.596 78.0919 216.843 77.3394 215.915 77.3394C214.987 77.3394 214.234 78.0919 214.234 79.0201C214.234 79.9484 214.987 80.7009 215.915 80.7009Z" fill="#110638"/>
<path fill-rule="evenodd" clip-rule="evenodd" d="M34.6526 142.21L42.6478 150.205L41.6804 151.173L34.6649 144.157L24.4063 154.679L17.1329 146.967L9.2623 154.838L8.29492 153.87L17.1616 145.004L24.4227 152.702L34.6526 142.21Z" fill="#110638"/>
<path fill-rule="evenodd" clip-rule="evenodd" d="M11.805 132.294H39.123C40.3017 132.294 41.2572 133.249 41.2572 134.428V151.07C41.7022 150.979 42.1591 150.922 42.6253 150.899V134.428C42.6253 132.494 41.0572 130.926 39.123 130.926H11.805C9.87077 130.926 8.30273 132.494 8.30273 134.428V161.746C8.30273 163.68 9.87077 165.248 11.805 165.248H35.7956C35.48 164.82 35.2015 164.362 34.9647 163.88H11.805C10.6263 163.88 9.67082 162.925 9.67082 161.746V134.428C9.67082 133.249 10.6263 132.294 11.805 132.294Z" fill="#110638"/>
<path d="M27.0392 142.133C27.0392 143.681 25.7848 144.935 24.2374 144.935C22.69 144.935 21.4355 143.681 21.4355 142.133C21.4355 140.586 22.69 139.332 24.2374 139.332C25.7848 139.332 27.0392 140.586 27.0392 142.133Z" fill="#110638"/>
<path fill-rule="evenodd" clip-rule="evenodd" d="M43.0614 167.558C47.2866 167.558 50.7117 164.133 50.7117 159.908C50.7117 155.682 47.2866 152.257 43.0614 152.257C38.8362 152.257 35.4111 155.682 35.4111 159.908C35.4111 164.133 38.8362 167.558 43.0614 167.558ZM43.0614 168.926C48.0421 168.926 52.0798 164.888 52.0798 159.908C52.0798 154.927 48.0421 150.889 43.0614 150.889C38.0807 150.889 34.043 154.927 34.043 159.908C34.043 164.888 38.0807 168.926 43.0614 168.926Z" fill="#FFC107"/>
<path fill-rule="evenodd" clip-rule="evenodd" d="M42.9811 154.666C43.1172 154.666 43.2477 154.72 43.3439 154.816L47.1089 158.581C47.3092 158.782 47.3092 159.106 47.1089 159.307C46.9085 159.507 46.5837 159.507 46.3833 159.307L43.4942 156.418V164.898C43.4942 165.181 43.2645 165.411 42.9811 165.411C42.6978 165.411 42.4681 165.181 42.4681 164.898V156.418L39.5789 159.307C39.3786 159.507 39.0537 159.507 38.8534 159.307C38.653 159.106 38.653 158.782 38.8534 158.581L42.6184 154.816C42.7146 154.72 42.8451 154.666 42.9811 154.666Z" fill="#FFC107"/>
<path d="M112.834 150.783C114.725 154.295 120.583 159.534 131.174 153.915C135.767 151.477 144.881 144.029 149.852 151.234M112.834 157.253C115.656 160.81 122.979 164.451 133.156 158.057C137.569 155.284 146.34 149.177 149.852 156.652" stroke="#2196F3" stroke-width="1.80575"/>
<rect x="112.983" y="133.177" width="36.7398" height="33.4977" rx="2.69951" stroke="#110638" stroke-width="1.80575"/>
<circle cx="122.977" cy="143.351" r="3.32993" stroke="#2196F3" stroke-width="1.80575"/>
<path d="M243.973 154.728V151.793M210.625 163.596V159.263M210.625 159.263V133.119C210.625 131.94 211.581 130.984 212.759 130.984H241.839C243.017 130.984 243.973 131.94 243.973 133.119V151.793M210.625 159.263L218.466 149.854C219.27 148.89 220.728 148.824 221.615 149.711L223.37 151.467C224.261 152.357 225.725 152.287 226.526 151.316L232.401 144.195C233.18 143.25 234.592 143.153 235.493 143.983L243.973 151.793" stroke="#110638" stroke-width="1.91834" stroke-linecap="round" stroke-linejoin="round"/>
<circle cx="221.029" cy="141.122" r="1.70865" stroke="#110638" stroke-width="1.91834" stroke-linecap="round" stroke-linejoin="round"/>
<circle cx="238.903" cy="163.265" r="4.64326" stroke="#FFC107" stroke-width="1.91834" stroke-linecap="round" stroke-linejoin="round"/>
<path d="M218.891 163.532H233.564M244.235 163.532H251.705" stroke="#FFC107" stroke-width="1.91834" stroke-linecap="round" stroke-linejoin="round"/>
</svg>
