<svg width="260" height="178" viewBox="0 0 260 178" fill="none" xmlns="http://www.w3.org/2000/svg">
<path d="M245.471 153.115V150.258M213 161.75V157.531M213 157.531V132.074C213 130.926 213.93 129.996 215.078 129.996H243.393C244.541 129.996 245.471 130.926 245.471 132.074V150.258M213 157.531L220.635 148.369C221.417 147.431 222.837 147.366 223.701 148.23L225.41 149.94C226.277 150.807 227.703 150.738 228.483 149.793L234.203 142.859C234.962 141.939 236.337 141.845 237.214 142.653L245.471 150.258" stroke="#110638" stroke-width="1.86791" stroke-linecap="round" stroke-linejoin="round"/>
<circle cx="223.129" cy="139.866" r="1.66345" stroke="#110638" stroke-width="1.86791" stroke-linecap="round" stroke-linejoin="round"/>
<circle cx="240.535" cy="161.427" r="4.5212" stroke="#FFC107" stroke-width="1.86791" stroke-linecap="round" stroke-linejoin="round"/>
<path d="M221.049 161.688H235.336M245.727 161.688H253" stroke="#FFC107" stroke-width="1.86791" stroke-linecap="round" stroke-linejoin="round"/>
<path d="M113.732 147.389C115.525 150.717 121.076 155.682 131.112 150.357C135.464 148.047 144.1 140.989 148.811 147.817M113.732 153.521C116.406 156.89 123.346 160.341 132.989 154.282C137.171 151.655 145.482 145.867 148.811 152.95" stroke="#2196F3" stroke-width="1.71114"/>
<rect x="113.875" y="130.705" width="34.8149" height="31.7426" rx="2.55808" stroke="#110638" stroke-width="1.71114"/>
<circle cx="123.345" cy="140.347" r="3.15547" stroke="#2196F3" stroke-width="1.71114"/>
<mask id="path-8-inside-1_851_3635" fill="white">
<rect x="15.7617" y="16.6403" width="35.0128" height="27.4611" rx="1.71632"/>
</mask>
<rect x="15.7617" y="16.6403" width="35.0128" height="27.4611" rx="1.71632" stroke="#110638" stroke-width="3.79735" stroke-linecap="round" stroke-linejoin="round" mask="url(#path-8-inside-1_851_3635)"/>
<path d="M45.2833 39.4678H21.7677C21.237 39.4678 20.907 38.8913 21.1757 38.4336L26.2608 29.7754C26.5401 29.2997 27.238 29.3311 27.4735 29.8299L29.2863 33.6688C29.521 34.1657 30.2151 34.1993 30.4967 33.7275L35.6027 25.1714C35.8678 24.7273 36.5102 24.7246 36.7789 25.1667L41.0624 32.2138C41.2907 32.5893 41.8081 32.6567 42.1249 32.3521L44.8075 29.7727C45.2437 29.3533 45.9698 29.6624 45.9698 30.2676V38.7813C45.9698 39.1605 45.6625 39.4678 45.2833 39.4678Z" stroke="#FF7A55" stroke-width="1.89867" stroke-linecap="round" stroke-linejoin="round"/>
<circle cx="27.0894" cy="23.8482" r="2.14003" stroke="#FF7A55" stroke-width="1.89867" stroke-linecap="round" stroke-linejoin="round"/>
<path d="M42.4682 14.2908V11.7163C42.4682 10.7684 41.6997 10 40.7518 10H10.7163C9.76842 10 9 10.7684 9 11.7163V35.5731C9 36.521 9.76842 37.2894 10.7163 37.2894H13.1192" stroke="#110638" stroke-width="1.89867" stroke-linecap="round" stroke-linejoin="round"/>
<path fill-rule="evenodd" clip-rule="evenodd" d="M35.3577 140.284L43.3529 148.279L42.3855 149.247L35.37 142.231L25.1114 152.753L17.838 145.041L9.96738 152.912L9 151.945L17.8667 143.078L25.1278 150.776L35.3577 140.284Z" fill="#110638"/>
<path fill-rule="evenodd" clip-rule="evenodd" d="M12.5101 130.368H39.828C41.0067 130.368 41.9623 131.324 41.9623 132.502V149.144C42.4073 149.054 42.8642 148.996 43.3303 148.974V132.502C43.3303 130.568 41.7623 129 39.828 129H12.5101C10.5758 129 9.00781 130.568 9.00781 132.502V159.82C9.00781 161.754 10.5758 163.323 12.5101 163.323H36.5007C36.1851 162.894 35.9065 162.436 35.6697 161.954H12.5101C11.3314 161.954 10.3759 160.999 10.3759 159.82V132.502C10.3759 131.324 11.3314 130.368 12.5101 130.368Z" fill="#110638"/>
<path d="M27.7443 140.208C27.7443 141.755 26.4899 143.009 24.9425 143.009C23.3951 143.009 22.1406 141.755 22.1406 140.208C22.1406 138.66 23.3951 137.406 24.9425 137.406C26.4899 137.406 27.7443 138.66 27.7443 140.208Z" fill="#110638"/>
<path fill-rule="evenodd" clip-rule="evenodd" d="M43.7665 165.632C47.9916 165.632 51.4168 162.207 51.4168 157.982C51.4168 153.757 47.9916 150.331 43.7665 150.331C39.5413 150.331 36.1161 153.757 36.1161 157.982C36.1161 162.207 39.5413 165.632 43.7665 165.632ZM43.7665 167C48.7472 167 52.7849 162.962 52.7849 157.982C52.7849 153.001 48.7472 148.963 43.7665 148.963C38.7857 148.963 34.748 153.001 34.748 157.982C34.748 162.962 38.7857 167 43.7665 167Z" fill="#FFC107"/>
<path fill-rule="evenodd" clip-rule="evenodd" d="M43.6862 152.74C43.8223 152.74 43.9528 152.794 44.049 152.89L47.8139 156.655C48.0143 156.856 48.0143 157.181 47.8139 157.381C47.6136 157.581 47.2888 157.581 47.0884 157.381L44.1992 154.492V162.972C44.1992 163.255 43.9695 163.485 43.6862 163.485C43.4029 163.485 43.1732 163.255 43.1732 162.972V154.492L40.284 157.381C40.0837 157.581 39.7588 157.581 39.5585 157.381C39.3581 157.181 39.3581 156.856 39.5585 156.655L43.3234 152.89C43.4197 152.794 43.5501 152.74 43.6862 152.74Z" fill="#FFC107"/>
<path fill-rule="evenodd" clip-rule="evenodd" d="M115.924 6C116.425 6 116.831 6.40607 116.831 6.90698V9.40274H144.82V6.90698C144.82 6.40607 145.226 6 145.727 6C146.228 6 146.634 6.40607 146.634 6.90698V9.40274H149.209C149.71 9.40274 150.116 9.80881 150.116 10.3097C150.116 10.8106 149.71 11.2167 149.209 11.2167H146.634V39.7833H149.209C149.71 39.7833 150.116 40.1894 150.116 40.6903C150.116 41.1912 149.71 41.5973 149.209 41.5973H146.634V44.093C146.634 44.5939 146.228 45 145.727 45C145.226 45 144.82 44.5939 144.82 44.093V41.5973H116.831V44.093C116.831 44.5939 116.425 45 115.924 45C115.423 45 115.017 44.5939 115.017 44.093V41.5973H112.93C112.43 41.5973 112.023 41.1912 112.023 40.6903C112.023 40.1894 112.43 39.7833 112.93 39.7833H115.017V11.2167H112.93C112.43 11.2167 112.023 10.8106 112.023 10.3097C112.023 9.80881 112.43 9.40274 112.93 9.40274H115.017V6.90698C115.017 6.40607 115.423 6 115.924 6ZM116.831 11.2167V27.6422L123.432 21.0407L130.941 28.5492L136.139 23.351L144.82 32.0318V11.2167H116.831ZM144.82 34.5971L136.139 25.9163L132.224 29.8318L136.78 34.3887C137.135 34.7429 137.135 35.3172 136.78 35.6714C136.426 36.0256 135.852 36.0256 135.498 35.6714L123.432 23.606L116.831 30.2075V39.7833H144.82V34.5971Z" fill="#110638"/>
<path fill-rule="evenodd" clip-rule="evenodd" d="M138.799 19.0076C139.647 19.0076 140.335 18.32 140.335 17.4717C140.335 16.6233 139.647 15.9357 138.799 15.9357C137.951 15.9357 137.263 16.6233 137.263 17.4717C137.263 18.32 137.951 19.0076 138.799 19.0076ZM138.799 20.8216C140.649 20.8216 142.149 19.3218 142.149 17.4717C142.149 15.6215 140.649 14.1217 138.799 14.1217C136.949 14.1217 135.449 15.6215 135.449 17.4717C135.449 19.3218 136.949 20.8216 138.799 20.8216Z" fill="#2196F3"/>
<path fill-rule="evenodd" clip-rule="evenodd" d="M243.057 9.82493C242.433 9.51258 241.655 9.51248 241.127 9.62838C241.104 9.63344 241.081 9.63745 241.057 9.6404L213.428 13.1175C213.001 13.1712 212.612 12.8688 212.558 12.4421C212.504 12.0154 212.807 11.6259 213.234 11.5722L240.829 8.0993C241.586 7.94033 242.733 7.92108 243.754 8.43214C244.853 8.98211 245.68 10.0844 245.777 11.8951L248.494 31.2897C248.68 32.208 248.569 33.1166 247.822 33.9068C247.14 34.6292 245.997 35.1692 244.375 35.6464C243.962 35.7677 243.529 35.5316 243.408 35.119C243.287 34.7064 243.523 34.2735 243.935 34.1522C245.508 33.6896 246.307 33.2428 246.69 32.8374C247.002 32.5076 247.084 32.1573 246.964 31.581C246.96 31.5641 246.957 31.5472 246.955 31.5302L244.23 12.077C244.226 12.0535 244.224 12.0298 244.223 12.006C244.16 10.681 243.613 10.1029 243.057 9.82493ZM240.207 16.4176C239.849 16.1185 239.395 16.0262 239.108 16.0364C239.099 16.0367 239.09 16.0369 239.08 16.0369H219.721C219.291 16.0369 218.942 15.6883 218.942 15.2582C218.942 14.8281 219.291 14.4794 219.721 14.4794H239.068C239.657 14.4618 240.501 14.6347 241.205 15.2217C241.947 15.8405 242.437 16.8396 242.396 18.2767V39.0342C242.396 39.4815 242.275 40.1378 241.891 40.7168C241.483 41.3318 240.795 41.8286 239.777 41.8795C239.764 41.8801 239.751 41.8805 239.738 41.8805H235.415C234.985 41.8805 234.636 41.5318 234.636 41.1017C234.636 40.6716 234.985 40.323 235.415 40.323H239.717C240.191 40.2946 240.439 40.0888 240.593 39.8562C240.773 39.5846 240.839 39.2448 240.839 39.0342V31.3688L231.562 22.092L223.078 30.5763L225.628 33.1269C225.933 33.431 225.933 33.9241 225.628 34.2282C225.324 34.5323 224.831 34.5323 224.527 34.2282L216.056 25.7571L208.565 33.2483V38.6583C208.565 38.6756 208.564 38.6929 208.563 38.7101C208.538 39.0928 208.593 39.6517 208.802 40.0804C208.987 40.4617 209.257 40.6989 209.76 40.6989H229.871C230.301 40.6989 230.649 41.0475 230.649 41.4776C230.649 41.9077 230.301 42.2564 229.871 42.2564H209.76C208.533 42.2564 207.785 41.5538 207.4 40.7604C207.044 40.0265 206.974 39.1912 207.007 38.6339V17.2317C207.007 16.2126 207.471 15.5013 208.066 15.0648C208.626 14.6542 209.276 14.5016 209.723 14.4803C209.735 14.4797 209.747 14.4794 209.76 14.4794H217.372C217.802 14.4794 218.15 14.8281 218.15 15.2582C218.15 15.6883 217.802 16.0369 217.372 16.0369H209.781C209.569 16.0502 209.242 16.1332 208.987 16.3208C208.76 16.4874 208.565 16.7472 208.565 17.2317V31.0457L215.505 24.1052C215.651 23.9591 215.85 23.8771 216.056 23.8771C216.263 23.8771 216.461 23.9591 216.607 24.1052L221.977 29.475L231.012 20.4401C231.316 20.136 231.809 20.136 232.113 20.4401L240.839 29.1662V18.2654C240.839 18.2576 240.839 18.2497 240.839 18.2418C240.871 17.2045 240.532 16.6884 240.207 16.4176Z" fill="#110638"/>
<path fill-rule="evenodd" clip-rule="evenodd" d="M221.785 23.0986C222.585 23.0986 223.234 22.4495 223.234 21.6489C223.234 20.8482 222.585 20.1991 221.785 20.1991C220.984 20.1991 220.335 20.8482 220.335 21.6489C220.335 22.4495 220.984 23.0986 221.785 23.0986ZM221.785 24.6561C223.445 24.6561 224.792 23.3097 224.792 21.6489C224.792 19.988 223.445 18.6416 221.785 18.6416C220.124 18.6416 218.777 19.988 218.777 21.6489C218.777 23.3097 220.124 24.6561 221.785 24.6561Z" fill="#2196F3"/>
<path fill-rule="evenodd" clip-rule="evenodd" d="M118.098 67.0124H145.95C146.508 66.9986 147.27 67.1887 147.902 67.7698C148.564 68.3796 148.99 69.3308 148.99 70.6562V99.1308C149.03 99.5601 148.962 100.176 148.583 100.714C148.145 101.333 147.408 101.689 146.427 101.657H115.863C115.686 101.657 115.474 101.641 115.261 101.596C115.06 101.553 114.789 101.471 114.546 101.297C114.281 101.107 114.012 100.773 114 100.293C113.99 99.8659 114.19 99.5065 114.4 99.2395L114.434 99.1958L132.735 81.0323L132.76 81.0109C133.183 80.6487 133.902 80.2293 134.759 80.1041C135.66 79.9725 136.697 80.1729 137.605 81.045L137.612 81.0514L146.257 89.6971C146.609 90.049 146.609 90.6196 146.257 90.9716C145.905 91.3235 145.335 91.3235 144.983 90.9716L136.351 82.3394C135.89 81.9003 135.432 81.8274 135.02 81.8875C134.578 81.952 134.178 82.1775 133.956 82.3608L116.329 99.855H146.46L146.476 99.8556C146.736 99.8652 146.887 99.8231 146.967 99.7873C147.042 99.7536 147.083 99.7134 147.111 99.6741C147.182 99.5733 147.209 99.4089 147.194 99.291L147.187 99.2353V70.6562C147.187 69.7328 146.904 69.3013 146.681 69.0963C146.433 68.8683 146.141 68.8096 145.992 68.8144L145.977 68.8149H118.012L117.967 68.8104C117.644 68.778 117.194 68.8373 116.878 69.0445C116.638 69.202 116.359 69.5122 116.419 70.3146L116.421 70.3482V93.4883C116.421 93.986 116.018 94.3895 115.52 94.3895C115.022 94.3895 114.619 93.986 114.619 93.4883V70.414C114.526 69.0412 115.056 68.0833 115.89 67.537C116.634 67.0492 117.508 66.9624 118.098 67.0124ZM115.773 100.417C115.773 100.417 115.774 100.415 115.776 100.412C115.774 100.415 115.773 100.417 115.773 100.417Z" fill="#110638"/>
<path fill-rule="evenodd" clip-rule="evenodd" d="M124.292 78.0417C125.342 78.0417 126.192 77.191 126.192 76.1416C126.192 75.0922 125.342 74.2415 124.292 74.2415C123.243 74.2415 122.392 75.0922 122.392 76.1416C122.392 77.191 123.243 78.0417 124.292 78.0417ZM124.292 79.8441C126.337 79.8441 127.995 78.1864 127.995 76.1416C127.995 74.0968 126.337 72.4391 124.292 72.4391C122.248 72.4391 120.59 74.0968 120.59 76.1416C120.59 78.1864 122.248 79.8441 124.292 79.8441Z" fill="#FFC107"/>
<path fill-rule="evenodd" clip-rule="evenodd" d="M246.023 67.9646H214.977C214.418 67.9646 213.965 68.418 213.965 68.9774V100.023C213.965 100.582 214.418 101.035 214.977 101.035H246.023C246.582 101.035 247.035 100.582 247.035 100.023V68.9774C247.035 68.418 246.582 67.9646 246.023 67.9646ZM214.977 67C213.885 67 213 67.8853 213 68.9774V100.023C213 101.115 213.885 102 214.977 102H246.023C247.115 102 248 101.115 248 100.023V68.9774C248 67.8853 247.115 67 246.023 67H214.977Z" fill="#110638"/>
<path fill-rule="evenodd" clip-rule="evenodd" d="M214.979 98.0448C214.979 99.1369 215.864 100.022 216.956 100.022H244.046C245.138 100.022 246.024 99.1369 246.024 98.0448V70.9545C246.024 69.8624 245.138 68.9771 244.046 68.9771H216.956C215.864 68.9771 214.979 69.8624 214.979 70.9544V98.0448ZM245.059 82.2445V70.9545C245.059 70.3951 244.606 69.9416 244.046 69.9416H216.956C216.397 69.9416 215.943 70.3951 215.943 70.9544V86.4124L220.358 81.9975C221.318 81.037 222.876 81.037 223.836 81.9975L228.978 87.1388C229.258 87.4192 229.638 87.5767 230.035 87.5767H239.301C239.567 87.5767 239.783 87.7926 239.783 88.059C239.783 88.3253 239.567 88.5413 239.301 88.5413H230.035C229.383 88.5413 228.757 88.2821 228.296 87.8208L223.154 82.6796C222.57 82.0957 221.624 82.0957 221.04 82.6796L215.943 87.7765V98.0448C215.943 98.6042 216.397 99.0577 216.956 99.0577H244.046C244.606 99.0577 245.059 98.6042 245.059 98.0448V83.6173L237.781 76.2468C237.07 75.6085 236.285 75.4572 235.589 75.5298C234.88 75.6037 234.283 75.9083 233.993 76.1535L226.887 83.2588C226.699 83.4471 226.394 83.4471 226.205 83.2588C226.017 83.0704 226.017 82.765 226.205 82.5767L233.324 75.4581C233.332 75.4498 233.341 75.4418 233.35 75.4341C233.789 75.0549 234.579 74.6653 235.489 74.5705C236.417 74.4737 237.49 74.6832 238.438 75.5403C238.441 75.5436 238.445 75.547 238.448 75.5504C238.451 75.5532 238.454 75.5561 238.457 75.5591L245.059 82.2445ZM232.886 90.4319C232.886 90.1655 233.102 89.9496 233.368 89.9496H242.069C242.335 89.9496 242.551 90.1655 242.551 90.4319C242.551 90.6982 242.335 90.9141 242.069 90.9141H233.368C233.102 90.9141 232.886 90.6982 232.886 90.4319ZM231.502 92.4093C231.502 92.1429 231.718 91.927 231.984 91.927H238.905C239.171 91.927 239.387 92.1429 239.387 92.4093C239.387 92.6756 239.171 92.8915 238.905 92.8915H231.984C231.718 92.8915 231.502 92.6756 231.502 92.4093ZM229.623 94.3867C229.623 94.1203 229.839 93.9044 230.106 93.9044H233.665C233.931 93.9044 234.147 94.1203 234.147 94.3867C234.147 94.653 233.931 94.8689 233.665 94.8689H230.106C229.839 94.8689 229.623 94.653 229.623 94.3867Z" fill="#FF7A55"/>
<path fill-rule="evenodd" clip-rule="evenodd" d="M220.415 74.7362C220.811 74.7362 221.131 74.4156 221.131 74.02C221.131 73.6245 220.811 73.3038 220.415 73.3038C220.02 73.3038 219.699 73.6245 219.699 74.02C219.699 74.4156 220.02 74.7362 220.415 74.7362ZM220.415 75.7008C221.343 75.7008 222.096 74.9483 222.096 74.02C222.096 73.0917 221.343 72.3392 220.415 72.3392C219.487 72.3392 218.734 73.0917 218.734 74.02C218.734 74.9483 219.487 75.7008 220.415 75.7008Z" fill="#110638"/>
<path fill-rule="evenodd" clip-rule="evenodd" d="M35.448 67.265C35.8013 66.9117 36.3743 66.9117 36.7276 67.265L41.1967 71.7341C41.5501 72.0875 41.5501 72.6604 41.1967 73.0138C40.8434 73.3671 40.2704 73.3671 39.9171 73.0138L36.9926 70.0893V79.9554C36.9926 80.4552 36.5875 80.8603 36.0878 80.8603C35.5881 80.8603 35.183 80.4552 35.183 79.9554V70.0893L32.2585 73.0138C31.9052 73.3671 31.3322 73.3671 30.9789 73.0138C30.6255 72.6604 30.6255 72.0875 30.9789 71.7341L35.448 67.265ZM15.5412 67.719C15.5534 67.7185 15.5656 67.7182 15.5778 67.7182H28.6659C29.1656 67.7182 29.5707 68.1234 29.5707 68.6231C29.5707 69.1228 29.1656 69.5279 28.6659 69.5279H15.5971C14.7699 69.5652 13.5192 69.8909 12.514 70.7287C11.5426 71.5384 10.7303 72.8815 10.8158 75.1328C10.8163 75.1442 10.8165 75.1557 10.8165 75.1671V95.9771L17.858 91.2606C18.3747 90.8966 19.2312 90.4845 20.221 90.3619C21.2421 90.2354 22.4422 90.4166 23.5044 91.3153C23.5303 91.3373 23.555 91.3606 23.5783 91.3853C23.9051 91.7319 24.536 92.1596 25.2966 92.265C26.0047 92.363 26.9278 92.1982 27.9549 91.1982C27.9673 91.1861 27.9801 91.1743 27.9932 91.1629L34.5895 85.4408C35.1198 84.9062 35.9991 84.3517 37.0432 84.1978C38.1612 84.0329 39.4072 84.3404 40.4925 85.475C40.4996 85.4824 40.5065 85.4899 40.5133 85.4975L42.2856 87.4808V82.0304C42.2856 81.5307 42.6908 81.1256 43.1905 81.1256C43.6902 81.1256 44.0953 81.5307 44.0953 82.0304V97.6722C44.0953 100.02 43.0662 101.589 41.7481 102.549C40.4728 103.478 38.9685 103.813 37.9507 103.844C37.9416 103.844 37.9325 103.844 37.9233 103.844H15.5987C13.2735 103.948 11.6504 102.935 10.6091 101.63C9.59386 100.359 9.13418 98.8231 9.01283 97.7765C9.00882 97.7419 9.00681 97.7071 9.00681 97.6722V75.1839C8.90577 72.4012 9.94098 70.5175 11.3554 69.3386C12.732 68.1911 14.3997 67.7653 15.5412 67.719ZM42.2856 90.1967L39.1748 86.7155C38.5078 86.0238 37.8556 85.9072 37.3071 85.9881C36.7015 86.0773 36.1577 86.4226 35.8598 86.73C35.8416 86.7488 35.8226 86.7668 35.8029 86.784L29.1981 92.5134C27.8048 93.8605 26.3413 94.2366 25.0483 94.0575C23.8315 93.889 22.86 93.2431 22.3017 92.6688C21.7128 92.1869 21.0638 92.081 20.4435 92.1578C19.7868 92.2392 19.2038 92.5246 18.8947 92.744C18.888 92.7487 18.8813 92.7533 18.8746 92.7578L10.9018 98.0981C11.067 98.8356 11.4197 99.7453 12.0234 100.501C12.7531 101.415 13.8496 102.116 15.5348 102.036C15.5491 102.035 15.5635 102.035 15.5778 102.035H37.9088C38.647 102.01 39.7685 101.753 40.6825 101.087C41.559 100.448 42.2856 99.4104 42.2856 97.6722V90.1967Z" fill="#110638"/>
<path fill-rule="evenodd" clip-rule="evenodd" d="M20.7632 81.4974C22.0556 81.4974 23.1034 80.4497 23.1034 79.1572C23.1034 77.8647 22.0556 76.817 20.7632 76.817C19.4707 76.817 18.423 77.8647 18.423 79.1572C18.423 80.4497 19.4707 81.4974 20.7632 81.4974ZM20.7632 83.3071C23.0551 83.3071 24.913 81.4491 24.913 79.1572C24.913 76.8653 23.0551 75.0073 20.7632 75.0073C18.4712 75.0073 16.6133 76.8653 16.6133 79.1572C16.6133 81.4491 18.4712 83.3071 20.7632 83.3071Z" fill="#2196F3"/>
</svg>
