<svg width="260" height="178" viewBox="0 0 260 178" fill="none" xmlns="http://www.w3.org/2000/svg">
<path d="M224.696 98.9189V94.632H220.409C219.631 94.632 219 94.0011 219 93.2229C219 92.4446 219.631 91.8137 220.409 91.8137H224.696V87.2896C224.696 86.5114 225.327 85.8805 226.105 85.8805C226.883 85.8805 227.514 86.5114 227.514 87.2896V91.8137H232.038C232.817 91.8138 233.448 92.4447 233.448 93.2229C233.448 94.0011 232.817 94.632 232.038 94.632H227.514V98.9189C227.514 99.6971 226.883 100.328 226.105 100.328C225.327 100.328 224.696 99.6971 224.696 98.9189Z" fill="black"/>
<path d="M247.256 102.271V105.09H216.818V102.271H247.256ZM247.256 64.2393H216.818V105.09L216.673 105.086C215.232 105.013 214.077 103.858 214.004 102.416L214 102.271V64.2393C214 62.6828 215.262 61.421 216.818 61.421H247.256L247.401 61.4246C248.89 61.5001 250.074 62.7315 250.074 64.2393V102.271L250.07 102.416C249.997 103.857 248.842 105.013 247.401 105.086L247.256 105.09V64.2393Z" fill="black"/>
<path d="M240.61 82.3359V85.1542H223.463V82.3359H240.61ZM240.61 70.41H223.463V85.1542L223.318 85.1503C221.877 85.0773 220.721 83.9219 220.648 82.4809L220.645 82.3359V70.41C220.645 68.8535 221.906 67.5917 223.463 67.5917H240.61L240.755 67.5953C242.244 67.6708 243.428 68.9021 243.428 70.41V82.3359L243.424 82.4809C243.351 83.9219 242.196 85.0772 240.755 85.1503L240.61 85.1542V70.41Z" fill="black"/>
<path d="M239.627 95.3587C239.627 96.2762 238.884 97.02 237.966 97.02C237.048 97.02 236.305 96.2762 236.305 95.3587C236.305 94.4412 237.048 93.6974 237.966 93.6974C238.884 93.6974 239.627 94.4412 239.627 95.3587Z" fill="black"/>
<path d="M243.424 91.0868C243.424 92.0044 242.68 92.7482 241.763 92.7482C240.845 92.7482 240.102 92.0044 240.102 91.0868C240.102 90.1693 240.845 89.4255 241.763 89.4255C242.68 89.4255 243.424 90.1693 243.424 91.0868Z" fill="black"/>
<path d="M24.5494 15.2007C25.0134 15.0752 25.4911 15.3495 25.6167 15.8135L29.9016 31.6488C30.0271 32.1127 29.7527 32.5904 29.2888 32.716C28.8249 32.8415 28.3469 32.5672 28.2214 32.1032L23.9367 16.2679C23.8112 15.804 24.0855 15.3262 24.5494 15.2007Z" fill="black"/>
<path d="M46.2594 28.9899L39.8031 37.2069V43.4373L46.2594 35.6606V28.9899ZM11.6109 36.036H38.5096L45.3392 27.3439H18.1301L11.6109 36.036ZM38.0625 44.9782V37.7766H10.7406V44.9782H38.0625ZM48 35.6606C48 36.0666 47.8582 36.4599 47.5988 36.7723L39.6023 46.4043L39.5706 46.4409C39.4064 46.6176 39.1755 46.7188 38.9328 46.7188H10.7406C9.7793 46.7188 9 45.9395 9 44.9782V36.9063C9 36.718 9.06102 36.5348 9.17395 36.3841L16.7373 26.2996C17.0661 25.8613 17.5822 25.6033 18.1301 25.6033H47.1297C47.6103 25.6033 48 25.9929 48 26.4736V35.6606Z" fill="black"/>
<path d="M28.2508 9.70667C28.2508 6.96399 26.0275 4.74062 23.2848 4.74062C20.5421 4.74064 18.3188 6.96401 18.3187 9.70667C18.3187 12.4493 20.5421 14.6727 23.2848 14.6727V16.4133L23.1117 16.4114C19.5452 16.321 16.6707 13.4463 16.5804 9.87977L16.5781 9.70667C16.5781 6.00269 19.5808 3.00002 23.2848 3L23.4579 3.00227C27.0819 3.09406 29.9914 6.06054 29.9915 9.70667L29.9895 9.87977C29.8977 13.5038 26.9309 16.4133 23.2848 16.4133V14.6727C26.0275 14.6727 28.2508 12.4494 28.2508 9.70667Z" fill="black"/>
<path d="M37.4408 33.1803C37.4408 34.0034 36.6067 34.6707 35.5778 34.6707C34.5489 34.6707 33.7148 34.0034 33.7148 33.1803C33.7148 32.3572 34.5489 31.6899 35.5778 31.6899C36.6067 31.6899 37.4408 32.3572 37.4408 33.1803Z" fill="black"/>
<path d="M247.444 38.7746C246.747 39.7435 245.102 40.982 242.929 42.0299C240.699 43.1052 237.756 44.0578 234.319 44.3442L234.103 41.7549C237.191 41.4976 239.827 40.6414 241.801 39.6896C243.831 38.7104 245.014 37.7036 245.336 37.2567L247.444 38.7746ZM230.631 7.00245C235.244 7.07144 244.876 10.0844 247.345 22.1427L244.8 22.6638C242.648 12.1593 234.395 9.6572 230.592 9.60031C225.309 9.52131 221.834 11.6163 219.579 14.2622C217.285 16.9546 216.216 20.269 215.929 22.5645L213.352 22.2423C213.688 19.554 214.913 15.732 217.602 12.5769C220.331 9.37528 224.53 6.91125 230.631 7.00245Z" fill="black"/>
<path d="M209.203 35.4857V25.6312C209.203 23.8131 210.631 22.3286 212.426 22.2376L212.601 22.2332H217.359L217.428 22.2366C217.771 22.2715 218.038 22.561 218.038 22.9128V38.2041L218.034 38.2735C218.002 38.5934 217.748 38.8477 217.428 38.8802L217.359 38.8837H212.601V36.2856H215.44V24.8313H212.601C212.159 24.8313 211.801 25.1894 211.801 25.6312V35.4857C211.801 35.9274 212.159 36.2855 212.601 36.2856V38.8837L212.426 38.8793C210.689 38.7913 209.296 37.398 209.208 35.6604L209.203 35.4857Z" fill="black"/>
<path d="M251 35.4857V25.6312C251 23.8131 249.572 22.3286 247.777 22.2376L247.602 22.2332H242.845L242.775 22.2366C242.432 22.2715 242.165 22.561 242.165 22.9128V38.2041L242.169 38.2735C242.201 38.5934 242.455 38.8477 242.775 38.8802L242.845 38.8837H247.602V36.2856H244.763V24.8313H247.602C248.044 24.8313 248.402 25.1894 248.402 25.6312V35.4857C248.402 35.9274 248.044 36.2855 247.602 36.2856V38.8837L247.777 38.8793C249.514 38.7913 250.908 37.398 250.996 35.6604L251 35.4857Z" fill="black"/>
<path d="M229.594 45L229.506 44.9978C228.637 44.9537 227.941 44.2572 227.897 43.3885L227.895 43.3009V40.5826C227.895 39.6736 228.608 38.9313 229.506 38.8858L229.594 38.8835H233.331L233.419 38.8858C234.317 38.9312 235.031 39.6735 235.031 40.5826V43.3009L235.028 43.3885C234.984 44.2573 234.288 44.9537 233.419 44.9978L233.331 45H229.594ZM230.493 42.4018H232.432V41.4817H230.493V42.4018Z" fill="black"/>
<path d="M28.5264 83.4947C29.0543 83.1721 29.7437 83.3385 30.0663 83.8664C30.3889 84.3942 30.2225 85.0837 29.6947 85.4063C26.5987 87.2983 23.7414 86.2219 22.6079 85.3313C22.1214 84.9491 22.0369 84.245 22.4191 83.7585C22.8013 83.2721 23.5054 83.1875 23.9918 83.5697C24.553 84.0107 26.3929 84.7985 28.5264 83.4947Z" fill="black"/>
<path d="M40.3743 79.1542C40.9929 79.1543 41.4945 79.6558 41.4945 80.2744C41.4944 80.893 40.9929 81.3946 40.3743 81.3946H34.7452C34.1266 81.3946 33.625 80.8931 33.625 80.2744C33.625 79.6558 34.1265 79.1542 34.7452 79.1542H40.3743ZM41.1007 73.5251C41.7193 73.5252 42.2209 74.0267 42.2209 74.6453C42.2209 75.264 41.7193 75.7655 41.1007 75.7655H34.7452C34.1265 75.7655 33.625 75.264 33.625 74.6453C33.625 74.0267 34.1265 73.5251 34.7452 73.5251H41.1007Z" fill="black"/>
<path d="M41.3131 71.5279C41.9315 71.5459 42.4184 72.0616 42.4004 72.68C42.1796 80.299 39.9344 85.1699 38.0259 87.8889C38.0209 88.481 38.1417 89.1278 38.3266 89.742C38.4511 90.1556 38.5972 90.5285 38.7307 90.8272C41.0524 91.0554 44.2064 91.8683 46.8859 93.6714C49.8785 95.6853 52.286 98.952 52.2062 103.898C52.1962 104.516 51.6867 105.01 51.0682 105C50.4496 104.99 49.9562 104.48 49.9661 103.861C50.0316 99.8006 48.1111 97.1964 45.6351 95.5302C43.3624 94.0009 40.6296 93.2781 38.6023 93.066C35.6905 97.6047 32.2968 99.5693 29.0466 99.9832C25.7153 100.407 22.7467 99.1749 20.8923 97.8459C20.2625 97.3945 19.9928 96.6531 20.0741 95.9596L20.4782 92.5119C18.6356 93.1173 16.4511 94.1519 14.6685 95.6565C12.3801 97.5879 10.8289 100.212 11.3388 103.718C11.4279 104.33 11.0037 104.899 10.3915 104.988C9.77925 105.077 9.21061 104.653 9.12156 104.041C8.46941 99.5571 10.5279 96.2195 13.2235 93.9443C15.6003 91.9383 18.5296 90.6963 20.7626 90.0877L20.8952 88.9572C18.9946 86.4734 17.9475 83.3242 17.6587 81.5428C17.5596 80.9321 17.9745 80.3566 18.5851 80.2576C19.1957 80.1585 19.7712 80.5734 19.8703 81.184C20.1258 82.7593 21.1399 85.7516 22.9255 87.9133C23.4501 88.5483 24.0269 89.0938 24.6517 89.5104C25.5303 90.0961 27.162 90.649 29.0488 90.6143C30.9047 90.5802 32.9435 89.979 34.7101 88.3483C35.038 88.0456 35.5002 87.552 36.019 86.844C37.6954 84.5563 39.9454 80.054 40.161 72.615C40.179 71.9966 40.6947 71.51 41.3131 71.5279ZM36.1019 90.1096C33.9027 92.0792 31.366 92.8125 29.0897 92.8544C26.8716 92.8952 24.8402 92.2817 23.5331 91.4551L23.409 91.3745C23.238 91.2605 23.0717 91.1402 22.9096 91.015L22.8977 91.1176L22.3129 96.1056C23.8404 97.1636 26.1976 98.0873 28.7637 97.7606C31.2361 97.4457 34.1009 95.9444 36.7285 91.838C36.5423 91.4326 36.3459 90.9346 36.1812 90.3877C36.154 90.2972 36.1276 90.2043 36.1019 90.1096ZM17.0995 72.6475C17.0995 70.7717 17.4863 69.2342 17.7156 68.6227C17.9328 68.0435 18.5787 67.7498 19.158 67.967C19.7372 68.1842 20.0305 68.8299 19.8134 69.4091C19.6795 69.7661 19.3399 71.0371 19.3399 72.6475C19.3399 73.2662 18.8384 73.7677 18.2197 73.7677C17.6011 73.7676 17.0995 73.2661 17.0995 72.6475Z" fill="black"/>
<path d="M15.7052 80.2432H22.2923L23.4641 79.0711L23.5416 78.9974C24.3319 78.2833 25.5383 78.2834 26.3286 78.9974L26.4061 79.0711L27.5782 80.2432H33.6202V73.7677H15.7052V80.2432ZM35.8606 80.4033C35.8606 81.5522 34.9292 82.4836 33.7802 82.4836H27.512C26.9602 82.4836 26.4309 82.2646 26.0408 81.8744L24.935 80.7686L23.8294 81.8744C23.4393 82.2645 22.9102 82.4836 22.3586 82.4836H15.5452C14.3963 82.4836 13.4648 81.5522 13.4648 80.4033V73.6077C13.4648 72.4588 14.3963 71.5273 15.5452 71.5273H33.7802C34.9292 71.5273 35.8606 72.4588 35.8606 73.6077V80.4033Z" fill="black"/>
<path d="M22.9568 57.5255C24.7551 56.3627 26.9058 55.6858 29.3958 55.858C31.8703 56.0292 34.5987 57.033 37.5862 59.0895C37.5869 59.0898 37.5879 59.09 37.5891 59.0904C37.5907 59.0911 37.5925 59.0918 37.5944 59.0923C39.0395 59.5278 40.8238 60.7225 41.9854 62.9261C43.1545 65.1437 43.6451 68.2864 42.6812 72.5481C42.5173 73.2724 41.9751 73.8428 41.2825 74.0593L39.5619 74.5969C38.697 74.8671 37.7567 74.5466 37.2371 73.8042L34.3197 69.6366C30.76 70.8445 23.5741 72.1951 17.4274 69.6476C16.4651 69.2487 15.973 68.1889 16.2769 67.1997L16.3735 66.8934C17.4073 63.7036 19.5249 59.7447 22.9568 57.5255ZM29.241 58.0931C27.2772 57.9573 25.6026 58.4828 24.1736 59.4068C21.3264 61.2478 19.4268 64.6987 18.4817 67.6569C23.8973 69.8089 30.3922 68.6188 33.6696 67.4919L33.7512 67.4656C34.572 67.2198 35.4959 67.4804 36.0435 68.1958L36.0969 68.2689L39.0052 72.4237L40.518 71.9508C41.3607 68.1411 40.8616 65.5987 40.0035 63.971C39.1303 62.3146 37.8366 61.5052 36.948 61.2374C36.7387 61.1743 36.5224 61.077 36.322 60.9389C33.5702 59.0435 31.2185 58.2299 29.241 58.0931Z" fill="black"/>
<path d="M147.083 96.1345C147.724 96.1345 148.243 96.6541 148.243 97.2951C148.243 97.9361 147.724 98.4557 147.083 98.4557H139.782C139.141 98.4557 138.621 97.9361 138.621 97.2951C138.621 96.6541 139.141 96.1345 139.782 96.1345H147.083Z" fill="black"/>
<path d="M113.539 102.374V94.9986L113.548 94.9249L116.192 74.3663C116.388 72.8372 117.69 71.692 119.232 71.692H128.667C129.308 71.692 129.827 72.2116 129.827 72.8526C129.827 73.4936 129.308 74.0132 128.667 74.0132H119.232C118.858 74.0133 118.542 74.2913 118.494 74.6624L115.86 95.1479V102.374C115.86 102.785 116.193 103.118 116.604 103.118H149.934C150.345 103.118 150.679 102.785 150.679 102.374V95.2082C150.679 95.1731 150.676 95.1379 150.671 95.1031L147.75 74.6519C147.697 74.2855 147.383 74.0133 147.013 74.0132H138.19C137.549 74.0132 137.029 73.4936 137.029 72.8526C137.029 72.2117 137.549 71.6921 138.19 71.692H147.013C148.538 71.6921 149.832 72.8138 150.048 74.3238L152.969 94.7747C152.989 94.9183 153 95.0632 153 95.2082V102.374C153 104.067 151.627 105.439 149.934 105.439H116.604C114.912 105.439 113.539 104.067 113.539 102.374Z" fill="black"/>
<path d="M132.27 85.2328V68.0914C132.27 67.4504 132.789 66.9308 133.43 66.9308C134.071 66.9308 134.591 67.4504 134.591 68.0914V85.2328C134.591 85.8737 134.071 86.3934 133.43 86.3934C132.789 86.3934 132.27 85.8737 132.27 85.2328Z" fill="black"/>
<path d="M136.825 62.3775C136.825 60.5038 135.306 58.9849 133.433 58.9849C131.559 58.9849 130.04 60.5038 130.04 62.3775C130.04 64.2511 131.559 65.77 133.433 65.77V68.0912L133.285 68.0893C130.246 68.0122 127.798 65.5633 127.721 62.5248L127.719 62.3775C127.719 59.2219 130.277 56.6637 133.433 56.6637L133.58 56.6657C136.667 56.7438 139.146 59.2711 139.146 62.3775L139.144 62.5248C139.066 65.6123 136.539 68.0912 133.433 68.0912V65.77C135.306 65.77 136.825 64.2511 136.825 62.3775Z" fill="black"/>
<path d="M140.631 83.9629C140.631 82.9516 140.077 81.8402 138.79 80.8967C137.505 79.9543 135.617 79.3006 133.429 79.3006C131.241 79.3006 129.353 79.9543 128.068 80.8967C126.782 81.8402 126.227 82.9516 126.227 83.9629C126.227 84.9742 126.782 86.0856 128.068 87.029C129.353 87.9715 131.241 88.6251 133.429 88.6251V90.9464L133.183 90.9441C128.119 90.85 124.038 87.8568 123.909 84.1431L123.906 83.9629C123.906 80.106 128.17 76.9794 133.429 76.9794L133.675 76.9816C138.821 77.0773 142.952 80.1663 142.952 83.9629L142.949 84.1431C142.819 87.9167 138.606 90.9464 133.429 90.9464V88.6251C135.617 88.6251 137.505 87.9715 138.79 87.029C140.077 86.0855 140.631 84.9742 140.631 83.9629Z" fill="black"/>
<path d="M123.264 97.6123C123.264 98.4889 122.554 99.1995 121.677 99.1995C120.8 99.1995 120.09 98.4889 120.09 97.6123C120.09 96.7357 120.8 96.0251 121.677 96.0251C122.554 96.0251 123.264 96.7357 123.264 97.6123Z" fill="black"/>
<path d="M221.867 123.527V115.669C221.867 114.97 222.434 114.403 223.133 114.403C223.832 114.403 224.399 114.97 224.399 115.669V123.527C224.399 124.226 223.832 124.793 223.133 124.793C222.434 124.793 221.867 124.226 221.867 123.527Z" fill="black"/>
<path d="M239.699 123.527V115.669C239.699 114.97 240.266 114.403 240.965 114.403C241.664 114.403 242.231 114.97 242.231 115.669V123.527C242.231 124.226 241.664 124.793 240.965 124.793C240.266 124.793 239.699 124.226 239.699 123.527Z" fill="black"/>
<path d="M221.871 146.901V144.539H219.207C218.508 144.539 217.941 143.972 217.941 143.273C217.941 142.574 218.508 142.008 219.207 142.008H221.871V139.646C221.871 138.947 222.437 138.381 223.136 138.381C223.835 138.381 224.402 138.947 224.402 139.646V142.008H227.066C227.765 142.008 228.332 142.574 228.332 143.273C228.331 143.972 227.765 144.539 227.066 144.539H224.402V146.901C224.402 147.6 223.835 148.166 223.136 148.166C222.437 148.166 221.871 147.6 221.871 146.901Z" fill="black"/>
<path d="M239.402 146.901V144.539H236.738C236.039 144.539 235.473 143.972 235.473 143.273C235.473 142.574 236.039 142.008 236.738 142.008H239.402V139.646C239.402 138.947 239.969 138.381 240.668 138.381C241.367 138.381 241.933 138.947 241.933 139.646V142.008H244.597C245.296 142.008 245.863 142.574 245.863 143.273C245.863 143.972 245.296 144.539 244.597 144.539H241.933V146.901C241.933 147.6 241.367 148.166 240.668 148.166C239.969 148.166 239.402 147.6 239.402 146.901Z" fill="black"/>
<path d="M250.885 139.345C250.885 136.123 249.563 133.962 247.875 132.473C246.16 130.959 244.038 130.121 242.478 129.692C232.571 127.578 223.728 129.127 221.104 129.971L220.709 128.744L220.716 128.765L221.104 129.971C221.1 129.972 221.097 129.973 221.094 129.974L220.747 130.084C217.214 131.231 215.33 132.521 214.294 133.906C213.305 135.23 212.958 136.813 212.918 138.917L212.914 139.345V158.085C212.914 160.142 213.86 161.409 215.074 162.225C216.341 163.076 217.903 163.423 218.94 163.469H245.199C247.309 163.469 248.642 162.572 249.505 161.463C250.39 160.325 250.792 158.935 250.885 158.018V139.345ZM253.417 158.085C253.417 158.123 253.415 158.161 253.411 158.199L253.384 158.45C253.223 159.736 252.679 161.506 251.503 163.018C250.209 164.68 248.167 166 245.199 166H218.903C218.885 166 218.868 165.999 218.85 165.999L218.903 164.734V164.73L218.85 165.999C217.468 165.941 215.413 165.502 213.663 164.326C211.855 163.112 210.383 161.105 210.383 158.085V139.345C210.383 136.828 210.723 134.455 212.267 132.39C213.796 130.346 216.354 128.804 220.329 127.561L220.63 127.468C223.927 126.496 232.982 125.069 243.046 127.225C243.069 127.23 243.092 127.236 243.114 127.242C244.876 127.722 247.423 128.697 249.55 130.574C251.716 132.485 253.417 135.312 253.417 139.345V158.085Z" fill="black"/>
<path d="M227.552 142.971C227.552 140.53 225.573 138.551 223.131 138.551C220.69 138.551 218.711 140.53 218.711 142.971C218.711 145.413 220.69 147.392 223.131 147.392V149.923L222.952 149.921C219.255 149.828 216.275 146.848 216.182 143.151L216.18 142.971C216.18 139.132 219.292 136.02 223.131 136.02L223.311 136.022C227.067 136.117 230.083 139.192 230.083 142.971L230.081 143.151C229.986 146.907 226.911 149.923 223.131 149.923V147.392C225.573 147.392 227.552 145.413 227.552 142.971Z" fill="black"/>
<path d="M245.087 142.971C245.087 140.53 243.108 138.551 240.667 138.551C238.225 138.551 236.246 140.53 236.246 142.971C236.246 145.413 238.225 147.392 240.667 147.392V149.923L240.487 149.921C236.79 149.828 233.811 146.848 233.717 143.151L233.715 142.971C233.715 139.132 236.827 136.02 240.667 136.02L240.846 136.022C244.603 136.117 247.619 139.192 247.619 142.971L247.616 143.151C247.521 146.907 244.446 149.923 240.667 149.923V147.392C243.108 147.392 245.087 145.413 245.087 142.971Z" fill="black"/>
<path d="M228.878 156.271C228.878 157.106 228.201 157.782 227.367 157.782C226.532 157.782 225.855 157.106 225.855 156.271C225.855 155.436 226.532 154.76 227.367 154.76C228.201 154.76 228.878 155.436 228.878 156.271Z" fill="black"/>
<path d="M237.944 156.271C237.944 157.106 237.268 157.782 236.433 157.782C235.598 157.782 234.922 157.106 234.922 156.271C234.922 155.436 235.598 154.76 236.433 154.76C237.268 154.76 237.944 155.436 237.944 156.271Z" fill="black"/>
<path d="M18.3329 150.134V146.634H14.628C13.9554 146.634 13.4102 146.089 13.4102 145.416C13.4102 144.744 13.9554 144.199 14.628 144.199H18.3329V140.084C18.3329 139.411 18.8782 138.866 19.5508 138.866C20.2233 138.866 20.7686 139.411 20.7686 140.084V144.199H24.6784C25.351 144.199 25.8962 144.744 25.8963 145.416C25.8963 146.089 25.351 146.634 24.6784 146.634H20.7686V150.134C20.7686 150.807 20.2233 151.352 19.5508 151.352C18.8782 151.352 18.333 150.807 18.3329 150.134Z" fill="black"/>
<path d="M29.2057 130.033C29.2057 128.095 28.6778 126.77 27.9142 125.845C27.1396 124.908 26.0333 124.275 24.7025 123.892C22.0002 123.113 18.6505 123.447 16.3691 124.034C15.7177 124.201 15.0538 123.809 14.8863 123.158C14.7188 122.506 15.1111 121.843 15.7625 121.675C18.267 121.031 22.0964 120.606 25.3765 121.551C27.0367 122.029 28.6223 122.878 29.792 124.294C30.9727 125.723 31.6414 127.624 31.6414 130.033C31.6414 130.706 31.0961 131.251 30.4236 131.251C29.751 131.251 29.2058 130.706 29.2057 130.033Z" fill="black"/>
<path d="M33.9215 134.956V131.556C33.9215 131.388 33.7852 131.251 33.6171 131.251H26.6112C26.4431 131.251 26.3068 131.388 26.3068 131.556V134.956C26.3067 135.629 25.7615 136.174 25.0889 136.174C24.4164 136.174 23.8712 135.629 23.8711 134.956V131.556C23.8711 130.043 25.0979 128.816 26.6112 128.816H33.6171C35.1304 128.816 36.3572 130.043 36.3572 131.556V134.956C36.3571 135.629 35.8119 136.174 35.1394 136.174C34.4668 136.174 33.9216 135.629 33.9215 134.956Z" fill="black"/>
<path d="M37.5422 152.303C38.2669 152.303 38.9621 152.59 39.4757 153.102L47.4517 161.044C47.6437 161.235 47.9708 161.099 47.9708 160.828V136.478C47.9708 136.31 47.8345 136.174 47.6664 136.174H11.7401C11.572 136.174 11.4357 136.31 11.4357 136.478V160.828C11.4357 161.099 11.7631 161.235 11.9551 161.044L19.9311 153.102C20.4446 152.59 21.1397 152.303 21.8643 152.303H37.5422ZM50.4065 160.828C50.4065 163.266 47.4611 164.49 45.7332 162.769L37.7568 154.828C37.6998 154.771 37.6227 154.739 37.5422 154.739H21.8643C21.7838 154.739 21.7067 154.771 21.6496 154.828L13.6736 162.769C11.9457 164.49 9.00001 163.266 9 160.828V136.478C9 134.965 10.2268 133.738 11.7401 133.738H47.6664C49.1797 133.738 50.4065 134.965 50.4065 136.478V160.828Z" fill="black"/>
<path d="M41.4965 141.725C41.4965 142.404 40.9455 142.955 40.2658 142.955C39.5861 142.955 39.0352 142.404 39.0352 141.725C39.0352 141.045 39.5861 140.494 40.2658 140.494C40.9455 140.494 41.4965 141.045 41.4965 141.725Z" fill="black"/>
<path d="M36.5744 143.981C37.2541 143.981 37.8051 144.532 37.8051 145.211C37.8051 145.891 37.2541 146.442 36.5744 146.442C35.8947 146.442 35.3438 145.891 35.3438 145.211C35.3438 144.532 35.8947 143.981 36.5744 143.981Z" fill="black"/>
<path d="M41.4965 148.698C41.4965 149.378 40.9455 149.929 40.2658 149.929C39.5861 149.929 39.0352 149.378 39.0352 148.698C39.0352 148.019 39.5861 147.468 40.2658 147.468C40.9455 147.468 41.4965 148.019 41.4965 148.698Z" fill="black"/>
<path d="M43.551 143.981C44.2306 143.981 44.7816 144.532 44.7816 145.211C44.7816 145.891 44.2306 146.442 43.551 146.442C42.8713 146.442 42.3203 145.891 42.3203 145.211C42.3203 144.532 42.8713 143.981 43.551 143.981Z" fill="black"/>
<path d="M121.481 147.023V143.28H117.944C117.056 143.28 116.336 142.56 116.336 141.672C116.336 140.784 117.056 140.064 117.944 140.064H121.481V136.322C121.481 135.434 122.201 134.714 123.089 134.714C123.977 134.714 124.696 135.434 124.696 136.322V140.064H128.645C129.533 140.064 130.253 140.784 130.253 141.672C130.253 142.56 129.533 143.28 128.645 143.28H124.696V147.023C124.696 147.911 123.977 148.631 123.089 148.631C122.201 148.631 121.481 147.911 121.481 147.023Z" fill="black"/>
<path d="M140.953 130C146.742 130 151.93 133.574 153.993 138.983L159.169 152.555C159.907 154.49 160.472 157 159.464 159.374C158.944 160.599 158.129 161.879 156.886 162.78C155.599 163.713 153.965 164.156 152.033 163.839C149.39 163.407 147.593 161.375 146.416 159.682L145.239 157.99C143.231 155.104 139.938 153.384 136.422 153.384H129.456C125.995 153.384 122.747 155.051 120.729 157.863L119.412 159.699C118.169 161.431 116.32 163.345 113.696 163.777C112.28 164.01 110.609 163.981 109.113 163.202C107.548 162.387 106.426 160.883 105.941 158.688C105.482 156.611 106.068 154.597 106.73 153.002L112.709 138.603C114.872 133.395 119.958 130 125.598 130H140.953ZM125.598 133.216C121.257 133.216 117.344 135.828 115.679 139.837L109.7 154.235C109.116 155.641 108.838 156.896 109.081 157.993C109.397 159.422 110.013 160.045 110.598 160.35C111.252 160.69 112.142 160.773 113.174 160.604C114.508 160.384 115.705 159.351 116.8 157.824L118.116 155.989C120.738 152.335 124.959 150.168 129.456 150.168H136.422C140.99 150.168 145.27 152.404 147.878 156.154L149.056 157.846C150.144 159.41 151.281 160.458 152.552 160.666C153.661 160.848 154.424 160.593 154.998 160.177C155.617 159.728 156.127 159.006 156.504 158.118C157.016 156.913 156.812 155.4 156.164 153.7L150.988 140.129C149.401 135.966 145.408 133.216 140.953 133.216H125.598Z" fill="black"/>
<path d="M137.128 141.455C137.301 141.555 137.301 141.805 137.128 141.905L135.117 143.066C134.944 143.165 134.728 143.041 134.728 142.841L134.728 140.519C134.728 140.319 134.944 140.194 135.117 140.294L137.128 141.455Z" fill="black"/>
<path d="M141.278 146.054C141.378 145.881 141.628 145.881 141.727 146.054L142.888 148.065C142.988 148.237 142.863 148.454 142.664 148.454H140.342C140.142 148.454 140.017 148.237 140.117 148.065L141.278 146.054Z" fill="black"/>
<path d="M141.278 137.838C141.378 138.011 141.628 138.011 141.727 137.838L142.888 135.827C142.988 135.654 142.863 135.438 142.664 135.438H140.342C140.142 135.438 140.017 135.654 140.117 135.827L141.278 137.838Z" fill="black"/>
<path d="M145.345 141.455C145.172 141.555 145.172 141.805 145.345 141.905L147.355 143.066C147.528 143.165 147.745 143.041 147.745 142.841L147.745 140.519C147.745 140.319 147.528 140.194 147.355 140.294L145.345 141.455Z" fill="black"/>
<path d="M109.867 0.749956C110.457 0.625762 111.036 1.00328 111.16 1.59322C111.295 2.23614 111.893 3.32659 113.414 4.0516C114.933 4.77565 117.454 5.16709 121.433 4.20324C123.656 3.66472 125.564 3.70825 127.182 4.19845C128.803 4.68946 130.066 5.60861 131.024 6.71519C132.61 8.54581 133.372 10.8943 133.643 12.7878H135.167V11.9624C135.167 10.8973 136.083 9.94626 137.246 10.1018L137.359 10.1202L137.594 10.1685C138.791 10.4245 140.259 10.9221 141.531 11.7775C142.899 12.6977 144.115 14.0892 144.389 16.0799L144.389 16.0807C145.109 21.3208 146.593 30.0706 145.964 37.1122C145.948 40.4812 144.364 43.1567 142.038 44.9972C139.721 46.8303 136.668 47.8436 133.625 47.9833C130.583 48.1229 127.452 47.3925 125.002 45.6126C122.521 43.8102 120.814 40.9823 120.6 37.1226L121.69 37.0621L121.685 37.0624L120.6 37.1226L120.599 37.093L120.578 36.257C120.385 27.6646 120.982 20.4926 121.388 16.1278L121.395 16.0692C121.666 14.2372 122.773 12.9035 124.015 11.9848C125.25 11.0707 126.691 10.5081 127.839 10.2047L127.956 10.1775C129.159 9.93606 130.145 10.9148 130.145 12.0181V12.7878H131.433C131.171 11.2628 130.537 9.48766 129.374 8.14453C128.651 7.31008 127.728 6.6451 126.549 6.28796C125.368 5.93002 123.862 5.8613 121.947 6.32527C117.649 7.36642 114.581 7.02672 112.474 6.0225C110.37 5.01926 109.306 3.38428 109.024 2.04311C108.899 1.45315 109.277 0.874183 109.867 0.749956ZM135.167 28.2904V14.9712H130.145V28.2904C130.145 28.8933 129.656 29.3821 129.054 29.3821C128.451 29.3821 127.962 28.8933 127.962 28.2904V12.4414C127.092 12.713 126.124 13.1399 125.313 13.7398C124.378 14.4321 123.725 15.2951 123.559 16.3642C123.143 20.8397 122.534 28.2118 122.781 37.0128C122.962 40.224 124.348 42.4389 126.285 43.8464C128.255 45.2778 130.871 45.9242 133.526 45.8024C136.18 45.6805 138.776 44.7939 140.683 43.2848C142.57 41.7921 143.781 39.7002 143.781 37.0621C143.781 37.0292 143.782 36.9963 143.785 36.9635L143.813 36.6466C144.353 29.9661 142.956 21.6934 142.226 16.3784L142.209 16.2675C142.017 15.1307 141.309 14.2598 140.312 13.5892C139.403 12.9775 138.312 12.5779 137.351 12.3513V28.2904C137.351 28.8933 136.862 29.3821 136.259 29.3821C135.656 29.3821 135.167 28.8933 135.167 28.2904ZM131.565 22.6514V16.5423C131.565 15.9394 132.054 15.4506 132.656 15.4506C133.259 15.4507 133.748 15.9395 133.748 16.5423V22.6514C133.748 23.2543 133.259 23.743 132.656 23.7431C132.054 23.7431 131.565 23.2543 131.565 22.6514Z" fill="black"/>
<path d="M133.958 26.804C133.958 27.5679 133.442 28.1871 132.805 28.1871C132.168 28.1871 131.652 27.5679 131.652 26.804C131.652 26.0401 132.168 25.4209 132.805 25.4209C133.442 25.4209 133.958 26.0401 133.958 26.804Z" fill="black"/>
<path d="M133.958 31.4139C133.958 32.1778 133.442 32.797 132.805 32.797C132.168 32.797 131.652 32.1778 131.652 31.4139C131.652 30.65 132.168 30.0308 132.805 30.0308C133.442 30.0308 133.958 30.65 133.958 31.4139Z" fill="black"/>
</svg>
