<svg width="260" height="178" viewBox="0 0 260 178" fill="none" xmlns="http://www.w3.org/2000/svg">
<path d="M234.294 149.496C235.043 146.935 234.741 141.695 228.895 140.166M201.257 151.81C200.543 148.136 201.932 145.429 204.577 143.509M208.07 157.465H223.496M236.223 151.166L248.832 145.694C249.364 145.463 249.561 144.81 249.246 144.323L245.244 138.158C245.145 138.006 245.093 137.829 245.093 137.648V127.77M245.093 127.77L228.895 140.166M245.093 127.77L249.335 124.042C252.012 121.599 251.572 119.234 247.15 118M228.895 140.166C228.382 140.032 227.826 139.926 227.224 139.854C226.749 139.809 226.27 139.769 225.788 139.734M225.788 139.734C225.616 138.36 223.603 135.869 216.275 136.511C212.418 136.85 205.297 138.308 204.577 143.509M225.788 139.734C217.92 139.174 209.271 140.101 204.577 143.509" stroke="#FFC107" stroke-width="1.87565" stroke-linecap="round" stroke-linejoin="round"/>
<circle cx="7.45601" cy="7.45601" r="6.51818" transform="matrix(-1 0 0 1 238 148.339)" stroke="#110638" stroke-width="1.87565" stroke-linecap="round" stroke-linejoin="round"/>
<circle cx="1.79973" cy="1.79973" r="1.79973" transform="matrix(-1 0 0 1 232.344 153.994)" fill="#110638"/>
<circle cx="1.28552" cy="1.28552" r="1.28552" transform="matrix(-1 0 0 1 203.551 156.051)" fill="#110638"/>
<circle cx="5.78483" cy="5.78483" r="4.84701" transform="matrix(-1 0 0 1 208.176 151.423)" stroke="#110638" stroke-width="1.87565" stroke-linecap="round" stroke-linejoin="round"/>
<path d="M136.977 95.0078C135.877 92.8093 130.218 88.0067 124.062 86.6876" stroke="#110638" stroke-width="1.875" stroke-linecap="round"/>
<path d="M127.634 82.9161C123.847 82.3665 115.689 83.6123 113.344 92.9924C112.843 94.9045 111.154 98.6086 107.898 101.463C107.088 102.174 107.582 103.985 108.659 103.985H144.414C145.583 103.985 146.156 101.374 145.205 100.694C144.293 100.042 143.423 99.3059 142.656 98.4886C140.552 96.2438 139.432 92.1497 138.26 90.9772" stroke="#FFC107" stroke-width="1.875" stroke-linecap="round"/>
<path d="M145.773 67.1604L142.842 65.6948M145.773 67.1604C146.83 66.771 149.154 65.3275 150.667 62.5252C150.922 62.0542 150.707 61.4793 150.226 61.2446L144.495 58.4492C143.99 58.203 143.382 58.4204 143.196 58.9507C142.586 60.6959 141.996 63.5193 142.842 65.6948M145.773 67.1604L138.003 81.6337M142.842 65.6948L135.128 80.3513M138.003 81.6337L136.684 84.0908C136.525 84.3869 136.228 84.5833 135.893 84.6137L135.128 84.6834C134.701 84.7221 134.297 84.485 134.123 84.0936L133.878 83.5423C133.754 83.2626 133.765 82.9413 133.907 82.6704L135.128 80.3513M138.003 81.6337L142.128 84.2887C142.54 84.5537 142.701 85.0786 142.472 85.5113C141.39 87.5548 138.935 90.9526 135.33 92.6261M135.128 80.3513L131.228 78.1581C130.837 77.9383 130.346 78.0024 130.057 78.3458C128.618 80.0597 126.618 83.537 127.269 87.3131" stroke="#110638" stroke-width="1.875" stroke-linecap="round"/>
<path d="M48.0347 134.735C49.9414 133.901 50.7769 131.862 51.0762 130.264C51.2028 129.588 50.5367 129.101 49.8673 129.257C46.2389 130.106 42.689 129.427 41.1606 128.899C41.1019 128.879 41.0477 128.853 40.9938 128.822C36.9603 126.519 30.323 127.859 27.4211 128.845C27.3741 128.861 27.3273 128.873 27.2784 128.882C24.2555 129.434 21.8497 129.361 20.3549 129.155C19.6788 129.061 18.9983 129.577 19.1077 130.251C19.5608 133.043 21.3326 134.39 22.2813 134.735M48.0347 134.735H22.2813M48.0347 134.735C48.8633 139.574 50.0234 151.46 48.0347 160.29M22.2813 134.735C21.6184 138.779 20.6904 149.551 22.2813 160.29M22.2813 160.29H48.0347M22.2813 160.29C21.1317 160.968 19.1168 162.815 19.2448 165.23C19.2727 165.757 19.8001 166.069 20.3202 165.977C22.6642 165.561 26.3357 165.2 28.9434 166.156C31.5287 167.104 37.1964 167.847 42.7647 165.46C46.1558 164.302 47.8545 164.506 50.0239 165.707C50.6766 166.068 51.4763 165.669 51.3717 164.93C51.137 163.274 50.2853 161.213 48.0347 160.29" stroke="#110638" stroke-width="1.7"/>
<path d="M35.1095 146.468V143.187M35.1095 140.801C35.5411 139.197 37.2689 136.55 40.8369 137.853C41.3211 138.03 41.5357 138.586 41.2877 139.038C40.2881 140.859 38.1346 142.932 35.1095 140.801ZM35.1095 140.801V143.187M35.1095 143.187C34.8661 141.848 33.4273 139.398 29.6238 139.436C29.0421 139.441 28.6395 139.997 28.8342 140.545C29.5881 142.668 31.5108 145.143 35.1095 143.187Z" stroke="#78A817" stroke-width="1.7"/>
<path d="M27.4531 149.153H42.7659M27.4531 151.937H42.7659M27.4531 154.5H42.7659M30.0384 157H40.3795" stroke="#78A817" stroke-width="1.7" stroke-linecap="round"/>
<path d="M21.3845 129.366C21.3579 128.245 21.632 126.273 22.7778 125.714C23.28 125.468 23.8293 125.125 24.0609 124.617C24.6121 123.406 25.955 122.143 28.6324 122.741C29.0064 122.825 29.4003 122.718 29.6999 122.479C30.5866 121.772 32.0793 121.099 33.6209 121.824C34.1428 122.07 34.8023 122.005 35.2673 121.664C36.2585 120.937 37.8462 120.511 39.6286 121.994C39.916 122.233 40.3003 122.327 40.668 122.26C42.0953 121.997 44.2652 122.2 45.1913 124.397C45.3786 124.842 45.802 125.159 46.2753 125.252C47.5569 125.502 49.0809 126.527 48.6293 129.366" stroke="black" stroke-width="1.7"/>
<path d="M25.6641 126.781C26.1944 126.383 27.5334 125.727 28.6471 126.284M31.1329 125.986C31.6632 125.72 32.9227 125.349 33.7182 125.986M35.1103 124.594C35.7732 124.295 37.2581 123.878 37.8944 124.594M41.0763 125.986C41.6398 125.654 42.9854 125.25 43.8605 126.284" stroke="#FF7A55" stroke-width="1.7" stroke-linecap="round" stroke-linejoin="round"/>
<path d="M214.647 86.9664V79.854M248.313 93.5V88.7478C248.313 88.4235 248.155 88.1194 247.891 87.9319L246.732 87.1106M222.359 98.1882H239.778M219.073 76.6929H215.647C215.095 76.6929 214.647 77.1406 214.647 77.6929V79.854M219.073 76.6929H231.715C231.922 76.6929 232.124 76.7573 232.293 76.8771L233.93 78.0371M219.073 76.6929L212.102 68.3584C211.912 68.1313 211.631 68 211.335 68H200C199.448 68 199 68.4477 199 69V72.3738C199 72.9261 199.448 73.3738 200 73.3738H209.102C209.41 73.3738 209.7 73.5157 209.89 73.7585L214.647 79.854M233.93 78.0371L236.205 74.8131C236.521 74.3658 237.138 74.2555 237.589 74.5656L248.639 82.1629C249.077 82.4636 249.203 83.0537 248.927 83.5071L246.732 87.1106M233.93 78.0371L246.732 87.1106M225.237 86.9664H237.723M225.237 92.0241H237.723" stroke="#110638" stroke-width="2.03123" stroke-linecap="round" stroke-linejoin="round"/>
<circle cx="214.968" cy="95.3438" r="7.51926" stroke="#FF7A55" stroke-width="2.03123" stroke-linecap="round" stroke-linejoin="round"/>
<circle cx="245.307" cy="97.8722" r="4.87742" stroke="#FF7A55" stroke-width="1.62498" stroke-linecap="round" stroke-linejoin="round"/>
<circle cx="214.957" cy="95.3438" r="3.09377" stroke="#FF7A55" stroke-width="2.03123" stroke-linecap="round" stroke-linejoin="round"/>
<circle cx="245.306" cy="97.8719" r="1.9271" stroke="#FF7A55" stroke-width="1.62498" stroke-linecap="round" stroke-linejoin="round"/>
<path d="M241.099 16.7097H246.776M241.099 16.7097C240.626 16.7097 239.679 16.9226 239.679 17.7742V21.1452M241.099 16.7097C241.317 14.5838 240.565 13.1051 239.382 12.0968M246.776 16.7097C246.776 13.4468 248.096 11.5729 249.218 10.689C249.665 10.337 249.899 9.69639 249.625 9.19823L247.573 5.48033C247.41 5.184 247.098 5 246.76 5H233.512C232.999 5 232.583 5.41602 232.583 5.92921V6.06452M246.776 16.7097C247.77 16.7097 248.018 17.4194 248.018 17.7742V21.1452M239.679 21.1452H248.018M239.679 21.1452C239.907 23.426 238.805 28.3018 232.746 30.1749C232.341 30.3003 232.05 30.6681 232.05 31.0927V47.0484C232.05 47.6989 232.05 49 233.292 49H246.776C248.195 49 248.018 47.9355 248.018 47.0484V21.1452M232.583 6.06452C232.473 6.06452 231.291 6.27739 230.324 6.45581C229.885 6.53697 229.566 6.9208 229.566 7.36795V8.25434C229.566 8.72553 229.919 9.12214 230.387 9.17719L232.583 9.43548M232.583 6.06452V9.43548M232.583 9.43548V9.43548C232.583 9.82294 232.905 10.1314 233.292 10.1405C234.2 10.1619 235.263 10.2864 236.308 10.5712M236.308 10.5712C236.219 11.8463 235.417 14.365 233.082 16.379C232.37 16.9926 232.656 18.1814 233.576 17.9894C236.07 17.4686 238.748 15.8935 239.382 12.0968M236.308 10.5712C237.423 10.8747 238.517 11.3603 239.382 12.0968" stroke="#110638" stroke-width="1.67259"/>
<circle cx="243.941" cy="9.25803" r="0.836293" stroke="#FFC107" stroke-width="1.52096"/>
<path d="M240.027 44.5646C233.42 44.198 236.508 37.4319 239.397 34.0692C239.732 33.6798 240.324 33.6816 240.675 34.056C247.439 41.2669 243.302 44.7464 240.027 44.5646Z" stroke="#FFC107" stroke-width="1.67259"/>
<path d="M35.5 89L32.6959 86.1959C32.5677 86.0677 32.4768 85.9071 32.4328 85.7313L31.4299 81.7196C31.241 80.9642 31.9499 80.2923 32.6941 80.5213L37.2626 81.927C37.4185 81.9749 37.5603 82.0603 37.6756 82.1756L40 84.5M35.5 89L40 84.5M35.5 89L34.2467 90.2533C33.8411 90.6589 33.8591 91.322 34.2863 91.7049L47.2732 103.348C47.6774 103.711 48.2969 103.685 48.669 103.289L55.0806 96.4769C55.4609 96.0728 55.4395 95.4363 55.0329 95.0587L42.4739 83.3968C42.0809 83.0319 41.47 83.0419 41.0892 83.4196L40 84.5" stroke="#FF7A55" stroke-width="2"/>
<path d="M32.5 86.5L29.1746 90.2411C28.8037 90.6583 28.163 90.6911 27.7515 90.3139L16.8243 80.2973C16.6176 80.1078 16.5 79.8404 16.5 79.5601V67C16.5 66.4477 16.9477 66 17.5 66H31.6134C31.8622 66 32.102 66.0927 32.2861 66.2601L42.257 75.3245C42.6668 75.6971 42.6958 76.3319 42.3215 76.7402L37.5 82" stroke="#110638" stroke-width="2"/>
<path d="M107.431 22.1287C103.342 23.4916 95.4918 30.3468 96.8002 46.8648M107.431 18.2445C100.888 20.5614 88.4988 29.5291 91.279 46.8648M107.431 26.8306C105.249 30.0333 101.704 38.524 104.975 46.8648" stroke="#1475C2" stroke-width="2.00227" stroke-linecap="round" stroke-linejoin="round" stroke-dasharray="3.05 3.05"/>
<path d="M123.573 17.2215L149.127 17.2215M123.573 17.2215V22.3323M123.573 17.2215L126.34 13.5332C126.53 13.2812 126.826 13.1329 127.141 13.1329L130.729 13.1329M149.127 17.2215V22.3323M149.127 17.2215L146.158 13.5088C145.968 13.2712 145.68 13.1329 145.376 13.1329H142.995M149.127 22.3323L123.573 22.3323M149.127 22.3323C151.717 22.6049 156.855 24.2539 155.873 31.1228C155.26 33.3715 153.052 36.1109 149.127 36.438M149.127 22.3323V36.438M123.573 22.3323V28.0563M149.127 36.438V41.5697C149.127 42.1227 148.679 42.5709 148.126 42.5709L124.575 42.5709C124.022 42.5709 123.573 42.1227 123.573 41.5697V38.2778M113.965 28.0563L123.573 38.2778M113.965 28.0563L118.463 23.15M113.965 28.0563C110.277 28.3637 109.79 26.0481 110.027 24.6367C110.056 24.4649 110.144 24.3104 110.265 24.1846L114.562 19.7012C114.706 19.551 114.892 19.4465 115.099 19.4187C118.245 18.9933 118.661 21.6981 118.463 23.15M123.573 38.2778V28.0563M118.463 23.15L123.573 28.0563M130.729 13.1329C130.729 13.1329 133.475 7 136.862 7C140.249 7 142.995 13.1329 142.995 13.1329M130.729 13.1329H142.995M136.248 36.438C141.034 36.438 141.345 31.6867 141.061 28.8998C141.011 28.4113 140.589 28.0563 140.098 28.0563H132.418C131.918 28.0563 131.491 28.4271 131.45 28.9251C131.018 34.1902 133.725 36.438 136.248 36.438Z" stroke="#110638" stroke-width="2.00227"/>
<path d="M131.5 27.5C130.056 39 141.997 41 141.45 27.5H131.5Z" stroke="#FFC107" stroke-width="3"/>
<path d="M115.952 128.644V128.107C115.952 127.583 116.376 127.159 116.9 127.159H121.109C121.633 127.159 122.057 127.583 122.057 128.107V129.005M115.952 128.644L109.762 129.849C109.316 129.936 108.995 130.326 108.995 130.779V132.961C108.995 133.391 109.284 133.767 109.7 133.877L115.952 135.536M115.952 128.644V135.536M115.952 135.536V135.861C115.952 136.384 116.376 136.809 116.9 136.809H121.109C121.633 136.809 122.057 136.384 122.057 135.861V134.4M122.057 129.005C122.505 129.005 133.656 129.005 139.414 129.005C139.579 129.005 139.735 129.046 139.878 129.13C145.396 132.391 152.78 140.637 139.662 148.598M122.057 129.005V134.4M139.662 148.598H114.389M139.662 148.598H143.418C143.562 148.598 143.707 148.63 143.834 148.699C146.801 150.312 145.621 153.596 143.637 154.135M114.389 148.598C113.148 147.862 111.423 145.875 114.141 143.678C114.299 143.551 114.499 143.487 114.702 143.487H137.738C137.883 143.487 138.025 143.455 138.153 143.387C140.604 142.093 143.73 138.706 138.208 134.583C138.05 134.465 137.851 134.4 137.653 134.4H122.057M114.389 148.598H112.535C112.447 148.598 112.358 148.609 112.274 148.638C110.008 149.408 109.349 152.866 112.402 154.135M112.402 154.135H143.637M112.402 154.135C108.698 156.257 110.777 159.226 112.402 159.814M143.637 154.135C145.367 154.772 147.297 158.186 143.637 159.814M143.637 159.814H112.402M143.637 159.814C146.963 160.554 147.435 165.063 143.761 166.167C143.68 166.192 143.594 166.203 143.51 166.203H112.545C112.45 166.203 112.356 166.19 112.267 166.157C110.393 165.443 108.64 161.994 112.402 159.814" stroke="#1475C2" stroke-width="1.8952"/>
<path d="M117 127.087H121C121.552 127.087 122 127.534 122 128.087V135.85C122 136.403 121.552 136.85 121 136.85H117C116.448 136.85 116 136.403 116 135.85V128.087L116.005 127.984C116.056 127.48 116.482 127.087 117 127.087Z" stroke="#110638" stroke-width="2"/>
<path d="M115.5 135L109.29 133.669C108.829 133.571 108.5 133.163 108.5 132.692V130.367C108.5 129.87 108.866 129.448 109.359 129.377L115.5 128.5" stroke="#110638" stroke-width="2"/>
<path d="M27.3746 18.8694H43.4011C43.9077 18.8694 44.3342 19.2481 44.3941 19.7511L47.2123 43.4159C47.2831 44.0108 46.8184 44.5341 46.2193 44.5341H25.4044C24.8046 44.5341 24.3397 44.0098 24.4116 43.4143L24.4634 42.985M27.3746 18.8694L25.9595 30.5923M27.3746 18.8694C27.3746 12.9241 35.0789 2.33166 46.55 9.28168C51.667 12.3819 56.0362 21.9424 45.72 30.8853M25.9595 30.5923L15.7355 20.6278M25.9595 30.5923L24.4634 42.985M15.7355 20.6278L12.4698 23.3073M15.7355 20.6278C15.1833 18.6031 13.2265 14.9905 9.66915 15.783C9.25798 15.8746 8.99481 16.2612 8.99481 16.6824V21.1694C8.99481 21.813 9.60285 22.2955 10.2456 22.3284C11.0289 22.3685 11.9156 22.6094 12.4698 23.3073M12.4698 23.3073L24.4634 42.985" stroke="#110638" stroke-width="2"/>
<path d="M27.2728 18.5004L24.4541 43.3875C24.387 43.9805 24.8509 44.5 25.4478 44.5H46.9066C47.5144 44.5 47.9816 43.9624 47.8969 43.3606L46.0868 30.5004M27.2728 18.5004H43.6253C44.127 18.5004 44.551 18.8721 44.6167 19.3694L46.0868 30.5004M27.2728 18.5004C28.7728 -3.00001 66.0019 8.5 46.0868 30.5004" stroke="#1475C2" stroke-width="2"/>
</svg>
