<svg width="16" height="16" viewBox="0 0 16 16" fill="none" xmlns="http://www.w3.org/2000/svg">
<circle cx="8" cy="8" r="8" fill="#F5E63E"/>
<path d="M16 8C16 6.14916 15.3582 4.35557 14.1841 2.92485C13.0099 1.49413 11.376 0.514799 9.56072 0.153718C7.74544 -0.207364 5.86112 0.0721488 4.22883 0.94463C2.59653 1.81711 1.31725 3.22858 0.608964 4.93853C-0.0993228 6.64849 -0.192794 8.55113 0.344477 10.3223C0.881748 12.0934 2.01652 13.6235 3.55544 14.6518C5.09436 15.68 6.94221 16.1429 8.78414 15.9615C10.6261 15.7801 12.3481 14.9656 13.6569 13.6569L8 8H16Z" fill="#D75287"/>
<path d="M16 8C16 6.41775 15.5308 4.87103 14.6518 3.55544C13.7727 2.23984 12.5233 1.21446 11.0615 0.608964C9.59966 0.00346267 7.99113 -0.154964 6.43928 0.153718C4.88743 0.4624 3.46197 1.22433 2.34315 2.34315C1.22433 3.46197 0.4624 4.88743 0.153718 6.43928C-0.154964 7.99113 0.00346269 9.59966 0.608964 11.0615C1.21446 12.5233 2.23985 13.7727 3.55544 14.6518C4.87103 15.5308 6.41775 16 8 16V8H16Z" fill="#48423E"/>
<path d="M16 8C16 5.87827 15.1571 3.84344 13.6569 2.34315C12.1566 0.842855 10.1217 1.60186e-07 8 0C5.87827 -1.60186e-07 3.84344 0.842854 2.34315 2.34315C0.842855 3.84344 3.20373e-07 5.87827 0 8L8 8H16Z" fill="#15BAB2"/>
<path d="M16 8C16 6.34282 15.4854 4.72653 14.5272 3.37444C13.569 2.02234 12.2146 1.00118 10.651 0.45202C9.08749 -0.0971369 7.39199 -0.147182 5.79877 0.308798C4.20555 0.764779 2.79326 1.70428 1.757 2.9975L8 8H16Z" fill="#E945EC"/>
<path d="M16 8C16 6.03644 15.2779 4.14146 13.9711 2.67589C12.6643 1.21031 10.8642 0.276523 8.91345 0.0523208L8 8H16Z" fill="#388DED"/>
</svg>
