<svg width="260" height="178" viewBox="0 0 260 178" fill="none" xmlns="http://www.w3.org/2000/svg">
<path fill-rule="evenodd" clip-rule="evenodd" d="M232.486 1.20001C232.867 1.22073 233.16 1.54663 233.139 1.92794L232.497 13.7472C233.333 13.7543 234.13 13.8894 234.779 14.0744C235.147 14.179 235.36 14.5615 235.255 14.9288C235.15 15.296 234.768 15.5089 234.401 15.4043C233.683 15.1999 232.749 15.07 231.831 15.1575C230.813 15.2546 229.741 15.6245 229.029 16.365C228.356 17.0658 227.906 18.2013 228.288 20.0744C228.58 20.9519 229.255 22.0623 230.302 22.6501C231.194 23.1514 232.475 23.3386 234.258 22.4428C234.11 22.2749 233.932 22.0992 233.728 21.9357C233.264 21.5641 232.71 21.29 232.098 21.2622C231.717 21.2449 231.421 20.9216 231.439 20.5401C231.456 20.1586 231.779 19.8634 232.161 19.8808C233.153 19.9259 233.98 20.3657 234.593 20.8567C235.189 21.3342 235.623 21.8926 235.858 22.2963C236.357 23.0096 236.848 23.5554 237.446 23.884C238.027 24.2032 238.778 24.3546 239.874 24.1314C240.95 23.9122 242.055 23.2695 242.678 22.1586C243.291 21.0646 243.507 19.388 242.557 16.9495C242.419 16.5936 242.595 16.1928 242.951 16.0543C243.306 15.9157 243.707 16.0919 243.846 16.4477C244.901 19.1579 244.752 21.2858 243.884 22.8345C243.026 24.3662 241.534 25.2044 240.15 25.4864C238.785 25.7644 237.691 25.5969 236.78 25.0959C236.088 24.7156 235.544 24.1659 235.081 23.5732C232.866 24.7504 231.031 24.6458 229.624 23.8557C228.165 23.0358 227.313 21.5569 226.961 20.4651C226.953 20.4417 226.947 20.418 226.942 20.3939C226.472 18.1427 226.978 16.5032 228.032 15.4066C228.89 14.5143 230.041 14.0551 231.105 13.8627L231.758 1.85291C231.779 1.47161 232.105 1.17929 232.486 1.20001ZM240.878 1.52395C241.256 1.57422 241.522 1.92183 241.472 2.30038C241.436 2.57386 241.395 2.86866 241.352 3.1808C241.103 4.9874 240.773 7.37524 240.743 9.57735C240.726 10.8684 240.812 12.0496 241.06 12.9848C241.311 13.9326 241.693 14.5078 242.17 14.7728C242.504 14.9583 242.624 15.3792 242.439 15.713C242.253 16.0468 241.833 16.1671 241.499 15.9817C240.541 15.4493 240.014 14.4374 239.723 13.3386C239.429 12.2272 239.342 10.9024 239.36 9.55842C239.392 7.26198 239.736 4.77501 239.984 2.97437C240.027 2.66768 240.066 2.3809 240.101 2.11836C240.151 1.73982 240.499 1.47369 240.878 1.52395Z" fill="black"/>
<path fill-rule="evenodd" clip-rule="evenodd" d="M232.486 50.8159C232.867 50.7951 233.16 50.4692 233.139 50.0879L232.497 38.2687C233.333 38.2616 234.13 38.1264 234.779 37.9415C235.147 37.8369 235.36 37.4544 235.255 37.0871C235.15 36.7198 234.768 36.5069 234.401 36.6115C233.683 36.816 232.749 36.9459 231.831 36.8583C230.813 36.7612 229.741 36.3914 229.029 35.6509C228.356 34.9501 227.906 33.8146 228.288 31.9414C228.58 31.064 229.255 29.9536 230.302 29.3658C231.194 28.8645 232.475 28.6772 234.258 29.573C234.11 29.741 233.932 29.9167 233.728 30.0802C233.264 30.4518 232.71 30.7259 232.098 30.7537C231.717 30.771 231.421 31.0943 231.439 31.4758C231.456 31.8572 231.779 32.1524 232.161 32.1351C233.153 32.09 233.98 31.6502 234.593 31.1591C235.189 30.6817 235.623 30.1232 235.858 29.7196C236.357 29.0063 236.848 28.4604 237.446 28.1318C238.027 27.8127 238.778 27.6613 239.874 27.8845C240.95 28.1037 242.055 28.7463 242.678 29.8573C243.291 30.9512 243.507 32.6279 242.557 35.0664C242.419 35.4222 242.595 35.823 242.951 35.9616C243.306 36.1001 243.707 35.924 243.846 35.5682C244.901 32.858 244.752 30.7301 243.884 29.1813C243.026 27.6496 241.534 26.8114 240.15 26.5294C238.785 26.2515 237.691 26.419 236.78 26.92C236.088 27.3002 235.544 27.85 235.081 28.4427C232.866 27.2655 231.031 27.3701 229.624 28.1601C228.165 28.9801 227.313 30.459 226.961 31.5508C226.953 31.5741 226.947 31.5979 226.942 31.622C226.472 33.8732 226.978 35.5127 228.032 36.6092C228.89 37.5015 230.041 37.9608 231.105 38.1532L231.758 50.163C231.779 50.5443 232.105 50.8366 232.486 50.8159ZM240.878 50.4919C241.256 50.4417 241.522 50.094 241.472 49.7155C241.436 49.442 241.395 49.1472 241.352 48.8351C241.103 47.0285 240.773 44.6406 240.743 42.4385C240.726 41.1474 240.812 39.9662 241.06 39.031C241.311 38.0833 241.693 37.5081 242.17 37.243C242.504 37.0576 242.624 36.6366 242.439 36.3028C242.253 35.969 241.833 35.8488 241.499 36.0342C240.541 36.5665 240.014 37.5785 239.723 38.6773C239.429 39.7886 239.342 41.1134 239.36 42.4574C239.392 44.7539 239.736 47.2409 239.984 49.0415C240.027 49.3482 240.066 49.635 240.101 49.8975C240.151 50.2761 240.499 50.5422 240.878 50.4919Z" fill="black"/>
<path fill-rule="evenodd" clip-rule="evenodd" d="M220.396 18.5681C220.572 18.2288 220.989 18.096 221.328 18.2713L225.383 20.3672C225.722 20.5426 225.855 20.9597 225.68 21.2989C225.505 21.6382 225.087 21.771 224.748 21.5957L220.693 19.4998C220.354 19.3244 220.221 18.9073 220.396 18.5681ZM250.943 20.0256C251.094 20.3766 250.931 20.7831 250.58 20.9335L246.434 22.7105C246.083 22.8609 245.677 22.6984 245.526 22.3474C245.376 21.9964 245.538 21.5899 245.889 21.4395L250.036 19.6625C250.387 19.5121 250.793 19.6747 250.943 20.0256ZM220 24.8088C220 24.4269 220.31 24.1174 220.692 24.1174H225.066C225.448 24.1174 225.757 24.4269 225.757 24.8088C225.757 25.1907 225.448 25.5002 225.066 25.5002H220.692C220.31 25.5002 220 25.1907 220 24.8088ZM245.47 25.9023C245.47 25.5205 245.78 25.2109 246.162 25.2109H250.308C250.69 25.2109 250.999 25.5205 250.999 25.9023C250.999 26.2842 250.69 26.5938 250.308 26.5938H246.162C245.78 26.5938 245.47 26.2842 245.47 25.9023ZM225.416 28.247C225.581 28.5915 225.435 29.0043 225.09 29.1689L220.99 31.1281C220.645 31.2928 220.232 31.1469 220.068 30.8023C219.903 30.4578 220.049 30.045 220.394 29.8804L224.494 27.9211C224.839 27.7565 225.252 27.9024 225.416 28.247ZM245.105 29.0684C245.294 28.7367 245.717 28.6209 246.048 28.81L249.967 31.0426C250.299 31.2316 250.414 31.6539 250.225 31.9856C250.036 32.3174 249.614 32.4332 249.282 32.2441L245.364 30.0115C245.032 29.8225 244.916 29.4002 245.105 29.0684Z" fill="black"/>
<path fill-rule="evenodd" clip-rule="evenodd" d="M135.024 1.18683C135.4 0.998883 135.792 0.977418 136.063 1.01611C136.096 1.02076 136.128 1.02755 136.16 1.03643L145.032 3.52586C145.396 3.6072 145.703 3.77476 145.94 4.01882C146.178 4.26439 146.311 4.55259 146.381 4.82241C146.513 5.33507 146.438 5.85602 146.339 6.18708L145.574 8.99296C145.57 9.00633 145.566 9.01959 145.562 9.03274C145.389 9.55165 145.041 9.87753 144.664 10.0461C144.313 10.2024 143.957 10.2167 143.704 10.1745C143.682 10.1707 143.659 10.1659 143.637 10.1601L141.872 9.69577L141.335 11.2168L142.137 11.4739C142.142 11.4757 142.148 11.4777 142.154 11.4797C142.517 11.606 143.003 11.8935 143.349 12.3804C143.717 12.8993 143.895 13.6037 143.652 14.4408L142.949 16.9333C142.836 17.3314 142.423 17.5631 142.024 17.4509C141.626 17.3386 141.395 16.9248 141.507 16.5267L142.211 14.0313L142.213 14.0249C142.326 13.635 142.237 13.4022 142.127 13.2479C141.997 13.0641 141.796 12.9432 141.669 12.8969L134.897 10.7248C134.864 10.7143 134.832 10.7016 134.801 10.6868C134.6 10.5902 134.473 10.5892 134.398 10.6019C134.318 10.6154 134.23 10.6564 134.131 10.7453C133.914 10.941 133.746 11.2822 133.672 11.5524C133.671 11.5584 133.669 11.5643 133.667 11.5702L129.129 26.7196C129.065 26.9757 129.024 27.3688 129.09 27.7038C129.154 28.0265 129.282 28.1749 129.472 28.2395L136.634 30.5415C136.648 30.5459 136.662 30.5508 136.676 30.556C136.913 30.648 137.295 30.719 137.63 30.6537C137.913 30.5985 138.167 30.4529 138.322 30.0463L139.853 25.3899C139.982 24.997 140.405 24.7832 140.798 24.9124C141.191 25.0415 141.405 25.4648 141.276 25.8578L139.74 30.5287C139.737 30.5375 139.734 30.5462 139.731 30.5549C139.373 31.5214 138.648 31.9815 137.916 32.1241C137.479 32.2091 137.046 32.1826 136.68 32.1096L134.431 34.9217C134.235 35.1657 133.909 35.2629 133.612 35.1654L129.517 33.8217C129.21 33.7208 129.002 33.4338 129.002 33.1101V29.6616C128.119 29.3673 127.747 28.6304 127.621 27.9941C127.498 27.3739 127.577 26.738 127.682 26.3325C127.684 26.3232 127.687 26.3139 127.689 26.3047L132.23 11.1486C132.35 10.7151 132.629 10.0834 133.128 9.63302C133.389 9.39718 133.729 9.19585 134.147 9.12498C134.554 9.05601 134.977 9.12053 135.399 9.31289L135.48 9.33876L135.904 8.06048L134.447 7.58896C133.776 7.37182 133.386 6.91446 133.218 6.41434C133.063 5.95516 133.104 5.49883 133.19 5.19894C133.193 5.18851 133.196 5.17814 133.199 5.16785L134.147 2.32349C134.282 1.75892 134.624 1.38683 135.024 1.18683ZM137.341 8.48621L136.906 9.7963L139.908 10.7591L140.42 9.31006L137.341 8.48621ZM141.594 8.07356L143.963 8.69697C143.969 8.69688 143.977 8.69652 143.986 8.69554C144.011 8.69277 144.035 8.68648 144.053 8.67818C144.07 8.67066 144.082 8.66203 144.092 8.6512C144.1 8.6422 144.118 8.62067 144.135 8.57401L144.896 5.78349C144.898 5.77646 144.9 5.76946 144.902 5.76249C144.951 5.60235 144.975 5.36808 144.931 5.19678C144.911 5.12162 144.885 5.08269 144.865 5.06179C144.849 5.04533 144.808 5.00925 144.697 4.98589C144.681 4.98249 144.665 4.97856 144.649 4.97411L135.823 2.49794C135.811 2.49814 135.798 2.49906 135.783 2.50106C135.747 2.50587 135.716 2.51539 135.694 2.52666C135.674 2.53676 135.661 2.54759 135.65 2.56075C135.641 2.57302 135.618 2.60635 135.602 2.68232C135.596 2.70934 135.589 2.73602 135.58 2.76223L134.627 5.62165C134.608 5.69728 134.601 5.82805 134.637 5.93549C134.653 5.98362 134.676 6.02123 134.707 6.05247C134.736 6.0818 134.791 6.12425 134.898 6.1603L141.594 8.07356ZM130.5 30.1431V32.5676L133.586 33.5801L135.142 31.6351L130.5 30.1431Z" fill="black"/>
<path d="M142.167 21.017C142.167 21.5117 141.766 21.9128 141.271 21.9128C140.776 21.9128 140.375 21.5117 140.375 21.017C140.375 20.5223 140.776 20.1212 141.271 20.1212C141.766 20.1212 142.167 20.5223 142.167 21.017Z" fill="black"/>
<path fill-rule="evenodd" clip-rule="evenodd" d="M141.266 23.87C142.771 23.87 143.991 22.65 143.991 21.145C143.991 19.64 142.771 18.42 141.266 18.42C139.761 18.42 138.541 19.64 138.541 21.145C138.541 22.65 139.761 23.87 141.266 23.87ZM141.266 25.368C143.598 25.368 145.489 23.4773 145.489 21.145C145.489 18.8127 143.598 16.922 141.266 16.922C138.934 16.922 137.043 18.8127 137.043 21.145C137.043 23.4773 138.934 25.368 141.266 25.368Z" fill="black"/>
<path fill-rule="evenodd" clip-rule="evenodd" d="M144.849 20.6724C145.11 20.3514 145.582 20.3028 145.903 20.5637C147.295 21.695 149.17 23.8036 150.345 26.5091C151.528 29.2304 152.015 32.592 150.537 36.1487C149.743 38.06 146.822 41.9383 141.487 44.6282L142.034 45.9898H146.39C146.724 45.9898 147.031 46.0743 147.292 46.2452C147.549 46.4135 147.721 46.6387 147.831 46.8592C148.031 47.2589 148.06 47.6941 148.035 47.9891V51.2177C148.035 51.8042 147.762 52.2376 147.446 52.5166C147.148 52.7796 146.801 52.9194 146.547 52.9738C146.496 52.9849 146.443 52.9904 146.39 52.9904H120.251C119.507 53.0475 118.916 52.8442 118.514 52.4416C118.129 52.0567 118 51.5722 118 51.2177V47.9545C118 47.9283 118.001 47.9021 118.004 47.8761C118.083 47.1255 118.496 46.6284 118.965 46.3424C119.405 46.0745 119.889 45.9898 120.221 45.9898H123.779L127.607 37.9702C127.731 37.7097 127.994 37.5438 128.283 37.5438H138.136C138.442 37.5438 138.717 37.7298 138.831 38.0137L139.249 39.054C141.91 38.0161 143.733 36.4897 144.3 35.8699C146.184 33.775 146.411 31.5748 145.945 29.6381C145.47 27.6606 144.265 25.9549 143.304 25.0044C143.01 24.7135 143.008 24.2392 143.299 23.9452C143.59 23.6512 144.064 23.6488 144.358 23.9397C145.466 25.0368 146.846 26.9782 147.402 29.2877C147.967 31.6372 147.672 34.363 145.411 36.8743L145.408 36.8786C144.693 37.6605 142.684 39.3191 139.807 40.4441L140.927 43.2328C145.902 40.6899 148.517 37.1072 149.154 35.5741C150.441 32.4764 150.032 29.5461 148.971 27.106C147.904 24.65 146.19 22.7275 144.958 21.726C144.637 21.4651 144.589 20.9934 144.849 20.6724ZM125.439 45.9898H140.42L137.63 39.0418H128.755L125.439 45.9898ZM119.498 48.0001V51.2177C119.498 51.2471 119.516 51.3257 119.573 51.3823C119.606 51.415 119.739 51.5316 120.156 51.4953C120.177 51.4934 120.199 51.4925 120.221 51.4925H146.287C146.3 51.4873 146.316 51.4808 146.332 51.4728C146.379 51.4506 146.421 51.4233 146.455 51.3937C146.487 51.3648 146.506 51.3385 146.517 51.3164C146.527 51.297 146.537 51.2677 146.537 51.2177V47.9545C146.537 47.9283 146.539 47.9021 146.541 47.8761C146.546 47.8323 146.547 47.7657 146.537 47.694C146.527 47.6217 146.51 47.566 146.492 47.5302C146.482 47.5099 146.474 47.5011 146.471 47.4982C146.464 47.495 146.44 47.4878 146.39 47.4878H120.221C120.105 47.4878 119.904 47.5246 119.745 47.6214C119.622 47.6962 119.527 47.7998 119.498 48.0001Z" fill="black"/>
<path fill-rule="evenodd" clip-rule="evenodd" d="M41.1145 62.5706C41.5401 62.5706 41.8852 62.9156 41.8852 63.3412V68.9574H43.2799C43.7055 68.9574 44.0506 69.3025 44.0506 69.7281V71.8884H45.1172C45.5429 71.8884 45.8879 72.2334 45.8879 72.6591V84.0497H47.0858C47.1091 84.0497 47.1324 84.0508 47.1556 84.0529C48.0627 84.1353 49.776 84.9042 49.9963 87.1512C49.9988 87.1762 50 87.2013 50 87.2264V101.181C50 101.664 49.8616 102.366 49.4379 102.989C48.9925 103.644 48.2506 104.178 47.1485 104.268C47.1276 104.27 47.1067 104.27 47.0858 104.27H12.6141C12.5917 104.27 12.5692 104.27 12.5468 104.268C10.9859 104.131 10.0655 103.24 9.56993 102.263C9.09491 101.326 8.99997 100.305 9 99.7377C9 99.7377 9 99.7377 9 99.7377V80.0084C9 80.0084 9 80.0084 9 80.0084C8.99992 78.6827 9.21993 77.751 9.56296 77.093C9.9152 76.4173 10.3765 76.0708 10.7641 75.8946L10.7744 75.89C12.9894 74.922 14.0152 73.6923 14.4558 72.6288C14.7922 71.8167 14.8072 71.056 14.7033 70.4988H13.839C13.4134 70.4988 13.0684 70.1537 13.0684 69.7281V63.9974C13.0684 63.5718 13.4134 63.2267 13.839 63.2267H28.5376C28.9632 63.2267 29.3083 63.5718 29.3083 63.9974V69.7281C29.3083 70.1537 28.9632 70.4988 28.5376 70.4988H27.8453C27.7216 71.0824 27.7428 71.7536 28.091 72.4872C28.5558 73.4664 29.6544 74.6654 32.044 75.913C32.6685 76.2391 33.1434 76.6433 33.422 77.2648C33.6793 77.8387 33.7266 78.513 33.7266 79.2647V84.0497H36.2536V72.6591C36.2536 72.2334 36.5986 71.8884 37.0243 71.8884H38.1784V69.7281C38.1784 69.3025 38.5234 68.9574 38.9491 68.9574H40.3438V63.3412C40.3438 62.9156 40.6889 62.5706 41.1145 62.5706ZM39.7198 71.8884H42.5092V70.4988H39.7198V71.8884ZM37.7949 84.0497H44.3465V84.0162H41.9238C41.4982 84.0162 41.1531 83.6712 41.1531 83.2455C41.1531 82.8199 41.4982 82.4749 41.9238 82.4749H44.3465V80.779H40.6552C40.2295 80.779 39.8845 80.434 39.8845 80.0084C39.8845 79.5827 40.2295 79.2377 40.6552 79.2377H44.3465V77.1044H41.9238C41.4982 77.1044 41.1531 76.7593 41.1531 76.3337C41.1531 75.9081 41.4982 75.563 41.9238 75.563H44.3465V73.4298H37.7949V84.0497ZM32.1852 84.0497V80.779H10.5414V93.3676H15.3431V87.2417C15.3268 86.7955 15.4151 86.1427 15.7353 85.5321C16.0731 84.8878 16.6785 84.2819 17.6547 84.0676C17.7089 84.0557 17.7643 84.0497 17.8199 84.0497H32.1852ZM15.3431 94.9089H10.5414V99.7377C10.5413 100.177 10.6214 100.928 10.9447 101.566C11.2441 102.156 11.7375 102.639 12.6499 102.729H15.7452C15.524 102.32 15.3713 101.819 15.3439 101.216C15.3434 101.205 15.3431 101.193 15.3431 101.181V94.9089ZM17.929 102.729H47.0521C47.6463 102.673 47.9688 102.409 48.1633 102.123C48.3827 101.8 48.4586 101.414 48.4586 101.181V87.2663C48.3194 86.0051 47.4348 85.64 47.0451 85.5911H17.9117C17.4981 85.7026 17.2552 85.9526 17.1004 86.2479C16.9233 86.5855 16.874 86.9687 16.8838 87.1929C16.8842 87.2041 16.8845 87.2152 16.8845 87.2264V101.163C16.9376 102.183 17.5976 102.614 17.929 102.729ZM10.5736 79.2377H32.1852C32.1838 78.5196 32.1264 78.1425 32.0156 77.8954C31.9247 77.6927 31.7652 77.5063 31.3306 77.2794C28.7769 75.946 27.3602 74.5421 26.6985 73.1481C26.2427 72.1879 26.1696 71.2846 26.2813 70.4988H16.2624C16.3613 71.2875 16.286 72.2383 15.8798 73.2187C15.2601 74.7145 13.9035 76.2032 11.3978 77.2997C11.3028 77.3436 11.1108 77.4582 10.9297 77.8055C10.7841 78.0849 10.6369 78.5325 10.5736 79.2377ZM14.6097 64.7681V68.9574H27.7669V64.7681H14.6097Z" fill="black"/>
<path fill-rule="evenodd" clip-rule="evenodd" d="M21.1435 92.2034C21.8385 92.2034 22.4018 91.64 22.4018 90.945C22.4018 90.25 21.8385 89.6866 21.1435 89.6866C20.4485 89.6866 19.8851 90.25 19.8851 90.945C19.8851 91.64 20.4485 92.2034 21.1435 92.2034ZM21.1435 93.7447C22.6897 93.7447 23.9432 92.4912 23.9432 90.945C23.9432 89.3987 22.6897 88.1453 21.1435 88.1453C19.5972 88.1453 18.3438 89.3987 18.3438 90.945C18.3438 92.4912 19.5972 93.7447 21.1435 93.7447Z" fill="black"/>
<path fill-rule="evenodd" clip-rule="evenodd" d="M21.1435 99.0276C21.8385 99.0276 22.4018 98.4642 22.4018 97.7692C22.4018 97.0742 21.8385 96.5108 21.1435 96.5108C20.4485 96.5108 19.8851 97.0742 19.8851 97.7692C19.8851 98.4642 20.4485 99.0276 21.1435 99.0276ZM21.1435 100.569C22.6897 100.569 23.9432 99.3155 23.9432 97.7692C23.9432 96.223 22.6897 94.9695 21.1435 94.9695C19.5972 94.9695 18.3438 96.223 18.3438 97.7692C18.3438 99.3155 19.5972 100.569 21.1435 100.569Z" fill="black"/>
<path fill-rule="evenodd" clip-rule="evenodd" d="M28.7568 92.2034C29.4517 92.2034 30.0151 91.64 30.0151 90.945C30.0151 90.25 29.4517 89.6866 28.7568 89.6866C28.0618 89.6866 27.4984 90.25 27.4984 90.945C27.4984 91.64 28.0618 92.2034 28.7568 92.2034ZM28.7568 93.7447C30.303 93.7447 31.5565 92.4912 31.5565 90.945C31.5565 89.3987 30.303 88.1453 28.7568 88.1453C27.2105 88.1453 25.957 89.3987 25.957 90.945C25.957 92.4912 27.2105 93.7447 28.7568 93.7447Z" fill="black"/>
<path fill-rule="evenodd" clip-rule="evenodd" d="M28.7568 99.0276C29.4517 99.0276 30.0151 98.4642 30.0151 97.7692C30.0151 97.0742 29.4517 96.5108 28.7568 96.5108C28.0618 96.5108 27.4984 97.0742 27.4984 97.7692C27.4984 98.4642 28.0618 99.0276 28.7568 99.0276ZM28.7568 100.569C30.303 100.569 31.5565 99.3155 31.5565 97.7692C31.5565 96.223 30.303 94.9695 28.7568 94.9695C27.2105 94.9695 25.957 96.223 25.957 97.7692C25.957 99.3155 27.2105 100.569 28.7568 100.569Z" fill="black"/>
<path fill-rule="evenodd" clip-rule="evenodd" d="M36.456 92.2034C37.151 92.2034 37.7143 91.64 37.7143 90.945C37.7143 90.25 37.151 89.6866 36.456 89.6866C35.761 89.6866 35.1976 90.25 35.1976 90.945C35.1976 91.64 35.761 92.2034 36.456 92.2034ZM36.456 93.7447C38.0022 93.7447 39.2557 92.4912 39.2557 90.945C39.2557 89.3987 38.0022 88.1453 36.456 88.1453C34.9097 88.1453 33.6562 89.3987 33.6562 90.945C33.6562 92.4912 34.9097 93.7447 36.456 93.7447Z" fill="black"/>
<path fill-rule="evenodd" clip-rule="evenodd" d="M36.456 99.0276C37.151 99.0276 37.7143 98.4642 37.7143 97.7692C37.7143 97.0742 37.151 96.5108 36.456 96.5108C35.761 96.5108 35.1976 97.0742 35.1976 97.7692C35.1976 98.4642 35.761 99.0276 36.456 99.0276ZM36.456 100.569C38.0022 100.569 39.2557 99.3155 39.2557 97.7692C39.2557 96.223 38.0022 94.9695 36.456 94.9695C34.9097 94.9695 33.6562 96.223 33.6562 97.7692C33.6562 99.3155 34.9097 100.569 36.456 100.569Z" fill="black"/>
<path fill-rule="evenodd" clip-rule="evenodd" d="M44.1552 92.2034C44.8502 92.2034 45.4136 91.64 45.4136 90.945C45.4136 90.25 44.8502 89.6866 44.1552 89.6866C43.4602 89.6866 42.8968 90.25 42.8968 90.945C42.8968 91.64 43.4602 92.2034 44.1552 92.2034ZM44.1552 93.7447C45.7014 93.7447 46.9549 92.4912 46.9549 90.945C46.9549 89.3987 45.7014 88.1453 44.1552 88.1453C42.6089 88.1453 41.3555 89.3987 41.3555 90.945C41.3555 92.4912 42.6089 93.7447 44.1552 93.7447Z" fill="black"/>
<path fill-rule="evenodd" clip-rule="evenodd" d="M44.1552 99.0276C44.8502 99.0276 45.4136 98.4642 45.4136 97.7692C45.4136 97.0742 44.8502 96.5108 44.1552 96.5108C43.4602 96.5108 42.8968 97.0742 42.8968 97.7692C42.8968 98.4642 43.4602 99.0276 44.1552 99.0276ZM44.1552 100.569C45.7014 100.569 46.9549 99.3155 46.9549 97.7692C46.9549 96.223 45.7014 94.9695 44.1552 94.9695C42.6089 94.9695 41.3555 96.223 41.3555 97.7692C41.3555 99.3155 42.6089 100.569 44.1552 100.569Z" fill="black"/>
<path fill-rule="evenodd" clip-rule="evenodd" d="M215.889 150.244L218.983 159.81L220.631 159.385C220.789 159.345 220.955 159.353 221.108 159.408L220.833 160.171C221.108 159.408 221.108 159.408 221.108 159.408L221.421 159.52C221.621 159.592 221.909 159.695 222.257 159.82C222.954 160.07 223.896 160.407 224.875 160.756C226.841 161.457 228.93 162.196 229.506 162.38C230.488 162.695 231.616 162.563 232.344 162.126C232.358 162.117 232.373 162.109 232.388 162.101L249.236 153.374C249.723 152.308 249.505 151.8 249.306 151.554C249.05 151.236 248.577 151.035 248.13 150.964L235.901 154.994C235.827 155.554 235.629 156.198 235.245 156.771C234.676 157.62 233.714 158.284 232.288 158.284C232.204 158.284 232.121 158.271 232.042 158.246L224.895 155.974C224.468 155.838 224.232 155.382 224.368 154.955C224.503 154.528 224.959 154.292 225.386 154.428L232.406 156.659C233.178 156.627 233.621 156.281 233.897 155.868C234.216 155.392 234.325 154.799 234.311 154.427C234.297 154.041 234.063 153.552 233.478 152.969C232.905 152.397 232.08 151.822 231.091 151.27C229.119 150.17 226.639 149.24 224.626 148.642C224.582 148.629 224.539 148.613 224.499 148.593C224.099 148.396 223.495 148.303 222.696 148.341C221.912 148.379 221.017 148.539 220.095 148.775C218.565 149.166 217.023 149.747 215.889 150.244ZM235.704 153.351L247.795 149.366C247.901 149.331 248.012 149.319 248.123 149.329C248.833 149.394 249.896 149.701 250.569 150.535C251.315 151.46 251.38 152.761 250.569 154.341C250.492 154.491 250.37 154.613 250.22 154.691L233.155 163.531C231.992 164.218 230.386 164.365 229.011 163.925C228.403 163.731 226.28 162.979 224.33 162.284C223.35 161.935 222.407 161.597 221.71 161.347C221.361 161.222 221.073 161.119 220.873 161.047L220.794 161.019L219.483 161.357L220.091 163.234C220.158 163.441 220.139 163.666 220.038 163.859C219.937 164.052 219.764 164.196 219.556 164.26L213.97 165.964C213.543 166.094 213.091 165.855 212.959 165.428L208.036 149.525C207.906 149.102 208.138 148.652 208.559 148.514L213.907 146.763C214.112 146.696 214.335 146.713 214.528 146.811C214.72 146.908 214.865 147.079 214.932 147.284L215.387 148.693C216.571 148.182 218.13 147.602 219.693 147.203C220.677 146.952 221.687 146.766 222.618 146.721C223.509 146.678 224.406 146.76 225.149 147.105C227.22 147.724 229.791 148.687 231.882 149.854C232.935 150.442 233.903 151.101 234.624 151.82C235.077 152.272 235.469 152.784 235.704 153.351ZM209.822 149.807L214.27 164.176L218.293 162.949L213.639 148.558L209.822 149.807Z" fill="black"/>
<path fill-rule="evenodd" clip-rule="evenodd" d="M234.043 121.979V143.368C234.514 143.939 235.094 144.508 235.718 144.946C236.429 145.443 237.131 145.725 237.762 145.729C238.348 145.733 238.978 145.498 239.606 144.727C240.188 144.013 240.76 142.841 241.224 141.015C240.679 140.787 240.122 140.491 239.555 140.118C239.181 139.871 239.077 139.368 239.323 138.994C239.569 138.62 240.072 138.516 240.446 138.762C241.149 139.224 241.81 139.534 242.424 139.729C245.176 140.604 247.23 139.222 248.053 138.218C248.637 136.807 248.493 135.929 248.229 135.411C247.943 134.851 247.433 134.548 247.071 134.447C246.64 134.326 246.388 133.879 246.508 133.447C246.629 133.016 247.076 132.764 247.508 132.884C247.889 132.991 248.332 133.199 248.742 133.53C248.875 132.798 248.715 132.159 248.425 131.612C247.973 130.756 247.189 130.106 246.61 129.783C246.219 129.564 246.079 129.07 246.297 128.679C246.498 128.319 246.933 128.172 247.306 128.321C246.977 126.755 246.483 125.953 246.061 125.571C245.561 125.118 245.078 125.186 244.781 125.342C244.385 125.552 243.895 125.4 243.685 125.004C243.476 124.608 243.627 124.118 244.023 123.908C244.294 123.765 244.612 123.66 244.957 123.62C244.643 123.121 244.236 122.832 243.826 122.662C243.122 122.37 242.33 122.398 241.824 122.521C241.414 122.648 240.461 123.246 240.433 124.642C240.424 125.09 240.053 125.445 239.605 125.436C239.157 125.427 238.802 125.057 238.811 124.609C238.843 123.016 239.637 122.003 240.419 121.445C239.811 120.652 239.231 120.178 238.709 119.915C238.061 119.588 237.452 119.56 236.88 119.707C235.747 120 234.702 121.006 234.043 121.979ZM241.99 120.847C241.185 119.695 240.331 118.917 239.44 118.467C238.418 117.952 237.403 117.897 236.475 118.136C235.21 118.463 234.141 119.321 233.361 120.213C232.831 119.382 232.062 118.575 231.043 118.205C230.237 117.913 229.328 117.917 228.368 118.335C227.523 118.703 226.665 119.38 225.789 120.406C225.069 120.351 224.136 120.417 223.208 120.75C222.032 121.171 220.852 122.029 220.181 123.596C220.174 123.611 220.168 123.626 220.162 123.642C219.956 124.22 219.794 124.964 219.791 125.739C219.79 126.292 219.87 126.888 220.095 127.457C219.195 128.254 218.244 129.455 217.905 130.893C217.696 131.78 217.723 132.753 218.139 133.741C218.482 134.558 219.074 135.349 219.95 136.097C219.339 137.524 219.609 139.443 221.199 141.375C222.161 142.544 223.723 143.191 225.158 143.007C225.664 144.163 226.54 145.484 227.828 146.148C228.642 146.568 229.598 146.712 230.649 146.403C231.474 146.161 232.318 145.652 233.184 144.85C233.652 145.361 234.195 145.859 234.787 146.274C235.642 146.873 236.666 147.345 237.752 147.352C238.884 147.358 239.962 146.859 240.864 145.752C241.637 144.803 242.281 143.411 242.776 141.494C246.005 142.138 248.415 140.406 249.399 139.131C249.44 139.077 249.475 139.018 249.502 138.956C250.156 137.435 250.216 136.174 249.884 135.176C250.69 133.535 250.485 132.037 249.86 130.854C249.663 130.482 249.427 130.143 249.171 129.84C248.888 126.987 248.149 125.272 247.15 124.368C247.078 124.303 247.005 124.242 246.931 124.186C246.514 122.562 245.548 121.621 244.449 121.164C243.594 120.809 242.701 120.763 241.99 120.847ZM232.421 143.329V137.486C232.166 137.597 231.86 137.574 231.619 137.398C231.06 136.991 230.555 137.021 230.085 137.23C229.568 137.46 229.12 137.907 228.879 138.25C228.621 138.617 228.115 138.705 227.748 138.447C227.382 138.189 227.294 137.683 227.552 137.317C227.91 136.808 228.569 136.128 229.426 135.748C230.289 135.364 231.363 135.288 232.421 135.981V121.897C232.028 120.969 231.328 120.035 230.49 119.731C230.087 119.585 229.607 119.565 229.016 119.822C228.561 120.021 228.027 120.39 227.423 121.018C227.723 121.235 228.008 121.504 228.251 121.811C228.799 122.503 229.192 123.474 228.962 124.599C228.873 125.037 228.444 125.32 228.005 125.231C227.566 125.141 227.283 124.712 227.373 124.273C227.484 123.731 227.31 123.235 226.979 122.818C226.646 122.396 226.215 122.136 225.955 122.058C225.438 121.974 224.587 121.979 223.756 122.277C222.934 122.571 222.147 123.143 221.682 124.212C221.532 124.639 221.415 125.189 221.414 125.743C221.412 126.309 221.53 126.826 221.794 127.229C222.136 127.75 222.849 128.263 224.429 128.263C224.877 128.263 225.24 128.626 225.24 129.074C225.24 129.522 224.877 129.886 224.429 129.886C222.916 129.886 221.793 129.49 221.026 128.803C220.349 129.44 219.708 130.315 219.484 131.265C219.346 131.852 219.365 132.471 219.634 133.113C219.852 133.632 220.249 134.2 220.92 134.791C221.758 134.096 222.91 133.836 223.987 134.291C224.399 134.465 224.593 134.941 224.418 135.354C224.244 135.766 223.768 135.96 223.356 135.785C222.801 135.551 222.098 135.745 221.652 136.364C221.149 137.062 220.92 138.483 222.452 140.345C223.216 141.273 224.498 141.62 225.379 141.295C225.941 141.088 226.473 140.56 226.554 139.384C226.585 138.938 226.972 138.6 227.419 138.631C227.866 138.661 228.203 139.048 228.172 139.495C228.079 140.852 227.519 141.848 226.678 142.434C227.099 143.367 227.759 144.288 228.571 144.707C229.035 144.945 229.562 145.031 230.192 144.846C230.797 144.669 231.543 144.227 232.421 143.329ZM231.888 125.59C232.192 125.92 232.171 126.433 231.841 126.736C231.232 127.298 230.609 127.656 229.997 127.853C230.022 128.146 230.068 128.485 230.143 128.834C230.285 129.494 230.515 130.103 230.839 130.511C231.117 130.862 231.058 131.372 230.707 131.651C230.356 131.929 229.846 131.87 229.568 131.519C229.021 130.829 228.722 129.941 228.557 129.176C228.47 128.77 228.415 128.375 228.384 128.023C227.465 127.925 226.727 127.509 226.298 127.119C225.966 126.818 225.941 126.305 226.242 125.974C226.543 125.642 227.056 125.617 227.387 125.918C227.663 126.168 228.292 126.501 229.063 126.406C229.534 126.348 230.11 126.126 230.742 125.543C231.071 125.24 231.585 125.261 231.888 125.59ZM235.505 125.56C235.826 125.247 236.339 125.253 236.652 125.573C236.923 125.85 237.514 126.245 238.251 126.333C238.784 126.396 239.421 126.304 240.122 125.842C240.495 125.595 240.999 125.698 241.245 126.072C241.492 126.445 241.389 126.949 241.016 127.195C240.312 127.66 239.611 127.89 238.948 127.954C238.879 128.953 238.632 130.391 237.965 131.597C237.749 131.989 237.255 132.131 236.863 131.914C236.471 131.698 236.329 131.204 236.545 130.812C237.079 129.847 237.281 128.618 237.333 127.792C236.514 127.547 235.87 127.094 235.492 126.707C235.179 126.386 235.185 125.873 235.505 125.56ZM224.245 130.898C224.414 130.483 224.888 130.284 225.303 130.453C225.875 130.686 226.617 131.213 227.108 132.066C227.616 132.949 227.823 134.126 227.381 135.561C227.249 135.989 226.796 136.229 226.367 136.097C225.939 135.966 225.699 135.512 225.831 135.084C226.146 134.057 225.975 133.349 225.702 132.875C225.412 132.371 224.97 132.069 224.691 131.956C224.276 131.787 224.076 131.313 224.245 130.898ZM237.213 137.119C236.694 137.086 236.139 137.268 235.798 137.454C235.405 137.669 234.912 137.524 234.697 137.13C234.483 136.737 234.628 136.244 235.021 136.03C235.548 135.743 236.408 135.442 237.315 135.499C238.278 135.56 239.275 136.032 239.874 137.231C240.074 137.632 239.912 138.119 239.511 138.32C239.111 138.52 238.623 138.357 238.423 137.957C238.114 137.338 237.674 137.148 237.213 137.119Z" fill="black"/>
<path fill-rule="evenodd" clip-rule="evenodd" d="M25.4023 33.6193C25.4023 33.2546 25.698 32.9589 26.0628 32.9589H29.45C29.8148 32.9589 30.1104 33.2546 30.1104 33.6193C30.1104 33.9841 29.8148 34.2797 29.45 34.2797H26.0628C25.698 34.2797 25.4023 33.9841 25.4023 33.6193Z" fill="black"/>
<path fill-rule="evenodd" clip-rule="evenodd" d="M25.4023 11.5162C25.4023 11.1514 25.698 10.8557 26.0628 10.8557H29.45C29.8148 10.8557 30.1104 11.1514 30.1104 11.5162C30.1104 11.8809 29.8148 12.1766 29.45 12.1766H26.0628C25.698 12.1766 25.4023 11.8809 25.4023 11.5162Z" fill="black"/>
<path fill-rule="evenodd" clip-rule="evenodd" d="M25.4023 35.9731C25.4023 35.6083 25.698 35.3126 26.0628 35.3126H29.45C29.8148 35.3126 30.1104 35.6083 30.1104 35.9731C30.1104 36.3378 29.8148 36.6335 29.45 36.6335H26.0628C25.698 36.6335 25.4023 36.3378 25.4023 35.9731Z" fill="black"/>
<path fill-rule="evenodd" clip-rule="evenodd" d="M25.4023 13.8702C25.4023 13.5054 25.698 13.2097 26.0628 13.2097H29.45C29.8148 13.2097 30.1104 13.5054 30.1104 13.8702C30.1104 14.2349 29.8148 14.5306 29.45 14.5306H26.0628C25.698 14.5306 25.4023 14.2349 25.4023 13.8702Z" fill="black"/>
<path fill-rule="evenodd" clip-rule="evenodd" d="M25.4023 38.1547C25.4023 37.79 25.698 37.4943 26.0628 37.4943H29.45C29.8148 37.4943 30.1104 37.79 30.1104 38.1547C30.1104 38.5195 29.8148 38.8151 29.45 38.8151H26.0628C25.698 38.8151 25.4023 38.5195 25.4023 38.1547Z" fill="black"/>
<path fill-rule="evenodd" clip-rule="evenodd" d="M25.4023 16.0518C25.4023 15.687 25.698 15.3914 26.0628 15.3914H29.45C29.8148 15.3914 30.1104 15.687 30.1104 16.0518C30.1104 16.4166 29.8148 16.7122 29.45 16.7122H26.0628C25.698 16.7122 25.4023 16.4166 25.4023 16.0518Z" fill="black"/>
<path fill-rule="evenodd" clip-rule="evenodd" d="M14.0737 29.5147C14.4383 29.526 14.7247 29.8306 14.7134 30.1952C14.658 31.9922 15.0043 32.9629 15.4417 33.4558C15.8478 33.9136 16.4498 34.0843 17.2853 33.9685C18.1321 33.8512 19.1193 33.4465 20.1136 32.8829C21.0995 32.3241 22.0495 31.6338 22.8135 30.9902C23.0924 30.7552 23.5091 30.7908 23.7441 31.0698C23.9791 31.3487 23.9434 31.7654 23.6645 32.0004C22.8497 32.6868 21.8333 33.4265 20.765 34.032C19.7051 34.6328 18.5501 35.1268 17.4666 35.2769C16.3716 35.4286 15.2549 35.2355 14.4536 34.3325C13.6836 33.4647 13.3338 32.0777 13.3932 30.1545C13.4044 29.7899 13.7091 29.5035 14.0737 29.5147Z" fill="black"/>
<path fill-rule="evenodd" clip-rule="evenodd" d="M41.1334 29.5147C40.7688 29.526 40.4823 29.8306 40.4936 30.1952C40.5491 31.9922 40.2028 32.9629 39.7654 33.4558C39.3592 33.9136 38.7572 34.0843 37.9217 33.9685C37.0749 33.8512 36.0877 33.4465 35.0934 32.8829C34.1075 32.3241 33.1576 31.6338 32.3936 30.9902C32.1146 30.7552 31.698 30.7908 31.463 31.0698C31.228 31.3487 31.2636 31.7654 31.5426 32.0004C32.3574 32.6868 33.3737 33.4265 34.4421 34.032C35.5019 34.6328 36.6569 35.1268 37.7405 35.2769C38.8354 35.4286 39.9522 35.2355 40.7534 34.3325C41.5234 33.4647 41.8732 32.0777 41.8139 30.1545C41.8026 29.7899 41.4979 29.5035 41.1334 29.5147Z" fill="black"/>
<path fill-rule="evenodd" clip-rule="evenodd" d="M15.3611 24.8716C15.7217 24.9266 15.9693 25.2636 15.9142 25.6242C15.678 27.1704 15.9562 28.0865 16.4085 28.6324C16.8668 29.1856 17.6198 29.4996 18.634 29.5855C20.683 29.759 23.3821 28.9623 25.273 28.1344C25.6071 27.9881 25.9965 28.1404 26.1428 28.4745C26.2891 28.8087 26.1368 29.1981 25.8027 29.3444C23.8471 30.2006 20.9027 31.1032 18.5225 30.9016C17.3221 30.8 16.1641 30.4078 15.3913 29.4751C14.6124 28.535 14.3395 27.1853 14.6085 25.4247C14.6636 25.0641 15.0005 24.8165 15.3611 24.8716Z" fill="black"/>
<path fill-rule="evenodd" clip-rule="evenodd" d="M39.9631 24.8716C39.6025 24.9266 39.3549 25.2636 39.41 25.6242C39.6462 27.1704 39.368 28.0865 38.9158 28.6324C38.4574 29.1856 37.7044 29.4996 36.6902 29.5855C34.6412 29.759 31.9422 28.9623 30.0513 28.1344C29.7171 27.9881 29.3277 28.1404 29.1814 28.4745C29.0351 28.8087 29.1874 29.1981 29.5215 29.3444C31.4771 30.2006 34.4215 31.1032 36.8017 30.9016C38.0021 30.8 39.1602 30.4078 39.9329 29.4751C40.7118 28.535 40.9847 27.1853 40.7157 25.4247C40.6606 25.0641 40.3237 24.8165 39.9631 24.8716Z" fill="black"/>
<path fill-rule="evenodd" clip-rule="evenodd" d="M16.0787 19.1931C16.4365 19.2639 16.6692 19.6113 16.5984 19.9691C16.4335 20.803 16.6498 21.4812 17.1322 22.0717C17.6344 22.6863 18.4369 23.2155 19.4358 23.6521C21.4315 24.5246 23.9929 24.9348 25.7489 25.0375C26.113 25.0588 26.3909 25.3713 26.3696 25.7354C26.3483 26.0996 26.0358 26.3775 25.6717 26.3562C23.8299 26.2484 21.0981 25.8204 18.9067 24.8624C17.812 24.3839 16.7975 23.7497 16.1093 22.9074C15.4015 22.041 15.0542 20.9687 15.3026 19.7128C15.3734 19.355 15.7209 19.1223 16.0787 19.1931Z" fill="black"/>
<path fill-rule="evenodd" clip-rule="evenodd" d="M39.5346 19.1931C39.1768 19.2639 38.9441 19.6113 39.0149 19.9691C39.1798 20.803 38.9635 21.4812 38.481 22.0717C37.9789 22.6863 37.1764 23.2155 36.1775 23.6521C34.1818 24.5246 31.6203 24.9348 29.8644 25.0375C29.5003 25.0588 29.2224 25.3713 29.2437 25.7354C29.265 26.0996 29.5774 26.3775 29.9416 26.3562C31.7834 26.2484 34.5152 25.8204 36.7066 24.8624C37.8012 24.3839 38.8158 23.7497 39.5039 22.9074C40.2118 22.041 40.5591 20.9687 40.3107 19.7128C40.2399 19.355 39.8924 19.1223 39.5346 19.1931Z" fill="black"/>
<path fill-rule="evenodd" clip-rule="evenodd" d="M38.303 15.1389C38.6486 15.0222 39.0233 15.2078 39.1399 15.5534C39.528 16.7031 39.2701 17.7439 38.6403 18.6142C38.0317 19.4553 37.0791 20.1391 36.0371 20.6901C33.9464 21.7956 31.2634 22.4859 29.4365 22.7887C29.0767 22.8484 28.7366 22.605 28.677 22.2452C28.6173 21.8853 28.8607 21.5453 29.2205 21.4856C30.9722 21.1952 33.502 20.5364 35.4196 19.5224C36.3817 19.0137 37.1321 18.4453 37.5703 17.8398C37.9874 17.2634 38.1204 16.6633 37.8884 15.9758C37.7718 15.6302 37.9574 15.2555 38.303 15.1389Z" fill="black"/>
<path fill-rule="evenodd" clip-rule="evenodd" d="M17.0564 15.1389C16.7108 15.0222 16.3361 15.2078 16.2194 15.5534C15.8314 16.7031 16.0892 17.7439 16.719 18.6142C17.3277 19.4553 18.2803 20.1391 19.3223 20.6901C21.4129 21.7956 24.096 22.4859 25.9228 22.7887C26.2827 22.8484 26.6228 22.605 26.6824 22.2452C26.7421 21.8853 26.4987 21.5453 26.1389 21.4856C24.3872 21.1952 21.8573 20.5364 19.9398 19.5224C18.9777 19.0137 18.2273 18.4453 17.7891 17.8398C17.372 17.2634 17.2389 16.6633 17.471 15.9758C17.5876 15.6302 17.402 15.2555 17.0564 15.1389Z" fill="black"/>
<path fill-rule="evenodd" clip-rule="evenodd" d="M32.9235 11.5789C32.9525 11.2153 33.2707 10.944 33.6343 10.9729C36.2596 11.182 37.744 11.9245 38.2447 13.0901C38.7377 14.2377 38.1056 15.3742 37.5215 15.9739C37.1041 16.4921 36.4771 16.9226 35.7966 17.2813C35.0918 17.6528 34.2749 17.9753 33.4478 18.2491C31.7936 18.7965 30.0382 19.1686 28.9198 19.3451C28.5595 19.402 28.2213 19.1561 28.1644 18.7958C28.1075 18.4355 28.3535 18.0973 28.7138 18.0404C29.777 17.8725 31.4604 17.5155 33.0327 16.9951C33.8188 16.7349 34.5621 16.4388 35.1806 16.1128C35.8098 15.7812 36.2578 15.4453 36.5067 15.1278C36.5231 15.1069 36.5407 15.087 36.5595 15.0682C37.0012 14.6265 37.2133 14.0357 37.0311 13.6114C36.8486 13.1867 36.094 12.4939 33.5294 12.2897C33.1658 12.2607 32.8945 11.9425 32.9235 11.5789Z" fill="black"/>
<path fill-rule="evenodd" clip-rule="evenodd" d="M22.9124 11.5789C22.8835 11.2153 22.5653 10.944 22.2017 10.9729C19.5763 11.182 18.0919 11.9245 17.5912 13.0901C17.0982 14.2377 17.7303 15.3742 18.3145 15.9739C18.7319 16.4921 19.3589 16.9226 20.0394 17.2813C20.7442 17.6528 21.561 17.9753 22.3882 18.2491C24.0423 18.7965 25.7978 19.1686 26.9161 19.3451C27.2764 19.402 27.6146 19.1561 27.6715 18.7958C27.7284 18.4355 27.4824 18.0973 27.1222 18.0404C26.0589 17.8725 24.3755 17.5155 22.8032 16.9951C22.0171 16.7349 21.2738 16.4388 20.6553 16.1128C20.0261 15.7812 19.5781 15.4453 19.3293 15.1278C19.3129 15.1069 19.2953 15.087 19.2765 15.0682C18.8347 14.6265 18.6226 14.0357 18.8049 13.6114C18.9873 13.1867 19.742 12.4939 22.3065 12.2897C22.6701 12.2607 22.9414 11.9425 22.9124 11.5789Z" fill="black"/>
<path fill-rule="evenodd" clip-rule="evenodd" d="M27.8323 21.4194C28.1971 21.4194 28.4928 21.7151 28.4928 22.0799V31.4378C28.4928 31.8025 28.1971 32.0982 27.8323 32.0982C27.4676 32.0982 27.1719 31.8025 27.1719 31.4378V22.0799C27.1719 21.7151 27.4676 21.4194 27.8323 21.4194Z" fill="black"/>
<path fill-rule="evenodd" clip-rule="evenodd" d="M10.0664 5.66044C10.0664 5.29569 10.3621 5 10.7268 5H44.5416C44.9063 5 45.202 5.29569 45.202 5.66044V44.5847C45.202 44.9494 44.9063 45.2451 44.5416 45.2451H10.7268C10.3621 45.2451 10.0664 44.9494 10.0664 44.5847V5.66044ZM11.3873 6.32089V43.9242H43.8811V6.32089H11.3873Z" fill="black"/>
<path fill-rule="evenodd" clip-rule="evenodd" d="M133.332 131.492C135.183 131.492 136.684 129.991 136.684 128.14C136.684 126.289 135.183 124.788 133.332 124.788C131.481 124.788 129.98 126.289 129.98 128.14C129.98 129.991 131.481 131.492 133.332 131.492ZM133.332 132.714C135.858 132.714 137.906 130.666 137.906 128.14C137.906 125.614 135.858 123.566 133.332 123.566C130.806 123.566 128.758 125.614 128.758 128.14C128.758 130.666 130.806 132.714 133.332 132.714Z" fill="black"/>
<path fill-rule="evenodd" clip-rule="evenodd" d="M132.944 113L135.476 116.974L136.271 116.497L146.345 133.426L145.048 134.157L146.903 137.736L140.759 141.045L139.012 137.562L137.692 138.307L134.271 132.641L135.317 132.009L138.125 136.659L144.655 132.976L135.848 118.176L129.619 121.913L131.12 124.204L130.098 124.874L127.9 121.519L129.377 120.633L126.946 116.646L132.944 113ZM130.426 120.004L134.428 117.603L132.556 114.666L128.627 117.054L130.426 120.004ZM140.078 136.961L141.287 139.372L145.264 137.23L143.983 134.758L140.078 136.961ZM122.631 158.186C116.44 144.682 124.136 133.555 128.855 129.617L129.638 130.556C125.091 134.35 117.679 145.144 123.982 158.186H134.411C130.226 153.639 128.943 148.564 129.098 143.995C129.264 139.094 131.084 134.777 132.726 132.281L133.747 132.953C132.21 135.29 130.477 139.392 130.319 144.037C130.164 148.601 131.527 153.691 136.112 158.186H138.66V157.073H135.253V149.427H151.658V157.073H147.376V158.186H151.658V167H119V158.186H122.631ZM146.154 158.186V155.851H150.436V150.649H136.476V155.851H139.882V158.186H146.154ZM120.222 159.409V165.778H150.436V159.409H120.222Z" fill="black"/>
<path fill-rule="evenodd" clip-rule="evenodd" d="M246.995 66.4794C245.831 65.7572 244.546 65.956 243.705 66.3839L243.696 66.3885L243.687 66.3928C236.388 69.7935 229.766 67.8767 227.231 66.4087C225.111 65.8731 223.759 66.1891 222.891 66.8964C221.988 67.632 221.463 68.9043 221.261 70.5604C220.857 73.871 221.797 78.2834 222.815 81.3621C222.93 81.7086 223.049 82.0626 223.168 82.4187C223.466 83.3061 223.768 84.2062 224.02 85.0344C224.369 86.1801 224.648 87.2667 224.677 88.04L224.678 88.0725L224.676 88.1049C224.19 94.6185 224.951 98.4127 226.023 100.51C226.906 102.238 227.964 102.77 228.722 102.828L230.645 87.9805L230.646 87.9744C231.14 84.7102 233.272 83.0395 235.529 83.1072C237.759 83.1741 239.859 84.9375 240.301 87.9777L240.302 87.9822L242.215 102.749C242.654 102.646 243.054 102.397 243.428 102.017C243.947 101.488 244.391 100.725 244.758 99.8267C245.489 98.0396 245.855 95.8655 245.964 94.4016C245.973 93.2069 246.072 91.2241 246.336 89.1069C246.601 86.986 247.036 84.6888 247.735 82.9102C249.035 79.6019 249.671 74.802 249.83 72.7503C249.366 68.9385 248.157 67.1998 246.995 66.4794ZM247.609 65.489C249.212 66.4826 250.516 68.6589 250.994 72.6686L251.001 72.7247L250.997 72.7811C250.843 74.8351 250.196 79.8329 248.82 83.3363C248.174 84.9789 247.753 87.1618 247.492 89.2512C247.233 91.3327 247.137 93.2803 247.129 94.4296L247.129 94.4488L247.127 94.468C247.014 96.0077 246.632 98.323 245.837 100.268C245.44 101.239 244.925 102.155 244.259 102.833C243.584 103.521 242.733 103.981 241.703 103.968L241.197 103.962L239.147 88.141C238.774 85.5841 237.081 84.3197 235.494 84.272C233.935 84.2252 232.224 85.3529 231.799 88.1427L229.759 103.889L229.333 103.96C227.954 104.192 226.209 103.435 224.985 101.04C223.774 98.6692 223.024 94.6331 223.511 88.0523C223.482 87.4496 223.252 86.5124 222.905 85.374C222.658 84.5623 222.364 83.687 222.069 82.8061C221.948 82.4463 221.827 82.0856 221.709 81.7279C220.673 78.5956 219.669 73.9866 220.104 70.4193C220.322 68.6363 220.912 67.0055 222.155 65.9929C223.422 64.9607 225.225 64.6825 227.602 65.3007L227.682 65.3215L227.753 65.3637C229.956 66.6732 236.224 68.5802 243.186 65.3405C244.28 64.7873 246.009 64.4967 247.609 65.489Z" fill="black"/>
<path fill-rule="evenodd" clip-rule="evenodd" d="M234.842 67.1851C235.153 67.1027 235.472 67.2882 235.554 67.5992C235.747 68.3268 236.368 69.4143 237.617 70.1694C238.853 70.9158 240.756 71.3686 243.57 70.7433C243.884 70.6735 244.195 70.8715 244.265 71.1857C244.335 71.4998 244.137 71.8111 243.823 71.8809C240.772 72.5589 238.551 72.0953 237.015 71.1668C235.492 70.2469 234.693 68.9009 234.428 67.8974C234.345 67.5864 234.531 67.2674 234.842 67.1851ZM224.321 70.9103C224.151 71.4525 224.075 72.0374 224.068 72.5429C224.063 72.8647 223.798 73.1215 223.476 73.1165C223.154 73.1116 222.897 72.8467 222.902 72.525C222.912 71.9274 223 71.2289 223.209 70.562C223.416 69.8993 223.756 69.228 224.295 68.7322C224.85 68.2215 225.587 67.9269 226.503 67.9912C227.397 68.054 228.426 68.4546 229.613 69.2497C229.88 69.4288 229.952 69.7907 229.773 70.0581C229.594 70.3254 229.232 70.3971 228.965 70.218C227.871 69.4858 227.038 69.197 226.422 69.1537C225.827 69.112 225.405 69.2947 225.083 69.59C224.746 69.9003 224.492 70.3638 224.321 70.9103Z" fill="black"/>
<path fill-rule="evenodd" clip-rule="evenodd" d="M17.001 125.552L16.3582 128.834H34.2567L34.265 128.834C34.9309 128.851 35.9065 129.075 36.7094 129.717C37.5434 130.385 38.1334 131.459 38.0423 133.029V158.819C38.2007 158.736 38.342 158.64 38.4631 158.536C38.7698 158.273 38.8804 158.026 38.8938 157.926L42.6652 129.408C42.6652 129.408 42.6653 129.407 42.6653 129.407C42.8253 128.154 41.9006 127.406 41.2289 127.35L41.2097 127.349L18.8947 124.167L18.8906 124.166C18.3703 124.085 17.9679 124.27 17.644 124.571C17.3185 124.874 17.1003 125.275 17.001 125.552ZM38.0399 160.235C37.9988 160.744 37.8497 161.345 37.5209 161.919C37.0398 162.759 36.1887 163.512 34.8187 163.825L34.7464 163.841H12.4801L12.4529 163.839C11.8318 163.787 10.9363 163.521 10.206 162.873C9.45135 162.203 8.91904 161.163 9.01015 159.688V133.024C8.98054 132.354 9.09864 131.353 9.58112 130.49C10.0908 129.578 11.0086 128.834 12.4651 128.834H15.0174L15.7267 125.213L15.74 125.173C15.8876 124.73 16.2155 124.103 16.7477 123.608C17.2953 123.098 18.0852 122.711 19.0884 122.865L41.3589 126.041C42.7159 126.166 44.232 127.534 43.9703 129.575L43.9699 129.578L40.198 158.1C40.1266 158.636 39.7668 159.152 39.3191 159.535C38.9763 159.829 38.5421 160.081 38.0399 160.235ZM10.7296 131.132C10.3967 131.727 10.3009 132.475 10.3252 132.977L10.3259 132.993V159.73L10.3245 159.752C10.2529 160.841 10.6302 161.49 11.0795 161.889C11.5471 162.304 12.1406 162.487 12.5369 162.526H34.5951C35.5543 162.289 36.0834 161.782 36.3792 161.265C36.6957 160.713 36.761 160.118 36.7293 159.768L36.7266 159.738V132.989L36.7278 132.969C36.7998 131.803 36.3813 131.14 35.8875 130.745C35.362 130.324 34.6895 130.163 34.2395 130.15H12.4651C11.5482 130.15 11.0392 130.578 10.7296 131.132Z" fill="black"/>
<path fill-rule="evenodd" clip-rule="evenodd" d="M18.9066 134.24H15.0924C14.3679 134.24 13.7806 134.827 13.7806 135.552C13.7806 136.276 14.3679 136.864 15.0924 136.864H18.9066C19.6311 136.864 20.2184 136.276 20.2184 135.552C20.2184 134.827 19.6311 134.24 18.9066 134.24ZM15.0924 132.924C13.6412 132.924 12.4648 134.101 12.4648 135.552C12.4648 137.003 13.6412 138.179 15.0924 138.179H18.9066C20.3577 138.179 21.5341 137.003 21.5341 135.552C21.5341 134.101 20.3577 132.924 18.9066 132.924H15.0924Z" fill="black"/>
<path fill-rule="evenodd" clip-rule="evenodd" d="M18.9066 144.92H15.0924C14.3679 144.92 13.7806 145.507 13.7806 146.232C13.7806 146.956 14.3679 147.543 15.0924 147.543H18.9066C19.6311 147.543 20.2184 146.956 20.2184 146.232C20.2184 145.507 19.6311 144.92 18.9066 144.92ZM15.0924 143.604C13.6412 143.604 12.4648 144.781 12.4648 146.232C12.4648 147.683 13.6412 148.859 15.0924 148.859H18.9066C20.3577 148.859 21.5341 147.683 21.5341 146.232C21.5341 144.781 20.3577 143.604 18.9066 143.604H15.0924Z" fill="black"/>
<path fill-rule="evenodd" clip-rule="evenodd" d="M18.9066 155.769H15.0924C14.3679 155.769 13.7806 156.356 13.7806 157.081C13.7806 157.805 14.3679 158.393 15.0924 158.393H18.9066C19.6311 158.393 20.2184 157.805 20.2184 157.081C20.2184 156.356 19.6311 155.769 18.9066 155.769ZM15.0924 154.453C13.6412 154.453 12.4648 155.63 12.4648 157.081C12.4648 158.532 13.6412 159.708 15.0924 159.708H18.9066C20.3577 159.708 21.5341 158.532 21.5341 157.081C21.5341 155.63 20.3577 154.453 18.9066 154.453H15.0924Z" fill="black"/>
<path fill-rule="evenodd" clip-rule="evenodd" d="M31.8714 134.24H28.0572C27.3328 134.24 26.7455 134.827 26.7455 135.552C26.7455 136.276 27.3328 136.864 28.0572 136.864H31.8714C32.5959 136.864 33.1832 136.276 33.1832 135.552C33.1832 134.827 32.5959 134.24 31.8714 134.24ZM28.0572 132.924C26.6061 132.924 25.4297 134.101 25.4297 135.552C25.4297 137.003 26.6061 138.179 28.0572 138.179H31.8714C33.3226 138.179 34.499 137.003 34.499 135.552C34.499 134.101 33.3226 132.924 31.8714 132.924H28.0572Z" fill="black"/>
<path fill-rule="evenodd" clip-rule="evenodd" d="M31.8714 144.92H28.0572C27.3328 144.92 26.7455 145.507 26.7455 146.232C26.7455 146.956 27.3328 147.543 28.0572 147.543H31.8714C32.5959 147.543 33.1832 146.956 33.1832 146.232C33.1832 145.507 32.5959 144.92 31.8714 144.92ZM28.0572 143.604C26.6061 143.604 25.4297 144.781 25.4297 146.232C25.4297 147.683 26.6061 148.859 28.0572 148.859H31.8714C33.3226 148.859 34.499 147.683 34.499 146.232C34.499 144.781 33.3226 143.604 31.8714 143.604H28.0572Z" fill="black"/>
<path fill-rule="evenodd" clip-rule="evenodd" d="M31.8714 155.769H28.0572C27.3328 155.769 26.7455 156.356 26.7455 157.081C26.7455 157.805 27.3328 158.393 28.0572 158.393H31.8714C32.5959 158.393 33.1832 157.805 33.1832 157.081C33.1832 156.356 32.5959 155.769 31.8714 155.769ZM28.0572 154.453C26.6061 154.453 25.4297 155.63 25.4297 157.081C25.4297 158.532 26.6061 159.708 28.0572 159.708H31.8714C33.3226 159.708 34.499 158.532 34.499 157.081C34.499 155.63 33.3226 154.453 31.8714 154.453H28.0572Z" fill="black"/>
<path fill-rule="evenodd" clip-rule="evenodd" d="M16.2578 138.137V132.967H17.5736V138.137H16.2578Z" fill="black"/>
<path fill-rule="evenodd" clip-rule="evenodd" d="M16.2578 148.817V143.646H17.5736V148.817H16.2578Z" fill="black"/>
<path fill-rule="evenodd" clip-rule="evenodd" d="M16.2578 159.666V154.496H17.5736V159.666H16.2578Z" fill="black"/>
<path fill-rule="evenodd" clip-rule="evenodd" d="M29.2266 138.137V132.967H30.5423V138.137H29.2266Z" fill="black"/>
<path fill-rule="evenodd" clip-rule="evenodd" d="M29.2266 148.817V143.646H30.5423V148.817H29.2266Z" fill="black"/>
<path fill-rule="evenodd" clip-rule="evenodd" d="M29.2266 159.666V154.496H30.5423V159.666H29.2266Z" fill="black"/>
<path fill-rule="evenodd" clip-rule="evenodd" d="M124.272 64.9695C120.466 63.4151 117.865 65.3027 117.067 66.3588L117.054 66.3762L117.039 66.3927C114.646 69.1747 115.341 72.5732 116.03 74.0126L124.652 82.6346L133.416 73.7573L124.272 64.9695ZM115.982 65.5114C117.101 64.0479 120.378 61.823 124.924 63.7504L125.041 63.7999L135.375 73.7315L124.659 84.5871L114.9 74.8284L114.85 74.7313C114.009 73.0783 113.049 68.9377 115.982 65.5114Z" fill="black"/>
<path fill-rule="evenodd" clip-rule="evenodd" d="M144.306 64.9694C148.112 63.415 150.714 65.3025 151.511 66.3587L151.525 66.3761L151.539 66.3926C153.932 69.1746 153.237 72.5731 152.548 74.0125L143.926 82.6345L135.162 73.7572L144.306 64.9694ZM152.596 65.5113C151.477 64.0478 148.2 61.8229 143.654 63.7503L143.537 63.7998L133.203 73.7314L143.92 84.5869L153.678 74.8283L153.728 74.7312C154.569 73.0781 155.529 68.9376 152.596 65.5113Z" fill="black"/>
<path fill-rule="evenodd" clip-rule="evenodd" d="M141.311 93.6611C141.738 93.6611 142.085 93.3144 142.085 92.8868C142.085 92.4592 141.738 92.1126 141.311 92.1126C140.883 92.1126 140.536 92.4592 140.536 92.8868C140.536 93.3144 140.883 93.6611 141.311 93.6611ZM141.311 95.0372C142.498 95.0372 143.461 94.0745 143.461 92.8868C143.461 91.6992 142.498 90.7365 141.311 90.7365C140.123 90.7365 139.16 91.6992 139.16 92.8868C139.16 94.0745 140.123 95.0372 141.311 95.0372Z" fill="black"/>
<path fill-rule="evenodd" clip-rule="evenodd" d="M135.326 97.4559C135.754 97.4559 136.1 97.1092 136.1 96.6816C136.1 96.254 135.754 95.9074 135.326 95.9074C134.899 95.9074 134.552 96.254 134.552 96.6816C134.552 97.1092 134.899 97.4559 135.326 97.4559ZM135.326 98.832C136.514 98.832 137.477 97.8693 137.477 96.6816C137.477 95.494 136.514 94.5312 135.326 94.5312C134.139 94.5312 133.176 95.494 133.176 96.6816C133.176 97.8693 134.139 98.832 135.326 98.832Z" fill="black"/>
<path fill-rule="evenodd" clip-rule="evenodd" d="M132.542 89.6976C133.062 89.6976 133.485 89.2755 133.485 88.7547C133.485 88.2339 133.062 87.8118 132.542 87.8118C132.021 87.8118 131.599 88.2339 131.599 88.7547C131.599 89.2755 132.021 89.6976 132.542 89.6976ZM132.542 91.0737C133.822 91.0737 134.861 90.0355 134.861 88.7547C134.861 87.4739 133.822 86.4357 132.542 86.4357C131.261 86.4357 130.223 87.4739 130.223 88.7547C130.223 90.0355 131.261 91.0737 132.542 91.0737Z" fill="black"/>
<path fill-rule="evenodd" clip-rule="evenodd" d="M138.444 85.3126C138.965 85.3126 139.387 84.8905 139.387 84.3697C139.387 83.8489 138.965 83.4268 138.444 83.4268C137.923 83.4268 137.501 83.8489 137.501 84.3697C137.501 84.8905 137.923 85.3126 138.444 85.3126ZM138.444 86.6887C139.725 86.6887 140.763 85.6505 140.763 84.3697C140.763 83.0889 139.725 82.0507 138.444 82.0507C137.163 82.0507 136.125 83.0889 136.125 84.3697C136.125 85.6505 137.163 86.6887 138.444 86.6887Z" fill="black"/>
<path fill-rule="evenodd" clip-rule="evenodd" d="M127.057 93.8298C127.578 93.8298 128 93.4077 128 92.8869C128 92.3661 127.578 91.944 127.057 91.944C126.537 91.944 126.114 92.3661 126.114 92.8869C126.114 93.4077 126.537 93.8298 127.057 93.8298ZM127.057 95.2059C128.338 95.2059 129.376 94.1677 129.376 92.8869C129.376 91.6061 128.338 90.5679 127.057 90.5679C125.777 90.5679 124.738 91.6061 124.738 92.8869C124.738 94.1677 125.777 95.2059 127.057 95.2059Z" fill="black"/>
<path fill-rule="evenodd" clip-rule="evenodd" d="M130.178 102.094C130.605 102.094 130.952 101.747 130.952 101.32C130.952 100.892 130.605 100.545 130.178 100.545C129.75 100.545 129.403 100.892 129.403 101.32C129.403 101.747 129.75 102.094 130.178 102.094ZM130.178 103.47C131.365 103.47 132.328 102.507 132.328 101.32C132.328 100.132 131.365 99.1692 130.178 99.1692C128.99 99.1692 128.027 100.132 128.027 101.32C128.027 102.507 128.99 103.47 130.178 103.47Z" fill="black"/>
<path fill-rule="evenodd" clip-rule="evenodd" d="M138.443 104.624C138.871 104.624 139.218 104.277 139.218 103.85C139.218 103.422 138.871 103.075 138.443 103.075C138.016 103.075 137.669 103.422 137.669 103.85C137.669 104.277 138.016 104.624 138.443 104.624ZM138.443 106C139.631 106 140.594 105.037 140.594 103.85C140.594 102.662 139.631 101.699 138.443 101.699C137.256 101.699 136.293 102.662 136.293 103.85C136.293 105.037 137.256 106 138.443 106Z" fill="black"/>
<path fill-rule="evenodd" clip-rule="evenodd" d="M122.042 66.7078C121.348 66.5723 120.653 66.6585 120.248 66.7742C119.883 66.8786 119.502 66.667 119.398 66.3017C119.293 65.9363 119.505 65.5554 119.87 65.451C120.449 65.2857 121.365 65.1737 122.306 65.3572C123.261 65.5437 124.284 66.0474 124.949 67.1484C125.146 67.4737 125.041 67.8967 124.716 68.0931C124.39 68.2895 123.967 68.185 123.771 67.8597C123.356 67.173 122.721 66.8404 122.042 66.7078Z" fill="black"/>
</svg>
