<svg width="260" height="178" viewBox="0 0 260 178" fill="none" xmlns="http://www.w3.org/2000/svg">
<rect width="260" height="178" fill="white"/>
<path d="M212.126 136.617C210.648 133.957 202.149 127.16 194.978 134.548C185.221 144.6 201.68 159.087 212.126 165" stroke="black" stroke-width="1.64919" stroke-linecap="round"/>
<path d="M212.126 136.408C213.604 133.747 222.103 126.951 229.274 134.338C239.031 144.39 222.572 159.087 212.126 165" stroke="black" stroke-width="1.64919" stroke-linecap="round"/>
<path d="M111.532 135.2C117.721 127.316 125.934 132.309 128.719 135.83C132.977 129.838 139.493 130.943 140.86 131.573C147.924 134.222 148.427 141.916 147.796 145.07C146.661 154.026 134.658 162.057 128.719 165C105.888 153.395 107.695 140.088 111.532 135.2Z" stroke="black" stroke-width="1.57675"/>
<path d="M116.262 146.867C117.681 150.967 120.677 155.855 127.772 159.166" stroke="black" stroke-width="1.57675" stroke-linecap="round"/>
<path d="M116.419 137.407C115.789 137.932 114.716 139.583 115.473 141.979" stroke="black" stroke-width="1.57675" stroke-linecap="round"/>
<path d="M47.8668 137.375C47.7091 133.751 43.9284 128.08 37.3123 131.231C35.7895 132.071 32.4603 134.854 31.3261 139.265C30.0659 135.642 26.0331 128.963 19.9839 131.231C18.0411 131.914 14.3443 134.665 15.1005 140.21C15.6256 143.203 19.606 150.828 31.3261 157.381C34.6867 155.753 42.2901 150.859 45.8188 144.306" stroke="black" stroke-width="1.5753"/>
<path d="M35.2625 149.82C33.8442 146.984 33.8454 138.792 41.4072 138.162C44.2426 138.005 48.6534 140.084 50.5438 147.142C51.594 143.571 55.4273 136.272 62.0435 138.162C63.9339 138.792 67.5571 141.47 66.927 147.142C66.6644 150.292 63.0201 158.326 50.5438 165.258C47.8658 163.735 41.8481 159.839 39.2016 156.436" stroke="black" stroke-width="1.5753"/>
<path d="M208.376 88.9742C210.699 87.3014 216.043 85.4891 218.831 91.6229C219.528 93.017 220.225 96.6694 217.437 100.127C214.649 103.584 209.026 107.887 206.563 109.606L201.545 105.703" stroke="black" stroke-width="1.39405" stroke-linecap="round"/>
<path d="M206.982 92.0412C206.285 90.1824 203.887 86.5765 199.872 87.0226C195.857 87.4687 194.528 91.0189 194.157 92.7382C193.692 94.411 193.989 98.8441 198.896 103.194" stroke="black" stroke-width="1.39405" stroke-linecap="round"/>
<path d="M207.68 85.0709L208.34 79.2599C208.34 76.7506 211.778 70.3776 217.577 72.3851C223.014 74.267 222.921 79.1695 222.038 81.4464" stroke="black" stroke-width="1.39405" stroke-linecap="round"/>
<path d="M225.107 80.4706C227.848 80.9817 232.216 83.5375 230.683 89.8107C230.032 91.8553 227.365 95.7214 221.9 94.8293" stroke="black" stroke-width="1.39405" stroke-linecap="round"/>
<path d="M147.779 97.884C145.262 100.653 135.247 106.798 130.79 109.525L125.913 106.536L118.363 101.502C113.329 97.5693 109.763 93.0074 108.924 91.1197C106.407 84.7016 109.711 78.5352 110.812 78.5352C108.043 88.9804 114.797 92.6404 118.677 92.5355C123.711 93.0389 129.898 85.0897 132.363 81.0521C139.033 72.7463 146.154 74.7599 148.88 76.8049C159.42 84.7095 150.925 94.4232 147.779 97.884Z" stroke="black" stroke-width="1.57307"/>
<path d="M108.607 82.1533C109.866 78.3779 113.012 74.5374 118.518 75.0745C120.563 75.0745 124.653 76.8049 125.597 81.0521" stroke="black" stroke-width="1.57307" stroke-linecap="round"/>
<path d="M29.5498 74C34.3722 74 35.249 80.8615 35.3061 85.6395C35.3105 86.0057 36.0449 86.1119 36.1596 85.7641C38.2209 79.5128 41.728 74.7622 45.7035 76.3932C51.5368 78.7863 50.0282 88.5372 44.494 93.9218C41.9666 96.3809 36.3779 103.404 34.1775 107.422C34.016 107.717 33.3398 107.594 33.2831 107.263C32.7637 104.226 31.069 101.282 30.1479 100.026C25.0026 92.9658 23.3175 87.0128 23.1182 84.9188C22.5513 78.9645 23.917 74 29.5498 74Z" stroke="black" stroke-width="1.79487" stroke-linecap="round"/>
<path d="M226.48 26.1727C220.542 20.9397 214.458 27.9226 212.635 30.7644C212.503 30.9698 212.184 30.9473 212.083 30.7249C208.586 22.9794 201.873 21.2219 197.731 26.1727C192.196 32.7879 200.41 45.0249 207.023 50.9347C209.602 53.2391 213.298 53.2655 216.158 51.3222C225.479 44.9902 234.25 33.0202 226.48 26.1727Z" stroke="black" stroke-width="1.75119" stroke-linecap="round"/>
<path d="M190.516 20.2929L194.164 23.0656" stroke="black" stroke-width="1.75119" stroke-linecap="round"/>
<path d="M197.582 15.6856L199.318 19.9264" stroke="black" stroke-width="1.75119" stroke-linecap="round"/>
<path d="M206.889 15L205.773 19.4446" stroke="black" stroke-width="1.75119" stroke-linecap="round"/>
<path d="M122.705 27.8167V24.3314C122.705 20.7301 125.625 17.8107 129.226 17.8107H130.238C133.839 17.8107 136.758 20.7301 136.758 24.3314V27.8167" stroke="black" stroke-width="1.34857" stroke-linecap="round"/>
<path d="M130.014 33.2132C131.25 30.8147 134.983 26.5575 140.02 28.7161C145.604 31.6392 151.42 40.6334 130.014 53.2252" stroke="black" stroke-width="1.34857" stroke-linecap="round"/>
<path d="M130.014 33.2132C128.777 30.8147 124.829 26.4753 119.792 28.6339C114.208 31.557 109.552 41.6452 129.798 53.143" stroke="black" stroke-width="1.34857" stroke-linecap="round"/>
<path d="M119.781 28.154V23.9942C119.781 19.0268 123.808 15 128.775 15H130.912C135.879 15 139.906 19.0268 139.906 23.9942V28.7161" stroke="black" stroke-width="1.34857" stroke-linecap="round"/>
<circle cx="130.125" cy="37.9351" r="1.34912" fill="black"/>
<circle cx="141.256" cy="33.1008" r="1.01184" fill="black"/>
<circle cx="118.772" cy="33.1008" r="1.01184" fill="black"/>
<circle cx="130.012" cy="49.5151" r="1.01184" fill="black"/>
<path d="M130.125 39.0594V42.9943" stroke="black" stroke-width="1.34857" stroke-linecap="round"/>
<path d="M33.7873 25.1752C33.5913 23.6068 34.2814 20.4699 38.6103 20.4699" stroke="black" stroke-width="1.17634" stroke-linecap="round"/>
<path d="M45.4327 23.4107C41.9428 24.7831 36.2337 29.0336 41.3155 35.0565" stroke="black" stroke-width="1.17634" stroke-linecap="round"/>
<path d="M44.9638 19.6464L39.3174 22.9402L36.4941 21.4109" stroke="black" stroke-width="1.17634" stroke-linecap="round"/>
<path d="M34.6105 23.4107L36.6103 24.8223C35.826 25.6066 34.0459 27.622 33.1989 29.4101C32.5715 31.449 30.6815 35.8093 28.1406 36.9386" stroke="black" stroke-width="1.17634" stroke-linecap="round"/>
<path d="M28.8483 31.6451C28.6914 29.2532 28.8718 23.5989 30.8481 20.117C31.0441 19.6464 31.1069 18.3995 29.7894 17.1761L31.4363 15.4116L32.9655 17.1761C35.2006 16.7056 40.0941 16.7526 41.7881 20.7051" stroke="black" stroke-width="1.17634" stroke-linecap="round"/>
<path d="M42.9626 28.1161C43.8645 29.1356 45.7388 31.6451 46.0211 33.5272C46.374 35.8799 49.7854 43.0556 47.9032 48.2315C47.2758 50.1921 45.0565 53.8544 41.1981 52.8192C37.6299 52.231 29.1524 48.8902 23.7883 40.2324C22.5727 37.566 21.8591 30.9628 28.7289 25.881" stroke="black" stroke-width="1.17634" stroke-linecap="round"/>
<path d="M25.5533 28.9395L24.4902 23.5177C24.4246 23.1832 24.6075 22.8496 24.9247 22.725L27.0895 21.8746C27.4213 21.7442 27.7983 21.8818 27.9681 22.1953L29.1999 24.4694" stroke="black" stroke-width="1.17634" stroke-linecap="round"/>
<path d="M34.2578 14L34.6107 16.5879" stroke="black" stroke-width="1.17634" stroke-linecap="round"/>
<path d="M37.082 14.3529L36.7291 16.9409" stroke="black" stroke-width="1.17634" stroke-linecap="round"/>
</svg>
