<svg width="260" height="178" viewBox="0 0 260 178" fill="none" xmlns="http://www.w3.org/2000/svg">
<rect width="260" height="178" fill="white"/>
<path d="M248.263 143.308H219V161.904H248.263V143.308Z" stroke="black" stroke-width="2.59472"/>
<path d="M237.471 151.674C236.44 152.541 233.52 153.925 230.079 152.527" stroke="black" stroke-width="2.59472"/>
<path d="M224.047 142.875V133.794C228.756 133.361 239.183 131.314 243.219 126.586" stroke="black" stroke-width="2.59472"/>
<path d="M112 139.547C117.282 138.359 128.313 134.093 130.18 126.526C130.671 129.515 135.02 136.304 148.482 139.547" stroke="black" stroke-width="3.20822"/>
<path d="M117.5 141.803L117.5 162.885" stroke="black" stroke-width="3.20822"/>
<path d="M142.859 141.803L142.859 162.885" stroke="black" stroke-width="3.20822"/>
<path d="M124.832 160.746C125.824 159.437 127.664 155.7 127.093 151.226L134.828 149.441C134.352 152.416 133.948 158.842 136.137 160.746" stroke="black" stroke-width="3.20822"/>
<path d="M125.445 145.469C127.482 145.052 132.167 143.858 134.612 142.414" stroke="black" stroke-width="3.20822"/>
<path d="M11 132H30.3564V163.539H11" stroke="black" stroke-width="2.43647"/>
<path d="M33.875 136.197L38.0711 138.768C37.7553 141.25 38.1524 146.917 42.2673 149.733V159.478H34.6872V153.793" stroke="black" stroke-width="2.43647"/>
<path d="M14.25 145.807C14.7712 145.308 15.8583 143.418 16.037 139.851H24.7486C24.7672 141.53 25.4148 144.454 26.7031 145.807" stroke="black" stroke-width="2.43647"/>
<path d="M218 98.0918C219.271 96.0943 221.922 88.5309 222.358 74.2577H243.605C243.65 80.9766 244.667 95.15 248.371 98.0918" stroke="black" stroke-width="3.14188"/>
<path d="M222.766 81.6123H238.156" stroke="black" stroke-width="3.14188"/>
<path d="M229.169 85.6982C229.123 87.9228 228.488 92.8621 226.309 94.8233" stroke="black" stroke-width="3.14188"/>
<path d="M236.386 85.8337C235.978 88.83 234.779 95.4491 233.254 97.9551" stroke="black" stroke-width="3.14188"/>
<path d="M233.254 73.849V62" stroke="black" stroke-width="3.14188"/>
<path d="M114.102 75.5118C115.084 78.9734 116.999 87.6659 116.794 94.7429H142.051C141.923 90.683 142.23 81.153 144.487 75.5118" stroke="black" stroke-width="3.19532"/>
<path d="M119.488 77.9485H138.848" stroke="black" stroke-width="3.19532"/>
<path d="M110 100H148.462" stroke="black" stroke-width="3.19532"/>
<path d="M145.898 87.4363C147.351 86.8807 150.514 84.6157 151.54 80.0002" stroke="black" stroke-width="3.19532"/>
<path d="M133.461 65.256C132.991 67.0936 131.487 71.0253 129.23 72.051" stroke="black" stroke-width="3.19532"/>
<path d="M126.54 65C126.198 65.8974 125.181 68 123.848 69.2308" stroke="black" stroke-width="3.19532"/>
<path d="M18.3555 65.8618V71.9495" stroke="black" stroke-width="2.65308"/>
<path d="M37.3789 65.9884V72.0761" stroke="black" stroke-width="2.65308"/>
<path d="M32.1811 74.7395C32.2656 77.6142 31.8767 84.632 29.6445 89.705" stroke="black" stroke-width="2.65308"/>
<path d="M42.4635 74.6118C42.3789 77.4866 42.7679 84.5043 45 89.5774" stroke="black" stroke-width="2.65308"/>
<path d="M15.6926 74.8671C15.904 77.8264 15.2614 84.9117 11 89.5789" stroke="black" stroke-width="2.65308"/>
<path d="M20.9285 74.8671C20.7171 77.8264 21.3597 84.9117 25.6211 89.5789" stroke="black" stroke-width="2.65308"/>
<path d="M14.2969 91.4811C15.7765 93.2989 18.6343 98.3043 18.2285 103.783C18.3976 100.951 19.4968 94.5249 22.5406 91.4811" stroke="black" stroke-width="2.65308"/>
<path d="M34.8438 88.5645L34.8438 104.037" stroke="black" stroke-width="2.65308"/>
<path d="M39.9141 88.5645L39.9141 104.037" stroke="black" stroke-width="2.65308"/>
<path d="M121.023 13.2976L137.61 13.2976C138.816 13.2976 139.674 14.4718 139.307 15.6214L135.362 27.9859C135.264 28.2944 135.253 28.6283 135.325 28.9441C137.624 39.0425 135.604 43.7457 130.757 44.4699C119.982 46.0798 121.401 35.2364 123.149 28.9685C123.242 28.6335 123.241 28.2797 123.139 27.9471C121.469 22.4969 119.93 17.6343 119.517 14.8861C119.382 13.988 120.115 13.2976 121.023 13.2976Z" stroke="black" stroke-width="2.29124" stroke-linecap="round"/>
<path d="M121.929 12.9934L121.963 8.04221" stroke="black" stroke-width="2.29124" stroke-linecap="round"/>
<path d="M129.394 12.7956L129.428 7.84445" stroke="black" stroke-width="2.29124" stroke-linecap="round"/>
<path d="M137.031 13.1335L137.065 8.18235" stroke="black" stroke-width="2.29124" stroke-linecap="round"/>
<circle cx="129.355" cy="22.0661" r="3.43686" fill="black"/>
<circle cx="129.227" cy="32.122" r="1.78208" fill="black"/>
<path d="M213.609 43C214.784 39.3947 216.988 30.9443 216.405 25.9858H244.6C244.6 29.9963 245.742 39.2083 247.881 43" stroke="black" stroke-width="2.69227"/>
<path d="M215.188 38.6255H245.813" stroke="black" stroke-width="2.69227"/>
<path d="M217.984 25.6213C219.124 23.1372 221.379 17.2288 221.282 13.4683H239.722C239.722 17.5957 240.772 21.769 243.02 25.6213" stroke="black" stroke-width="2.69227"/>
<path d="M226.367 8H234.874" stroke="black" stroke-width="2.69227"/>
<path d="M215.066 15.7776C215.188 17.0334 214.944 19.9339 213 21.4895" stroke="black" stroke-width="2.69227"/>
<path d="M247.03 16.0204C247.435 16.7496 247.662 18.9371 245.328 21.8538" stroke="black" stroke-width="2.69227"/>
<path d="M220.656 33.6425C221.831 33.4399 224.302 32.889 224.788 32.3057" stroke="black" stroke-width="2.69227"/>
<path d="M240.344 33.764C239.169 33.5614 236.698 33.0105 236.212 32.4271" stroke="black" stroke-width="2.69227"/>
<path d="M11 33.3957C16.9004 32.6172 29.193 29.4621 29.316 23.4387" stroke="black" stroke-width="2.95612"/>
<path d="M30.1758 23.5614C30.3725 29.0685 42.1406 32.4121 48 33.3955C42.1406 32.4121 30.1758 28.8472 30.1758 23.4385" stroke="black" stroke-width="2.95612"/>
<path d="M15.3008 36.837C15.7105 37.9843 16.5546 41.4345 16.653 46.0565H42.2216C42.3445 43.6389 42.8116 38.4105 43.6967 36.837M24.7661 45.6877C25.2988 44.7453 26.3887 41.2624 26.487 36.837H32.3875C32.3055 38.517 32.6333 43.4013 34.1085 46.0565" stroke="black" stroke-width="2.95612"/>
<path d="M22.3071 24.6673C22.2252 22.2087 21.8154 16.7508 20.832 14.5873L29.4368 8.31812L38.5334 14.5873C37.8778 16.2264 36.542 20.537 36.4436 24.6673" stroke="black" stroke-width="2.95612"/>
<path d="M29.3164 9.79411V5" stroke="black" stroke-width="2.95612"/>
<path d="M22.4336 18.891H37.1847" stroke="black" stroke-width="2.95612"/>
</svg>
