<svg width="260" height="178" viewBox="0 0 260 178" fill="none" xmlns="http://www.w3.org/2000/svg">
<path fill-rule="evenodd" clip-rule="evenodd" d="M215.727 81.2152H217.56V101.162L242.77 101.375V81.4444H244.603V103.224L215.727 102.98V81.2152Z" fill="black"/>
<path d="M211.934 83.2718L230.726 67L246.998 83.2718L243.79 82.8134L230.726 69.9793L215.6 82.8134L211.934 83.2718Z" fill="black"/>
<path fill-rule="evenodd" clip-rule="evenodd" d="M140.385 124.998L159.983 142.985L158.361 144.752L155.477 142.106V164.901H123.457V143.119L121.586 144.768L120 142.969L140.385 124.998ZM125.856 141.004V162.502H153.078V139.904L140.353 128.224L125.856 141.004ZM148.096 154.518V156.916H132.642V154.518H148.096Z" fill="black"/>
<path fill-rule="evenodd" clip-rule="evenodd" d="M137.935 65L157.617 78.754C158.136 79.1166 158.263 79.831 157.9 80.3497C157.538 80.8685 156.823 80.9951 156.305 80.6326L137.943 67.8015L119.808 80.6289C119.291 80.9943 118.576 80.8718 118.21 80.3551C117.845 79.8384 117.968 79.1233 118.484 78.7578L137.935 65ZM137.93 75.343L154.669 86.1746V103.07H121.667V86.1847L137.93 75.343ZM137.948 78.0849L123.959 87.4113V100.778H152.377V87.4214L137.948 78.0849Z" fill="black"/>
<path fill-rule="evenodd" clip-rule="evenodd" d="M32.2638 124.174L57 142.432H48.4272V163.812H17.7152V142.432H9L32.2638 124.174ZM32.295 126.282L13.8547 140.754H19.3928V162.134H46.7497V140.754H51.9023L32.295 126.282ZM27.1797 152.209C25.9143 150.913 24.8682 149.326 24.1299 147.757L25.6477 147.043C26.3171 148.465 27.2616 149.892 28.38 151.037C29.503 152.187 30.7578 153.011 32.0433 153.314C33.2963 153.61 34.645 153.43 36.0529 152.452C37.4883 151.455 39.0141 149.605 40.4973 146.51L42.0101 147.235C40.4578 150.474 38.7723 152.605 37.01 153.83C35.2203 155.073 33.3851 155.355 31.6577 154.947C29.9627 154.547 28.4406 153.501 27.1797 152.209Z" fill="black"/>
<path fill-rule="evenodd" clip-rule="evenodd" d="M135.974 9.5482C135.562 9.62232 135.18 9.89374 134.969 10.1274L134.931 10.1694L121.085 21.839V40.3237H130.962V29.0054H141.788V40.3237H150.864V21.726L137.346 10.1672L137.31 10.1274C136.778 9.53949 136.318 9.48629 135.974 9.5482ZM152.54 20.9538V12.206H150.864V19.5204L138.515 8.96115C137.622 7.99839 136.604 7.73153 135.677 7.89833C134.835 8.04981 134.16 8.54027 133.767 8.95776L114 25.6186L115.08 26.9004L119.409 23.2519V42.0001H132.639V30.6818H140.111V42.0001H152.54V23.1594L156.911 26.8966L158 25.6225L152.54 20.9538Z" fill="black"/>
<path fill-rule="evenodd" clip-rule="evenodd" d="M222.212 38.4645C220.977 39.8304 219.946 41.4445 219.21 42.9173L217.752 42.1885C218.541 40.6095 219.652 38.8666 221.003 37.3714C222.349 35.883 223.981 34.5897 225.823 33.9953C227.702 33.3888 229.747 33.5302 231.803 34.8252C233.823 36.0979 235.808 38.4538 237.712 42.1823L236.261 42.9235C234.425 39.3277 232.608 37.2584 230.934 36.2041C229.296 35.1721 227.754 35.0846 226.323 35.5462C224.855 36.02 223.454 37.0918 222.212 38.4645Z" fill="black"/>
<path fill-rule="evenodd" clip-rule="evenodd" d="M228.757 7L234.953 12.3279V9.88848H244.667V20.6799L250.13 25.377C250.471 25.6704 250.51 26.1849 250.217 26.5261C249.923 26.8674 249.409 26.9062 249.068 26.6128L244.667 22.8292V43.3675H212.844V22.7635L208.345 26.614C208.003 26.9066 207.488 26.8666 207.196 26.5247C206.903 26.1828 206.943 25.6684 207.285 25.3758L228.757 7ZM214.474 21.3688V41.7378H243.037V21.428L228.754 9.14716L214.474 21.3688ZM243.037 19.2787V11.5182H236.583V13.7292L243.037 19.2787Z" fill="black"/>
<path fill-rule="evenodd" clip-rule="evenodd" d="M227.824 30.7939C229.775 30.7939 231.357 29.2124 231.357 27.2615C231.357 25.3106 229.775 23.7291 227.824 23.7291C225.873 23.7291 224.292 25.3106 224.292 27.2615C224.292 29.2124 225.873 30.7939 227.824 30.7939ZM227.824 32.4236C230.675 32.4236 232.986 30.1124 232.986 27.2615C232.986 24.4105 230.675 22.0994 227.824 22.0994C224.973 22.0994 222.662 24.4105 222.662 27.2615C222.662 30.1124 224.973 32.4236 227.824 32.4236Z" fill="black"/>
<path fill-rule="evenodd" clip-rule="evenodd" d="M31.7505 6.82014C31.3507 6.47034 30.7573 6.45892 30.3443 6.79309L17.8418 16.9108V10.3047C17.8418 9.70158 17.3528 9.21262 16.7496 9.21262C16.1465 9.21262 15.6575 9.70158 15.6575 10.3047V18.6784L9.40589 23.7375C8.93702 24.1169 8.86452 24.8046 9.24395 25.2735C9.62337 25.7423 10.3111 25.8148 10.7799 25.4354L15.6575 21.4882V41.8939C15.6575 42.4971 16.1465 42.9861 16.7496 42.9861H37.446C38.0492 42.9861 38.5381 42.4971 38.5381 41.8939C38.5381 41.2908 38.0492 40.8018 37.446 40.8018H17.8418V19.7206L31.0039 9.06919L44.048 20.4828V29.9118C44.048 30.515 44.537 31.0039 45.1402 31.0039C45.7433 31.0039 46.2323 30.515 46.2323 29.9118V22.394L49.6772 25.4083C50.1311 25.8055 50.8211 25.7595 51.2183 25.3056C51.6155 24.8517 51.5695 24.1617 51.1155 23.7645L31.7505 6.82014ZM36.1175 22.0448C36.1175 21.4416 35.6285 20.9527 35.0254 20.9527H26.0691C25.4659 20.9527 24.9769 21.4416 24.9769 22.0448V31.4852C24.9769 32.0884 25.4659 32.5774 26.0691 32.5774H35.0254C35.6285 32.5774 36.1175 32.0884 36.1175 31.4852V22.0448ZM33.9333 23.1369V30.3931H27.1612V23.1369H33.9333ZM67.1015 28.2057C67.095 27.6026 66.6009 27.1189 65.9978 27.1253C62.0391 27.1677 56.1127 28.4661 51.0871 32.2398C46.0135 36.0495 41.9302 42.3321 41.6796 52.1538C41.6642 52.7567 42.1406 53.258 42.7435 53.2734C43.3465 53.2888 43.8478 52.8124 43.8632 52.2095C44.0967 43.0533 47.8603 37.3942 52.3986 33.9864C56.9849 30.5426 62.4354 29.3478 66.0211 29.3094C66.6242 29.303 67.1079 28.8088 67.1015 28.2057ZM67.1015 36.438C67.0963 35.8349 66.6031 35.3502 65.9999 35.3554C63.4642 35.3775 59.6597 36.2919 56.297 38.932C52.9002 41.5989 50.017 45.9783 49.3101 52.7951C49.2479 53.3951 49.6838 53.9319 50.2837 53.9941C50.8837 54.0563 51.4205 53.6204 51.4827 53.0204C52.1313 46.7659 54.7349 42.9354 57.6458 40.65C60.5909 38.3379 63.9151 37.5579 66.0189 37.5396C66.6221 37.5344 67.1068 37.0412 67.1015 36.438ZM62.4909 47.5462C63.6043 46.6246 65.0234 46.341 65.9711 46.3743C66.5739 46.3954 67.0797 45.9239 67.1009 45.3211C67.122 44.7183 66.6505 44.2125 66.0477 44.1914C64.6958 44.1439 62.714 44.5261 61.0981 45.8637C59.427 47.247 58.2928 49.5317 58.5047 52.9749C58.5418 53.5769 59.0598 54.0349 59.6618 53.9979C60.2639 53.9608 60.7219 53.4427 60.6848 52.8407C60.5094 49.9903 61.4328 48.4221 62.4909 47.5462Z" fill="black"/>
<path fill-rule="evenodd" clip-rule="evenodd" d="M28.3633 79.2019H39.4857V89.7189H28.3633V79.2019ZM30.0409 80.8795V88.0413H37.8081V80.8795H30.0409Z" fill="black"/>
<path fill-rule="evenodd" clip-rule="evenodd" d="M34.7886 64.9202L47.0168 74.8995V69.2726H51.7972V78.8008L56.3777 82.5389L55.317 83.8386L51.7972 80.9661V96.024H50.1196V79.5971L34.7679 67.0687L18.786 79.607V96.024H17.1083V80.9231L13.3793 83.8487L12.3438 82.5288L34.7886 64.9202ZM50.1196 77.4317V70.9502H48.6944V76.2686L50.1196 77.4317Z" fill="black"/>
<path fill-rule="evenodd" clip-rule="evenodd" d="M50.1967 96.308L50.8806 97.8682C51.5268 99.3427 54.0844 102.339 59.0367 101.597C59.4948 101.528 59.9219 101.844 59.9906 102.302C60.0593 102.76 59.7436 103.187 59.2855 103.256C54.54 103.967 51.5366 101.753 50.0985 99.8148C48.5237 102.06 46.7118 103.03 45.7248 103.241C43.7633 103.795 41.7327 103.047 40.1068 102.063C38.8231 101.287 37.6842 100.299 36.859 99.4503C33.9975 102.4 30.1911 103.866 28.5082 104.256L28.4916 104.26L28.4748 104.263C26.0907 104.715 23.9372 104.082 22.2452 103.148C21.0061 102.464 19.9861 101.604 19.2623 100.838C18.8687 101.203 18.4103 101.525 17.9277 101.808C17.1049 102.29 16.154 102.693 15.1953 103.025C13.2791 103.688 11.2476 104.096 9.95091 104.271C9.4918 104.332 9.06947 104.01 9.00761 103.551C8.94575 103.092 9.26779 102.67 9.72691 102.608C10.9367 102.445 12.8561 102.059 14.6465 101.439C15.541 101.13 16.3824 100.769 17.0796 100.36C17.7858 99.9463 18.2889 99.5157 18.5719 99.0908L19.2272 98.1067L19.9395 99.0504C20.4904 99.7802 21.5943 100.872 23.0559 101.679C24.5055 102.479 26.2543 102.971 28.146 102.618C29.7436 102.244 33.6272 100.713 36.2184 97.662L36.8578 96.909L37.4972 97.662C38.216 98.5086 39.5001 99.7355 40.9752 100.628C42.4755 101.536 43.9997 101.995 45.2907 101.621L45.3253 101.61L45.3607 101.603C45.9238 101.492 47.8419 100.598 49.377 97.8013L50.1967 96.308Z" fill="black"/>
<path fill-rule="evenodd" clip-rule="evenodd" d="M230 126L245.207 137.751V131.099H247.429V139.468L251 142.227L249.641 143.986L247.429 142.277V164.025H232.359L228.341 159.289L236.645 153.821L227.644 145.137L231.518 153.015L222.729 156.694L227.131 164.949H212.879V142.039L210.359 143.986L209 142.227L230 126ZM215.101 140.321V162.726H223.427L219.619 155.587L228.482 151.877L222.845 140.416L224.614 139.125L240.186 154.15L231.659 159.765L233.388 161.803H245.207V140.559L230 128.809L215.101 140.321Z" fill="black"/>
</svg>
