<svg width="260" height="178" viewBox="0 0 260 178" fill="none" xmlns="http://www.w3.org/2000/svg">
<path fill-rule="evenodd" clip-rule="evenodd" d="M37.6729 12.0291C37.9825 11.7582 38.4422 11.7493 38.762 12.0082L48.4455 19.8445V14.728C48.4455 14.2608 48.8242 13.8821 49.2913 13.8821C49.7585 13.8821 50.1372 14.2608 50.1372 14.728V21.2135L54.9792 25.1319C55.3423 25.4257 55.3985 25.9584 55.1046 26.3215C54.8107 26.6846 54.2781 26.7408 53.915 26.4469L50.1372 23.3898V39.1943C50.1372 39.6615 49.7585 40.0402 49.2913 40.0402H33.2617C32.7945 40.0402 32.4158 39.6615 32.4158 39.1943C32.4158 38.7272 32.7945 38.3485 33.2617 38.3485H48.4455V22.0207L38.2512 13.771L28.1483 22.6111V29.914C28.1483 30.3811 27.7696 30.7599 27.3024 30.7599C26.8353 30.7599 26.4566 30.3811 26.4566 29.914V24.0913L23.7884 26.426C23.4368 26.7336 22.9025 26.698 22.5948 26.3464C22.2872 25.9948 22.3228 25.4604 22.6744 25.1528L37.6729 12.0291ZM34.2906 23.8208C34.2906 23.3537 34.6693 22.975 35.1365 22.975H42.0733C42.5405 22.975 42.9192 23.3537 42.9192 23.8208V31.1326C42.9192 31.5998 42.5405 31.9785 42.0733 31.9785H35.1365C34.6693 31.9785 34.2906 31.5998 34.2906 31.1326V23.8208ZM35.9823 24.6667V30.2868H41.2274V24.6667H35.9823ZM10.293 28.5926C10.298 28.1254 10.6808 27.7508 11.1479 27.7558C14.2139 27.7886 18.804 28.7942 22.6964 31.717C26.626 34.6677 29.7886 39.5337 29.9827 47.1407C29.9946 47.6077 29.6256 47.996 29.1586 48.0079C28.6916 48.0198 28.3034 47.6509 28.2915 47.1839C28.1106 40.0923 25.1957 35.7092 21.6806 33.0698C18.1285 30.4025 13.907 29.4771 11.1298 29.4474C10.6627 29.4424 10.288 29.0597 10.293 28.5926ZM10.293 34.9686C10.2971 34.5015 10.6791 34.1261 11.1462 34.1302C13.1101 34.1472 16.0568 34.8555 18.6613 36.9003C21.2922 38.9658 23.5252 42.3577 24.0728 47.6375C24.1209 48.1021 23.7833 48.5179 23.3187 48.5661C22.854 48.6143 22.4382 48.2766 22.39 47.812C21.8877 42.9677 19.8712 40.0009 17.6166 38.2309C15.3356 36.4401 12.7609 35.836 11.1315 35.8218C10.6643 35.8178 10.2889 35.4358 10.293 34.9686ZM13.864 43.5721C13.0017 42.8583 11.9025 42.6387 11.1685 42.6644C10.7016 42.6808 10.3099 42.3156 10.2935 41.8487C10.2771 41.3819 10.6423 40.9901 11.1092 40.9737C12.1562 40.937 13.6912 41.2329 14.9427 42.2689C16.237 43.3404 17.1155 45.1099 16.9514 47.7767C16.9227 48.243 16.5214 48.5977 16.0551 48.569C15.5889 48.5403 15.2341 48.1391 15.2628 47.6728C15.3987 45.4651 14.6835 44.2505 13.864 43.5721Z" fill="black"/>
<path fill-rule="evenodd" clip-rule="evenodd" d="M134.271 16.9147C133.915 16.9787 133.585 17.2131 133.402 17.4149L133.369 17.4512L121.412 27.5294V43.4935H129.942V33.7186H139.291V43.4935H147.13V27.4319L135.455 17.4493L135.424 17.4149C134.965 16.9071 134.568 16.8612 134.271 16.9147ZM148.578 26.7649V19.21H147.13V25.527L136.465 16.4077C135.694 15.5762 134.815 15.3457 134.014 15.4898C133.287 15.6206 132.704 16.0442 132.365 16.4047L115.293 30.7937L116.226 31.9007L119.964 28.7497V44.9413H131.39V35.1664H137.844V44.9413H148.578V28.6698L152.352 31.8973L153.293 30.797L148.578 26.7649Z" fill="black"/>
<path fill-rule="evenodd" clip-rule="evenodd" d="M226.054 41.3348C225.018 42.4805 224.153 43.8344 223.535 45.0697L222.312 44.4584C222.975 43.134 223.906 41.6721 225.04 40.418C226.169 39.1696 227.537 38.0847 229.082 37.5862C230.658 37.0775 232.373 37.1961 234.098 38.2823C235.793 39.3498 237.458 41.3258 239.055 44.4532L237.837 45.0749C236.297 42.0588 234.773 40.3232 233.369 39.4389C231.995 38.5733 230.702 38.4999 229.502 38.8871C228.27 39.2845 227.095 40.1834 226.054 41.3348Z" fill="black"/>
<path fill-rule="evenodd" clip-rule="evenodd" d="M231.542 14.9434L236.739 19.4123V17.3661H244.887V26.4177L249.469 30.3574C249.755 30.6035 249.788 31.0351 249.542 31.3213C249.296 31.6075 248.864 31.64 248.578 31.3939L244.887 28.2204V45.4473H218.195V28.1653L214.421 31.395C214.134 31.6404 213.703 31.6069 213.457 31.3201C213.212 31.0333 213.245 30.6019 213.532 30.3564L231.542 14.9434ZM219.562 26.9954V44.0803H243.52V27.0451L231.54 16.7443L219.562 26.9954ZM243.52 25.2424V18.7331H238.106V20.5876L243.52 25.2424Z" fill="black"/>
<path fill-rule="evenodd" clip-rule="evenodd" d="M230.76 34.9011C232.396 34.9011 233.722 33.5746 233.722 31.9382C233.722 30.3019 232.396 28.9753 230.76 28.9753C229.123 28.9753 227.797 30.3019 227.797 31.9382C227.797 33.5746 229.123 34.9011 230.76 34.9011ZM230.76 36.2681C233.151 36.2681 235.089 34.3295 235.089 31.9382C235.089 29.5469 233.151 27.6084 230.76 27.6084C228.368 27.6084 226.43 29.5469 226.43 31.9382C226.43 34.3295 228.368 36.2681 230.76 36.2681Z" fill="black"/>
<path fill-rule="evenodd" clip-rule="evenodd" d="M31.3262 85.6118H40.7039V94.4791H31.3262V85.6118ZM32.7406 87.0263V93.0646H39.2894V87.0263H32.7406Z" fill="black"/>
<path fill-rule="evenodd" clip-rule="evenodd" d="M36.7424 73.5708L47.0525 81.9848V77.2405H51.083V85.2741L54.945 88.4258L54.0507 89.5217L51.083 87.0998V99.7956H49.6686V85.9454L36.725 75.3823L23.25 85.9538V99.7956H21.8356V87.0635L18.6914 89.5302L17.8184 88.4173L36.7424 73.5708ZM49.6686 84.1197V78.6549H48.467V83.1391L49.6686 84.1197Z" fill="black"/>
<path fill-rule="evenodd" clip-rule="evenodd" d="M49.7345 100.035L50.3111 101.35C50.8559 102.593 53.0123 105.12 57.1878 104.494C57.574 104.436 57.9341 104.702 57.9921 105.088C58.05 105.475 57.7838 105.835 57.3976 105.893C53.3964 106.493 50.8642 104.625 49.6517 102.991C48.3239 104.884 46.7962 105.702 45.9641 105.88C44.3102 106.347 42.5981 105.716 41.2273 104.887C40.1449 104.232 39.1847 103.4 38.489 102.684C36.0763 105.171 32.867 106.407 31.4481 106.736L31.4341 106.74L31.4199 106.742C29.4098 107.123 27.5941 106.589 26.1675 105.802C25.1228 105.225 24.2628 104.5 23.6525 103.854C23.3206 104.162 22.9342 104.433 22.5273 104.672C21.8336 105.078 21.0318 105.418 20.2235 105.698C18.6079 106.257 16.895 106.601 15.8017 106.748C15.4147 106.8 15.0586 106.529 15.0064 106.142C14.9543 105.755 15.2258 105.399 15.6129 105.346C16.6329 105.209 18.2512 104.884 19.7607 104.361C20.515 104.1 21.2243 103.796 21.8122 103.451C22.4077 103.102 22.8318 102.739 23.0704 102.381L23.623 101.551L24.2235 102.347C24.688 102.962 25.6187 103.883 26.8511 104.563C28.0732 105.238 29.5477 105.653 31.1427 105.355C32.4897 105.039 35.7641 103.749 37.9488 101.176L38.4879 100.541L39.027 101.176C39.6331 101.89 40.7158 102.925 41.9595 103.677C43.2244 104.442 44.5096 104.829 45.598 104.514L45.6272 104.505L45.6571 104.499C46.1319 104.405 47.7491 103.651 49.0433 101.294L49.7345 100.035Z" fill="black"/>
<path fill-rule="evenodd" clip-rule="evenodd" d="M135.397 73.6084L152.573 85.611C153.025 85.9274 153.136 86.5508 152.82 87.0035C152.503 87.4562 151.88 87.5668 151.427 87.2504L135.403 76.0532L119.578 87.2471C119.127 87.5661 118.503 87.4591 118.184 87.0082C117.865 86.5573 117.972 85.9332 118.423 85.6143L135.397 73.6084ZM135.392 82.6344L150 92.0867V106.831H121.2V92.0955L135.392 82.6344ZM135.408 85.0271L123.2 93.1659V104.831H148V93.1747L135.408 85.0271Z" fill="black"/>
<path fill-rule="evenodd" clip-rule="evenodd" d="M216.129 86.6602H217.802V104.863L240.809 105.058V86.8693H242.482V106.746L216.129 106.522V86.6602Z" fill="black"/>
<path d="M213 88.543L230.15 73.6934L245 88.543L242.072 88.1247L230.15 76.4123L216.346 88.1247L213 88.543Z" fill="black"/>
<path fill-rule="evenodd" clip-rule="evenodd" d="M33.8875 132.118L54.9881 147.692H47.6753V165.93H21.4773V147.692H14.043L33.8875 132.118ZM33.9141 133.916L18.1842 146.261H22.9083V164.499H46.2444V146.261H50.6397L33.9141 133.916ZM29.5507 156.033C28.4713 154.927 27.5789 153.573 26.9491 152.235L28.2439 151.626C28.8149 152.839 29.6206 154.056 30.5746 155.033C31.5325 156.014 32.6029 156.716 33.6994 156.975C34.7683 157.228 35.9188 157.074 37.1197 156.24C38.3441 155.389 39.6457 153.811 40.9109 151.171L42.2014 151.789C40.8772 154.553 39.4394 156.371 37.9362 157.415C36.4095 158.476 34.844 158.716 33.3705 158.368C31.9247 158.027 30.6262 157.134 29.5507 156.033Z" fill="black"/>
<path fill-rule="evenodd" clip-rule="evenodd" d="M132.307 132.073L148.957 147.355L147.579 148.856L145.129 146.608V165.974H117.926V147.468L116.336 148.87L114.988 147.341L132.307 132.073ZM119.963 145.672V163.936H143.091V144.737L132.28 134.814L119.963 145.672ZM138.858 157.153V159.191H125.728V157.153H138.858Z" fill="black"/>
<path fill-rule="evenodd" clip-rule="evenodd" d="M227.457 131.868L240.853 142.22V136.36H242.811V143.733L245.957 146.164L244.76 147.713L242.811 146.207V165.367H229.535L225.995 161.194L233.311 156.377L225.381 148.727L228.795 155.667L221.051 158.908L224.93 166.18H212.374V145.998L210.154 147.713L208.957 146.164L227.457 131.868ZM214.332 144.485V164.222H221.666L218.312 157.933L226.119 154.664L221.154 144.568L222.712 143.431L236.431 156.667L228.919 161.614L230.442 163.409H240.853V144.694L227.457 134.343L214.332 144.485Z" fill="black"/>
</svg>
