<svg width="139" height="35" viewBox="0 0 139 35" fill="none" xmlns="http://www.w3.org/2000/svg">
<path d="M28.7613 28.5635C27.4332 28.5635 26.2473 28.2868 25.2038 27.7334C24.176 27.1642 23.3697 26.3894 22.7846 25.4091C22.1996 24.4288 21.9071 23.3141 21.9071 22.065C21.9071 20.8001 22.1996 19.6854 22.7846 18.7209C23.3697 17.7406 24.176 16.9737 25.2038 16.4203C26.2473 15.8669 27.4332 15.5902 28.7613 15.5902C29.9946 15.5902 31.0777 15.8432 32.0106 16.3492C32.9593 16.8393 33.6787 17.5667 34.1688 18.5312L31.892 19.8593C31.5125 19.2585 31.0461 18.8158 30.4927 18.5312C29.9551 18.2466 29.3701 18.1043 28.7376 18.1043C28.0103 18.1043 27.3541 18.2624 26.7691 18.5786C26.1841 18.8948 25.7256 19.3533 25.3935 19.9542C25.0615 20.5392 24.8955 21.2428 24.8955 22.065C24.8955 22.8872 25.0615 23.5987 25.3935 24.1995C25.7256 24.7846 26.1841 25.2352 26.7691 25.5514C27.3541 25.8676 28.0103 26.0258 28.7376 26.0258C29.3701 26.0258 29.9551 25.8835 30.4927 25.5988C31.0461 25.3142 31.5125 24.8715 31.892 24.2707L34.1688 25.5988C33.6787 26.5475 32.9593 27.2828 32.0106 27.8045C31.0777 28.3105 29.9946 28.5635 28.7613 28.5635ZM42.2384 28.5635C40.9419 28.5635 39.7876 28.2868 38.7757 27.7334C37.7638 27.1642 36.9653 26.3894 36.3803 25.4091C35.7952 24.4288 35.5027 23.3141 35.5027 22.065C35.5027 20.8001 35.7952 19.6854 36.3803 18.7209C36.9653 17.7406 37.7638 16.9737 38.7757 16.4203C39.7876 15.8669 40.9419 15.5902 42.2384 15.5902C43.5507 15.5902 44.7129 15.8669 45.7248 16.4203C46.7525 16.9737 47.551 17.7327 48.1202 18.6972C48.7052 19.6617 48.9978 20.7843 48.9978 22.065C48.9978 23.3141 48.7052 24.4288 48.1202 25.4091C47.551 26.3894 46.7525 27.1642 45.7248 27.7334C44.7129 28.2868 43.5507 28.5635 42.2384 28.5635ZM42.2384 26.0258C42.9657 26.0258 43.614 25.8676 44.1832 25.5514C44.7524 25.2352 45.1951 24.7767 45.5113 24.1758C45.8434 23.575 46.0094 22.8714 46.0094 22.065C46.0094 21.2428 45.8434 20.5392 45.5113 19.9542C45.1951 19.3533 44.7524 18.8948 44.1832 18.5786C43.614 18.2624 42.9736 18.1043 42.2621 18.1043C41.5348 18.1043 40.8865 18.2624 40.3173 18.5786C39.7639 18.8948 39.3212 19.3533 38.9891 19.9542C38.6571 20.5392 38.4911 21.2428 38.4911 22.065C38.4911 22.8714 38.6571 23.575 38.9891 24.1758C39.3212 24.7767 39.7639 25.2352 40.3173 25.5514C40.8865 25.8676 41.5269 26.0258 42.2384 26.0258ZM59.019 15.5902C60.0309 15.5902 60.9321 15.7879 61.7227 16.1832C62.5291 16.5785 63.1615 17.1872 63.6201 18.0094C64.0786 18.8158 64.3079 19.8593 64.3079 21.14V28.3975H61.3432V21.5195C61.3432 20.3969 61.0744 19.5589 60.5368 19.0055C60.0151 18.4521 59.2798 18.1754 58.3312 18.1754C57.6355 18.1754 57.0188 18.3177 56.4812 18.6023C55.9436 18.8869 55.5246 19.3138 55.2242 19.883C54.9396 20.4364 54.7973 21.14 54.7973 21.9939V28.3975H51.8327V15.7325H54.655V19.1478L54.157 18.1043C54.5997 17.2979 55.24 16.6812 56.078 16.2543C56.9319 15.8116 57.9122 15.5902 59.019 15.5902ZM71.982 28.5635C70.9226 28.5635 69.9028 28.4291 68.9225 28.1603C67.958 27.8757 67.1912 27.5357 66.6219 27.1405L67.7604 24.8873C68.3296 25.251 69.0095 25.5514 69.8 25.7886C70.5906 26.0258 71.3812 26.1443 72.1717 26.1443C73.1046 26.1443 73.7766 26.0178 74.1877 25.7649C74.6146 25.5119 74.8281 25.1719 74.8281 24.745C74.8281 24.3972 74.6857 24.1363 74.4011 23.9624C74.1165 23.7726 73.745 23.6303 73.2864 23.5355C72.8279 23.4406 72.314 23.3536 71.7448 23.2746C71.1914 23.1955 70.6301 23.0927 70.0609 22.9663C69.5075 22.8239 69.0016 22.6263 68.543 22.3733C68.0845 22.1045 67.7129 21.7488 67.4283 21.3061C67.1437 20.8633 67.0014 20.2783 67.0014 19.551C67.0014 18.7446 67.2307 18.0489 67.6892 17.4639C68.1477 16.8631 68.7881 16.4045 69.6103 16.0883C70.4483 15.7563 71.4365 15.5902 72.5749 15.5902C73.4287 15.5902 74.2905 15.6851 75.1601 15.8748C76.0297 16.0646 76.7491 16.3334 77.3183 16.6812L76.1799 18.9343C75.5791 18.5707 74.9704 18.3256 74.3537 18.1991C73.7529 18.0568 73.152 17.9857 72.5512 17.9857C71.65 17.9857 70.978 18.1201 70.5353 18.3889C70.1084 18.6576 69.8949 18.9976 69.8949 19.4087C69.8949 19.7882 70.0372 20.0728 70.3218 20.2625C70.6064 20.4522 70.978 20.6024 71.4365 20.7131C71.895 20.8238 72.401 20.9187 72.9544 20.9977C73.5236 21.061 74.0849 21.1638 74.6383 21.3061C75.1917 21.4484 75.6977 21.646 76.1562 21.899C76.6305 22.1362 77.01 22.4761 77.2946 22.9188C77.5792 23.3615 77.7215 23.9387 77.7215 24.6502C77.7215 25.4407 77.4844 26.1285 77.01 26.7135C76.5515 27.2986 75.8953 27.7571 75.0415 28.0891C74.1877 28.4054 73.1679 28.5635 71.982 28.5635Z" fill="white"/>
<path d="M88.3147 28.6346C87.0182 28.6346 85.8244 28.4291 84.7335 28.018C83.6583 27.5911 82.7175 26.9982 81.9111 26.2392C81.1047 25.4644 80.4802 24.5553 80.0375 23.5117C79.5948 22.4682 79.3734 21.3298 79.3734 20.0965C79.3734 18.8632 79.5948 17.7248 80.0375 16.6812C80.4802 15.6377 81.1047 14.7364 81.9111 13.9775C82.7333 13.2027 83.6899 12.6098 84.7809 12.1987C85.8719 11.7718 87.0656 11.5583 88.3622 11.5583C89.7694 11.5583 91.0343 11.7876 92.1569 12.2461C93.2953 12.7047 94.2519 13.3766 95.0267 14.2621L93.0819 16.1595C92.4336 15.5112 91.73 15.0368 90.971 14.7364C90.2279 14.4202 89.4057 14.2621 88.5045 14.2621C87.6348 14.2621 86.8285 14.4044 86.0853 14.689C85.3422 14.9736 84.7018 15.3768 84.1642 15.8986C83.6267 16.4203 83.2077 17.037 82.9072 17.7485C82.6226 18.46 82.4803 19.2427 82.4803 20.0965C82.4803 20.9345 82.6226 21.7092 82.9072 22.4208C83.2077 23.1323 83.6267 23.7568 84.1642 24.2944C84.7018 24.8162 85.3343 25.2194 86.0616 25.504C86.7889 25.7886 87.5953 25.9309 88.4807 25.9309C89.3029 25.9309 90.0935 25.8044 90.8525 25.5514C91.6272 25.2826 92.3624 24.8399 93.0581 24.2233L94.8132 26.5238C93.9436 27.2195 92.9317 27.7492 91.7774 28.1129C90.639 28.4607 89.4848 28.6346 88.3147 28.6346ZM91.896 26.1206V19.9067H94.8132V26.5238L91.896 26.1206ZM103.955 28.5635C102.88 28.5635 101.931 28.3658 101.109 27.9706C100.287 27.5595 99.6466 26.9428 99.1881 26.1206C98.7295 25.2826 98.5003 24.2312 98.5003 22.9663V15.7325H101.465V22.5631C101.465 23.7015 101.718 24.5553 102.224 25.1245C102.746 25.6779 103.481 25.9546 104.43 25.9546C105.125 25.9546 105.726 25.8123 106.232 25.5277C106.754 25.2431 107.157 24.8162 107.442 24.247C107.742 23.6778 107.892 22.9742 107.892 22.1362V15.7325H110.857V28.3975H108.035V24.9822L108.533 26.0258C108.106 26.8479 107.481 27.4804 106.659 27.9231C105.837 28.35 104.936 28.5635 103.955 28.5635ZM114.739 28.3975V15.7325H117.561V19.219L117.229 18.1991C117.608 17.3453 118.201 16.697 119.008 16.2543C119.83 15.8116 120.85 15.5902 122.067 15.5902V18.4126C121.941 18.3809 121.822 18.3651 121.711 18.3651C121.601 18.3493 121.49 18.3414 121.379 18.3414C120.257 18.3414 119.363 18.6735 118.699 19.3375C118.035 19.9858 117.703 20.9582 117.703 22.2547V28.3975H114.739ZM130.058 28.5635C128.983 28.5635 128.034 28.3658 127.212 27.9706C126.39 27.5595 125.749 26.9428 125.291 26.1206C124.832 25.2826 124.603 24.2312 124.603 22.9663V15.7325H127.568V22.5631C127.568 23.7015 127.821 24.5553 128.327 25.1245C128.848 25.6779 129.584 25.9546 130.532 25.9546C131.228 25.9546 131.829 25.8123 132.335 25.5277C132.857 25.2431 133.26 24.8162 133.544 24.247C133.845 23.6778 133.995 22.9742 133.995 22.1362V15.7325H136.96V28.3975H134.137V24.9822L134.635 26.0258C134.208 26.8479 133.584 27.4804 132.762 27.9231C131.939 28.35 131.038 28.5635 130.058 28.5635Z" fill="#FF4730"/>
<path d="M13.0628 12.9129C13.0628 9.79511 9.85971 10.3863 7.9476 11.4319C7.76594 11.5313 7.81191 11.7963 8.00649 11.8671C9.0044 12.23 9.27215 12.8768 9.27215 13.9104V22.7616C9.27215 22.9648 9.51256 23.0723 9.66401 22.9368L12.9845 19.9658C13.0343 19.9212 13.0628 19.8575 13.0628 19.7906V12.9129Z" fill="#FF4730"/>
<path d="M21.581 9.70053C2.06952 40.7459 -2.28832 18.5178 6.28062 11.1173C-8.94201 21.0705 6.35001 47.2507 21.9934 9.91811C22.1046 9.65261 21.7342 9.4568 21.581 9.70053Z" fill="#FF4730"/>
<path d="M9.31285 30.4668C13.5106 30.3623 13.2904 27.4705 13.2657 24.4659C13.2642 24.2912 13.0801 24.1781 12.927 24.2625C10.9269 25.3657 9.57918 27.0396 9.10623 27.8222C9.0847 27.8579 9.07422 27.8981 9.07422 27.9397V30.2347C9.07422 30.3645 9.18305 30.4701 9.31285 30.4668Z" fill="#FF4730"/>
<circle cx="11.2675" cy="4.53365" r="3.99019" fill="#FF4730"/>
</svg>
