<svg width="205" height="51" viewBox="0 0 205 51" fill="none" xmlns="http://www.w3.org/2000/svg">
<path d="M42.445 41.4083C40.485 41.4083 38.735 41 37.195 40.1833C35.6783 39.3433 34.4883 38.2 33.625 36.7533C32.7617 35.3067 32.33 33.6617 32.33 31.8183C32.33 29.9517 32.7617 28.3067 33.625 26.8833C34.4883 25.4367 35.6783 24.305 37.195 23.4883C38.735 22.6717 40.485 22.2633 42.445 22.2633C44.265 22.2633 45.8633 22.6367 47.24 23.3833C48.64 24.1067 49.7017 25.18 50.425 26.6033L47.065 28.5633C46.505 27.6767 45.8167 27.0233 45 26.6033C44.2067 26.1833 43.3433 25.9733 42.41 25.9733C41.3367 25.9733 40.3683 26.2067 39.505 26.6733C38.6417 27.14 37.965 27.8167 37.475 28.7033C36.985 29.5667 36.74 30.605 36.74 31.8183C36.74 33.0317 36.985 34.0817 37.475 34.9683C37.965 35.8317 38.6417 36.4967 39.505 36.9633C40.3683 37.43 41.3367 37.6633 42.41 37.6633C43.3433 37.6633 44.2067 37.4533 45 37.0333C45.8167 36.6133 46.505 35.96 47.065 35.0733L50.425 37.0333C49.7017 38.4333 48.64 39.5183 47.24 40.2883C45.8633 41.035 44.265 41.4083 42.445 41.4083ZM62.3335 41.4083C60.4201 41.4083 58.7168 41 57.2235 40.1833C55.7301 39.3433 54.5518 38.2 53.6885 36.7533C52.8251 35.3067 52.3935 33.6617 52.3935 31.8183C52.3935 29.9517 52.8251 28.3067 53.6885 26.8833C54.5518 25.4367 55.7301 24.305 57.2235 23.4883C58.7168 22.6717 60.4201 22.2633 62.3335 22.2633C64.2701 22.2633 65.9851 22.6717 67.4785 23.4883C68.9951 24.305 70.1735 25.425 71.0135 26.8483C71.8768 28.2717 72.3085 29.9283 72.3085 31.8183C72.3085 33.6617 71.8768 35.3067 71.0135 36.7533C70.1735 38.2 68.9951 39.3433 67.4785 40.1833C65.9851 41 64.2701 41.4083 62.3335 41.4083ZM62.3335 37.6633C63.4068 37.6633 64.3635 37.43 65.2035 36.9633C66.0435 36.4967 66.6968 35.82 67.1635 34.9333C67.6535 34.0467 67.8985 33.0083 67.8985 31.8183C67.8985 30.605 67.6535 29.5667 67.1635 28.7033C66.6968 27.8167 66.0435 27.14 65.2035 26.6733C64.3635 26.2067 63.4185 25.9733 62.3685 25.9733C61.2951 25.9733 60.3385 26.2067 59.4985 26.6733C58.6818 27.14 58.0285 27.8167 57.5385 28.7033C57.0485 29.5667 56.8035 30.605 56.8035 31.8183C56.8035 33.0083 57.0485 34.0467 57.5385 34.9333C58.0285 35.82 58.6818 36.4967 59.4985 36.9633C60.3385 37.43 61.2835 37.6633 62.3335 37.6633ZM87.0971 22.2633C88.5904 22.2633 89.9204 22.555 91.0871 23.1383C92.2771 23.7217 93.2104 24.62 93.8871 25.8333C94.5637 27.0233 94.9021 28.5633 94.9021 30.4533V41.1633H90.5271V31.0133C90.5271 29.3567 90.1304 28.12 89.3371 27.3033C88.5671 26.4867 87.4821 26.0783 86.0821 26.0783C85.0554 26.0783 84.1454 26.2883 83.3521 26.7083C82.5587 27.1283 81.9404 27.7583 81.4971 28.5983C81.0771 29.415 80.8671 30.4533 80.8671 31.7133V41.1633H76.4921V22.4733H80.6571V27.5133L79.9221 25.9733C80.5754 24.7833 81.5204 23.8733 82.7571 23.2433C84.0171 22.59 85.4637 22.2633 87.0971 22.2633ZM106.227 41.4083C104.664 41.4083 103.159 41.21 101.712 40.8133C100.289 40.3933 99.157 39.8917 98.317 39.3083L99.997 35.9833C100.837 36.52 101.84 36.9633 103.007 37.3133C104.174 37.6633 105.34 37.8383 106.507 37.8383C107.884 37.8383 108.875 37.6517 109.482 37.2783C110.112 36.905 110.427 36.4033 110.427 35.7733C110.427 35.26 110.217 34.875 109.797 34.6183C109.377 34.3383 108.829 34.1283 108.152 33.9883C107.475 33.8483 106.717 33.72 105.877 33.6033C105.06 33.4867 104.232 33.335 103.392 33.1483C102.575 32.9383 101.829 32.6467 101.152 32.2733C100.475 31.8767 99.927 31.3517 99.507 30.6983C99.087 30.045 98.877 29.1817 98.877 28.1083C98.877 26.9183 99.2154 25.8917 99.892 25.0283C100.569 24.1417 101.514 23.465 102.727 22.9983C103.964 22.5083 105.422 22.2633 107.102 22.2633C108.362 22.2633 109.634 22.4033 110.917 22.6833C112.2 22.9633 113.262 23.36 114.102 23.8733L112.422 27.1983C111.535 26.6617 110.637 26.3 109.727 26.1133C108.84 25.9033 107.954 25.7983 107.067 25.7983C105.737 25.7983 104.745 25.9967 104.092 26.3933C103.462 26.79 103.147 27.2917 103.147 27.8983C103.147 28.4583 103.357 28.8783 103.777 29.1583C104.197 29.4383 104.745 29.66 105.422 29.8233C106.099 29.9867 106.845 30.1267 107.662 30.2433C108.502 30.3367 109.33 30.4883 110.147 30.6983C110.964 30.9083 111.71 31.2 112.387 31.5733C113.087 31.9233 113.647 32.425 114.067 33.0783C114.487 33.7317 114.697 34.5833 114.697 35.6333C114.697 36.8 114.347 37.815 113.647 38.6783C112.97 39.5417 112.002 40.2183 110.742 40.7083C109.482 41.175 107.977 41.4083 106.227 41.4083Z" fill="#181818"/>
<path d="M130.33 41.5133C128.416 41.5133 126.655 41.21 125.045 40.6033C123.458 39.9733 122.07 39.0983 120.88 37.9783C119.69 36.835 118.768 35.4933 118.115 33.9533C117.461 32.4133 117.135 30.7333 117.135 28.9133C117.135 27.0933 117.461 25.4133 118.115 23.8733C118.768 22.3333 119.69 21.0033 120.88 19.8833C122.093 18.74 123.505 17.865 125.115 17.2583C126.725 16.6283 128.486 16.3133 130.4 16.3133C132.476 16.3133 134.343 16.6517 136 17.3283C137.68 18.005 139.091 18.9967 140.235 20.3033L137.365 23.1033C136.408 22.1467 135.37 21.4467 134.25 21.0033C133.153 20.5367 131.94 20.3033 130.61 20.3033C129.326 20.3033 128.136 20.5133 127.04 20.9333C125.943 21.3533 124.998 21.9483 124.205 22.7183C123.411 23.4883 122.793 24.3983 122.35 25.4483C121.93 26.4983 121.72 27.6533 121.72 28.9133C121.72 30.15 121.93 31.2933 122.35 32.3433C122.793 33.3933 123.411 34.315 124.205 35.1083C124.998 35.8783 125.931 36.4733 127.005 36.8933C128.078 37.3133 129.268 37.5233 130.575 37.5233C131.788 37.5233 132.955 37.3367 134.075 36.9633C135.218 36.5667 136.303 35.9133 137.33 35.0033L139.92 38.3983C138.636 39.425 137.143 40.2067 135.44 40.7433C133.76 41.2567 132.056 41.5133 130.33 41.5133ZM135.615 37.8033V28.6333H139.92V38.3983L135.615 37.8033ZM153.411 41.4083C151.824 41.4083 150.424 41.1167 149.211 40.5333C147.998 39.9267 147.053 39.0167 146.376 37.8033C145.699 36.5667 145.361 35.015 145.361 33.1483V22.4733H149.736V32.5533C149.736 34.2333 150.109 35.4933 150.856 36.3333C151.626 37.15 152.711 37.5583 154.111 37.5583C155.138 37.5583 156.024 37.3483 156.771 36.9283C157.541 36.5083 158.136 35.8783 158.556 35.0383C158.999 34.1983 159.221 33.16 159.221 31.9233V22.4733H163.596V41.1633H159.431V36.1233L160.166 37.6633C159.536 38.8767 158.614 39.81 157.401 40.4633C156.188 41.0933 154.858 41.4083 153.411 41.4083ZM169.324 41.1633V22.4733H173.489V27.6183L172.999 26.1133C173.559 24.8533 174.434 23.8967 175.624 23.2433C176.837 22.59 178.342 22.2633 180.139 22.2633V26.4283C179.952 26.3817 179.777 26.3583 179.614 26.3583C179.451 26.335 179.287 26.3233 179.124 26.3233C177.467 26.3233 176.149 26.8133 175.169 27.7933C174.189 28.75 173.699 30.185 173.699 32.0983V41.1633H169.324ZM191.931 41.4083C190.345 41.4083 188.945 41.1167 187.731 40.5333C186.518 39.9267 185.573 39.0167 184.896 37.8033C184.22 36.5667 183.881 35.015 183.881 33.1483V22.4733H188.256V32.5533C188.256 34.2333 188.63 35.4933 189.376 36.3333C190.146 37.15 191.231 37.5583 192.631 37.5583C193.658 37.5583 194.545 37.3483 195.291 36.9283C196.061 36.5083 196.656 35.8783 197.076 35.0383C197.52 34.1983 197.741 33.16 197.741 31.9233V22.4733H202.116V41.1633H197.951V36.1233L198.686 37.6633C198.056 38.8767 197.135 39.81 195.921 40.4633C194.708 41.0933 193.378 41.4083 191.931 41.4083Z" fill="#1FB141"/>
<path d="M19.2785 18.254C19.2785 13.6529 14.5515 14.5254 11.7298 16.0684C11.4617 16.215 11.5295 16.6062 11.8167 16.7106C13.2893 17.2461 13.6845 18.2007 13.6845 19.726V32.7879C13.6845 33.0878 14.0393 33.2464 14.2627 33.0465L19.1629 28.6621C19.2365 28.5963 19.2785 28.5023 19.2785 28.4036V18.254Z" fill="#1FB141"/>
<path d="M31.8477 13.5134C3.05406 59.3281 -3.37694 26.5253 9.26851 15.6043C-13.196 30.2925 9.3709 68.9274 32.4563 13.8345C32.6205 13.4427 32.0737 13.1538 31.8477 13.5134Z" fill="#1FB141"/>
<path d="M13.7424 44.1589C19.9372 44.0047 19.6121 39.7371 19.5757 35.3032C19.5736 35.0453 19.3018 34.8785 19.076 35.003C16.1244 36.6309 14.1354 39.1012 13.4375 40.2562C13.4057 40.3088 13.3903 40.3681 13.3903 40.4295V43.8163C13.3903 44.0079 13.5509 44.1637 13.7424 44.1589Z" fill="#1FB141"/>
<circle cx="16.6291" cy="5.88845" r="5.88845" fill="#1FB141"/>
</svg>
