<svg width="24" height="24" viewBox="0 0 24 24" fill="none" xmlns="http://www.w3.org/2000/svg">
<path d="M16.5 0H7.5C5.51088 0 3.60322 0.790176 2.1967 2.1967C0.790176 3.60322 0 5.51088 0 7.5L0 16.5C0 18.4891 0.790176 20.3968 2.1967 21.8033C3.60322 23.2098 5.51088 24 7.5 24H16.5C18.4891 24 20.3968 23.2098 21.8033 21.8033C23.2098 20.3968 24 18.4891 24 16.5V7.5C24 5.51088 23.2098 3.60322 21.8033 2.1967C20.3968 0.790176 18.4891 0 16.5 0V0ZM21.75 16.5C21.75 17.8924 21.1969 19.2277 20.2123 20.2123C19.2277 21.1969 17.8924 21.75 16.5 21.75H7.5C6.10761 21.75 4.77226 21.1969 3.78769 20.2123C2.80312 19.2277 2.25 17.8924 2.25 16.5V7.5C2.25 6.10761 2.80312 4.77226 3.78769 3.78769C4.77226 2.80312 6.10761 2.25 7.5 2.25H16.5C17.8924 2.25 19.2277 2.80312 20.2123 3.78769C21.1969 4.77226 21.75 6.10761 21.75 7.5V16.5Z" fill="black"/>
<path d="M12 6C10.8133 6 9.65328 6.35189 8.66658 7.01118C7.67989 7.67047 6.91085 8.60754 6.45673 9.7039C6.0026 10.8003 5.88378 12.0067 6.11529 13.1705C6.3468 14.3344 6.91825 15.4035 7.75736 16.2426C8.59648 17.0818 9.66557 17.6532 10.8295 17.8847C11.9933 18.1162 13.1997 17.9974 14.2961 17.5433C15.3925 17.0892 16.3295 16.3201 16.9888 15.3334C17.6481 14.3467 18 13.1867 18 12C18 10.4087 17.3679 8.88258 16.2426 7.75736C15.1174 6.63214 13.5913 6 12 6ZM12 15.75C11.2583 15.75 10.5333 15.5301 9.91661 15.118C9.29993 14.706 8.81928 14.1203 8.53545 13.4351C8.25163 12.7498 8.17736 11.9958 8.32206 11.2684C8.46675 10.541 8.82391 9.8728 9.34835 9.34835C9.8728 8.8239 10.541 8.46675 11.2684 8.32205C11.9958 8.17736 12.7498 8.25162 13.4351 8.53545C14.1203 8.81928 14.706 9.29993 15.118 9.91661C15.5301 10.5333 15.75 11.2583 15.75 12C15.75 12.9946 15.3549 13.9484 14.6517 14.6517C13.9484 15.3549 12.9946 15.75 12 15.75Z" fill="black"/>
<path d="M18.4499 6.34949C18.8914 6.34949 19.2494 5.99154 19.2494 5.54999C19.2494 5.10844 18.8914 4.75049 18.4499 4.75049C18.0083 4.75049 17.6504 5.10844 17.6504 5.54999C17.6504 5.99154 18.0083 6.34949 18.4499 6.34949Z" fill="black"/>
</svg>
