<svg width="260" height="178" viewBox="0 0 260 178" fill="none" xmlns="http://www.w3.org/2000/svg">
<path fill-rule="evenodd" clip-rule="evenodd" d="M15 15.2326C15 13.0704 16.7528 11.3176 18.915 11.3176H46.6101C48.7723 11.3176 50.5251 13.0704 50.5251 15.2326V29.1527H48.4951V20.4526H17.03V36.9827C17.03 38.0237 17.874 38.8677 18.915 38.8677H33.705V40.8977H18.915C16.7528 40.8977 15 39.1449 15 36.9827V15.2326ZM17.03 18.4226H48.4951V15.2326C48.4951 14.1916 47.6511 13.3476 46.6101 13.3476H18.915C17.874 13.3476 17.03 14.1916 17.03 15.2326V18.4226Z" fill="black"/>
<path fill-rule="evenodd" clip-rule="evenodd" d="M32.4023 25.2377H39.6618L52.2781 38.9053L52.3478 39.0915L51.3974 39.4477C52.3478 39.0915 52.3479 39.0917 52.348 39.0919L52.3482 39.0925L52.3501 39.0975L52.3542 39.1087C52.3575 39.1178 52.3621 39.1303 52.3677 39.146C52.3789 39.1773 52.3943 39.2214 52.4131 39.2768C52.4506 39.3876 52.5015 39.5444 52.5576 39.736C52.6692 40.1168 52.8051 40.6467 52.8966 41.2316C52.9871 41.8102 53.0408 42.4829 52.9639 43.1362C52.8879 43.7831 52.6719 44.508 52.1344 45.0756C51.6443 45.5931 51.0011 45.8579 50.4181 45.9976C49.8275 46.1391 49.2114 46.1731 48.6772 46.1645C48.1376 46.1558 47.6461 46.1028 47.2918 46.0529C47.1135 46.0277 46.9672 46.0029 46.8636 45.9841C46.8117 45.9746 46.7704 45.9666 46.7408 45.9607C46.7261 45.9577 46.7143 45.9553 46.7056 45.9535L46.6948 45.9513L46.6899 45.9502L46.6894 45.9501C46.6891 45.9501 46.6889 45.95 46.9024 44.9577L46.6889 45.95L46.3963 45.8871L32.4023 31.8931V25.2377ZM47.3958 44.0157C47.4494 44.0243 47.5095 44.0335 47.5753 44.0428C47.8737 44.0848 48.2778 44.1278 48.7098 44.1348C49.1472 44.1418 49.5788 44.1112 49.9452 44.0234C50.3191 43.9339 50.542 43.8049 50.6604 43.6798C50.7848 43.5484 50.8998 43.3077 50.9478 42.8991C50.9951 42.497 50.966 42.0245 50.891 41.5454C50.8171 41.0726 50.7048 40.632 50.6095 40.3068C50.571 40.1753 50.5358 40.0646 50.508 39.9806L38.773 27.2677H34.4323V31.0523L47.3958 44.0157Z" fill="black"/>
<path fill-rule="evenodd" clip-rule="evenodd" d="M226.389 68C226.825 68 227.178 68.3534 227.178 68.7894V72.4639C227.178 72.8998 226.825 73.2533 226.389 73.2533C225.953 73.2533 225.6 72.8998 225.6 72.4639V68.7894C225.6 68.3534 225.953 68 226.389 68ZM241.189 68C241.625 68 241.978 68.3534 241.978 68.7894V72.4639C241.978 72.8998 241.625 73.2533 241.189 73.2533C240.753 73.2533 240.399 72.8998 240.399 72.4639V68.7894C240.399 68.3534 240.753 68 241.189 68Z" fill="black"/>
<path fill-rule="evenodd" clip-rule="evenodd" d="M244.759 73.5325H223.325C220.815 73.5325 218.78 75.5674 218.78 78.0777V94.6126C218.78 97.1228 220.815 99.1577 223.325 99.1577H244.759C247.27 99.1577 249.305 97.1228 249.305 94.6126V78.0777C249.305 75.5674 247.27 73.5325 244.759 73.5325ZM223.325 71.9536C219.943 71.9536 217.201 74.6954 217.201 78.0777V94.6126C217.201 97.9948 219.943 100.737 223.325 100.737H244.759C248.142 100.737 250.883 97.9948 250.883 94.6126V78.0777C250.883 74.6954 248.142 71.9536 244.759 71.9536H223.325Z" fill="black"/>
<path fill-rule="evenodd" clip-rule="evenodd" d="M250.576 84.1743H217.812V82.5955H250.576V84.1743Z" fill="black"/>
<path d="M229.653 90.7341C229.653 91.8615 228.739 92.7754 227.612 92.7754C226.484 92.7754 225.57 91.8615 225.57 90.7341C225.57 89.6067 226.484 88.6927 227.612 88.6927C228.739 88.6927 229.653 89.6067 229.653 90.7341Z" fill="black"/>
<path d="M236.186 90.7341C236.186 91.8615 235.272 92.7754 234.145 92.7754C233.017 92.7754 232.104 91.8615 232.104 90.7341C232.104 89.6067 233.017 88.6927 234.145 88.6927C235.272 88.6927 236.186 89.6067 236.186 90.7341Z" fill="black"/>
<path d="M242.719 90.7341C242.719 91.8615 241.805 92.7754 240.678 92.7754C239.551 92.7754 238.637 91.8615 238.637 90.7341C238.637 89.6067 239.551 88.6927 240.678 88.6927C241.805 88.6927 242.719 89.6067 242.719 90.7341Z" fill="black"/>
<path fill-rule="evenodd" clip-rule="evenodd" d="M147.491 68.185C148.639 69.7068 148.999 71.6228 148.999 72.9193V73.3059L131.48 90.8242H123.561V83.47L141.025 66.005L141.333 65.961C144.297 65.5376 146.288 66.5917 147.491 68.185ZM141.899 67.7715C144.028 67.5492 145.257 68.3238 146 69.3092C146.736 70.2842 147.056 71.5529 147.12 72.5451L144.554 75.1113C143.622 72.1578 141.433 70.6977 139.58 70.0907L141.899 67.7715ZM143.01 76.6553C142.382 73.0641 139.652 71.854 138.036 71.6346L125.427 84.2431V88.9576H130.707L143.01 76.6553Z" fill="black"/>
<path fill-rule="evenodd" clip-rule="evenodd" d="M114.802 70.44C115.749 69.9511 116.846 69.9117 117.516 69.9117H129.396V71.7783H117.516C116.867 71.7783 116.172 71.8332 115.658 72.0987C115.42 72.2211 115.238 72.3809 115.108 72.5972C114.978 72.8152 114.867 73.1492 114.867 73.6736V96.8681C114.867 97.1417 114.949 97.5622 115.163 97.8837C115.343 98.1551 115.628 98.3863 116.196 98.3863H140.302C140.7 98.3573 141.263 98.225 141.683 97.9598C142.071 97.7156 142.271 97.4175 142.232 96.9457L142.229 96.907V83.4794H144.095V96.8324C144.189 98.1478 143.484 99.0307 142.679 99.5385C141.909 100.025 140.998 100.213 140.392 100.251L140.363 100.253H116.196C114.954 100.253 114.107 99.667 113.608 98.9169C113.143 98.217 113 97.4118 113 96.8681C113 96.8681 113 96.8682 113 96.8681V73.6736C113 72.8781 113.172 72.1985 113.507 71.6386C113.843 71.077 114.308 70.6947 114.802 70.44Z" fill="black"/>
<path d="M133.463 15.3313H117.462C116.102 15.3313 115 16.4334 115 17.793V39.5381C115 40.8977 116.102 41.9999 117.462 41.9999H139.617C140.977 41.9999 142.079 40.8977 142.079 39.5381V22.3062" stroke="black" stroke-width="1.98933" stroke-linecap="round" stroke-linejoin="round"/>
<path d="M126.484 31.3326L146.999 9.9978M146.999 9.9978H137.152M146.999 9.9978V19.8447" stroke="black" stroke-width="1.98933" stroke-linecap="round" stroke-linejoin="round"/>
<rect x="216.959" y="11.9925" width="25.7792" height="25.7792" rx="1.57827" stroke="black" stroke-width="1.98497" stroke-linecap="round" stroke-linejoin="round"/>
<path d="M221.879 44.4198H246.43C247.849 44.4198 249 43.2688 249 41.8491V17.684" stroke="black" stroke-width="1.98497" stroke-linecap="round" stroke-linejoin="round"/>
<path d="M36.786 71.7677C37.0328 71.1829 36.7599 70.5045 36.1589 70.3002C33.205 69.296 30.0133 69.1731 26.9772 69.9603C23.5692 70.8439 20.5469 72.825 18.3772 75.5976C16.2074 78.3702 15.0109 81.7801 14.9724 85.3006C14.9339 88.8211 16.0555 92.2563 18.1642 95.0757C20.2728 97.8951 23.251 99.9418 26.6389 100.9C30.0267 101.858 33.6358 101.674 36.9085 100.376C40.1813 99.0779 42.9357 96.7386 44.7464 93.7192C46.3594 91.0293 47.1435 87.933 47.015 84.8158C46.9889 84.1815 46.4152 83.728 45.7845 83.7995V83.7995C45.1538 83.871 44.7055 84.4406 44.7241 85.0751C44.8004 87.6895 44.1283 90.2803 42.775 92.537C41.224 95.1234 38.8646 97.1272 36.0612 98.2389C33.2578 99.3506 30.1663 99.5083 27.2643 98.6878C24.3623 97.8672 21.8112 96.114 20.005 93.699C18.1988 91.2839 17.2379 88.3413 17.2709 85.3257C17.3039 82.3101 18.3288 79.3893 20.1874 77.0143C22.046 74.6393 24.6349 72.9423 27.5541 72.1854C30.1013 71.525 32.7764 71.6124 35.2627 72.4244C35.8661 72.6215 36.5392 72.3525 36.786 71.7677V71.7677Z" fill="black"/>
<path d="M30.5684 86.7755L45.7305 71.6133" stroke="black" stroke-width="2.33931" stroke-linecap="round"/>
<path d="M45.6753 143.714V158.121C45.6753 160.263 43.9386 162 41.7964 162H20.8789C18.7366 162 17 160.263 17 158.121V135.541C17 133.399 18.7366 131.662 20.8789 131.662H36.5324" stroke="black" stroke-width="2.16213" stroke-linecap="round"/>
<path d="M30.2988 147.455L49.0001 130" stroke="black" stroke-width="2.16213" stroke-linecap="round"/>
<path d="M137.109 149.84L127.387 160.026C127.264 160.155 127.103 160.24 126.927 160.269L121.67 161.145C121.58 161.16 121.492 161.191 121.412 161.234L116.882 163.705C116.562 163.88 116.165 163.823 115.907 163.565L115.374 163.032C115.11 162.768 115.057 162.359 115.245 162.037L118.14 157.075C118.199 156.973 118.236 156.86 118.247 156.742L118.672 152.492C118.691 152.304 118.775 152.127 118.909 151.993L129.085 141.817M133.805 137.569L142.112 129.262C142.235 129.139 142.393 129.057 142.565 129.036C145.572 128.66 150.814 129.631 149.892 136.355C149.869 136.528 149.786 136.691 149.664 136.814L141.357 145.121" stroke="black" stroke-width="1.93055" stroke-linecap="round" stroke-linejoin="round"/>
<path d="M137.753 150.482L128.339 141.068C127.971 140.7 127.971 140.102 128.339 139.733L131.252 136.821C131.621 136.452 132.219 136.452 132.587 136.821L142.001 146.234C142.37 146.603 142.37 147.201 142.001 147.569L139.088 150.482C138.72 150.851 138.122 150.851 137.753 150.482Z" stroke="black" stroke-width="1.93055"/>
<path d="M126.728 149.841L122.81 153.758C122.297 154.272 122.008 154.969 122.008 155.695V157.864" stroke="black" stroke-width="1.93055" stroke-linecap="round"/>
<path d="M238.033 129.783L218.324 149.492C217.212 150.6 216.109 152.262 217.77 153.923L223.312 159.465L223.312 159.465C223.862 160.015 224.416 160.569 225.527 160.569H229.958C230.844 160.569 231.619 160.566 232.721 159.465L250.218 141.968C250.65 141.535 250.65 140.834 250.218 140.401L239.599 129.783C239.167 129.351 238.465 129.351 238.033 129.783Z" stroke="black" stroke-width="2.12519"/>
<path d="M236.601 155.585L224.416 143.4" stroke="black" stroke-width="2.12519"/>
<path d="M218.328 165H236.051" stroke="black" stroke-width="2.12519" stroke-linecap="round"/>
<path d="M209.463 160.569H218.878" stroke="black" stroke-width="2.12519" stroke-linecap="round"/>
</svg>
