<svg width="780" height="355" viewBox="0 0 780 355" fill="none" xmlns="http://www.w3.org/2000/svg">
<rect width="73" height="73" rx="5" fill="#F2F2F2"/>
<rect x="101" width="73" height="73" rx="5" fill="#F2F2F2"/>
<rect x="202" width="73" height="73" rx="5" fill="#F2F2F2"/>
<rect x="303" width="73" height="73" rx="5" fill="#F2F2F2"/>
<rect x="404" width="73" height="73" rx="5" fill="#F2F2F2"/>
<rect x="505" width="73" height="73" rx="5" fill="#F2F2F2"/>
<rect x="606" width="73" height="73" rx="5" fill="#F2F2F2"/>
<rect x="707" width="73" height="73" rx="5" fill="#F2F2F2"/>
<rect y="94" width="73" height="73" rx="5" fill="#F2F2F2"/>
<rect x="101" y="94" width="73" height="73" rx="5" fill="#F2F2F2"/>
<rect x="202" y="94" width="73" height="73" rx="5" fill="#F2F2F2"/>
<rect x="303" y="94" width="73" height="73" rx="5" fill="#F2F2F2"/>
<rect x="404" y="94" width="73" height="73" rx="5" fill="#F2F2F2"/>
<rect x="505" y="94" width="73" height="73" rx="5" fill="#F2F2F2"/>
<rect x="606" y="94" width="73" height="73" rx="5" fill="#F2F2F2"/>
<rect x="707" y="94" width="73" height="73" rx="5" fill="#F2F2F2"/>
<rect y="188" width="73" height="73" rx="5" fill="#F2F2F2"/>
<rect x="101" y="188" width="73" height="73" rx="5" fill="#F2F2F2"/>
<rect x="202" y="188" width="73" height="73" rx="5" fill="#F2F2F2"/>
<rect x="303" y="188" width="73" height="73" rx="5" fill="#F2F2F2"/>
<rect x="404" y="188" width="73" height="73" rx="5" fill="#F2F2F2"/>
<rect x="505" y="188" width="73" height="73" rx="5" fill="#F2F2F2"/>
<rect x="606" y="188" width="73" height="73" rx="5" fill="#F2F2F2"/>
<rect x="707" y="188" width="73" height="73" rx="5" fill="#F2F2F2"/>
<rect y="282" width="73" height="73" rx="5" fill="#F2F2F2"/>
<rect x="101" y="282" width="73" height="73" rx="5" fill="#F2F2F2"/>
<rect x="202" y="282" width="73" height="73" rx="5" fill="#F2F2F2"/>
<rect x="303" y="282" width="73" height="73" rx="5" fill="#F2F2F2"/>
<rect x="404" y="282" width="73" height="73" rx="5" fill="#F2F2F2"/>
<rect x="505" y="282" width="73" height="73" rx="5" fill="#F2F2F2"/>
<rect x="606" y="282" width="73" height="73" rx="5" fill="#F2F2F2"/>
<rect x="707" y="282" width="73" height="73" rx="5" fill="#F2F2F2"/>
</svg>
