<svg width="260" height="178" viewBox="0 0 260 178" fill="none" xmlns="http://www.w3.org/2000/svg">
<path d="M216.353 18.1467C218.013 14.5024 220.856 11.5267 224.422 9.70347C227.987 7.8802 232.064 7.31659 235.99 8.1043C239.916 8.892 243.46 10.9847 246.046 14.0421C248.632 17.0995 250.108 20.9418 250.234 24.9442C250.359 28.9466 249.127 32.8737 246.737 36.0871C244.348 39.3004 240.942 41.6109 237.072 42.6429C233.203 43.6749 229.099 43.3677 225.427 41.7712C221.754 40.1748 218.73 37.3829 216.845 33.8497C216.845 33.8497 217.031 32.9145 217.495 32.6625C217.965 32.4077 218.859 32.7759 218.859 32.7759C220.501 35.8547 223.136 38.2874 226.336 39.6786C229.536 41.0697 233.113 41.3374 236.484 40.4381C239.856 39.5388 242.824 37.5255 244.906 34.7254C246.988 31.9254 248.062 28.5033 247.953 25.0156C247.844 21.528 246.558 18.1799 244.304 15.5157C242.051 12.8515 238.962 11.0279 235.541 10.3415C232.12 9.65515 228.567 10.1463 225.461 11.735C222.354 13.3238 219.876 15.9168 218.43 19.0924C218.43 19.0924 217.525 19.6496 217.013 19.4069C216.511 19.169 216.353 18.1467 216.353 18.1467Z" fill="#110638"/>
<path opacity="0.8" fill-rule="evenodd" clip-rule="evenodd" d="M232.026 19.2121L238.346 25.5318C238.733 25.9196 238.733 26.5483 238.346 26.9361L232.026 33.2558C231.638 33.6436 231.009 33.6436 230.622 33.2558C230.234 32.868 230.234 32.2392 230.622 31.8514L235.246 27.227L215.245 27.227C214.697 27.227 214.252 26.7824 214.252 26.234C214.252 25.6855 214.697 25.2409 215.245 25.2409L235.246 25.2409L230.622 20.6165C230.234 20.2287 230.234 19.5999 230.622 19.2121C231.009 18.8243 231.638 18.8243 232.026 19.2121Z" fill="#1475C2"/>
<path fill-rule="evenodd" clip-rule="evenodd" d="M33.7703 6.02551H13.6521V8.15253H33.9641L34.0674 8.13188C34.1574 8.11388 34.2432 8.14009 34.2703 8.16157C34.2704 8.16164 34.2705 8.16172 34.2706 8.1618C34.2762 8.16617 34.3096 8.1925 34.3431 8.2889C34.3805 8.39652 34.4209 8.60331 34.3937 8.95722L34.3905 8.99795V11.3431C34.3905 11.9304 34.8667 12.4066 35.4541 12.4066C36.0414 12.4066 36.5176 11.9304 36.5176 11.3431V9.07734C36.5946 7.9558 36.2928 7.05084 35.592 6.49505C34.9843 6.01304 34.2705 5.95305 33.7703 6.02551Z" fill="#110638"/>
<path fill-rule="evenodd" clip-rule="evenodd" d="M34.5757 40.7404H25.522V38.6133H34.3515C34.3775 38.4235 34.3931 38.1521 34.3798 37.7764L34.3792 37.7576V35.4486C34.3792 34.8613 34.8553 34.3851 35.4427 34.3851C36.03 34.3851 36.5062 34.8613 36.5062 35.4486V37.7207C36.5383 38.6806 36.4334 39.4378 36.1258 39.9707C35.959 40.2596 35.7022 40.5321 35.3352 40.6736C35.0746 40.7741 34.8124 40.7869 34.5757 40.7404Z" fill="#110638"/>
<path fill-rule="evenodd" clip-rule="evenodd" d="M13.8358 8.66479L24.8254 12.6512C25.2461 12.8038 25.5263 13.2035 25.5263 13.651V42.4524C25.5263 43.1743 24.8223 43.6865 24.1354 43.4643L13.1458 39.9088C12.7069 39.7668 12.4096 39.3582 12.4096 38.8969V9.66456C12.4096 8.92687 13.1423 8.41324 13.8358 8.66479ZM25.6716 10.3184C27.074 10.8271 28.0078 12.1593 28.0078 13.651V42.4524C28.0078 44.8589 25.6612 46.5661 23.3715 45.8253L12.3819 42.2698C10.9191 41.7966 9.92811 40.4344 9.92811 38.8969V9.66456C9.92811 7.20561 12.3705 5.49349 14.682 6.332L25.6716 10.3184Z" fill="#FFC107"/>
<path fill-rule="evenodd" clip-rule="evenodd" d="M38.9999 17.2937L32.2318 24.0618C31.8164 24.4771 31.8164 25.1505 32.2318 25.5659L38.9999 32.334C39.4152 32.7493 40.0886 32.7493 40.5039 32.334C40.9193 31.9187 40.9193 31.2453 40.5039 30.83L35.5513 25.8773L50.3545 25.8773C50.9418 25.8773 51.418 25.4012 51.418 24.8138C51.418 24.2265 50.9418 23.7503 50.3545 23.7503L35.5513 23.7503L40.5039 18.7977C40.9193 18.3824 40.9193 17.709 40.5039 17.2937C40.0886 16.8783 39.4152 16.8783 38.9999 17.2937Z" fill="#110638"/>
<path fill-rule="evenodd" clip-rule="evenodd" d="M221.161 68.9387H248.063V101.061H221.161V91.458H219.223V101.061V103H221.161H248.063H250.001V101.061V68.9387V67H248.063H221.161H219.223V68.9387V78.8168H221.161V68.9387Z" fill="#FFC107"/>
<path d="M232.35 86.3686H214.965V83.7837H232.35V80.2941L238.645 85.3347L232.35 89.9875V86.3686Z" fill="#110638"/>
<path fill-rule="evenodd" clip-rule="evenodd" d="M230.871 126.013H246.261L246.326 126.02C248.206 126.208 249.405 127.314 250.092 128.51C250.755 129.663 250.984 130.952 251.001 131.815L251.001 131.828V159.38L251.001 159.395C250.954 161.357 249.884 162.679 248.689 163.478C247.533 164.25 246.2 164.588 245.299 164.675L245.236 164.681H231.426L231.397 164.68C229.797 164.61 226.262 163.534 225.561 159.594L225.541 159.48V153.655C225.541 152.93 226.128 152.343 226.853 152.343C227.578 152.343 228.165 152.93 228.165 153.655V159.24C228.595 161.333 230.482 162.003 231.486 162.057H245.105C245.682 161.992 246.538 161.759 247.23 161.296C247.903 160.846 248.351 160.241 248.377 159.347V131.856C248.364 131.326 248.209 130.5 247.817 129.817C247.454 129.187 246.937 128.737 246.124 128.637H230.844L230.829 128.637C230.331 128.626 229.586 128.735 229.009 129.043C228.498 129.316 228.188 129.687 228.165 130.328V136.869C228.165 137.593 227.578 138.181 226.853 138.181C226.128 138.181 225.541 137.593 225.541 136.869V130.289L225.542 130.271C225.592 128.468 226.63 127.338 227.774 126.728C228.848 126.154 230.063 125.998 230.871 126.013Z" fill="#110638"/>
<path fill-rule="evenodd" clip-rule="evenodd" d="M232.058 137.766C232.57 137.254 233.401 137.254 233.914 137.766L240.56 144.413C240.806 144.659 240.944 144.993 240.944 145.341C240.944 145.689 240.806 146.022 240.56 146.268L233.914 152.915C233.401 153.427 232.57 153.427 232.058 152.915C231.546 152.402 231.546 151.572 232.058 151.059L236.464 146.653H217.322C216.597 146.653 216.01 146.065 216.01 145.341C216.01 144.616 216.597 144.028 217.322 144.028H236.464L232.058 139.622C231.546 139.11 231.546 138.279 232.058 137.766Z" fill="#1475C2"/>
<path fill-rule="evenodd" clip-rule="evenodd" d="M26.7575 85.5664C27.3603 85.5664 27.849 86.0551 27.849 86.6579V94.8673C27.849 95.4701 27.3603 95.9588 26.7575 95.9588C26.1547 95.9588 25.666 95.4701 25.666 94.8673V86.6579C25.666 86.0551 26.1547 85.5664 26.7575 85.5664Z" fill="#FF7A55"/>
<path fill-rule="evenodd" clip-rule="evenodd" d="M28.5252 63.4271C26.4065 62.9301 24.6276 63.1759 22.8148 64.2979C21.0105 65.4146 20.069 66.8731 19.6218 68.9598C19.2987 70.4674 19.2127 72.669 19.2163 74.5599C19.218 75.4915 19.2413 76.3239 19.2642 76.9232C19.2756 77.2226 19.2869 77.4632 19.2952 77.6283C19.2994 77.7108 19.3029 77.7743 19.3053 77.8168L19.308 77.8646L19.3089 77.8791C19.3089 77.8791 19.3089 77.8791 19.3089 77.8791C19.3456 78.4807 18.8877 78.9984 18.2861 79.0352C17.6844 79.072 17.1668 78.6141 17.13 78.0124L18.2194 77.9458C17.13 78.0124 17.13 78.0125 17.13 78.0124L17.1288 77.9926L17.1258 77.9394C17.1232 77.8931 17.1195 77.8256 17.1151 77.739C17.1063 77.5658 17.0946 77.3159 17.0828 77.0064C17.0592 76.3877 17.0352 75.5282 17.0333 74.564C17.0297 72.6632 17.1112 70.2575 17.4873 68.5023C18.0455 65.8979 19.3041 63.9035 21.666 62.4417C24.0076 60.9924 26.3858 60.6831 29.0237 61.3019C31.3367 61.8445 32.9142 63.0792 34.2189 65.1293C35.0762 66.4765 35.4277 68.4171 35.5865 69.8693C35.669 70.6233 35.7047 71.3018 35.7199 71.7917C35.7275 72.0372 35.73 72.2368 35.7306 72.3765C35.7309 72.4465 35.7307 72.5015 35.7304 72.5399C35.7303 72.5591 35.7301 72.5742 35.73 72.5849L35.7298 72.5977L35.7298 72.6016L35.7297 72.6034C35.7297 72.6036 35.7297 72.6038 34.6516 72.5848L35.7297 72.6038C35.7191 73.2065 35.2219 73.6865 34.6191 73.6758C34.0165 73.6652 33.5366 73.1681 33.5471 72.5656L33.5471 72.5653L33.5472 72.5574C33.5473 72.5528 33.5473 72.5463 33.5474 72.538C33.5475 72.5338 33.5475 72.5291 33.5475 72.524C33.5478 72.4934 33.5479 72.4467 33.5477 72.3855C33.5472 72.2631 33.545 72.0832 33.538 71.8593C33.5241 71.4104 33.4914 70.7906 33.4165 70.1067C33.2608 68.683 32.9421 67.189 32.3772 66.3013C31.3362 64.6654 30.2106 63.8225 28.5252 63.4271Z" fill="#FF7A55"/>
<path fill-rule="evenodd" clip-rule="evenodd" d="M40.8326 79.4593H12.3508C11.7058 79.4593 11.183 79.9822 11.183 80.6272V100.732C11.183 101.377 11.7058 101.9 12.3508 101.9H40.8326C41.4776 101.9 42.0004 101.377 42.0004 100.732V80.6272C42.0004 79.9822 41.4776 79.4593 40.8326 79.4593ZM12.3508 77.2764C10.5002 77.2764 9 78.7766 9 80.6272V100.732C9 102.583 10.5002 104.083 12.3508 104.083H40.8326C42.6832 104.083 44.1834 102.583 44.1834 100.732V80.6272C44.1834 78.7766 42.6832 77.2764 40.8326 77.2764H12.3508Z" fill="#110638"/>
<path fill-rule="evenodd" clip-rule="evenodd" d="M127.767 130.385C120.395 132.503 115 139.297 115 147.351C115 157.098 122.902 165 132.649 165C142.396 165 150.298 157.098 150.298 147.351C150.298 139.161 144.72 132.274 137.155 130.282V133.153C143.177 135.063 147.541 140.697 147.541 147.351C147.541 155.575 140.873 162.242 132.649 162.242C124.425 162.242 117.758 155.575 117.758 147.351C117.758 140.836 121.941 135.299 127.767 133.278V130.385Z" fill="#FF7A55"/>
<path fill-rule="evenodd" clip-rule="evenodd" d="M132.65 128C133.412 128 134.029 128.617 134.029 129.379L134.029 138.203C134.029 138.965 133.412 139.582 132.65 139.582C131.889 139.582 131.271 138.965 131.271 138.203L131.271 129.379C131.271 128.617 131.889 128 132.65 128Z" fill="#110638"/>
<path fill-rule="evenodd" clip-rule="evenodd" d="M42.2257 132.347C41.3326 131.766 40.1736 131.726 39.1951 131.807C39.1567 131.81 39.1183 131.812 39.0799 131.812H32.1432C31.377 131.812 30.7559 131.191 30.7559 130.425C30.7559 129.659 31.377 129.037 32.1432 129.037H39.0236C40.1361 128.949 42.0597 128.929 43.7378 130.02C45.5548 131.201 46.7102 133.418 46.7102 137.015V157.131C46.7102 158.278 46.3106 159.916 45.124 161.29C43.8941 162.713 41.932 163.721 39.0799 163.721H32.1432C31.377 163.721 30.7559 163.1 30.7559 162.333C30.7559 161.567 31.377 160.946 32.1432 160.946H39.0799C41.2222 160.946 42.3815 160.22 43.0245 159.476C43.7108 158.681 43.9355 157.718 43.9355 157.131V137.015C43.9355 134.021 43.0099 132.856 42.2257 132.347Z" fill="#1475C2"/>
<path fill-rule="evenodd" clip-rule="evenodd" d="M26.319 137.969L34.0443 145.694C34.5183 146.168 34.5183 146.937 34.0443 147.411L26.319 155.136C25.8449 155.61 25.0763 155.61 24.6022 155.136C24.1282 154.662 24.1282 153.894 24.6022 153.419L30.2553 147.766H8.21392C7.54349 147.766 7 147.223 7 146.553C7 145.882 7.54349 145.339 8.21392 145.339H30.2553L24.6022 139.686C24.1282 139.212 24.1282 138.443 24.6022 137.969C25.0763 137.495 25.8449 137.495 26.319 137.969Z" fill="#110638"/>
<path fill-rule="evenodd" clip-rule="evenodd" d="M114.856 11.4382C114.398 12.1883 114.306 13.2139 114.399 13.9473C114.405 13.9952 114.408 14.0434 114.408 14.0917V34.1458C114.408 34.1627 114.408 34.1796 114.407 34.1964C114.377 34.8768 114.54 35.9027 115.074 36.7178C115.562 37.4617 116.4 38.1067 117.982 38.1067H134.517C135.17 38.1067 135.7 38.6279 135.7 39.2708C135.7 39.9137 135.17 40.4349 134.517 40.4349H117.982C115.576 40.4349 113.998 39.3716 113.085 37.9801C112.227 36.6712 112.001 35.1497 112.041 34.122V14.1602C111.922 13.1107 112.026 11.5512 112.828 10.2387C113.251 9.54559 113.872 8.92038 114.742 8.50654C115.594 8.10064 116.616 7.93117 117.804 8.02542H140.354C141.374 7.94326 142.845 8.16111 144.096 9.09916C145.429 10.0979 146.346 11.7864 146.346 14.3145V20.3308C146.346 20.9737 145.816 21.4949 145.163 21.4949C144.509 21.4949 143.979 20.9737 143.979 20.3308V14.3145C143.979 12.3862 143.311 11.4379 142.662 10.9511C141.956 10.4223 141.082 10.2957 140.518 10.3485C140.481 10.352 140.444 10.3537 140.406 10.3537H117.755C117.721 10.3537 117.687 10.3522 117.652 10.3493C116.78 10.2747 116.183 10.4071 115.772 10.6023C115.366 10.7957 115.073 11.0841 114.856 11.4382ZM129.917 15.0511C130.379 15.5057 130.379 16.2428 129.917 16.6975L125.387 21.1539C124.925 21.6086 124.176 21.6086 123.714 21.1539C123.251 20.6993 123.251 19.9622 123.714 19.5076L128.244 15.0511C128.706 14.5965 129.455 14.5965 129.917 15.0511ZM119.606 23.6733C119.789 23.2383 120.221 22.9546 120.7 22.9546V24.1188C120.7 22.9546 120.7 22.9546 120.7 22.9546H135.649C135.649 22.9546 135.649 22.9546 135.649 24.1188C135.649 25.2829 135.649 25.2829 135.649 25.2829H123.557L130.37 31.9857C130.832 32.4404 130.832 33.1775 130.37 33.6321C129.908 34.0867 129.159 34.0867 128.697 33.6321L119.863 24.9419C119.524 24.609 119.423 24.1083 119.606 23.6733ZM135.649 24.1188L135.649 25.2829C137.961 25.2829 141.508 25.9086 144.457 28.3516C147.363 30.759 149.869 35.0807 149.869 42.836C149.869 43.4789 150.398 44.0001 151.052 44.0001C151.706 44.0001 152.235 43.4789 152.235 42.836C152.235 34.548 149.531 29.511 145.982 26.5707C142.475 23.6659 138.321 22.9546 135.649 22.9546L135.649 24.1188Z" fill="#110638"/>
<path d="M135.061 99.5002V92.9698C135.061 92.4641 134.651 92.0541 134.145 92.0541H120.41C119.904 92.0541 119.494 91.6441 119.494 91.1384V79.2347C119.494 78.729 119.904 78.319 120.41 78.319H134.145C134.651 78.319 135.061 77.909 135.061 77.4033V71.7051C135.061 70.9078 136.009 70.4914 136.596 71.0309L151.287 84.5313C151.675 84.8871 151.683 85.4952 151.306 85.8619L136.615 100.156C136.034 100.721 135.061 100.31 135.061 99.5002Z" stroke="#1475C2" stroke-width="1.87891" stroke-linecap="round" stroke-linejoin="round"/>
<path d="M124.53 67.3309H117.663C115.64 67.3309 114 68.9708 114 70.9936V99.8373C114 101.86 115.64 103.5 117.663 103.5H124.53" stroke="#110638" stroke-width="1.87891" stroke-linecap="round" stroke-linejoin="round"/>
</svg>
