<svg width="260" height="178" viewBox="0 0 260 178" fill="none" xmlns="http://www.w3.org/2000/svg">
<rect width="260" height="178" fill="white"/>
<path d="M148.406 30.7964V27.4914H109V46.5588H136.203" stroke="black" stroke-width="1.11236" stroke-linecap="round"/>
<path d="M122.219 30.7965H116.118L112.812 34.3557V40.2031L116.118 43.2538H122.219" stroke="black" stroke-width="1.11236" stroke-linecap="round"/>
<path d="M134.17 31.0507H140.78" stroke="black" stroke-width="1.11236" stroke-linecap="round"/>
<circle cx="128.067" cy="37.4065" r="6.05383" stroke="black" stroke-width="1.11236"/>
<path d="M138.746 53.0278V36.8165C138.746 35.9188 139.203 35.0665 140.013 34.6786C144.737 32.4151 149.76 33.4731 152.663 34.7114C153.514 35.0743 154 35.942 154 36.867V52.9864C154 54.1235 153.26 55.1394 152.159 55.4202C146.973 56.7417 143.544 56.3071 140.532 55.4551C139.457 55.151 138.746 54.145 138.746 53.0278Z" stroke="black" stroke-width="1.11236" stroke-linecap="round"/>
<path d="M144.084 24.9489L113.15 18.1587C112.96 18.117 112.77 18.2291 112.715 18.4155L110.779 24.9489" stroke="black" stroke-width="1.11236" stroke-linecap="round"/>
<path d="M140.018 21.1354L121.459 13L119.68 16.305" stroke="black" stroke-width="1.11236" stroke-linecap="round"/>
<path d="M139.035 36.3596C141.493 37.546 147.543 38.9828 153.238 36.1354" stroke="black" stroke-width="1.11236" stroke-linecap="round"/>
<path d="M138.746 39.4405C141.204 40.6269 147.985 41.9879 153.68 39.1405" stroke="black" stroke-width="1.11236" stroke-linecap="round"/>
<path d="M138.746 42.4913C141.204 43.6777 147.985 45.3387 153.68 42.4913" stroke="black" stroke-width="1.11236" stroke-linecap="round"/>
<path d="M138.746 45.5422C141.204 46.7286 147.985 48.3896 153.68 45.5422" stroke="black" stroke-width="1.11236" stroke-linecap="round"/>
<path d="M138.746 48.593C141.204 49.7794 147.985 51.4404 153.68 48.593" stroke="black" stroke-width="1.11236" stroke-linecap="round"/>
<path d="M138.746 51.6438C141.204 52.8302 148.305 54.237 154 51.3896" stroke="black" stroke-width="1.11236" stroke-linecap="round"/>
<path d="M130.355 35.627H127.05C126.488 35.627 126.033 36.0823 126.033 36.6439V36.6439C126.033 37.2055 126.488 37.6608 127.05 37.6608H129.211C129.843 37.6608 130.355 38.173 130.355 38.8049V38.8049C130.355 39.4367 129.843 39.9489 129.211 39.9489H126.033" stroke="black" stroke-width="1.11236" stroke-linecap="round"/>
<path d="M128.066 33.8474V35.3727" stroke="black" stroke-width="1.11236" stroke-linecap="round"/>
<path d="M128.066 39.949V41.2202" stroke="black" stroke-width="1.11236" stroke-linecap="round"/>
<path d="M238.001 33.958V19.4369L231.299 19.4369V33.958H238.001Z" stroke="black" stroke-width="1.00867"/>
<path d="M231.298 20.4679C230.213 21.0026 226.959 21.4303 222.621 18.864C217.198 15.6562 217.198 15.6562 213.402 16.7254C211.413 17.6165 207.219 19.8264 206.352 21.5372C206.352 22.6065 207.219 24.3173 210.69 22.6065C211.594 21.8936 213.835 20.4679 215.571 20.4679C217.74 20.4679 218.282 26.8836 224.248 26.8836" stroke="black" stroke-width="1.00867"/>
<path d="M217.336 23.1603H210.261C209.336 23.1603 208.586 23.9104 208.586 24.8358C208.586 25.7611 209.336 26.5113 210.261 26.5113H217.336C218.261 26.5113 219.011 25.7611 219.011 24.8358C219.011 23.9104 218.261 23.1603 217.336 23.1603Z" stroke="black" stroke-width="1.00867"/>
<path d="M218.451 26.5113H211.377C210.451 26.5113 209.701 27.2614 209.701 28.1868C209.701 29.1121 210.451 29.8623 211.377 29.8623H218.451C219.376 29.8623 220.127 29.1121 220.127 28.1868C220.127 27.2614 219.376 26.5113 218.451 26.5113Z" stroke="black" stroke-width="1.00867"/>
<path d="M216.486 29.8623H212.308C211.485 29.8623 210.818 30.5291 210.818 31.3516C210.818 32.1742 211.485 32.841 212.308 32.841H216.486C217.413 32.841 218.115 32.0027 217.952 31.0898C217.825 30.3795 217.208 29.8623 216.486 29.8623Z" stroke="black" stroke-width="1.00867"/>
<path d="M211.881 32.9634C208.833 34.9279 203.109 40.8198 204.145 48.8834C204.18 49.1558 204.051 49.4231 203.84 49.5996C203.072 50.2436 202.395 51.4731 203.885 52.8749C204.075 53.0541 204.359 53.0817 204.589 52.9562C205.009 52.7267 205.657 52.3522 206.427 51.859C206.723 51.6696 207.115 51.7332 207.35 51.9938C208.891 53.6961 212.275 56.2821 216.264 55.8848C219.95 55.5177 223.894 53.5818 226.142 52.2177C226.606 51.9358 227.312 52.3215 227.747 52.6469C228.133 52.9356 228.772 53.044 229.786 52.6774C229.902 52.6356 230.004 52.5593 230.071 52.4562C230.534 51.7487 230.957 50.4562 229.857 49.6084C229.614 49.4218 229.461 49.1291 229.508 48.8269C230.215 44.2681 228.585 35.2786 218.456 30.2346" stroke="black" stroke-width="1.00867"/>
<path d="M231.298 31.724C229.871 32.0963 226.16 32.841 222.734 32.841" stroke="black" stroke-width="1.00867"/>
<path d="M213.546 16.8306C213.363 15.6583 212.457 16.2444 210.813 15.0721C208.619 13.508 216.901 12.8091 219.686 13.2256C219.909 13.259 220.004 13.5041 219.881 13.6933C219.408 14.4198 218.668 15.6654 219.031 16.8306" stroke="black" stroke-width="1.00867"/>
<circle cx="216.776" cy="44.011" r="6.57001" stroke="black" stroke-width="1.00867"/>
<path d="M217 47.1467V48.0683" stroke="black" stroke-width="1.00867" stroke-linecap="round"/>
<path d="M217 40.0577L217 40.7666" stroke="black" stroke-width="1.00867" stroke-linecap="round"/>
<path d="M218.465 41.9009C218.207 41.195 216.498 40.1378 215.293 41.7382C215.283 41.7517 215.274 41.7663 215.266 41.7814C214.99 42.3336 214.979 43.4643 217.087 43.744C218.206 44.0276 219.068 44.5947 218.637 45.8707C218.292 46.6505 216.311 47.3594 215.105 45.7289" stroke="black" stroke-width="1.00867" stroke-linecap="round"/>
<path d="M45.3279 97.1014L54.5045 94.698C56.2386 94.2438 58.0418 95.139 58.7284 96.7949V96.7949C59.4461 98.5257 58.7112 100.517 57.0414 101.367L39.1173 110.49C37.0114 111.562 34.5109 111.485 32.4338 110.358C29.6813 108.865 26.5422 107.284 25.4262 107.125C23.7992 106.892 19.8092 108.674 18.0176 109.594" stroke="black" stroke-linecap="round"/>
<path d="M30.6551 99.8615L38.4394 101.705C40.2562 102.135 42.0877 101.05 42.5827 99.2499V99.2499C43.0013 97.7278 42.3325 96.1219 40.8682 95.5321C37.7814 94.289 33.4392 93.0594 31.672 93.3244C29.3477 93.6731 21.1643 95.2129 17 96.375" stroke="black" stroke-linecap="round"/>
<circle cx="43.2923" cy="82.2841" r="9.37819" stroke="black"/>
<path d="M43.3242 86.6627V87.9495" stroke="black" stroke-linecap="round"/>
<path d="M43.3242 76.7639L43.3242 77.7538" stroke="black" stroke-linecap="round"/>
<path d="M45.3685 79.3376C45.0084 78.3503 42.6148 76.8709 40.9317 79.1216C40.923 79.1333 40.915 79.1458 40.9083 79.1588C40.5166 79.9254 40.4861 81.5186 43.4441 81.9113C45.0075 82.3072 46.2102 83.0991 45.6089 84.8809C45.1278 85.9697 42.3614 86.9596 40.6777 84.6829" stroke="black" stroke-linecap="round"/>
<path d="M114.633 110.273V100.002H109.994V110.273H114.633Z" stroke="black" stroke-linecap="round"/>
<path d="M115.045 100.333H117.695V109.279H115.045" stroke="black" stroke-linecap="round"/>
<path d="M117.531 100.499C118.636 99.229 121.209 96.7884 122.667 97.1859C123.938 97.5325 124.729 97.9694 125.282 98.41C126.302 99.2214 127.265 100.088 128.473 100.576L133.404 102.567C134.442 102.986 134.968 104.145 134.6 105.202V105.202C134.228 106.273 133.071 106.854 131.989 106.514L124.986 104.309" stroke="black" stroke-linecap="round"/>
<path d="M141.219 85.9213C139.792 87.8243 136.148 90.5775 132.584 87.0884C132.261 86.7715 131.885 86.5024 131.46 86.3469L125.389 84.1286C124.323 83.7391 123.741 82.5897 124.059 81.5001V81.5001C124.389 80.369 125.566 79.7122 126.702 80.0256L134.262 82.1111" stroke="black" stroke-linecap="round"/>
<path d="M124.49 76.1475L129.02 74.5488C129.723 74.3005 130.498 74.355 131.16 74.6992L137.821 78.1627C138.205 78.3624 138.631 78.4667 139.064 78.4667H140.393" stroke="black" stroke-linecap="round"/>
<path d="M135.091 104.144L141.914 102.341C143.041 102.044 144.217 102.61 144.686 103.677V103.677C145.233 104.92 144.624 106.368 143.353 106.846L129.996 111.872C129.333 112.121 128.599 112.1 127.952 111.812L120.539 108.517C120.195 108.364 119.822 108.285 119.445 108.285H117.697" stroke="black" stroke-linecap="round"/>
<path d="M140.889 86.0869V77.3071H143.539V86.0869H140.889Z" stroke="black" stroke-linecap="round"/>
<path d="M143.539 86.4182V75.4849H149.006V86.4182H143.539Z" stroke="black" stroke-linecap="round"/>
<path d="M128.465 80.2889L121.176 73L112.23 81.9455L127.305 96.8546L135.422 88.9031" stroke="black" stroke-linecap="round"/>
<path d="M115.543 78.6323C116.316 79.8472 117.398 82.7406 115.543 84.596" stroke="black" stroke-linecap="round"/>
<path d="M118.193 76.3131C118.911 77.4175 121.507 79.1293 124.323 76.3131" stroke="black" stroke-linecap="round"/>
<path d="M124.324 93.5415C125.263 92.8788 127.803 91.9512 130.454 93.5415" stroke="black" stroke-linecap="round"/>
<path d="M131.945 86.5839C131.613 87.6883 131.348 90.1289 132.939 91.0566" stroke="black" stroke-linecap="round"/>
<path d="M123.828 81.4485C122.17 81.4485 120.382 83.0388 120.515 85.4243C120.515 87.2465 122.171 89.7314 125.65 88.5718C126.423 88.1852 127.837 86.9483 127.307 85.093" stroke="black" stroke-linecap="round"/>
<path d="M212.232 75.7748L213.036 77.9272" stroke="black" stroke-linecap="round"/>
<path d="M237.501 106.999L227.159 91.9551C226.808 91.4452 226.259 91.1064 225.646 91.0219L220.227 90.2744" stroke="black" stroke-linecap="round"/>
<path d="M230.898 112.5C228.844 111.793 224.605 109.415 222.836 105.282C222.524 104.554 222.1 103.868 221.49 103.362L211.903 95.4158C210.946 94.6226 210.751 93.2305 211.454 92.2053V92.2053C212.22 91.0878 213.758 90.824 214.853 91.6224L217.725 93.7164C217.997 93.9149 218.294 94.0778 218.607 94.2013L225.397 96.876" stroke="black" stroke-linecap="round"/>
<path d="M222.207 104.358H219.53C219.058 104.358 218.604 104.178 218.261 103.855L218.064 103.669C217.433 103.076 216.442 103.101 215.843 103.727V103.727C215.117 104.484 215.319 105.725 216.246 106.215L219.225 107.785C220.016 108.202 220.924 108.339 221.803 108.175L223.967 107.769" stroke="black" stroke-linecap="round"/>
<path d="M200.976 80.1769C201.112 80.4176 201.417 80.5029 201.657 80.3675C201.898 80.2322 201.983 79.9273 201.848 79.6866L200.976 80.1769ZM221.52 95.2924L221.696 95.7601L222.632 95.4064L222.455 94.9388L221.52 95.2924ZM214.019 74.0414L213.551 74.2182L214.019 74.0414ZM201.412 79.9318L201.848 79.6866L201.478 79.0288L201.042 79.2739L200.606 79.519L200.976 80.1769L201.412 79.9318ZM201.6 77.71L201.782 78.1755L212.771 73.8716L212.589 73.406L212.406 72.9405L201.417 77.2444L201.6 77.71ZM214.019 74.0414L213.551 74.2182L221.52 95.2924L221.987 95.1156L222.455 94.9388L214.487 73.8646L214.019 74.0414ZM212.589 73.406L212.771 73.8716C213.082 73.7497 213.433 73.9055 213.551 74.2182L214.019 74.0414L214.487 73.8646C214.171 73.031 213.236 72.6155 212.406 72.9405L212.589 73.406ZM201.042 79.2739L201.478 79.0288C201.299 78.711 201.443 78.3085 201.782 78.1755L201.6 77.71L201.417 77.2444C200.512 77.5989 200.13 78.6718 200.606 79.519L201.042 79.2739Z" fill="black"/>
<path d="M218.575 101.277L211.708 105.146C211.184 105.441 210.52 105.261 210.217 104.742L198.564 84.7501C198.254 84.2186 198.44 83.5363 198.977 83.2359L209.053 77.5972C209.575 77.3048 210.236 77.4838 210.539 78L220.336 94.6755" stroke="black" stroke-linecap="square"/>
<path d="M204.272 83.0125L201.503 84.4479C201.393 84.5053 201.352 84.643 201.413 84.7515L202.731 87.0836" stroke="black" stroke-linecap="round"/>
<path d="M214.664 100.616L212.063 102.337C211.959 102.406 211.819 102.375 211.754 102.268L210.357 99.9825" stroke="black" stroke-linecap="round"/>
<path d="M210.537 83.1207L209.004 80.4052C208.943 80.2967 208.804 80.2606 208.698 80.3258L206.414 81.7259" stroke="black" stroke-linecap="round"/>
<path d="M213.184 88.734C212.084 87.5237 209.554 87.4797 208.233 89.0641C206.766 90.8245 207.463 92.585 208.563 93.6853" stroke="black" stroke-linecap="round"/>
<path d="M36 137.712C45.665 137.712 53.5 145.547 53.5 155.212C53.5 157.63 53.0103 159.467 52.1582 160.872C51.3077 162.274 50.0729 163.284 48.5166 164.01C45.3728 165.476 40.9796 165.758 36 165.758C31.0204 165.758 26.6272 165.476 23.4834 164.01C21.9271 163.284 20.6923 162.274 19.8418 160.872C18.9897 159.467 18.5 157.63 18.5 155.212C18.5 145.547 26.335 137.712 36 137.712Z" stroke="black"/>
<path d="M35.046 137.621C30.6824 137.621 27.7642 133.53 26.4551 129.167H45.6823C44.7733 131.439 42.1096 136.203 38.1823 137.621" stroke="black" stroke-linecap="square"/>
<path d="M35.2684 132.916C35.3057 132.642 35.1141 132.39 34.8405 132.353C34.5669 132.316 34.3149 132.507 34.2776 132.781L35.2684 132.916ZM36.5411 137.901L36.9571 138.178L37.5118 137.346L37.0958 137.069L36.5411 137.901ZM34.773 132.848L34.2776 132.781C34.1279 133.878 34.353 136.442 36.5411 137.901L36.8184 137.485L37.0958 137.069C35.3566 135.909 35.1453 133.819 35.2684 132.916L34.773 132.848Z" fill="black"/>
<path d="M36.2832 157.944V159.806" stroke="black" stroke-linecap="round"/>
<path d="M36.2832 143.621L36.2832 145.054" stroke="black" stroke-linecap="round"/>
<path d="M39.2406 147.345C38.7191 145.915 35.2495 143.772 32.8138 147.041C32.8056 147.052 32.7981 147.064 32.7918 147.076C32.2203 148.182 32.1632 150.499 36.456 151.069C38.7182 151.642 40.4586 152.788 39.5884 155.366C38.8923 156.942 34.8894 158.374 32.4531 155.079" stroke="black" stroke-linecap="round"/>
<path d="M117.745 137.764C116.706 137.589 114.644 137.482 113.25 137.764M113.25 137.764C110.238 138.373 107.121 140.46 107.026 145.803V159.378C106.796 161.144 107.994 164.742 114.633 165.007C121.2 165.269 139.251 165.121 147.727 165.011C147.882 165.009 148 164.883 148 164.728V143.816C148 142.437 146.686 139.81 141.43 140.34C133.305 140.34 116.569 140.34 114.633 140.34C113.135 140.223 110.761 139.544 113.25 137.764Z" stroke="black"/>
<path d="M113.818 140.107L132.596 129.254C133.802 130.23 136.317 132.527 136.73 133.905" stroke="black"/>
<path d="M118.814 140.107L140.176 133.044C141.209 134.594 143.38 138.177 143.793 140.107" stroke="black" stroke-linecap="round"/>
<path d="M147.755 147.342H135.767C134.205 147.342 132.939 148.608 132.939 150.169V155.99C132.939 157.577 134.246 158.853 135.833 158.817L147.755 158.539" stroke="black"/>
<circle cx="138.795" cy="152.854" r="3.11765" stroke="black"/>
<path d="M234.75 129.114L209.308 143.891C209.2 143.954 209.164 144.093 209.229 144.201L216.517 156.296C216.58 156.401 216.716 156.436 216.822 156.374L241.902 141.814C242.008 141.752 242.045 141.617 241.985 141.51L235.058 129.198C234.996 129.089 234.858 129.051 234.75 129.114Z" stroke="black"/>
<path d="M216.511 158.76L210.468 149.157C210.401 149.05 210.259 149.019 210.154 149.089L209.183 149.737C209.082 149.805 209.053 149.941 209.119 150.044L216.249 161.166C216.314 161.267 216.448 161.299 216.552 161.238L241.27 146.594C241.375 146.531 241.411 146.395 241.349 146.289L240.756 145.262C240.694 145.155 240.557 145.119 240.45 145.18L216.813 158.835C216.708 158.895 216.575 158.862 216.511 158.76Z" stroke="black"/>
<path d="M215.895 163.222L210.288 154.159C210.216 154.042 210.055 154.017 209.951 154.107L209.259 154.704C209.174 154.777 209.156 154.901 209.217 154.995L215.894 165.395C215.96 165.496 216.094 165.528 216.197 165.466L241.255 150.624C241.366 150.558 241.399 150.413 241.327 150.306L240.52 149.103C240.454 149.004 240.322 148.974 240.22 149.035L216.201 163.297C216.095 163.359 215.96 163.326 215.895 163.222Z" stroke="black"/>
<path d="M223.712 139.288C225.694 138.264 228.085 139.003 229.066 140.9C230.047 142.796 229.269 145.175 227.287 146.2C225.305 147.225 222.913 146.486 221.932 144.589C220.951 142.693 221.73 140.314 223.712 139.288Z" stroke="black"/>
<path d="M226.504 144.519L226.77 145.034" stroke="black" stroke-linecap="round"/>
<path d="M224.451 140.555L224.656 140.951" stroke="black" stroke-linecap="round"/>
<path d="M225.805 141.162C225.457 140.842 224.196 140.745 223.984 141.987C223.982 141.998 223.981 142.01 223.982 142.021C223.987 142.41 224.309 143.044 225.567 142.591C226.275 142.426 226.921 142.494 227.049 143.332C227.082 143.868 226.179 144.837 225.033 144.274" stroke="black" stroke-linecap="round"/>
<path d="M19.9941 56C22.2408 55.5007 27.3333 54.6021 29.7298 55.0015C32.4757 55.2095 39.1909 55.2261 44.0836 53.6284C50.0509 51.6799 55.0676 51.3949 59.2497 51.8459C59.4274 51.8651 59.5931 51.7501 59.6219 51.5738C59.8943 49.9065 59.4734 46.9517 55.8164 46.3891L50.4469 45.7925C50.2824 45.7742 50.1198 45.7415 49.961 45.6946L43.5652 43.8074C42.9325 43.6206 42.3854 43.2176 42.0194 42.6687L38.3949 37.232C38.1952 36.9323 38.0547 36.5971 37.9813 36.2445L37.4684 33.7827" stroke="black" stroke-width="1.05582" stroke-linecap="square"/>
<path d="M17 41.022L19.8042 40.3452C20.3363 40.2167 20.8194 39.936 21.1944 39.5373L32.2616 27.7712C32.4049 27.6188 32.5647 27.4829 32.7381 27.3659L42.8619 20.5383C43.0936 20.382 43.3473 20.2611 43.6146 20.1796L50.3002 18.1399C50.4833 18.084 50.6716 18.047 50.8622 18.0293L56.9452 17.4661C57.1464 17.4475 57.3221 17.6012 57.3212 17.8032C57.3161 19.035 57.0919 21.1504 56.1922 22.05" stroke="black" stroke-width="1.05582" stroke-linecap="round"/>
<path d="M33.6016 26.6682L36.8123 19.8762C36.835 19.8282 36.8682 19.786 36.9096 19.7527L40.6796 16.7123C40.7038 16.6928 40.7305 16.6766 40.759 16.6641L48.5342 13.2476C48.746 13.1546 48.9885 13.2877 49.0237 13.5163L49.1463 14.3134C49.1844 14.5613 49.2036 14.8118 49.2036 15.0626V15.8092" stroke="black" stroke-width="1.05582" stroke-linecap="round"/>
<path d="M39.2168 26.793L45.1295 23.5903C45.181 23.5624 45.2386 23.5478 45.2972 23.5478H53.0036C53.0484 23.5478 53.0927 23.5563 53.1343 23.573L59.5101 26.1233C59.7201 26.2073 59.7865 26.472 59.6411 26.6452V26.6452C58.2111 28.3475 55.9545 29.1155 53.783 28.6388L52.2543 28.3032C52.2168 28.295 52.1782 28.293 52.14 28.2972L45.5831 29.0257C45.502 29.0348 45.4265 29.0717 45.3696 29.1302L41.1421 33.4785C41.1071 33.5145 41.0805 33.5568 41.0636 33.604C40.6806 34.6713 39.9385 36.8165 39.8409 37.4024" stroke="black" stroke-width="1.05582" stroke-linecap="square"/>
<circle cx="57.0665" cy="37.5272" r="8.70848" stroke="black" stroke-width="1.05582"/>
<path d="M53.8217 40.398V41.5213H60.0625V37.5973H53.8217V33.9075H60.0625V35.0309" stroke="black" stroke-width="1.05582" stroke-linecap="square"/>
<path d="M57.0664 42.7695V32.2849" stroke="black" stroke-width="1.05582" stroke-linecap="square"/>
</svg>
