<svg width="260" height="178" viewBox="0 0 260 178" fill="none" xmlns="http://www.w3.org/2000/svg">
<path fill-rule="evenodd" clip-rule="evenodd" d="M34.4727 27.0182V13.3396C34.4727 9.71821 31.537 6.78252 27.9156 6.78252C24.2943 6.78252 21.3586 9.71821 21.3586 13.3396V27.0182C21.3586 30.6396 24.2943 33.5753 27.9156 33.5753C31.537 33.5753 34.4727 30.6396 34.4727 27.0182ZM27.9156 4.56458C23.0693 4.56458 19.1406 8.49328 19.1406 13.3396V27.0182C19.1406 31.8645 23.0693 35.7932 27.9156 35.7932C32.7619 35.7932 36.6906 31.8645 36.6906 27.0182V13.3396C36.6906 8.49327 32.7619 4.56458 27.9156 4.56458Z" fill="black"/>
<path fill-rule="evenodd" clip-rule="evenodd" d="M15.1402 16.36C15.7527 16.36 16.2492 16.8565 16.2492 17.469V27.5344C16.2492 31.963 18.243 34.5573 20.6662 36.0802C23.1565 37.6452 26.1506 38.0993 28.0092 38.0399C32.5588 37.8947 35.434 36.7169 37.1786 34.9629C38.9175 33.2147 39.711 30.7149 39.711 27.5344V17.469C39.711 16.8565 40.2075 16.36 40.82 16.36C41.4324 16.36 41.9289 16.8565 41.9289 17.469V27.5344C41.9289 31.0641 41.0449 34.221 38.7511 36.527C36.6349 38.6547 33.4709 39.9043 29.1536 40.2029V45.782H35.9163C36.5288 45.782 37.0253 46.2785 37.0253 46.891C37.0253 47.5035 36.5288 48 35.9163 48H20.5601C19.9476 48 19.4511 47.5035 19.4511 46.891C19.4511 46.2785 19.9476 45.782 20.5601 45.782H26.9356V40.242C24.7971 40.1268 21.963 39.5147 19.4861 37.9581C16.468 36.0613 14.0312 32.7841 14.0312 27.5344V17.469C14.0312 16.8565 14.5278 16.36 15.1402 16.36Z" fill="black"/>
<path fill-rule="evenodd" clip-rule="evenodd" d="M46.3845 5.97817C46.8152 6.41362 46.8114 7.11577 46.3759 7.54647L10.8888 42.6464C10.4534 43.0771 9.75122 43.0733 9.32052 42.6378C8.88982 42.2024 8.89367 41.5002 9.32912 41.0695L44.8162 5.96957C45.2517 5.53887 45.9538 5.54272 46.3845 5.97817Z" fill="black"/>
<path fill-rule="evenodd" clip-rule="evenodd" d="M112.728 67.6952C112.701 67.8282 112.677 67.9621 112.655 68.0968C112.561 68.6718 112.512 69.262 112.512 69.8636V83.5859C112.512 83.6762 112.513 83.7661 112.515 83.8558C112.527 84.3642 112.575 84.8639 112.655 85.3527C112.701 85.6333 112.757 85.9102 112.824 86.1832C113.988 90.9288 118.271 94.4495 123.375 94.4495C128.429 94.4495 132.676 90.9993 133.89 86.3261C133.912 86.2419 133.933 86.1574 133.953 86.0725C134.108 85.4107 134.202 84.7257 134.23 84.0236C134.236 83.8784 134.239 83.7325 134.239 83.5859V69.8636C134.239 69.1728 134.174 68.4971 134.051 67.8422C133.104 62.8083 128.684 59 123.375 59C118.118 59 113.733 62.7344 112.728 67.6952ZM131.661 67.8381C130.752 64.106 127.387 61.3356 123.375 61.3356C119.415 61.3356 116.085 64.0355 115.125 67.6952H119.373C120.018 67.6952 120.541 68.218 120.541 68.863C120.541 69.5079 120.018 70.0308 119.373 70.0308H114.847V72.984H119.373C120.018 72.984 120.541 73.5068 120.541 74.1518C120.541 74.7968 120.018 75.3196 119.373 75.3196H114.847V78.5587H119.373C120.018 78.5587 120.541 79.0816 120.541 79.7265C120.541 80.3715 120.018 80.8943 119.373 80.8943H114.847V83.5859C114.847 83.6735 114.849 83.7607 114.851 83.8476H119.373C120.018 83.8476 120.541 84.3704 120.541 85.0154C120.541 85.6603 120.018 86.1832 119.373 86.1832H115.25C116.349 89.623 119.571 92.1139 123.375 92.1139C127.127 92.1139 130.312 89.6918 131.453 86.3261H126.949C126.304 86.3261 125.781 85.8033 125.781 85.1583C125.781 84.5133 126.304 83.9905 126.949 83.9905H131.894C131.9 83.8564 131.903 83.7215 131.903 83.5859V80.8943H126.949C126.304 80.8943 125.781 80.3715 125.781 79.7265C125.781 79.0816 126.304 78.5587 126.949 78.5587H131.903V75.3196H126.949C126.304 75.3196 125.781 74.7968 125.781 74.1518C125.781 73.5068 126.304 72.984 126.949 72.984H131.903V70.1737H126.949C126.304 70.1737 125.781 69.6509 125.781 69.0059C125.781 68.3609 126.304 67.8381 126.949 67.8381H131.661Z" fill="black"/>
<path fill-rule="evenodd" clip-rule="evenodd" d="M108.571 81.2763C109.215 81.3102 109.71 81.8598 109.676 82.5039C109.542 85.0567 110.041 88.8672 112.045 91.9976C113.998 95.0502 117.446 97.5685 123.512 97.57C125.803 97.547 129.192 96.7644 132.011 94.5065C134.786 92.2841 137.108 88.5572 137.216 82.4218C137.228 81.777 137.76 81.2635 138.404 81.2749C139.049 81.2863 139.563 81.8183 139.551 82.4632C139.431 89.2497 136.821 93.6466 133.471 96.3295C130.612 98.6189 127.287 99.6046 124.686 99.8453V105.575H133.811C134.456 105.575 134.979 106.098 134.979 106.743C134.979 107.387 134.456 107.91 133.811 107.91H113.799C113.154 107.91 112.631 107.387 112.631 106.743C112.631 106.098 113.154 105.575 113.799 105.575H122.35V99.8765C116.184 99.5643 112.329 96.7756 110.077 93.2565C107.736 89.5972 107.192 85.26 107.344 82.3811C107.378 81.737 107.927 81.2424 108.571 81.2763Z" fill="black"/>
<rect x="12.174" y="63.174" width="31.6992" height="44.6519" rx="1.17404" stroke="black" stroke-width="2.34809"/>
<circle cx="28.0228" cy="92.3464" r="9.74328" stroke="black" stroke-width="2.34809"/>
<circle cx="28.0204" cy="92.2317" r="3.52213" stroke="black" stroke-width="2.34809"/>
<circle cx="28.0259" cy="72.9173" r="3.63698" stroke="black" stroke-width="2.34809"/>
<path fill-rule="evenodd" clip-rule="evenodd" d="M140.108 21.6522C140.653 21.1073 141.536 21.1073 142.081 21.6522L149.755 29.3263C150.3 29.8712 150.3 30.7547 149.755 31.2996C149.21 31.8445 148.327 31.8445 147.782 31.2996L140.108 23.6254C139.563 23.0806 139.563 22.1971 140.108 21.6522Z" fill="black"/>
<path fill-rule="evenodd" clip-rule="evenodd" d="M129.587 7.94252C131.629 6.2221 134.75 7.67339 134.75 10.3432V40.8549C134.75 43.4341 131.812 44.9129 129.74 43.3766L117.491 34.293H109.139C107.406 34.293 106 32.8875 106 31.1536V21.3162C106 19.5824 107.406 18.1768 109.139 18.1768H117.442L129.587 7.94252ZM116.557 20.9674H109.139C108.947 20.9674 108.791 21.1236 108.791 21.3162V31.1536C108.791 31.3463 108.947 31.5024 109.139 31.5024H116.557V20.9674ZM119.347 32.1953L131.402 41.1351C131.633 41.3058 131.959 41.1415 131.959 40.8549V10.3432C131.959 10.0466 131.612 9.8853 131.385 10.0765L119.347 20.221V32.1953Z" fill="black"/>
<path fill-rule="evenodd" clip-rule="evenodd" d="M144.951 30.6264C147.328 30.6264 149.256 28.699 149.256 26.3215C149.256 23.944 147.328 22.0167 144.951 22.0167C142.573 22.0167 140.646 23.944 140.646 26.3215C140.646 28.699 142.573 30.6264 144.951 30.6264ZM144.951 33.417C148.87 33.417 152.046 30.2402 152.046 26.3215C152.046 22.4028 148.87 19.2261 144.951 19.2261C141.032 19.2261 137.855 22.4028 137.855 26.3215C137.855 30.2402 141.032 33.417 144.951 33.417Z" fill="black"/>
<path fill-rule="evenodd" clip-rule="evenodd" d="M236.64 131.25C236.431 131.848 236.746 132.502 237.344 132.711C238.63 133.162 240.132 134.569 240.796 136.48C241.431 138.306 241.299 140.599 239.327 142.922C238.6 143.757 236.853 144.911 234.714 145.251C232.646 145.581 230.225 145.151 227.985 142.867C227.223 142.09 226.395 140.189 226.475 138.089C226.552 136.085 227.45 133.995 230.011 132.643C230.571 132.348 230.786 131.654 230.49 131.093C230.194 130.533 229.5 130.319 228.94 130.614C225.562 132.397 224.286 135.288 224.183 138.001C224.083 140.619 225.07 143.171 226.347 144.473C229.156 147.337 232.344 147.952 235.075 147.517C237.732 147.094 239.973 145.677 241.063 144.422L241.071 144.413C243.581 141.46 243.861 138.311 242.963 135.726C242.093 133.224 240.115 131.251 238.102 130.546C237.504 130.337 236.85 130.652 236.64 131.25Z" fill="black"/>
<path fill-rule="evenodd" clip-rule="evenodd" d="M236.413 123.787V137.491H238.707V124.63C242.089 125.847 244.417 127.551 245.965 129.462C247.728 131.638 248.54 134.155 248.683 136.703C248.973 141.875 246.504 147.006 243.906 149.232C243.652 149.45 243.505 149.768 243.505 150.103V163.307H227.655V157.856C227.655 157.523 227.511 157.207 227.26 156.989C227.008 156.771 226.675 156.673 226.346 156.72C223.266 157.16 221.515 156.698 220.574 156.128C219.66 155.575 219.427 154.879 219.408 154.531V148.619C219.408 148.108 219.07 147.659 218.58 147.517L214.932 146.458L219.23 139.665C219.343 139.485 219.405 139.278 219.407 139.065C219.517 129.872 224.886 125.819 228.495 124.549V138.781H230.789V123.797C232.006 123.329 233.231 123.235 234.306 123.328C235.169 123.403 235.901 123.596 236.413 123.787ZM229.274 121.954C231.107 121.077 232.962 120.908 234.504 121.043C235.984 121.171 237.244 121.584 238.003 121.986C242.491 123.32 245.658 125.438 247.748 128.017C249.856 130.62 250.807 133.617 250.973 136.575C251.287 142.166 248.8 147.758 245.8 150.612V164.454C245.8 165.087 245.286 165.601 244.653 165.601H226.508C225.875 165.601 225.361 165.087 225.361 164.454V159.137C222.668 159.347 220.73 158.904 219.386 158.091C217.822 157.144 217.157 155.742 217.114 154.599C217.114 154.594 217.114 154.589 217.114 154.584C217.114 154.575 217.113 154.566 217.113 154.557V149.48L212.827 148.236C212.481 148.135 212.202 147.878 212.074 147.54C211.947 147.203 211.985 146.825 212.178 146.521L217.12 138.71C217.397 127.366 224.994 122.825 229.274 121.954Z" fill="black"/>
<path fill-rule="evenodd" clip-rule="evenodd" d="M233.766 140.881C232.3 140.881 231.112 139.693 231.112 138.227C231.112 136.761 232.3 135.572 233.766 135.572C235.232 135.572 236.421 136.761 236.421 138.227C236.421 139.693 235.232 140.881 233.766 140.881ZM233.766 143.175C231.033 143.175 228.818 140.96 228.818 138.227C228.818 135.494 231.033 133.278 233.766 133.278C236.499 133.278 238.715 135.494 238.715 138.227C238.715 140.96 236.499 143.175 233.766 143.175Z" fill="black"/>
<path fill-rule="evenodd" clip-rule="evenodd" d="M233.338 9.71547H232.184C228.905 9.71547 226.247 12.3736 226.247 15.6526V26.0357C226.247 29.3147 228.905 31.9728 232.184 31.9728H233.338C236.617 31.9728 239.275 29.3147 239.275 26.0357V15.6526C239.275 12.3736 236.617 9.71547 233.338 9.71547ZM232.184 7C227.405 7 223.531 10.8739 223.531 15.6526V26.0357C223.531 30.8144 227.405 34.6883 232.184 34.6883H233.338C238.116 34.6883 241.99 30.8144 241.99 26.0357V15.6526C241.99 10.8739 238.116 7 233.338 7H232.184Z" fill="black"/>
<path fill-rule="evenodd" clip-rule="evenodd" d="M215.276 22.3713C216.025 22.3477 216.652 22.9361 216.676 23.6856C216.768 26.614 217.447 30.9553 219.684 34.5768C221.872 38.1178 225.586 41.0483 232.024 41.2629C232.036 41.2633 232.048 41.2639 232.061 41.2646C234.585 41.417 238.516 40.7337 241.756 38.2009C244.931 35.7198 247.604 31.3389 247.494 23.748C247.483 22.9983 248.082 22.3816 248.832 22.3708C249.581 22.3599 250.198 22.9589 250.209 23.7087C250.33 32.0386 247.355 37.2717 243.429 40.3403C239.577 43.351 234.967 44.156 231.915 43.9762C224.52 43.7244 220.006 40.2637 217.374 36.0039C214.79 31.8213 214.062 26.9476 213.962 23.7711C213.938 23.0216 214.526 22.3949 215.276 22.3713Z" fill="black"/>
<path fill-rule="evenodd" clip-rule="evenodd" d="M227.441 64.3006C223.899 64.7988 220.886 66.5188 219.233 67.9231C218.672 68.3993 217.832 68.3308 217.356 67.7702C216.88 67.2096 216.948 66.3692 217.509 65.8931C219.481 64.2181 222.95 62.2428 227.07 61.6632C231.245 61.0758 236.068 61.9313 240.561 65.9112C241.112 66.3989 241.163 67.2405 240.675 67.7911C240.187 68.3417 239.346 68.3927 238.795 67.905C234.944 64.4945 230.926 63.8103 227.441 64.3006ZM228.113 70.2912C225.936 70.6324 224.049 71.8199 223.007 72.7968C222.47 73.2998 221.627 73.2726 221.124 72.7361C220.621 72.1995 220.648 71.3568 221.185 70.8537C222.527 69.5956 224.886 68.1011 227.701 67.66C230.592 67.2068 233.895 67.8836 236.895 70.8836C237.415 71.4037 237.415 72.2469 236.895 72.7669C236.375 73.287 235.531 73.287 235.011 72.7669C232.647 70.4029 230.213 69.9622 228.113 70.2912Z" fill="black"/>
<path fill-rule="evenodd" clip-rule="evenodd" d="M249.67 83.6055C250.405 83.6055 251.001 84.2017 251.001 84.9372V95.8143C251.001 101.487 246.402 106.086 240.729 106.086H218.659C212.986 106.086 208.387 101.487 208.387 95.8143V85.0862C208.387 84.3507 208.983 83.7545 209.718 83.7545C210.454 83.7545 211.05 84.3507 211.05 85.0862V95.8143C211.05 100.016 214.457 103.423 218.659 103.423H240.729C244.931 103.423 248.338 100.016 248.338 95.8143V84.9372C248.338 84.2017 248.934 83.6055 249.67 83.6055Z" fill="black"/>
<path fill-rule="evenodd" clip-rule="evenodd" d="M248.33 84.6868C248.337 84.66 248.338 84.6461 248.338 84.6393C248.338 84.6324 248.337 84.6185 248.33 84.5917C248.322 84.5633 248.303 84.5107 248.258 84.4333C248.166 84.2717 247.974 84.0249 247.61 83.7175C246.864 83.0889 245.627 82.4028 243.866 81.7745C240.366 80.5263 235.356 79.7036 229.694 79.7036C224.032 79.7036 219.022 80.5263 215.522 81.7745C213.761 82.4028 212.524 83.0889 211.778 83.7175C211.413 84.0249 211.222 84.2717 211.13 84.4333C211.085 84.5107 211.066 84.5633 211.058 84.5917C211.051 84.6185 211.05 84.6324 211.05 84.6393C211.05 84.6461 211.051 84.66 211.058 84.6868C211.066 84.7152 211.085 84.7678 211.13 84.8452C211.222 85.0068 211.413 85.2536 211.778 85.561C212.524 86.1896 213.761 86.8757 215.522 87.504C219.022 88.7522 224.032 89.5749 229.694 89.5749C235.356 89.5749 240.366 88.7522 243.866 87.504C245.627 86.8757 246.864 86.1896 247.61 85.561C247.974 85.2536 248.166 85.0068 248.258 84.8452C248.303 84.7678 248.322 84.7152 248.33 84.6868ZM229.694 92.2383C241.462 92.2383 251.001 88.8361 251.001 84.6393C251.001 80.4424 241.462 77.0402 229.694 77.0402C217.926 77.0402 208.387 80.4424 208.387 84.6393C208.387 88.8361 217.926 92.2383 229.694 92.2383Z" fill="black"/>
<path fill-rule="evenodd" clip-rule="evenodd" d="M224.478 95.8145C223.655 95.8145 222.988 96.4816 222.988 97.3045V99.3905C222.988 100.213 223.655 100.881 224.478 100.881H233.716C234.539 100.881 235.206 100.213 235.206 99.3905V97.3045C235.206 96.4816 234.539 95.8145 233.716 95.8145H224.478Z" fill="black"/>
<path d="M37.9311 130.349V161.929C37.9311 164.743 34.6528 166.284 32.4857 164.489L27.3569 160.24C26.6759 159.676 25.7938 159.422 24.9096 159.441C8.90413 159.784 3.77967 138.492 25.4531 133.286C25.992 133.157 26.5134 132.906 26.9342 132.546L32.4432 127.825C34.5998 125.977 37.9311 127.509 37.9311 130.349Z" stroke="black" stroke-width="2.86739" stroke-linecap="round" stroke-linejoin="round"/>
<path d="M43.2422 140.774L55.999 153.531M43.2422 153.531L55.999 140.774" stroke="black" stroke-width="2.86739" stroke-linecap="round" stroke-linejoin="round"/>
<path d="M134.516 140.342C136.767 141.95 139.34 147.418 134.516 151.277" stroke="black" stroke-width="2.92059" stroke-linecap="round"/>
<path d="M136.452 132.302C142.455 136.912 150.216 149.09 135.809 159.638" stroke="black" stroke-width="2.92059" stroke-linecap="round"/>
<path d="M129.052 130.611V161.16C129.052 163.882 125.881 165.373 123.784 163.636L118.823 159.526C118.164 158.98 117.311 158.734 116.456 158.753C100.973 159.085 96.0153 138.487 116.981 133.452C117.503 133.326 118.007 133.084 118.414 132.736L123.743 128.169C125.83 126.381 129.052 127.863 129.052 130.611Z" stroke="black" stroke-width="2.92059"/>
</svg>
