<svg width="260" height="178" viewBox="0 0 260 178" fill="none" xmlns="http://www.w3.org/2000/svg">
<path d="M239.643 163.615H247.875M239.643 163.615L237.722 156.183M239.643 163.615H209M247.875 163.615L249.986 154.22C250.076 153.82 249.772 153.439 249.361 153.439V153.439M247.875 163.615H250.848M238.499 153.439H238.12C237.559 153.439 237.15 153.968 237.29 154.511L237.722 156.183M238.499 153.439C237.655 151.61 236.362 146.903 237.392 141.801C237.514 141.193 238.231 140.97 238.675 141.403C238.993 141.713 239.337 142.07 239.688 142.463M238.499 153.439H241.358M242.844 147.494C242.425 148.485 241.541 151.061 241.358 153.439M242.844 147.494C242.225 145.636 240.91 143.828 239.688 142.463M242.844 147.494C243.503 145.983 245.029 143.241 246.96 141.417M249.361 153.439C252.293 146.892 250.575 142.432 249.705 140.561C249.514 140.15 249.025 139.95 248.628 140.168C248.048 140.486 247.489 140.917 246.96 141.417M249.361 153.439H241.358M239.688 142.463C239.993 141.083 241.15 138.03 243.435 136.136C243.746 135.878 244.199 135.914 244.466 136.217C245.404 137.281 246.729 139.251 246.96 141.417M246.96 141.417V130.857C246.96 130.384 246.576 130 246.103 130H209.857C209.384 130 209 130.384 209 130.857V155.326C209 155.8 209.384 156.183 209.857 156.183H237.722M219.862 159.842H235.869" stroke="black" stroke-width="2.14296" stroke-linecap="round" stroke-linejoin="round"/>
<path d="M123.441 146.436L128.387 141.491C128.943 140.934 129.895 141.328 129.895 142.115V159.343" stroke="black" stroke-width="2.20873"/>
<path d="M113.496 129.765V126.883C113.496 126.396 113.892 126 114.38 126H118.797C119.285 126 119.681 126.396 119.681 126.883V129.765M137.966 129.765V126.883C137.966 126.396 138.361 126 138.849 126H143.536C144.024 126 144.419 126.396 144.419 126.883V129.765" stroke="black" stroke-width="2.20873"/>
<path d="M110.262 136.218H147.37" stroke="black" stroke-width="2.20873"/>
<mask id="path-5-inside-1_1004_3725" fill="white">
<rect x="110" y="129.496" width="37.6458" height="34.419" rx="1.76698"/>
</mask>
<rect x="110" y="129.496" width="37.6458" height="34.419" rx="1.76698" stroke="black" stroke-width="4.41745" mask="url(#path-5-inside-1_1004_3725)"/>
<path d="M17.2483 154.503V150.087M17.2483 154.503C13.157 154.503 11.4719 153.114 11.0617 152.299C11.0149 152.206 11 152.101 11 151.997V144.713C11 144.541 11.0485 144.368 11.1434 144.225C13.5142 140.631 16.1892 142.853 17.2483 144.45M17.2483 154.503H30.4966M43.745 154.503V150.087M43.745 154.503C48.9907 154.503 50.1592 153.052 50.0996 152.245C50.0951 152.184 50.0872 152.123 50.0872 152.062V144.767C50.0872 144.561 50.0195 144.359 49.8867 144.201C47.3897 141.243 44.7668 143.108 43.745 144.45M43.745 154.503H30.4966M43.745 150.087H17.2483M43.745 150.087V144.45M17.2483 150.087V144.45M43.745 144.45V130.939C43.745 126.82 41.3106 125 38.1273 125H22.6787C18.7464 125 17.2483 128.448 17.2483 130.939V144.45M30.4966 154.503V161.268M30.4966 161.268L18.9131 161.268M30.4966 161.268L42.0436 161.268" stroke="black" stroke-width="2.32748"/>
<circle cx="19.4635" cy="163.523" r="1.74901" stroke="black" stroke-width="2.32748"/>
<circle cx="30.5495" cy="164.087" r="1.74901" stroke="black" stroke-width="2.32748"/>
<circle cx="42.0065" cy="163.523" r="1.74901" stroke="black" stroke-width="2.32748"/>
<path d="M228.128 72.671H248.691C249.773 72.671 251.126 73.4827 250.991 75.7825V98.6453C250.991 99.457 250.747 101.08 248.691 101.08H212.706C211.353 101.08 210 100.485 210 98.6453V75.7825C209.999 74.7003 210.216 72.671 212.165 72.671H215.142M228.128 72.671V92.8281C228.128 95.3174 226.234 95.8495 225.287 95.8044H217.305C215.411 95.8044 215.142 94.0457 215.142 92.8281V72.671M228.128 72.671C228.128 70.7771 228.263 66.9891 225.558 66.9891H217.305C215.817 66.9891 215.005 68.2067 215.142 72.671" stroke="black" stroke-width="2.23347"/>
<path d="M233.809 79.1646H246.39" stroke="black" stroke-width="2.23347" stroke-linecap="round"/>
<rect x="234.211" y="84.4402" width="2.16453" height="2.16453" fill="black"/>
<rect x="234.211" y="89.0403" width="2.16453" height="2.16453" fill="black"/>
<rect x="234.211" y="94.1819" width="2.16453" height="2.16453" fill="black"/>
<rect x="239.086" y="84.4402" width="2.16453" height="2.16453" fill="black"/>
<rect x="239.086" y="89.0403" width="2.16453" height="2.16453" fill="black"/>
<rect x="239.086" y="94.1819" width="2.16453" height="2.16453" fill="black"/>
<rect x="243.953" y="84.4402" width="2.16453" height="2.16453" fill="black"/>
<rect x="243.953" y="89.0403" width="2.16453" height="2.16453" fill="black"/>
<rect x="243.953" y="94.1819" width="2.16453" height="2.16453" fill="black"/>
<path d="M118.392 78.4468H122.814C122.934 78.4468 123.053 78.4715 123.162 78.5224C124.19 79.0048 124.978 79.6144 125.574 80.2786M118.392 78.4468V88.7265C118.392 88.9809 118.279 89.2221 118.084 89.3849L114.281 92.5541C114.085 92.7169 113.972 92.9582 113.972 93.2125V100.362M118.392 78.4468H113.696M113.972 100.362H109.857C109.384 100.362 109 99.9778 109 99.5044V79.3039C109 78.8306 109.384 78.4468 109.857 78.4468H113.696M113.972 100.362H150.131C150.604 100.362 150.988 99.9778 150.988 99.5044V90.6012C151.111 88.8824 150.251 85.4448 145.831 85.4448H128.155C127.669 85.4448 127.296 85.0093 127.28 84.524V84.524M125.574 80.2786L144.69 68.8542C145.034 68.6485 145.481 68.7046 145.728 69.0206C146.791 70.3829 147.678 72.6889 143.806 74.9478L127.28 84.524M125.574 80.2786C126.831 81.6784 127.242 83.3204 127.28 84.524M113.696 78.4468V74.9478M113.696 74.9478H111.33C110.857 74.9478 110.473 74.5641 110.473 74.0907V71.5693C110.473 71.096 110.857 70.7122 111.33 70.7122H116.43C116.903 70.7122 117.287 71.096 117.287 71.5693V74.0907C117.287 74.5641 116.903 74.9478 116.43 74.9478H113.696Z" stroke="black" stroke-width="2.1623"/>
<mask id="path-22-inside-2_1004_3725" fill="white">
<rect x="125.945" y="89.6801" width="20.6256" height="5.89303" rx="0.857118"/>
</mask>
<rect x="125.945" y="89.6801" width="20.6256" height="5.89303" rx="0.857118" stroke="black" stroke-width="4.3246" mask="url(#path-22-inside-2_1004_3725)"/>
<circle cx="122.74" cy="83.2276" r="0.982155" fill="black"/>
<path d="M24.8268 74.0309L25.8811 73.0225C26.2474 72.6722 26.8274 72.6817 27.182 73.0438L43.6272 89.8389C43.7502 89.9645 43.8367 90.1293 43.8712 90.3017C46.0886 101.402 37.8364 102.167 33.165 101.116C32.998 101.079 32.8488 100.992 32.7286 100.87L15.9314 83.8399C15.5686 83.4721 15.5773 82.8784 15.9506 82.5213L17.109 81.4133M24.8268 74.0309L18.1359 67.6308C17.7702 67.281 17.1914 67.2898 16.8365 67.6505L13.74 70.7977M24.8268 74.0309L17.109 81.4133M17.109 81.4133L10.6798 75.2442C10.3077 74.8872 10.2992 74.295 10.6608 73.9274L13.74 70.7977M13.74 70.7977L17.109 74.0309" stroke="black" stroke-width="2.31366" stroke-linecap="round" stroke-linejoin="round"/>
<circle cx="2.69514" cy="2.69514" r="1.53831" transform="matrix(-1 0 0 1 39.6484 91.3792)" stroke="black" stroke-width="2.31366" stroke-linecap="round" stroke-linejoin="round"/>
<path d="M209 28.531V32.1728M209 28.531C210.034 27.9323 211.723 27.2869 214.487 28.1358C215.16 28.3428 215.583 28.991 215.583 29.6957V32.1728M209 28.531L242.43 9.16925C242.554 9.09754 242.685 9.03736 242.827 9.01801C244.019 8.85528 246.306 9.79244 247.695 11.9449C248.157 12.6613 247.817 13.5765 247.079 14.0025L215.583 32.1728M209 32.1728V39.2592C209 40.2191 209.778 40.9972 210.738 40.9972H248.78C249.714 41.0439 251.581 40.521 251.581 38.0557V33.9108C251.581 32.9509 250.803 32.1728 249.843 32.1728H215.583M209 32.1728H215.583M212.362 36.375H219.785" stroke="black" stroke-width="1.99871" stroke-linecap="round"/>
<circle cx="240.513" cy="36.0952" r="0.70035" fill="black"/>
<circle cx="243.88" cy="36.0952" r="0.70035" fill="black"/>
<circle cx="247.239" cy="36.0952" r="0.70035" fill="black"/>
<path d="M142.597 9.58069L146.592 11.4115C146.913 11.5589 147.119 11.8801 147.119 12.2337V21.0745M114.334 9.58069L110.514 11.4074C110.2 11.5577 110 11.8751 110 12.2234V21.0745M147.119 21.0745V26.0112C147.119 26.5107 146.715 26.9157 146.215 26.9157H143.916M147.119 21.0745C146.516 21.0745 122.122 21.0745 110 21.0745M110 21.0745V26.0112C110 26.5107 110.405 26.9157 110.904 26.9157H113.203M113.203 26.9157L115.084 33.2406C115.198 33.6243 115.55 33.8873 115.951 33.8873H117.537M113.203 26.9157H143.916M143.916 26.9157L142.388 33.1966C142.29 33.602 141.927 33.8873 141.51 33.8873H139.583M117.537 33.8873V43.8738M117.537 33.8873H139.583M139.583 33.8873V43.8738M123.755 43.8738V40.8214C123.755 40.3218 124.16 39.9169 124.659 39.9169H132.648C133.148 39.9169 133.553 40.3218 133.553 40.8214V43.8738" stroke="black" stroke-width="2.26119" stroke-linecap="round" stroke-linejoin="round"/>
<rect x="114.653" y="8.43308" width="4.33374" height="1.69581" rx="0.847906" transform="rotate(-18.3128 114.653 8.43308)" stroke="black" stroke-width="1.69581" stroke-linecap="round" stroke-linejoin="round"/>
<rect x="138.029" y="7.03406" width="4.33374" height="1.69581" rx="0.847906" transform="rotate(14.5585 138.029 7.03406)" stroke="black" stroke-width="1.69581" stroke-linecap="round" stroke-linejoin="round"/>
<path d="M22.9844 31.962V32.6922C22.9844 34.1856 24.195 35.3963 25.6884 35.3963H30.8284C32.3217 35.3963 33.5324 34.1856 33.5324 32.6922V31.962" stroke="black" stroke-width="2.25336" stroke-linecap="round" stroke-linejoin="round"/>
<path d="M20.0443 15.2812V11.1966C20.0443 10.201 20.8514 9.39392 21.847 9.39392H35.6581C36.6537 9.39392 37.4608 10.201 37.4608 11.1966V15.2812M10.3555 31.7165H46.4092" stroke="black" stroke-width="2.25336" stroke-linecap="round" stroke-linejoin="round"/>
<rect x="10.1267" y="16.1621" width="36.5045" height="25.7111" rx="1.57735" stroke="black" stroke-width="2.25336" stroke-linecap="round" stroke-linejoin="round"/>
</svg>
