<svg width="260" height="178" viewBox="0 0 260 178" fill="none" xmlns="http://www.w3.org/2000/svg">
<path d="M243.631 14.6708C245.049 16.1282 247.034 19.8938 243.631 23.2971M241.031 17.0341C241.701 17.7826 242.638 19.6811 241.031 21.2882" stroke="black" stroke-width="1.68944" stroke-linecap="round" stroke-linejoin="round"/>
<path d="M211.016 32.2784H218.106" stroke="black" stroke-width="1.68944"/>
<path d="M211.016 37.123H227.323" stroke="black" stroke-width="1.68944"/>
<path d="M220.234 32.2784H227.324" stroke="black" stroke-width="1.68944"/>
<path d="M229.688 32.2784H236.778" stroke="black" stroke-width="1.68944"/>
<path d="M238.902 32.2784H245.992" stroke="black" stroke-width="1.68944"/>
<rect x="207.845" y="11.0255" width="41.5603" height="29.9797" rx="1.51865" stroke="black" stroke-width="1.68944"/>
<rect x="212.337" y="15.7523" width="6.8187" height="6.8187" stroke="black" stroke-width="1.68944"/>
<path d="M142.246 101.375H151.859" stroke="black" stroke-width="1.83585" stroke-linejoin="round"/>
<path d="M129.031 91.7616H155.736M129.031 96.4348H155.736" stroke="black" stroke-width="1.83585" stroke-linejoin="round"/>
<path d="M122.621 76.5398H131.834" stroke="black" stroke-width="1.83585" stroke-linejoin="round"/>
<path d="M109.266 66.6592H136.103M109.266 71.3324H136.103" stroke="black" stroke-width="1.83585" stroke-linejoin="round"/>
<rect x="129.68" y="87.6055" width="25.4025" height="16.8571" rx="1.7525" stroke="black" stroke-width="1.83585"/>
<rect x="109.918" y="62.7705" width="25.4025" height="16.8571" rx="1.7525" stroke="black" stroke-width="1.83585"/>
<path d="M140.512 68.1279C142.648 69.0626 150.526 75.6051 149.591 86.8209M140.512 68.1279V74.4034M140.512 68.1279H147.455" stroke="black" stroke-width="1.83585" stroke-linecap="round" stroke-linejoin="round"/>
<path d="M124.566 99.2384C122.43 98.3038 114.552 91.7612 115.487 80.5454M124.566 99.2384V92.9629M124.566 99.2384H117.623" stroke="black" stroke-width="1.83585" stroke-linecap="round" stroke-linejoin="round"/>
<path d="M57.25 16.7696C57.25 15.008 56.1652 11.4013 51.8261 11.0675M54.3294 18.0213C54.3294 16.8623 53.5784 14.4053 50.5744 13.849" stroke="black" stroke-width="1.81395"/>
<path d="M55.582 28.0344H50.019M47.9329 28.0344H43.0653M40.4228 28.0344H35.5552M33.4691 28.0344H28.4624M28.4624 24.2794H33.4691M43.0653 24.2794H47.9329" stroke="black" stroke-width="1.81395"/>
<path d="M13.0192 31.7891C14.6881 29.0076 15.4762 23.5837 15.6616 21.2194C15.8907 18.2988 17.0524 16.9081 18.7213 16.0736L23.1715 14.5902M13.0192 31.7891L25.5358 40.2727M13.0192 31.7891L9 36.0852L22.7054 45.155L25.5358 40.2727M23.1715 14.5902L29.1519 12.5967C31.5162 12.1007 34.5969 14.9224 31.5162 18.1597L23.1715 21.6366V30.1202C23.1252 31.0474 23.5331 32.9017 25.5358 32.9017H33.4631M23.1715 14.5902V10.2324C23.1715 8.34102 24.7477 7.86816 25.5358 7.86816H58.2185C60.4437 7.86816 61 9.81522 61 10.7887V30.1202C61 32.2341 59.702 32.8553 59.0529 32.9017H33.4631M33.4631 32.9017C31.7942 34.5706 27.8723 38.3813 25.5358 40.2727" stroke="black" stroke-width="1.81395" stroke-linecap="round" stroke-linejoin="round"/>
<path d="M39.2169 134.092H16.6419C16.6419 137.245 14.253 137.954 13.0586 137.914V149.022C15.7341 149.5 16.5623 151.849 16.6419 152.964H39.2169C39.7903 150.193 42.0836 149.181 43.1586 149.022V137.914C40.3875 137.914 39.3762 135.366 39.2169 134.092Z" stroke="black" stroke-width="1.67969" stroke-linecap="round"/>
<path d="M13.8972 157.264H9V129.792H47.1028V134.808M13.8972 157.264H47.1028V134.808M13.8972 157.264V162.4H52V134.808H47.1028" stroke="black" stroke-width="1.67969" stroke-linecap="round" stroke-linejoin="round"/>
<circle cx="28.1069" cy="143.528" r="3.5796" stroke="black" stroke-width="1.67969"/>
<circle cx="20.104" cy="143.648" r="0.955556" fill="black"/>
<circle cx="36.354" cy="143.648" r="0.955556" fill="black"/>
<path d="M147.231 16.409C149.992 12.6812 148.151 10.15 146.402 9.36768H118.099C116.534 10.6103 114.344 13.841 118.099 16.8232M118.099 16.8232H136.753M118.099 16.8232H111.196C109.539 18.0197 107.219 21.2136 111.196 24.4167H118.236M127.757 24.4167H118.236M118.236 24.4167C116.81 25.5673 114.812 28.5863 118.236 31.458M118.236 31.458H125.278M118.236 31.458H114.923C113.22 32.7927 110.836 36.2903 114.923 39.6039H127.949" stroke="black" stroke-width="1.91402"/>
<path d="M141.566 26.6258V24.4167M141.566 36.7045V39.1897" stroke="black" stroke-width="1.91402"/>
<path d="M143.335 30.0208C143.296 29.6253 143.128 29.318 142.83 29.0991C142.533 28.8801 142.129 28.7706 141.619 28.7706C141.273 28.7706 140.98 28.8196 140.742 28.9176C140.503 29.0124 140.32 29.1448 140.193 29.3148C140.068 29.4847 140.006 29.6776 140.006 29.8933C140 30.0731 140.037 30.23 140.119 30.364C140.204 30.498 140.32 30.614 140.467 30.7121C140.614 30.8069 140.784 30.8902 140.977 30.9621C141.17 31.0308 141.376 31.0896 141.595 31.1386L142.497 31.3544C142.935 31.4524 143.337 31.5832 143.703 31.7466C144.069 31.91 144.386 32.111 144.654 32.3497C144.922 32.5883 145.13 32.8694 145.277 33.1929C145.427 33.5165 145.504 33.8875 145.507 34.3059C145.504 34.9204 145.347 35.4532 145.037 35.9042C144.729 36.352 144.285 36.7001 143.703 36.9485C143.125 37.1937 142.427 37.3163 141.61 37.3163C140.799 37.3163 140.093 37.192 139.492 36.9436C138.893 36.6952 138.426 36.3275 138.089 35.8405C137.756 35.3502 137.581 34.7439 137.565 34.0215H139.619C139.642 34.3582 139.738 34.6393 139.908 34.8648C140.082 35.0871 140.312 35.2554 140.6 35.3698C140.891 35.4809 141.219 35.5365 141.585 35.5365C141.945 35.5365 142.257 35.4842 142.522 35.3796C142.79 35.275 142.997 35.1296 143.144 34.9433C143.291 34.757 143.365 34.5429 143.365 34.301C143.365 34.0755 143.298 33.8859 143.164 33.7323C143.033 33.5786 142.84 33.4479 142.585 33.34C142.334 33.2322 142.025 33.1341 141.659 33.0459L140.565 32.7713C139.719 32.5654 139.05 32.2434 138.56 31.8054C138.07 31.3674 137.826 30.7775 137.83 30.0355C137.826 29.4275 137.988 28.8964 138.315 28.4421C138.645 27.9877 139.098 27.6331 139.673 27.3781C140.248 27.1232 140.902 26.9957 141.634 26.9957C142.379 26.9957 143.03 27.1232 143.585 27.3781C144.144 27.6331 144.579 27.9877 144.89 28.4421C145.2 28.8964 145.36 29.4226 145.37 30.0208H143.335Z" fill="black"/>
<circle cx="141.57" cy="31.5963" r="15.4727" stroke="black" stroke-width="1.91402"/>
<circle cx="141.57" cy="31.5962" r="11.0546" stroke="black" stroke-width="1.91402"/>
<path d="M38.2606 89.0948L41.6632 79.7377C42.5706 79.1706 44.3853 78.5467 44.8957 80.9286L43.7146 84.161M38.2606 94.1988C39.6216 88.6185 36.219 86.316 34.3476 85.8624C34.3476 85.8624 34.1203 90.2266 34.3476 93.0078C34.6002 96.0997 35.7086 100.834 35.7086 100.834M35.7086 100.834L44.8957 104.066M35.7086 100.834L32.8164 104.747L44.5554 109L44.8957 104.066M41.6632 89.7753L43.7146 84.161M43.7146 84.161C44.562 84.558 46.2227 85.7943 46.0866 87.5637M46.0866 87.5637L44.8957 90.7961M46.0866 87.5637C46.9372 87.9039 48.6386 89.0268 48.6386 90.7961M48.6386 90.7961L47.7879 93.0078M48.6386 90.7961C51.1338 90.9096 53.8786 93.7224 44.8957 104.066" stroke="black" stroke-width="1.64055"/>
<mask id="path-31-inside-1_1096_3626" fill="white">
<rect x="9" y="63.0651" width="9.52731" height="9.52731" rx="1.02078"/>
</mask>
<rect x="9" y="63.0651" width="9.52731" height="9.52731" rx="1.02078" stroke="black" stroke-width="3.28109" mask="url(#path-31-inside-1_1096_3626)"/>
<mask id="path-32-inside-2_1096_3626" fill="white">
<rect x="9" y="76.6759" width="9.52731" height="9.52731" rx="1.02078"/>
</mask>
<rect x="9" y="76.6759" width="9.52731" height="9.52731" rx="1.02078" stroke="black" stroke-width="3.28109" mask="url(#path-32-inside-2_1096_3626)"/>
<mask id="path-33-inside-3_1096_3626" fill="white">
<rect x="9" y="89.6056" width="9.52731" height="9.52731" rx="1.02078"/>
</mask>
<rect x="9" y="89.6056" width="9.52731" height="9.52731" rx="1.02078" stroke="black" stroke-width="3.28109" mask="url(#path-33-inside-3_1096_3626)"/>
<mask id="path-34-inside-4_1096_3626" fill="white">
<rect x="22.2656" y="63.0651" width="9.52731" height="9.52731" rx="1.02078"/>
</mask>
<rect x="22.2656" y="63.0651" width="9.52731" height="9.52731" rx="1.02078" stroke="black" stroke-width="3.28109" mask="url(#path-34-inside-4_1096_3626)"/>
<mask id="path-35-inside-5_1096_3626" fill="white">
<rect x="22.2656" y="76.6759" width="9.52731" height="9.52731" rx="1.02078"/>
</mask>
<rect x="22.2656" y="76.6759" width="9.52731" height="9.52731" rx="1.02078" stroke="black" stroke-width="3.28109" mask="url(#path-35-inside-5_1096_3626)"/>
<mask id="path-36-inside-6_1096_3626" fill="white">
<rect x="22.2656" y="89.6056" width="9.52731" height="9.52731" rx="1.02078"/>
</mask>
<rect x="22.2656" y="89.6056" width="9.52731" height="9.52731" rx="1.02078" stroke="black" stroke-width="3.28109" mask="url(#path-36-inside-6_1096_3626)"/>
<mask id="path-37-inside-7_1096_3626" fill="white">
<rect x="35.2031" y="63.0651" width="9.52731" height="9.52731" rx="1.02078"/>
</mask>
<rect x="35.2031" y="63.0651" width="9.52731" height="9.52731" rx="1.02078" stroke="black" stroke-width="3.28109" mask="url(#path-37-inside-7_1096_3626)"/>
<path d="M45.2356 85.1824V77.8668C45.2356 77.0501 44.4417 76.7326 44.0447 76.6758H36.2187C35.7083 76.5624 34.6875 76.6418 34.6875 77.8668V85.1824C34.6875 85.4659 34.8236 86.033 35.368 86.033H39.281" stroke="black" stroke-width="1.64055"/>
<path d="M231.5 137.601V134.979M231.5 149.563V152.513" stroke="black" stroke-width="1.81395" stroke-linecap="round"/>
<path d="M233.742 140.863C233.688 140.355 233.459 139.959 233.055 139.676C232.656 139.393 232.136 139.251 231.496 139.251C231.046 139.251 230.66 139.319 230.338 139.455C230.016 139.591 229.769 139.775 229.599 140.008C229.428 140.241 229.341 140.506 229.337 140.805C229.337 141.053 229.393 141.269 229.506 141.451C229.622 141.633 229.779 141.788 229.977 141.916C230.175 142.041 230.394 142.145 230.635 142.231C230.875 142.316 231.118 142.388 231.362 142.446L232.479 142.725C232.929 142.83 233.362 142.972 233.777 143.15C234.196 143.329 234.57 143.554 234.9 143.825C235.234 144.097 235.497 144.424 235.691 144.809C235.885 145.193 235.982 145.643 235.982 146.159C235.982 146.857 235.804 147.472 235.447 148.003C235.09 148.531 234.574 148.944 233.899 149.243C233.228 149.537 232.415 149.685 231.461 149.685C230.534 149.685 229.729 149.541 229.046 149.254C228.367 148.967 227.836 148.548 227.452 147.997C227.071 147.447 226.866 146.775 226.835 145.984H228.959C228.99 146.399 229.118 146.744 229.343 147.02C229.568 147.295 229.861 147.501 230.221 147.637C230.586 147.772 230.993 147.84 231.443 147.84C231.913 147.84 232.324 147.77 232.677 147.631C233.034 147.487 233.313 147.289 233.515 147.037C233.717 146.781 233.82 146.482 233.823 146.141C233.82 145.831 233.728 145.575 233.55 145.373C233.371 145.167 233.121 144.997 232.799 144.861C232.481 144.721 232.109 144.597 231.682 144.488L230.326 144.139C229.345 143.887 228.569 143.505 227.999 142.993C227.432 142.477 227.149 141.792 227.149 140.939C227.149 140.237 227.339 139.622 227.719 139.094C228.103 138.567 228.625 138.157 229.285 137.866C229.944 137.572 230.691 137.424 231.525 137.424C232.371 137.424 233.112 137.572 233.748 137.866C234.388 138.157 234.89 138.563 235.255 139.083C235.62 139.599 235.808 140.192 235.819 140.863H233.742Z" fill="black"/>
<circle cx="231.5" cy="143.5" r="18.593" stroke="black" stroke-width="1.81395"/>
<circle cx="231.502" cy="143.5" r="13.3493" stroke="black" stroke-width="1.81395"/>
<path d="M122.723 158.818V162.104C122.723 162.818 122.723 164.247 124.58 164.247H134.865M145.15 158.818V162.104C145.15 163.475 145.15 164.247 143.865 164.247H139.365M134.865 164.247V158.818M134.865 164.247H139.365M139.365 164.247V158.818" stroke="black" stroke-width="1.88248"/>
<path d="M147.57 131.106H151.999V151.248H147.57" stroke="black" stroke-width="1.88248"/>
<path d="M130.86 139.248H125.431C124.746 139.248 124.574 140.01 124.574 140.391V144.248M130.86 139.248V154.533M130.86 139.248H136.859M130.86 154.533H125.431C125.146 154.533 124.574 154.505 124.574 153.819V149.034M130.86 154.533H136.859M136.859 139.248H142.145C142.573 139.248 143.431 139.477 143.431 140.391V144.248M136.859 139.248V154.533M136.859 154.533H142.145C143.059 154.533 143.383 154.057 143.431 153.819V149.034M124.574 144.248H143.431M124.574 144.248V149.034M143.431 144.248V149.034M124.574 149.034H143.431" stroke="black" stroke-width="1.88248"/>
<path d="M145.289 123.249H122.004C120.29 123.249 119.957 124.773 120.004 125.535V156.248C120.004 158.19 121.338 158.771 122.004 158.819H145.289C147.117 158.819 147.575 157.105 147.575 156.248V125.535C147.575 123.592 146.051 123.201 145.289 123.249Z" stroke="black" stroke-width="1.88248"/>
<path d="M226.093 72.4072H225.07L227.368 66.0216H228.481L230.779 72.4072H229.756L227.951 67.1815H227.901L226.093 72.4072ZM226.264 69.9066H229.582V70.7173H226.264V69.9066ZM230.631 66.851V66.0216H235.573V66.851H233.581V72.4072H232.621V66.851H230.631ZM236.666 66.0216H237.835L239.868 70.9854H239.943L241.975 66.0216H243.145V72.4072H242.228V67.7864H242.169L240.286 72.3979H239.525L237.641 67.7833H237.582V72.4072H236.666V66.0216Z" fill="black"/>
<path d="M242.853 104.381C242.853 100.518 241.683 99.5522 241.097 99.5522H227.124C227.074 99.5522 227.024 99.5551 226.976 99.5689C226.372 99.742 225.293 100.897 225.293 104.381" stroke="black" stroke-width="1.81812"/>
<path d="M225.586 95.6013H232.171M235.537 95.6013H242.561M242.561 79.6816V90.4485C242.561 90.9505 242.154 91.3575 241.652 91.3575H226.495C225.993 91.3575 225.586 90.9505 225.586 90.4485V79.6816C225.586 79.1796 225.993 78.7726 226.495 78.7726H241.652C242.154 78.7726 242.561 79.1796 242.561 79.6816Z" stroke="black" stroke-width="1.81812" stroke-linecap="round" stroke-linejoin="round"/>
<path d="M219 74.0898V103.472C219 103.974 219.407 104.381 219.909 104.381H248.09C248.592 104.381 248.999 103.974 248.999 103.472V74.0898M219 74.0898V63.2919C219 62.7898 219.407 62.3828 219.909 62.3828H248.09C248.592 62.3828 248.999 62.7898 248.999 63.2919V74.0898M219 74.0898H248.999" stroke="black" stroke-width="1.81812"/>
<circle cx="222.225" cy="79.89" r="0.646972" fill="black"/>
<circle cx="245.776" cy="79.89" r="0.646972" fill="black"/>
<circle cx="222.225" cy="85.0669" r="0.646972" fill="black"/>
<circle cx="245.776" cy="85.0669" r="0.646972" fill="black"/>
<circle cx="222.225" cy="90.241" r="0.646972" fill="black"/>
<circle cx="245.776" cy="90.241" r="0.646972" fill="black"/>
</svg>
