<?xml version="1.0" standalone="no"?>
<svg id="pen" width="46" height="44" viewBox="0 0 46 44" fill="none" xmlns="http://www.w3.org/2000/svg" style="max-width: 100%; max-height: 100%;">
<path d="M28.3444 26.1385L16.2851 37.8634C16.1327 38.0115 15.9365 38.1062 15.7258 38.1333L9.41186 38.9449C9.30311 38.9588 9.19747 38.9909 9.09932 39.0398L3.58173 41.7875C3.19181 41.9817 2.72057 41.8957 2.42426 41.5765L1.81186 40.9166C1.50844 40.5896 1.46351 40.0992 1.70249 39.7226L5.37865 33.9286C5.45407 33.8097 5.50304 33.676 5.52226 33.5366L6.21894 28.4825C6.24989 28.2579 6.35758 28.051 6.52373 27.8968L19.1242 16.2032M24.9474 11.343L35.2331 1.79764C35.3852 1.65647 35.5774 1.56571 35.7841 1.54768C39.3903 1.23325 45.6041 2.62571 44.2044 10.6114C44.1686 10.8158 44.063 11.0073 43.9109 11.1485L33.6252 20.6938" stroke="black" stroke-width="1.5" stroke-linecap="round" stroke-linejoin="round" stroke-dasharray="0,0,0,108.15426635742188"><animate attributeType="XML" attributeName="stroke-dasharray" repeatCount="1" dur="2.5s" values="0,0,0,108.15426635742188; 
          0,54.07713317871094,54.07713317871094,0; 
          108.15426635742188,0,0,0" keyTimes="0; 0.5; 1" fill="freeze"></animate></path>
<path d="M29.0809 26.9332L18.2633 15.2766C17.8397 14.8201 17.8663 14.1067 18.3228 13.6831L21.9296 10.3358C22.3861 9.91223 23.0995 9.93887 23.5231 10.3953L34.3407 22.0519C34.7643 22.5083 34.7377 23.2218 34.2812 23.6454L30.6744 26.9926C30.2179 27.4163 29.5045 27.3896 29.0809 26.9332Z" stroke="black" stroke-width="1.5" stroke-dasharray="0,0,0,48.73251724243164"><animate attributeType="XML" attributeName="stroke-dasharray" repeatCount="1" dur="2.5s" values="0,0,0,48.73251724243164; 
          0,24.36625862121582,24.36625862121582,0; 
          48.73251724243164,0,0,0" keyTimes="0; 0.5; 1" fill="freeze"></animate></path>
<path d="M15.9484 25.676L11.0979 30.1774C10.4616 30.7679 10.0859 31.587 10.0536 32.4544L9.95692 35.0434" stroke="black" stroke-width="1.5" stroke-linecap="round" stroke-dasharray="0,0,0,11.778840065002441"><animate attributeType="XML" attributeName="stroke-dasharray" repeatCount="1" dur="2.5s" values="0,0,0,11.778840065002441; 
          0,5.889420032501221,5.889420032501221,0; 
          11.778840065002441,0,0,0" keyTimes="0; 0.5; 1" fill="freeze"></animate></path>
</svg>