<svg width="260" height="178" viewBox="0 0 260 178" fill="none" xmlns="http://www.w3.org/2000/svg">
<rect width="260" height="178" fill="white"/>
<path d="M224.603 150.065C225.173 148.867 224.365 148.211 223.89 148.033C223.985 146.323 223.612 145.467 223.414 145.254C222.083 143.543 219.612 143.401 218.542 143.543C215.405 143.971 214.938 146.643 215.097 147.926C214.336 148.268 214.225 149.067 214.265 149.423C214.455 150.278 215.136 150.563 215.453 150.599C216.974 153.849 218.859 154.448 219.612 154.341C221.893 153.913 223.097 151.811 223.414 150.813C223.89 150.727 224.399 150.492 224.603 150.065Z" stroke="black" stroke-width="0.63042"/>
<path d="M234.85 147.426C235.378 146.314 234.63 145.705 234.189 145.539C234.277 143.951 233.932 143.157 233.749 142.958C232.516 141.37 230.226 141.238 229.235 141.37C226.329 141.767 225.896 144.249 226.043 145.44C225.338 145.758 225.235 146.499 225.272 146.83C225.448 147.624 226.079 147.889 226.373 147.922C227.782 150.94 229.529 151.496 230.226 151.396C232.34 150.999 233.455 149.047 233.749 148.12C234.189 148.041 234.661 147.823 234.85 147.426Z" stroke="black" stroke-width="0.63042"/>
<path d="M204.146 147.426C203.618 146.314 204.367 145.705 204.807 145.539C204.719 143.951 205.064 143.157 205.247 142.958C206.48 141.37 208.77 141.238 209.761 141.37C212.667 141.767 213.1 144.249 212.953 145.44C213.658 145.758 213.761 146.499 213.724 146.83C213.548 147.624 212.917 147.889 212.623 147.922C211.214 150.94 209.467 151.496 208.77 151.396C206.656 150.999 205.541 149.047 205.247 148.12C204.807 148.041 204.335 147.823 204.146 147.426Z" stroke="black" stroke-width="0.63042"/>
<path d="M219.452 155.133C224.201 155.133 228.051 158.982 228.051 163.73V166.283H210.854V163.73C210.855 158.982 214.704 155.133 219.452 155.133Z" stroke="black" stroke-width="0.63042"/>
<path d="M214.957 161.018V166.288" stroke="black" stroke-width="0.63042" stroke-linecap="round"/>
<path d="M223.869 161.018V166.288" stroke="black" stroke-width="0.63042" stroke-linecap="round"/>
<path d="M228.443 163.886L238.674 163.886C241.077 154.43 229.528 148.307 223.25 155.98" stroke="black" stroke-width="0.63042"/>
<path d="M210.553 163.886L200.322 163.886C197.92 154.43 209.468 148.307 215.746 155.98" stroke="black" stroke-width="0.63042"/>
<path d="M234.643 159.003V163.808" stroke="black" stroke-width="0.63042" stroke-linecap="round"/>
<path d="M204.352 159.003V163.808" stroke="black" stroke-width="0.63042" stroke-linecap="round"/>
<path d="M213.871 141.874C215.731 140.375 220.537 138.277 224.877 141.874" stroke="black" stroke-width="0.63042" stroke-linecap="round"/>
<rect x="215.194" y="128.315" width="8.36035" height="9.75547" rx="4.18018" stroke="black" stroke-width="0.63042"/>
<path d="M23.8711 149.517V145.856C23.8711 145.71 23.9896 145.592 24.1359 145.592H47.357C47.5033 145.592 47.6218 145.71 47.6218 145.856V149.517" stroke="black" stroke-width="0.79432" stroke-linecap="round"/>
<path d="M35.6465 140.881V145.297" stroke="black" stroke-width="0.79432" stroke-linecap="round"/>
<path d="M29.5625 139.703V135.157C29.5625 133.548 30.8665 132.244 32.475 132.244H39.3105C40.919 132.244 42.223 133.548 42.223 135.157V139.703" stroke="black" stroke-width="0.79432" stroke-linecap="round"/>
<path d="M39.377 136.955V139.801" stroke="black" stroke-width="0.79432" stroke-linecap="round"/>
<path d="M32.3105 136.955V139.801" stroke="black" stroke-width="0.79432" stroke-linecap="round"/>
<circle cx="36.039" cy="127.533" r="3.136" stroke="black" stroke-width="0.79432"/>
<path d="M17 166.398V161.852C17 160.243 18.304 158.939 19.9125 158.939H26.748C28.3565 158.939 29.6605 160.243 29.6605 161.852V166.398" stroke="black" stroke-width="0.79432" stroke-linecap="round"/>
<path d="M26.8145 163.65V166.496" stroke="black" stroke-width="0.79432" stroke-linecap="round"/>
<path d="M19.748 163.65V166.496" stroke="black" stroke-width="0.79432" stroke-linecap="round"/>
<circle cx="23.4765" cy="154.228" r="3.136" stroke="black" stroke-width="0.79432"/>
<path d="M41.3398 166.398V161.852C41.3398 160.243 42.6438 158.939 44.2523 158.939H51.0878C52.6964 158.939 54.0003 160.243 54.0003 161.852V166.398" stroke="black" stroke-width="0.79432" stroke-linecap="round"/>
<path d="M51.1543 163.65V166.496" stroke="black" stroke-width="0.79432" stroke-linecap="round"/>
<path d="M44.0879 163.65V166.496" stroke="black" stroke-width="0.79432" stroke-linecap="round"/>
<circle cx="47.8164" cy="154.228" r="3.136" stroke="black" stroke-width="0.79432"/>
<path d="M209.586 83.9776C209.661 84.3304 209.966 84.9349 210.637 85.4584C211.611 86.2174 212.562 87.1568 213.023 88.3019C213.698 89.9789 215.105 91.8667 217.707 92.4297C219.006 92.6796 221.757 92.0331 223.347 87.8776C223.712 86.9234 224.509 86.1838 225.298 85.535C225.756 85.159 226.157 84.6452 226.3 83.9776" stroke="black" stroke-width="0.849882" stroke-linecap="round"/>
<path d="M228 87.0939C228.033 87.2575 228.13 87.495 228.315 87.7446C229.045 88.7312 230.066 89.6605 230.605 90.7634C231.134 91.8473 232.077 92.9344 233.643 93.2921C234.503 93.4667 236.28 93.0445 237.401 90.3681C237.795 89.4268 238.635 88.694 239.253 87.8818C239.421 87.6612 239.553 87.3995 239.615 87.0939" stroke="black" stroke-width="0.849882" stroke-linecap="round"/>
<path d="M208.17 87.0939C208.137 87.2575 208.04 87.495 207.855 87.7446C207.125 88.7312 206.104 89.6605 205.565 90.7634C205.036 91.8473 204.093 92.9344 202.526 93.2921C201.667 93.4667 199.89 93.0445 198.769 90.3681C198.375 89.4268 197.535 88.694 196.917 87.8818C196.749 87.6612 196.617 87.3995 196.555 87.0939" stroke="black" stroke-width="0.849882" stroke-linecap="round"/>
<path d="M214.792 73.2779C210.006 74.2141 210.301 78.8471 211.378 82.0826C211.479 82.3874 212.009 82.2794 212.059 81.9622C212.403 79.7814 213.782 77.9417 214.685 77.0635C214.784 76.9672 214.939 76.965 215.05 77.0472C217.738 79.0402 220.381 78.0682 221.784 77.5021C221.829 77.4842 221.877 77.4779 221.925 77.4853C223.75 77.772 224.159 80.304 224.219 82.3106C224.228 82.6187 224.642 82.6986 224.747 82.4088C227.995 73.4563 219.178 70.0926 214.913 73.2253C214.877 73.2512 214.835 73.2695 214.792 73.2779Z" stroke="black" stroke-width="0.849882" stroke-linecap="round"/>
<path d="M231.648 79.9841C228.599 80.5842 228.549 83.3332 229.148 85.4877C229.234 85.7965 229.804 85.7013 229.889 85.3923C230.225 84.1717 230.993 83.158 231.543 82.6154C231.64 82.5193 231.792 82.5165 231.903 82.5956C233.732 83.8927 235.522 83.2567 236.488 82.8731C236.532 82.8556 236.58 82.8491 236.627 82.857C237.747 83.0475 238.086 84.4545 238.173 85.7267C238.194 86.0335 238.601 86.1148 238.695 85.8217C240.54 80.0149 234.662 77.8596 231.767 79.9325C231.732 79.9578 231.69 79.9757 231.648 79.9841Z" stroke="black" stroke-width="0.849882" stroke-linecap="round"/>
<path d="M204.52 79.9841C207.569 80.5842 207.619 83.3332 207.02 85.4877C206.934 85.7965 206.364 85.7013 206.279 85.3923C205.943 84.1717 205.175 83.158 204.625 82.6154C204.528 82.5193 204.376 82.5165 204.265 82.5956C202.436 83.8927 200.646 83.2567 199.68 82.8731C199.636 82.8556 199.588 82.8491 199.541 82.857C198.421 83.0475 198.082 84.4545 197.995 85.7267C197.974 86.0335 197.567 86.1148 197.473 85.8217C195.628 80.0149 201.506 77.8596 204.401 79.9325C204.436 79.9578 204.478 79.9757 204.52 79.9841Z" stroke="black" stroke-width="0.849882" stroke-linecap="round"/>
<path d="M205.457 96.7785L211.322 93.4493C211.446 93.379 211.607 93.4165 211.694 93.5293C217.321 100.824 222.304 96.7518 224.256 93.5712C224.338 93.437 224.512 93.3913 224.648 93.4709L230.311 96.7889C230.338 96.8051 230.363 96.8264 230.384 96.8509C233.645 100.737 233.313 104.87 232.703 106.583C232.674 106.664 232.608 106.724 232.526 106.749C221.511 110.134 208.815 108.181 203.696 106.744C203.615 106.722 203.552 106.665 203.52 106.587C202.177 103.311 204.154 98.7988 205.359 96.8718C205.384 96.8324 205.417 96.8014 205.457 96.7785Z" stroke="black" stroke-width="0.849882" stroke-linecap="round"/>
<path d="M229.701 92.7597C231.069 94.6337 234.615 97.2476 237.978 92.9333C238.056 92.8333 238.191 92.7905 238.309 92.8372C238.829 93.043 239.488 93.3285 240.15 93.6569C242.416 94.7804 243.936 96.9905 244.642 99.4193C244.93 100.411 245.088 101.434 244.946 102.3C244.929 102.405 244.85 102.488 244.746 102.512C243.371 102.83 239.422 103.361 233.197 103.218" stroke="black" stroke-width="0.849882" stroke-linecap="round"/>
<path d="M206.469 92.7597C205.075 94.6343 201.461 97.2492 198.035 92.9295C197.958 92.8314 197.824 92.7894 197.707 92.8348C197.178 93.0404 196.506 93.3262 195.83 93.6551C193.527 94.7756 191.961 96.9965 191.241 99.4546C190.954 100.435 190.798 101.444 190.942 102.3C190.959 102.405 191.038 102.487 191.142 102.511C192.54 102.829 196.563 103.361 202.908 103.218" stroke="black" stroke-width="0.849882" stroke-linecap="round"/>
<circle cx="37.62" cy="75.2762" r="3.91989" stroke="black" stroke-width="0.712706"/>
<path d="M33.3438 85.4917V109.249" stroke="black" stroke-width="0.712706" stroke-linecap="round"/>
<path d="M41.7773 85.4917V109.249" stroke="black" stroke-width="0.712706" stroke-linecap="round"/>
<path d="M37.5 95.826V109.249" stroke="black" stroke-width="0.712706" stroke-linecap="round"/>
<path d="M41.776 94.6381H42.4887C43.8008 94.6381 44.8644 93.5745 44.8644 92.2624V81.8094C44.8644 80.4973 43.8008 79.4337 42.4887 79.4337H32.6296C31.3175 79.4337 30.2539 80.4973 30.2539 81.8094V92.2624C30.2539 93.5745 31.3175 94.6381 32.6296 94.6381H33.2235" stroke="black" stroke-width="0.712706" stroke-linecap="round"/>
<path d="M28.2348 81.9282H18.3757C17.0636 81.9282 16 82.9918 16 84.3039V93.0939C16 94.406 17.0636 95.4696 18.3757 95.4696H18.732" stroke="black" stroke-width="0.712706" stroke-linecap="round"/>
<path d="M46.7652 81.9282H56.6243C57.9364 81.9282 59 82.9918 59 84.3039V93.0939C59 94.406 57.9364 95.4696 56.6243 95.4696H56.268" stroke="black" stroke-width="0.712706" stroke-linecap="round"/>
<path d="M19.207 86.7983V108.773" stroke="black" stroke-width="0.712706" stroke-linecap="round"/>
<path d="M55.793 86.7983V108.773" stroke="black" stroke-width="0.712706" stroke-linecap="round"/>
<path d="M26.6914 86.6796V108.655" stroke="black" stroke-width="0.712706" stroke-linecap="round"/>
<path d="M48.3086 86.6796V108.655" stroke="black" stroke-width="0.712706" stroke-linecap="round"/>
<path d="M23.0078 96.3011V108.773" stroke="black" stroke-width="0.712706" stroke-linecap="round"/>
<path d="M51.9922 96.3011V108.773" stroke="black" stroke-width="0.712706" stroke-linecap="round"/>
<path d="M26.9277 95.232C27.4821 95.2716 28.7333 95.2083 29.3034 94.6381" stroke="black" stroke-width="0.712706" stroke-linecap="round"/>
<path d="M48.0723 95.232C47.5179 95.2716 46.2667 95.2083 45.6966 94.6381" stroke="black" stroke-width="0.712706" stroke-linecap="round"/>
<circle cx="22.8897" cy="78.1271" r="3.20718" stroke="black" stroke-width="0.712706"/>
<circle cx="3.56354" cy="3.56354" r="3.20718" transform="matrix(-1 0 0 1 55.6738 74.5635)" stroke="black" stroke-width="0.712706"/>
<path d="M221.659 27.7256C224.938 27.7256 227.592 30.3487 227.592 33.5791C227.592 36.8096 224.938 39.4326 221.659 39.4326C218.381 39.4324 215.727 36.8095 215.727 33.5791C215.727 30.3488 218.381 27.7258 221.659 27.7256Z" stroke="black" stroke-width="0.35246"/>
<path d="M237.845 28.8363C240.598 28.8365 242.825 31.0336 242.825 33.7377C242.825 36.4419 240.598 38.6388 237.845 38.639C235.091 38.639 232.863 36.442 232.863 33.7377C232.863 31.0335 235.092 28.8363 237.845 28.8363Z" stroke="black" stroke-width="0.35246"/>
<path d="M233.083 40.102C235.836 40.1022 238.063 42.2993 238.063 45.0033C238.063 47.7075 235.836 49.9045 233.083 49.9047C230.33 49.9047 228.102 47.7077 228.102 45.0033C228.102 42.2992 230.33 40.102 233.083 40.102Z" stroke="black" stroke-width="0.35246"/>
<path d="M232.925 17.2533C235.678 17.2535 237.905 19.4506 237.905 22.1546C237.905 24.8588 235.678 27.0558 232.925 27.056C230.172 27.056 227.943 24.859 227.943 22.1546C227.944 19.4505 230.172 17.2533 232.925 17.2533Z" stroke="black" stroke-width="0.35246"/>
<path d="M221.659 12.1758C224.412 12.176 226.639 14.3731 226.64 17.0771C226.64 19.7813 224.412 21.9783 221.659 21.9785C218.906 21.9785 216.678 19.7815 216.678 17.0771C216.678 14.373 218.906 12.1758 221.659 12.1758Z" stroke="black" stroke-width="0.35246"/>
<path d="M221.659 45.0208C224.412 45.021 226.639 47.2181 226.64 49.9222C226.64 52.6263 224.412 54.8233 221.659 54.8235C218.906 54.8235 216.678 52.6265 216.678 49.9222C216.678 47.218 218.906 45.0208 221.659 45.0208Z" stroke="black" stroke-width="0.35246"/>
<path d="M210.077 39.9433C212.83 39.9435 215.057 42.1406 215.058 44.8447C215.058 47.5489 212.83 49.7458 210.077 49.746C207.324 49.746 205.096 47.549 205.096 44.8447C205.096 42.1405 207.324 39.9433 210.077 39.9433Z" stroke="black" stroke-width="0.35246"/>
<path d="M205.157 28.8363C207.91 28.8365 210.138 31.0336 210.138 33.7377C210.138 36.4419 207.91 38.6388 205.157 38.639C202.404 38.639 200.176 36.442 200.176 33.7377C200.176 31.0335 202.404 28.8363 205.157 28.8363Z" stroke="black" stroke-width="0.35246"/>
<path d="M210.077 17.0946C212.83 17.0948 215.057 19.2919 215.058 21.996C215.058 24.7002 212.83 26.8971 210.077 26.8973C207.324 26.8973 205.096 24.7003 205.096 21.996C205.096 19.2918 207.324 17.0946 210.077 17.0946Z" stroke="black" stroke-width="0.35246"/>
<path d="M223.094 33.4505C224.665 33.579 225.387 34.7359 225.387 35.5514V36.612C225.387 36.6959 225.342 36.7741 225.269 36.8149C222.196 38.5265 219.243 37.5719 218.034 36.8154C217.968 36.7739 217.93 36.7006 217.93 36.6224V35.3605C217.93 35.3471 217.931 35.3334 217.933 35.3202C218.202 33.8298 219.574 33.5092 220.352 33.4505C220.459 33.4424 220.554 33.5122 220.584 33.6147L220.899 34.6775C220.963 34.8926 221.263 34.9045 221.344 34.6951L221.412 34.5177C221.435 34.4589 221.433 34.3934 221.407 34.3361L221.247 33.984C221.176 33.8284 221.29 33.6518 221.461 33.6518H221.857C222.027 33.6518 222.141 33.8284 222.07 33.984L221.91 34.3361C221.884 34.3934 221.882 34.4589 221.905 34.5177L221.998 34.7594C222.076 34.9615 222.362 34.9598 222.438 34.7566L222.866 33.5996C222.901 33.5048 222.993 33.4422 223.094 33.4505Z" stroke="black" stroke-width="0.35246"/>
<circle cx="221.659" cy="31.2597" r="1.72339" stroke="black" stroke-width="0.35246"/>
<path d="M239.079 33.6318C240.384 33.751 240.983 34.7166 240.983 35.3987V36.2704C240.983 36.3543 240.938 36.4325 240.865 36.4731C238.298 37.8924 235.833 37.1073 234.808 36.4735C234.741 36.4324 234.703 36.359 234.703 36.2809V35.2411C234.703 35.2277 234.704 35.214 234.707 35.2008C234.931 33.9666 236.055 33.687 236.714 33.6318C236.821 33.6229 236.916 33.6928 236.947 33.7952L237.173 34.5581C237.237 34.7733 237.537 34.7851 237.617 34.5757L237.63 34.5427C237.653 34.4839 237.651 34.4185 237.625 34.3611L237.52 34.1312C237.45 33.9757 237.563 33.799 237.734 33.799H237.952C238.123 33.799 238.237 33.9757 238.166 34.1312L238.062 34.3611C238.036 34.4185 238.034 34.4839 238.056 34.5427L238.094 34.64C238.172 34.8422 238.458 34.8404 238.533 34.6372L238.851 33.7802C238.886 33.6853 238.978 33.6226 239.079 33.6318Z" stroke="black" stroke-width="0.35246"/>
<circle cx="237.844" cy="31.7846" r="1.42345" stroke="black" stroke-width="0.35246"/>
<path d="M234.319 44.8975C235.624 45.0167 236.224 45.9823 236.224 46.6644V47.5361C236.224 47.62 236.178 47.6982 236.105 47.7388C233.538 49.1581 231.074 48.373 230.048 47.7392C229.982 47.6981 229.943 47.6247 229.943 47.5466V46.5068C229.943 46.4934 229.945 46.4797 229.947 46.4665C230.171 45.2323 231.295 44.9526 231.955 44.8975C232.061 44.8886 232.157 44.9584 232.187 45.0609L232.413 45.8238C232.477 46.0389 232.777 46.0508 232.858 45.8414L232.87 45.8084C232.893 45.7496 232.891 45.6841 232.865 45.6268L232.76 45.3969C232.69 45.2413 232.804 45.0647 232.974 45.0647H233.193C233.363 45.0647 233.477 45.2413 233.406 45.3969L233.302 45.6268C233.276 45.6841 233.274 45.7496 233.297 45.8084L233.334 45.9057C233.412 46.1078 233.698 46.106 233.774 45.9029L234.091 45.0458C234.126 44.951 234.219 44.8883 234.319 44.8975Z" stroke="black" stroke-width="0.35246"/>
<circle cx="233.084" cy="43.0503" r="1.42345" stroke="black" stroke-width="0.35246"/>
<path d="M222.896 16.9713C224.2 17.0905 224.8 18.0561 224.8 18.7382V19.6099C224.8 19.6938 224.754 19.772 224.681 19.8126C222.114 21.2319 219.65 20.4468 218.624 19.813C218.558 19.7719 218.52 19.6985 218.52 19.6203V18.5806C218.52 18.5672 218.521 18.5535 218.523 18.5403C218.747 17.3061 219.871 17.0264 220.531 16.9713C220.637 16.9624 220.733 17.0322 220.763 17.1347L220.989 17.8976C221.053 18.1127 221.353 18.1246 221.434 17.9151L221.447 17.8822C221.469 17.8233 221.467 17.7579 221.441 17.7006L221.337 17.4707C221.266 17.3151 221.38 17.1385 221.551 17.1385H221.769C221.94 17.1385 222.053 17.3151 221.983 17.4707L221.878 17.7006C221.852 17.7579 221.85 17.8233 221.873 17.8822L221.91 17.9795C221.988 18.1816 222.275 18.1798 222.35 17.9767L222.667 17.1196C222.702 17.0248 222.795 16.9621 222.896 16.9713Z" stroke="black" stroke-width="0.35246"/>
<circle cx="221.658" cy="15.1241" r="1.42345" stroke="black" stroke-width="0.35246"/>
<path d="M234.159 22.0488C235.464 22.168 236.063 23.1336 236.063 23.8157V24.6874C236.063 24.7713 236.018 24.8495 235.945 24.8901C233.378 26.3094 230.914 25.5243 229.888 24.8905C229.822 24.8494 229.783 24.776 229.783 24.6979V23.6581C229.783 23.6447 229.784 23.631 229.787 23.6178C230.011 22.3836 231.135 22.1039 231.794 22.0488C231.901 22.0399 231.997 22.1098 232.027 22.2122L232.253 22.9751C232.317 23.1902 232.617 23.2021 232.698 22.9927L232.71 22.9597C232.733 22.9009 232.731 22.8354 232.705 22.7781L232.6 22.5482C232.53 22.3927 232.643 22.216 232.814 22.216H233.032C233.203 22.216 233.317 22.3927 233.246 22.5482L233.142 22.7781C233.116 22.8354 233.114 22.9009 233.136 22.9597L233.174 23.057C233.252 23.2591 233.538 23.2574 233.613 23.0542L233.931 22.1972C233.966 22.1023 234.059 22.0396 234.159 22.0488Z" stroke="black" stroke-width="0.35246"/>
<circle cx="232.924" cy="20.2016" r="1.42345" stroke="black" stroke-width="0.35246"/>
<path d="M222.896 49.8163C224.2 49.9355 224.8 50.9011 224.8 51.5832V52.4549C224.8 52.5388 224.754 52.617 224.681 52.6576C222.114 54.0769 219.65 53.2918 218.624 52.658C218.558 52.6169 218.52 52.5436 218.52 52.4654V51.4256C218.52 51.4122 218.521 51.3985 218.523 51.3853C218.747 50.1511 219.871 49.8715 220.531 49.8163C220.637 49.8074 220.733 49.8773 220.763 49.9797L220.989 50.7426C221.053 50.9578 221.353 50.9696 221.434 50.7602L221.447 50.7272C221.469 50.6684 221.467 50.603 221.441 50.5456L221.337 50.3157C221.266 50.1602 221.38 49.9835 221.551 49.9835H221.769C221.94 49.9835 222.053 50.1602 221.983 50.3157L221.878 50.5456C221.852 50.603 221.85 50.6684 221.873 50.7272L221.91 50.8245C221.988 51.0267 222.275 51.0249 222.35 50.8217L222.667 49.9647C222.702 49.8698 222.795 49.8071 222.896 49.8163Z" stroke="black" stroke-width="0.35246"/>
<circle cx="221.658" cy="47.9691" r="1.42345" stroke="black" stroke-width="0.35246"/>
<path d="M211.312 44.7388C212.616 44.858 213.216 45.8236 213.216 46.5057V47.3775C213.216 47.4613 213.17 47.5395 213.097 47.5801C210.53 48.9994 208.066 48.2143 207.04 47.5805C206.974 47.5394 206.936 47.4661 206.936 47.3879V46.3481C206.936 46.3347 206.937 46.321 206.939 46.3078C207.163 45.0736 208.287 44.794 208.947 44.7388C209.053 44.7299 209.149 44.7998 209.179 44.9023L209.405 45.6651C209.469 45.8803 209.769 45.8922 209.85 45.6827L209.863 45.6497C209.885 45.5909 209.883 45.5255 209.857 45.4681L209.753 45.2383C209.682 45.0827 209.796 44.9061 209.967 44.9061H210.185C210.356 44.9061 210.469 45.0827 210.399 45.2383L210.294 45.4681C210.268 45.5255 210.266 45.5909 210.289 45.6497L210.326 45.747C210.404 45.9492 210.691 45.9474 210.766 45.7443L211.083 44.8872C211.118 44.7923 211.211 44.7296 211.312 44.7388Z" stroke="black" stroke-width="0.35246"/>
<circle cx="210.076" cy="42.8916" r="1.42345" stroke="black" stroke-width="0.35246"/>
<path d="M206.394 33.6318C207.698 33.751 208.298 34.7166 208.298 35.3987V36.2704C208.298 36.3543 208.252 36.4325 208.179 36.4731C205.612 37.8924 203.148 37.1073 202.122 36.4735C202.056 36.4324 202.018 36.359 202.018 36.2809V35.2411C202.018 35.2277 202.019 35.214 202.021 35.2008C202.246 33.9666 203.369 33.687 204.029 33.6318C204.135 33.6229 204.231 33.6928 204.261 33.7952L204.487 34.5581C204.551 34.7733 204.851 34.7851 204.932 34.5757L204.945 34.5427C204.967 34.4839 204.965 34.4185 204.939 34.3611L204.835 34.1312C204.764 33.9757 204.878 33.799 205.049 33.799H205.267C205.438 33.799 205.551 33.9757 205.481 34.1312L205.376 34.3611C205.35 34.4185 205.348 34.4839 205.371 34.5427L205.408 34.64C205.486 34.8422 205.773 34.8404 205.848 34.6372L206.165 33.7802C206.2 33.6853 206.293 33.6226 206.394 33.6318Z" stroke="black" stroke-width="0.35246"/>
<circle cx="205.156" cy="31.7846" r="1.42345" stroke="black" stroke-width="0.35246"/>
<path d="M211.312 21.8901C212.616 22.0093 213.216 22.9749 213.216 23.657V24.5287C213.216 24.6126 213.17 24.6908 213.097 24.7314C210.53 26.1507 208.066 25.3656 207.04 24.7318C206.974 24.6907 206.936 24.6173 206.936 24.5392V23.4994C206.936 23.486 206.937 23.4723 206.939 23.4591C207.163 22.2249 208.287 21.9453 208.947 21.8901C209.053 21.8812 209.149 21.9511 209.179 22.0535L209.405 22.8164C209.469 23.0316 209.769 23.0434 209.85 22.834L209.863 22.801C209.885 22.7422 209.883 22.6768 209.857 22.6194L209.753 22.3895C209.682 22.234 209.796 22.0573 209.967 22.0573H210.185C210.356 22.0573 210.469 22.234 210.399 22.3895L210.294 22.6194C210.268 22.6768 210.266 22.7422 210.289 22.801L210.326 22.8983C210.404 23.1005 210.691 23.0987 210.766 22.8955L211.083 22.0385C211.118 21.9436 211.211 21.8809 211.312 21.8901Z" stroke="black" stroke-width="0.35246"/>
<circle cx="210.076" cy="20.0429" r="1.42345" stroke="black" stroke-width="0.35246"/>
<path d="M221.58 22.2343V27.4705" stroke="black" stroke-width="0.35246" stroke-linecap="round"/>
<path d="M221.58 39.6088V44.845" stroke="black" stroke-width="0.35246" stroke-linecap="round"/>
<path d="M232.846 33.5793H227.61" stroke="black" stroke-width="0.35246" stroke-linecap="round"/>
<path d="M215.471 33.5793H210.235" stroke="black" stroke-width="0.35246" stroke-linecap="round"/>
<path d="M229.514 41.5129L225.92 37.942" stroke="black" stroke-width="0.35246" stroke-linecap="round"/>
<path d="M217.234 29.4623L213.488 25.8044" stroke="black" stroke-width="0.35246" stroke-linecap="round"/>
<path d="M229.275 25.5664L225.626 29.1365" stroke="black" stroke-width="0.35246" stroke-linecap="round"/>
<path d="M217.076 37.4629L213.329 41.1198" stroke="black" stroke-width="0.35246" stroke-linecap="round"/>
<path d="M118.609 41.4143C118.441 39.2985 119.012 35.0306 123.848 34.8694C128.684 34.7082 129.624 39.1681 129.389 41.4182" stroke="black" stroke-width="0.743015" stroke-linecap="round"/>
<circle cx="124.151" cy="31.1376" r="3.25556" stroke="black" stroke-width="0.743015"/>
<circle cx="133.018" cy="26.906" r="3.25556" stroke="black" stroke-width="0.743015"/>
<circle cx="3.62707" cy="3.62707" r="3.25556" transform="matrix(-1 0 0 1 118.912 23.2789)" stroke="black" stroke-width="0.743015"/>
<circle cx="3.62707" cy="3.62707" r="3.25556" transform="matrix(-1 0 0 1 127.576 13.6067)" stroke="black" stroke-width="0.743015"/>
<path d="M128.08 33.4549C129.121 31.6413 132.292 28.8001 136.644 31.9436" stroke="black" stroke-width="0.743015" stroke-linecap="round"/>
<path d="M120.221 33.4549C119.18 31.6413 116.009 28.8001 111.657 31.9436" stroke="black" stroke-width="0.743015" stroke-linecap="round"/>
<path d="M123.646 52.3962L127.987 45.2845C128.246 44.8605 128.607 44.5081 129.037 44.2596L132.213 42.4249C132.673 42.159 133.053 41.7746 133.315 41.3117L136.403 35.8358C136.933 34.8971 138.106 34.5386 139.07 35.0205V35.0205C140.106 35.5387 140.496 36.8197 139.924 37.8274L135.031 46.4519" stroke="black" stroke-width="0.743015" stroke-linecap="round"/>
<path d="M122.842 49.8774L120.012 45.2782C119.753 44.8582 119.394 44.5092 118.967 44.2625L115.787 42.4249C115.327 42.159 114.946 41.7746 114.685 41.3117L111.596 35.8358C111.067 34.8971 109.894 34.5386 108.93 35.0205V35.0205C107.894 35.5387 107.504 36.8197 108.075 37.8274L112.968 46.4519" stroke="black" stroke-width="0.743015" stroke-linecap="round"/>
<path d="M136.039 52.3962L143.154 45.1011C143.695 44.546 143.998 43.8013 143.998 43.026V26.4022C143.998 25.2337 143.051 24.2864 141.883 24.2864V24.2864C140.714 24.2864 139.767 25.2337 139.767 26.4022V32.5481" stroke="black" stroke-width="0.743015" stroke-linecap="round"/>
<path d="M111.959 52.3962L104.844 45.1011C104.303 44.546 104 43.8013 104 43.026V26.4022C104 25.2337 104.947 24.2864 106.115 24.2864V24.2864C107.284 24.2864 108.231 25.2337 108.231 26.4022V32.5481" stroke="black" stroke-width="0.743015" stroke-linecap="round"/>
<path d="M119.719 22.7752C121.062 21.3982 124.676 19.4705 128.383 22.7752" stroke="black" stroke-width="0.743015" stroke-linecap="round"/>
<circle cx="36.5" cy="33.5" r="19.1389" stroke="black" stroke-width="0.722222"/>
<path d="M32.6758 52.175V34.175C32.6758 32.1039 34.3547 30.425 36.4258 30.425V30.425C38.4968 30.425 40.1758 32.1039 40.1758 34.175V52.175" stroke="black" stroke-width="0.481481" stroke-linecap="round"/>
<circle cx="36.4262" cy="26.825" r="2.98426" stroke="black" stroke-width="0.481481"/>
<path d="M50.225 42.875V39.5375C50.225 37.1972 48.3278 35.3 45.9875 35.3V35.3C43.6472 35.3 41.75 37.1972 41.75 39.5375V49.175" stroke="black" stroke-width="0.481481" stroke-linecap="round"/>
<path d="M22.6988 43.025V39.6875C22.6988 37.3472 24.596 35.45 26.9363 35.45V35.45C29.2766 35.45 31.1738 37.3472 31.1738 39.6875V49.325" stroke="black" stroke-width="0.481481" stroke-linecap="round"/>
<circle cx="27.125" cy="32.375" r="2.38426" stroke="black" stroke-width="0.481481"/>
<circle cx="45.877" cy="32.375" r="2.38426" stroke="black" stroke-width="0.481481"/>
<path d="M36.4248 16.7C45.9102 16.7 53.5995 24.2215 53.5996 33.4998C53.5996 41.5295 47.8407 48.2414 40.1426 49.9031C40.1424 49.899 40.1437 49.8946 40.1436 49.8904L40.125 49.4549C40.121 49.3601 40.1093 49.2671 40.0947 49.1756C47.4238 47.5448 52.8779 41.1353 52.8779 33.4998C52.8778 24.6353 45.5265 17.4227 36.4248 17.4227C27.3234 17.4229 19.9728 24.6355 19.9727 33.4998C19.9727 41.1442 25.4395 47.5598 32.7812 49.1814C32.762 49.304 32.75 49.4294 32.75 49.5574V49.9119C25.0308 48.2656 19.25 41.5441 19.25 33.4998C19.2501 24.2217 26.9396 16.7003 36.4248 16.7Z" fill="black"/>
<path d="M125.753 110.257L124.403 100.999C124.366 100.746 123.997 100.753 123.971 101.008L123.008 110.248C122.997 110.359 122.903 110.443 122.792 110.443H121.104C120.987 110.443 120.89 110.351 120.886 110.234L120.43 97.9352C120.429 97.8973 120.418 97.8605 120.398 97.8283L118.367 94.556C118.345 94.5215 118.334 94.4817 118.334 94.441V87.8897C118.334 87.8773 118.335 87.8646 118.337 87.8524C118.791 85.2884 121.211 84.8082 122.472 84.737C122.571 84.7314 122.659 84.7959 122.687 84.8909L123.388 87.2563C123.447 87.4559 123.725 87.4669 123.8 87.2726L124.119 86.4438C124.14 86.3892 124.138 86.3286 124.114 86.2754L123.71 85.3867C123.644 85.2424 123.75 85.0786 123.908 85.0786H125.093C125.252 85.0786 125.357 85.2424 125.291 85.3867L124.888 86.2754C124.863 86.3286 124.862 86.3892 124.883 86.4438L125.224 87.3323C125.296 87.5198 125.562 87.5181 125.632 87.3297L126.54 84.8769C126.573 84.7889 126.659 84.7313 126.753 84.737C129.436 84.8987 130.667 86.8505 130.667 88.2201V94.4353C130.667 94.4795 130.654 94.5227 130.629 94.559L128.376 97.8252C128.353 97.8593 128.339 97.8994 128.338 97.9408L127.883 110.234C127.878 110.351 127.782 110.443 127.665 110.443H125.969C125.861 110.443 125.769 110.364 125.753 110.257Z" stroke="black" stroke-width="0.544799"/>
<path d="M127.744 80.7643C128.122 79.9169 127.586 79.4529 127.272 79.3268C127.335 78.1162 127.088 77.5109 126.957 77.3596C126.075 76.1491 124.439 76.0482 123.73 76.1491C121.653 76.4517 121.343 78.3432 121.448 79.2511C120.944 79.4932 120.871 80.0581 120.897 80.3103C121.023 80.9156 121.474 81.1174 121.684 81.1426C122.691 83.4426 123.94 83.8663 124.439 83.7907C125.95 83.488 126.747 82.0001 126.957 81.2939C127.272 81.2334 127.609 81.0669 127.744 80.7643Z" stroke="black" stroke-width="0.544799"/>
<path d="M113.419 110.257L112.069 100.999C112.032 100.746 111.663 100.753 111.637 101.008L110.674 110.248C110.663 110.359 110.569 110.443 110.458 110.443H108.77C108.653 110.443 108.556 110.351 108.552 110.234L108.096 97.9352C108.095 97.8973 108.084 97.8605 108.064 97.8283L106.033 94.556C106.011 94.5215 106 94.4817 106 94.441V87.8897C106 87.8773 106.001 87.8646 106.003 87.8524C106.457 85.2884 108.877 84.8082 110.138 84.737C110.237 84.7314 110.325 84.7959 110.353 84.8909L111.054 87.2563C111.113 87.4559 111.391 87.4669 111.466 87.2726L111.785 86.4438C111.806 86.3892 111.804 86.3286 111.78 86.2754L111.376 85.3867C111.31 85.2424 111.416 85.0786 111.574 85.0786H112.759C112.918 85.0786 113.023 85.2424 112.957 85.3867L112.554 86.2754C112.529 86.3286 112.528 86.3892 112.549 86.4438L112.89 87.3323C112.962 87.5198 113.228 87.5181 113.298 87.3297L114.206 84.8769C114.239 84.7889 114.325 84.7313 114.419 84.737C117.102 84.8987 118.333 86.8505 118.333 88.2201V94.4353C118.333 94.4795 118.32 94.5227 118.295 94.559L116.042 97.8252C116.019 97.8593 116.005 97.8994 116.004 97.9408L115.549 110.234C115.544 110.351 115.448 110.443 115.331 110.443H113.635C113.527 110.443 113.435 110.364 113.419 110.257Z" stroke="black" stroke-width="0.544799"/>
<path d="M115.412 80.7643C115.79 79.9169 115.254 79.4529 114.94 79.3268C115.003 78.1162 114.756 77.5109 114.625 77.3596C113.743 76.1491 112.107 76.0482 111.398 76.1491C109.321 76.4517 109.011 78.3432 109.116 79.2511C108.612 79.4932 108.539 80.0581 108.565 80.3103C108.691 80.9156 109.142 81.1174 109.352 81.1426C110.359 83.4426 111.608 83.8663 112.107 83.7907C113.617 83.488 114.415 82.0001 114.625 81.2939C114.94 81.2334 115.277 81.0669 115.412 80.7643Z" stroke="black" stroke-width="0.544799"/>
<path d="M120.775 75.2225C121.115 74.4522 120.634 74.0303 120.351 73.9157C120.407 72.8152 120.185 72.2649 120.067 72.1274C119.274 71.0269 117.801 70.9352 117.163 71.0269C115.293 71.302 115.015 73.0215 115.109 73.8469C114.656 74.067 114.59 74.5806 114.614 74.8099C114.727 75.3601 115.133 75.5435 115.322 75.5665C116.228 77.6574 117.352 78.0426 117.801 77.9738C119.161 77.6987 119.878 76.346 120.067 75.704C120.351 75.649 120.654 75.4977 120.775 75.2225Z" stroke="black" stroke-width="0.544799"/>
<path d="M133.109 75.2225C133.449 74.4522 132.968 74.0303 132.684 73.9157C132.741 72.8152 132.519 72.2649 132.401 72.1274C131.608 71.0269 130.135 70.9352 129.497 71.0269C127.627 71.302 127.349 73.0215 127.443 73.8469C126.99 74.067 126.924 74.5806 126.947 74.8099C127.061 75.3601 127.467 75.5435 127.656 75.5665C128.562 77.6574 129.686 78.0426 130.135 77.9738C131.495 77.6987 132.212 76.346 132.401 75.704C132.684 75.649 132.988 75.4977 133.109 75.2225Z" stroke="black" stroke-width="0.544799"/>
<path d="M138.085 110.257L136.735 100.999C136.698 100.746 136.33 100.753 136.303 101.008L135.34 110.248C135.329 110.359 135.235 110.443 135.124 110.443H133.436C133.319 110.443 133.222 110.351 133.218 110.234L132.762 97.9352C132.761 97.8973 132.75 97.8605 132.73 97.8283L130.699 94.556C130.677 94.5215 130.666 94.4817 130.666 94.441V87.8897C130.666 87.8773 130.667 87.8646 130.669 87.8524C131.123 85.2884 133.543 84.8082 134.804 84.737C134.903 84.7314 134.991 84.7959 135.019 84.8909L135.72 87.2563C135.779 87.4559 136.057 87.4669 136.132 87.2726L136.451 86.4438C136.472 86.3892 136.47 86.3286 136.446 86.2754L136.042 85.3867C135.976 85.2424 136.082 85.0786 136.24 85.0786H137.425C137.584 85.0786 137.689 85.2424 137.623 85.3867L137.22 86.2754C137.195 86.3286 137.194 86.3892 137.215 86.4438L137.556 87.3323C137.628 87.5198 137.894 87.5181 137.964 87.3297L138.872 84.8769C138.905 84.7889 138.991 84.7313 139.085 84.737C141.768 84.8987 142.999 86.8505 142.999 88.2201V94.4353C142.999 94.4795 142.986 94.5227 142.961 94.559L140.708 97.8252C140.685 97.8593 140.672 97.8994 140.67 97.9408L140.215 110.234C140.21 110.351 140.114 110.443 139.997 110.443H138.301C138.193 110.443 138.101 110.364 138.085 110.257Z" stroke="black" stroke-width="0.544799"/>
<path d="M140.078 80.7643C140.456 79.9169 139.92 79.4529 139.606 79.3268C139.669 78.1162 139.422 77.5109 139.291 77.3596C138.409 76.1491 136.773 76.0482 136.064 76.1491C133.987 76.4517 133.677 78.3432 133.782 79.2511C133.278 79.4932 133.205 80.0581 133.231 80.3103C133.357 80.9156 133.808 81.1174 134.018 81.1426C135.025 83.4426 136.274 83.8663 136.773 83.7907C138.283 83.488 139.081 82.0001 139.291 81.2939C139.606 81.2334 139.943 81.0669 140.078 80.7643Z" stroke="black" stroke-width="0.544799"/>
<path d="M112.498 163.076V152.052C112.498 150.456 113.792 149.162 115.388 149.162H133.488C135.084 149.162 136.378 150.456 136.378 152.052V163.076" stroke="black" stroke-width="0.867044" stroke-linecap="round"/>
<path d="M117.574 158.187V162.888" stroke="black" stroke-width="0.867044" stroke-linecap="round"/>
<path d="M131.113 158.187V162.888" stroke="black" stroke-width="0.867044" stroke-linecap="round"/>
<path d="M98.6152 158.734V162.307" stroke="black" stroke-width="0.867044" stroke-linecap="round"/>
<path d="M141.1 158.734V162.307" stroke="black" stroke-width="0.867044" stroke-linecap="round"/>
<path d="M108.627 158.734V162.307" stroke="black" stroke-width="0.867044" stroke-linecap="round"/>
<path d="M151.111 158.734V162.307" stroke="black" stroke-width="0.867044" stroke-linecap="round"/>
<circle cx="124.534" cy="142.581" r="6.1475" stroke="black" stroke-width="0.867044"/>
<circle cx="5.64088" cy="5.64088" r="5.20736" transform="matrix(-1 0 0 1 109.404 139.179)" stroke="black" stroke-width="0.867044"/>
<circle cx="5.64088" cy="5.64088" r="5.20736" transform="matrix(-1 0 0 1 151.236 139.179)" stroke="black" stroke-width="0.867044"/>
<path d="M94.0011 162.307V156.984C94.0011 153.485 96.8372 150.649 100.336 150.649H106.627C109.869 150.649 112.498 153.278 112.498 156.52V156.52V162.307" stroke="black" stroke-width="0.867044" stroke-linecap="round"/>
<path d="M154.983 162.445L154.915 156.847C154.873 153.412 152.076 150.649 148.64 150.649H142.213C138.97 150.649 136.342 153.278 136.342 156.52V156.52V162.307" stroke="black" stroke-width="0.867044" stroke-linecap="round"/>
</svg>
