<svg width="552" height="401" viewBox="0 0 552 401" fill="none" xmlns="http://www.w3.org/2000/svg">
<path d="M156.738 53.3028C153.293 55.1799 149.518 52.2715 151.395 52.6428C152.937 52.8568 154.508 52.6129 155.913 51.9414C155.233 49.3455 154.846 46.6819 154.757 44C155.417 37.5025 157.955 52.519 156.738 53.3028ZM146.837 56.2319C148.899 58.2946 151.457 59.8004 149.332 59.5735C146.486 59.2847 144.568 56.4588 145.599 54.9736C146.424 55.5099 145.888 55.2624 146.837 56.2319ZM149.229 42.0817C149.848 42.8242 149.229 44.495 149.085 45.2376C149.04 45.4406 148.921 45.6194 148.751 45.7382C148.58 45.857 148.371 45.9071 148.165 45.8784C147.959 45.8497 147.772 45.7445 147.64 45.5836C147.509 45.4227 147.443 45.2182 147.455 45.0107C147.682 43.1543 148.136 40.8028 149.229 42.0817ZM160.739 45.8771C161.42 41.1328 162.802 43.1749 162.678 43.9587C162.513 47.1353 160.512 47.486 160.739 45.8771ZM150.467 38.802C139.163 39.8952 150.838 35.0272 151.457 38.6369L150.467 38.802ZM221.754 123.662C224.106 124.487 223.631 126.983 220.723 125.89C214.776 123.502 208.53 121.94 202.158 121.249C202.158 137.998 203.004 144.495 202.035 144.949C200.983 144.537 200.116 122.074 200.178 120.197C200.364 116.731 218.062 122.342 221.754 123.662ZM241.721 146.847C244.753 153.344 250.117 162.214 243.536 164.462C239.844 165.7 224.209 164.462 227.2 156.067C229.84 148.559 238.215 139.524 241.721 146.847ZM137.926 190.391C140.71 189.586 165.133 184.986 166.329 186.162C168.928 188.782 154.51 187.297 138.379 191.979C138.169 192.039 137.943 192.013 137.751 191.907C137.56 191.8 137.419 191.622 137.358 191.412C137.298 191.201 137.324 190.975 137.431 190.784C137.537 190.592 137.715 190.451 137.926 190.391ZM135.636 178.489C142.706 176.799 149.901 175.682 157.15 175.147C157.369 175.175 157.568 175.288 157.703 175.462C157.839 175.636 157.899 175.857 157.872 176.075C157.845 176.294 157.732 176.493 157.558 176.629C157.383 176.764 157.163 176.825 156.944 176.797C149.919 177.357 142.947 178.454 136.09 180.077C135.879 180.137 135.653 180.111 135.462 180.005C135.27 179.899 135.129 179.72 135.069 179.51C135.009 179.299 135.035 179.073 135.141 178.882C135.247 178.69 135.425 178.549 135.636 178.489ZM296.342 60.2954C298.962 60.5842 299.766 59.8416 299.993 60.4192C300.55 64.2352 290.566 60.1304 296.342 60.2954ZM305.005 44.7632C305.005 39.627 306.655 41.1535 306.655 44.7632C306.655 44.982 306.569 45.1919 306.414 45.3466C306.259 45.5014 306.049 45.5883 305.83 45.5883C305.612 45.5883 305.402 45.5014 305.247 45.3466C305.092 45.1919 305.005 44.982 305.005 44.7632ZM290.381 42.8243C290.363 42.9313 290.325 43.0337 290.267 43.1258C290.21 43.218 290.135 43.2979 290.047 43.3611C289.959 43.4243 289.859 43.4696 289.754 43.4942C289.648 43.5189 289.539 43.5226 289.432 43.5049C289.325 43.4873 289.222 43.4488 289.13 43.3916C289.038 43.3344 288.958 43.2596 288.895 43.1715C288.832 43.0834 288.786 42.9837 288.762 42.8781C288.737 42.7725 288.733 42.6631 288.751 42.5561C289.514 37.585 290.979 39.0701 290.381 42.8243Z" fill="black"/>
<path d="M60.2027 239.194C44.7943 227.396 45.3099 205.696 45.7637 204.995C39.8437 198.807 39.6787 180.861 41.3908 177.169C43.701 172.156 33.3875 127.973 50.2192 115.659C48.734 114.999 45.9081 113.307 45.7018 111.1C45.3305 106.748 49.4354 106.046 52.5707 104.19C65.6689 96.496 66.494 79.4374 92.1541 73.1255C93.1029 71.3722 93.3092 71.0628 94.0724 69.7839C75.508 71.0628 77.9008 60.8936 81.098 58.3771C83.1107 57.2133 85.2674 56.3186 87.513 55.7162C79.6953 52.4365 79.9222 42.5974 89.9883 43.5049C91.1846 43.6081 87.3067 40.4315 90.4627 36.368C91.1724 35.2719 92.174 34.3958 93.3548 33.8382C94.5356 33.2806 95.8485 33.0637 97.1458 33.212C97.1458 26.3019 100.467 23.4966 104.407 23.4966C98.6104 14.9983 106.346 5.53043 117.195 10.7903C114.617 4.80848 121.486 -5.95888 137.224 6.52053C138.214 2.18884 151.911 -2.3285 153.396 4.00402C154.159 7.24248 159.584 -1.81283 169.485 5.61294C172.187 7.67565 173.611 11.0791 170.434 12.1517C180.273 12.8737 184.048 22.0321 176.416 24.0123C174.766 24.4455 179.551 25.5594 178.788 31.7062C178.21 36.4092 174.044 39.1114 170.64 36.533C169.506 35.6873 169.836 35.5016 169.939 36.3886C169.967 36.7367 169.925 37.0868 169.814 37.4181C169.704 37.7494 169.528 38.0552 169.297 38.317C169.066 38.5788 168.785 38.7914 168.47 38.9421C168.155 39.0927 167.813 39.1784 167.464 39.1939C167.152 41.0006 166.676 42.7751 166.04 44.495C173.507 44.495 177.942 50.9307 175.962 54.066C173.672 57.6552 169.65 55.2624 174.683 57.8614C184.44 62.9151 181.985 71.2897 176.003 71.2278C170.021 71.1659 173.941 68.9588 173.012 74.9407C172.435 78.8805 166.04 82.7377 160.636 77.7872C159.11 79.623 158.8 80.7988 156.944 81.7476C172.435 92.0612 167.031 97.0736 187.121 117.329C189.452 119.702 190.133 118.815 191.247 119.908C192.361 121.001 190.834 127.56 185.059 127.086C191.391 145.65 185.059 139.937 194.217 140.906C194.423 140.906 191.804 113.823 192.154 110.089C192.361 108.253 192.732 108.295 213.442 113.018C212.761 99.1982 212.905 70.6296 214.102 70.3408C214.308 70.3408 229.221 70.3408 229.221 69.9489C229.551 68.6288 228.582 62.9563 228.85 61.8837C229.098 61.1824 229.923 61.203 230.583 60.7698C238.586 55.448 228.52 58.3565 227.757 57.5726C226.643 56.335 227.757 43.8556 225.694 43.8556C223.631 44.9488 225.281 55.3862 224.498 56.3763C221.961 58.604 223.693 46.8259 220.95 47.1559C219.444 47.4447 221.156 55.9431 220.578 57.3457C218.701 60.0273 219.361 53.2203 217.134 51.0132C214.535 49.755 217.258 69.5776 217.546 69.9902C216.494 70.8152 211.874 45.9389 217.938 49.8581C219.712 51.0132 217.938 49.3631 219.238 46.6196C219.96 45.1964 222.022 44.9695 223.178 46.9909C224.271 39.7714 227.881 41.5247 228.437 46.599C228.974 56.17 228.747 54.7261 228.912 56.4381C234.378 54.3754 238.462 59.2228 230.438 62.0075C229.18 62.4406 230.438 67.0199 230.046 69.6395C230.046 70.0727 229.819 69.9283 230.892 69.8251C235.306 69.3714 248.508 107.14 252.571 112.565C246.94 120.815 248.817 122.032 249.333 120.671C254.923 109.12 278.211 84.9242 304.098 76.1783C306.16 75.5182 305.665 76.1783 306.16 73.4968C307.666 71.2897 285.657 82.614 287.596 49.4043C278.293 49.7137 279.655 35.151 287.431 34.7384C282.295 28.4472 283.904 23.2697 289.081 17.7623C291.371 1.26061 309.11 0.889327 324.89 6.91244C328.623 8.33572 329.283 10.5634 331.202 13.8638C333.058 14.1526 333.904 12.8118 337.493 14.8745C348.405 21.1658 345.744 38.9464 336.709 46.1246C338.339 50.8482 336.915 56.0875 330.769 55.6543C330.769 75.4151 328.974 70.8359 338.38 72.4654C405.418 84.0785 424.147 165.349 395.084 192.33C393.475 193.835 400.529 203.922 387.947 211.08C387.544 220.242 385.358 229.239 381.511 237.565C378.644 243.753 378.541 242.412 378.83 243.32C391.082 282.305 414.432 351.901 414.803 353.551C416.144 359.512 410.286 361.245 407.584 356.666C406.388 354.603 373.364 265.288 369.114 253.654C367.191 255.183 365.187 256.609 363.112 257.924C363.999 273.786 369.073 342.495 368.165 346.455C367.996 347.419 367.51 348.299 366.784 348.954C366.058 349.61 365.133 350.005 364.157 350.076C363.182 350.147 362.21 349.891 361.396 349.347C360.583 348.803 359.974 348.003 359.667 347.074C359.358 346.043 352.757 300.643 348.755 265.123C325.034 274.797 298.157 275.973 293.31 276.034C289.184 358.357 289.803 353.407 281.098 350.89C279.572 350.436 279.531 350.89 279.283 341.134C275.158 344.681 257.006 358.935 251.499 360.007C249.848 360.317 248.322 357.016 250.488 353.2C263.07 331.068 264.452 341.278 252.881 326.653C251.581 329.809 246.548 342.639 244.63 342.949C239.782 343.485 241.639 354.026 238.668 354.129C233.388 354.335 206.016 352.437 203.871 349.405C202.963 348.147 204.923 345.445 207.439 344.31C234.749 334.347 223.631 352.912 225.715 294.434C225.715 292.949 213.937 279.314 208.326 261.987C205.211 252.354 208.326 248.188 206.779 243.423C203.375 232.181 209.399 234.533 197.002 233.893C194.361 239.009 192.402 235.956 190.958 242.144C189.495 248.769 186.436 254.936 182.047 260.11C181.243 250.666 179.161 241.375 175.859 232.491C173.796 232.305 176.127 230.304 180.83 261.369C180.644 261.575 181.428 317.969 178.974 319.124C177.044 319.743 175.038 320.09 173.012 320.156C173.507 320.548 173.177 334.141 173.404 334.141C173.404 334.657 190.112 340.082 191.969 348.477C192.216 350.313 192.257 351.076 190.339 351.076C183.965 350.725 162.534 345.383 161.131 345.383C161.131 347.672 161.482 347.858 159.316 347.837C157.48 347.837 155.191 347.837 154.592 346.992C154.035 345.61 155.314 323.477 154.984 320.898C154.984 320.692 155.335 320.898 150.302 320.898C150.096 350.333 149.869 347.549 147.806 348.147C138.998 349.653 140.607 351.592 137.492 299.982C129.53 307.202 133.078 307.284 123.053 300.849C121.692 302.561 114.803 310.709 114.803 310.77C118.103 317.206 123.837 329.582 118.804 334.966C117.381 336.183 115.71 333.955 101.539 315.247C95.9701 307.862 98.8785 314.875 95.5576 312.029C89.5551 306.893 91.4321 309.966 107.934 290.783C98.2597 283.79 99.3117 285.77 106.964 278.551C148.672 239.091 133.615 266.402 80.7885 248.93C79.5096 262.214 69.8149 344.578 67.8553 346.002C66.5146 346.971 62.0798 346.414 60.6978 345.795C58.3256 344.723 61.2753 315.185 65.607 261.678C48.177 309.285 30.7678 354.83 30.7678 355.036C28.4576 359.925 22.7026 358.955 23.012 354.108C23.0739 354.191 54.2827 258.295 60.2027 239.194ZM96.7127 310.935C97.6821 309.925 97.909 309.162 98.7754 309.45C100.405 310.275 115.855 332.14 118.082 333.543C122.662 326.777 113.194 311.431 113.668 310.482C113.957 310.09 107.851 308.419 100.962 300.519C93.0823 309.636 93.2061 308.048 96.7333 310.935H96.7127ZM101.808 299.426C105.205 303.703 109.41 307.271 114.184 309.925C120.372 303.077 121.218 302.066 122.435 300.581C105.459 289.834 110.78 288.906 101.828 299.426H101.808ZM46.3619 206.253C46.7125 222.115 52.6738 232.243 60.5533 238.081C67.9585 214.215 65.9783 221.455 64.9263 213.637C44.2992 208.089 46.3412 203.963 46.3825 206.253H46.3619ZM43.2059 174.405C47.517 169.598 54.159 168.216 60.3265 166.793C55.1903 164.174 49.1465 160.914 47.6201 156.83C45.5574 150.065 48.7134 133.79 49.9923 129.829C55.2934 113.225 58.7588 118.505 52.055 116.381C38.4823 125.539 41.8033 153.654 43.2266 174.405H43.2059ZM123.879 174.735C135.884 176.117 129.386 178.984 132.129 180.593C134.068 181.707 134.728 184.037 131.593 184.718C129.283 185.234 129.53 184.718 130.603 185.399C132.913 186.781 133.511 190.122 124.869 189.256C125.859 191.154 130.83 200.704 132.191 202.396C132.686 203.014 166.494 200.91 188.813 198.27C188.627 198.064 166.927 170.733 161.667 166.051C161.172 165.824 124.539 170.176 124.332 170.176C124.74 171.698 124.587 173.316 123.899 174.735H123.879ZM130.211 187.709C131.758 185.646 121.362 186.121 123.714 183.872C123.92 183.749 143.763 182.779 122.888 180.469C122.698 180.426 122.53 180.315 122.416 180.157C122.301 180 122.248 179.806 122.265 179.612C122.283 179.417 122.37 179.236 122.512 179.102C122.653 178.967 122.838 178.889 123.033 178.881C126.746 178.984 129.056 179.665 129.799 178.881C131.016 176.509 124.023 176.529 122.847 176.096C120.785 175.539 124.518 171.971 122.538 169.908C121.506 168.98 118.516 174.9 118.082 175.292C112.08 179.273 88.338 142.721 73.8372 141.36C70.248 141.009 80.0253 140.576 84.027 144.433C92.2778 121.084 92.0716 121.909 92.0097 121.001C91.7415 117.412 87.6986 115.885 84.2126 116.463C80.7267 117.041 79.9841 119.31 76.2299 119.33C74.3096 119.34 72.4068 118.964 70.635 118.223C68.8631 117.482 67.2585 116.393 65.9164 115.019C63.2619 116.125 60.435 116.761 57.5624 116.896C52.9007 126.88 51.2711 127.849 49.4972 139.215C48.569 145.135 46.6713 155.16 50.838 159.017C59.6045 167.144 118.35 191.773 130.232 187.709H130.211ZM119.217 170.733C115.091 171.269 115.71 170.733 116.515 172.528C117.608 174.817 116.845 174.095 119.237 170.733H119.217ZM163.338 62.3375C174.126 58.9959 162.843 46.3309 163.338 50.3531C163.338 50.5594 163.936 50.7451 164.101 50.8482C166.164 52.0239 168.763 61.1618 159.605 61.533C154.654 61.7599 160.141 63.3482 163.338 62.3375ZM162.843 49.9612C165.937 41.7104 166.061 43.0099 166.742 39.2351C162.616 38.7607 158.161 39.0907 160.842 37.5437C162.307 36.698 163.751 37.6881 163.091 37.1312C156.903 31.2524 159.11 25.3531 157.872 28.5503C157.277 29.964 156.334 31.2042 155.13 32.1555C153.927 33.1069 152.503 33.7385 150.99 33.9917C149.477 34.2449 147.925 34.1114 146.477 33.6036C145.03 33.0958 143.734 32.2303 142.711 31.0874C140.978 35.6873 139.04 38.08 133.573 38.6163C129.922 38.967 130.5 38.5132 129.118 37.1312C123.817 31.83 118.804 42.2879 125.24 45.382C127.591 46.2071 124.229 56.8094 117.938 54.1073C113.235 52.0446 114.514 42.2879 119.753 41.896C121.692 41.7516 120.702 41.2566 120.393 41.2153C113.586 40.2459 110.698 52.0033 116.721 55.3449C122.249 58.4184 128.87 52.0033 126.395 45.5883C130.83 46.1865 130.809 51.9827 128.458 55.7987C128.169 56.2525 137.719 56.6238 136.832 63.5958C136.234 66.6073 132.707 67.288 129.675 67.2261C136.131 82.2839 127.901 84.3879 120.764 77.2303C120.175 79.1315 119.328 80.9429 118.247 82.614C114.885 86.8838 150.983 97.548 149.931 80.9225C147.896 79.7772 145.964 78.4591 144.155 76.9828C143.885 74.9249 143.934 72.8377 144.299 70.7946C145.228 65.4109 154.2 73.0223 162.926 49.92L162.843 49.9612ZM137.286 120.857C141.412 117.68 147.6 93.8764 148.796 88.1627C133.058 97.4449 118.866 85.2542 119.671 87.0075C122.084 92.0818 134.852 117.247 137.369 120.815L137.286 120.857ZM135.698 134.904C143.227 135.749 145.166 125.621 139.39 123.146C128.128 118.98 124.827 133.645 135.698 134.904ZM153.767 82.779C153.767 82.779 151.911 81.8301 150.653 81.1288C150.859 85.8112 148.652 86.6569 153.767 82.7377V82.779ZM189.741 123.786C192.546 119.536 188.875 122.074 179.696 111.781C172.538 103.777 165.05 86.595 155.954 82.9027C155.438 83.3565 152.674 85.5224 150.034 87.3582C148.487 97.3623 143.227 116.236 139.349 121.104C139.163 121.331 148.528 124.343 142.134 134.14C130.912 143.134 121.713 123.827 134.295 121.249C137.245 120.671 135.615 124.673 121.465 93.1544C117.34 83.8722 119.506 86.9663 116.04 84.3673C113.049 85.9968 104.737 86.5537 104.737 77.6428C97.7234 83.439 88.9156 81.2319 91.2259 75.0438C70.1862 80.7575 67.6491 93.2782 58.0162 102.107C51.8281 107.841 46.8363 107.222 47.3314 110.894C47.3314 112.688 53.3133 117.309 62.5955 114.71C65.772 113.823 66.1227 113.163 66.7209 113.905C68.1018 115.4 69.8202 116.543 71.7327 117.24C73.6451 117.936 75.6963 118.164 77.7151 117.907C79.4684 117.453 80.4585 116.401 82.9338 115.514C86.296 114.545 91.1846 115.514 92.6904 119.021C97.5584 99.4251 96.2176 96.826 97.3315 95.7122C101.663 100.126 87.2448 139.483 85.2853 145.465C88.7919 147.528 97.8678 156.542 100.735 159.409C101.457 160.131 116.453 156.707 166.267 156.459C161.977 147.899 154.819 142.453 154.448 141.422C154.324 140.741 162.843 132.181 161.276 122.734C158.903 108.295 152.715 100.333 155.335 102.705C160.285 110.419 164.143 119.062 162.224 128.179C163.108 128.814 164.13 129.23 165.206 129.391C166.282 129.553 167.382 129.456 168.413 129.107C172.538 127.56 173.528 121.29 184.502 125.807C185.476 126.075 186.511 126.023 187.454 125.66C188.397 125.296 189.199 124.639 189.741 123.786ZM183.78 126.962C180.026 126.323 177.138 124.9 174.642 126.447C172.579 127.725 168.66 133.625 162.059 129.912C160.244 132.573 160.884 136.595 156.304 141.216C175.591 160.275 163.875 165.721 196.61 165.246C196.115 160.193 194.98 148.105 194.423 141.607C184.316 140.411 190.855 147.156 183.78 126.962ZM193.887 110.646C193.887 120.093 198.198 165.989 199.25 175.374C209.007 178.633 273.074 196.641 295.29 200.127C294.836 186.781 290.917 147.424 287.328 134.553C276.272 129.107 204.592 112.214 193.887 110.646ZM340.34 179.355C334.151 175.23 303.087 168.443 293.578 166.257C293.578 166.752 293.928 169.268 293.99 169.764C343.764 179.933 333.801 182.181 340.278 179.355H340.34ZM284.646 86.7188C296.404 114.05 297.023 105.984 286.482 109.264C285.389 109.615 301.622 143.918 301.684 145.052C304.18 194.351 303.211 134.491 298.343 85.2336C297.662 78.4473 300.385 77.1478 284.626 86.7188H284.646ZM298.013 158.13C298.013 158.349 298.1 158.559 298.254 158.713C298.409 158.868 298.619 158.955 298.838 158.955C299.057 158.955 299.266 158.868 299.421 158.713C299.576 158.559 299.663 158.349 299.663 158.13C299.683 153.468 298.013 151.034 298.013 158.13ZM305.665 76.4052C296.239 79.6437 298.466 76.8384 299.931 91.9374C299.931 91.5042 301.849 90.3698 306.264 85.873C304.283 84.0785 305.15 79.0248 305.665 76.4052ZM305.418 97.3624C304.015 97.0117 303.809 93.2369 303.685 90.6379C299.023 94.9696 300.013 91.7518 301.045 103.901C303.809 96.661 303.788 97.0942 304.16 96.9292C304.675 97.9605 307.419 99.2394 308.842 98.1049C308.986 99.5694 308.202 116.463 308.079 121.228C341.804 62.0487 319.651 106.273 313.153 94.3095C307.15 98.0637 309.275 98.3318 305.377 97.3624H305.418ZM287.369 35.8935C281.181 35.7698 280.232 47.5272 287.101 47.7954C293.97 48.0635 294.135 36.0173 287.369 35.8935ZM293.289 27.8696C292.794 29.4991 291.886 32.8201 291.226 35.8523C294.506 38.5957 292.464 40.8028 294.898 41.1741C295.352 40.019 295.352 39.3589 295.971 40.019C295.971 41.731 295.414 41.2566 297.724 41.6898C301.622 42.3911 298.714 41.9785 301.086 39.2558C301.926 38.2 303.04 37.3953 304.306 36.9294C305.572 36.4636 306.942 36.3546 308.266 36.6143C309.59 36.8739 310.817 37.4923 311.813 38.4019C312.81 39.3116 313.537 40.4774 313.916 41.7723C315.711 41.7723 321.259 41.566 322.167 41.4216C323.405 37.7706 325.632 24.7549 325.653 24.5899C310.203 34.1609 297.229 31.2112 293.289 27.8696ZM300.715 46.434C301.994 50.2706 310.183 51.6527 312.245 45.5058C315.525 35.8935 296.775 34.429 300.756 46.434H300.715ZM334.151 54.0867C336.833 52.7046 337.514 44.3919 332.811 43.7731C329.758 43.4018 328.128 46.7847 326.911 47.3416C323.776 48.7442 321.837 46.7847 321.837 43.3193H314.164C314.597 54.0454 297.662 53.6329 299.457 43.5049C294.3 43.278 296.631 39.9777 294.114 51.137C295.764 51.9414 298.57 52.3127 298.693 52.7665C298.116 53.6741 292.505 53.1584 292.505 50.972C293.145 47.2385 293.619 44.9901 293.949 43.7525C293.578 44.9066 292.973 45.9715 292.171 46.8803C291.368 47.7891 290.387 48.522 289.287 49.033C289.164 50.6213 289.143 51.8177 289.102 53.9216C288.462 79.128 307.666 69.557 307.914 72.4861C307.914 73.5174 305.459 82.7996 307.192 84.4291C312.307 83.1915 328.809 72.6923 329.325 71.3309C329.345 47.6304 329.387 56.5207 334.151 54.0867ZM310.595 85.0273C312.109 88.7633 313.909 92.3769 315.979 95.8359C329.696 86.6569 331.264 81.2732 335.967 73.0224C324.89 71.1247 335.987 73.208 310.595 85.048V85.0273ZM337.41 73.6412C298.879 139.648 302.819 128.117 303.561 138.823C308.636 135.688 335.967 118.485 339.329 115.762C338.524 113.369 330.438 105.984 329.985 104.623C329.531 103.262 354.51 78.4267 354.428 78.406C348.925 76.377 343.269 74.7906 337.514 73.6618L337.41 73.6412ZM367.175 166.463C363.813 167.268 364.597 167.825 363.875 166.649C354.943 152.21 350.88 125.147 350.488 124.817C349.292 126.282 352.344 150.725 362.576 166.071C364.514 168.98 364.535 166.071 358.904 172.693C342.794 168.753 314.927 165.844 293.165 163.555C293.165 164.091 293.33 164.957 293.392 165.617C307.522 168.443 351.334 175.518 342.258 184.347C339.411 186.76 297.497 202.911 295.455 200.849C274.188 198.126 203.458 178.963 198.26 176.797C197.703 176.426 197.765 177.292 196.734 166.711C184.522 167.123 180.232 168.773 172.579 163.183C170.358 161.578 168.361 159.684 166.639 157.552C146.321 157.8 122.228 158.604 101.973 160.894C122.311 181.707 110.636 170.506 115.999 169.784C125.013 168.547 162.018 165.143 161.791 165.494C162.369 164.689 189.102 195.465 190.669 198.311C192.237 201.158 132.542 205.118 131.263 203.778C129.984 202.437 124.105 191.154 123.012 189.153C112.534 187.792 98.2597 185.811 62.2654 167.886C31.1185 175.683 40.9576 190.184 56.0772 195.857C61.3578 197.92 112.039 212.565 180.335 217.66C305.212 226.963 380.191 201.158 376.148 201.158C375.137 201.158 374.684 199.838 372.93 196.579C364.102 204.355 341.701 211.203 347.25 204.025C346.101 204.195 344.933 204.195 343.784 204.025C341.598 203.53 341.453 201.447 343.207 199.9C344.094 199.137 344.217 199.384 343.434 199.322C340.009 199.075 339.803 196.414 342.464 194.908C346.053 192.845 352.365 193.072 354.18 189.772C355.5 187.379 350.797 184.966 352.427 182.346C353.561 180.531 355.377 181.273 357.151 182.47C360.74 184.966 359.44 185.172 362.019 182.8C357.316 179.52 355.83 181.129 356.594 178.798C357.476 176.222 358.957 173.891 360.915 171.998C362.873 170.105 365.251 168.703 367.856 167.907C384.997 164.4 391.062 176.158 391.598 176.158C392.753 173.043 382.316 162.915 367.279 166.422L367.175 166.463ZM354.552 191.546C352.097 194.619 341.99 195.197 342.175 197.424C343.042 199.776 354.448 194.042 353.933 197.074C353.603 197.981 352.943 197.507 348.9 198.91C340.958 201.694 341.391 204.582 353.355 200.539C355.562 199.797 355.872 200.539 355.521 201.344C355.17 202.148 347.765 203.736 348.178 205.469C348.611 206.81 365.938 201.756 372.518 195.919C370.112 191.046 366.703 186.736 362.514 183.274C360.843 184.904 360.142 185.646 359.729 185.502C359.316 185.358 353.376 180.16 353.149 183.439C353.108 185.667 357.873 187.503 354.655 191.505L354.552 191.546ZM387.06 211.554C368.887 221.599 368.248 209.925 378.211 241.69C383.512 232.469 386.578 222.133 387.163 211.513L387.06 211.554ZM409.152 356.088C409.894 357.532 413.277 358.625 412.411 354.026C408.636 334.512 382.646 265.329 370.62 218.175C366.082 219.599 363.029 220.444 358.471 221.62C361.874 231.088 408.306 354.789 409.152 356.088ZM360.513 342.577C361.441 348.766 366.206 349.116 366.701 342.454C367.279 333.605 364.349 310.44 362.369 258.439C358.314 260.892 354.08 263.036 349.704 264.855C350.509 271.146 357.79 324.488 360.513 342.577ZM281.346 349.261C288.442 351.983 286.998 354.624 292.175 276.034C291.206 276.034 285.306 276.138 280.067 275.684C280.665 313.411 280.542 344.063 281.346 349.261ZM368.702 252.581C359.646 227.829 369.341 242.495 343.764 254.892C321.074 265.886 300.612 267.268 275.343 266.917C274.147 270.3 273.281 272.837 273.095 273.105C297.311 277.561 345.682 271.043 368.702 252.581ZM279.18 336.843C277.963 265.494 282.233 276.385 272.538 274.714C268.681 285.379 266.783 290.432 265.442 294.042C278.768 330.119 278.314 328.324 276.994 329.108C275.117 330.346 275.55 328.613 279.18 336.843ZM253.644 325.086C256.228 328.481 258.982 331.744 261.895 334.863C266.688 332.926 271.329 330.63 275.777 327.994C275.962 327.87 266.948 301.034 265.051 294.991C254.799 322.61 253.417 324.797 253.644 325.086ZM228.025 337.668C229.056 337.978 240.154 340.639 244.3 341.319C295.661 235.482 248.9 273.972 311.276 263.844C325.715 261.472 345.496 255.428 356.759 244.764C365.422 236.513 363.813 239.607 357.666 221.868C354.366 222.528 309.151 234.842 236.214 234.842C225.673 261.884 226.519 328.799 228.025 337.668ZM225.962 291.298C226.973 276.138 227.88 253.2 234.605 234.821C210.987 234.945 213.792 233.996 212.823 235.213C200.261 250.952 214.555 275.168 225.942 291.298H225.962ZM208.326 242.474C211.234 232.552 216.247 234.945 207.006 234.45C207.236 237.154 207.671 239.836 208.305 242.474H208.326ZM192.051 236.946C197.208 233.213 194.465 233.914 192.257 233.79C192.092 237.09 191.804 237.111 192.031 236.946H192.051ZM156.243 346.27C160.512 346.27 159.687 347.26 159.79 344.846C159.935 341.856 183.243 349.653 190.731 349.653C190.03 343.464 178.355 337.936 172.662 335.441C172.662 335.441 171.362 335.44 166.969 335.915C152.736 337.421 156.222 331.109 156.222 346.27H156.243ZM172.744 320.383C163.049 321.208 155.851 320.816 155.871 321.022C156.222 323.601 155.871 334.327 156.284 334.409C161.598 335.415 167.057 335.366 172.352 334.265C172.662 319.619 172.497 321.249 172.744 320.383ZM388.937 208.542C392.237 206.48 394.939 204.644 393.372 194.31C366.103 217.412 205.665 239.133 60.3058 198.662C43.8041 194.062 41.3701 185.605 41.3908 186.286C41.9271 205.077 47.4139 207.965 63.9568 212.4C201.87 249.302 356.037 230.036 388.937 208.542ZM148.198 346.497C148.734 343.052 148.899 325.003 148.941 320.96C144.609 320.837 145.908 324.426 143.619 294.97C143.474 295.094 141.556 260.605 140.298 251.241C140.133 249.941 139.596 249.632 139.638 251.241C139.638 252.272 139.638 253.633 139.741 255.366C141.453 303.283 143.866 294.558 139.122 298.683C142.711 349.054 141.061 349.219 148.198 346.497ZM132.851 254.397C133.346 254.397 132.501 255.036 139.328 248.807C134.893 248.208 96.0114 247.982 76.2712 232.614C74.6004 237.297 74.9923 236.203 72.0014 244.434C89.5963 251.839 114.308 255.263 132.851 254.397ZM66.989 344.743C67.2984 344.372 78.1483 266.546 80.1697 248.827C69.1548 245.321 72.7852 242.309 67.0921 257.903C61.7084 340.535 58.14 349.178 66.989 344.743ZM28.8907 355.222C29.4064 354.314 77.4057 227.334 80.6648 217.639C76.5394 216.649 71.2794 215.329 68.1441 214.504C56.6342 261.946 28.1481 336.761 25.5491 354.067C24.9097 358.275 27.3643 358.048 28.8907 355.222Z" fill="black"/>
<g filter="url(#filter0_f_982_3626)">
<ellipse cx="276" cy="375.5" rx="265" ry="14.5" fill="url(#paint0_linear_982_3626)" fill-opacity="0.8"/>
</g>
<defs>
<filter id="filter0_f_982_3626" x="0.2" y="350.2" width="551.6" height="50.6" filterUnits="userSpaceOnUse" color-interpolation-filters="sRGB">
<feFlood flood-opacity="0" result="BackgroundImageFix"/>
<feBlend mode="normal" in="SourceGraphic" in2="BackgroundImageFix" result="shape"/>
<feGaussianBlur stdDeviation="5.4" result="effect1_foregroundBlur_982_3626"/>
</filter>
<linearGradient id="paint0_linear_982_3626" x1="11" y1="375.5" x2="541" y2="375.5" gradientUnits="userSpaceOnUse">
<stop stop-opacity="0.8"/>
<stop offset="1" stop-color="white" stop-opacity="0"/>
</linearGradient>
</defs>
</svg>
