<svg width="260" height="178" viewBox="0 0 260 178" fill="none" xmlns="http://www.w3.org/2000/svg">
<path d="M22.7655 15H10.3207C10.1436 15 10 15.1436 10 15.3207V26.9724C10 27.1495 10.1436 27.2931 10.3207 27.2931H16.1563C16.3334 27.2931 16.477 27.4367 16.477 27.6138V36.8699C16.477 37.193 16.9009 37.3133 17.0706 37.0383L23.0384 27.3706C23.0697 27.3199 23.0862 27.2616 23.0862 27.2021V15.3207C23.0862 15.1436 22.9426 15 22.7655 15Z" fill="black" stroke="black" stroke-width="2.88639" stroke-linecap="round"/>
<path d="M41.0038 15H28.559C28.3819 15 28.2383 15.1436 28.2383 15.3207V26.9724C28.2383 27.1495 28.3819 27.2931 28.559 27.2931H34.3946C34.5717 27.2931 34.7153 27.4367 34.7153 27.6138V36.8699C34.7153 37.193 35.1392 37.3133 35.3089 37.0383L41.2767 27.3706C41.3079 27.3199 41.3245 27.2616 41.3245 27.2021V15.3207C41.3245 15.1436 41.1809 15 41.0038 15Z" fill="black" stroke="black" stroke-width="2.88639" stroke-linecap="round"/>
<path d="M223.927 14.1872C220.662 14.7314 218.412 17.4013 217.805 20.3095L215.764 33.9146C215.274 37.1798 217.374 38.4496 218.485 38.6764C222.839 39.2206 226.195 35.2751 227.329 33.2343C228.916 29.1528 232.226 20.4455 232.771 18.2687C233.315 16.0919 232.09 15.0942 231.41 14.8674C230.276 14.4139 227.193 13.643 223.927 14.1872Z" fill="black"/>
<path d="M241.611 14.1872C238.346 14.7314 236.096 17.4013 235.489 20.3095L233.448 33.9146C232.958 37.1798 235.058 38.4496 236.169 38.6764C240.523 39.2206 243.878 35.2751 245.012 33.2343C246.599 29.1528 249.91 20.4455 250.454 18.2687C250.998 16.0919 249.774 15.0942 249.094 14.8674C247.96 14.4139 244.876 13.643 241.611 14.1872Z" fill="black"/>
<ellipse cx="18.8201" cy="142.194" rx="7.82007" ry="7.19375" fill="black"/>
<path d="M15.2266 157.761C28.5591 153.892 28.1745 140.307 24.585 137.477L18.1751 146.911C24.3286 151.723 18.7734 156.149 15.2266 157.761Z" fill="black"/>
<ellipse cx="38.0857" cy="142.194" rx="7.82007" ry="7.19375" fill="black"/>
<path d="M34.5 157.761C47.8326 153.892 47.448 140.307 43.8584 137.477L37.4486 146.911C43.602 151.723 38.0468 156.149 34.5 157.761Z" fill="black"/>
<path d="M233.629 150.527C233.629 146.282 237.07 142.841 241.315 142.841C245.559 142.841 249 146.282 249 150.527C249 154.771 245.559 158.212 241.315 158.212C237.07 158.212 233.629 154.771 233.629 150.527Z" fill="black"/>
<path d="M246.289 135.135C244.336 135.569 241.587 142.088 241.768 143.022C241.768 143.022 234.444 158.981 233.992 150.798C233.54 142.615 243.094 135.436 246.289 135.135Z" fill="black"/>
<path d="M235.453 153.158C235.248 153.252 235.043 153.293 234.847 153.252C234.649 153.209 234.48 153.086 234.343 152.891C234.076 152.511 233.911 151.831 233.855 150.805C233.626 146.66 235.93 142.785 238.673 139.917C240.046 138.482 241.535 137.293 242.882 136.444C244.224 135.598 245.443 135.078 246.274 135L246.316 135.268C246.102 135.315 245.866 135.449 245.612 135.664C245.36 135.877 245.1 136.163 244.839 136.502C244.316 137.18 243.8 138.056 243.347 138.952C242.896 139.848 242.51 140.758 242.249 141.502C242.119 141.873 242.021 142.201 241.96 142.463C241.93 142.594 241.91 142.707 241.9 142.799C241.89 142.893 241.892 142.958 241.899 142.996L241.908 143.039L241.889 143.079L241.766 143.022C241.889 143.079 241.889 143.079 241.889 143.079L241.888 143.082C241.887 143.084 241.886 143.087 241.884 143.09C241.88 143.098 241.875 143.11 241.868 143.125C241.854 143.155 241.834 143.199 241.807 143.257C241.753 143.372 241.674 143.54 241.573 143.751C241.371 144.172 241.083 144.764 240.736 145.449C240.041 146.819 239.109 148.562 238.162 150.051C237.689 150.796 237.21 151.479 236.753 152.021C236.3 152.559 235.856 152.972 235.453 153.158ZM234.904 152.986C235.024 153.012 235.168 152.991 235.339 152.912C235.686 152.752 236.097 152.379 236.546 151.846C236.991 151.317 237.463 150.645 237.933 149.906C238.874 148.428 239.801 146.693 240.494 145.326C240.84 144.643 241.127 144.053 241.328 143.633C241.429 143.424 241.507 143.256 241.561 143.142C241.588 143.085 241.608 143.041 241.622 143.011C241.624 143.007 241.625 143.004 241.627 143.001C241.62 142.933 241.622 142.854 241.631 142.77C241.642 142.664 241.665 142.54 241.696 142.403C241.759 142.127 241.861 141.789 241.994 141.412C242.258 140.657 242.649 139.735 243.105 138.83C243.562 137.925 244.087 137.032 244.624 136.336C244.884 135.999 245.149 135.705 245.413 135.478C244.738 135.707 243.918 136.112 243.027 136.674C241.698 137.511 240.227 138.685 238.869 140.105C236.149 142.948 233.903 146.753 234.126 150.791C234.182 151.811 234.345 152.422 234.565 152.735C234.672 152.887 234.786 152.961 234.904 152.986Z" fill="black"/>
<path d="M216 150.527C216 146.282 219.441 142.841 223.686 142.841C227.93 142.841 231.371 146.282 231.371 150.527C231.371 154.771 227.93 158.212 223.686 158.212C219.441 158.212 216 154.771 216 150.527Z" fill="black"/>
<path d="M228.656 135.135C226.703 135.569 223.955 142.088 224.135 143.022C224.135 143.022 216.811 158.981 216.359 150.798C215.907 142.615 225.462 135.436 228.656 135.135Z" fill="black"/>
<path d="M217.824 153.158C217.62 153.252 217.414 153.293 217.218 153.252C217.02 153.209 216.851 153.086 216.714 152.891C216.447 152.511 216.282 151.831 216.226 150.805C215.997 146.66 218.301 142.785 221.044 139.917C222.417 138.482 223.906 137.293 225.253 136.444C226.595 135.598 227.814 135.078 228.645 135L228.688 135.268C228.473 135.315 228.237 135.449 227.983 135.664C227.731 135.877 227.471 136.163 227.21 136.502C226.687 137.18 226.171 138.056 225.719 138.952C225.267 139.848 224.881 140.758 224.621 141.502C224.49 141.873 224.392 142.201 224.332 142.463C224.302 142.594 224.281 142.707 224.271 142.799C224.261 142.893 224.263 142.958 224.27 142.996L224.279 143.039L224.26 143.079L224.137 143.022C224.26 143.079 224.26 143.079 224.26 143.079L224.259 143.082C224.258 143.084 224.257 143.087 224.255 143.09C224.251 143.098 224.246 143.11 224.239 143.125C224.225 143.155 224.205 143.199 224.178 143.257C224.124 143.372 224.045 143.54 223.944 143.751C223.743 144.172 223.454 144.764 223.107 145.449C222.412 146.819 221.48 148.562 220.533 150.051C220.06 150.796 219.581 151.479 219.124 152.021C218.671 152.559 218.227 152.972 217.824 153.158ZM217.275 152.986C217.395 153.012 217.539 152.991 217.71 152.912C218.057 152.752 218.468 152.379 218.917 151.846C219.362 151.317 219.834 150.645 220.304 149.906C221.245 148.428 222.172 146.693 222.865 145.326C223.211 144.643 223.499 144.053 223.699 143.633C223.8 143.424 223.878 143.256 223.932 143.142C223.959 143.085 223.979 143.041 223.993 143.011C223.995 143.007 223.996 143.004 223.998 143.001C223.991 142.933 223.993 142.854 224.002 142.77C224.013 142.664 224.036 142.54 224.067 142.403C224.13 142.127 224.232 141.789 224.365 141.412C224.63 140.657 225.02 139.735 225.476 138.83C225.933 137.925 226.458 137.032 226.995 136.336C227.255 135.999 227.52 135.705 227.784 135.478C227.109 135.707 226.289 136.112 225.398 136.674C224.069 137.511 222.598 138.685 221.24 140.105C218.52 142.948 216.274 146.753 216.497 150.791C216.553 151.811 216.716 152.422 216.936 152.735C217.043 152.887 217.157 152.961 217.275 152.986Z" fill="black"/>
<path d="M26.2319 81.0239C26.2319 85.5063 22.5983 89.1399 18.116 89.1399C13.6336 89.1399 10 85.5063 10 81.0239C10 76.5416 13.6336 72.908 18.116 72.908C22.5983 72.908 26.2319 76.5416 26.2319 81.0239Z" fill="black"/>
<path d="M25.6842 78.548C28.2153 89.7728 18.4538 97.2594 11.1484 94.4744C15.8805 93.7041 19.9984 89.8278 20.1818 88.7273L25.6842 78.548Z" fill="black"/>
<path d="M25.8217 78.5162C28.3732 89.8314 18.5271 97.4412 11.0954 94.6081L10.5977 94.4184L11.1233 94.3328C13.4603 93.9524 15.6521 92.8033 17.2842 91.609C18.0996 91.0123 18.7722 90.4067 19.2507 89.8845C19.4901 89.6232 19.6791 89.3845 19.8131 89.18C19.9493 88.9721 20.0203 88.8112 20.0383 88.7035L20.0425 88.68L20.0537 88.6591L25.7378 78.1436L25.8217 78.5162ZM20.3152 88.7771C20.2819 88.9391 20.1879 89.1306 20.0528 89.3369C19.908 89.558 19.7083 89.8089 19.4619 90.0778C18.9689 90.6159 18.2816 91.2339 17.4532 91.8401C15.9209 92.9613 13.8939 94.0498 11.7019 94.515C18.7367 96.7069 27.7805 89.6233 25.6228 78.9582L20.3152 88.7771Z" fill="black"/>
<path d="M45.9976 81.0239C45.9976 85.5063 42.3639 89.1399 37.8816 89.1399C33.3993 89.1399 29.7656 85.5063 29.7656 81.0239C29.7656 76.5416 33.3993 72.908 37.8816 72.908C42.3639 72.908 45.9976 76.5416 45.9976 81.0239Z" fill="black"/>
<path d="M45.4459 78.548C47.977 89.7728 38.2156 97.2594 30.9102 94.4744C35.6422 93.7041 39.7602 89.8278 39.9436 88.7273L45.4459 78.548Z" fill="black"/>
<path d="M45.5873 78.5162C48.1388 89.8314 38.2928 97.4412 30.861 94.6081L30.3633 94.4184L30.889 94.3328C33.226 93.9524 35.4177 92.8033 37.0498 91.609C37.8653 91.0123 38.5378 90.4067 39.0163 89.8845C39.2557 89.6232 39.4447 89.3845 39.5787 89.18C39.7149 88.9721 39.7859 88.8112 39.8039 88.7035L39.8081 88.68L39.8193 88.6591L45.5034 78.1436L45.5873 78.5162ZM40.0809 88.7771C40.0476 88.9391 39.9536 89.1306 39.8184 89.3369C39.6736 89.558 39.474 89.8089 39.2276 90.0778C38.7345 90.6159 38.0472 91.2339 37.2188 91.8401C35.6865 92.9613 33.6595 94.0498 31.4675 94.515C38.5024 96.7069 47.5461 89.6233 45.3884 78.9582L40.0809 88.7771Z" fill="black"/>
<path d="M123.365 73.0788L111.958 74.3462C111.721 74.3726 111.537 74.5658 111.523 74.804L110.201 96.3994C110.179 96.7465 110.516 97.0049 110.846 96.895L118.255 94.4253C118.412 94.3728 118.532 94.2443 118.574 94.0836L123.894 73.6905C123.981 73.3575 123.707 73.0408 123.365 73.0788Z" fill="black"/>
<path d="M139.143 73.0788L127.736 74.3462C127.499 74.3726 127.315 74.5658 127.3 74.804L125.978 96.3994C125.957 96.7465 126.293 97.0049 126.623 96.895L134.032 94.4253C134.189 94.3728 134.31 94.2443 134.352 94.0836L139.672 73.6905C139.758 73.3575 139.485 73.0408 139.143 73.0788Z" fill="black"/>
<path d="M216 88.0061H223.305C224.211 94.4544 218.813 96.0665 216 96.0665V98.9632C228.091 99.5677 230.945 92.582 230.861 89.0136V72.767H216V88.0061Z" fill="black"/>
<path d="M234.133 88.0061H241.438C242.344 94.4544 236.946 96.0665 234.133 96.0665V98.9632C246.223 99.5677 249.078 92.582 248.994 89.0136V72.767H234.133V88.0061Z" fill="black"/>
<path d="M139 144.74H131.014C130.718 141.166 132.345 140.123 134.119 139.751L136.634 139.528V133.571H133.01C126.281 134.39 124.827 139.652 124.802 142.134V159.037H139V144.74Z" fill="black"/>
<path d="M121.199 144.74H113.213C112.917 141.166 114.544 140.123 116.319 139.751L118.833 139.528V133.571H115.209C108.48 134.39 107.026 139.652 107.001 142.134V159.037H121.199V144.74Z" fill="black"/>
<path d="M132.211 23.7689L135.561 24.6427L131.482 37.6052L134.104 38.916L141.823 26.5361C144.736 23.0406 144.493 18.8655 144.008 17.2148C141.911 10.9229 135.706 11.389 133.522 13.1367C128.419 17.2187 130.56 21.9726 132.211 23.7689Z" fill="black"/>
<path d="M114.586 23.7689L117.936 24.6427L113.857 37.6052L116.479 38.916L124.198 26.5361C127.111 23.0406 126.868 18.8655 126.383 17.2148C124.286 10.9229 118.081 11.389 115.897 13.1367C110.794 17.2187 112.935 21.9726 114.586 23.7689Z" fill="black"/>
</svg>
