<svg width="260" height="178" viewBox="0 0 260 178" fill="none" xmlns="http://www.w3.org/2000/svg">
<path d="M130.044 120.544L130.077 120H136.45L136.493 120.544M130.044 120.544L129.533 128.86C129.533 129.87 128.756 130.569 127.202 130.569H121.218M130.044 120.544C128.968 120.661 127.482 121.078 126.036 121.938M121.218 130.569H119.974V133.445C120.154 133.671 120.444 133.987 120.829 134.343M121.218 130.569C121.334 126.026 123.63 123.369 126.036 121.938M136.493 120.544L137.149 128.86C137.305 130.025 137.927 130.569 139.17 130.569H145.232M136.493 120.544C137.543 120.602 138.995 120.949 140.413 121.76M145.232 130.569H147.175V133.445C146.884 133.816 146.562 134.152 146.223 134.455M145.232 130.569C145.076 125.781 142.79 123.119 140.413 121.76M126.036 121.938V125.673M140.413 121.76V125.673M122.15 135.408C122.914 135.947 123.833 136.475 124.87 136.864H141.579C141.945 136.782 142.766 136.542 143.721 136.087M122.15 135.408C121.634 135.044 121.19 134.676 120.829 134.343M122.15 135.408C122.099 136.637 122.328 138.317 122.975 140.051M143.721 136.087C144.523 135.706 145.42 135.173 146.223 134.455M143.721 136.087C143.533 137.578 143.223 138.893 142.821 140.051M120.829 134.343C119.663 134.639 117.72 135.823 119.275 138.185C119.741 138.894 121.023 139.802 122.975 140.051M122.975 140.051C123.797 142.256 125.294 144.548 127.745 146.101M146.223 134.455C147.136 135.025 148.573 136.932 145.853 139.507C145.36 139.973 144.064 140.735 142.821 140.051M142.821 140.051C141.809 142.971 140.213 144.891 138.52 146.101M130.232 147.284C131.082 147.571 132.013 147.783 133.03 147.9C133.953 147.929 135.119 147.761 136.342 147.284M130.232 147.284V150.154L132.02 151.863L129.533 162.2L133.03 165.386L137.149 162.2L134.273 151.863L136.342 150.154V147.284M130.232 147.284C129.311 146.972 128.485 146.57 127.745 146.101M136.342 147.284C137.061 147.003 137.799 146.617 138.52 146.101M127.745 146.101C124.093 147.9 116.632 146.967 115.544 154.661L115 165.386H151.449V156.604C151.449 148.366 142.821 147.9 138.52 146.101M140.335 155.205V161.811L143.444 163.21L146.223 161.811V155.205C145.245 154.739 142.698 154.086 140.335 155.205Z" stroke="black" stroke-width="2" stroke-linecap="round"/>
<path d="M145.118 28.5436V25.3639H151V44.4419H145.118V41.4212M145.118 28.5436V41.4212M145.118 28.5436C144.206 28.3516 142.737 28.2095 141.143 28.3598M121.906 35.8568L136.056 34.7439M121.906 35.8568H118.567L116.978 34.8162M121.906 35.8568C121.906 34.0542 122.995 32.8203 124.609 31.9948M145.118 41.4212L135.579 45.7137L117.614 43.488L106.962 33.1541C105.817 29.5929 108.393 29.6564 109.823 30.1334L116.978 34.8162M141.143 28.3598C139.218 28.5412 137.109 29.1491 135.579 30.6103C134.79 30.537 133.866 30.49 132.876 30.4894M141.143 28.3598V20.5944M141.143 20.5944L128.901 8.82967L116.978 20.0307M141.143 20.5944L143.687 22.6612L146.548 23.1381L147.025 20.2764L141.143 15.0133M141.143 15.0133V8.19374H136.215V10.6036M141.143 15.0133L136.215 10.6036M136.215 10.6036L128.901 4.06018L110.459 20.9124L110.618 23.6151H113.162L116.978 20.0307M132.876 30.4894V22.3432H124.609V31.9948M132.876 30.4894C130.12 30.4876 126.856 30.8452 124.609 31.9948M116.978 20.0307V34.8162" stroke="black" stroke-width="2.02355" stroke-linecap="round" stroke-linejoin="round"/>
<path d="M14.1429 101.614V67.543H35.3571V81.043M14.1429 101.614H9M14.1429 101.614H35.3571M54 101.614H48.8571M48.8571 101.614V81.043H35.3571M48.8571 101.614H35.3571M35.3571 81.043V101.614M20.5714 77.1858H30.2143M20.5714 85.543H30.2143M38.4718 87.9876H45.1268M38.4718 93.058H45.1268" stroke="black" stroke-width="2.10938" stroke-linecap="round" stroke-linejoin="round"/>
<path d="M245.485 162.647V128C245.485 127.448 245.037 127 244.485 127H215.458C214.906 127 214.458 127.448 214.458 128V139.542M245.485 162.647H250.766M245.485 162.647H229.641M205 162.647H209.838M214.458 139.542H228.641C229.194 139.542 229.641 139.99 229.641 140.542V162.647M214.458 139.542H210.838C210.285 139.542 209.838 139.99 209.838 140.542V162.647M229.641 162.647H209.838M239.543 136.242H233.602M239.543 145.484H233.602M239.543 154.065H233.602" stroke="black" stroke-width="2.10417" stroke-linecap="round" stroke-linejoin="round"/>
<path d="M135.732 76.6158C134.988 76.146 132.538 75.4884 128.686 76.6158M128.096 79.904C128.404 81.4262 129.282 83.502 130.44 84.7918M136.906 79.3168C136.781 81.0783 135.622 83.2201 135.142 84.0142C134.951 84.3298 134.759 84.6027 134.567 84.8363M134.567 84.8363V94.7009L132.436 96.8147L130.44 94.7009V84.7918M134.567 84.8363C133.107 86.61 131.627 86.114 130.44 84.7918M134.567 78.8471C133.933 78.6905 132.266 78.4713 130.675 78.8471" stroke="black" stroke-width="1.6936" stroke-linecap="round" stroke-linejoin="round"/>
<path d="M139.138 62.993C139.325 60.5502 134.205 60.1069 131.621 60.8899C130.024 60.3261 125.867 62.0534 123.988 62.2883L120.582 59L114.005 65.4592L117.763 68.5127C116.824 75.0893 123.479 78.8474 126.924 79.9044C130.212 80.562 129.781 78.2994 129.155 77.0858L123.988 73.2102C126.055 72.3647 129.938 72.4665 131.621 72.623L135.732 76.4986C137.141 81.3857 139.06 80.8054 139.843 79.9044L139.138 74.3847L136.085 70.3897M139.138 62.993L131.386 63.6976M139.138 62.993L143.482 62.7581C143.848 63.9403 143.068 65.8997 138.55 66.6978M131.386 66.9859C134.448 67.1443 136.785 67.0097 138.55 66.6978M138.55 66.6978L143.835 69.9219C144.299 71.0156 143.169 72.345 136.085 70.3897M131.621 68.9824C133.322 69.5733 134.801 70.0354 136.085 70.3897" stroke="black" stroke-width="1.6936" stroke-linecap="round" stroke-linejoin="round"/>
<path d="M125.982 101.631C118.466 96.6855 116.195 98.6306 115.999 100.221L131.971 108.442C133.756 107.784 144.068 106.837 149 106.446V100.221C143.739 97.9664 138.978 98.4988 137.256 99.0469C127.297 98.1074 125.59 101.317 125.982 103.04H135.025" stroke="black" stroke-width="1.6936" stroke-linecap="round" stroke-linejoin="round"/>
<path d="M50 140.853L46.8462 138.249M9 140.853L12.5652 137.91M46.8462 138.249L29.5 123.928L23.4026 128.962M46.8462 138.249V161.248H39.1718M39.1718 161.248V137.91H28.1333M39.1718 161.248V164.192H20.1436V161.248M28.1333 137.91L20.1436 145.794M28.1333 137.91V145.794H20.1436M20.1436 145.794V161.248M35.2821 151.787H24.1385M35.2821 155.676H24.1385M24.1385 159.671C26.241 159.531 30.4462 159.335 30.4462 159.671M12.5652 137.91V161.248H20.1436M12.5652 137.91L17.3051 133.996M23.4026 128.962V125.4H17.3051V133.996M23.4026 128.962L17.3051 133.996" stroke="black" stroke-width="2" stroke-linecap="round" stroke-linejoin="round"/>
<path d="M209.548 85.2652C210.274 82.244 212.409 77.2895 216.355 73.8256M209.548 85.2652C211.78 88.193 218.902 93.6753 229.53 92.1821M209.548 85.2652C207.864 88.3394 209.087 95.3661 227.444 98.8795C233.754 99.5726 246.899 99.8657 250.791 93.78C250.817 93.7397 250.84 93.6964 250.857 93.6518C251.751 91.3679 248.34 89.0537 243.762 88.01M233.922 94.927L243.115 92.9862C243.523 92.9002 243.825 92.5548 243.843 92.1389C243.898 90.8533 243.864 89.4402 243.762 88.01M233.922 94.927C234.91 86.2618 233.768 69.3133 221.296 70.8401M233.922 94.927L229.53 92.1821M221.296 70.8401C222.383 70.4369 223.553 70.1483 224.809 70.0039C228.762 69.6379 237.501 69.6745 241.717 78.0188C242.653 79.8698 243.477 84.0069 243.762 88.01M221.296 70.8401C219.405 71.5411 217.765 72.5882 216.355 73.8256M229.53 92.1821C230.335 84.9949 228.828 71.2615 216.355 73.8256" stroke="black" stroke-width="1.86667" stroke-linejoin="round"/>
<path d="M236.1 7.58533H228.908C228.33 7.58533 227.861 8.05436 227.861 8.63295V13.9003C227.861 14.4788 228.33 14.9479 228.908 14.9479H236.1M236.1 7.58533V4.95167C236.1 4.37309 236.569 3.90405 237.147 3.90405H242.239C242.818 3.90405 243.287 4.37309 243.287 4.95167V7.58533M236.1 7.58533H243.287M243.287 7.58533H246.399C246.653 7.58533 246.898 7.67743 247.089 7.84453L250.642 10.9536C250.87 11.1525 251 11.4399 251 11.742V13.9003C251 14.4788 250.531 14.9479 249.952 14.9479H243.287M243.287 14.9479V42.1234C243.287 42.7019 242.818 43.171 242.239 43.171H237.147C236.569 43.171 236.1 42.7019 236.1 42.1234V14.9479M243.287 14.9479H236.1M228.562 28.6212V42.6493C228.562 43.2278 228.093 43.6969 227.514 43.6969H208.048C207.469 43.6969 207 43.2278 207 42.6493V28.6212M228.562 28.6212V23.358C228.562 22.7795 228.093 22.3104 227.514 22.3104H222.498C222.336 22.3104 222.174 22.2756 222.037 22.1889C221.062 21.5751 219.509 19.7925 220.323 16.7009C221.55 13.0196 223.829 6.00764 218.745 5.48174C216.057 5.13114 211.908 7.02437 215.414 16.7009C215.882 17.9908 215.937 20.957 214.062 22.1771C213.918 22.2709 213.747 22.3104 213.575 22.3104H208.048C207.469 22.3104 207 22.7795 207 23.358V28.6212M228.562 28.6212H207" stroke="black" stroke-width="2.09524" stroke-linejoin="round"/>
<circle cx="218.218" cy="9.86432" r="1.04762" stroke="black" stroke-width="1.41074" stroke-linejoin="round"/>
<path d="M22.4524 11.2944V43.3182M22.4524 11.2944H25.6667M22.4524 11.2944L18.881 12.4849M22.4524 43.3182H43.1667M22.4524 43.3182H14.9524M49 43.3182H43.1667M43.1667 43.3182V11.2944H39.2381M14.9524 43.3182V13.7944L18.881 12.4849M14.9524 43.3182H9M39.2381 11.2944V5.34204H25.6667M39.2381 11.2944H25.6667M25.6667 5.34204V11.2944M25.6667 5.34204L18.881 7.84204V12.4849M40.0714 17.0087H25.6667M40.0714 20.223H25.6667M40.0714 23.6754H25.6667M40.0714 27.1278H25.6667M40.0714 30.4611H25.6667M40.0714 33.7944H25.6667" stroke="black" stroke-width="1.95122" stroke-linecap="round" stroke-linejoin="round"/>
</svg>
