<svg width="260" height="201" viewBox="0 0 260 201" fill="none" xmlns="http://www.w3.org/2000/svg">
<path d="M18.7099 30.3891L12.4156 37.0537C4.26994 45.1999 22.4124 52.9314 22.4124 40.7562V15.2088C22.4124 3.68795 3.89952 11.8765 12.4156 19.6519L43.8861 45.1993C47.4405 44.6069 47.3418 41.9904 46.8481 40.7562L26.4852 23.7246L43.8861 9.61208C45.8608 9.36525 49.5139 10.0564 48.3291 14.7956L34.6307 25.5758" stroke="white" stroke-width="2" stroke-linecap="round"/>
<path d="M145.041 17.1587C144.058 30.6041 134.793 33.5555 129.055 33.5555C115.937 33.5555 112.658 22.351 112.658 17.1587H108.559C108.832 23.9907 113.314 37.5727 129.055 37.2447V42.1638H117.987V47.0828H136.843M145.041 17.1587H149.55C149.004 23.3075 144.795 35.933 132.334 37.2447M145.041 17.1587C145.041 6.00892 136.697 1.17188 129.464 1.17188C118.397 1.17188 113.751 9.78017 112.658 13.8794" stroke="white" stroke-width="2" stroke-linecap="round" stroke-linejoin="round"/>
<path d="M229.497 16.4761C226.309 20.302 221.462 29.4842 229.497 29.8668C233.323 30.0489 237.761 26.5765 229.497 16.4761Z" stroke="white" stroke-width="2"/>
<path d="M229.879 16.4758C225.543 13.4151 216.105 9.58922 210.749 17.2408C208.071 21.4496 208.148 32.0854 229.879 47.083" stroke="white" stroke-width="2"/>
<path d="M229.496 16.4758C233.832 13.4151 243.27 9.58922 248.626 17.2408C251.304 21.4496 251.227 32.0854 229.496 47.083" stroke="white" stroke-width="2"/>
<path d="M16.6568 92.9165C19.718 92.1514 25.8395 94.8295 22.7783 98.6554C20.8658 100.568 16.0447 99.344 16.6568 92.9165Z" stroke="white" stroke-width="2"/>
<path d="M43.4378 104.012C43.1318 94.5233 38.8313 89.9482 34.6382 87.9429C25.8386 83.7345 17.0391 88.3255 16.6568 92.9164C9.38727 96.3599 9.8977 103.246 10.5354 106.307C11.0454 107.2 12.8306 108.985 15.8913 108.985C17.9318 112.811 24.7674 119.315 35.786 114.724C36.013 114.595 36.2692 114.456 36.5512 114.312M50.7071 111.664C54.9156 112.599 53.3852 118.55 48.4115 117.02C47.1681 116.637 41.5249 113.517 36.5512 114.312M50.7071 111.664C45.6647 110.543 39.5968 112.756 36.5512 114.312M50.7071 111.664C47.5188 107.583 36.9338 101.41 20.0998 109.368" stroke="white" stroke-width="2" stroke-linecap="round"/>
<path d="M139.975 85.7637C139.638 89.1351 142.083 90.2589 143.347 90.3994C144.696 95.7937 149.373 94.9797 150.777 93.8559L149.247 81.1279C147.14 75.6493 142.223 76.9136 139.554 78.1779C134.497 80.5734 133.092 86.0446 132.811 89.1351C128.428 87.7866 124.803 87.7304 123.539 87.8708C118.341 88.1518 109.631 91.5794 116.374 103.042C114.689 105.571 111.823 111.555 113.846 115.264C114.83 116.95 117.218 119.141 118.904 114.421C119.465 112.595 121.178 108.184 123.539 105.15C125.506 105.571 130.367 106.161 134.075 105.15M144.611 97.1423V114.421C143.628 115.826 141.071 117.792 138.711 114.421V105.15C137.025 104.026 133.738 100.851 134.075 97.1423" stroke="white" stroke-width="2"/>
<circle cx="230.289" cy="97.7582" r="18.5121" stroke="white" stroke-width="2"/>
<path d="M225.315 79.7766C226.208 82.8374 226.846 89.6475 222.254 93.9325C221.107 95.4629 220.801 98.5236 228.759 98.5236V110.001C228.631 111.277 227.917 113.292 226.08 111.149L219.194 104.262L218.428 100.054C216.515 100.054 212.996 97.6819 212.689 91.2544M232.202 79.394C230.926 81.4345 229.753 85.7451 233.732 88.1936C234.975 88.9588 238.476 89.877 242.149 88.9588C244.827 88.2893 245.43 93.6868 240.236 93.1673C237.685 92.9123 233.043 93.3969 234.88 97.3758C235.39 98.3961 237.175 100.59 240.236 101.202C240.364 102.86 241.078 106.328 244.445 110.001" stroke="white" stroke-width="2" stroke-linecap="round" stroke-linejoin="round"/>
<path d="M34.793 174.054C33.119 172.241 29.0596 169.869 26.2139 174.891V188.911C24.8887 191.561 21.3594 195.272 17.8441 188.911V166.103" stroke="white" stroke-width="2"/>
<path d="M20.5664 166.103V157.315H14.9168V166.103H20.5664Z" stroke="white" stroke-width="2"/>
<path d="M41.281 160.243H45.0475L48.1861 155.221H41.281M41.281 160.243V173.216M41.281 160.243H35.8407M41.281 173.216H35.8407M41.281 173.216C42.5365 173.914 44.2942 175.811 41.281 177.82M35.8407 160.243H32.0742L28.9356 155.221H35.8407M35.8407 160.243V173.216M35.8407 173.216C32.4927 175.225 34.4457 177.122 35.8407 177.82M41.281 177.82H35.8407M41.281 177.82V180.749C44 181.915 48.3211 185.131 48.575 189.119M35.8407 177.82V180.749C30.9262 183.301 29.0851 186.322 28.9294 189.119M48.575 189.119C48.7314 191.576 46.8373 194.326 43.5827 197.07V200H33.3297V197.07C31.035 195.579 28.7403 192.514 28.9294 189.119M48.575 189.119C45.9236 190.584 37.629 192.634 28.9294 189.119M41.281 155.221V151.873L44.4197 147.27H32.0742L35.8407 151.873V155.221M41.281 155.221H35.8407" stroke="white" stroke-width="2"/>
<path d="M140.322 183.024C140.992 182.346 141.232 181.615 141.234 180.935M140.322 183.024H133.871M140.322 183.024L139.607 188.248M121.228 183.024C120.855 182.6 120.402 181.823 120.327 180.935M121.228 183.024H127.678M121.228 183.024L121.783 188.248M141.234 180.935C141.236 179.939 140.731 179.05 140.322 178.584H121.228C120.471 179.351 120.263 180.183 120.327 180.935M141.234 180.935L152.965 178.584V162.914L140.322 156.385H120.327L108.584 162.914V178.584L120.327 180.935M127.678 200H123.033L122.408 194.124M127.678 200V183.024M127.678 200H133.871M127.678 183.024H133.871M133.871 200H137.999L138.803 194.124M133.871 200V183.024M121.783 188.248H139.607M121.783 188.248L122.408 194.124M139.607 188.248L138.803 194.124M122.408 194.124H138.803M121.743 162.914V174.405H139.547V162.914H121.743Z" stroke="white" stroke-width="2"/>
<path d="M245.083 199.982C217.587 200.725 212.261 178.616 213.035 167.469H222.791C222.048 171.557 224.649 175.984 226.042 177.688L221.862 180.939C225.578 188.742 230.842 191.622 233.009 192.086L235.796 187.906C239.14 190.507 243.381 191.157 245.083 191.157V199.982Z" stroke="white" stroke-width="2"/>
</svg>
