<svg width="260" height="181" viewBox="0 0 260 181" fill="none" xmlns="http://www.w3.org/2000/svg">
<path fill-rule="evenodd" clip-rule="evenodd" d="M112.893 17.291C113.208 17.5816 113.228 18.0724 112.937 18.3873C112.246 19.1356 111.4 20.5105 111.156 22.1368C110.917 23.7243 111.244 25.5859 112.937 27.4207C113.228 27.7355 113.208 28.2264 112.893 28.517C112.578 28.8076 112.088 28.788 111.797 28.4732C109.767 26.2736 109.317 23.9328 109.622 21.9062C109.92 19.9183 110.936 18.2674 111.797 17.3348C112.088 17.02 112.578 17.0003 112.893 17.291Z" fill="#1475C2"/>
<path fill-rule="evenodd" clip-rule="evenodd" d="M120.905 36.9914C128.685 36.9914 134.991 30.6846 134.991 22.9046C134.991 15.1247 128.685 8.81785 120.905 8.81785C113.125 8.81785 106.818 15.1247 106.818 22.9046C106.818 30.6846 113.125 36.9914 120.905 36.9914ZM120.905 38.8093C129.689 38.8093 136.809 31.6885 136.809 22.9046C136.809 14.1208 129.689 7 120.905 7C112.121 7 105 14.1208 105 22.9046C105 31.6885 112.121 38.8093 120.905 38.8093Z" fill="#1475C2"/>
<path fill-rule="evenodd" clip-rule="evenodd" d="M137.861 39.6527L147.675 46.956C147.675 46.956 150.303 47.278 151.166 46.1801C152.009 45.1084 151.166 42.6889 151.166 42.6889L141.146 34.999L137.861 39.6527ZM136.16 38.387L139.594 33.8083L134.485 29.8876L130.994 34.5426L136.16 38.387Z" fill="black"/>
<path d="M115.083 30.6627C115.083 31.3054 114.562 31.8264 113.92 31.8264C113.277 31.8264 112.756 31.3054 112.756 30.6627C112.756 30.0199 113.277 29.4989 113.92 29.4989C114.562 29.4989 115.083 30.0199 115.083 30.6627Z" fill="#1475C2"/>
<path fill-rule="evenodd" clip-rule="evenodd" d="M238.286 37.0811L235.988 34.7832L237.03 33.7418L239.328 36.0397L241.501 33.866L242.022 34.3781C243.325 35.6599 245.28 37.5891 246.91 39.2112C247.724 40.022 248.459 40.7575 248.991 41.2975C249.256 41.567 249.474 41.7906 249.626 41.9515C249.702 42.031 249.766 42.1005 249.814 42.1546C249.836 42.1803 249.863 42.2116 249.888 42.2431C249.899 42.2574 249.92 42.2853 249.942 42.3205C249.953 42.3374 249.972 42.3705 249.992 42.4142L249.993 42.4157C250.002 42.437 250.038 42.5165 250.052 42.6289C250.055 42.6464 250.06 42.6725 250.068 42.7121L250.072 42.7302C250.088 42.8077 250.11 42.9149 250.134 43.0422C250.186 43.317 250.25 43.6922 250.293 44.106C250.336 44.5173 250.36 44.9834 250.325 45.437C250.291 45.8814 250.198 46.3712 249.964 46.7913C249.674 47.3144 249.155 47.5882 248.703 47.7388C248.237 47.894 247.72 47.9598 247.264 47.9856C246.802 48.0117 246.368 47.9985 246.051 47.9794C245.892 47.9698 245.761 47.9586 245.668 47.9496C245.621 47.9451 245.584 47.9411 245.558 47.9382C245.55 47.9373 245.543 47.9365 245.537 47.9357C245.533 47.9354 245.53 47.935 245.527 47.9347L245.518 47.9336L245.515 47.9331L245.514 47.9331C245.514 47.9331 245.514 47.933 245.605 47.2023L245.514 47.9331L245.27 47.9025L236.228 39.1392L238.286 37.0811ZM245.933 46.4947C245.993 46.4996 246.063 46.5047 246.14 46.5093C246.42 46.5263 246.794 46.5371 247.181 46.5152C247.574 46.4929 247.946 46.4386 248.237 46.3416C248.542 46.24 248.647 46.1294 248.677 46.076C248.764 45.9196 248.83 45.6695 248.857 45.3252C248.882 44.9901 248.866 44.6186 248.828 44.258C248.791 43.8999 248.735 43.5688 248.687 43.3175C248.667 43.2108 248.648 43.1197 248.633 43.0455C248.611 43.022 248.586 42.9951 248.557 42.9647C248.415 42.8143 248.205 42.5988 247.941 42.3309C247.415 41.7963 246.684 41.0649 245.871 40.255C244.448 38.8395 242.777 37.1889 241.51 35.9404L238.327 39.1228L245.933 46.4947Z" fill="#FF7A55"/>
<path d="M235.731 10.6232C232.598 7.95923 228.579 6.5696 224.47 6.72972C220.361 6.88985 216.461 8.58804 213.545 11.4877C210.629 14.3873 208.909 18.2768 208.726 22.385C208.542 26.4933 209.909 30.5205 212.555 33.6684C215.202 36.8163 218.934 38.8551 223.012 39.3807C227.091 39.9063 231.218 38.8803 234.576 36.5061C237.934 34.1318 240.277 30.5827 241.141 26.5622C242.005 22.5416 241.327 18.3431 239.242 14.799L237.426 15.8675C239.244 18.9564 239.834 22.6154 239.081 26.1194C238.328 29.6234 236.286 32.7166 233.36 34.7858C230.433 36.855 226.836 37.7491 223.282 37.2911C219.727 36.833 216.474 35.0562 214.168 32.3127C211.862 29.5692 210.671 26.0594 210.831 22.479C210.99 18.8985 212.49 15.5088 215.031 12.9817C217.572 10.4546 220.971 8.97458 224.552 8.83503C228.133 8.69548 231.636 9.90657 234.367 12.2282L235.731 10.6232Z" fill="black"/>
<path fill-rule="evenodd" clip-rule="evenodd" d="M218.983 94.3308L220.038 92.9657L221.054 93.7512L219.975 95.148L221.824 96.7664L223.447 95.3467L224.293 96.3135L222.729 97.6823L223.808 98.9275L223.389 99.3505C221.854 100.899 219.527 103.243 217.575 105.201C216.599 106.179 215.715 107.062 215.072 107.7C214.75 108.019 214.487 108.278 214.301 108.459C214.209 108.548 214.133 108.621 214.078 108.672C214.051 108.697 214.024 108.722 214.001 108.742C213.99 108.751 213.972 108.767 213.95 108.783C213.941 108.79 213.918 108.807 213.888 108.824C213.874 108.833 213.845 108.849 213.807 108.865L213.807 108.865C213.797 108.87 213.772 108.88 213.738 108.89L213.737 108.89C213.73 108.893 213.719 108.896 213.705 108.9C213.677 108.908 213.638 108.92 213.588 108.934C213.489 108.962 213.348 109 213.175 109.041C212.832 109.122 212.357 109.218 211.839 109.27C211.325 109.322 210.741 109.335 210.19 109.236C209.643 109.137 209.065 108.916 208.646 108.445C208.253 108.005 208.088 107.445 208.029 106.924C207.97 106.399 208.011 105.853 208.083 105.376C208.157 104.896 208.265 104.46 208.355 104.146C208.4 103.989 208.441 103.86 208.471 103.769C208.482 103.735 208.492 103.707 208.5 103.684C208.513 103.633 208.529 103.598 208.535 103.585L208.535 103.585C208.55 103.551 208.565 103.526 208.573 103.513C208.59 103.486 208.605 103.465 208.612 103.456C208.66 103.392 208.715 103.341 208.773 103.302C208.801 103.275 208.839 103.238 208.888 103.192C209.043 103.042 209.281 102.807 209.586 102.506C210.194 101.903 211.056 101.041 212.024 100.07C213.96 98.13 216.312 95.7612 217.874 94.1847L218.275 93.7801L218.983 94.3308ZM210.161 103.743C210.26 103.645 210.371 103.537 210.49 103.418C211.101 102.813 211.966 101.948 212.934 100.978C214.711 99.1957 216.839 97.053 218.385 95.4936L218.688 95.7291L221.368 98.0741L222.057 98.8691C220.539 100.4 218.446 102.508 216.665 104.294C215.689 105.272 214.808 106.152 214.167 106.788C213.938 107.015 213.741 107.21 213.581 107.367C213.508 107.287 213.428 107.198 213.341 107.102C213.294 107.05 213.244 106.994 213.192 106.938C212.816 106.52 212.348 106.003 211.877 105.493C211.343 104.917 210.793 104.339 210.356 103.924C210.29 103.862 210.225 103.801 210.161 103.743ZM212.334 107.904C212.139 107.938 211.927 107.97 211.709 107.992C211.259 108.038 210.807 108.042 210.418 107.972C210.026 107.901 209.762 107.767 209.605 107.591C209.455 107.422 209.349 107.156 209.306 106.779C209.264 106.407 209.291 105.984 209.354 105.57C209.391 105.322 209.441 105.085 209.491 104.875C209.893 105.258 210.411 105.802 210.934 106.366C211.4 106.869 211.861 107.38 212.239 107.798C212.271 107.834 212.303 107.869 212.334 107.904ZM208.723 103.347C208.72 103.35 208.719 103.351 208.719 103.351C208.719 103.351 208.72 103.35 208.723 103.347Z" fill="#1475C2"/>
<path fill-rule="evenodd" clip-rule="evenodd" d="M232.533 94.5392C225.335 94.5392 219.499 88.7038 219.499 81.5055C219.499 74.3071 225.335 68.4717 232.533 68.4717C239.731 68.4717 245.567 74.3071 245.567 81.5055C245.567 88.7038 239.731 94.5392 232.533 94.5392ZM232.533 95.8239C224.625 95.8239 218.215 89.4133 218.215 81.5055C218.215 73.5976 224.625 67.187 232.533 67.187C240.441 67.187 246.852 73.5976 246.852 81.5055C246.852 89.4133 240.441 95.8239 232.533 95.8239Z" fill="black"/>
<path fill-rule="evenodd" clip-rule="evenodd" d="M232.652 97.4887C223.76 97.4887 216.55 90.2796 216.55 81.3867C216.55 72.4938 223.76 65.2847 232.652 65.2847C241.545 65.2847 248.754 72.4938 248.754 81.3867C248.754 90.2796 241.545 97.4887 232.652 97.4887ZM232.652 98.7734C223.05 98.7734 215.266 90.9891 215.266 81.3867C215.266 71.7843 223.05 64 232.652 64C242.255 64 250.039 71.7843 250.039 81.3867C250.039 90.9891 242.255 98.7734 232.652 98.7734Z" fill="black"/>
<path fill-rule="evenodd" clip-rule="evenodd" d="M214.622 100.509L219.438 95.6927L218.984 95.2385L214.168 100.055L214.622 100.509ZM217.511 99.8668L220.722 96.656L220.268 96.2018L217.057 99.4126L217.511 99.8668ZM214.622 105.004L221.686 97.9403L221.231 97.4861L214.168 104.55L214.622 105.004Z" fill="#1475C2"/>
<path fill-rule="evenodd" clip-rule="evenodd" d="M40.8471 93.7838L39.779 92.4016L38.74 93.2045L39.8331 94.619L37.9618 96.2564L36.3178 94.8179L35.4531 95.806L37.0377 97.1926L35.9425 98.4564L36.3707 98.8886C37.9283 100.461 40.2907 102.84 42.2726 104.827C43.2634 105.821 44.1599 106.716 44.8133 107.364C45.1398 107.688 45.407 107.951 45.5955 108.134C45.6892 108.225 45.7662 108.299 45.8223 108.351C45.8494 108.377 45.8768 108.402 45.9007 108.422C45.9114 108.431 45.9302 108.447 45.9523 108.464C45.962 108.471 45.985 108.488 46.0155 108.506C46.0303 108.515 46.0594 108.532 46.0981 108.548L46.0984 108.548C46.1091 108.553 46.1339 108.563 46.1694 108.573L46.1697 108.573C46.1733 108.575 46.1775 108.576 46.1823 108.577C46.1882 108.579 46.195 108.581 46.2027 108.583C46.2307 108.592 46.2707 108.604 46.3211 108.618C46.422 108.646 46.5655 108.685 46.7406 108.726C47.0892 108.809 47.5715 108.906 48.0978 108.959C48.6197 109.012 49.2126 109.026 49.7722 108.925C50.3282 108.824 50.916 108.599 51.3427 108.12C51.742 107.672 51.9095 107.103 51.9695 106.574C52.03 106.04 51.9882 105.486 51.9146 105.002C51.8403 104.514 51.7298 104.071 51.6386 103.752C51.5928 103.592 51.5514 103.462 51.521 103.37C51.5096 103.335 51.4997 103.306 51.4917 103.283C51.4779 103.231 51.4618 103.195 51.4561 103.183L51.4558 103.182C51.4403 103.147 51.425 103.121 51.4168 103.108C51.4001 103.081 51.3846 103.06 51.3778 103.05C51.324 102.979 51.265 102.925 51.2041 102.884C51.1764 102.858 51.1409 102.824 51.0969 102.782C50.9394 102.629 50.6974 102.391 50.3885 102.085C49.7715 101.474 48.8955 100.598 47.913 99.6132C45.9484 97.6435 43.5611 95.2389 41.9752 93.6386L41.5654 93.2251L40.8471 93.7838ZM49.7948 103.345C49.6948 103.246 49.5842 103.137 49.4642 103.018C48.8444 102.403 47.9662 101.526 46.9834 100.54C45.1801 98.7326 43.0216 96.5591 41.4525 94.9764L41.1483 95.2129L40.6234 95.6723L49.0357 104.085C49.3122 103.802 49.5723 103.546 49.7948 103.345ZM48.1314 105.037L39.633 96.5388L38.9222 97.1608L47.4931 105.732C47.7004 105.504 47.9158 105.269 48.1314 105.037ZM46.6106 106.706L37.9961 98.0916L37.7318 98.3966C39.2725 99.9509 41.3958 102.089 43.2023 103.9C44.1926 104.893 45.087 105.787 45.7378 106.432C45.9686 106.661 46.168 106.858 46.3298 107.016C46.4144 106.923 46.5085 106.819 46.6106 106.706ZM47.6042 107.565C47.8 107.6 48.0118 107.631 48.2305 107.653C48.687 107.699 49.1457 107.703 49.5393 107.632C49.9366 107.561 50.2038 107.425 50.3624 107.247C50.5138 107.077 50.6216 106.807 50.6648 106.426C50.7076 106.049 50.6805 105.62 50.6165 105.199C50.5787 104.951 50.5293 104.713 50.4785 104.502C50.2046 104.763 49.8746 105.101 49.5218 105.474C49.0114 106.013 48.4681 106.609 48.003 107.124C47.8967 107.241 47.7943 107.354 47.6972 107.462C47.6656 107.497 47.6346 107.531 47.6042 107.565ZM51.2638 102.939C51.2667 102.942 51.2683 102.943 51.2683 102.943C51.2683 102.943 51.2669 102.942 51.2638 102.939Z" fill="black"/>
<path fill-rule="evenodd" clip-rule="evenodd" d="M27.1556 94.0374C34.4577 94.0374 40.3771 88.1179 40.3771 80.8159C40.3771 73.5139 34.4577 67.5944 27.1556 67.5944C19.8536 67.5944 13.9341 73.5139 13.9341 80.8159C13.9341 88.1179 19.8536 94.0374 27.1556 94.0374ZM27.1556 95.3504C35.1828 95.3504 41.6902 88.8431 41.6902 80.8159C41.6902 72.7887 35.1828 66.2814 27.1556 66.2814C19.1284 66.2814 12.6211 72.7887 12.6211 80.8159C12.6211 88.8431 19.1284 95.3504 27.1556 95.3504Z" fill="#FFC107"/>
<path fill-rule="evenodd" clip-rule="evenodd" d="M26.985 96.9851C36.0072 96.9851 43.3211 89.6712 43.3211 80.6491C43.3211 71.6269 36.0072 64.313 26.985 64.313C17.9629 64.313 10.649 71.6269 10.649 80.6491C10.649 89.6712 17.9629 96.9851 26.985 96.9851ZM26.985 98.2982C36.7323 98.2982 44.6341 90.3964 44.6341 80.6491C44.6341 70.9018 36.7323 63 26.985 63C17.2377 63 9.33594 70.9018 9.33594 80.6491C9.33594 90.3964 17.2377 98.2982 26.985 98.2982Z" fill="#FFC107"/>
<path fill-rule="evenodd" clip-rule="evenodd" d="M32.9852 89.403C33.2316 89.669 33.2156 90.0844 32.9495 90.3307C30.9996 92.1362 28.6946 92.3074 27.7049 92.1424C27.3473 92.0828 27.1057 91.7446 27.1653 91.3869C27.2249 91.0293 27.5631 90.7877 27.9208 90.8473C28.5769 90.9566 30.4523 90.8535 32.0575 89.3673C32.3235 89.121 32.7389 89.1369 32.9852 89.403Z" fill="black"/>
<path fill-rule="evenodd" clip-rule="evenodd" d="M26.9792 69.7477C27.0332 70.1063 26.7863 70.4407 26.4277 70.4946C24.0601 70.851 18.8224 73.1615 17.2572 79.5476C17.1709 79.8997 16.8154 80.1152 16.4633 80.0289C16.1111 79.9426 15.8956 79.5872 15.9819 79.235C17.7084 72.1911 23.4977 69.6079 26.2323 69.1962C26.5908 69.1423 26.9252 69.3892 26.9792 69.7477Z" fill="black"/>
<path fill-rule="evenodd" clip-rule="evenodd" d="M27.3402 40.2317C36.0694 40.2317 43.1458 33.1553 43.1458 24.4261C43.1458 15.6969 36.0694 8.62054 27.3402 8.62054C18.611 8.62054 11.5346 15.6969 11.5346 24.4261C11.5346 33.1553 18.611 40.2317 27.3402 40.2317ZM27.3402 41.8522C36.9644 41.8522 44.7663 34.0503 44.7663 24.4261C44.7663 14.8019 36.9644 7 27.3402 7C17.716 7 9.91406 14.8019 9.91406 24.4261C9.91406 34.0503 17.716 41.8522 27.3402 41.8522Z" fill="#FF7A55"/>
<path fill-rule="evenodd" clip-rule="evenodd" d="M46.6144 47.7628L38.5117 39.6601L39.6576 38.5142L47.7603 46.6169C48.0768 46.9333 48.0768 47.4463 47.7603 47.7628C47.4439 48.0792 46.9309 48.0792 46.6144 47.7628Z" fill="black"/>
<path fill-rule="evenodd" clip-rule="evenodd" d="M149.822 106.792L137.9 94.8711L138.904 93.8676L150.825 105.789C151.102 106.066 151.102 106.515 150.825 106.792C150.548 107.069 150.099 107.069 149.822 106.792Z" fill="#FF7A55"/>
<path fill-rule="evenodd" clip-rule="evenodd" d="M135.509 66.3365C133.396 65.3819 131.05 64.8506 128.58 64.8506C119.272 64.8506 111.727 72.3961 111.727 81.7039C111.727 91.0117 119.272 98.5572 128.58 98.5572C135.994 98.5572 142.29 93.7696 144.545 87.1173L142.864 87.5605C140.557 93.1803 135.031 97.138 128.58 97.138C120.056 97.138 113.146 90.2279 113.146 81.7039C113.146 73.1799 120.056 66.2698 128.58 66.2698C130.172 66.2698 131.707 66.5107 133.152 66.9581L135.509 66.3365ZM136.866 68.6803L138.671 68.2043C142.776 71.2781 145.433 76.1807 145.433 81.7039C145.433 82.4982 145.378 83.2797 145.272 84.0448L143.772 84.4402C143.931 83.5521 144.014 82.6377 144.014 81.7039C144.014 76.2292 141.164 71.4203 136.866 68.6803Z" fill="black"/>
<circle cx="16.4" cy="16.4" r="15.5786" transform="matrix(-1 0 0 1 44.8008 121)" stroke="#1475C2" stroke-width="1.64286"/>
<path d="M44.4515 150.616L41.5086 153.827C41.1123 154.259 41.1268 154.927 41.5415 155.341L52.3939 166.194C52.8338 166.634 53.5512 166.619 53.9732 166.162L57.2628 162.598C57.6709 162.156 57.646 161.468 57.2071 161.056L46.008 150.557C45.5632 150.14 44.8635 150.167 44.4515 150.616Z" stroke="black" stroke-width="1.64286" stroke-linecap="round" stroke-linejoin="round"/>
<path d="M34.4004 132.6C32.2671 130.466 26.8804 127.48 22.4004 132.6" stroke="#1475C2" stroke-width="1.64286" stroke-linecap="round" stroke-linejoin="round"/>
<path d="M130.014 149.99L122.374 160.261M122.374 160.261L124.597 161.915C124.84 162.096 124.89 162.439 124.71 162.682L119.704 169.411C119.523 169.653 119.18 169.704 118.937 169.523L114.491 166.216C114.248 166.035 114.198 165.692 114.378 165.449L119.384 158.72C119.565 158.477 119.908 158.427 120.151 158.608L122.374 160.261Z" stroke="black" stroke-width="1.6443" stroke-linecap="round" stroke-linejoin="round"/>
<circle cx="16.5942" cy="16.5942" r="15.7721" transform="matrix(-0.596862 0.802344 0.802344 0.596862 135.844 113.556)" stroke="#FFC107" stroke-width="1.6443"/>
<path d="M240.63 150.386C235.827 156.914 226.457 158.227 219.69 153.249C212.923 148.271 211.386 138.935 216.188 132.407C220.991 125.879 230.361 124.566 237.128 129.544C243.895 134.522 245.432 143.858 240.63 150.386Z" stroke="black" stroke-width="1.62505"/>
<path d="M218.256 158.477L215.545 156.442C215.095 156.105 214.462 156.167 214.088 156.586L203.982 167.869C203.556 168.346 203.632 169.086 204.147 169.465L208.532 172.69C209.027 173.055 209.727 172.934 210.071 172.424L218.503 159.95C218.827 159.472 218.718 158.824 218.256 158.477Z" stroke="#1475C2" stroke-width="1.62505" stroke-linecap="round" stroke-linejoin="round"/>
<path d="M229.86 140.195L219.374 142.119M233.724 133.4L222.87 135.053" stroke="#1475C2" stroke-width="1.62505" stroke-linecap="round" stroke-linejoin="round"/>
</svg>
