<svg width="260" height="178" viewBox="0 0 260 178" fill="none" xmlns="http://www.w3.org/2000/svg">
<rect width="260" height="178" fill="white"/>
<path d="M39.4235 36.0941C42.2421 36.2745 45.7274 34.35 47.3437 33.2073C47.4598 33.1253 47.6152 33.1281 47.7291 33.213C50.5729 35.3313 53.8603 35.9734 55.4461 36.0505C55.6215 36.059 55.7633 36.2011 55.7633 36.3767V43.1628C55.7633 48.6794 50.4173 52.2265 47.6724 53.6854C47.586 53.7313 47.4847 53.7328 47.3959 53.6917C42.2513 51.3096 39.433 46.9914 39.0625 43.1628V36.4219C39.0625 36.2296 39.2316 36.0818 39.4235 36.0941Z" stroke="black" stroke-linecap="round"/>
<path d="M37.5527 34.2886C41.0409 34.5548 45.3946 32.1277 47.3689 30.7165C47.4849 30.6336 47.6419 30.636 47.7558 30.7218C51.2893 33.3831 55.395 34.165 57.3147 34.2439C57.4902 34.2511 57.6312 34.3931 57.6312 34.5687V42.9811C57.6312 49.7809 51.049 54.1458 47.6987 55.9286C47.6121 55.9747 47.5107 55.976 47.4217 55.9347C41.1054 53.0103 37.6456 47.6939 37.1914 42.9811V34.6141C37.1914 34.4218 37.3609 34.2739 37.5527 34.2886Z" stroke="black" stroke-linecap="round"/>
<path d="M41.7118 43.6378L42.899 42.4506C43.0215 42.3281 43.2196 42.3262 43.3444 42.4464L45.4368 44.4613C45.5637 44.5835 45.7657 44.5792 45.8874 44.4518L51.6814 38.3804C51.8058 38.2501 52.0135 38.2491 52.1392 38.3781L53.4251 39.6983C53.5462 39.8226 53.5453 40.0211 53.423 40.1442L45.8891 47.7296C45.7661 47.8534 45.5662 47.8549 45.4413 47.7329L41.7144 44.09C41.5878 43.9663 41.5866 43.763 41.7118 43.6378Z" stroke="black" stroke-linecap="round"/>
<path d="M41.8934 52.2458H19.318C19.1424 52.2458 19 52.1035 19 51.9279V13.3179C19 13.1423 19.1424 12.9999 19.318 12.9999H38.4892C38.5747 12.9999 38.6567 13.0344 38.7165 13.0956L47.7305 22.3099C47.7887 22.3693 47.8212 22.4491 47.8212 22.5323V30.5788" stroke="black" stroke-linecap="round"/>
<path d="M38.2129 13V22.2891C38.2129 22.4647 38.3552 22.607 38.5308 22.607H47.82" stroke="black" stroke-linecap="round"/>
<path d="M22.0664 35.0758H28.6074" stroke="black" stroke-linecap="round"/>
<path d="M22.0664 39.3683H35.1484" stroke="black" stroke-linecap="round"/>
<path d="M22.0664 43.4564H35.1484" stroke="black" stroke-linecap="round"/>
<path d="M22.0664 47.5445H36.5792" stroke="black" stroke-linecap="round"/>
<circle cx="28.6057" cy="20.1542" r="3.58811" stroke="black"/>
<path d="M35.5952 28.6532C29.9043 32.644 24.4218 30.4009 22.2193 28.6593C22.1239 28.5838 22.0845 28.4592 22.1181 28.3422C22.8006 25.9673 24.7821 24.936 25.8223 24.6797C25.9042 24.6595 25.9902 24.6783 26.0614 24.7235C28.3775 26.1957 30.6133 25.3936 31.5609 24.7334C31.6342 24.6824 31.7246 24.6597 31.8121 24.6773C34.3359 25.1875 35.432 27.21 35.7181 28.3385C35.7483 28.4578 35.6961 28.5825 35.5952 28.6532Z" stroke="black" stroke-linecap="round"/>
<path d="M115.338 50.6228V32.5117C115.338 24.6796 121.687 18.3305 129.519 18.3305H130.477C138.309 18.3305 144.659 24.6796 144.659 32.5117V50.6228" stroke="black" stroke-linecap="round"/>
<path d="M109 48.8398V55.18H114.944" stroke="black" stroke-linecap="round"/>
<path d="M109 19.321V12.9808H114.944" stroke="black" stroke-linecap="round"/>
<path d="M151 48.6417V54.9819H145.056" stroke="black" stroke-linecap="round"/>
<path d="M151 19.5191V13.1789H145.056" stroke="black" stroke-linecap="round"/>
<path d="M120.689 29.6235C122.671 23.6796 135.153 18.33 139.908 31.6048" stroke="black" stroke-linecap="round"/>
<path d="M119.698 34.1795C119.368 37.944 120.292 45.6711 130.397 45.6711C134.161 45.6711 140.303 42.6991 140.303 34.1795" stroke="black" stroke-linecap="round"/>
<path d="M127.027 28.038C123.263 29.4249 120.49 38.539 128.414 41.7091" stroke="black" stroke-linecap="round"/>
<path d="M129.355 27.3365C133.763 26.255 140.302 33.3879 134.555 40.1243" stroke="black" stroke-linecap="round"/>
<circle cx="129.802" cy="34.576" r="2.47198" stroke="black"/>
<circle cx="209.774" cy="17.774" r="3.27399" stroke="black"/>
<circle cx="220.501" cy="17.774" r="3.27399" stroke="black"/>
<circle cx="231.225" cy="17.774" r="3.27399" stroke="black"/>
<circle cx="231.225" cy="28.1028" r="3.27399" stroke="black"/>
<circle cx="209.774" cy="28.1028" r="3.27399" stroke="black"/>
<path d="M218.316 28.3984V41.8083C216.66 39.8882 212.833 36.9617 210.768 40.6165C211.43 40.8814 212.555 41.8083 212.953 42.6029C213.151 43.7946 215.137 44.1919 215.932 47.37C216.064 49.4225 217.799 53.8056 223.679 54.918C226.132 55.1696 231.312 54.3691 233.321 49.3807C233.536 48.8479 233.61 48.2698 233.61 47.6954V36.6439C233.61 35.8494 231.227 34.2604 230.035 36.8426C230.233 34.6576 227.453 33.2672 226.062 35.8494C226.261 32.8699 222.884 32.4727 222.288 34.459" stroke="black" stroke-linecap="round"/>
<path d="M226.062 35.6508V42.2056" stroke="black" stroke-linecap="round"/>
<path d="M230.035 36.6439V43.0001" stroke="black" stroke-linecap="round"/>
<path d="M222.09 42.4042V28.3014C221.892 26.3151 219.111 25.5206 218.316 28.3014V28.8973" stroke="black" stroke-linecap="round"/>
<path d="M220.499 24.3288C222.583 24.3288 224.273 26.0189 224.273 28.1032C224.273 29.6192 223.378 30.9251 222.089 31.5251V28.5124C221.89 26.5138 218.91 25.7193 218.314 28.5124V31.1784C217.353 30.4944 216.725 29.3728 216.725 28.1032C216.725 26.0189 218.415 24.3288 220.499 24.3288Z" fill="black"/>
<path d="M209.968 34.6625C211.962 34.7634 213.548 36.4127 213.548 38.432L213.543 38.6254C213.538 38.7328 213.526 38.8389 213.512 38.9437L213.348 38.8285C213.146 38.8957 212.895 38.9923 212.637 39.1127C212.689 38.8939 212.72 38.6666 212.72 38.432C212.72 36.8055 211.401 35.486 209.774 35.4857C208.148 35.4857 206.828 36.8053 206.828 38.432C206.828 40.0585 208.148 41.3773 209.774 41.3773C210.404 41.3773 210.985 41.1775 211.464 40.8412L212.153 41.3588C211.504 41.8872 210.677 42.2054 209.774 42.2055L209.58 42.2006C207.65 42.1029 206.103 40.5554 206.005 38.6254L206 38.432C206 36.3477 207.69 34.6576 209.774 34.6576L209.968 34.6625Z" fill="black"/>
<path d="M28.6837 98.1885V93.4604C28.6837 93.2924 28.5475 93.1562 28.3796 93.1562H24.4428C24.2748 93.1562 24.1387 93.2924 24.1387 93.4604V111.032C24.1387 111.2 24.2748 111.336 24.4428 111.336H45.9669C46.1349 111.336 46.271 111.2 46.271 111.032V93.4604C46.271 93.2924 46.1349 93.1562 45.9669 93.1562H42.0302C41.8622 93.1562 41.726 93.2924 41.726 93.4604V98.2055C41.726 98.2634 41.7105 98.319 41.6784 98.3671C40.5471 100.058 37.0802 102.462 35.3402 103.546C35.2551 103.599 35.1502 103.606 35.0592 103.563C32.328 102.297 29.7674 99.6417 28.7486 98.3756C28.7058 98.3223 28.6837 98.2569 28.6837 98.1885Z" stroke="black" stroke-linecap="round"/>
<path d="M23.9403 94.3419C22.4941 94.9335 19.644 97.2964 19.0039 101.234C19.0013 101.25 19 101.266 19 101.282V111.032C19 111.2 19.1362 111.336 19.3042 111.336H26.114" stroke="black" stroke-linecap="round"/>
<path d="M46.6645 94.1443C48.1107 94.7359 51.3544 97.0988 51.9961 101.037C51.9987 101.052 52 101.069 52 101.085V111.032C52 111.2 51.8638 111.336 51.6958 111.336H44.886" stroke="black" stroke-linecap="round"/>
<path d="M35.2031 103.63V111.139" stroke="black" stroke-linecap="round"/>
<path d="M27.4319 79.9164H43.174C43.2583 79.9164 43.3389 79.8814 43.3964 79.8197L45.941 77.0934C46.0214 77.0072 46.0448 76.8823 46.001 76.7729L44.5683 73.1912C44.5221 73.0757 44.4103 73 44.2859 73H26.1323C26.003 73 25.8879 73.0817 25.8452 73.2037L24.594 76.7786C24.5566 76.8853 24.5815 77.004 24.6587 77.0866L27.2096 79.8197C27.2671 79.8814 27.3476 79.9164 27.4319 79.9164Z" stroke="black" stroke-linecap="round"/>
<path d="M37.3374 74.1857H33.2357C33.1114 74.1857 32.9977 74.2611 32.9608 74.3799C32.4121 76.1487 34.2276 77.36 35.071 77.8623C35.1545 77.912 35.2575 77.9171 35.3455 77.8761C37.5196 76.8631 37.7435 75.2794 37.6201 74.4183C37.6003 74.2802 37.477 74.1857 37.3374 74.1857Z" stroke="black" stroke-linecap="round"/>
<path d="M27.3008 79.9164V79.9164C27.3008 82.0991 29.0702 83.8686 31.253 83.8686H39.5526C41.7354 83.8686 43.5048 82.0991 43.5048 79.9164V79.9164" stroke="black" stroke-linecap="round"/>
<path d="M27.3008 79.9164V86.3737C27.3008 89.9013 30.1605 92.761 33.6881 92.761H37.1176C40.6451 92.761 43.5048 89.9013 43.5048 86.3737V80.114" stroke="black" stroke-linecap="round"/>
<path d="M31.4492 92.5V95.7252C31.4492 97.9079 33.2187 99.6774 35.4014 99.6774V99.6774C37.5842 99.6774 39.3536 97.9079 39.3536 95.7252V92.5" stroke="black" stroke-linecap="round"/>
<path d="M28.6816 93.5515H31.2506" stroke="black" stroke-linecap="round"/>
<path d="M39.75 93.5515H41.7261" stroke="black" stroke-linecap="round"/>
<path d="M30.9553 106.199H28.3864C27.5678 106.199 26.9043 106.862 26.9043 107.681C26.9043 108.499 27.5678 109.163 28.3864 109.163H30.9553C31.7738 109.163 32.4374 108.499 32.4374 107.681C32.4374 106.862 31.7738 106.199 30.9553 106.199Z" stroke="black" stroke-linecap="round"/>
<path d="M122.549 86.1506C125.222 86.3458 128.551 84.5081 130.068 83.435C130.162 83.369 130.287 83.371 130.378 83.4393C133.083 85.4556 136.223 86.0523 137.701 86.1151C137.843 86.1211 137.957 86.2357 137.957 86.3773V92.7668C137.957 97.9402 132.907 101.262 130.333 102.621C130.263 102.657 130.182 102.658 130.111 102.626C125.262 100.399 122.607 96.3533 122.258 92.7668V86.4136C122.258 86.2585 122.394 86.1394 122.549 86.1506Z" stroke="black" stroke-linecap="round"/>
<path d="M127.635 93.1075L129.57 95.043L133.764 90.6344" stroke="black" stroke-linecap="round"/>
<path d="M118.325 80.8187C118.435 81.056 118.66 81.2198 118.92 81.2514L120.294 81.4174L119.28 82.3607C119.089 82.5389 119.003 82.8033 119.054 83.0599L119.319 84.4183L118.109 83.7455C117.881 83.6185 117.603 83.6183 117.374 83.7455L116.164 84.4174L116.431 83.0599C116.481 82.8032 116.395 82.5389 116.203 82.3607L115.188 81.4174L116.563 81.2514C116.823 81.2199 117.049 81.0561 117.159 80.8187L117.742 79.5619L118.325 80.8187Z" stroke="black"/>
<path d="M130.583 75.4424C130.693 75.6796 130.918 75.8434 131.178 75.875L132.552 76.041L131.538 76.9844C131.347 77.1625 131.261 77.4269 131.312 77.6836L131.577 79.042L130.367 78.3691C130.139 78.2421 129.86 78.242 129.632 78.3691L128.422 79.041L128.688 77.6836C128.739 77.4268 128.653 77.1625 128.461 76.9844L127.446 76.041L128.821 75.875C129.081 75.8435 129.307 75.6797 129.417 75.4424L130 74.1855L130.583 75.4424Z" stroke="black"/>
<path d="M143.056 80.8187C143.166 81.056 143.391 81.2198 143.65 81.2514L145.024 81.4174L144.011 82.3607C143.819 82.5389 143.734 82.8033 143.784 83.0599L144.05 84.4183L142.84 83.7455C142.611 83.6185 142.333 83.6183 142.104 83.7455L140.895 84.4174L141.161 83.0599C141.211 82.8032 141.125 82.5389 140.934 82.3607L139.919 81.4174L141.294 81.2514C141.554 81.2199 141.779 81.0561 141.89 80.8187L142.473 79.5619L143.056 80.8187Z" stroke="black"/>
<path d="M147.356 90.7112C147.467 90.9484 147.692 91.1122 147.951 91.1438L149.325 91.3098L148.312 92.2532C148.12 92.4313 148.035 92.6958 148.085 92.9524L148.351 94.3108L147.141 93.638C146.912 93.5109 146.634 93.5108 146.405 93.638L145.195 94.3098L145.462 92.9524C145.512 92.6956 145.426 92.4313 145.234 92.2532L144.22 91.3098L145.595 91.1438C145.854 91.1123 146.08 90.9485 146.19 90.7112L146.773 89.4544L147.356 90.7112Z" stroke="black"/>
<path d="M114.454 90.7112C114.564 90.9484 114.789 91.1122 115.049 91.1438L116.423 91.3098L115.409 92.2532C115.218 92.4313 115.132 92.6958 115.183 92.9524L115.448 94.3108L114.238 93.638C114.01 93.5109 113.731 93.5108 113.503 93.638L112.293 94.3098L112.56 92.9524C112.61 92.6956 112.524 92.4313 112.332 92.2532L111.317 91.3098L112.692 91.1438C112.952 91.1123 113.178 90.9485 113.288 90.7112L113.871 89.4544L114.454 90.7112Z" stroke="black"/>
<path d="M118.325 102.324C118.435 102.561 118.66 102.725 118.92 102.757L120.294 102.923L119.28 103.866C119.089 104.044 119.003 104.309 119.054 104.565L119.319 105.924L118.109 105.251C117.881 105.124 117.603 105.124 117.374 105.251L116.164 105.923L116.431 104.565C116.481 104.309 116.395 104.044 116.203 103.866L115.188 102.923L116.563 102.757C116.823 102.725 117.049 102.561 117.159 102.324L117.742 101.067L118.325 102.324Z" stroke="black"/>
<path d="M130.583 107.7C130.693 107.938 130.918 108.102 131.178 108.133L132.552 108.299L131.538 109.242C131.347 109.421 131.261 109.685 131.312 109.942L131.577 111.3L130.367 110.627C130.139 110.5 129.86 110.5 129.632 110.627L128.422 111.299L128.688 109.942C128.739 109.685 128.653 109.421 128.461 109.242L127.446 108.299L128.821 108.133C129.081 108.102 129.307 107.938 129.417 107.7L130 106.444L130.583 107.7Z" stroke="black"/>
<path d="M143.485 102.324C143.596 102.561 143.82 102.725 144.08 102.757L145.454 102.923L144.44 103.866C144.249 104.044 144.164 104.309 144.214 104.565L144.479 105.924L143.27 105.251C143.041 105.124 142.763 105.124 142.534 105.251L141.324 105.923L141.591 104.565C141.641 104.309 141.555 104.044 141.363 103.866L140.349 102.923L141.724 102.757C141.983 102.725 142.209 102.561 142.319 102.324L142.902 101.067L143.485 102.324Z" stroke="black"/>
<rect x="204.932" y="104.271" width="32.633" height="7.22936" stroke="black"/>
<path d="M209.262 104.128V94.0206C209.262 87.3514 214.668 81.945 221.337 81.945V81.945C228.007 81.945 233.413 87.3514 233.413 94.0206V104.128" stroke="black" stroke-linecap="round"/>
<path d="M209.797 75.5046L212.48 81.5872" stroke="black" stroke-linecap="round"/>
<path d="M233.393 76.4253L228.962 81.382" stroke="black" stroke-linecap="round"/>
<path d="M239.611 82.6606L233.793 85.877" stroke="black" stroke-linecap="round"/>
<path d="M203 82.6606L208.818 85.877" stroke="black" stroke-linecap="round"/>
<path d="M221.238 73L221.191 79.648" stroke="black" stroke-linecap="round"/>
<path d="M213.555 93.5734C213.793 90.9495 215.809 85.845 221.963 86.4174" stroke="black" stroke-linecap="round"/>
<path d="M221.606 100.55C225.183 99.4771 228.045 98.0459 228.045 93.9312" stroke="black" stroke-linecap="round"/>
<path d="M32.5486 136.823H17.7882C16.2483 136.823 15 138.071 15 139.611V163.212C15 164.752 16.2483 166 17.7882 166H56.8232C58.3631 166 59.6114 164.752 59.6114 163.212V139.611C59.6114 138.071 58.3631 136.823 56.8232 136.823H41.64" stroke="black" stroke-linecap="round"/>
<path d="M18.3828 146.126H30.8571" stroke="black" stroke-linecap="round"/>
<path d="M18.5938 149.72H31.068" stroke="black" stroke-linecap="round"/>
<path d="M18.5938 153.526H31.068" stroke="black" stroke-linecap="round"/>
<circle cx="47.5611" cy="146.971" r="4.78571" stroke="black"/>
<path d="M40.5947 162.406C40.4537 159.587 41.6518 153.906 47.5718 153.737C49.968 153.667 54.7181 155.302 54.549 162.406" stroke="black" stroke-linecap="round"/>
<path d="M41.1858 129H33.0028C32.8103 129 32.6543 129.156 32.6543 129.349V137.246C32.6543 139.698 34.6422 141.686 37.0943 141.686C39.5464 141.686 41.5343 139.698 41.5343 137.246V129.349C41.5343 129.156 41.3783 129 41.1858 129Z" stroke="black" stroke-linecap="round"/>
<circle cx="37.2002" cy="137.034" r="2.11429" fill="black"/>
<path d="M129.411 146.961C127.532 148.322 122.748 150.069 118.539 146.276C118.472 146.216 118.38 146.19 118.293 146.213C115.463 146.985 110.083 149.875 110.001 155.651C110 155.734 110.036 155.812 110.103 155.861C112.629 157.702 120.193 160.778 131.176 158.922" stroke="black" stroke-linecap="round"/>
<path d="M131.961 154.768V144.943C131.961 144.856 132.004 144.774 132.076 144.725C139.326 139.72 146.891 142.589 149.893 144.728C149.962 144.777 149.999 144.855 149.999 144.939V154.776C149.999 154.795 149.998 154.813 149.994 154.832C149.052 159.14 143.772 163.292 141.115 164.918C141.031 164.97 140.926 164.968 140.842 164.916C135.015 161.341 132.509 156.739 131.97 154.838C131.964 154.815 131.961 154.792 131.961 154.768Z" stroke="black" stroke-linecap="round"/>
<path d="M134.119 154.392V147.081C134.119 146.995 134.162 146.913 134.233 146.864C139.561 143.161 145.113 145.271 147.346 146.866C147.414 146.915 147.452 146.993 147.452 147.077V154.4C147.452 154.419 147.45 154.437 147.446 154.455C146.751 157.657 142.896 160.742 140.922 161.975C140.838 162.027 140.731 162.026 140.647 161.973C136.374 159.306 134.53 155.885 134.128 154.461C134.122 154.438 134.119 154.416 134.119 154.392Z" stroke="black" stroke-linecap="round"/>
<path d="M137.254 152.059L139.608 154.594C139.713 154.708 139.892 154.708 139.997 154.594L144.705 149.51" stroke="black" stroke-linecap="round"/>
<circle cx="124.509" cy="136.374" r="7.93105" stroke="black"/>
<path d="M221.461 148.625C224.319 148.814 227.859 146.868 229.493 145.717C229.606 145.638 229.756 145.641 229.867 145.723C232.752 147.863 236.09 148.507 237.691 148.583C237.862 148.591 238.001 148.729 238.001 148.9V155.734C238.001 161.285 232.586 164.854 229.812 166.319C229.728 166.363 229.63 166.364 229.544 166.325C224.337 163.93 221.484 159.586 221.109 155.734V148.944C221.109 148.757 221.274 148.613 221.461 148.625Z" stroke="black" stroke-linecap="round"/>
<path d="M227.084 156.809L228.732 158.766L233.058 154.337" stroke="black" stroke-linecap="round"/>
<path d="M225.951 146.097V131.48C225.951 130.11 224.841 129 223.471 129H209.48C208.11 129 207 130.11 207 131.48V161.126C207 162.496 208.11 163.606 209.48 163.606H221.419" stroke="black" stroke-linecap="round"/>
<path d="M207.102 158.148H219.976" stroke="black" stroke-linecap="round"/>
<path d="M214.723 160.929H217.916" stroke="black" stroke-linecap="round"/>
<path d="M215.43 130.955H217.629" stroke="black" stroke-linecap="round"/>
</svg>
