<svg width="859" height="364" viewBox="0 0 859 364" fill="none" xmlns="http://www.w3.org/2000/svg">
<rect x="4.5" width="73" height="73" rx="5" fill="#F2F2F2"/>
<rect x="115.5" width="73" height="73" rx="5" fill="#F2F2F2"/>
<rect x="226.5" width="73" height="73" rx="5" fill="#F2F2F2"/>
<rect x="337.5" width="73" height="73" rx="5" fill="#F2F2F2"/>
<rect x="448.5" width="73" height="73" rx="5" fill="#F2F2F2"/>
<rect x="559.5" width="73" height="73" rx="5" fill="#F2F2F2"/>
<rect x="670.5" width="73" height="73" rx="5" fill="#F2F2F2"/>
<rect x="781.5" width="73" height="73" rx="5" fill="#F2F2F2"/>
<rect x="4.5" y="97" width="73" height="73" rx="5" fill="#F2F2F2"/>
<rect x="115.5" y="97" width="73" height="73" rx="5" fill="#F2F2F2"/>
<rect x="226.5" y="97" width="73" height="73" rx="5" fill="#F2F2F2"/>
<rect x="337.5" y="97" width="73" height="73" rx="5" fill="#F2F2F2"/>
<rect x="448.5" y="97" width="73" height="73" rx="5" fill="#F2F2F2"/>
<rect x="559.5" y="97" width="73" height="73" rx="5" fill="#F2F2F2"/>
<rect x="670.5" y="97" width="73" height="73" rx="5" fill="#F2F2F2"/>
<rect x="781.5" y="97" width="73" height="73" rx="5" fill="#F2F2F2"/>
<rect x="4.5" y="194" width="73" height="73" rx="5" fill="#F2F2F2"/>
<rect x="115.5" y="194" width="73" height="73" rx="5" fill="#F2F2F2"/>
<rect x="226.5" y="194" width="73" height="73" rx="5" fill="#F2F2F2"/>
<rect x="337.5" y="194" width="73" height="73" rx="5" fill="#F2F2F2"/>
<rect x="448.5" y="194" width="73" height="73" rx="5" fill="#F2F2F2"/>
<rect x="559.5" y="194" width="73" height="73" rx="5" fill="#F2F2F2"/>
<rect x="670.5" y="194" width="73" height="73" rx="5" fill="#F2F2F2"/>
<rect x="781.5" y="194" width="73" height="73" rx="5" fill="#F2F2F2"/>
<rect x="4.5" y="291" width="73" height="73" rx="5" fill="#F2F2F2"/>
<rect x="115.5" y="291" width="73" height="73" rx="5" fill="#F2F2F2"/>
<rect x="226.5" y="291" width="73" height="73" rx="5" fill="#F2F2F2"/>
<rect x="337.5" y="291" width="73" height="73" rx="5" fill="#F2F2F2"/>
<rect x="448.5" y="291" width="73" height="73" rx="5" fill="#F2F2F2"/>
<rect x="559.5" y="291" width="73" height="73" rx="5" fill="#F2F2F2"/>
<rect x="670.5" y="291" width="73" height="73" rx="5" fill="#F2F2F2"/>
<rect x="781.5" y="291" width="73" height="73" rx="5" fill="#F2F2F2"/>
</svg>
