<svg width="260" height="178" viewBox="0 0 260 178" fill="none" xmlns="http://www.w3.org/2000/svg">
<g clip-path="url(#clip0_2693_3366)">
<path d="M0.231562 37.7687C-0.0771875 37.4599 -0.0771875 36.958 0.231562 36.6493L13.7928 23.088C14.1016 22.7793 14.6035 22.7793 14.9122 23.088C15.221 23.3968 15.221 23.8987 14.9122 24.2074L1.35098 37.7687C1.04223 38.0774 0.541896 38.0774 0.231562 37.7687Z" fill="#FF7A55"/>
<path d="M21.0704 30.5001C20.4624 30.5001 19.8544 30.2689 19.3904 29.8066L8.19469 18.6109C7.26844 17.6846 7.26844 16.1789 8.19469 15.2526L8.94519 14.4989C9.69252 13.7516 10.6869 13.3399 11.7445 13.3399H13.6002C14.2351 13.3399 14.8304 13.0929 15.2785 12.6449L19.8179 8.10702C20.3769 7.54811 20.57 6.73586 20.3199 5.98536C19.8797 4.66327 20.2185 3.22877 21.2034 2.24394L22.7503 0.697023C23.6765 -0.227643 25.1839 -0.229226 26.1101 0.697023L37.3059 11.8928C38.2321 12.819 38.2321 14.3264 37.3059 15.2526L35.7589 16.7995C34.7741 17.7859 33.3396 18.1264 32.0175 17.6846C31.2654 17.4344 30.4548 17.626 29.8959 18.1849L25.358 22.7228C24.9084 23.1709 24.6629 23.7678 24.6629 24.4027V26.2568C24.6629 27.3144 24.2513 28.3088 23.5039 29.0561L22.7519 29.8082C22.2864 30.2689 21.6784 30.5001 21.0704 30.5001ZM11.7445 14.9233C11.1096 14.9233 10.5143 15.1703 10.0646 15.6184L9.31252 16.3704C9.00377 16.6792 9.00377 17.1811 9.31252 17.4899L20.5083 28.6856C20.817 28.9944 21.3189 28.9944 21.6277 28.6856L22.3798 27.9335C22.8279 27.4839 23.0749 26.8885 23.0749 26.2536V24.3995C23.0749 23.3419 23.4865 22.3475 24.2339 21.6002L28.7717 17.0624C29.7565 16.0759 31.1894 15.7339 32.5131 16.1789C33.2636 16.4274 34.0743 16.2359 34.6348 15.6769L36.1817 14.13C36.4904 13.8213 36.4904 13.3194 36.1817 13.009L24.9859 1.81327C24.6788 1.50611 24.1753 1.50452 23.8649 1.81327L22.318 3.36019C21.7591 3.91911 21.5675 4.73294 21.8177 5.48186C22.2579 6.80394 21.919 8.23844 20.9326 9.22327L16.3948 13.7611C15.6474 14.5084 14.6531 14.9201 13.5954 14.9201H11.7445V14.9233Z" fill="#110638"/>
</g>
<g clip-path="url(#clip1_2693_3366)">
<path d="M119.376 15.8333H106.71C106.273 15.8333 105.918 15.4787 105.918 15.0417C105.918 14.6047 106.273 14.25 106.71 14.25H119.376C119.813 14.25 120.168 14.6047 120.168 15.0417C120.168 15.4787 119.813 15.8333 119.376 15.8333Z" fill="#6766DB"/>
<path d="M113.042 30.0833C104.748 30.0833 98 23.3352 98 15.0417C98 6.74817 104.748 0 113.042 0C121.335 0 128.083 6.74817 128.083 15.0417C128.083 23.3352 121.335 30.0833 113.042 30.0833ZM113.042 1.58333C105.621 1.58333 99.5833 7.62058 99.5833 15.0417C99.5833 22.4628 105.621 28.5 113.042 28.5C120.463 28.5 126.5 22.4628 126.5 15.0417C126.5 7.62058 120.463 1.58333 113.042 1.58333Z" fill="#110638"/>
<path d="M135.209 37.9996C135.006 37.9996 134.803 37.922 134.648 37.7685L122.558 25.6781C122.249 25.3694 122.249 24.8675 122.558 24.5587C122.866 24.25 123.368 24.25 123.677 24.5587L135.767 36.649C136.076 36.9578 136.076 37.4597 135.767 37.7685C135.614 37.922 135.411 37.9996 135.209 37.9996Z" fill="#110638"/>
</g>
<g clip-path="url(#clip2_2693_3366)">
<path d="M225.292 37.9997H204.708C202.526 37.9997 200.75 36.2232 200.75 34.0413V11.8747C200.75 11.4377 201.105 11.083 201.542 11.083C201.979 11.083 202.333 11.4377 202.333 11.8747V34.0413C202.333 35.3508 203.399 36.4163 204.708 36.4163H225.292C226.601 36.4163 227.667 35.3508 227.667 34.0413V11.8747C227.667 11.4377 228.021 11.083 228.458 11.083C228.895 11.083 229.25 11.4377 229.25 11.8747V34.0413C229.25 36.2232 227.473 37.9997 225.292 37.9997Z" fill="#110638"/>
<path d="M222.124 6.33333C221.687 6.33333 221.332 5.97867 221.332 5.54167V2.375C221.332 1.938 220.977 1.58333 220.54 1.58333H209.457C209.02 1.58333 208.665 1.938 208.665 2.375V5.54167C208.665 5.97867 208.311 6.33333 207.874 6.33333C207.437 6.33333 207.082 5.97867 207.082 5.54167V2.375C207.082 1.06558 208.148 0 209.457 0H220.54C221.85 0 222.915 1.06558 222.915 2.375V5.54167C222.915 5.97867 222.561 6.33333 222.124 6.33333Z" fill="#110638"/>
<path d="M214.999 31.667C214.562 31.667 214.207 31.3123 214.207 30.8753V18.2087C214.207 17.7717 214.562 17.417 214.999 17.417C215.436 17.417 215.79 17.7717 215.79 18.2087V30.8753C215.79 31.3123 215.436 31.667 214.999 31.667Z" fill="#110638"/>
<path d="M207.874 31.667C207.437 31.667 207.082 31.3123 207.082 30.8753V18.2087C207.082 17.7717 207.437 17.417 207.874 17.417C208.311 17.417 208.665 17.7717 208.665 18.2087V30.8753C208.665 31.3123 208.311 31.667 207.874 31.667Z" fill="#110638"/>
<path d="M222.124 31.667C221.687 31.667 221.332 31.3123 221.332 30.8753V18.2087C221.332 17.7717 221.687 17.417 222.124 17.417C222.561 17.417 222.915 17.7717 222.915 18.2087V30.8753C222.915 31.3123 222.561 31.667 222.124 31.667Z" fill="#110638"/>
<path d="M231.624 12.6667H198.374C197.937 12.6667 197.582 12.312 197.582 11.875V8.70833C197.582 6.5265 199.359 4.75 201.54 4.75H228.457C230.639 4.75 232.415 6.5265 232.415 8.70833V11.875C232.415 12.312 232.061 12.6667 231.624 12.6667Z" fill="#FCC34A"/>
</g>
<path d="M21.3763 90.5833H3.95964C3.52264 90.5833 3.16797 90.2287 3.16797 89.7917V70.7917C3.16797 70.3547 3.52264 70 3.95964 70H21.3763C22.6857 70 23.7513 71.0656 23.7513 72.375V88.2083C23.7513 89.5178 22.6857 90.5833 21.3763 90.5833ZM4.7513 89H21.3763C21.8117 89 22.168 88.6453 22.168 88.2083V72.375C22.168 71.938 21.8117 71.5833 21.3763 71.5833H4.7513V89Z" fill="#110638"/>
<path d="M32.4583 96.9163H16.625C15.3156 96.9163 14.25 95.8508 14.25 94.5413V89.7913C14.25 89.3543 14.6047 88.9997 15.0417 88.9997C15.4787 88.9997 15.8333 89.3543 15.8333 89.7913V94.5413C15.8333 94.9783 16.1896 95.333 16.625 95.333H32.4583C32.8938 95.333 33.25 94.9783 33.25 94.5413V78.708C33.25 78.271 32.8938 77.9163 32.4583 77.9163H22.9583C22.5213 77.9163 22.1667 77.5617 22.1667 77.1247C22.1667 76.6877 22.5213 76.333 22.9583 76.333H32.4583C33.7678 76.333 34.8333 77.3986 34.8333 78.708V94.5413C34.8333 95.8508 33.7678 96.9163 32.4583 96.9163Z" fill="#110638"/>
<path d="M3.95964 108C3.52264 108 3.16797 107.645 3.16797 107.208V70.7917C3.16797 70.3547 3.52264 70 3.95964 70C4.39664 70 4.7513 70.3547 4.7513 70.7917V107.208C4.7513 107.645 4.39664 108 3.95964 108Z" fill="#FCC34A"/>
<g clip-path="url(#clip3_2693_3366)">
<path d="M132.042 108H101.958C99.7749 108 98 106.225 98 104.041V96.1247C98 95.6877 98.3547 95.333 98.7917 95.333C99.2287 95.333 99.5833 95.6877 99.5833 96.1247V104.041C99.5833 105.351 100.649 106.416 101.958 106.416H132.042C133.351 106.416 134.417 105.351 134.417 104.041V96.1247C134.417 95.6877 134.771 95.333 135.208 95.333C135.645 95.333 136 95.6877 136 96.1247V104.041C136 106.225 134.225 108 132.042 108Z" fill="#6766DB"/>
<path d="M116.999 96.9163C116.562 96.9163 116.207 96.5617 116.207 96.1247V71.1872C116.207 70.7502 116.562 70.3955 116.999 70.3955C117.436 70.3955 117.79 70.7502 117.79 71.1872V96.1247C117.79 96.5617 117.436 96.9163 116.999 96.9163Z" fill="#110638"/>
<path d="M123.334 77.9165C123.131 77.9165 122.929 77.8389 122.774 77.6853L117.001 71.9109L111.228 77.6853C110.919 77.994 110.417 77.994 110.109 77.6853C109.8 77.3765 109.8 76.8746 110.109 76.5659L116.442 70.2325C116.751 69.9238 117.253 69.9238 117.561 70.2325L123.895 76.5659C124.203 76.8746 124.203 77.3765 123.895 77.6853C123.739 77.8389 123.537 77.9165 123.334 77.9165Z" fill="#110638"/>
</g>
<g clip-path="url(#clip4_2693_3366)">
<path d="M196.232 107.769C195.923 107.46 195.923 106.958 196.232 106.649L209.793 93.088C210.102 92.7793 210.603 92.7793 210.912 93.088C211.221 93.3968 211.221 93.8987 210.912 94.2074L197.351 107.769C197.042 108.077 196.542 108.077 196.232 107.769Z" fill="#FF7A55"/>
<path d="M217.07 100.5C216.462 100.5 215.854 100.269 215.39 99.8066L204.195 88.6109C203.268 87.6846 203.268 86.1789 204.195 85.2526L204.945 84.4989C205.693 83.7516 206.687 83.3399 207.745 83.3399H209.6C210.235 83.3399 210.83 83.0929 211.279 82.6449L215.818 78.107C216.377 77.5481 216.57 76.7359 216.32 75.9854C215.88 74.6633 216.219 73.2288 217.203 72.2439L218.75 70.697C219.677 69.7724 221.184 69.7708 222.11 70.697L233.306 81.8928C234.232 82.819 234.232 84.3264 233.306 85.2526L231.759 86.7995C230.774 87.7859 229.34 88.1264 228.018 87.6846C227.265 87.4344 226.455 87.626 225.896 88.1849L221.358 92.7228C220.908 93.1709 220.663 93.7678 220.663 94.4027V96.2568C220.663 97.3144 220.251 98.3088 219.504 99.0561L218.752 99.8082C218.286 100.269 217.678 100.5 217.07 100.5ZM207.745 84.9233C207.11 84.9233 206.514 85.1703 206.065 85.6184L205.313 86.3704C205.004 86.6792 205.004 87.1811 205.313 87.4899L216.508 98.6856C216.817 98.9944 217.319 98.9944 217.628 98.6856L218.38 97.9335C218.828 97.4839 219.075 96.8885 219.075 96.2536V94.3995C219.075 93.3419 219.487 92.3475 220.234 91.6002L224.772 87.0624C225.757 86.0759 227.189 85.7339 228.513 86.1789C229.264 86.4274 230.074 86.2359 230.635 85.6769L232.182 84.13C232.49 83.8213 232.49 83.3194 232.182 83.009L220.986 71.8133C220.679 71.5061 220.175 71.5045 219.865 71.8133L218.318 73.3602C217.759 73.9191 217.568 74.7329 217.818 75.4819C218.258 76.8039 217.919 78.2384 216.933 79.2233L212.395 83.7611C211.647 84.5084 210.653 84.9201 209.595 84.9201H207.745V84.9233Z" fill="#110638"/>
</g>
<g clip-path="url(#clip5_2693_3366)">
<path d="M21.3763 155.833H8.70964C8.27264 155.833 7.91797 155.479 7.91797 155.042C7.91797 154.605 8.27264 154.25 8.70964 154.25H21.3763C21.8133 154.25 22.168 154.605 22.168 155.042C22.168 155.479 21.8133 155.833 21.3763 155.833Z" fill="#6766DB"/>
<path d="M15.0417 170.083C6.74817 170.083 0 163.335 0 155.042C0 146.748 6.74817 140 15.0417 140C23.3352 140 30.0833 146.748 30.0833 155.042C30.0833 163.335 23.3352 170.083 15.0417 170.083ZM15.0417 141.583C7.62058 141.583 1.58333 147.621 1.58333 155.042C1.58333 162.463 7.62058 168.5 15.0417 168.5C22.4628 168.5 28.5 162.463 28.5 155.042C28.5 147.621 22.4628 141.583 15.0417 141.583Z" fill="#110638"/>
<path d="M37.2086 178C37.0059 178 36.8032 177.922 36.6481 177.768L24.5577 165.678C24.249 165.369 24.249 164.867 24.5577 164.559C24.8665 164.25 25.3684 164.25 25.6771 164.559L37.7675 176.649C38.0762 176.958 38.0762 177.46 37.7675 177.768C37.6139 177.922 37.4112 178 37.2086 178Z" fill="#110638"/>
</g>
<g clip-path="url(#clip6_2693_3366)">
<path d="M127.292 178H106.708C104.526 178 102.75 176.223 102.75 174.041V151.875C102.75 151.438 103.105 151.083 103.542 151.083C103.979 151.083 104.333 151.438 104.333 151.875V174.041C104.333 175.351 105.399 176.416 106.708 176.416H127.292C128.601 176.416 129.667 175.351 129.667 174.041V151.875C129.667 151.438 130.021 151.083 130.458 151.083C130.895 151.083 131.25 151.438 131.25 151.875V174.041C131.25 176.223 129.473 178 127.292 178Z" fill="#110638"/>
<path d="M124.124 146.333C123.687 146.333 123.332 145.979 123.332 145.542V142.375C123.332 141.938 122.977 141.583 122.54 141.583H111.457C111.02 141.583 110.665 141.938 110.665 142.375V145.542C110.665 145.979 110.311 146.333 109.874 146.333C109.437 146.333 109.082 145.979 109.082 145.542V142.375C109.082 141.066 110.148 140 111.457 140H122.54C123.85 140 124.915 141.066 124.915 142.375V145.542C124.915 145.979 124.561 146.333 124.124 146.333Z" fill="#110638"/>
<path d="M116.999 171.667C116.562 171.667 116.207 171.312 116.207 170.875V158.209C116.207 157.772 116.562 157.417 116.999 157.417C117.436 157.417 117.79 157.772 117.79 158.209V170.875C117.79 171.312 117.436 171.667 116.999 171.667Z" fill="#110638"/>
<path d="M109.874 171.667C109.437 171.667 109.082 171.312 109.082 170.875V158.209C109.082 157.772 109.437 157.417 109.874 157.417C110.311 157.417 110.665 157.772 110.665 158.209V170.875C110.665 171.312 110.311 171.667 109.874 171.667Z" fill="#110638"/>
<path d="M124.124 171.667C123.687 171.667 123.332 171.312 123.332 170.875V158.209C123.332 157.772 123.687 157.417 124.124 157.417C124.561 157.417 124.915 157.772 124.915 158.209V170.875C124.915 171.312 124.561 171.667 124.124 171.667Z" fill="#110638"/>
<path d="M133.624 152.667H100.374C99.9367 152.667 99.582 152.312 99.582 151.875V148.708C99.582 146.527 101.359 144.75 103.54 144.75H130.457C132.639 144.75 134.415 146.527 134.415 148.708V151.875C134.415 152.312 134.061 152.667 133.624 152.667Z" fill="#FCC34A"/>
</g>
<g clip-path="url(#clip7_2693_3366)">
<path d="M196.232 177.769C195.923 177.46 195.923 176.958 196.232 176.649L213.727 159.153C214.036 158.845 214.538 158.845 214.847 159.153C215.156 159.462 215.156 159.964 214.847 160.273L197.351 177.769C197.042 178.077 196.542 178.077 196.232 177.769Z" fill="#FCC34A"/>
<path d="M222.125 163.75C215.576 163.75 210.25 158.424 210.25 151.875C210.25 145.326 215.576 140 222.125 140C228.674 140 234 145.326 234 151.875C234 158.424 228.674 163.75 222.125 163.75ZM222.125 141.583C216.45 141.583 211.833 146.2 211.833 151.875C211.833 157.55 216.45 162.167 222.125 162.167C227.8 162.167 232.417 157.55 232.417 151.875C232.417 146.2 227.8 141.583 222.125 141.583Z" fill="#110638"/>
<path d="M215.792 152.667C215.355 152.667 215 152.312 215 151.875C215 147.947 218.197 144.75 222.125 144.75C222.562 144.75 222.917 145.105 222.917 145.542C222.917 145.979 222.562 146.333 222.125 146.333C219.069 146.333 216.583 148.819 216.583 151.875C216.583 152.312 216.229 152.667 215.792 152.667Z" fill="#110638"/>
</g>
<defs>
<clipPath id="clip0_2693_3366">
<rect width="38" height="38" fill="white"/>
</clipPath>
<clipPath id="clip1_2693_3366">
<rect width="38" height="38" fill="white" transform="translate(98)"/>
</clipPath>
<clipPath id="clip2_2693_3366">
<rect width="38" height="38" fill="white" transform="translate(196)"/>
</clipPath>
<clipPath id="clip3_2693_3366">
<rect width="38" height="38" fill="white" transform="translate(98 70)"/>
</clipPath>
<clipPath id="clip4_2693_3366">
<rect width="38" height="38" fill="white" transform="translate(196 70)"/>
</clipPath>
<clipPath id="clip5_2693_3366">
<rect width="38" height="38" fill="white" transform="translate(0 140)"/>
</clipPath>
<clipPath id="clip6_2693_3366">
<rect width="38" height="38" fill="white" transform="translate(98 140)"/>
</clipPath>
<clipPath id="clip7_2693_3366">
<rect width="38" height="38" fill="white" transform="translate(196 140)"/>
</clipPath>
</defs>
</svg>
