<svg width="260" height="178" viewBox="0 0 260 178" fill="none" xmlns="http://www.w3.org/2000/svg">
<path d="M45.2127 133.695H11.5518C10.2927 133.695 9.39981 134.923 9.78809 136.12L13.5962 147.868C14.2192 149.581 15.7766 151.605 18.6579 151.917L41.4748 153.942M45.2127 133.695L41.4748 153.942M45.2127 133.695L46.0693 130.268C46.4587 128.944 47.1284 128.944 48.2497 128.944H53M41.4748 153.942C42.0086 154.013 42.9084 154.411 43.4215 155.417C43.8868 156.329 42.9809 157.212 41.9568 157.212H18.6579" stroke="black" stroke-width="1.85412" stroke-linecap="round" stroke-linejoin="round"/>
<circle cx="3.89366" cy="3.89366" r="2.9666" transform="matrix(-1 0 0 1 43.418 157.213)" stroke="black" stroke-width="1.85412" stroke-linecap="round" stroke-linejoin="round"/>
<circle cx="3.89366" cy="3.89366" r="2.9666" transform="matrix(-1 0 0 1 23.1758 156.369)" stroke="black" stroke-width="1.85412" stroke-linecap="round" stroke-linejoin="round"/>
<path d="M117.919 102.114H106.698C103.949 102.114 103.822 99.6716 104.102 98.4502L106.833 71.3578C106.929 70.3999 107.736 69.6708 108.698 69.6708H126.952C127.897 69.6708 128.695 70.3745 128.812 71.3125L129.497 76.7702M136.851 102.114C138.317 102.114 138.683 100.435 138.683 99.5953V87.1951C138.683 86.1595 137.844 85.3201 136.808 85.3201H124.79M136.851 102.114H118.072C117.308 102.114 116.316 102.114 116.316 99.9006V87.1951C116.316 86.1595 117.156 85.3201 118.191 85.3201H124.79M136.851 102.114C139.752 102.114 145.859 102.114 147.08 102.114C148.79 102.114 149.065 100.639 148.989 99.9006V78.6452C148.989 77.6097 148.149 76.7702 147.114 76.7702H129.497M112.652 74.0984C112.041 70.4087 112.27 62.9531 118.072 62.6477C120.413 62.724 124.79 65.1211 123.568 74.0984M123.263 88.6789C122.983 91.1726 123.538 96.1753 127.996 96.2364C129.955 96.4909 133.645 95.3356 132.729 88.6789M124.79 85.3201V78.6452C124.79 77.6097 125.629 76.7702 126.665 76.7702H129.497M131.507 80.4344C130.973 76.9229 131.278 70.2052 137.385 70.2815C139.525 70.3082 143.569 71.7014 142.653 80.4344" stroke="black" stroke-width="1.875" stroke-linecap="round" stroke-linejoin="round"/>
<path d="M127.859 23.454V6.46021" stroke="black" stroke-width="1.83181" stroke-linecap="round" stroke-linejoin="round"/>
<path d="M107.981 23.4538H106.946C106.232 22.4932 105.232 20.1141 106.946 18.2817H148.47C149.135 18.9713 150.066 20.9712 148.47 23.4538H147.436M107.981 23.4538L113.079 40.6692C113.473 41.8267 114.675 44.127 116.33 44.0679H139.013C140.905 44.0679 142.116 41.8021 142.486 40.6692L147.436 23.4538M107.981 23.4538H147.436M114.705 26.2614L118.473 40.6692M121.65 28.6258L123.423 40.6692M128.004 29.9557V40.6692M134.284 28.6258L132.807 40.6692M140.934 26.2614L137.314 40.6692" stroke="black" stroke-width="1.83181" stroke-linecap="round" stroke-linejoin="round"/>
<circle cx="127.852" cy="25.0789" r="1.5516" fill="black"/>
<path d="M229.339 135.554L229.626 133.812C229.671 133.543 229.602 133.271 229.449 133.045C227.756 130.543 226.36 125.845 232.464 124.175C232.839 124.073 233.129 123.776 233.266 123.412C233.823 121.921 235.331 120.17 238.239 121.566C238.582 121.731 238.989 121.723 239.321 121.534C241.566 120.255 245.176 119.445 245.538 124.276C245.574 124.753 245.909 125.162 246.36 125.318C248.159 125.942 250.128 127.585 248.448 130.734C248.092 131.401 248.448 132.323 249.052 132.778C249.759 133.311 250.268 134.195 249.847 135.554" stroke="black" stroke-width="1.7"/>
<path d="M241.122 126.554C240.526 127.812 239.671 129.709 238.895 131.603M237.024 137.554C237.024 136.925 237.331 135.806 237.791 134.488M236 127.816C236.171 129.499 236.821 133.046 238.05 133.767M238.05 133.767C238.306 133.071 238.595 132.337 238.895 131.603M238.05 133.767C237.959 134.012 237.872 134.253 237.791 134.488M238.895 131.603C240.036 131.663 242.454 131.531 243 130.521M237.791 134.488C239.129 134.608 242.044 134.632 243 133.767" stroke="black" stroke-width="1.7" stroke-linecap="round" stroke-linejoin="round"/>
<path d="M218.876 129.436L215.439 124.46C214.923 123.714 215.587 122.722 216.474 122.914L218.096 123.267C218.552 123.366 219.016 123.136 219.214 122.713L219.941 121.157C220.204 120.595 220.908 120.405 221.417 120.758L223.082 121.913C223.472 122.183 223.999 122.142 224.342 121.815L224.71 121.464C225.387 120.818 226.501 121.373 226.393 122.303L225.668 128.554M225.668 128.554C223.752 126.789 223.23 127.142 221.488 127.318C219.38 127.532 217.622 130.071 219.573 136.848M225.668 128.554C226.364 129.26 227.548 132.33 226.713 137.554" stroke="black" stroke-width="1.7"/>
<path d="M240.364 163.554H218C217.448 163.554 217 163.106 217 162.554V137.902C217 137.639 217.104 137.386 217.289 137.199L218.173 136.306C218.577 135.898 219.242 135.914 219.627 136.341L219.878 136.621C220.289 137.077 221.012 137.059 221.399 136.581L221.454 136.513C221.854 136.019 222.608 136.019 223.008 136.513L223.063 136.581C223.45 137.059 224.172 137.077 224.583 136.621L224.76 136.424C225.172 135.967 225.894 135.986 226.281 136.463L226.376 136.581C226.763 137.059 227.485 137.077 227.896 136.621L228.073 136.424C228.484 135.967 229.206 135.986 229.593 136.463L229.649 136.532C230.049 137.026 230.802 137.026 231.203 136.532L231.258 136.463C231.645 135.986 232.367 135.967 232.778 136.424L232.955 136.621C233.366 137.077 234.089 137.059 234.475 136.581L234.502 136.549C234.908 136.047 235.679 136.069 236.056 136.593V136.593C236.399 137.07 237.083 137.138 237.515 136.739L238.085 136.211C238.481 135.844 239.096 135.858 239.475 136.241L239.928 136.698C240.347 137.121 241.04 137.086 241.415 136.624L241.505 136.513C241.905 136.019 242.659 136.019 243.059 136.513L243.149 136.624C243.524 137.086 244.217 137.121 244.636 136.698L245.024 136.306C245.428 135.898 246.093 135.914 246.478 136.341L246.73 136.621C247.141 137.077 247.863 137.059 248.25 136.581L248.38 136.421C248.754 135.958 249.448 135.924 249.867 136.347L250.711 137.199C250.896 137.386 251 137.639 251 137.902V163.554M240.364 163.554V137.491M240.364 163.554H251M240.364 163.554L245.769 157.918M251 163.554L245.769 157.918M245.769 135.73V157.918" stroke="black" stroke-width="1.7"/>
<path d="M227.966 20.1988L248.552 33.1921C251.59 34.7108 252.434 39.0981 247.371 39.4356C246.966 39.4356 236.74 39.4356 231.678 39.4356M227.966 20.1988V19.0765C227.966 18.3317 228.439 17.6774 229.089 17.3141C231.905 15.7403 235.182 11.9823 232.691 7.71175C231.622 6.30555 229.316 5.09613 226.278 5.85548C224.928 6.19298 222.262 7.74545 222.397 11.2553M227.966 20.1988L223.578 22.8803M215.479 39.4356H208.223C202.553 39.4356 203.16 35.3857 206.704 33.1921L223.578 22.8803M231.678 39.4356V47.2804C231.678 48.26 230.884 49.054 229.904 49.054H217.252C216.273 49.054 215.479 48.26 215.479 47.2804V34.1927C215.479 33.5716 215.803 32.9958 216.335 32.6746L223.578 28.2985M231.678 39.4356V34.1927C231.678 33.5716 231.353 32.9958 230.822 32.6746L223.578 28.2985M223.578 28.2985V22.8803M226.953 37.9169L220.035 44.8354" stroke="black" stroke-width="1.91839" stroke-linecap="round" stroke-linejoin="round"/>
<circle cx="226.303" cy="44.0173" r="1.07246" fill="black"/>
<circle cx="221.166" cy="38.5284" r="1.07246" fill="black"/>
<path d="M44.0469 68.4379C45.1042 69.6967 46.5846 72.8486 44.0469 75.3863M47.5211 65.87C49.5855 67.9344 52.4756 73.3018 47.5211 78.2563M51.1463 63C53.8149 66.1721 57.551 74.1175 51.1463 80.5221" stroke="black" stroke-width="2" stroke-linecap="round" stroke-linejoin="round"/>
<path d="M9.00189 74.3291C8.93179 71.6266 10.8277 69.164 12.418 67.8339L33.2633 64.9639C36.4349 64.3597 38.0965 65.417 38.0965 67.8339C38.0965 70.7039 37.6433 74.3292 37.1902 76.746C36.6316 79.7248 34.4715 80.4216 33.2633 80.3712H25.8612M9.00189 74.3291C9.05385 76.3325 10.1862 78.4678 13.3243 80.3712H16.647M9.00189 74.3291L24.1997 72.8186M16.647 80.3712V105.295H24.1997C25.7102 105.295 25.8612 105.295 25.8612 101.367C25.8612 99.8436 25.8612 96.413 25.8612 94.7212V90.3407M16.647 80.3712H25.8612M25.8612 80.3712V83.8454M25.8612 83.8454C24.571 83.7447 21.9603 84.2382 21.8395 87.0175C21.8017 88.1252 22.5532 90.3407 25.8612 90.3407M25.8612 83.8454V90.3407" stroke="black" stroke-width="2"/>
<path d="M144.834 145.024V137.538C144.834 136.636 144.103 135.904 143.2 135.904H139.63M144.834 145.024H145.365C146.268 145.024 146.999 145.755 146.999 146.658V152.049C146.999 152.951 146.268 153.683 145.365 153.683H144.834M144.834 145.024H135.268C134.929 145.024 134.596 145.124 134.336 145.341C132.522 146.855 130.534 150.085 134.315 153.331C134.589 153.566 134.943 153.683 135.305 153.683H144.834M139.63 135.904H112.791C112.54 135.904 112.289 135.85 112.074 135.72C111.379 135.301 110.652 134.622 110.362 133.739M139.63 135.904V131.09C139.63 130.187 138.898 129.456 137.996 129.456H112.59C112.47 129.456 112.349 129.467 112.233 129.502C110.341 130.073 110.001 132.639 110.362 133.739M144.834 153.683V163.355V163.355C144.834 163.711 144.546 164 144.19 164H112.593C110.751 164 110.338 162.342 110.362 161.513V133.739" stroke="black" stroke-width="1.79341"/>
<circle cx="135.652" cy="149.418" r="1.29252" fill="black"/>
<path d="M237.887 69.85H212.774C211.794 69.85 211 70.6442 211 71.6239V82.7661C211 83.6369 211.632 84.379 212.492 84.5174L237.887 88.6064M215.722 95.2943H241.953C246.045 95.2943 246.151 89.7857 241.953 89.2611L237.887 88.6064M237.887 88.6064L244.446 67.3581C244.84 66.1776 245.758 65.7842 246.807 65.7842H251.004" stroke="black" stroke-width="1.77384" stroke-linecap="round" stroke-linejoin="round"/>
<circle cx="2.62288" cy="2.62288" r="1.73596" transform="matrix(-1 0 0 1 240.254 99.7538)" stroke="black" stroke-width="1.77384" stroke-linecap="round" stroke-linejoin="round"/>
<circle cx="2.62288" cy="2.62288" r="1.73596" transform="matrix(-1 0 0 1 221.367 99.7538)" stroke="black" stroke-width="1.77384" stroke-linecap="round" stroke-linejoin="round"/>
<path d="M16.7067 15.5116H10.8436C9.82539 15.5116 9 16.337 9 17.3552V41.9258C9 42.944 9.82539 43.7694 10.8436 43.7694H38.4969C39.515 43.7694 40.3404 42.944 40.3404 41.9258V17.3552C40.3404 16.337 39.515 15.5116 38.4969 15.5116H33.6613M16.7067 15.5116C16.3641 12.3433 17.4773 6.26374 24.6702 6.00672C28.0098 5.88757 34.4834 7.29117 33.6613 15.5116M16.7067 15.5116H33.6613M16.7067 22.4479C16.8779 25.3593 18.7618 30.6683 24.6702 30.9252C26.9822 31.0258 32.2322 29.6408 32.8907 22.4479" stroke="black" stroke-width="1.84355" stroke-linecap="round"/>
</svg>
