<svg width="260" height="178" viewBox="0 0 260 178" fill="none" xmlns="http://www.w3.org/2000/svg">
<path d="M233.404 130.264C229.609 128.913 225.469 128.8 221.603 129.942C217.737 131.084 214.352 133.42 211.953 136.602C209.553 139.783 208.268 143.639 208.288 147.594C208.309 151.55 209.635 155.393 212.068 158.55C214.5 161.706 217.91 164.008 221.788 165.111C225.665 166.215 229.803 166.06 233.584 164.671C237.365 163.282 240.586 160.732 242.766 157.403C244.946 154.074 245.97 150.143 245.683 146.198L243.977 146.317C244.237 149.902 243.308 153.473 241.326 156.498C239.345 159.523 236.419 161.84 232.983 163.102C229.548 164.364 225.788 164.505 222.265 163.502C218.741 162.5 215.643 160.408 213.433 157.54C211.222 154.672 210.018 151.18 209.999 147.586C209.98 143.992 211.148 140.488 213.328 137.597C215.509 134.707 218.585 132.584 222.097 131.546C225.61 130.509 229.371 130.611 232.819 131.839L233.404 130.264Z" fill="black"/>
<path fill-rule="evenodd" clip-rule="evenodd" d="M227.05 148.619C230.136 148.619 232.638 146.168 232.638 143.145C232.638 140.121 230.136 137.67 227.05 137.67C223.964 137.67 221.462 140.121 221.462 143.145C221.462 146.168 223.964 148.619 227.05 148.619ZM227.05 150.261C231.062 150.261 234.315 147.075 234.315 143.145C234.315 139.214 231.062 136.028 227.05 136.028C223.038 136.028 219.785 139.214 219.785 143.145C219.785 147.075 223.038 150.261 227.05 150.261Z" fill="black"/>
<path d="M241.047 142.108V131.097H243.889V142.108H241.047ZM236.848 137.995V135.211H248.088V137.995H236.848Z" fill="black"/>
<path fill-rule="evenodd" clip-rule="evenodd" d="M217.423 160.725C226.057 166.301 234.439 162.706 238.15 159.762C235.736 155.968 233.444 153.771 231.369 152.659C229.216 151.505 227.25 151.491 225.473 152.137C223.655 152.798 221.976 154.174 220.526 155.893C219.263 157.392 218.21 159.108 217.423 160.725ZM232.264 151.057C234.859 152.449 237.504 155.135 240.158 159.48L240.548 160.119L239.987 160.622C236.21 164.003 226.05 169.001 215.709 161.787L215.092 161.357L215.396 160.677C216.263 158.743 217.517 156.595 219.09 154.731C220.656 152.873 222.588 151.239 224.824 150.426C227.1 149.598 229.63 149.645 232.264 151.057Z" fill="black"/>
<path fill-rule="evenodd" clip-rule="evenodd" d="M124.322 23.3363C128.236 23.3363 131.409 20.1631 131.409 16.2489C131.409 12.3346 128.236 9.16145 124.322 9.16145C120.407 9.16145 117.234 12.3346 117.234 16.2489C117.234 20.1631 120.407 23.3363 124.322 23.3363ZM124.322 25.5138C129.439 25.5138 133.587 21.3658 133.587 16.2489C133.587 11.132 129.439 6.98389 124.322 6.98389C119.205 6.98389 115.057 11.132 115.057 16.2489C115.057 21.3658 119.205 25.5138 124.322 25.5138Z" fill="black"/>
<path fill-rule="evenodd" clip-rule="evenodd" d="M119.069 27.5459C119.155 27.5243 119.244 27.5134 119.333 27.5134H132.003C132.605 27.5134 133.092 28.0009 133.092 28.6022C133.092 29.2035 132.605 29.691 132.003 29.691H119.472C117.873 30.1199 115.551 31.2875 113.771 33.4215C111.973 35.5757 110.681 38.7663 111.305 43.3424C111.387 43.9382 110.969 44.4871 110.374 44.5683C109.778 44.6495 109.229 44.2324 109.148 43.6366C108.441 38.4568 109.908 34.6525 112.099 32.0264C114.26 29.4366 117.081 28.0431 119.069 27.5459Z" fill="black"/>
<path fill-rule="evenodd" clip-rule="evenodd" d="M137.941 28.1469C138.542 28.1469 139.03 28.6343 139.03 29.2356V35.3529H144.91C145.511 35.3529 145.998 35.8404 145.998 36.4417C145.998 37.043 145.511 37.5305 144.91 37.5305H139.03V43.2519C139.03 43.8532 138.542 44.3406 137.941 44.3406C137.34 44.3406 136.852 43.8532 136.852 43.2519V37.5305H130.893C130.292 37.5305 129.805 37.043 129.805 36.4417C129.805 35.8404 130.292 35.3529 130.893 35.3529H136.852V29.2356C136.852 28.6343 137.34 28.1469 137.941 28.1469Z" fill="black"/>
<path fill-rule="evenodd" clip-rule="evenodd" d="M228.401 24.6036C231.572 24.6036 234.566 21.638 234.566 17.4284C234.566 13.2187 231.572 10.2531 228.401 10.2531C225.229 10.2531 222.236 13.2187 222.236 17.4284C222.236 21.638 225.229 24.6036 228.401 24.6036ZM228.401 26.8567C233.05 26.8567 236.819 22.6355 236.819 17.4284C236.819 12.2212 233.05 8 228.401 8C223.751 8 219.982 12.2212 219.982 17.4284C219.982 22.6355 223.751 26.8567 228.401 26.8567Z" fill="black"/>
<path fill-rule="evenodd" clip-rule="evenodd" d="M224.144 27.9394C224.369 27.8958 224.602 27.9219 224.811 28.0142C227.804 29.3308 230.52 28.5374 231.391 28.0583C231.584 27.9523 231.804 27.905 232.023 27.9223C237.554 28.359 241.126 32.056 242.298 33.9717C243.223 35.2238 243.643 36.5866 243.76 37.7831C243.875 38.9631 243.705 40.0826 243.331 40.8296C243.247 40.9973 243.123 41.1415 242.969 41.249C237.498 45.0751 231.299 45.8843 226.047 45.3494C220.844 44.8194 216.384 42.9483 214.356 41.1736C214.153 40.9961 214.021 40.7519 213.983 40.4851C213.811 39.2872 214.098 37.94 214.449 36.8361C214.809 35.7047 215.285 34.6777 215.626 34.0585L215.628 34.0543C217.87 30.0199 222.22 28.3118 224.144 27.9394ZM232.15 30.1967C230.658 30.885 227.593 31.5585 224.252 30.2228C222.565 30.6442 219.285 32.1142 217.599 35.1464C217.322 35.65 216.907 36.5412 216.597 37.5186C216.336 38.3379 216.18 39.1224 216.185 39.7568C217.936 41.0757 221.69 42.6408 226.276 43.1079C231.052 43.5943 236.552 42.8692 241.404 39.591C241.505 39.2543 241.585 38.6971 241.517 38.0027C241.433 37.1431 241.129 36.1677 240.461 35.2773C240.438 35.2464 240.416 35.2142 240.396 35.181C239.536 33.7465 236.634 30.675 232.15 30.1967Z" fill="black"/>
<path fill-rule="evenodd" clip-rule="evenodd" d="M208.535 16.6384C209.157 16.6384 209.661 17.1428 209.661 17.765V24.3832H216.784C217.407 24.3832 217.911 24.8875 217.911 25.5097C217.911 26.1319 217.407 26.6363 216.784 26.6363H209.661V33.5912C209.661 34.2134 209.157 34.7178 208.535 34.7178C207.912 34.7178 207.408 34.2134 207.408 33.5912V26.6363H201.127C200.504 26.6363 200 26.1319 200 25.5097C200 24.8875 200.504 24.3832 201.127 24.3832H207.408V17.765C207.408 17.1428 207.912 16.6384 208.535 16.6384Z" fill="black"/>
<path fill-rule="evenodd" clip-rule="evenodd" d="M234.612 85.5847C232.37 85.8666 230.439 86.8622 229.546 87.8888L227.98 86.5275C229.298 85.0119 231.76 83.8523 234.354 83.5263C236.977 83.1965 239.953 83.6933 242.23 85.7803C244.584 87.9386 244.93 91.3917 244.803 94.0143C244.738 95.3653 244.542 96.5899 244.365 97.4742C244.275 97.9177 244.19 98.2788 244.126 98.5315C244.094 98.6578 244.067 98.7573 244.048 98.8265C244.039 98.8611 244.031 98.8881 244.026 98.9073L244.019 98.93L244.017 98.9367L244.017 98.9398C244.016 98.9401 244.016 98.9404 243.021 98.6478L244.016 98.9404L243.797 99.685H233.405V97.6105H242.214C242.25 97.4502 242.29 97.2673 242.331 97.065C242.495 96.25 242.672 95.1327 242.731 93.914C242.853 91.397 242.453 88.7987 240.828 87.3096C239.126 85.7493 236.824 85.3066 234.612 85.5847Z" fill="black"/>
<path fill-rule="evenodd" clip-rule="evenodd" d="M239.16 72.5152C237.791 70.3755 235.113 69.1146 231.754 70.2832C230.915 70.5749 230.081 71.1771 229.424 71.7578C229.103 72.0409 228.841 72.3038 228.661 72.4948C228.571 72.59 228.501 72.6665 228.456 72.7177C228.433 72.7433 228.417 72.7625 228.407 72.7744L228.396 72.7869L228.395 72.7881C228.395 72.7879 228.395 72.7878 227.6 72.122C226.804 71.4562 226.804 71.456 226.805 71.4558L226.806 71.4545L226.808 71.4521L226.814 71.445C226.819 71.4392 226.825 71.4315 226.834 71.4219C226.85 71.4027 226.873 71.3759 226.903 71.3426C226.962 71.2759 227.046 71.1824 227.154 71.069C227.367 70.843 227.674 70.5351 228.051 70.2028C228.787 69.5526 229.86 68.7456 231.072 68.3238C235.339 66.8398 239.021 68.4487 240.908 71.3971C241.909 72.9625 242.107 74.4336 242.066 76.126C242.008 78.541 241.042 81.0124 239.004 82.5632C237.415 83.773 235.46 84.2673 233.568 84.2673C232.602 84.2673 231.787 84.13 231.003 83.831C230.233 83.5368 229.542 83.1037 228.816 82.5785C227.994 81.9848 227.249 81.0329 226.743 80.3104C226.481 79.9352 226.263 79.5933 226.111 79.3448C226.035 79.2202 225.975 79.1183 225.933 79.0465C225.912 79.0106 225.896 78.9821 225.884 78.962L225.871 78.9383L225.867 78.9313L225.865 78.928C225.865 78.9279 225.865 78.9278 226.771 78.4221C227.676 77.9165 227.676 77.9163 227.676 77.9162L227.678 77.9194L227.687 77.9353C227.696 77.95 227.709 77.9729 227.726 78.0029C227.761 78.0631 227.814 78.152 227.881 78.2624C228.017 78.4838 228.21 78.7886 228.443 79.1209C228.928 79.8134 229.509 80.5194 230.031 80.8973C230.699 81.3801 231.22 81.693 231.744 81.8929C232.254 82.0879 232.814 82.1928 233.568 82.1928C235.117 82.1928 236.599 81.787 237.748 80.9126C239.174 79.8267 239.945 78.0125 239.992 76.076C240.027 74.6159 239.858 73.6061 239.16 72.5152Z" fill="black"/>
<path fill-rule="evenodd" clip-rule="evenodd" d="M220.139 80.824C223.48 80.824 226.189 78.1156 226.189 74.7748C226.189 71.4339 223.48 68.7256 220.139 68.7256C216.798 68.7256 214.09 71.4339 214.09 74.7748C214.09 78.1156 216.798 80.824 220.139 80.824ZM220.139 82.8985C224.626 82.8985 228.263 79.2614 228.263 74.7748C228.263 70.2881 224.626 66.651 220.139 66.651C215.653 66.651 212.016 70.2881 212.016 74.7748C212.016 79.2614 215.653 82.8985 220.139 82.8985Z" fill="black"/>
<path fill-rule="evenodd" clip-rule="evenodd" d="M226.899 87.1245C225.017 86.2096 222.766 85.8358 220.196 85.9426C217.81 86.0417 215.807 86.504 214.135 87.4114C212.474 88.3127 211.078 89.6862 209.951 91.7106C208.99 93.4376 208.944 96.1274 209.226 98.5843C209.362 99.7771 209.567 100.851 209.739 101.627C209.778 101.803 209.815 101.963 209.849 102.106H231.6C231.632 101.963 231.666 101.802 231.701 101.626C231.861 100.837 232.053 99.7476 232.18 98.5428C232.308 97.3346 232.369 96.0323 232.276 94.8115C232.183 93.5795 231.938 92.502 231.507 91.6956C230.334 89.5028 228.768 88.0329 226.899 87.1245ZM232.422 103.143C233.425 103.408 233.425 103.407 233.425 103.407L233.427 103.399L233.432 103.379C233.437 103.361 233.443 103.337 233.451 103.305C233.467 103.241 233.49 103.148 233.517 103.03C233.573 102.795 233.65 102.456 233.735 102.038C233.904 101.204 234.107 100.048 234.243 98.7609C234.379 97.4772 234.45 96.0415 234.345 94.6548C234.241 93.2793 233.959 91.88 233.336 90.7169C231.968 88.161 230.09 86.369 227.806 85.2587C225.535 84.1548 222.921 83.753 220.11 83.8698C217.513 83.9777 215.175 84.4866 213.145 85.588C211.104 86.6955 209.437 88.3685 208.139 90.7019C206.833 93.0483 206.879 96.3271 207.164 98.8203C207.311 100.102 207.531 101.249 207.713 102.075C207.805 102.488 207.887 102.823 207.948 103.057C207.978 103.173 208.002 103.265 208.02 103.328C208.028 103.36 208.035 103.384 208.04 103.401L208.046 103.422L208.047 103.427L208.048 103.43C208.048 103.43 208.048 103.431 209.045 103.143L208.048 103.431L208.265 104.18H233.221L233.425 103.408L232.422 103.143Z" fill="black"/>
<path d="M245.775 70.2962V61.9596H247.882V70.2962H245.775ZM242.66 67.1818V65.0741H250.997V67.1818H242.66Z" fill="black"/>
<path fill-rule="evenodd" clip-rule="evenodd" d="M14.7978 97.1857C13.0572 99.3052 11.6308 101.806 10.6283 104.088C10.4394 104.517 9.93798 104.713 9.50824 104.524C9.07849 104.335 8.88319 103.834 9.07202 103.404C10.1235 101.011 11.6258 98.3698 13.4841 96.1069C15.3352 93.8529 17.5909 91.9117 20.1648 91.0223C22.7854 90.1168 25.659 90.3305 28.6053 92.2533C31.5109 94.1496 34.4564 97.6846 37.3784 103.357C37.5933 103.774 37.4293 104.286 37.012 104.501C36.5947 104.716 36.0822 104.552 35.8672 104.135C33.0097 98.5881 30.2323 95.3449 27.6763 93.6768C25.1609 92.0353 22.8341 91.8984 20.7199 92.629C18.559 93.3757 16.5456 95.0573 14.7978 97.1857Z" fill="black"/>
<path fill-rule="evenodd" clip-rule="evenodd" d="M23.4597 86.7472C27.919 86.7472 31.534 83.1323 31.534 78.6729C31.534 74.2136 27.919 70.5987 23.4597 70.5987C19.0004 70.5987 15.3854 74.2136 15.3854 78.6729C15.3854 83.1323 19.0004 86.7472 23.4597 86.7472ZM23.4597 88.4471C28.8578 88.4471 33.2338 84.0711 33.2338 78.6729C33.2338 73.2748 28.8578 68.8988 23.4597 68.8988C18.0616 68.8988 13.6855 73.2748 13.6855 78.6729C13.6855 84.0711 18.0616 88.4471 23.4597 88.4471Z" fill="black"/>
<path fill-rule="evenodd" clip-rule="evenodd" d="M19.4846 106.017H19.2715C19.343 106.026 19.4146 106.026 19.4846 106.017ZM36.396 94.6241C36.6633 94.7671 36.9328 94.9269 37.2046 95.1042C39.7606 96.7723 42.5379 100.015 45.3955 105.562C45.6105 105.98 46.123 106.144 46.5403 105.929C46.9576 105.714 47.1216 105.201 46.9066 104.784C43.9847 99.112 41.0392 95.5769 38.1336 93.6807C35.7332 92.1142 33.3811 91.682 31.1747 92.0653C32.846 92.243 34.5958 93.0323 36.396 94.6241Z" fill="black"/>
<path d="M33.9414 70.3262C41.5436 72.4676 47.8251 81.7018 33.9414 89.5989C39.1284 86.6485 45.3981 78.3208 33.9414 70.3262Z" fill="black"/>
<path d="M135.804 104.758V91.0939H138.522V104.758H135.804ZM130.336 99.2802V96.5615H144V99.2802H130.336Z" fill="black"/>
<path fill-rule="evenodd" clip-rule="evenodd" d="M127.873 92.6155C117.855 92.6155 113.562 100.347 112.67 104.213C112.552 104.723 112.043 105.041 111.532 104.924C111.022 104.806 110.704 104.297 110.821 103.786C111.827 99.4302 116.641 90.7181 127.873 90.7181C128.397 90.7181 128.822 91.1429 128.822 91.6668C128.822 92.1907 128.397 92.6155 127.873 92.6155Z" fill="black"/>
<path fill-rule="evenodd" clip-rule="evenodd" d="M125.97 85.9739C130.686 85.9739 134.508 82.1514 134.508 77.436C134.508 72.7207 130.686 68.8982 125.97 68.8982C121.255 68.8982 117.432 72.7207 117.432 77.436C117.432 82.1514 121.255 85.9739 125.97 85.9739ZM125.97 87.8712C131.734 87.8712 136.406 83.1992 136.406 77.436C136.406 71.6728 131.734 67.0009 125.97 67.0009C120.207 67.0009 115.535 71.6728 115.535 77.436C115.535 83.1992 120.207 87.8712 125.97 87.8712Z" fill="black"/>
<circle cx="31.3545" cy="15.3978" r="7.92593" stroke="black" stroke-width="1.86492"/>
<path d="M43.4745 32.6485C39.006 24.1611 14.4242 22.9504 14.0054 41.7268C13.973 43.1779 15.207 44.3043 16.6585 44.3043H31.3432" stroke="black" stroke-width="1.86492" stroke-linecap="round"/>
<path d="M31.8164 36.8444L38.6937 42.9576C39.5092 43.6824 40.77 43.5555 41.4246 42.6827L49.9994 31.2496" stroke="black" stroke-width="1.86492" stroke-linecap="round"/>
<circle cx="27.059" cy="134.274" r="8.29762" stroke="black" stroke-width="1.95238"/>
<rect x="9.97619" y="147.452" width="35.1429" height="17.5714" rx="8.78571" stroke="black" stroke-width="1.95238"/>
<path d="M49.5119 128.905V147.941M39.75 138.667H59.2738" stroke="black" stroke-width="1.95238" stroke-linecap="round" stroke-linejoin="round"/>
<path d="M121.799 129.177C127.252 137.054 133.666 135.893 137.258 132.041M137.258 132.041C139.326 129.824 140.458 126.717 139.935 123.927C138.026 127.746 134.862 126.697 133.224 124.882C124.182 114.859 115.594 127.746 119.86 132.995C117.498 131.563 114.631 135.859 119.86 138.723C121.367 145.213 125.509 147.589 127.522 147.791C132.295 148.268 135.476 141.904 136.591 138.723C140.791 135.286 138.786 132.836 137.258 132.041Z" stroke="black" stroke-width="1.43182" stroke-linecap="round" stroke-linejoin="round"/>
<circle cx="140.409" cy="152.563" r="7.875" stroke="black" stroke-width="1.43182"/>
<path d="M140.41 155.904V148.745M136.592 152.086H144.228" stroke="black" stroke-width="1.43182" stroke-linecap="round" stroke-linejoin="round"/>
<path d="M122.75 144.927C122.75 146.041 121.952 148.026 119.409 148.268C115.591 148.632 108.909 151.227 107 161.154C115.114 165.927 132.295 171.177 141.841 160.677M133.25 144.927C133.091 145.563 132.964 146.932 133.727 147.313" stroke="black" stroke-width="1.43182" stroke-linecap="round" stroke-linejoin="round"/>
</svg>
