<svg width="260" height="178" viewBox="0 0 260 178" fill="none" xmlns="http://www.w3.org/2000/svg">
<path d="M47.0328 7.09137C45.6892 6.05521 43.4642 5.67494 40.0781 6.30977L40.4347 8.21227C43.6196 7.61518 45.1588 8.09034 45.8508 8.62403C46.4842 9.11253 46.6041 9.81129 46.5026 10.3552C46.1389 11.447 45.1348 12.0361 43.6751 12.2517C42.2052 12.4688 40.5447 12.2489 39.4716 11.9707L39.43 11.96L39.3878 11.9527C36.8135 11.5237 35.041 11.7976 33.8863 12.5154C32.708 13.2479 32.2999 14.3686 32.3593 15.265C32.3852 17.1772 33.961 18.1757 35.4083 18.6895C36.9219 19.2268 38.7687 19.4247 40.1921 19.5196C41.4681 19.6047 41.9776 20.0867 42.2061 20.4886C42.472 20.9563 42.4831 21.5401 42.3933 21.9293L44.2791 22.3647C44.4459 21.6417 44.457 20.5313 43.8887 19.5319C43.2831 18.4666 42.1243 17.7083 40.3206 17.5881C38.92 17.4947 37.3013 17.3076 36.0557 16.8654C34.7558 16.4039 34.2937 15.8406 34.2937 15.2174V15.1803L34.2908 15.1431C34.2746 14.9317 34.3573 14.5017 34.9083 14.1592C35.492 13.7964 36.7054 13.4728 39.0378 13.8568C40.2763 14.1715 42.1803 14.429 43.9577 14.1665C45.7498 13.9018 47.6893 13.0498 48.3654 10.8863L48.3793 10.8422L48.3887 10.7972C48.6156 9.72124 48.4183 8.15984 47.0328 7.09137Z" fill="black"/>
<path d="M9 12.1964V18.7517H17.5066L17.5413 18.7448C17.5068 18.7611 18.1499 18.7826 18.8159 20.4381L24.9661 38.1208L24.9724 38.1384L24.979 38.1554C26.1836 41.2339 27.8957 43.6686 30.3623 45.252C32.8296 46.8357 35.9396 47.4959 39.804 47.2383C41.8487 47.1019 44.8655 46.4242 47.3983 44.5853C49.9781 42.7123 52 39.6684 52 34.9799V24.9702V24.0024H34.9219V24.9702C34.9219 25.9461 34.9213 27.6803 34.7735 29.2421C34.7128 29.8834 34.6292 30.4723 34.5177 30.9546C34.4463 31.2634 34.3716 31.4897 34.3047 31.6462C34.1891 31.5288 34.0453 31.3563 33.875 31.11L25.4295 17.2899C24.9654 16.4597 24.138 15.2422 23.1143 14.2139C22.1194 13.2146 20.7445 12.1964 19.2072 12.1964H9ZM50.0644 28.3657H36.7799C36.8307 27.4951 36.8483 26.6395 36.8543 25.938H50.0644V28.3657ZM19.2072 14.132C19.9284 14.132 20.8211 14.6537 21.7426 15.5793C22.6252 16.4658 23.3569 17.5446 23.751 18.2539L23.7607 18.2716L26.0114 21.9534L21.9902 23.6723L20.6274 19.7551L20.6192 19.7343C19.7709 17.6135 18.4498 16.6728 17.3375 16.8161H10.9356V14.132H19.2072ZM50.0644 34.9799C50.0644 39.0174 48.365 41.4914 46.261 43.019C44.1099 44.5807 41.4802 45.1864 39.6751 45.3068C36.0967 45.5453 33.4321 44.9222 31.4079 43.6229C29.3858 42.3249 27.8909 40.28 26.786 37.4611L22.6275 25.5051L27.0311 23.6225L32.2409 32.148L32.2544 32.1701L32.2689 32.1915C32.7251 32.855 33.2444 33.4256 33.8671 33.6454C34.2199 33.7698 34.6053 33.7805 34.9751 33.6331C35.3236 33.4941 35.5723 33.2493 35.7447 33.0156C36.0748 32.5682 36.2713 31.9625 36.4035 31.391C36.4823 31.0501 36.5464 30.6817 36.5991 30.3013H50.0644V34.9799Z" fill="black"/>
<path d="M210.902 24.639C209.791 24.9724 208.212 25.7925 207.386 27.2868C206.956 28.0651 206.751 28.9949 206.913 30.0418C207.072 31.07 207.573 32.1426 208.434 33.2595L208.676 33.5725L248.157 44.4895L251 35.0112L211.222 24.5431L210.902 24.639ZM248.026 36.6786L246.554 41.5878L242.655 40.5098L244.129 35.6528L248.026 36.6786ZM241.836 35.0495L240.371 39.8781L210.83 31.7098L212.073 27.2171L241.836 35.0495Z" fill="black"/>
<path d="M210.541 2.8684C210.697 4.24487 211.027 5.95289 210.892 7.63155C210.76 9.2573 210.208 10.5901 208.772 11.3527C206.252 12.6918 205.338 14.7372 205.087 16.7261C204.964 17.6938 204.997 18.6468 205.056 19.4834C205.118 20.3703 205.199 21.0279 205.211 21.6208L207.241 21.5822C207.229 20.9282 207.134 20.0812 207.082 19.3406C207.026 18.5496 207.005 17.7518 207.102 16.981C207.29 15.493 207.912 14.1093 209.725 13.1464C212.013 11.9308 212.755 9.78684 212.916 7.79485C213.073 5.85575 212.691 3.80492 212.559 2.63965L210.541 2.8684Z" fill="black"/>
<path d="M214.592 4.88256C214.748 6.25903 215.078 7.96705 214.942 9.64571C214.811 11.2715 214.258 12.6042 212.823 13.3669C210.302 14.706 209.389 16.7514 209.138 18.7403C209.015 19.708 209.048 20.661 209.107 21.4976C209.169 22.3845 209.25 23.0421 209.261 23.635L211.292 23.5963C211.279 22.9424 211.185 22.0953 211.133 21.3547C211.077 20.5637 211.055 19.7659 211.153 18.9952C211.341 17.5072 211.963 16.1235 213.776 15.1606C216.064 13.945 216.806 11.801 216.967 9.80901C217.123 7.86991 216.742 5.81908 216.61 4.65381L214.592 4.88256Z" fill="black"/>
<path d="M210.688 133.354C209.612 132.903 208.647 132.75 207.793 132.892C206.922 133.036 206.253 133.472 205.768 134.036C205.007 134.918 204.698 136.1 204.59 137.029C203.677 137.601 203.191 138.498 202.953 139.336C202.691 140.258 202.697 141.203 202.788 141.851C202.763 142.215 202.654 142.71 202.454 143.219C202.239 143.764 201.949 144.252 201.626 144.58L200.644 145.578L240.158 162.131L240.515 161.992C244.416 160.471 246.247 157.894 246.859 155.237C247.457 152.646 246.875 150.08 246.158 148.49L246.005 148.149L210.688 133.354ZM228.407 142.832C224.581 146.493 223.697 150.55 223.843 153.241L205.133 145.403C205.195 145.357 205.256 145.31 205.315 145.262C205.928 144.76 206.405 144.146 206.724 143.625C207.879 143.284 208.573 142.52 208.916 141.655C209.149 141.065 209.212 140.452 209.188 139.926C210.436 139.217 211.155 138.24 211.454 137.166C211.583 136.704 211.628 136.242 211.615 135.798L228.407 142.832ZM243.106 148.99C240.724 150.565 239.371 152.764 238.763 154.922C238.392 156.242 238.296 157.551 238.413 158.705C238.436 158.935 238.468 159.163 238.509 159.385L225.851 154.082C225.449 152.058 225.768 147.595 230.335 143.64L243.106 148.99ZM244.776 150.193C245.176 151.473 245.393 153.156 245.012 154.811C244.582 156.673 243.38 158.584 240.603 159.891C240.464 159.517 240.354 159.054 240.299 158.515C240.207 157.598 240.281 156.528 240.589 155.436C241.134 153.5 242.406 151.515 244.776 150.193ZM209.574 134.958C209.735 135.501 209.781 136.104 209.627 136.657C209.449 137.296 208.972 137.993 207.787 138.508L207.066 138.822L207.24 139.588C207.321 139.943 207.335 140.496 207.153 140.957C207.006 141.329 206.722 141.684 206.067 141.839L205.93 141.868L205.467 141.952L205.254 142.373C205.083 142.71 204.759 143.193 204.333 143.6C204.54 142.996 204.667 142.38 204.687 141.848L204.691 141.753L204.675 141.659C204.604 141.224 204.591 140.51 204.777 139.853C204.96 139.21 205.296 138.733 205.852 138.506L206.415 138.275L206.44 137.666C206.473 136.853 206.698 135.861 207.204 135.274C207.434 135.008 207.718 134.826 208.103 134.762C208.442 134.706 208.919 134.733 209.574 134.958ZM210.518 117.965C210.845 118.326 211.161 119.001 210.998 119.808C210.838 120.6 210.167 121.745 208.058 122.942C205.64 124.314 204.415 125.954 203.957 127.546C203.506 129.113 203.832 130.526 204.323 131.393L205.973 130.459C205.715 130.004 205.479 129.114 205.78 128.07C206.073 127.051 206.911 125.773 208.993 124.591C211.384 123.234 212.55 121.701 212.857 120.184C213.161 118.68 212.575 117.414 211.926 116.694L210.518 117.965ZM217.037 120.067C216.958 120.871 216.254 122.805 214.094 123.573C212.375 124.183 211.68 125.529 211.533 126.845C211.394 128.097 211.732 129.363 212.072 130.153L213.813 129.403C213.557 128.808 213.326 127.881 213.418 127.055C213.503 126.292 213.84 125.675 214.728 125.36C217.781 124.276 218.796 121.55 218.924 120.254L217.037 120.067Z" fill="black"/>
<path d="M155.741 121.761L142.101 126.757L136.69 136.147C136.816 136.269 136.938 136.403 137.055 136.549C137.659 136.609 138.371 136.865 138.933 137.477C139.664 138.271 140.006 139.514 139.736 141.269L139.695 141.532L139.025 142.168C139.512 142.428 140.005 142.782 140.408 143.248C141.219 144.184 141.616 145.515 140.994 147.175L140.919 147.375L138.444 149.362C138.748 152.182 137.005 157.38 128.952 160.883L123.627 164.423L122.765 163.125L128.203 159.51L128.267 159.483C134.747 156.684 136.585 152.922 136.873 150.624L132.432 154.191L132.233 154.225C131.408 154.366 130.135 154.342 129.123 153.666C128.599 153.315 128.162 152.798 127.917 152.087C127.749 151.603 127.677 151.049 127.707 150.424C126.891 150.324 125.964 150.03 125.259 149.372C124.747 148.894 124.376 148.244 124.259 147.41C124.216 147.103 124.208 146.777 124.237 146.431C123.133 146.983 121.843 147.427 120.353 147.671L120.102 146.133C122.155 145.797 123.76 145.042 124.97 144.18C126.635 142.994 127.546 141.614 127.855 140.856L128.053 140.371H135.392C136.005 139.799 136.228 139.304 136.285 138.925C136.349 138.504 136.228 138.102 135.994 137.737C135.821 137.469 135.598 137.241 135.387 137.073L128.805 136.215L123.684 140.335L122.708 139.121L128.347 134.583L135.273 135.487L143.563 121.098C143.555 120.903 143.535 120.729 143.507 120.573C143.415 120.074 143.233 119.758 143.031 119.55C142.827 119.339 142.562 119.198 142.245 119.116C141.678 118.97 141.007 119.033 140.463 119.177L138.33 122.636L138.325 122.644L138.32 122.652L134.733 128.156L134.726 128.166L134.72 128.175L131.195 133.246L129.915 132.357L132.082 129.239L125.931 131.348L116.871 145.482L114.513 155.079L113 154.707L115.389 144.984L115.42 144.859L124.545 130.624L122.835 126.589L128.107 124.745L133.602 117.866L133.798 117.79C134.533 117.504 135.708 117.28 136.812 117.639C137.38 117.824 137.927 118.164 138.361 118.717C138.466 118.851 138.562 118.995 138.65 119.149L139.44 117.868L139.706 117.778C140.455 117.525 141.582 117.336 142.633 117.607C143.172 117.746 143.709 118.01 144.15 118.465C144.412 118.735 144.625 119.058 144.785 119.433L153.715 116.358L155.741 121.761ZM137.858 138.618C137.863 138.793 137.854 138.973 137.826 139.158C137.691 140.048 137.166 140.923 136.19 141.746L135.973 141.93H129.07C128.557 142.909 127.577 144.185 126.074 145.302C125.79 146.129 125.739 146.744 125.802 147.193C125.868 147.666 126.065 147.993 126.322 148.233C126.816 148.694 127.608 148.894 128.302 148.908L131.618 146.29L132.584 147.513L129.299 150.106C129.214 150.766 129.272 151.24 129.389 151.578C129.518 151.952 129.733 152.199 129.99 152.37C130.486 152.702 131.194 152.78 131.781 152.715L139.602 146.434C139.918 145.432 139.652 144.755 139.23 144.268C138.845 143.823 138.296 143.507 137.809 143.323L134.617 146.354L133.544 145.224L138.23 140.774C138.368 139.595 138.122 138.958 137.858 138.618ZM124.918 127.511L125.856 129.727L133.574 127.081L135.766 123.717L124.918 127.511ZM145.116 120.967C145.122 121.075 145.125 121.186 145.125 121.299V121.507L143.312 124.654L153.73 120.838L152.788 118.324L145.116 120.967ZM136.33 119.121C135.756 118.934 135.071 119.011 134.55 119.177L130.875 123.777L137.149 121.582L137.614 120.829C137.509 120.292 137.33 119.928 137.135 119.679C136.912 119.394 136.636 119.22 136.33 119.121ZM167 109.345C166.717 110.138 166.11 111.414 165.158 112.556C164.208 113.695 162.851 114.775 161.065 114.998C159.4 115.206 158.637 115.873 158.244 116.514C157.819 117.206 157.746 117.987 157.693 118.585L156.141 118.447C156.192 117.875 156.276 116.743 156.916 115.7C157.587 114.605 158.798 113.711 160.872 113.452C162.118 113.296 163.15 112.531 163.961 111.558C164.771 110.587 165.296 109.482 165.533 108.821L167 109.345ZM162.643 109.329C162.476 109.831 162.105 110.803 161.437 111.709C160.768 112.618 159.748 113.529 158.28 113.749C156.923 113.952 156.327 114.5 156.018 114.991C155.661 115.558 155.63 116.076 155.488 116.607L153.983 116.205C154.049 115.957 154.174 114.995 154.7 114.16C155.274 113.249 156.288 112.472 158.048 112.208C158.961 112.071 159.655 111.502 160.182 110.785C160.711 110.067 161.02 109.27 161.164 108.836L162.643 109.329Z" fill="black"/>
<path d="M144.564 13.506C145.57 13.985 147.754 15.5094 148.768 17.9858L149 18.5538L137.656 29.6712H148.835V39.2592L148.831 39.3071C148.775 39.8304 148.561 40.5904 148.072 41.2437C147.652 41.8032 147.025 42.2851 146.167 42.4442L144.767 45.6257H112.193L110.783 42.4217C110.325 42.3263 109.801 42.1377 109.328 41.8075C108.594 41.2954 108 40.4469 108 39.2114V29.6712H127.047L143.991 13.2334L144.564 13.506ZM113.385 43.7994H143.576L144.147 42.5001H112.813L113.385 43.7994ZM129.67 29.6712H135.047L139.982 24.8335L137.299 22.2694L129.67 29.6712ZM138.611 20.9969L141.288 23.5544L146.82 18.1329C146.141 16.8673 145.071 15.9528 144.316 15.4625L138.611 20.9969ZM109.826 39.2114C109.826 39.7762 110.065 40.0949 110.374 40.31C110.717 40.5499 111.157 40.6568 111.445 40.6738H145.547C146.065 40.6738 146.383 40.4517 146.61 40.1486C146.851 39.8268 146.974 39.4212 147.009 39.1516V31.4975H109.826V39.2114Z" fill="black"/>
<path d="M127.978 5.22876C129.098 4.97711 130.233 4.94139 131.144 5.04655L130.935 6.86065C130.221 6.77829 129.293 6.80498 128.378 7.01046C127.459 7.21685 126.619 7.58842 126.015 8.14238C125.434 8.6753 125.034 9.40828 125.007 10.4603C124.981 11.5112 125.327 12.9365 126.358 14.8251L126.46 15.0091L126.462 15.0124L126.581 15.2291C127.18 16.329 127.81 17.6657 127.977 19.1349C128.161 20.7536 127.777 22.4721 126.365 24.1673L124.962 22.9982C126.05 21.6928 126.291 20.4731 126.163 19.3412C126.028 18.1577 125.483 17.0109 124.865 15.8994C123.664 13.7554 123.143 11.9423 123.182 10.414C123.221 8.85213 123.845 7.65478 124.78 6.79674C125.693 5.95978 126.861 5.47952 127.978 5.22876Z" fill="black"/>
<path d="M120.758 15.086C121.556 14.9081 122.364 14.8824 123.018 14.9573L122.81 16.7717C122.353 16.7193 121.75 16.7362 121.156 16.8686C120.557 17.002 120.034 17.2374 119.67 17.569C119.33 17.8793 119.093 18.3017 119.077 18.9318C119.061 19.5539 119.26 20.4307 119.899 21.624L120.032 21.8669L120.034 21.8701L120.2 22.1721C120.591 22.901 120.994 23.7942 121.106 24.7802C121.241 25.9595 120.955 27.2075 119.937 28.4209L118.538 27.2468C119.23 26.4228 119.371 25.6759 119.292 24.9877C119.207 24.2481 118.861 23.5144 118.442 22.7651L118.29 22.4893C117.558 21.122 117.225 19.9269 117.251 18.8852C117.281 17.7408 117.744 16.8529 118.44 16.2189C119.113 15.606 119.964 15.2631 120.758 15.086Z" fill="black"/>
<path d="M61.7924 130.393C57.687 129.238 47.8684 131.036 37.5238 144.551V139.997L36.8612 139.822C33.6784 138.982 25.6109 137.813 18.2387 139.731L17.888 139.824L17.4103 139.956L17.2702 140.431C16.3285 143.62 15.6018 148.157 16.2451 152.287C16.8923 156.442 18.9668 160.334 23.7319 161.822C27.1403 162.887 30.0021 163.049 32.6818 162.338C35.3463 161.63 37.7363 160.084 40.2433 157.907C42.0422 156.345 43.728 153.952 45.3644 151.361C47.0504 148.692 48.6203 145.922 50.3639 143.236C52.0807 140.593 53.8326 138.252 55.6951 136.662C57.5454 135.083 59.4143 134.318 61.418 134.621L62.4414 134.776V130.575L61.7924 130.393ZM37.3618 147.78C47.4462 133.45 56.8568 131.395 60.6616 131.97V132.776C58.385 132.743 56.3511 133.762 54.5396 135.309C52.4731 137.073 50.6073 139.594 48.8713 142.267C47.1621 144.899 45.444 147.902 43.8596 150.411C42.2256 152.998 40.6586 155.189 39.0759 156.563C36.6641 158.658 34.5156 160.009 32.225 160.617C29.9494 161.221 27.4392 161.116 24.2623 160.123C20.371 158.907 18.5889 155.769 18.0037 152.013C17.445 148.426 18.0149 144.412 18.8408 141.414C25.3093 139.773 32.3973 140.62 35.744 141.381V150.079L37.3618 147.78Z" fill="black"/>
<path d="M62.4403 130.459H64.2202V134.019H62.4403V130.459ZM60.6605 135.799H66V128.679H60.6605V135.799Z" fill="black"/>
<path d="M38.8851 142.674L46.8196 148.845L49.4062 144.822L41.8434 139.42L38.8851 142.674ZM46.9927 145.285L46.3757 146.245L41.495 142.449L42.0964 141.788L46.9927 145.285Z" fill="black"/>
<path d="M18.4275 96.9509H59.0451V99.3395C59.0017 99.5415 58.8866 99.8424 58.6824 100.086C58.4815 100.325 58.2026 100.507 57.7534 100.507H19.6173C19.3892 100.446 19.0736 100.316 18.8208 100.119C18.5491 99.9072 18.4275 99.6878 18.4275 99.4312V96.9509ZM59.0451 94.996H18.4275V88.307H43.9179V92.8449H51.7074V88.307H59.0451V94.996ZM35.5535 86.3521H17.5364L15.8942 86.0661L16.7807 81.7856L35.5535 86.3521ZM14.8801 81.3232L13.9668 85.7312L10.9588 85.2082C11.0003 83.1109 11.6546 81.5048 12.1493 80.6588L14.8801 81.3232ZM16.4726 99.4312C16.4726 100.471 17.0355 101.206 17.6192 101.661C18.1876 102.104 18.8464 102.345 19.3019 102.441L19.4015 102.462H57.7534C58.8601 102.462 59.6619 101.959 60.1795 101.343C60.672 100.757 60.9114 100.07 60.9882 99.5835L61 99.5079V86.3521H49.7525V90.89H45.8728V86.3521H43.8248L11.3567 78.4546L10.9668 78.9307C10.1708 79.9037 8.83226 82.5466 9.01842 86.084L9.05928 86.8622L16.4726 88.1512V99.4312Z" fill="black"/>
<path d="M39.9095 59.4216C40.5338 61.2951 40.1086 63.1562 39.3169 64.8831C38.9221 65.7443 38.4431 66.5561 37.9752 67.303C37.575 67.942 37.1643 68.5614 36.8458 69.0949L36.7152 69.3179L36.7053 69.3358L36.6961 69.3541C35.1574 72.5455 35.5011 75.1292 36.5316 77.0573C37.5435 78.9505 39.1855 80.1553 40.1802 80.7101L40.9408 79.8545C39.8038 78.2827 38.1969 74.0694 40.9538 69.9341C44.0741 65.2534 42.2555 60.6321 40.9335 58.8824L39.9095 59.4216ZM41.2848 62.5093C41.7131 64.3922 41.6165 66.8255 39.9778 69.2835C37.7931 72.5606 38.0316 75.877 38.8206 78.1943C38.3599 77.7224 37.9162 77.1597 37.5659 76.5044C36.7165 74.9151 36.376 72.7324 37.7446 69.8818C38.0605 69.3315 38.4869 68.6963 38.9695 67.9258C39.447 67.1634 39.9567 66.3015 40.383 65.3718C40.7894 64.4852 41.1264 63.5219 41.2848 62.5093Z" fill="black"/>
<path d="M45.7927 69.9026C46.2104 71.156 45.9308 72.4114 45.3846 73.6028C45.1124 74.1964 44.7814 74.7581 44.4548 75.2794C44.1783 75.7209 43.8861 76.1615 43.6603 76.5398L43.5679 76.6978L43.5576 76.7158L43.5488 76.7341C42.4462 79.021 42.6873 80.8912 43.4365 82.293C44.1671 83.6599 45.3487 84.5258 46.0634 84.9244L46.8244 84.0684C46.0535 83.0028 44.9592 80.1314 46.8374 77.3141C49.0791 73.9514 47.773 70.6286 46.8171 69.3635L45.7927 69.9026ZM46.8851 72.953C46.9622 74.066 46.7306 75.3592 45.8611 76.6635C44.5255 78.6668 44.4506 80.6904 44.8076 82.2758C44.6869 82.1082 44.5728 81.9301 44.4713 81.7401C43.9032 80.6772 43.6645 79.2081 44.5965 77.2625C44.8154 76.8818 45.1073 76.4469 45.4487 75.9017C45.7849 75.365 46.1471 74.7535 46.4506 74.0916C46.616 73.7307 46.7654 73.3496 46.8851 72.953Z" fill="black"/>
<path d="M245.663 78.8551H222.277V98.7941C222.277 99.8181 222.286 100.823 222.581 101.577C222.721 101.934 222.913 102.2 223.173 102.38C223.433 102.56 223.817 102.696 224.41 102.696H244.328C244.914 102.696 245.215 102.643 245.378 102.57C245.477 102.526 245.536 102.476 245.59 102.296C245.659 102.064 245.688 101.701 245.688 101.092C245.688 100.798 245.682 100.465 245.676 100.08C245.67 99.6981 245.663 99.2698 245.663 98.7941V78.8551ZM227.85 77.5508H240.481V74.6975H227.85V77.5508ZM234.146 64.4671C231.834 66.716 231.554 68.2468 231.832 69.1772C232.124 70.1567 233.131 70.8453 234.149 71.1799C235.199 70.7873 235.762 70.2889 236.047 69.796C236.347 69.2762 236.396 68.6622 236.235 67.9697C235.952 66.7451 235.047 65.4385 234.146 64.4671ZM246.976 98.7941C246.976 99.2588 246.982 99.6784 246.988 100.059C246.994 100.438 247 100.785 247 101.093C247 101.691 246.978 102.231 246.848 102.667C246.702 103.156 246.412 103.539 245.914 103.761C245.479 103.954 244.935 104 244.328 104H224.41C223.609 104 222.947 103.814 222.422 103.449C221.898 103.086 221.567 102.583 221.358 102.05C220.956 101.022 220.965 99.7499 220.965 98.7941V78.8551H215.843C214.847 78.8551 213.841 78.7686 213.1 78.1994C212.314 77.5955 212 76.5987 212 75.2333L212 56.3671C212.003 55.7418 212.045 54.9172 212.514 54.2455C213.093 53.4171 214.161 53.0001 215.843 53H222.277V77.5508H226.538V73.3932H233.509V72.338C232.35 71.9053 231.014 71.0236 230.574 69.5481C230.056 67.8115 230.883 65.6514 233.723 63.0705L234.179 62.6562L234.622 63.0832C235.719 64.1395 237.1 65.8904 237.514 67.677C237.726 68.5898 237.695 69.5624 237.185 70.4454C236.733 71.2271 235.952 71.8584 234.822 72.3184V73.3932H241.794V77.5508H246.976V98.7941ZM213.312 75.2333C213.312 76.4415 213.594 76.9298 213.903 77.1674C214.257 77.4397 214.844 77.5508 215.843 77.5508H220.965V54.3043H215.843C214.334 54.3044 213.809 54.6794 213.592 54.9894C213.333 55.3602 213.313 55.8778 213.312 56.6224V75.2333Z" fill="black"/>
<path d="M111.209 67.746C110.416 67.5843 109.17 67.554 108.152 68.1585C107.62 68.4747 107.164 68.9584 106.898 69.642C106.636 70.3136 106.578 71.1201 106.728 72.0604L106.776 72.3554L139.791 103.005L140.197 102.949C141.39 102.785 143.116 102.186 144.497 100.896C145.913 99.5729 146.922 97.5596 146.658 94.7135L146.623 94.3318L111.401 67.7852L111.209 67.746ZM144.957 95.2475C145.055 97.3346 144.29 98.7155 143.312 99.6289C142.387 100.494 141.236 100.967 140.353 101.16L138.417 99.3632L143.037 93.8005L144.957 95.2475ZM141.65 92.7554L137.144 98.1817L116.692 79.1952L119.374 75.966L141.65 92.7554ZM109.038 69.6498C109.485 69.3841 110.134 69.3357 110.682 69.4144L117.988 74.9211L115.42 78.0134L108.403 71.4996C108.344 70.9307 108.409 70.5385 108.513 70.2724C108.629 69.9759 108.812 69.7837 109.038 69.6498Z" fill="black"/>
<path d="M130.348 65.6545C129.472 67.2155 129.061 68.8621 128.988 70.2978C128.917 71.6965 129.162 73.0286 129.754 73.8729C130.315 74.6731 131.189 75.0399 132.059 75.2152C132.927 75.3902 133.923 75.4004 134.888 75.3788C135.893 75.3563 136.848 75.3009 137.795 75.3134C138.724 75.3256 139.531 75.4052 140.176 75.6163C140.842 75.8675 141.19 76.1278 141.36 76.3287C141.511 76.5072 141.538 76.653 141.523 76.7938C141.504 76.966 141.411 77.201 141.196 77.4832C140.984 77.7604 140.688 78.0395 140.343 78.2905C138.614 79.5478 137.822 80.7125 137.521 81.6952C137.37 82.1854 137.35 82.6067 137.382 82.9369C137.398 83.1007 137.425 83.238 137.453 83.3459C137.467 83.3998 137.481 83.4451 137.493 83.4809C137.496 83.4905 137.507 83.5253 137.512 83.5386C137.772 84.3266 138.241 84.8716 138.913 85.1369C139.518 85.3758 140.172 85.3361 140.701 85.2687C140.975 85.2337 141.258 85.1844 141.518 85.1406C141.785 85.0954 142.036 85.0544 142.282 85.027C142.763 84.9733 143.156 84.9811 143.486 85.0804C144.661 85.579 145.291 86.6598 145.569 87.9969C145.849 89.3503 145.728 90.8152 145.527 91.7353L147.222 92.1053C147.461 91.011 147.609 89.2928 147.267 87.6446C146.924 85.992 146.048 84.2603 144.116 83.4637L144.084 83.4505L144.052 83.4402C143.372 83.2204 142.683 83.2375 142.09 83.3036C141.79 83.337 141.496 83.3853 141.229 83.4304C140.954 83.4769 140.712 83.519 140.481 83.5484C140 83.6099 139.722 83.5916 139.55 83.5236C139.444 83.4821 139.29 83.3917 139.159 82.9943C139.149 82.9643 139.028 82.6967 139.179 82.2032C139.337 81.6866 139.834 80.8052 141.363 79.6931C141.81 79.3677 142.239 78.9756 142.575 78.535C142.907 78.0995 143.184 77.5702 143.247 76.9794C143.314 76.3573 143.135 75.7413 142.683 75.2077C142.251 74.6982 141.601 74.2981 140.768 73.9861L140.753 73.9805L140.737 73.9751C139.834 73.6758 138.81 73.5922 137.818 73.5792C136.835 73.5662 135.768 73.6244 134.85 73.6449C133.893 73.6663 133.065 73.6489 132.401 73.5151C131.738 73.3815 131.371 73.1582 131.174 72.8773C130.9 72.4861 130.658 71.6076 130.72 70.3859C130.78 69.2012 131.123 67.8173 131.86 66.5032L130.348 65.6545Z" fill="black"/>
</svg>
