<svg width="260" height="178" viewBox="0 0 260 178" fill="none" xmlns="http://www.w3.org/2000/svg">
<path d="M42.8922 134.88C42.8922 133.769 42.649 133.379 42.5147 133.245C42.3886 133.119 42.1555 133.013 41.6098 133.013H14.2736C13.7843 133.013 13.5772 133.146 13.4559 133.296C13.2973 133.491 13.1078 133.934 13.1078 134.88V159.095L19.2156 155.087H41.6098C42.4249 155.087 42.636 154.904 42.6912 154.842C42.7717 154.752 42.8922 154.508 42.8922 153.805V134.88ZM45 153.805C45 154.62 44.8871 155.545 44.2667 156.243C43.621 156.969 42.6637 157.195 41.6098 157.195H19.8457L11 163V134.88C11 133.723 11.2194 132.706 11.82 131.966C12.4581 131.181 13.3611 130.905 14.2736 130.905H41.6098C42.3491 130.905 43.2842 131.034 44.005 131.754C44.7177 132.467 45 133.537 45 134.88V153.805Z" fill="black"/>
<path d="M24.4412 143.992C24.4412 144.702 23.8658 145.277 23.1561 145.277C22.4464 145.277 21.8711 144.702 21.8711 143.992C21.8711 143.282 22.4464 142.707 23.1561 142.707C23.8658 142.707 24.4412 143.282 24.4412 143.992Z" fill="black"/>
<path d="M29.3435 143.992C29.3435 144.702 28.7682 145.277 28.0585 145.277C27.3488 145.277 26.7734 144.702 26.7734 143.992C26.7734 143.282 27.3488 142.707 28.0585 142.707C28.7682 142.707 29.3435 143.282 29.3435 143.992Z" fill="black"/>
<path d="M34.2537 143.992C34.2537 144.702 33.6783 145.277 32.9686 145.277C32.2589 145.277 31.6836 144.702 31.6836 143.992C31.6836 143.282 32.2589 142.707 32.9686 142.707C33.6783 142.707 34.2537 143.282 34.2537 143.992Z" fill="black"/>
<path d="M126.367 8.6146C129.475 7.6794 133.786 7.47314 137.778 8.8964C141.958 10.3868 145.752 13.6586 147.389 19.5884C148.105 21.8656 148.408 26.1839 147.07 30.3804C145.704 34.6612 142.599 38.885 136.474 40.6263C134.77 41.164 132.205 41.441 129.493 41.2983C126.918 41.1628 124.093 40.6428 121.643 39.5156L111 42.4819L115.567 33.1711C114.442 30.1985 113.665 25.4662 114.695 20.8428C115.808 15.8434 119.043 10.9835 126.07 8.70737L126.367 8.6146ZM136.943 11.2374C133.511 10.0139 129.751 10.193 127.09 10.9922L126.836 11.0715C120.746 13.0443 118.067 17.1358 117.121 21.3833C116.155 25.7177 117.005 30.2246 118.07 32.7383L118.292 33.2609L115.672 38.5995L121.886 36.868L122.314 37.0821C124.461 38.1552 127.108 38.6842 129.624 38.8166C132.148 38.9494 134.405 38.6766 135.741 38.2519L135.76 38.246L135.779 38.2406C140.964 36.7718 143.538 33.2755 144.702 29.6253C145.889 25.9037 145.579 22.0943 145.013 20.314L145.005 20.2906L144.999 20.2666C143.595 15.1633 140.421 12.4775 136.943 11.2374Z" fill="black"/>
<path d="M139.016 27.2655C139.503 26.8244 140.256 26.8387 140.727 27.3086C141.212 27.7937 141.212 28.5805 140.727 29.0659L140.577 29.2147C137.422 32.3036 134.042 33.4601 130.767 33.2357C127.593 33.0182 124.669 31.516 122.266 29.5406L122.035 29.348L121.987 29.3054C121.508 28.8559 121.46 28.1044 121.889 27.5968C122.318 27.0893 123.068 27.012 123.59 27.4106L123.64 27.4508L123.846 27.6226C125.987 29.3818 128.434 30.585 130.937 30.7564C133.469 30.9299 136.221 30.0601 138.969 27.3095L139.016 27.2655Z" fill="black"/>
<path d="M240.608 10H215.897C214.63 10 213.891 10.7392 213.891 12.6401V36.2949L220.649 31.8597H240.608C242.298 31.8597 242.72 31.1204 242.72 29.7476V12.6401C242.72 10.4224 241.77 10 240.608 10Z" stroke="black" stroke-width="2.79508"/>
<path d="M249.452 44.3159L247.288 42.895L240.878 38.689H228.035V35.894H241.714L242.062 36.1235L246.657 39.1382V22.3394H249.452V44.3159Z" fill="black"/>
<path d="M15.3301 69.4325H13.3623V90.9462H23.1143V98.453L28.6885 91.3954L29.043 90.9462H32.1348V93.3085H30.1885L22.8594 102.587L20.751 105.257V93.3085H11V67.0692H15.3301V69.4325ZM45.1289 93.3085H38.4355V90.9462H42.7656V69.4325H21.6309V67.0692H45.1289V93.3085Z" fill="black"/>
<rect x="16.9062" y="64.5272" width="2.6253" height="41.2172" transform="rotate(-35.5723 16.9062 64.5272)" fill="black"/>
<rect x="25.043" y="74.7922" width="1.80497" height="15.2844" transform="rotate(-90.0286 25.043 74.7922)" fill="black"/>
<rect width="1.80497" height="10.6995" transform="matrix(0.000359682 1 -1 0.000691213 27.6055 82.9739)" fill="black"/>
<rect x="29.2461" y="79.8019" width="1.80497" height="11.0003" transform="rotate(-90.0286 29.2461 79.8019)" fill="black"/>
<rect width="1.80497" height="7.60059" transform="matrix(0.000359682 1 -1 0.000691213 24.4492 77.9644)" fill="black"/>
<rect x="32.3945" y="84.7899" width="1.80497" height="7.75829" transform="rotate(-90.0286 32.3945 84.7899)" fill="black"/>
<rect width="1.80497" height="3.72946" transform="matrix(0.000359682 1 -1 0.000691213 20.582 72.9774)" fill="black"/>
<path d="M42.3301 8.82336C43.1134 8.82339 44.1388 8.9617 44.9307 9.7677C45.7074 10.5585 46 11.7284 46 13.1505V25.3917C45.2434 24.7877 44.3962 24.2935 43.4814 23.9318V13.1505C43.4814 11.9966 43.2322 11.6317 43.1348 11.5323C43.0526 11.4488 42.8724 11.341 42.3301 11.3409H14.1201C13.6574 11.3409 13.5016 11.4661 13.416 11.5734C13.2828 11.7403 13.0879 12.1679 13.0879 13.1505V38.2872L18.8447 34.4415L19.1631 34.2296H30.0879C30.1896 35.1096 30.4075 35.9536 30.7256 36.7472H19.9268L12.5283 41.6906L10.5703 42.9991V13.1505C10.5704 11.9243 10.7969 10.817 11.4473 10.0021C12.1453 9.12759 13.1365 8.82336 14.1201 8.82336H42.3301Z" fill="black"/>
<rect x="33.2305" y="30.8596" width="12.5921" height="1.88881" fill="black"/>
<rect x="40.4805" y="25.5078" width="12.5921" height="1.88881" transform="rotate(90 40.4805 25.5078)" fill="black"/>
<rect x="18.4336" y="18.2673" width="19.2029" height="2.51842" fill="black"/>
<rect x="18.4336" y="24.8783" width="11.6477" height="2.51842" fill="black"/>
<path d="M140.583 132H112.308C110.858 132 110.012 132.846 110.012 135.021V162.088L117.745 157.013H140.583C142.517 157.013 143 156.167 143 154.596V135.021C143 132.483 141.912 132 140.583 132Z" stroke="black" stroke-width="2.45278"/>
<path d="M132.603 143.446L126.431 152.031H138.776L132.603 143.446Z" fill="black"/>
<path d="M122.167 147.173L118.721 151.965H125.612L122.167 147.173Z" fill="black"/>
<path d="M236.228 82.6241H212.233C211.003 82.6241 210.285 83.2813 210.285 84.9711V106L216.848 102.057H236.228C237.868 102.057 238.278 101.4 238.278 100.179V84.9711C238.278 82.9997 237.356 82.6241 236.228 82.6241Z" stroke="black" stroke-width="2.8315"/>
<path d="M222.722 63H246.716C247.946 63 248.664 63.6572 248.664 65.347V86.3758L242.102 82.4329H222.722C221.081 82.4329 220.671 81.7758 220.671 80.5553V65.347C220.671 63.3755 221.594 63 222.722 63Z" stroke="black" stroke-width="2.8315"/>
<rect x="217.496" y="88.3961" width="13.8523" height="2.30872" fill="black"/>
<rect x="227.887" y="68.1946" width="13.8523" height="2.30872" fill="black"/>
<rect x="217.496" y="93.879" width="13.8523" height="2.30872" fill="black"/>
<rect x="227.887" y="73.6779" width="13.8523" height="2.30872" fill="black"/>
<path d="M113.207 82.4456V99.3719C113.207 99.5031 113.311 99.6133 113.442 99.6255C125.771 100.774 128.999 99.7994 131.252 99.6034C142.139 97.158 144.269 87.1459 143.973 82.4456C143.026 71.7959 133.849 68.739 129.379 68.5418C117.644 68.0241 113.503 76.1347 113.207 82.4456Z" stroke="black" stroke-width="2.2903"/>
<circle cx="122.577" cy="84.2202" r="1.47913" fill="black"/>
<circle cx="128.495" cy="84.2202" r="1.47913" fill="black"/>
<circle cx="134.409" cy="84.2202" r="1.47913" fill="black"/>
<path d="M213.063 162.248L217.514 157.584C214.388 155.154 213.244 149.413 213.063 146.846C212.369 138.95 218.346 133.577 221.421 131.878C228.542 128.234 235.026 130.721 237.377 132.42C248.145 139.883 245.193 150.715 242.371 155.198C238.637 161.098 231.769 162.356 228.802 162.248H213.063Z" stroke="black" stroke-width="2.36006"/>
<rect x="220.879" y="140.751" width="3.14674" height="10.7514" fill="black"/>
<rect x="233.988" y="140.751" width="3.14674" height="10.7514" fill="black"/>
<rect x="227.434" y="136.031" width="3.14674" height="18.8804" fill="black"/>
</svg>
