<svg width="260" height="178" viewBox="0 0 260 178" fill="none" xmlns="http://www.w3.org/2000/svg">
<path d="M24.8291 13.192C24.6027 12.5618 23.564 12.5618 23.3392 13.192L19.3808 24.2753C19.2336 24.687 19.4489 25.1398 19.8606 25.2871C20.2738 25.4343 20.7251 25.2206 20.8723 24.8073L21.8144 22.1663H26.3538L27.2975 24.8073C27.4131 25.1319 27.7171 25.333 28.0417 25.333C28.1303 25.333 28.219 25.3188 28.3077 25.2871C28.7193 25.1398 28.9331 24.687 28.7874 24.2753L24.8291 13.192ZM22.3797 20.583L24.0833 15.8124L25.787 20.583H22.3797ZM47.0417 1.58301H16.9583C14.7765 1.58301 13 3.35951 13 5.54134V32.458C13 34.6398 14.7765 36.4163 16.9583 36.4163H47.0417C49.2235 36.4163 51 34.6398 51 32.458V5.54134C51 3.35951 49.2235 1.58301 47.0417 1.58301ZM23.2917 4.74967C23.7287 4.74967 24.0833 5.10434 24.0833 5.54134C24.0833 5.97834 23.7287 6.33301 23.2917 6.33301C22.8547 6.33301 22.5 5.97834 22.5 5.54134C22.5 5.10434 22.8547 4.74967 23.2917 4.74967ZM20.125 4.74967C20.562 4.74967 20.9167 5.10434 20.9167 5.54134C20.9167 5.97834 20.562 6.33301 20.125 6.33301C19.688 6.33301 19.3333 5.97834 19.3333 5.54134C19.3333 5.10434 19.688 4.74967 20.125 4.74967ZM16.9583 4.74967C17.3953 4.74967 17.75 5.10434 17.75 5.54134C17.75 5.97834 17.3953 6.33301 16.9583 6.33301C16.5213 6.33301 16.1667 5.97834 16.1667 5.54134C16.1667 5.10434 16.5213 4.74967 16.9583 4.74967ZM16.9583 34.833C15.6489 34.833 14.5833 33.7674 14.5833 32.458V9.49967H29.0487L37.244 34.833H16.9583ZM36.0169 24.0473C36.332 24.8248 37.1633 25.9046 38.1307 27.0018C37.7016 27.4515 37.2503 27.8663 36.7785 28.2448L34.299 20.583H42.1333C41.7597 21.8323 40.683 23.9001 39.1804 25.7969C38.3713 24.8723 37.7127 24.0157 37.4815 23.4504C37.3168 23.0467 36.8545 22.8503 36.4508 23.015C36.0454 23.1797 35.8507 23.642 36.0169 24.0473ZM49.4167 32.458C49.4167 33.7674 48.3511 34.833 47.0417 34.833H38.9097L37.301 29.8613C37.9612 29.3832 38.5898 28.7958 39.1947 28.164C40.7147 29.7663 42.2473 31.1834 42.5482 31.4589C42.7002 31.5983 42.8918 31.6663 43.0833 31.6663C43.2971 31.6663 43.5124 31.5793 43.6676 31.4098C43.9637 31.0868 43.9399 30.5865 43.6185 30.2904C42.8775 29.6112 41.5111 28.3065 40.2476 26.9702C42.0494 24.7488 43.3889 22.2028 43.7562 20.5814H45.4568C45.8938 20.5814 46.2484 20.2268 46.2484 19.7898C46.2484 19.3528 45.8938 18.9981 45.4568 18.9981H39.9167V18.2064C39.9167 17.7694 39.562 17.4148 39.125 17.4148C38.688 17.4148 38.3333 17.7694 38.3333 18.2064V18.9981H33.786L30.7128 9.49809H49.4167V32.458Z" fill="black"/>
<path d="M145.042 1.58301H114.958C112.777 1.58301 111 3.35951 111 5.54134V32.458C111 34.6398 112.777 36.4163 114.958 36.4163H145.042C147.224 36.4163 149 34.6398 149 32.458V5.54134C149 3.35951 147.224 1.58301 145.042 1.58301ZM121.292 4.74967C121.729 4.74967 122.083 5.10434 122.083 5.54134C122.083 5.97834 121.729 6.33301 121.292 6.33301C120.855 6.33301 120.5 5.97834 120.5 5.54134C120.5 5.10434 120.855 4.74967 121.292 4.74967ZM118.125 4.74967C118.562 4.74967 118.917 5.10434 118.917 5.54134C118.917 5.97834 118.562 6.33301 118.125 6.33301C117.688 6.33301 117.333 5.97834 117.333 5.54134C117.333 5.10434 117.688 4.74967 118.125 4.74967ZM114.958 4.74967C115.395 4.74967 115.75 5.10434 115.75 5.54134C115.75 5.97834 115.395 6.33301 114.958 6.33301C114.521 6.33301 114.167 5.97834 114.167 5.54134C114.167 5.10434 114.521 4.74967 114.958 4.74967ZM147.417 32.458C147.417 33.7674 146.351 34.833 145.042 34.833H114.958C113.649 34.833 112.583 33.7674 112.583 32.458V9.49967H147.417V32.458Z" fill="black"/>
<path d="M238.292 28.4997H243.042C243.479 28.4997 243.833 28.145 243.833 27.708C243.833 27.271 243.479 26.9163 243.042 26.9163H238.292C237.855 26.9163 237.5 27.271 237.5 27.708C237.5 28.145 237.855 28.4997 238.292 28.4997ZM243.042 1.58301H212.958C210.775 1.58301 209 3.35951 209 5.54134V32.458C209 34.6398 210.775 36.4163 212.958 36.4163H243.042C245.225 36.4163 247 34.6398 247 32.458V5.54134C247 3.35951 245.225 1.58301 243.042 1.58301ZM219.292 4.74967C219.729 4.74967 220.083 5.10434 220.083 5.54134C220.083 5.97834 219.729 6.33301 219.292 6.33301C218.855 6.33301 218.5 5.97834 218.5 5.54134C218.5 5.10434 218.855 4.74967 219.292 4.74967ZM216.125 4.74967C216.562 4.74967 216.917 5.10434 216.917 5.54134C216.917 5.97834 216.562 6.33301 216.125 6.33301C215.688 6.33301 215.333 5.97834 215.333 5.54134C215.333 5.10434 215.688 4.74967 216.125 4.74967ZM212.958 4.74967C213.395 4.74967 213.75 5.10434 213.75 5.54134C213.75 5.97834 213.395 6.33301 212.958 6.33301C212.521 6.33301 212.167 5.97834 212.167 5.54134C212.167 5.10434 212.521 4.74967 212.958 4.74967ZM216.917 34.833H212.958C211.649 34.833 210.583 33.7674 210.583 32.458V17.4163H216.917V34.833ZM234.333 34.833H218.5V17.4163H234.333V34.833ZM245.417 32.458C245.417 33.7674 244.351 34.833 243.042 34.833H235.917V17.4163H245.417V32.458ZM245.417 15.833H210.583V9.49967H245.417V15.833ZM238.292 22.1663H241.458C241.895 22.1663 242.25 21.8117 242.25 21.3747C242.25 20.9377 241.895 20.583 241.458 20.583H238.292C237.855 20.583 237.5 20.9377 237.5 21.3747C237.5 21.8117 237.855 22.1663 238.292 22.1663ZM238.292 31.6663H241.458C241.895 31.6663 242.25 31.3117 242.25 30.8747C242.25 30.4377 241.895 30.083 241.458 30.083H238.292C237.855 30.083 237.5 30.4377 237.5 30.8747C237.5 31.3117 237.855 31.6663 238.292 31.6663ZM238.292 25.333H243.042C243.479 25.333 243.833 24.9783 243.833 24.5413C243.833 24.1043 243.479 23.7497 243.042 23.7497H238.292C237.855 23.7497 237.5 24.1043 237.5 24.5413C237.5 24.9783 237.855 25.333 238.292 25.333Z" fill="black"/>
<g clip-path="url(#clip0_2693_3302)">
<path d="M47.0417 69.792H16.9583C14.7749 69.792 13 71.5685 13 73.7503V102.25C13 104.432 14.7749 106.209 16.9583 106.209H47.0417C49.2251 106.209 51 104.432 51 102.25V73.7503C51 71.5685 49.2251 69.792 47.0417 69.792ZM23.2917 72.9587C23.7287 72.9587 24.0833 73.3133 24.0833 73.7503C24.0833 74.1873 23.7287 74.542 23.2917 74.542C22.8547 74.542 22.5 74.1873 22.5 73.7503C22.5 73.3133 22.8547 72.9587 23.2917 72.9587ZM20.125 72.9587C20.562 72.9587 20.9167 73.3133 20.9167 73.7503C20.9167 74.1873 20.562 74.542 20.125 74.542C19.688 74.542 19.3333 74.1873 19.3333 73.7503C19.3333 73.3133 19.688 72.9587 20.125 72.9587ZM16.9583 72.9587C17.3953 72.9587 17.75 73.3133 17.75 73.7503C17.75 74.1873 17.3953 74.542 16.9583 74.542C16.5213 74.542 16.1667 74.1873 16.1667 73.7503C16.1667 73.3133 16.5213 72.9587 16.9583 72.9587ZM49.4167 102.25C49.4167 103.56 48.3511 104.625 47.0417 104.625H16.9583C15.6489 104.625 14.5833 103.56 14.5833 102.25V77.7087H49.4167V102.25ZM28.0417 98.292C28.1778 98.292 28.3124 98.2572 28.4343 98.1875L39.5177 91.8542C39.7647 91.7132 39.9167 91.4504 39.9167 91.167C39.9167 90.8836 39.7647 90.6207 39.5177 90.4798L28.4343 84.1465C28.1905 84.0072 27.8881 84.0072 27.6442 84.1481C27.4004 84.2906 27.25 84.5502 27.25 84.8337V97.5003C27.25 97.7822 27.4004 98.0434 27.6442 98.1859C27.7662 98.2572 27.9039 98.292 28.0417 98.292Z" fill="black"/>
</g>
<path d="M122.829 82.192C122.603 81.5618 121.564 81.5618 121.339 82.192L117.381 93.2753C117.234 93.687 117.449 94.1398 117.861 94.2871C118.274 94.4343 118.725 94.2206 118.872 93.8073L119.814 91.1663H124.354L125.297 93.8073C125.413 94.1319 125.717 94.333 126.042 94.333C126.13 94.333 126.219 94.3188 126.308 94.2871C126.719 94.1398 126.933 93.687 126.787 93.2753L122.829 82.192ZM120.38 89.583L122.083 84.8124L123.787 89.583H120.38ZM145.042 70.583H114.958C112.777 70.583 111 72.3595 111 74.5413V101.458C111 103.64 112.777 105.416 114.958 105.416H145.042C147.224 105.416 149 103.64 149 101.458V74.5413C149 72.3595 147.224 70.583 145.042 70.583ZM121.292 73.7497C121.729 73.7497 122.083 74.1043 122.083 74.5413C122.083 74.9783 121.729 75.333 121.292 75.333C120.855 75.333 120.5 74.9783 120.5 74.5413C120.5 74.1043 120.855 73.7497 121.292 73.7497ZM118.125 73.7497C118.562 73.7497 118.917 74.1043 118.917 74.5413C118.917 74.9783 118.562 75.333 118.125 75.333C117.688 75.333 117.333 74.9783 117.333 74.5413C117.333 74.1043 117.688 73.7497 118.125 73.7497ZM114.958 73.7497C115.395 73.7497 115.75 74.1043 115.75 74.5413C115.75 74.9783 115.395 75.333 114.958 75.333C114.521 75.333 114.167 74.9783 114.167 74.5413C114.167 74.1043 114.521 73.7497 114.958 73.7497ZM114.958 103.833C113.649 103.833 112.583 102.767 112.583 101.458V78.4997H127.049L135.244 103.833H114.958ZM134.017 93.0473C134.332 93.8248 135.163 94.9046 136.131 96.0018C135.702 96.4515 135.25 96.8663 134.779 97.2448L132.299 89.583H140.133C139.76 90.8323 138.683 92.9001 137.18 94.7969C136.371 93.8723 135.713 93.0157 135.482 92.4504C135.317 92.0467 134.855 91.8503 134.451 92.015C134.045 92.1797 133.851 92.642 134.017 93.0473ZM147.417 101.458C147.417 102.767 146.351 103.833 145.042 103.833H136.91L135.301 98.8613C135.961 98.3832 136.59 97.7958 137.195 97.164C138.715 98.7663 140.247 100.183 140.548 100.459C140.7 100.598 140.892 100.666 141.083 100.666C141.297 100.666 141.512 100.579 141.668 100.41C141.964 100.087 141.94 99.5865 141.618 99.2904C140.877 98.6112 139.511 97.3065 138.248 95.9702C140.049 93.7488 141.389 91.2028 141.756 89.5814H143.457C143.894 89.5814 144.248 89.2268 144.248 88.7898C144.248 88.3528 143.894 87.9981 143.457 87.9981H137.917V87.2064C137.917 86.7694 137.562 86.4148 137.125 86.4148C136.688 86.4148 136.333 86.7694 136.333 87.2064V87.9981H131.786L128.713 78.4981H147.417V101.458Z" fill="black"/>
<path d="M243.042 70.583H212.958C210.777 70.583 209 72.3595 209 74.5413V101.458C209 103.64 210.777 105.416 212.958 105.416H243.042C245.224 105.416 247 103.64 247 101.458V74.5413C247 72.3595 245.224 70.583 243.042 70.583ZM219.292 73.7497C219.729 73.7497 220.083 74.1043 220.083 74.5413C220.083 74.9783 219.729 75.333 219.292 75.333C218.855 75.333 218.5 74.9783 218.5 74.5413C218.5 74.1043 218.855 73.7497 219.292 73.7497ZM216.125 73.7497C216.562 73.7497 216.917 74.1043 216.917 74.5413C216.917 74.9783 216.562 75.333 216.125 75.333C215.688 75.333 215.333 74.9783 215.333 74.5413C215.333 74.1043 215.688 73.7497 216.125 73.7497ZM212.958 73.7497C213.395 73.7497 213.75 74.1043 213.75 74.5413C213.75 74.9783 213.395 75.333 212.958 75.333C212.521 75.333 212.167 74.9783 212.167 74.5413C212.167 74.1043 212.521 73.7497 212.958 73.7497ZM245.417 101.458C245.417 102.767 244.351 103.833 243.042 103.833H212.958C211.649 103.833 210.583 102.767 210.583 101.458V78.4997H245.417V101.458Z" fill="black"/>
<path d="M42.2917 166.5H47.0417C47.4787 166.5 47.8333 166.145 47.8333 165.708C47.8333 165.271 47.4787 164.916 47.0417 164.916H42.2917C41.8547 164.916 41.5 165.271 41.5 165.708C41.5 166.145 41.8547 166.5 42.2917 166.5ZM47.0417 139.583H16.9583C14.7749 139.583 13 141.36 13 143.541V170.458C13 172.64 14.7749 174.416 16.9583 174.416H47.0417C49.2251 174.416 51 172.64 51 170.458V143.541C51 141.36 49.2251 139.583 47.0417 139.583ZM23.2917 142.75C23.7287 142.75 24.0833 143.104 24.0833 143.541C24.0833 143.978 23.7287 144.333 23.2917 144.333C22.8547 144.333 22.5 143.978 22.5 143.541C22.5 143.104 22.8547 142.75 23.2917 142.75ZM20.125 142.75C20.562 142.75 20.9167 143.104 20.9167 143.541C20.9167 143.978 20.562 144.333 20.125 144.333C19.688 144.333 19.3333 143.978 19.3333 143.541C19.3333 143.104 19.688 142.75 20.125 142.75ZM16.9583 142.75C17.3953 142.75 17.75 143.104 17.75 143.541C17.75 143.978 17.3953 144.333 16.9583 144.333C16.5213 144.333 16.1667 143.978 16.1667 143.541C16.1667 143.104 16.5213 142.75 16.9583 142.75ZM20.9167 172.833H16.9583C15.6489 172.833 14.5833 171.767 14.5833 170.458V155.416H20.9167V172.833ZM38.3333 172.833H22.5V155.416H38.3333V172.833ZM49.4167 170.458C49.4167 171.767 48.3511 172.833 47.0417 172.833H39.9167V155.416H49.4167V170.458ZM49.4167 153.833H14.5833V147.5H49.4167V153.833ZM42.2917 160.166H45.4583C45.8953 160.166 46.25 159.812 46.25 159.375C46.25 158.938 45.8953 158.583 45.4583 158.583H42.2917C41.8547 158.583 41.5 158.938 41.5 159.375C41.5 159.812 41.8547 160.166 42.2917 160.166ZM42.2917 169.666H45.4583C45.8953 169.666 46.25 169.312 46.25 168.875C46.25 168.438 45.8953 168.083 45.4583 168.083H42.2917C41.8547 168.083 41.5 168.438 41.5 168.875C41.5 169.312 41.8547 169.666 42.2917 169.666ZM42.2917 163.333H47.0417C47.4787 163.333 47.8333 162.978 47.8333 162.541C47.8333 162.104 47.4787 161.75 47.0417 161.75H42.2917C41.8547 161.75 41.5 162.104 41.5 162.541C41.5 162.978 41.8547 163.333 42.2917 163.333Z" fill="black"/>
<path d="M145.042 139.583H114.958C112.777 139.583 111 141.36 111 143.541V170.458C111 172.64 112.777 174.416 114.958 174.416H145.042C147.224 174.416 149 172.64 149 170.458V143.541C149 141.36 147.224 139.583 145.042 139.583ZM121.292 142.75C121.729 142.75 122.083 143.104 122.083 143.541C122.083 143.978 121.729 144.333 121.292 144.333C120.855 144.333 120.5 143.978 120.5 143.541C120.5 143.104 120.855 142.75 121.292 142.75ZM118.125 142.75C118.562 142.75 118.917 143.104 118.917 143.541C118.917 143.978 118.562 144.333 118.125 144.333C117.688 144.333 117.333 143.978 117.333 143.541C117.333 143.104 117.688 142.75 118.125 142.75ZM114.958 142.75C115.395 142.75 115.75 143.104 115.75 143.541C115.75 143.978 115.395 144.333 114.958 144.333C114.521 144.333 114.167 143.978 114.167 143.541C114.167 143.104 114.521 142.75 114.958 142.75ZM147.417 170.458C147.417 171.767 146.351 172.833 145.042 172.833H114.958C113.649 172.833 112.583 171.767 112.583 170.458V147.5H147.417V170.458ZM126.194 162.195L124.595 167.117C124.49 167.443 124.606 167.801 124.883 168.002C125.161 168.205 125.535 168.205 125.814 168.002L130.002 164.961L134.19 168.002C134.329 168.104 134.49 168.154 134.655 168.154C134.82 168.154 134.981 168.104 135.121 168.002C135.398 167.801 135.513 167.443 135.409 167.117L133.81 162.195L137.997 159.151C138.275 158.95 138.39 158.593 138.286 158.266C138.18 157.94 137.876 157.719 137.532 157.719H132.356L130.755 152.794C130.542 152.144 129.463 152.144 129.25 152.794L127.649 157.719H122.473C122.129 157.719 121.827 157.94 121.719 158.266C121.615 158.593 121.73 158.95 122.007 159.151L126.194 162.195Z" fill="black"/>
<path d="M243.042 139.583H212.958C210.777 139.583 209 141.36 209 143.541V170.458C209 172.64 210.777 174.416 212.958 174.416H243.042C245.224 174.416 247 172.64 247 170.458V143.541C247 141.36 245.224 139.583 243.042 139.583ZM219.292 142.75C219.729 142.75 220.083 143.104 220.083 143.541C220.083 143.978 219.729 144.333 219.292 144.333C218.855 144.333 218.5 143.978 218.5 143.541C218.5 143.104 218.855 142.75 219.292 142.75ZM216.125 142.75C216.562 142.75 216.917 143.104 216.917 143.541C216.917 143.978 216.562 144.333 216.125 144.333C215.688 144.333 215.333 143.978 215.333 143.541C215.333 143.104 215.688 142.75 216.125 142.75ZM212.958 142.75C213.395 142.75 213.75 143.104 213.75 143.541C213.75 143.978 213.395 144.333 212.958 144.333C212.521 144.333 212.167 143.978 212.167 143.541C212.167 143.104 212.521 142.75 212.958 142.75ZM245.417 170.458C245.417 171.767 244.351 172.833 243.042 172.833H212.958C211.649 172.833 210.583 171.767 210.583 170.458V147.5H226.417V165.708C226.417 166.028 226.61 166.318 226.906 166.44C227.2 166.565 227.541 166.495 227.769 166.269L231.958 162.079L236.148 166.269C236.3 166.421 236.503 166.5 236.708 166.5C236.81 166.5 236.914 166.481 237.011 166.44C237.307 166.318 237.5 166.028 237.5 165.708V147.5H245.417V170.458Z" fill="black"/>
<defs>
<clipPath id="clip0_2693_3302">
<rect width="38" height="38" fill="white" transform="translate(13 69)"/>
</clipPath>
</defs>
</svg>
