<svg width="260" height="178" viewBox="0 0 260 178" fill="none" xmlns="http://www.w3.org/2000/svg">
<path fill-rule="evenodd" clip-rule="evenodd" d="M37.3281 8.73438H17.6719C13.8404 8.73438 10.7344 11.8404 10.7344 15.6719V35.3281C10.7344 39.1596 13.8404 42.2656 17.6719 42.2656H37.3281C41.1596 42.2656 44.2656 39.1596 44.2656 35.3281V15.6719C44.2656 11.8404 41.1596 8.73438 37.3281 8.73438ZM17.6719 7C12.8825 7 9 10.8825 9 15.6719V35.3281C9 40.1175 12.8825 44 17.6719 44H37.3281C42.1175 44 46 40.1175 46 35.3281V15.6719C46 10.8825 42.1175 7 37.3281 7H17.6719Z" fill="black"/>
<path fill-rule="evenodd" clip-rule="evenodd" d="M27.6129 33.6925C32.0751 33.6925 35.6925 30.0751 35.6925 25.6129C35.6925 21.1506 32.0751 17.5332 27.6129 17.5332C23.1506 17.5332 19.5332 21.1506 19.5332 25.6129C19.5332 30.0751 23.1506 33.6925 27.6129 33.6925ZM27.6129 35.4269C33.033 35.4269 37.4269 31.033 37.4269 25.6129C37.4269 20.1927 33.033 15.7988 27.6129 15.7988C22.1927 15.7988 17.7988 20.1927 17.7988 25.6129C17.7988 31.033 22.1927 35.4269 27.6129 35.4269Z" fill="black"/>
<path d="M40.5078 14.9492C40.5078 15.9869 39.6666 16.8281 38.6289 16.8281C37.5912 16.8281 36.75 15.9869 36.75 14.9492C36.75 13.9115 37.5912 13.0703 38.6289 13.0703C39.6666 13.0703 40.5078 13.9115 40.5078 14.9492Z" fill="black"/>
<path fill-rule="evenodd" clip-rule="evenodd" d="M106.558 70.1443V74.364H121.775L115.746 65.5393H111.894C109.89 65.5393 108.618 66.324 107.814 67.2694C106.999 68.2276 106.639 69.3845 106.558 70.1443ZM117.61 65.5393L123.639 74.364H134.23L128.114 65.5393H117.61ZM129.987 65.5393L136.103 74.364H144.422V70.1758C143.789 66.8366 140.827 65.6904 139.357 65.5393H129.987ZM144.422 75.9033H106.558V98.5383L106.558 98.5472C106.525 99.9939 107.289 101.029 108.374 101.774C109.456 102.516 110.787 102.912 111.692 103.044H140.485C142.148 102.876 143.111 102.098 143.677 101.22C144.268 100.301 144.444 99.233 144.423 98.554L144.422 98.5418V75.9033ZM106.641 66.2719C107.729 64.9939 109.424 64 111.894 64H139.43L139.466 64.0034C141.282 64.1736 145.165 65.5873 145.95 69.97L145.962 70.0372V98.5178C145.989 99.4464 145.759 100.829 144.971 102.053C144.158 103.316 142.771 104.372 140.597 104.58L140.56 104.584H111.585L111.532 104.577C110.454 104.428 108.85 103.967 107.503 103.043C106.14 102.108 104.974 100.64 105.019 98.521V70.0686L105.022 70.0319C105.12 69.0121 105.578 67.5222 106.641 66.2719Z" fill="black"/>
<path fill-rule="evenodd" clip-rule="evenodd" d="M122.308 84.8499C122.001 84.6999 121.643 84.9232 121.643 85.2648V94.1289C121.643 94.4895 122.038 94.7109 122.345 94.5231L130.407 89.6024C130.718 89.4125 130.697 88.9537 130.369 88.7934L122.308 84.8499ZM120.104 85.2648C120.104 83.7848 121.655 82.8168 122.984 83.4672L131.045 87.4107C132.465 88.105 132.557 90.0931 131.209 90.9163L123.147 95.837C121.814 96.651 120.104 95.6912 120.104 94.1289V85.2648Z" fill="black"/>
<path fill-rule="evenodd" clip-rule="evenodd" d="M126.089 21.652L138.505 7.5686L139.895 8.79404L127.479 22.8774L126.089 21.652ZM107 42.7797L121.269 26.4726L122.663 27.6929L108.395 44L107 42.7797Z" fill="black"/>
<path fill-rule="evenodd" clip-rule="evenodd" d="M107.238 7.99622H118.375L143 43.7607H131.668L107.238 7.99622ZM110.748 9.8493L132.646 41.9076H139.474L117.401 9.8493H110.748Z" fill="black"/>
<path fill-rule="evenodd" clip-rule="evenodd" d="M211.2 12.7013C209.031 13.3737 208.53 15.5583 208.396 16.7848L208.395 16.7902L208.394 16.7956L208.392 16.8115L208.387 16.8601C208.381 16.9032 208.374 16.9671 208.364 17.05C208.345 17.2159 208.317 17.4575 208.283 17.7594C208.217 18.3633 208.128 19.2078 208.039 20.1691C207.861 22.0991 207.687 24.4721 207.692 26.3143C207.697 28.0912 207.871 30.3795 208.046 32.2406C208.134 33.1675 208.221 33.9817 208.286 34.5641C208.319 34.8552 208.346 35.0881 208.365 35.248C208.374 35.3279 208.382 35.3896 208.387 35.4311L208.394 35.4889C208.832 38.7345 210.311 39.7422 211.099 39.912C223.937 40.6656 233.022 40.3078 239.162 40.066C241.368 39.9791 243.194 39.9071 244.677 39.9071C246.463 39.9071 247.498 39.1817 248.115 38.3253C248.762 37.4259 248.987 36.3211 248.987 35.5972V35.5735L248.988 35.5499L249.832 35.5972C248.988 35.5499 248.988 35.55 248.988 35.5499L248.988 35.549L248.988 35.546L248.991 35.4853C248.994 35.4426 248.997 35.3793 249.002 35.2973C249.01 35.1334 249.023 34.8948 249.038 34.597C249.068 34.0011 249.108 33.1682 249.149 32.2203C249.229 30.3211 249.309 27.9728 249.309 26.1449C249.309 24.3169 249.229 21.9686 249.149 20.0695C249.108 19.1216 249.068 18.2887 249.038 17.6928C249.023 17.3949 249.01 17.1564 249.002 16.9924C248.997 16.9105 248.994 16.8472 248.991 16.8044L248.991 16.7889C248.664 14.9442 247.907 13.9258 247.114 13.3301C246.292 12.7118 245.342 12.4817 244.544 12.3752C238.934 11.6272 231.828 11.4547 225.48 11.6004C219.151 11.7455 213.66 12.205 211.2 12.7013ZM249.832 16.6925L250.677 16.6453L250.674 16.597L250.666 16.5493C250.279 14.299 249.313 12.8663 248.131 11.9777C246.972 11.1065 245.688 10.8211 244.767 10.6983C239.034 9.9338 231.829 9.76251 225.441 9.90905C219.067 10.0553 213.423 10.5199 210.822 11.0517L210.785 11.0593L210.749 11.0702C207.452 12.0591 206.854 15.3273 206.715 16.595L206.713 16.6074L206.707 16.6583C206.701 16.7029 206.694 16.7684 206.684 16.853C206.664 17.0221 206.636 17.2674 206.602 17.5733C206.534 18.185 206.444 19.04 206.354 20.0137C206.175 21.9535 205.995 24.3926 206 26.3189C206.005 28.1769 206.186 30.5289 206.362 32.3994C206.45 33.3383 206.539 34.1627 206.605 34.7525C206.638 35.0474 206.665 35.284 206.685 35.447C206.694 35.5286 206.702 35.5918 206.707 35.6347L206.715 35.7007C206.715 35.7008 206.715 35.7011 207.555 35.5972L206.715 35.7011L206.716 35.7056L206.716 35.71C207.221 39.4617 209.095 41.2679 210.841 41.5853L210.891 41.5944L210.942 41.5974C223.908 42.3612 233.18 41.996 239.324 41.7541C241.488 41.6688 243.264 41.5989 244.677 41.5989C247.015 41.5989 248.558 40.6058 249.488 39.3138C250.38 38.0752 250.674 36.6159 250.678 35.6217L250.681 35.5779C250.683 35.5345 250.687 35.4705 250.691 35.3878C250.7 35.2223 250.712 34.9821 250.728 34.6824C250.758 34.0831 250.798 33.2454 250.839 32.2919C250.919 30.3883 251.001 28.0104 251.001 26.1449C251.001 24.2793 250.919 21.9014 250.839 19.9978C250.798 19.0443 250.758 18.2067 250.728 17.6073C250.712 17.3076 250.7 17.0674 250.691 16.902C250.687 16.8193 250.683 16.7553 250.681 16.7118L250.677 16.6464L250.677 16.6453C250.677 16.6452 250.677 16.6453 249.832 16.6925Z" fill="black"/>
<path fill-rule="evenodd" clip-rule="evenodd" d="M224.27 18.3734L237.455 26.0297L224.27 33.6859V18.3734ZM225.961 21.312V30.7474L234.086 26.0297L225.961 21.312Z" fill="black"/>
<path fill-rule="evenodd" clip-rule="evenodd" d="M18.1895 71.2711C16.7456 74.5793 16.8855 78.6165 17.4871 81.3374L17.6304 81.9858L17.0365 82.2829C16.3307 82.6359 15.5646 82.6919 14.9418 82.6477C14.3159 82.6032 13.7572 82.4521 13.4069 82.3119C12.5246 81.9589 12.0653 81.9936 11.8815 82.0464C11.8182 82.0646 11.7849 82.0846 11.7693 82.0966L11.7635 82.1198L11.7367 82.1825C11.692 82.2867 11.6712 82.4445 11.8752 82.7512C12.0906 83.0751 12.488 83.4444 13.0401 83.8279C14.1338 84.5874 15.5978 85.2417 16.6173 85.6078L17.2415 85.8319L17.1771 86.4919C16.885 89.487 14.9517 91.9135 12.8091 93.692C11.0786 95.1283 9.13493 96.2073 7.58174 96.886C8.06406 97.3499 8.6679 97.6614 9.3119 97.8607C10.276 98.1589 11.2536 98.1789 11.8298 98.1097L11.8803 98.1037H11.9313C12.3452 98.1037 12.6084 98.3554 12.7148 98.4748C12.8382 98.6134 12.9274 98.772 12.9909 98.9016C13.1212 99.1679 13.2322 99.4997 13.3241 99.8205C13.4194 100.153 13.5058 100.515 13.5788 100.857C16.2812 100.326 18.6919 100.746 19.6939 101.08L19.862 101.136L19.9937 101.255C23.6538 104.543 27.1574 105.179 30.0327 104.717C32.9535 104.249 35.3078 102.632 36.5609 101.304L36.813 101.036H42.8441L44.293 98.138L44.7799 98.1056C47.1151 97.9498 48.2467 97.3245 48.7753 96.8355C47.2595 96.2667 45.8474 95.3736 44.6658 94.4598C43.2098 93.3338 42.0487 92.1333 41.4101 91.3501C40.6965 90.4928 39.7806 89.094 39.5021 87.7281C39.3602 87.0323 39.3641 86.2448 39.76 85.5421C40.1668 84.8202 40.8955 84.3484 41.8685 84.1148C43.3994 83.7473 44.1184 83.2417 44.4345 82.8732C44.5899 82.692 44.6507 82.5419 44.6733 82.4431C44.685 82.3923 44.6873 82.3522 44.6862 82.3238C44.6859 82.3166 44.6854 82.3102 44.6848 82.3047C44.5982 82.1382 44.5024 82.0567 44.4191 82.0099C44.3171 81.9525 44.1761 81.9157 43.9852 81.9166C43.5905 81.9184 43.1369 82.0814 42.8363 82.2489C42.2274 82.642 41.5301 82.6922 40.9901 82.6468C40.4325 82.5999 39.9247 82.4421 39.6037 82.2994L38.9619 82.0141L39.1198 81.3298C39.7479 78.6077 39.9261 74.571 38.515 71.2647C37.8167 69.6287 36.7358 68.1843 35.1336 67.1435C33.5304 66.1023 31.3474 65.4276 28.3842 65.4276C25.4211 65.4276 23.2302 66.1022 21.6149 67.1449C20.0003 68.1871 18.9041 69.6336 18.1895 71.2711ZM11.7576 82.1076C11.7576 82.1076 11.7582 82.1066 11.7599 82.1049C11.7585 82.1068 11.7577 82.1077 11.7576 82.1076ZM20.6912 65.7139C22.6308 64.4618 25.1571 63.7244 28.3842 63.7244C31.611 63.7244 34.1316 64.4618 36.0613 65.7152C37.9919 66.9691 39.273 68.7019 40.0815 70.5961C41.5462 74.0279 41.4805 78.0291 40.9427 80.9263C41.0047 80.9362 41.0683 80.9442 41.1328 80.9496C41.4882 80.9795 41.7545 80.9235 41.9207 80.8127L41.9451 80.7964L41.9705 80.7819C42.4306 80.5189 43.1868 80.217 43.9775 80.2134C44.384 80.2116 44.8335 80.2888 45.2541 80.5254C45.6843 80.7674 46.0313 81.1468 46.2635 81.6577L46.282 81.6984L46.2961 81.7408C46.512 82.3885 46.3697 83.2331 45.7274 83.982C45.0932 84.7214 43.9932 85.3564 42.2661 85.7709C41.6102 85.9284 41.3547 86.1816 41.2439 86.3782C41.1223 86.5941 41.0753 86.9187 41.171 87.3878C41.3672 88.3501 42.0782 89.4911 42.7216 90.2634L42.7246 90.267L42.7276 90.2707C43.2842 90.954 44.3534 92.0651 45.7078 93.1125C47.0673 94.1638 48.6591 95.108 50.2631 95.524L51 95.7151L50.8924 96.4687C50.704 97.7876 49.0779 99.3958 45.3843 99.7643L43.8969 102.74H37.5384C36.0307 104.228 33.4676 105.891 30.3026 106.399C26.9405 106.939 22.9776 106.16 18.9962 102.647C18.0282 102.369 15.6615 102.02 13.1328 102.71L12.2235 102.958L12.0686 102.028C11.9902 101.558 11.8499 100.859 11.6868 100.29C11.6357 100.111 11.5863 99.9599 11.5409 99.8395C10.7857 99.8709 9.79709 99.7936 8.80848 99.4878C7.5797 99.1076 6.27585 98.348 5.48536 96.9248L5 96.0509L5.93986 95.7105C7.43883 95.1677 9.74337 94.0231 11.7213 92.3814C13.5296 90.8804 14.9682 89.0467 15.3873 86.9611C14.3603 86.5477 13.0965 85.9408 12.0686 85.2268C11.4438 84.7929 10.8454 84.2784 10.4571 83.6945C10.0668 83.1077 9.83579 82.3562 10.1476 81.5686C10.3019 81.0627 10.7385 80.6028 11.4108 80.4095C12.0959 80.2125 12.967 80.3015 14.0394 80.7305C14.2322 80.8076 14.6186 80.9172 15.0625 80.9487C15.272 80.9636 15.4773 80.96 15.6711 80.9346C15.1583 78.0352 15.1287 74.0261 16.6284 70.5898C17.4545 68.697 18.7509 66.9663 20.6912 65.7139Z" fill="black"/>
<path d="M230.484 103.551H244.313C246.35 103.551 248.001 101.9 248.001 99.8635V67.6878C248.001 65.6511 246.35 64 244.313 64H211.676C209.639 64 207.988 65.6511 207.988 67.6878V99.8635C207.988 101.9 209.639 103.551 211.676 103.551H224.399" stroke="black" stroke-width="1.75637"/>
<path d="M224.398 104.255V89.4458H219.512C219.512 89.1508 219.512 85.6966 219.512 84.0063H224.398V79.1201C224.398 75.4323 226.703 71.0992 236.199 72.5743V77.2762H232.788C231.681 77.2762 230.575 77.9215 230.575 80.4108V84.0063H236.199L235.646 89.4458H230.575V104.26" stroke="black" stroke-width="1.75637"/>
<circle cx="29" cy="145.232" r="21.1391" stroke="black" stroke-width="1.72174"/>
<path d="M32.5567 149.937V146.916C25.8684 145.622 19.3249 151.662 17.0236 154.899C16.851 142.817 27.3071 138.646 32.5567 138.071V134.619L43.3437 142.386L32.5567 149.937Z" stroke="black" stroke-width="1.72174"/>
<path d="M135.301 135.819V130.987C135.301 118.562 116.318 118.217 116.318 130.987V144.447C116.319 145.828 116.663 149.279 120.46 150.314" stroke="black" stroke-width="1.8" stroke-linecap="round"/>
<path d="M125.98 150.314C128.511 150.199 133.78 148.451 134.609 142.376" stroke="black" stroke-width="1.8" stroke-linecap="round"/>
<path d="M125.98 158.598V166.536" stroke="black" stroke-width="1.8" stroke-linecap="round"/>
<path d="M142.893 140.306C143.583 147.438 140.063 161.014 120.459 158.253" stroke="black" stroke-width="1.8" stroke-linecap="round"/>
<path d="M109.414 139.96C108.724 143.987 109 152.661 115.627 155.146" stroke="black" stroke-width="1.8" stroke-linecap="round"/>
<path d="M107 163.775L146 125.12" stroke="black" stroke-width="1.8" stroke-linecap="round"/>
<path d="M240.793 139.344C243.207 141.068 245.966 146.93 240.793 151.068" stroke="black" stroke-width="1.94235" stroke-linecap="round"/>
<path d="M242.865 130.723C249.302 135.666 257.625 148.723 242.176 160.034" stroke="black" stroke-width="1.94235" stroke-linecap="round"/>
<path d="M234.935 128.909V161.665C234.935 164.584 231.534 166.183 229.286 164.321L223.966 159.914C223.26 159.329 222.345 159.065 221.428 159.085C204.826 159.441 199.511 137.355 221.992 131.955C222.551 131.821 223.091 131.562 223.528 131.188L229.242 126.291C231.479 124.374 234.935 125.963 234.935 128.909Z" stroke="black" stroke-width="1.94235"/>
</svg>
