<svg width="261" height="192" viewBox="0 0 261 192" fill="none" xmlns="http://www.w3.org/2000/svg">
<path d="M49.6996 39.4785H49.0687V38.2121V34.7768V34.4127C49.0687 34.0645 48.7849 33.7795 48.438 33.7795H47.4289L50.2983 25.4131C50.3619 25.239 50.3382 25.049 50.2513 24.8907C50.1568 24.7324 50.007 24.6216 49.8256 24.5899C47.0741 24.0596 44.6065 24.2971 42.5015 25.2865C42.1861 25.4369 42.0521 25.8089 42.2019 26.1255C42.3517 26.4421 42.7222 26.5766 43.0376 26.4263C43.4396 26.2363 43.8496 26.078 44.2754 25.9514C46.2226 26.64 47.421 29.6636 44.9849 33.7716H42.7459C42.5409 27.3444 40.9011 22.1758 37.8815 18.3923C34.862 14.6167 30.3919 12.1234 24.5894 10.9916C24.3844 10.952 24.1794 11.0153 24.0297 11.1578C23.8799 11.3003 23.8168 11.514 23.8483 11.7118L24.6604 16.5956C22.65 15.4241 20.2927 14.5693 17.6201 14.0468C17.4151 14.0072 17.2102 14.0706 17.0604 14.2131C16.9106 14.3556 16.8475 14.5693 16.879 14.7671L17.7226 19.8329C17.1156 19.3184 16.3429 18.8593 15.4442 18.4556C13.9384 17.6878 11.9832 17.4187 10.4301 17.8383C10.091 17.9332 9.89394 18.2735 9.98853 18.6139L13.3707 31.2467H12.4877C12.1409 31.2467 11.857 31.5316 11.857 31.8799V34.4127C11.857 34.761 12.1409 35.046 12.4877 35.046C12.8346 35.046 13.1185 34.761 13.1185 34.4127V32.5131H14.1906H19.3151L22.374 33.5342C22.7051 33.645 23.0599 33.4629 23.1703 33.1305C23.2807 32.798 23.0993 32.4418 22.7682 32.3311L20.9628 31.7295L18.2666 15.4874C18.8736 15.6299 19.457 15.7882 20.0326 15.9623C23.7143 20.474 21.6409 26.1888 24.4002 32.9326C24.1637 32.9563 23.9508 33.1226 23.872 33.36C23.7616 33.6925 23.9429 34.0486 24.274 34.1595L26.7969 35.0064C26.8599 35.0302 26.9309 35.038 26.994 35.038H28.2554H29.5168C30.6284 36.0908 37.1799 36.7715 34.2077 39.4706H17.1707C16.6977 39.1144 19.0077 38.4574 19.0628 37.5709H20.6869C21.0338 37.5709 21.3176 37.286 21.3176 36.9377C21.3176 36.5894 21.0338 36.3045 20.6869 36.3045H12.4877C12.1409 36.3045 11.857 36.5894 11.857 36.9377V39.4706H10.5956C10.2487 39.4706 9.96493 39.7553 9.96493 40.1039C9.96493 40.4519 10.2487 40.7372 10.5956 40.7372H12.4877H48.438H49.6996C50.0462 40.7372 50.3298 40.4519 50.3298 40.1039C50.3298 39.7553 50.0462 39.4785 49.6996 39.4785ZM11.384 18.9543C12.9529 18.7643 14.8608 19.3105 15.9015 20.3078C15.996 20.4028 16.1222 20.4582 16.2404 20.474C17.3363 23.648 15.05 27.574 16.2877 31.2467H14.6794L11.384 18.9543ZM28.145 29.8773C28.0899 29.529 27.7666 29.2995 27.4197 29.3549C27.1595 29.4024 26.9624 29.6003 26.9073 29.8456C26.8284 29.3865 26.7496 28.9037 26.6707 28.413C26.7811 28.5951 26.9861 28.7138 27.2069 28.7138C27.2384 28.7138 27.2778 28.7138 27.3094 28.7059C27.6562 28.6505 27.8848 28.3259 27.8297 27.9777L27.7272 27.3444C27.672 26.9962 27.3488 26.7666 27.0018 26.822C26.7417 26.8616 26.5525 27.0595 26.4894 27.297C26.379 26.6242 26.2687 25.9355 26.1583 25.2627C26.2923 25.4606 26.5367 25.5793 26.789 25.5398C27.1359 25.4844 27.3645 25.1598 27.3094 24.8116L25.2517 12.4321C26.6392 12.7487 27.9479 13.1445 29.162 13.6274C34.121 19.3975 30.5496 30.653 35.9736 33.7795H28.7993L28.145 29.8773Z" fill="black"/>
<path d="M23.8396 37.5785C24.1864 37.5785 24.4703 37.2936 24.4703 36.9452C24.4703 36.597 24.1864 36.312 23.8396 36.312H23.2088C22.862 36.312 22.5781 36.597 22.5781 36.9452C22.5781 37.2936 22.862 37.5785 23.2088 37.5785H23.8396Z" fill="black"/>
<path d="M45.4425 2.98094C45.5687 3.12343 45.7421 3.19464 45.9155 3.19464C46.0653 3.19464 46.2151 3.13925 46.3333 3.03633C46.5935 2.80681 46.6172 2.4031 46.3886 2.14188C46.2861 2.03109 46.1836 1.9203 46.0811 1.81739C45.8288 1.57199 45.4346 1.57992 45.1902 1.8332C44.9458 2.08648 44.9537 2.48226 45.206 2.72766C45.2848 2.80681 45.3636 2.89384 45.4425 2.98094Z" fill="black"/>
<path d="M46.2775 4.39015C46.3012 4.45349 46.3248 4.51682 46.3406 4.58804C45.8202 5.72783 44.6613 6.77265 41.9808 7.34255H34.5858C34.2389 7.34255 33.9551 7.62752 33.9551 7.97578C33.9551 8.32403 34.2389 8.60901 34.5858 8.60901H46.7348C46.9871 8.60901 47.2078 8.45858 47.3103 8.237C47.6335 7.50085 47.807 6.72513 47.807 5.91784C47.807 5.24503 47.6887 4.58804 47.4601 3.96275C47.3418 3.63819 46.9791 3.46407 46.648 3.5828C46.3248 3.69365 46.1592 4.05772 46.2775 4.39015Z" fill="black"/>
<path d="M31.6151 8.601C31.6309 8.601 31.6467 8.601 31.6625 8.601C32.0093 8.5773 32.2695 8.2765 32.2458 7.92825C32.2379 7.85697 32.2379 7.80158 32.2379 7.74618C32.2379 6.32141 33.389 5.15787 34.816 5.15787C35.5176 5.15787 36.1799 5.4349 36.6687 5.9494C36.8421 6.13147 37.1023 6.18686 37.3388 6.10771C37.5753 6.02062 37.733 5.80691 37.7567 5.56157C37.9301 3.27405 39.8616 1.48521 42.148 1.48521C42.7156 1.48521 43.2753 1.596 43.7957 1.80183C44.1189 1.93638 44.4894 1.77807 44.6156 1.45357C44.7496 1.12902 44.5919 0.757007 44.2687 0.630337C43.5828 0.353359 42.8733 0.21875 42.14 0.21875C40.7052 0.21875 39.3334 0.757009 38.2849 1.73849C37.5122 2.45882 36.9604 3.37696 36.6845 4.37427C36.1247 4.05765 35.4861 3.89146 34.816 3.89146C32.7031 3.89146 30.9766 5.61697 30.9766 7.74618C30.9766 7.82534 30.9766 7.91237 30.9844 8.01528C31.016 8.34772 31.2919 8.601 31.6151 8.601Z" fill="black"/>
<path d="M126.708 32.949H120.338C119.7 31.4926 118.84 30.7802 117.902 30.3369V28.3977C117.902 28.0494 117.619 27.7645 117.271 27.7645C116.925 27.7645 116.641 28.0494 116.641 28.3977V29.8699C116.223 29.7433 115.797 29.6246 115.379 29.4742V27.25H117.271C117.619 27.25 117.902 26.9651 117.902 26.6168C117.902 26.2685 117.619 25.9836 117.271 25.9836H114.749C114.402 25.9836 114.118 26.2685 114.118 26.6168V28.8964C113.077 28.2552 112.163 27.1629 111.595 24.8992V12.686C111.595 12.3377 111.311 12.0527 110.964 12.0527C110.618 12.0527 110.334 12.3377 110.334 12.686V33.5822C110.334 33.9305 110.618 34.2154 110.964 34.2154H126.708C127.056 34.2154 127.339 33.9305 127.339 33.5822C127.339 33.2339 127.056 32.949 126.708 32.949Z" fill="black"/>
<path d="M150.069 19.0184C149.722 19.0184 149.438 19.3033 149.438 19.6515V32.7592C148.295 30.9545 147.956 30.9308 147.814 28.9045C147.782 28.4691 147.695 28.0417 147.554 27.6301L147.404 27.1948C147.152 26.4903 146.521 25.9996 145.772 25.9363C144.503 25.9363 144.795 24.6856 144.29 23.9416H146.631C146.978 23.9416 147.262 23.6567 147.262 23.3084V20.7359C147.262 20.4668 147.097 20.2294 146.844 20.1423L145.804 19.7703C145.362 19.05 144.171 18.9471 143.746 17.934C145.267 18.2822 146.686 18.7413 147.964 19.3033C148.043 19.3429 148.129 19.3587 148.216 19.3587C148.461 19.3587 148.689 19.2163 148.792 18.9788C148.933 18.6542 148.784 18.2822 148.468 18.1477C144.574 16.4459 139.544 15.6465 133.891 15.8285L133.828 15.8206L133.402 15.8443C133.276 15.8523 133.15 15.8523 133.024 15.8602C132.985 15.8602 132.953 15.8681 132.913 15.876L130.927 16.0026C130.848 15.9393 130.753 15.8919 130.651 15.8681L126.67 15.0766L125.479 7.28003C125.432 6.97136 125.171 6.74971 124.864 6.74183C119.882 6.69432 115.293 8.17448 111.942 10.929C111.675 11.1506 111.635 11.5463 111.856 11.8234C112.077 12.0925 112.471 12.1321 112.747 11.9105C115.751 9.44088 119.842 8.07157 124.32 8.00823L125.503 15.7019C125.542 15.9631 125.747 16.1768 126.007 16.2243L130.02 17.0237L132.448 27.3927C132.511 27.6776 132.772 27.8834 133.063 27.8834H134.632L134.656 27.8914L134.869 27.8834H134.916C134.947 27.8834 134.971 27.8834 135.003 27.8755L135.397 27.8597C135.98 27.8359 136.524 28.1842 136.745 28.7304L138.693 33.5824L138.787 33.8198C138.795 33.8436 138.811 33.8752 138.826 33.899C138.826 33.9069 138.834 33.9069 138.834 33.9148C138.85 33.9386 138.866 33.9623 138.882 33.9781L138.889 33.9861C138.905 34.0098 138.921 34.0257 138.945 34.0415C138.952 34.0494 138.952 34.0494 138.961 34.0573C138.984 34.0731 139 34.0889 139.024 34.1048C139.024 34.1048 139.024 34.1048 139.031 34.1048C139.055 34.1206 139.079 34.1285 139.102 34.1444C139.11 34.1444 139.11 34.1523 139.118 34.1523C139.142 34.1602 139.174 34.176 139.197 34.184C139.22 34.1918 139.244 34.1998 139.276 34.1998C139.284 34.1998 139.292 34.1998 139.3 34.1998C139.323 34.1998 139.347 34.2077 139.378 34.2077C139.378 34.2077 139.378 34.2077 139.386 34.2077H150.108C150.455 34.2077 150.739 33.9227 150.739 33.5745V19.6437C150.699 19.3033 150.416 19.0184 150.069 19.0184ZM141.499 31.0495H140.884V27.5272C140.884 27.2106 140.655 26.9415 140.34 26.9019L139.307 26.9336L139.394 26.3083L140.955 26.3558C141.262 26.4033 141.499 26.6645 141.499 26.9811V31.0495ZM140.923 23.3163H140.309V19.794C140.309 19.4774 140.08 19.2083 139.765 19.1687L137.77 18.8838L137.857 18.2585L140.379 18.6147C140.687 18.6622 140.923 18.9233 140.923 19.24V23.3163ZM146.151 27.4481V31.0495H145.535V27.5272C145.535 27.4956 145.535 27.4718 145.528 27.4481H146.151ZM145.993 22.6831H144.732V20.7439L145.993 21.195V22.6831ZM134.001 19.1687L133.812 19.058L133.899 18.4326L134.616 18.6147C134.924 18.6622 135.16 18.9233 135.16 19.24V23.3163H134.545V19.794C134.545 19.4774 134.317 19.2083 134.001 19.1687Z" fill="black"/>
<path d="M130.517 32.9492H129.279C128.933 32.9492 128.648 33.2342 128.648 33.5825C128.648 33.9308 128.933 34.2157 129.279 34.2157H130.517C130.864 34.2157 131.148 33.9308 131.148 33.5825C131.148 33.2342 130.864 32.9492 130.517 32.9492Z" fill="black"/>
<path d="M119.795 31.0497C119.795 31.3979 120.079 31.6829 120.426 31.6829H122.949C123.295 31.6829 123.579 31.3979 123.579 31.0497V26.6171C123.579 26.2689 123.295 25.9839 122.949 25.9839H120.426C120.079 25.9839 119.795 26.2689 119.795 26.6171V31.0497ZM121.056 27.2503H122.318V30.4164H121.056V27.2503Z" fill="black"/>
<path d="M129.255 31.0497V26.6171C129.255 26.2689 128.971 25.9839 128.624 25.9839H126.101C125.754 25.9839 125.471 26.2689 125.471 26.6171V31.0497C125.471 31.3979 125.754 31.6829 126.101 31.6829H128.624C128.971 31.6829 129.255 31.4059 129.255 31.0497ZM127.993 30.4164H126.732V27.2503H127.993V30.4164Z" fill="black"/>
<path d="M134.299 30.4162H132.408V29.6009C132.408 29.2527 132.124 28.9678 131.777 28.9678C131.43 28.9678 131.146 29.2527 131.146 29.6009V31.0495C131.146 31.3977 131.43 31.6827 131.777 31.6827H134.299C134.647 31.6827 134.93 31.3977 134.93 31.0495C134.93 30.7012 134.647 30.4162 134.299 30.4162Z" fill="black"/>
<path d="M114.117 23.4509C114.117 23.7991 114.401 24.0841 114.748 24.0841H117.271C117.617 24.0841 117.902 23.7991 117.902 23.4509V18.7413C117.902 18.5593 117.823 18.393 117.689 18.2664C117.554 18.1477 117.373 18.0923 117.2 18.1081L114.677 18.3852C114.354 18.4168 114.117 18.6938 114.117 19.0184V23.4509ZM115.378 19.5883L116.64 19.4458V22.8176H115.378V19.5883Z" fill="black"/>
<path d="M119.795 23.4509C119.795 23.7991 120.079 24.0841 120.426 24.0841H122.949C123.295 24.0841 123.579 23.7991 123.579 23.4509V18.4247C123.579 18.0764 123.295 17.7915 122.949 17.7915H120.426C120.079 17.7915 119.795 18.0764 119.795 18.4247V23.4509ZM121.056 19.0579H122.318V22.8177H121.056V19.0579Z" fill="black"/>
<path d="M126.101 24.0842H128.624C128.971 24.0842 129.255 23.7993 129.255 23.451V19.0185C129.255 18.7177 129.042 18.4486 128.742 18.3932L126.219 17.9183C126.038 17.8866 125.841 17.9341 125.699 18.0528C125.558 18.1716 125.471 18.3536 125.471 18.5436V23.451C125.471 23.8072 125.754 24.0842 126.101 24.0842ZM126.732 19.3113L127.993 19.5488V22.8257H126.732V19.3113Z" fill="black"/>
<path d="M114.748 16.4854C114.772 16.4854 114.796 16.4854 114.819 16.4854L117.342 16.2084C117.665 16.1767 117.902 15.8997 117.902 15.5751V11.4196C117.902 11.2297 117.815 11.0476 117.665 10.9289C117.515 10.8101 117.326 10.7627 117.137 10.8023C116.23 10.9922 115.308 11.3722 114.409 11.9421C114.228 12.0608 114.109 12.2587 114.109 12.4803V15.8601C114.109 16.0421 114.188 16.2084 114.322 16.335C114.441 16.43 114.59 16.4854 114.748 16.4854ZM115.379 12.8364C115.797 12.5911 116.222 12.4012 116.64 12.2507V15.0052L115.379 15.1477V12.8364Z" fill="black"/>
<path d="M119.795 15.2584C119.795 15.6067 120.079 15.8916 120.426 15.8916H122.949C123.138 15.8916 123.311 15.8046 123.437 15.6621C123.556 15.5196 123.603 15.3217 123.571 15.1397L122.586 9.8998C122.554 9.73355 122.46 9.58318 122.318 9.48821C122.176 9.39324 122.003 9.36154 121.837 9.39324C121.041 9.56736 120.433 9.87604 119.984 10.343C119.873 10.4618 119.803 10.6201 119.803 10.7863V13.4379C119.803 13.7862 120.086 14.0711 120.433 14.0711C120.78 14.0711 121.064 13.7862 121.064 13.4379V11.0712C121.183 10.9763 121.324 10.8971 121.482 10.8338L122.199 14.6331H120.426C120.079 14.6252 119.795 14.9101 119.795 15.2584Z" fill="black"/>
<path d="M245.591 9.12346C245.717 9.26594 245.89 9.33722 246.064 9.33722C246.214 9.33722 246.364 9.28176 246.482 9.17891C246.742 8.94933 246.766 8.54568 246.537 8.28446C246.434 8.17367 246.332 8.06282 246.229 7.95996C245.977 7.71456 245.583 7.7225 245.339 7.97578C245.094 8.22906 245.102 8.62483 245.355 8.87017C245.433 8.94933 245.512 9.03642 245.591 9.12346Z" fill="black"/>
<path d="M246.425 10.5249C246.48 10.6753 246.519 10.8257 246.559 10.9761C246.149 12.1713 244.154 12.9074 241.616 13.4773H234.733H234.418C234.071 13.4773 233.787 13.7622 233.787 14.1105C233.787 14.4588 234.071 14.7437 234.418 14.7437H234.733H240.906C240.402 16.5484 239.432 18.179 238.052 19.4849C237.8 19.7224 237.792 20.1261 238.029 20.3794C238.155 20.5139 238.32 20.5773 238.486 20.5773C238.644 20.5773 238.801 20.5219 238.919 20.4031C240.543 18.8518 241.671 16.9046 242.207 14.7437H246.882C247.135 14.7437 247.355 14.5933 247.457 14.3717C247.781 13.6356 247.954 12.8599 247.954 12.0525C247.954 11.3797 247.836 10.7228 247.607 10.0975C247.489 9.77296 247.126 9.59883 246.795 9.71756C246.472 9.83629 246.306 10.2004 246.425 10.5249Z" fill="black"/>
<path d="M213.251 17.2763C213.338 17.2763 213.424 17.2605 213.511 17.2209C213.827 17.0784 213.968 16.7064 213.827 16.3818C213.629 15.9466 213.535 15.4795 213.535 15.0046C213.535 13.1445 215.041 11.6248 216.901 11.6248C218.533 11.6248 219.921 12.82 220.213 14.4031C220.213 14.411 220.213 14.4189 220.22 14.4347C220.229 14.4743 220.236 14.5138 220.236 14.5534C220.236 14.5693 220.236 14.5772 220.244 14.593C220.252 14.6405 220.252 14.6959 220.26 14.7434C220.276 14.9888 220.441 15.2025 220.677 15.2896C220.914 15.3767 221.175 15.3133 221.348 15.1313C221.71 14.7513 222.2 14.5455 222.72 14.5455H222.728C222.987 15.2025 222.428 15.7012 220.78 16.0098H216.42C216.074 16.0098 215.79 16.2948 215.79 16.6431C215.79 16.9913 216.074 17.2763 216.42 17.2763H220.583C221.56 19.1759 223.066 20.7986 224.888 21.9146C223.784 24.3842 222.27 26.8933 220.26 29.5608C220.047 29.8378 220.102 30.2335 220.378 30.4472C220.488 30.5343 220.623 30.5739 220.757 30.5739C220.946 30.5739 221.135 30.4868 221.261 30.3206C222.317 28.9196 223.24 27.5661 224.044 26.2284L225.345 28.3023C225.439 28.4526 225.597 28.5555 225.771 28.5872C225.802 28.5951 225.842 28.5951 225.873 28.5951C226.015 28.5951 226.157 28.5476 226.268 28.4526L228.16 26.925C228.428 26.7034 228.475 26.3076 228.254 26.0385C228.033 25.7693 227.639 25.7219 227.371 25.9435L226.031 27.0279L224.754 24.9937C225.329 23.9489 225.834 22.9199 226.268 21.8909C226.275 21.875 226.275 21.8592 226.283 21.8434C226.283 21.8355 226.283 21.8355 226.291 21.8276C226.299 21.8117 226.299 21.7959 226.299 21.7801C226.299 21.7721 226.299 21.7721 226.299 21.7642C226.299 21.7484 226.307 21.7405 226.307 21.7247C226.307 21.7167 226.307 21.7088 226.307 21.7009C226.307 21.693 226.307 21.6851 226.307 21.6771C226.315 21.5822 226.299 21.4872 226.259 21.4001C226.236 21.3447 226.212 21.2973 226.172 21.2497C226.172 21.2497 226.172 21.2418 226.165 21.2418C226.157 21.2339 226.149 21.226 226.141 21.2181C226.133 21.2102 226.126 21.2022 226.118 21.1943C226.109 21.1864 226.109 21.1864 226.102 21.1785C226.094 21.1706 226.078 21.1548 226.07 21.1468L226.062 21.139C226.046 21.131 226.039 21.1152 226.023 21.1073L226.015 21.0994C225.999 21.0914 225.983 21.0835 225.968 21.0756C224.336 20.1891 222.956 18.8514 222.002 17.2605H225.219C225.55 17.2605 225.826 16.9993 225.85 16.6668C225.857 16.5877 225.857 16.5165 225.857 16.4452C225.857 14.688 224.438 13.2633 222.688 13.2633C222.625 13.2633 222.562 13.2633 222.507 13.2712C222.499 13.2712 222.499 13.2712 222.491 13.2712C222.436 13.2712 222.38 13.2791 222.326 13.287C222.31 13.287 222.302 13.287 222.286 13.2949C222.239 13.3028 222.191 13.3108 222.144 13.3187C222.128 13.3187 222.113 13.3266 222.104 13.3266C222.057 13.3345 222.018 13.3424 221.971 13.3504C221.963 13.3504 221.947 13.3582 221.939 13.3582C221.892 13.3662 221.845 13.382 221.797 13.3978C221.789 13.3978 221.773 13.4058 221.766 13.4058C221.719 13.4216 221.671 13.4374 221.624 13.4532C221.608 13.4611 221.6 13.4611 221.584 13.4691C221.537 13.4849 221.497 13.5007 221.458 13.5165C221.443 13.5245 221.434 13.5245 221.419 13.5324C221.379 13.5482 221.332 13.5719 221.293 13.5878C221.127 13.0733 220.875 12.5905 220.544 12.1551C220.544 12.0681 220.544 11.9889 220.544 11.9098C220.544 9.61431 221.277 7.4297 222.657 5.60922C222.87 5.33218 222.814 4.93641 222.538 4.72271C222.263 4.509 221.868 4.5644 221.656 4.84144C220.276 6.65404 219.479 8.78325 219.314 11.047C218.604 10.6037 217.769 10.3504 216.885 10.3504C214.339 10.3504 212.258 12.4321 212.258 14.9967C212.258 15.6536 212.392 16.2948 212.66 16.8885C212.786 17.1338 213.015 17.2763 213.251 17.2763Z" fill="black"/>
<path d="M250.897 39.5577C242.935 32.4419 237.676 25.1677 235.689 18.5189C235.358 17.4108 234.184 16.6431 232.835 16.6431H229.012C227.664 16.6431 226.489 17.4187 226.158 18.5189C226.055 18.8673 225.937 19.2234 225.819 19.5717C225.701 19.9041 225.874 20.2603 226.205 20.3791C226.536 20.4978 226.891 20.3237 227.009 19.9912C227.135 19.6192 227.261 19.2471 227.364 18.8831C227.529 18.3211 228.223 17.9095 229.012 17.9095H232.559C233.923 19.4054 235.476 24.1863 236.761 26.6875L234.593 23.5451C234.491 23.4027 234.341 23.2997 234.168 23.276C233.994 23.2523 233.821 23.2997 233.679 23.4106L231.006 25.5635L230.139 24.5187C229.918 24.2496 229.516 24.21 229.248 24.4317C228.98 24.6532 228.941 25.0569 229.162 25.326L230.423 26.8537C230.644 27.1228 231.038 27.1624 231.306 26.9408L232.804 25.7298C240.388 31.7611 233.931 35.418 230.107 39.3994H213C214.718 37.7926 216.445 36.0116 218.148 34.1041C218.377 33.8428 218.361 33.4471 218.101 33.2097C217.84 32.9801 217.446 32.9959 217.21 33.2571C215.136 35.5763 213.031 37.6976 210.95 39.5577C210.753 39.7318 210.689 40.0088 210.776 40.2541C210.871 40.4995 211.107 40.666 211.368 40.666H229.019C229.012 40.6815 228.996 40.6893 228.988 40.7054H250.038V40.666H250.471C250.732 40.666 250.968 40.4995 251.063 40.2541C251.165 40.0088 251.095 39.7318 250.897 39.5577ZM233.734 18.0995L233.261 17.949C233.427 17.9807 233.584 18.0361 233.734 18.0995Z" fill="black"/>
<path d="M218.779 31.4367C218.605 31.6425 218.432 31.8562 218.258 32.062C218.03 32.3311 218.061 32.7269 218.329 32.9564C218.448 33.0593 218.59 33.1068 218.739 33.1068C218.921 33.1068 219.094 33.0277 219.22 32.8852C219.402 32.6715 219.583 32.4578 219.756 32.244C219.977 31.9749 219.938 31.5791 219.669 31.3496C219.393 31.128 218.999 31.1676 218.779 31.4367Z" fill="black"/>
<path d="M224.408 3.83611C226.244 2.34013 228.563 1.51695 230.928 1.51695C232.93 1.51695 234.869 2.08685 236.541 3.17124C237.976 4.09733 239.158 5.36373 239.986 6.84389C239.427 7.09717 238.898 7.44549 238.441 7.87289C237.668 8.59316 237.116 9.51136 236.84 10.5165C236.786 10.4849 236.738 10.4612 236.683 10.4374C236.667 10.4295 236.643 10.4216 236.627 10.4058C236.573 10.382 236.509 10.3504 236.454 10.3266C236.438 10.3187 236.423 10.3108 236.407 10.3028C236.352 10.2791 236.296 10.2633 236.233 10.2396C236.218 10.2316 236.194 10.2237 236.179 10.2158C236.123 10.2 236.06 10.1841 236.005 10.1604C235.989 10.1525 235.966 10.1445 235.95 10.1445C235.894 10.1287 235.831 10.1208 235.776 10.105C235.753 10.0971 235.737 10.0971 235.713 10.0891C235.658 10.0813 235.603 10.0733 235.548 10.0654C235.524 10.0654 235.5 10.0575 235.476 10.0575C235.406 10.0496 235.343 10.0417 235.272 10.0417C235.256 10.0417 235.24 10.0417 235.232 10.0337C235.153 10.0258 235.067 10.0258 234.98 10.0258C232.867 10.0258 231.141 11.7514 231.141 13.8805C231.141 13.9597 231.141 14.0468 231.148 14.1497C231.172 14.4821 231.448 14.7433 231.779 14.7433C231.795 14.7433 231.811 14.7433 231.826 14.7433C232.174 14.7196 232.433 14.4188 232.41 14.0705C232.402 13.9993 232.402 13.9439 232.402 13.8885C232.402 12.4637 233.553 11.3002 234.98 11.3002C235.681 11.3002 236.344 11.5772 236.833 12.0917C237.006 12.2737 237.266 12.3291 237.503 12.25C237.739 12.163 237.897 11.9493 237.921 11.7039C237.928 11.6405 237.928 11.5772 237.936 11.5139C237.936 11.4902 237.944 11.4664 237.944 11.4506C237.952 11.411 237.96 11.3714 237.96 11.3239C237.968 11.3002 237.968 11.2685 237.976 11.2447C237.984 11.2052 237.991 11.1735 238 11.134C238.007 11.1102 238.007 11.0786 238.015 11.0548C238.023 11.0152 238.031 10.9756 238.047 10.9361C238.054 10.8886 238.07 10.849 238.086 10.8015C238.094 10.7699 238.102 10.7382 238.117 10.6986C238.126 10.667 238.141 10.6353 238.149 10.6116C238.157 10.5799 238.173 10.5561 238.181 10.5245C238.189 10.4928 238.204 10.4691 238.213 10.4374C238.228 10.4058 238.236 10.3741 238.252 10.3424C238.259 10.3187 238.276 10.295 238.283 10.2712C238.307 10.2158 238.33 10.1604 238.362 10.105C238.394 10.0417 238.425 9.98623 238.457 9.92295C238.457 9.92295 238.457 9.91501 238.465 9.91501C239.222 8.5457 240.68 7.62749 242.32 7.62749C242.888 7.62749 243.447 7.73834 243.967 7.94411C244.291 8.07866 244.661 7.92035 244.787 7.59585C244.922 7.2713 244.763 6.89929 244.441 6.77268C243.771 6.50352 243.053 6.36109 242.32 6.36109C241.949 6.36109 241.587 6.40067 241.232 6.46394C240.301 4.69886 238.93 3.20288 237.251 2.1106C235.35 0.899538 233.166 0.250488 230.928 0.250488C228.271 0.250488 225.669 1.17658 223.611 2.84669C223.344 3.06833 223.296 3.4641 223.517 3.74113C223.738 4.01817 224.132 4.05775 224.408 3.83611Z" fill="black"/>
<path d="M22.2704 97.2626C22.2941 97.2626 22.3098 97.2626 22.3335 97.2626C22.6567 97.2626 22.9326 97.0172 22.9642 96.6931C22.9878 96.4794 23.0036 96.2657 23.0272 96.0597C23.0588 95.7111 22.8065 95.4025 22.4596 95.3708C22.1127 95.3392 21.8053 95.5929 21.7737 95.9409C21.758 96.1469 21.7343 96.3606 21.7106 96.5743C21.6634 96.9145 21.9235 97.2232 22.2704 97.2626Z" fill="black"/>
<path d="M47.8278 114.993H47.1971C46.8502 114.993 46.5664 115.278 46.5664 115.626C46.5664 115.974 46.8502 116.259 47.1971 116.259H47.8278C48.1747 116.259 48.4585 115.974 48.4585 115.626C48.4585 115.278 48.1747 114.993 47.8278 114.993Z" fill="black"/>
<path d="M45.3059 114.993H44.0445V114.882C44.0445 112.413 42.996 110.054 41.1906 108.407C42.6175 107.505 43.3981 105.685 43.0669 103.896C43.0039 103.555 42.9486 103.223 42.8856 102.883C42.9014 102.812 42.9014 102.74 42.8856 102.661C42.1681 98.4899 41.7819 94.722 41.6715 90.5667C42.7358 91.3422 43.201 93.7168 43.6503 95.846C43.7686 97.1205 43.9026 98.4815 44.0603 99.938C44.1155 100.437 43.9735 100.936 43.6739 101.3C43.4532 101.569 43.4927 101.972 43.7686 102.194C44.0366 102.416 44.4387 102.376 44.6594 102.099C45.164 101.466 45.4084 100.635 45.3217 99.8037C44.5964 92.9885 44.2968 88.3581 44.3362 84.7806C44.3441 83.9497 44.0287 83.1498 43.469 82.5803C43.059 82.1684 42.5545 81.8992 42.0105 81.8043C42.0578 81.4479 42.0815 81.2026 42.0815 81.076C42.1445 78.9784 40.8831 77.1267 39.0068 76.5721C35.2383 75.4642 31.4067 75.4642 27.6383 76.5721C25.7619 77.1267 24.5005 78.9706 24.5636 81.076C24.5714 81.2026 24.5951 81.4479 24.6345 81.8121C24.1063 81.9153 23.6096 82.1762 23.2155 82.5803C22.6557 83.1498 22.3403 83.9497 22.3482 84.7806C22.3797 87.2424 22.2378 90.2736 21.9146 94.0493C21.883 94.3973 22.1432 94.7065 22.4902 94.7298C22.837 94.7614 23.1445 94.5005 23.1681 94.1519C23.4913 90.3369 23.6333 87.2657 23.6018 84.7567C23.5939 84.2661 23.7831 83.7909 24.1063 83.4584C24.3034 83.2608 24.5399 83.1265 24.7922 83.0626C24.8237 83.308 24.8553 83.5772 24.8868 83.8225C24.8868 83.8309 24.8868 83.8309 24.8868 83.8387C24.8947 83.878 24.8947 83.9174 24.9026 83.9574C24.9026 83.9652 24.9026 83.973 24.9026 83.9813C24.9105 84.0207 24.9105 84.0524 24.9184 84.084C24.9184 84.0918 24.9184 84.0995 24.9184 84.1079C24.9262 84.1395 24.9262 84.1711 24.9262 84.2028C24.9262 84.2105 24.9262 84.2267 24.9262 84.2344C24.9262 84.2661 24.9341 84.2899 24.9341 84.3132C24.9341 84.3293 24.9341 84.3371 24.942 84.3532C24.942 84.3771 24.9499 84.4004 24.9499 84.4242C24.9499 84.432 24.9499 84.4481 24.9499 84.4559C24.9499 84.4798 24.9578 84.5036 24.9578 84.5192C24.9578 84.5269 24.9578 84.543 24.9578 84.5508C24.9578 84.5669 24.9578 84.5908 24.9656 84.6063C24.9656 84.6141 24.9656 84.6302 24.9656 84.638C24.9656 84.6541 24.9656 84.6696 24.9735 84.6857C24.9735 84.6935 24.9735 84.7012 24.9735 84.709C24.9735 84.7251 24.9735 84.7329 24.9735 84.749C24.9735 84.7567 24.9735 84.7645 24.9735 84.7645C24.9735 84.7806 24.9735 84.7961 24.9735 84.8123C25.076 88.77 24.9893 92.197 24.6897 95.5846C24.6739 95.7828 24.6503 95.9803 24.6345 96.1785C24.1772 97.3814 23.5466 98.2917 22.703 98.8062C22.7109 98.7352 22.7188 98.6558 22.7266 98.5848C22.766 98.2362 22.5138 97.9276 22.1669 97.8882C21.82 97.8488 21.5125 98.1019 21.4731 98.4499C21.4258 98.8934 21.3785 99.3363 21.3312 99.7876C21.1893 101.141 21.9067 102.424 23.0893 102.907L23.6727 103.144C23.6333 103.389 23.586 103.627 23.5387 103.872C23.2154 105.661 23.988 107.482 25.415 108.383C24.0906 109.587 23.1602 111.17 22.766 112.935C22.6872 113.275 22.9001 113.616 23.247 113.695C23.2943 113.703 23.3416 113.711 23.3889 113.711C23.6806 113.711 23.9407 113.513 24.0038 113.22C24.3586 111.621 25.2337 110.189 26.4873 109.136C28.3242 115.064 31.8797 111.708 41.6321 114.985H23.2312H18.8163C18.4694 114.985 18.1855 115.27 18.1855 115.618C18.1855 115.966 18.4694 116.252 18.8163 116.252H23.2312H43.4138H45.3059C45.6528 116.252 45.9366 115.966 45.9366 115.618C45.9366 115.27 45.6528 114.993 45.3059 114.993ZM27.9931 77.7833C28.9785 77.4908 29.9719 77.2849 30.9652 77.1583C34.5051 78.1319 33.8192 82.1213 35.9793 83.1104C32.7233 82.7701 29.4358 83.0626 26.1877 83.9813C26.1482 83.6721 26.1009 83.2763 26.0378 82.8095L25.9826 82.3666C25.9038 81.7727 25.8329 81.1793 25.825 81.0205C25.7855 79.5091 26.6764 78.1713 27.9931 77.7833ZM24.8237 104.117C25.4623 100.611 25.9511 97.1599 26.1797 93.0279C26.298 90.8992 26.3374 88.7067 26.3059 86.3321C26.3059 86.3159 26.3059 86.3082 26.3059 86.2921C26.3059 86.0784 26.298 85.8647 26.298 85.6432C26.298 85.6038 26.298 85.556 26.298 85.5166C26.298 85.4373 26.298 85.3501 26.2902 85.2713C26.3059 85.2635 26.3296 85.2635 26.3453 85.2552C28.2532 85.4056 29.6802 86.1972 30.7681 87.1314H27.6461C27.2993 87.1314 27.0155 87.4161 27.0155 87.7647C27.0155 88.1127 27.2993 88.3981 27.6461 88.3981H30.8943V95.5213C30.8943 95.8699 31.1781 96.1546 31.525 96.1546C31.8719 96.1546 32.1557 95.8699 32.1557 95.5213V84.2661C32.9362 84.2267 33.7167 84.2267 34.4972 84.2661V95.5213C34.4972 95.7511 34.6233 95.9648 34.8283 96.0753C35.5142 96.4477 36.5155 97.3026 37.3827 99.2181C37.4221 99.313 37.3906 99.3918 37.3669 99.4318C37.3433 99.4712 37.288 99.5345 37.1777 99.5345H35.1279C34.781 99.5345 34.4972 99.8192 34.4972 100.168V100.476C34.4972 101.11 33.9848 101.64 33.3461 101.648C33.0387 101.656 32.747 101.537 32.5262 101.315C32.2897 101.086 32.1557 100.761 32.1557 100.437V100.168C32.1557 99.8192 31.8719 99.5345 31.525 99.5345H29.4752C29.3727 99.5345 29.3097 99.4712 29.286 99.4318C29.2623 99.3918 29.2308 99.313 29.2702 99.2181C29.5383 98.6242 29.9955 97.7616 30.642 97.0411C30.8785 96.7802 30.8549 96.3845 30.5947 96.1469C30.3345 95.9093 29.9403 95.9332 29.7038 96.194C29.1047 96.8668 28.5685 97.7061 28.1271 98.6875C27.9142 99.1465 27.9536 99.6849 28.2296 100.112C28.5055 100.54 28.9706 100.793 29.4752 100.793H30.9258C31.0047 101.324 31.2569 101.83 31.6432 102.21C32.1005 102.661 32.6997 102.907 33.3304 102.907C33.3462 102.907 33.3619 102.907 33.3777 102.907C34.1109 102.89 34.7652 102.542 35.2068 102.012C36.5943 101.965 36.8702 103.191 36.4839 103.832C33.6851 103.437 30.8706 103.571 28.0877 104.228C27.7486 104.308 27.5358 104.648 27.6146 104.988C27.6935 105.328 28.0325 105.542 28.3714 105.463C29.688 105.154 31.0126 104.964 32.337 104.901C35.4432 105.305 36.5155 107.735 34.6391 108.835C34.2055 108.866 33.7719 108.875 33.3225 108.875C33.1964 108.875 33.0623 108.875 32.9362 108.866C32.8968 108.866 32.8495 108.866 32.8101 108.866C32.7233 108.866 32.6366 108.859 32.5499 108.859C32.4474 108.851 32.3449 108.851 32.2424 108.843C32.203 108.843 32.1714 108.843 32.132 108.835C30.0034 108.708 28.3399 108.249 27.1495 107.782C27.0627 107.751 26.9839 107.719 26.8972 107.679C26.7237 107.608 26.5582 107.529 26.4005 107.458C25.2337 106.935 24.5714 105.518 24.8237 104.117Z" fill="black"/>
<path d="M110.074 110.367C110.421 110.367 110.704 110.081 110.704 109.733V109.409C110.704 109.061 110.421 108.775 110.074 108.775C109.727 108.775 109.443 109.061 109.443 109.409V109.733C109.443 110.081 109.727 110.367 110.074 110.367Z" fill="black"/>
<path d="M148.421 105.317L148.681 104.541C148.767 104.304 148.83 104.145 148.83 104.145L148.815 104.137C148.854 103.963 148.823 103.773 148.713 103.623C148.594 103.457 148.405 103.362 148.2 103.362H146.623V98.4305L147.538 95.5174C147.601 95.3276 147.561 95.1139 147.443 94.9557C147.372 94.8524 147.262 94.7737 147.151 94.7343L146.757 93.0085L146.607 92.2092C146.607 92.2009 146.607 92.1931 146.599 92.1931V92.1853L145.89 89.1774C145.89 89.1696 145.89 89.1618 145.882 89.1618C145.882 89.1535 145.874 89.138 145.874 89.1302C145.874 89.1219 145.866 89.1141 145.866 89.1063C145.866 89.0986 145.859 89.0902 145.859 89.0747C145.85 89.0586 145.843 89.0431 145.835 89.0269C145.835 89.0192 145.826 89.0192 145.826 89.0114L145.393 87.4916C145.393 87.4522 145.385 87.4045 145.369 87.3651L145.015 86.1461C145.015 86.1461 145.015 86.1378 145.007 86.1378C145.007 86.13 145.007 86.1222 144.999 86.1222L144.077 83.4074C143.927 82.9722 143.525 82.6869 143.068 82.6869C142.602 82.6869 142.192 82.9877 142.05 83.439L141.199 86.1378V86.1461C141.199 86.1539 141.191 86.1616 141.191 86.1616L140.403 89.1696V89.1774V89.1851L139.693 92.1931V92.2009C139.693 92.2092 139.693 92.217 139.685 92.217L139.228 94.7181C139.078 94.7498 138.944 94.8369 138.85 94.9635C138.732 95.13 138.7 95.3354 138.755 95.5258L139.67 98.4382V100.48H136.169C136.272 99.9819 136.422 99.4751 136.618 98.9767H138.526C138.873 98.9767 139.157 98.6914 139.157 98.3433C139.157 97.9953 138.873 97.71 138.526 97.71H134.632H134.292L135.373 95.6285C135.53 95.3198 135.412 94.9396 135.105 94.7736C134.963 94.7026 134.813 94.6865 134.663 94.7181L133.859 91.1485C133.859 91.1407 133.851 91.1323 133.851 91.1246V91.1168L132.676 87.0565V87.0481V87.0403L131.376 82.98C131.376 82.9722 131.376 82.9722 131.368 82.9638C131.368 82.9561 131.36 82.9483 131.36 82.9406L129.957 79.2915C129.767 78.8008 129.255 78.4761 128.68 78.4761C128.112 78.4761 127.615 78.7847 127.418 79.2676L125.889 82.9322C125.889 82.9406 125.881 82.9483 125.881 82.9561C125.881 82.9638 125.873 82.9639 125.873 82.9722L124.438 87.0326C124.438 87.0403 124.43 87.0481 124.43 87.0565C124.43 87.0642 124.43 87.0642 124.422 87.072L123.933 88.75C123.839 89.0824 124.028 89.4388 124.367 89.5337C124.698 89.6286 125.053 89.4388 125.147 89.0986L125.502 87.8713H130.051C130.122 88.7738 130.17 89.708 130.201 90.6655H123.863C123.839 90.6655 123.823 90.6655 123.8 90.6655C123.791 90.6655 123.783 90.6655 123.776 90.6655C123.76 90.6655 123.752 90.6655 123.737 90.6733C123.728 90.6733 123.72 90.6733 123.713 90.6816C123.705 90.6816 123.689 90.6894 123.681 90.6894C123.673 90.6894 123.665 90.6972 123.657 90.6972C123.65 90.6972 123.634 90.7049 123.626 90.7049C123.618 90.7049 123.61 90.7133 123.602 90.7133C123.594 90.721 123.578 90.721 123.571 90.7288C123.563 90.7288 123.555 90.7366 123.547 90.7366C123.531 90.7449 123.515 90.7527 123.5 90.7682L123.492 90.7766C123.476 90.7843 123.468 90.7921 123.452 90.8082C123.445 90.816 123.445 90.816 123.437 90.8237C123.429 90.8321 123.421 90.8398 123.405 90.8476C123.397 90.8554 123.397 90.8554 123.389 90.8637C123.382 90.8715 123.374 90.8792 123.366 90.887C123.358 90.8953 123.358 90.8954 123.35 90.9031C123.342 90.9109 123.334 90.9186 123.326 90.9347C123.319 90.9425 123.319 90.9503 123.311 90.9503C123.302 90.9586 123.295 90.9742 123.295 90.9819C123.295 90.9903 123.287 90.998 123.287 90.998C123.279 91.0058 123.279 91.0219 123.271 91.0297C123.271 91.0374 123.263 91.0458 123.263 91.0458C123.256 91.0613 123.248 91.0774 123.248 91.1007C123.248 91.1091 123.239 91.1168 123.239 91.1246C123.239 91.1323 123.232 91.1407 123.232 91.1485L122.436 94.7026H122.286C122.065 94.7026 121.86 94.8208 121.749 95.0112C121.639 95.2011 121.631 95.4386 121.726 95.6285L122.806 97.71H122.648C122.625 97.71 122.593 97.71 122.569 97.7177C122.546 97.7177 122.514 97.71 122.491 97.71H117.674L118.359 95.5258C118.423 95.3354 118.383 95.1217 118.265 94.9635C118.17 94.8369 118.036 94.7498 117.887 94.7181L117.429 92.217C117.429 92.2092 117.429 92.2092 117.429 92.2009C117.429 92.1931 117.429 92.1931 117.429 92.1853L116.719 89.1774V89.1696V89.1618L115.931 86.1539C115.931 86.1461 115.931 86.1378 115.923 86.1378V86.13L115.064 83.4074C114.922 82.9561 114.512 82.6552 114.047 82.6552C113.59 82.6552 113.188 82.9483 113.038 83.3757L112.116 86.0906C112.116 86.0984 112.116 86.1061 112.107 86.1061C112.107 86.1061 112.107 86.1145 112.1 86.1145L111.233 89.1218V89.1302C111.233 89.138 111.233 89.1457 111.224 89.1457L110.515 92.1537C110.515 92.1615 110.515 92.1615 110.515 92.1692C110.515 92.1776 110.515 92.1776 110.507 92.1853L110.05 94.6865C109.9 94.7181 109.766 94.8053 109.671 94.9318C109.553 95.0984 109.522 95.3037 109.577 95.4942L110.507 98.4305V101.755C110.507 102.103 110.791 102.388 111.138 102.388C111.485 102.388 111.768 102.103 111.768 101.755V98.9689H115.159V103.362H109.088C108.883 103.362 108.694 103.457 108.576 103.623C108.457 103.789 108.426 104.003 108.489 104.193L109.443 107.066V107.715C109.443 108.063 109.727 108.348 110.073 108.348C110.421 108.348 110.704 108.063 110.704 107.715V106.963C110.704 106.947 110.704 106.931 110.704 106.915C110.704 106.908 110.704 106.9 110.704 106.892C110.704 106.884 110.704 106.868 110.696 106.86C110.696 106.852 110.696 106.837 110.689 106.828C110.689 106.82 110.68 106.813 110.68 106.805C110.68 106.789 110.673 106.781 110.673 106.765C110.673 106.765 110.673 106.765 110.673 106.757L109.963 104.62H123.003L122.01 106.322H113.069C112.723 106.322 112.439 106.607 112.439 106.955C112.439 107.303 112.723 107.588 113.069 107.588H121.742V112.259H119.179V109.726C119.179 109.377 118.896 109.092 118.549 109.092C118.202 109.092 117.918 109.377 117.918 109.726V112.259H116.656V109.726C116.656 109.377 116.373 109.092 116.026 109.092C115.679 109.092 115.395 109.377 115.395 109.726V112.259H114.134V109.726C114.134 109.377 113.85 109.092 113.503 109.092C113.156 109.092 112.873 109.377 112.873 109.726V112.259H110.704V111.309C110.704 110.96 110.421 110.675 110.073 110.675C109.727 110.675 109.443 110.96 109.443 111.309V112.891C109.443 113.24 109.727 113.525 110.073 113.525H122.373H126.929H130.201H133.055C133.142 113.525 133.22 113.509 133.291 113.477H134.671C134.742 113.509 134.829 113.525 134.908 113.525H147.206C147.553 113.525 147.837 113.24 147.837 112.891V106.955C147.837 106.908 147.829 106.852 147.821 106.805C147.924 106.551 148.121 106.021 148.318 105.499C148.358 105.451 148.397 105.388 148.421 105.317ZM143.777 109.1C143.43 109.1 143.146 109.385 143.146 109.733V112.266H141.885V109.733C141.885 109.385 141.601 109.1 141.254 109.1C140.907 109.1 140.623 109.385 140.623 109.733V112.266H139.362V109.733C139.362 109.385 139.078 109.1 138.732 109.1C138.384 109.1 138.101 109.385 138.101 109.733V112.266H136.95C137.052 110.683 136.839 109.132 136.587 107.596H145.07C145.409 108.903 145.456 110.501 145.354 112.266H144.408V109.733C144.408 109.385 144.124 109.1 143.777 109.1ZM132.235 112.266H130.831V108.467C130.831 108.119 130.548 107.833 130.201 107.833H126.929C126.582 107.833 126.299 108.119 126.299 108.467V112.266H123.003V107.596H125.014C125.045 107.596 125.077 107.596 125.108 107.588C125.116 107.588 125.124 107.588 125.132 107.58C125.155 107.573 125.179 107.573 125.195 107.565C125.203 107.565 125.203 107.565 125.21 107.565L128.64 106.401L131.983 107.556C131.991 107.556 131.991 107.556 131.999 107.565C132.014 107.573 132.038 107.573 132.054 107.58C132.062 107.58 132.077 107.588 132.085 107.588C132.101 107.588 132.125 107.596 132.141 107.596C132.156 107.596 132.164 107.596 132.18 107.596H132.188H132.29C132.669 109.045 132.669 110.612 132.235 112.266ZM131.376 95.9765C131.943 96.3567 132.251 96.974 132.456 97.7022H130.595L129.586 95.9765H131.376ZM132.779 98.9689C132.929 99.5468 133.047 100.108 133.134 100.655C133.024 100.544 132.866 100.473 132.692 100.473H132.424C132.077 100.473 131.794 100.757 131.794 101.106C131.794 101.454 132.077 101.739 132.424 101.739H132.692C132.921 101.739 133.118 101.621 133.228 101.446C133.283 102.08 133.276 102.681 133.189 103.243H131.076V100.33C131.281 100.314 131.47 100.196 131.573 100.014C131.683 99.8154 131.683 99.5784 131.573 99.3802L131.336 98.9689H132.779ZM127.466 102.776V100.338H129.807V102.776L128.979 102.238C128.877 102.166 128.758 102.134 128.64 102.134C128.522 102.134 128.403 102.166 128.301 102.238L127.466 102.776ZM128.514 96.6492L129.886 99.0083H127.307L128.49 96.6809L128.514 96.6492ZM126.763 105.222L127.221 104.446L127.276 104.406L128.64 103.52L130.004 104.406L130.059 104.438L130.831 105.823L128.845 105.135C128.782 105.111 128.711 105.103 128.64 105.103C128.569 105.103 128.506 105.111 128.435 105.135L126.409 105.823L126.763 105.222ZM125.691 99.4119C125.644 99.5068 125.621 99.6178 125.621 99.7205C125.628 99.8237 125.652 99.9342 125.715 100.029C125.818 100.203 126.007 100.314 126.204 100.33V103.243H123.279V98.9689H123.87H125.92L125.691 99.4119ZM124.572 104.628H125.644L124.651 106.33H123.515L124.572 104.628ZM136.122 104.628H142.996C143.706 105.016 144.234 105.594 144.605 106.33H136.374C136.28 105.76 136.185 105.19 136.122 104.628ZM140.836 92.953H144.21C144.258 93.7129 144.282 94.4567 144.266 95.2011C144.258 95.2405 144.25 95.2799 144.25 95.3276C144.25 95.3592 144.25 95.3909 144.258 95.4225C144.242 96.1902 144.187 96.9501 144.1 97.7022H140.766L140.222 95.961H143.107C143.454 95.961 143.738 95.6756 143.738 95.3276C143.738 94.9796 143.454 94.6943 143.107 94.6943H140.513L140.836 92.953ZM141.514 89.945H143.848C143.942 90.5312 144.029 91.1091 144.092 91.6869H141.104L141.514 89.945ZM142.295 86.9377H143.201C143.359 87.5233 143.493 88.1011 143.619 88.6789H141.845L142.295 86.9377ZM142.752 85.4017C142.783 85.4889 142.807 85.5838 142.839 85.671H142.673L142.752 85.4017ZM140.939 98.9689H144.124C144.708 100.172 144.834 101.652 144.597 103.362H143.777V100.733C143.777 100.385 143.493 100.101 143.146 100.101C142.8 100.101 142.515 100.385 142.515 100.733V103.362H140.939V98.9689ZM139.677 101.739V103.362H136.004C135.972 102.823 135.972 102.277 136.011 101.739H139.677ZM128.286 80.4472C128.616 81.0722 128.893 81.7688 129.121 82.5209H127.418L128.286 80.4472ZM125.936 86.5813L126.922 83.787H129.468C129.673 84.6657 129.823 85.5999 129.941 86.5813H125.936ZM124.375 91.9083H130.233C130.24 92.8264 130.233 93.7606 130.217 94.7026H128.608C128.593 94.7026 128.577 94.6943 128.561 94.6943C128.553 94.6943 128.553 94.6943 128.545 94.6943H128.538C128.522 94.6943 128.506 94.6943 128.49 94.6943C128.482 94.6943 128.482 94.6943 128.475 94.6943H123.752L124.375 91.9083ZM123.358 95.9765H127.442L126.567 97.7022H124.257L123.358 95.9765ZM121.86 103.362H117.445V101.739H120.559C120.906 101.739 121.19 101.454 121.19 101.106C121.19 100.757 120.906 100.473 120.559 100.473H117.445V98.9689H121.86V103.362ZM111.666 92.953H114.489C114.835 92.953 115.119 92.6683 115.119 92.3196C115.119 91.9716 114.835 91.6869 114.489 91.6869H111.934L112.344 89.945H114.804C115.166 91.4965 115.356 93.0795 115.34 94.6943H111.343L111.666 92.953ZM113.188 86.9377H113.858C114.087 87.5155 114.291 88.0933 114.465 88.6789H112.683L113.188 86.9377ZM111.603 97.7022L111.059 95.961H114.213C114.638 96.3884 114.898 96.9901 115.048 97.7022H111.603ZM127.56 112.266V109.1H129.57V112.266H127.56Z" fill="black"/>
<path d="M114.605 102.071V100.504C114.605 100.156 114.322 99.8711 113.975 99.8711C113.628 99.8711 113.344 100.156 113.344 100.504V102.071C113.344 102.42 113.628 102.705 113.975 102.705C114.322 102.705 114.605 102.42 114.605 102.071Z" fill="black"/>
<path d="M124.633 101.739H124.901C125.248 101.739 125.532 101.454 125.532 101.106C125.532 100.757 125.248 100.473 124.901 100.473H124.633C124.286 100.473 124.002 100.757 124.002 101.106C124.002 101.454 124.286 101.739 124.633 101.739Z" fill="black"/>
<path d="M217.031 100.433H219.168H222.708H223.023C223.283 100.433 223.52 100.267 223.614 100.021L224.836 96.7524C225.034 96.2218 225.498 96.0397 225.861 96.0397C226.224 96.0397 226.689 96.2295 226.886 96.7524L228.108 100.021C228.203 100.267 228.439 100.433 228.699 100.433H229.015H232.546H234.691C235.038 100.433 235.322 100.148 235.322 99.7998C235.322 99.4512 235.038 99.1665 234.691 99.1665H232.964C231.758 96.325 230.765 93.5941 229.977 90.9347H230.907C231.254 90.9347 231.537 90.6494 231.537 90.3014C231.537 89.9527 231.254 89.668 230.907 89.668H229.614C229.015 87.4916 228.558 85.3545 228.234 83.2408C228.179 82.8928 227.856 82.6552 227.516 82.7107C227.375 82.7346 227.249 82.8056 227.154 82.9005V82.885L226.807 83.3357C225.782 84.6812 225.23 86.3359 225.23 88.0294V89.668H223.425C224.119 87.0875 224.616 84.563 224.931 82.0696H227.351H228.384C228.581 82.0696 228.763 81.9824 228.88 81.8243C228.999 81.6661 229.046 81.4679 228.999 81.2781L228.368 78.7453C228.297 78.4599 228.045 78.2623 227.753 78.2623H226.492V76.3706C226.492 76.022 226.208 75.7373 225.861 75.7373C225.515 75.7373 225.23 76.022 225.23 76.3706V78.2701H223.969C223.677 78.2701 223.425 78.4683 223.354 78.753L222.724 81.2858C222.676 81.4757 222.715 81.6738 222.841 81.832C222.968 81.9902 223.141 82.0774 223.338 82.0774H223.661C223.338 84.5708 222.826 87.0875 222.117 89.6758H220.816C220.468 89.6758 220.185 89.9611 220.185 90.3091C220.185 90.6577 220.468 90.9425 220.816 90.9425H221.754C221.147 92.9846 220.413 95.0745 219.562 97.227C219.436 97.5518 219.585 97.9236 219.917 98.0502C219.996 98.0818 220.074 98.0979 220.153 98.0979C220.405 98.0979 220.642 97.9475 220.737 97.7022C221.659 95.3908 222.439 93.1428 223.078 90.9502H224.032C224.434 93.0795 226.673 93.6418 227.477 95.4147C227.051 95.0189 226.492 94.7891 225.877 94.7891C224.884 94.7891 224.016 95.3908 223.67 96.325L222.589 99.1665H219.168H217.031C216.685 99.1665 216.4 99.4512 216.4 99.7998C216.4 100.148 216.685 100.433 217.031 100.433ZM224.458 79.5368H224.899C225.175 79.8532 225.68 80.4471 226.003 80.8029H224.371H224.142L224.458 79.5368Z" fill="black"/>
<path d="M217.567 110.509C217.67 110.572 217.78 110.596 217.89 110.596C218.103 110.596 218.316 110.485 218.434 110.288L218.836 109.615C219.017 109.314 218.915 108.926 218.623 108.744C218.324 108.562 217.937 108.665 217.756 108.958L217.354 109.63C217.172 109.939 217.267 110.327 217.567 110.509Z" fill="black"/>
<path d="M242.259 114.997H241.321L234.502 102.578C234.423 102.404 234.336 102.238 234.257 102.063C234.155 101.842 233.934 101.699 233.69 101.699H218.025C217.78 101.699 217.559 101.842 217.457 102.063C215.856 105.475 213.988 108.981 211.741 112.772C211.56 113.073 211.662 113.461 211.962 113.643C212.064 113.707 212.175 113.73 212.285 113.73C212.498 113.73 212.711 113.619 212.829 113.422C215.021 109.725 216.85 106.298 218.427 102.965H224.986C224.821 105.475 227.619 105.395 228.786 107.556C227.903 107.113 226.918 106.868 225.869 106.868C223.315 106.868 221.075 108.324 220.027 110.659L218.072 114.997H215.62L217.472 111.894C217.654 111.593 217.551 111.205 217.259 111.023C216.96 110.841 216.574 110.944 216.393 111.237L214.153 114.997H210.748H209.462C209.116 114.997 208.832 115.282 208.832 115.63C208.832 115.979 209.116 116.263 209.462 116.263H210.748H214.508H218.482H220.185C220.531 116.263 220.816 115.979 220.816 115.63C220.816 115.282 220.531 114.997 220.185 114.997H219.459L221.17 111.182C222.014 109.306 223.811 108.134 225.861 108.134C227.556 108.134 229.078 108.933 230.031 110.263L232.215 114.997H231.537C231.19 114.997 230.907 115.282 230.907 115.63C230.907 115.979 231.19 116.263 231.537 116.263H233.24H240.919H242.259C242.606 116.263 242.89 115.979 242.89 115.63C242.89 115.282 242.606 114.997 242.259 114.997ZM231.537 105.499H229.645C229.298 105.499 229.015 105.213 229.015 104.865C229.015 104.517 229.298 104.232 229.645 104.232H231.537C231.884 104.232 232.168 104.517 232.168 104.865C232.168 105.213 231.884 105.499 231.537 105.499ZM233.973 108.973L236.481 113.168C236.662 113.469 236.559 113.857 236.268 114.039C236.165 114.102 236.055 114.126 235.944 114.126C235.731 114.126 235.519 114.015 235.4 113.818L232.894 109.622C232.712 109.322 232.815 108.933 233.106 108.751C233.406 108.578 233.792 108.673 233.973 108.973Z" fill="black"/>
<path d="M222.075 105.499C222.422 105.499 222.706 105.213 222.706 104.865C222.706 104.517 222.422 104.232 222.075 104.232H220.184C219.836 104.232 219.553 104.517 219.553 104.865C219.553 105.213 219.836 105.499 220.184 105.499H222.075Z" fill="black"/>
<path d="M49.6996 190.523H49.0687V189.257V185.821V185.457C49.0687 185.109 48.7849 184.824 48.438 184.824H47.4289L50.2983 176.458C50.3619 176.283 50.3382 176.093 50.2513 175.935C50.1568 175.777 50.007 175.666 49.8256 175.634C47.0741 175.104 44.6065 175.341 42.5015 176.331C42.1861 176.481 42.0521 176.853 42.2019 177.17C42.3517 177.487 42.7222 177.621 43.0376 177.471C43.4396 177.281 43.8496 177.122 44.2754 176.996C46.2226 177.684 47.421 180.708 44.9849 184.816H42.7459C42.5409 178.389 40.9011 173.22 37.8815 169.437C34.862 165.661 30.3919 163.168 24.5894 162.036C24.3844 161.996 24.1794 162.06 24.0297 162.202C23.8799 162.345 23.8168 162.558 23.8483 162.756L24.6604 167.64C22.65 166.469 20.2927 165.614 17.6201 165.091C17.4151 165.052 17.2102 165.115 17.0604 165.258C16.9106 165.4 16.8475 165.614 16.879 165.812L17.7226 170.877C17.1156 170.363 16.3429 169.904 15.4442 169.5C13.9384 168.732 11.9832 168.463 10.4301 168.883C10.091 168.978 9.89394 169.318 9.98853 169.658L13.3707 182.291H12.4877C12.1409 182.291 11.857 182.576 11.857 182.924V185.457C11.857 185.805 12.1409 186.09 12.4877 186.09C12.8346 186.09 13.1185 185.805 13.1185 185.457V183.557H14.1906H19.3151L22.374 184.579C22.7051 184.689 23.0599 184.507 23.1703 184.175C23.2807 183.842 23.0993 183.486 22.7682 183.375L20.9628 182.774L18.2666 166.532C18.8736 166.674 19.457 166.833 20.0326 167.007C23.7143 171.518 21.6409 177.233 24.4002 183.977C24.1637 184.001 23.9508 184.167 23.872 184.404C23.7616 184.737 23.9429 185.093 24.274 185.204L26.7969 186.051C26.8599 186.075 26.9309 186.082 26.994 186.082H28.2554H29.5168C30.6284 187.135 37.1799 187.816 34.2077 190.515H17.1707C16.6977 190.159 19.0077 189.502 19.0628 188.615H20.6869C21.0338 188.615 21.3176 188.33 21.3176 187.982C21.3176 187.634 21.0338 187.349 20.6869 187.349H12.4877C12.1409 187.349 11.857 187.634 11.857 187.982V190.515H10.5956C10.2487 190.515 9.96493 190.8 9.96493 191.148C9.96493 191.496 10.2487 191.782 10.5956 191.782H12.4877H48.438H49.6996C50.0462 191.782 50.3298 191.496 50.3298 191.148C50.3298 190.8 50.0462 190.523 49.6996 190.523ZM11.384 169.999C12.9529 169.809 14.8608 170.355 15.9015 171.352C15.996 171.447 16.1222 171.503 16.2404 171.518C17.3363 174.692 15.05 178.618 16.2877 182.291H14.6794L11.384 169.999ZM28.145 180.922C28.0899 180.573 27.7666 180.344 27.4197 180.399C27.1595 180.447 26.9624 180.645 26.9073 180.89C26.8284 180.431 26.7496 179.948 26.6707 179.457C26.7811 179.64 26.9861 179.758 27.2069 179.758C27.2384 179.758 27.2778 179.758 27.3094 179.75C27.6562 179.695 27.8848 179.37 27.8297 179.022L27.7272 178.389C27.672 178.041 27.3488 177.811 27.0018 177.866C26.7417 177.906 26.5525 178.104 26.4894 178.341C26.379 177.669 26.2687 176.98 26.1583 176.307C26.2923 176.505 26.5367 176.624 26.789 176.584C27.1359 176.529 27.3645 176.204 27.3094 175.856L25.2517 163.477C26.6392 163.793 27.9479 164.189 29.162 164.672C34.121 170.442 30.5496 181.697 35.9736 184.824H28.7993L28.145 180.922Z" fill="black"/>
<path d="M23.8396 188.623C24.1864 188.623 24.4703 188.338 24.4703 187.99C24.4703 187.641 24.1864 187.356 23.8396 187.356H23.2088C22.862 187.356 22.5781 187.641 22.5781 187.99C22.5781 188.338 22.862 188.623 23.2088 188.623H23.8396Z" fill="black"/>
<path d="M45.4425 154.025C45.5687 154.168 45.7421 154.239 45.9155 154.239C46.0653 154.239 46.2151 154.184 46.3333 154.081C46.5935 153.851 46.6172 153.448 46.3886 153.186C46.2861 153.076 46.1836 152.965 46.0811 152.862C45.8288 152.616 45.4346 152.624 45.1902 152.878C44.9458 153.131 44.9537 153.527 45.206 153.772C45.2848 153.851 45.3636 153.938 45.4425 154.025Z" fill="black"/>
<path d="M46.2775 155.434C46.3012 155.497 46.3248 155.561 46.3406 155.632C45.8202 156.772 44.6613 157.817 41.9808 158.386H34.5858C34.2389 158.386 33.9551 158.671 33.9551 159.02C33.9551 159.368 34.2389 159.653 34.5858 159.653H46.7348C46.9871 159.653 47.2078 159.503 47.3103 159.281C47.6335 158.545 47.807 157.769 47.807 156.962C47.807 156.289 47.6887 155.632 47.4601 155.007C47.3418 154.682 46.9791 154.508 46.648 154.627C46.3248 154.738 46.1592 155.102 46.2775 155.434Z" fill="black"/>
<path d="M31.6151 159.645C31.6309 159.645 31.6467 159.645 31.6625 159.645C32.0093 159.622 32.2695 159.321 32.2458 158.973C32.2379 158.901 32.2379 158.846 32.2379 158.791C32.2379 157.366 33.389 156.202 34.816 156.202C35.5176 156.202 36.1799 156.479 36.6687 156.994C36.8421 157.176 37.1023 157.231 37.3388 157.152C37.5753 157.065 37.733 156.851 37.7567 156.606C37.9301 154.318 39.8616 152.53 42.148 152.53C42.7156 152.53 43.2753 152.64 43.7957 152.846C44.1189 152.981 44.4894 152.823 44.6156 152.498C44.7496 152.173 44.5919 151.801 44.2687 151.675C43.5828 151.398 42.8733 151.263 42.14 151.263C40.7052 151.263 39.3334 151.801 38.2849 152.783C37.5122 153.503 36.9604 154.421 36.6845 155.419C36.1247 155.102 35.4861 154.936 34.816 154.936C32.7031 154.936 30.9766 156.661 30.9766 158.791C30.9766 158.87 30.9766 158.957 30.9844 159.06C31.016 159.392 31.2919 159.645 31.6151 159.645Z" fill="black"/>
<path d="M126.708 183.993H120.338C119.7 182.537 118.84 181.824 117.902 181.381V179.442C117.902 179.093 117.619 178.808 117.271 178.808C116.925 178.808 116.641 179.093 116.641 179.442V180.914C116.223 180.787 115.797 180.669 115.379 180.518V178.294H117.271C117.619 178.294 117.902 178.009 117.902 177.661C117.902 177.312 117.619 177.028 117.271 177.028H114.749C114.402 177.028 114.118 177.312 114.118 177.661V179.94C113.077 179.299 112.163 178.207 111.595 175.943V163.73C111.595 163.382 111.311 163.097 110.964 163.097C110.618 163.097 110.334 163.382 110.334 163.73V184.626C110.334 184.974 110.618 185.259 110.964 185.259H126.708C127.056 185.259 127.339 184.974 127.339 184.626C127.339 184.278 127.056 183.993 126.708 183.993Z" fill="black"/>
<path d="M150.069 170.062C149.722 170.062 149.438 170.347 149.438 170.695V183.803C148.295 181.998 147.956 181.975 147.814 179.948C147.782 179.513 147.695 179.086 147.554 178.674L147.404 178.239C147.152 177.534 146.521 177.044 145.772 176.98C144.503 176.98 144.795 175.73 144.29 174.986H146.631C146.978 174.986 147.262 174.701 147.262 174.352V171.78C147.262 171.511 147.097 171.273 146.844 171.186L145.804 170.814C145.362 170.094 144.171 169.991 143.746 168.978C145.267 169.326 146.686 169.785 147.964 170.347C148.043 170.387 148.129 170.403 148.216 170.403C148.461 170.403 148.689 170.26 148.792 170.023C148.933 169.698 148.784 169.326 148.468 169.192C144.574 167.49 139.544 166.69 133.891 166.872L133.828 166.865L133.402 166.888C133.276 166.896 133.15 166.896 133.024 166.904C132.985 166.904 132.953 166.912 132.913 166.92L130.927 167.047C130.848 166.983 130.753 166.936 130.651 166.912L126.67 166.121L125.479 158.324C125.432 158.015 125.171 157.794 124.864 157.786C119.882 157.738 115.293 159.218 111.942 161.973C111.675 162.195 111.635 162.59 111.856 162.867C112.077 163.136 112.471 163.176 112.747 162.954C115.751 160.485 119.842 159.116 124.32 159.052L125.503 166.746C125.542 167.007 125.747 167.221 126.007 167.268L130.02 168.068L132.448 178.437C132.511 178.722 132.772 178.927 133.063 178.927H134.632L134.656 178.935L134.869 178.927H134.916C134.947 178.927 134.971 178.927 135.003 178.919L135.397 178.904C135.98 178.88 136.524 179.228 136.745 179.774L138.693 184.626L138.787 184.864C138.795 184.888 138.811 184.919 138.826 184.943C138.826 184.951 138.834 184.951 138.834 184.959C138.85 184.983 138.866 185.006 138.882 185.022L138.889 185.03C138.905 185.054 138.921 185.07 138.945 185.085C138.952 185.093 138.952 185.093 138.961 185.101C138.984 185.117 139 185.133 139.024 185.149C139.024 185.149 139.024 185.149 139.031 185.149C139.055 185.165 139.079 185.172 139.102 185.188C139.11 185.188 139.11 185.196 139.118 185.196C139.142 185.204 139.174 185.22 139.197 185.228C139.22 185.236 139.244 185.244 139.276 185.244C139.284 185.244 139.292 185.244 139.3 185.244C139.323 185.244 139.347 185.252 139.378 185.252C139.378 185.252 139.378 185.252 139.386 185.252H150.108C150.455 185.252 150.739 184.967 150.739 184.618V170.688C150.699 170.347 150.416 170.062 150.069 170.062ZM141.499 182.093H140.884V178.571C140.884 178.255 140.655 177.985 140.34 177.946L139.307 177.978L139.394 177.352L140.955 177.4C141.262 177.447 141.499 177.708 141.499 178.025V182.093ZM140.923 174.36H140.309V170.838C140.309 170.521 140.08 170.252 139.765 170.213L137.77 169.928L137.857 169.302L140.379 169.659C140.687 169.706 140.923 169.967 140.923 170.284V174.36ZM146.151 178.492V182.093H145.535V178.571C145.535 178.54 145.535 178.516 145.528 178.492H146.151ZM145.993 173.727H144.732V171.788L145.993 172.239V173.727ZM134.001 170.213L133.812 170.102L133.899 169.477L134.616 169.659C134.924 169.706 135.16 169.967 135.16 170.284V174.36H134.545V170.838C134.545 170.521 134.317 170.252 134.001 170.213Z" fill="black"/>
<path d="M130.517 183.993H129.279C128.933 183.993 128.648 184.278 128.648 184.626C128.648 184.975 128.933 185.26 129.279 185.26H130.517C130.864 185.26 131.148 184.975 131.148 184.626C131.148 184.278 130.864 183.993 130.517 183.993Z" fill="black"/>
<path d="M119.795 182.094C119.795 182.442 120.079 182.727 120.426 182.727H122.949C123.295 182.727 123.579 182.442 123.579 182.094V177.662C123.579 177.313 123.295 177.028 122.949 177.028H120.426C120.079 177.028 119.795 177.313 119.795 177.662V182.094ZM121.056 178.295H122.318V181.461H121.056V178.295Z" fill="black"/>
<path d="M129.255 182.094V177.662C129.255 177.313 128.971 177.028 128.624 177.028H126.101C125.754 177.028 125.471 177.313 125.471 177.662V182.094C125.471 182.442 125.754 182.727 126.101 182.727H128.624C128.971 182.727 129.255 182.45 129.255 182.094ZM127.993 181.461H126.732V178.295H127.993V181.461Z" fill="black"/>
<path d="M134.299 181.46H132.408V180.645C132.408 180.297 132.124 180.012 131.777 180.012C131.43 180.012 131.146 180.297 131.146 180.645V182.093C131.146 182.442 131.43 182.727 131.777 182.727H134.299C134.647 182.727 134.93 182.442 134.93 182.093C134.93 181.745 134.647 181.46 134.299 181.46Z" fill="black"/>
<path d="M114.117 174.495C114.117 174.843 114.401 175.128 114.748 175.128H117.271C117.617 175.128 117.902 174.843 117.902 174.495V169.785C117.902 169.603 117.823 169.437 117.689 169.31C117.554 169.192 117.373 169.136 117.2 169.152L114.677 169.429C114.354 169.461 114.117 169.738 114.117 170.062V174.495ZM115.378 170.632L116.64 170.49V173.862H115.378V170.632Z" fill="black"/>
<path d="M119.795 174.494C119.795 174.843 120.079 175.128 120.426 175.128H122.949C123.295 175.128 123.579 174.843 123.579 174.494V169.468C123.579 169.12 123.295 168.835 122.949 168.835H120.426C120.079 168.835 119.795 169.12 119.795 169.468V174.494ZM121.056 170.101H122.318V173.861H121.056V170.101Z" fill="black"/>
<path d="M126.101 175.128H128.624C128.971 175.128 129.255 174.843 129.255 174.494V170.062C129.255 169.761 129.042 169.492 128.742 169.437L126.219 168.962C126.038 168.93 125.841 168.978 125.699 169.096C125.558 169.215 125.471 169.397 125.471 169.587V174.494C125.471 174.851 125.754 175.128 126.101 175.128ZM126.732 170.355L127.993 170.592V173.869H126.732V170.355Z" fill="black"/>
<path d="M114.748 167.529C114.772 167.529 114.796 167.529 114.819 167.529L117.342 167.252C117.665 167.22 117.902 166.943 117.902 166.619V162.463C117.902 162.273 117.815 162.091 117.665 161.972C117.515 161.854 117.326 161.806 117.137 161.846C116.23 162.036 115.308 162.416 114.409 162.986C114.228 163.104 114.109 163.302 114.109 163.524V166.904C114.109 167.086 114.188 167.252 114.322 167.378C114.441 167.473 114.59 167.529 114.748 167.529ZM115.379 163.88C115.797 163.635 116.222 163.445 116.64 163.294V166.049L115.379 166.191V163.88Z" fill="black"/>
<path d="M119.795 166.302C119.795 166.65 120.079 166.935 120.426 166.935H122.949C123.138 166.935 123.311 166.848 123.437 166.706C123.556 166.563 123.603 166.365 123.571 166.183L122.586 160.943C122.554 160.777 122.46 160.627 122.318 160.532C122.176 160.437 122.003 160.405 121.837 160.437C121.041 160.611 120.433 160.919 119.984 161.386C119.873 161.505 119.803 161.664 119.803 161.83V164.481C119.803 164.83 120.086 165.115 120.433 165.115C120.78 165.115 121.064 164.83 121.064 164.481V162.115C121.183 162.02 121.324 161.941 121.482 161.877L122.199 165.677H120.426C120.079 165.669 119.795 165.954 119.795 166.302Z" fill="black"/>
<path d="M245.591 160.168C245.717 160.31 245.89 160.382 246.064 160.382C246.214 160.382 246.364 160.326 246.482 160.223C246.742 159.994 246.766 159.59 246.537 159.329C246.434 159.218 246.332 159.107 246.229 159.004C245.977 158.759 245.583 158.767 245.339 159.02C245.094 159.273 245.102 159.669 245.355 159.915C245.433 159.994 245.512 160.081 245.591 160.168Z" fill="black"/>
<path d="M246.425 161.568C246.48 161.719 246.519 161.869 246.559 162.02C246.149 163.215 244.154 163.951 241.616 164.521H234.733H234.418C234.071 164.521 233.787 164.806 233.787 165.154C233.787 165.502 234.071 165.787 234.418 165.787H234.733H240.906C240.402 167.592 239.432 169.222 238.052 170.528C237.8 170.766 237.792 171.17 238.029 171.423C238.155 171.557 238.32 171.621 238.486 171.621C238.644 171.621 238.801 171.565 238.919 171.447C240.543 169.895 241.671 167.948 242.207 165.787H246.882C247.135 165.787 247.355 165.637 247.457 165.415C247.781 164.679 247.954 163.903 247.954 163.096C247.954 162.423 247.836 161.766 247.607 161.141C247.489 160.816 247.126 160.642 246.795 160.761C246.472 160.88 246.306 161.244 246.425 161.568Z" fill="black"/>
<path d="M213.251 168.32C213.338 168.32 213.424 168.304 213.511 168.265C213.827 168.122 213.968 167.75 213.827 167.426C213.629 166.99 213.535 166.523 213.535 166.049C213.535 164.188 215.041 162.669 216.901 162.669C218.533 162.669 219.921 163.864 220.213 165.447C220.213 165.455 220.213 165.463 220.22 165.479C220.229 165.518 220.236 165.558 220.236 165.597C220.236 165.613 220.236 165.621 220.244 165.637C220.252 165.684 220.252 165.74 220.26 165.787C220.276 166.033 220.441 166.246 220.677 166.334C220.914 166.421 221.175 166.357 221.348 166.175C221.71 165.795 222.2 165.589 222.72 165.589H222.728C222.987 166.246 222.428 166.745 220.78 167.054H216.42C216.074 167.054 215.79 167.339 215.79 167.687C215.79 168.035 216.074 168.32 216.42 168.32H220.583C221.56 170.22 223.066 171.843 224.888 172.959C223.784 175.428 222.27 177.937 220.26 180.605C220.047 180.882 220.102 181.277 220.378 181.491C220.488 181.578 220.623 181.618 220.757 181.618C220.946 181.618 221.135 181.531 221.261 181.365C222.317 179.964 223.24 178.61 224.044 177.272L225.345 179.346C225.439 179.497 225.597 179.599 225.771 179.631C225.802 179.639 225.842 179.639 225.873 179.639C226.015 179.639 226.157 179.592 226.268 179.497L228.16 177.969C228.428 177.747 228.475 177.352 228.254 177.082C228.033 176.813 227.639 176.766 227.371 176.987L226.031 178.072L224.754 176.038C225.329 174.993 225.834 173.964 226.268 172.935C226.275 172.919 226.275 172.903 226.283 172.887C226.283 172.879 226.283 172.879 226.291 172.872C226.299 172.856 226.299 172.84 226.299 172.824C226.299 172.816 226.299 172.816 226.299 172.808C226.299 172.792 226.307 172.784 226.307 172.769C226.307 172.761 226.307 172.753 226.307 172.745C226.307 172.737 226.307 172.729 226.307 172.721C226.315 172.626 226.299 172.531 226.259 172.444C226.236 172.389 226.212 172.341 226.172 172.294C226.172 172.294 226.172 172.286 226.165 172.286C226.157 172.278 226.149 172.27 226.141 172.262C226.133 172.254 226.126 172.246 226.118 172.238C226.109 172.23 226.109 172.23 226.102 172.222C226.094 172.215 226.078 172.199 226.07 172.191L226.062 172.183C226.046 172.175 226.039 172.159 226.023 172.151L226.015 172.143C225.999 172.135 225.983 172.127 225.968 172.12C224.336 171.233 222.956 169.895 222.002 168.304H225.219C225.55 168.304 225.826 168.043 225.85 167.711C225.857 167.632 225.857 167.56 225.857 167.489C225.857 165.732 224.438 164.307 222.688 164.307C222.625 164.307 222.562 164.307 222.507 164.315C222.499 164.315 222.499 164.315 222.491 164.315C222.436 164.315 222.38 164.323 222.326 164.331C222.31 164.331 222.302 164.331 222.286 164.339C222.239 164.347 222.191 164.355 222.144 164.363C222.128 164.363 222.113 164.371 222.104 164.371C222.057 164.378 222.018 164.386 221.971 164.394C221.963 164.394 221.947 164.402 221.939 164.402C221.892 164.41 221.845 164.426 221.797 164.442C221.789 164.442 221.773 164.45 221.766 164.45C221.719 164.466 221.671 164.481 221.624 164.497C221.608 164.505 221.6 164.505 221.584 164.513C221.537 164.529 221.497 164.545 221.458 164.56C221.443 164.568 221.434 164.568 221.419 164.576C221.379 164.592 221.332 164.616 221.293 164.632C221.127 164.117 220.875 163.634 220.544 163.199C220.544 163.112 220.544 163.033 220.544 162.954C220.544 160.658 221.277 158.474 222.657 156.653C222.87 156.376 222.814 155.98 222.538 155.767C222.263 155.553 221.868 155.608 221.656 155.885C220.276 157.698 219.479 159.827 219.314 162.091C218.604 161.648 217.769 161.394 216.885 161.394C214.339 161.394 212.258 163.476 212.258 166.041C212.258 166.698 212.392 167.339 212.66 167.932C212.786 168.178 213.015 168.32 213.251 168.32Z" fill="black"/>
<path d="M250.897 190.602C242.935 183.486 237.676 176.212 235.689 169.563C235.358 168.455 234.184 167.688 232.835 167.688H229.012C227.664 167.688 226.489 168.463 226.158 169.563C226.055 169.912 225.937 170.268 225.819 170.616C225.701 170.949 225.874 171.305 226.205 171.423C226.536 171.542 226.891 171.368 227.009 171.036C227.135 170.664 227.261 170.292 227.364 169.928C227.529 169.365 228.223 168.954 229.012 168.954H232.559C233.923 170.45 235.476 175.231 236.761 177.732L234.593 174.59C234.491 174.447 234.341 174.344 234.168 174.32C233.994 174.297 233.821 174.344 233.679 174.455L231.006 176.608L230.139 175.563C229.918 175.294 229.516 175.254 229.248 175.476C228.98 175.698 228.941 176.101 229.162 176.37L230.423 177.898C230.644 178.167 231.038 178.207 231.306 177.985L232.804 176.774C240.388 182.806 233.931 186.462 230.107 190.444H213C214.718 188.837 216.445 187.056 218.148 185.148C218.377 184.887 218.361 184.492 218.101 184.254C217.84 184.025 217.446 184.04 217.21 184.302C215.136 186.621 213.031 188.742 210.95 190.602C210.753 190.776 210.689 191.053 210.776 191.299C210.871 191.544 211.107 191.71 211.368 191.71H229.019C229.012 191.726 228.996 191.734 228.988 191.75H250.038V191.71H250.471C250.732 191.71 250.968 191.544 251.063 191.299C251.165 191.053 251.095 190.776 250.897 190.602ZM233.734 169.144L233.261 168.993C233.427 169.025 233.584 169.081 233.734 169.144Z" fill="black"/>
<path d="M218.779 182.482C218.605 182.687 218.432 182.901 218.258 183.107C218.03 183.376 218.061 183.772 218.329 184.001C218.448 184.104 218.59 184.152 218.739 184.152C218.921 184.152 219.094 184.073 219.22 183.93C219.402 183.716 219.583 183.503 219.756 183.289C219.977 183.02 219.938 182.624 219.669 182.395C219.393 182.173 218.999 182.212 218.779 182.482Z" fill="black"/>
<path d="M224.408 154.881C226.244 153.385 228.563 152.561 230.928 152.561C232.93 152.561 234.869 153.131 236.541 154.216C237.976 155.142 239.158 156.408 239.986 157.888C239.427 158.142 238.898 158.49 238.441 158.917C237.668 159.638 237.116 160.556 236.84 161.561C236.786 161.529 236.738 161.506 236.683 161.482C236.667 161.474 236.643 161.466 236.627 161.45C236.573 161.426 236.509 161.395 236.454 161.371C236.438 161.363 236.423 161.355 236.407 161.347C236.352 161.324 236.296 161.308 236.233 161.284C236.218 161.276 236.194 161.268 236.179 161.26C236.123 161.244 236.06 161.229 236.005 161.205C235.989 161.197 235.966 161.189 235.95 161.189C235.894 161.173 235.831 161.165 235.776 161.149C235.753 161.142 235.737 161.142 235.713 161.134C235.658 161.126 235.603 161.118 235.548 161.11C235.524 161.11 235.5 161.102 235.476 161.102C235.406 161.094 235.343 161.086 235.272 161.086C235.256 161.086 235.24 161.086 235.232 161.078C235.153 161.07 235.067 161.07 234.98 161.07C232.867 161.07 231.141 162.796 231.141 164.925C231.141 165.004 231.141 165.091 231.148 165.194C231.172 165.527 231.448 165.788 231.779 165.788C231.795 165.788 231.811 165.788 231.826 165.788C232.174 165.764 232.433 165.463 232.41 165.115C232.402 165.044 232.402 164.988 232.402 164.933C232.402 163.508 233.553 162.345 234.98 162.345C235.681 162.345 236.344 162.622 236.833 163.136C237.006 163.318 237.266 163.374 237.503 163.294C237.739 163.207 237.897 162.994 237.921 162.748C237.928 162.685 237.928 162.622 237.936 162.558C237.936 162.535 237.944 162.511 237.944 162.495C237.952 162.455 237.96 162.416 237.96 162.368C237.968 162.345 237.968 162.313 237.976 162.289C237.984 162.25 237.991 162.218 238 162.178C238.007 162.155 238.007 162.123 238.015 162.099C238.023 162.06 238.031 162.02 238.047 161.981C238.054 161.933 238.07 161.893 238.086 161.846C238.094 161.814 238.102 161.783 238.117 161.743C238.126 161.711 238.141 161.68 238.149 161.656C238.157 161.624 238.173 161.601 238.181 161.569C238.189 161.537 238.204 161.514 238.213 161.482C238.228 161.45 238.236 161.419 238.252 161.387C238.259 161.363 238.276 161.339 238.283 161.316C238.307 161.26 238.33 161.205 238.362 161.149C238.394 161.086 238.425 161.031 238.457 160.967C238.457 160.967 238.457 160.959 238.465 160.959C239.222 159.59 240.68 158.672 242.32 158.672C242.888 158.672 243.447 158.783 243.967 158.989C244.291 159.123 244.661 158.965 244.787 158.64C244.922 158.316 244.763 157.944 244.441 157.817C243.771 157.548 243.053 157.406 242.32 157.406C241.949 157.406 241.587 157.445 241.232 157.508C240.301 155.743 238.93 154.247 237.251 153.155C235.35 151.944 233.166 151.295 230.928 151.295C228.271 151.295 225.669 152.221 223.611 153.891C223.344 154.113 223.296 154.509 223.517 154.786C223.738 155.063 224.132 155.102 224.408 154.881Z" fill="black"/>
</svg>
