<svg width="260" height="178" viewBox="0 0 260 178" fill="none" xmlns="http://www.w3.org/2000/svg">
<path d="M19.8392 72.9795C22.8308 70.0119 22.4074 66.8539 21.4213 64.8747C21.1717 64.3737 20.5313 64.2713 20.0798 64.6019L9.88908 72.063C9.41262 72.4118 9.33783 73.1005 9.7704 73.5024C13.7325 77.1843 17.4048 74.9616 19.2016 73.564C19.4296 73.3703 19.6419 73.1753 19.8392 72.9795ZM19.8392 72.9795L27.5968 81.0293M35.3543 89.079L28.5532 93.9673M35.3543 89.079L36.2322 88.4519C36.5936 88.1938 37.0868 88.2013 37.4145 88.501C39.4009 90.3171 39.8196 92.2797 39.4625 93.9673M35.3543 89.079L27.5968 81.0293M18.139 74.6267L28.5532 93.9673M28.5532 93.9673L27.4373 94.7113C26.9917 95.0083 26.8563 95.6067 27.1822 96.0316C28.6279 97.9163 31.3921 100.077 34.7166 98.9465M34.7166 98.9465C35.4034 98.7129 36.0744 98.2814 36.842 97.793C37.9632 97.0794 39.104 95.662 39.4625 93.9673M34.7166 98.9465L40.0627 104.791C40.8507 105.653 42.2245 104.696 41.6894 103.658L38.1172 96.7303M27.5968 81.0293C27.0654 75.6894 31.9537 66.9755 42.3679 67.6131C53.0508 68.2671 55.545 77.1771 54.9074 82.4905C54.2698 87.8038 49.7203 94.9875 39.4625 93.9673" stroke="black" stroke-width="1.5"/>
<circle cx="41.0884" cy="81.0022" r="4.77589" stroke="black" stroke-width="1.5"/>
<circle cx="41.0951" cy="81.0026" r="7.75137" stroke="black" stroke-width="1.5"/>
<path d="M240.943 14.1727L238.443 16.8118C238.073 17.2026 238.09 17.8196 238.481 18.1892L240.224 19.8356C240.619 20.2088 241.243 20.1864 241.611 19.7858L243.938 17.2471M240.943 14.1727L247.144 7.45527C247.237 7.35462 247.349 7.27326 247.478 7.22632C248.705 6.77864 250.747 6.73418 250.651 9.61181C250.644 9.82749 250.553 10.0313 250.407 10.1903L243.938 17.2471M240.943 14.1727C235.744 8.97415 230.061 10.9911 227.177 13.1158M236.187 42.0055C230.409 47.7834 222.857 43.8257 219.804 41.1247C212.758 34.0784 214.989 26.9147 216.985 24.2136L226.322 13.8204C226.569 13.5907 226.856 13.3526 227.177 13.1158M243.938 17.2471C246.361 19.3792 249.488 24.5565 246.228 30.5431M243.233 34.4307C244.562 33.1127 245.538 31.8098 246.228 30.5431M246.228 30.5431L227.177 13.1158" stroke="black" stroke-width="1.46059" stroke-linecap="round"/>
<circle cx="240.945" cy="39.5391" r="4.73056" stroke="black" stroke-width="1.46059"/>
<path d="M113.684 32.5723V29.9369C113.684 29.7208 113.753 29.5071 113.888 29.3377C116.556 25.976 118.915 27.8226 119.907 29.3772C120.001 29.524 120.044 29.6957 120.044 29.8699V32.5723M113.684 32.5723H120.044M113.684 32.5723V35.7525M120.044 32.5723V35.7525M113.684 35.7525V38.6268C113.684 38.8262 113.74 39.0224 113.861 39.181C114.934 40.5874 117.341 42.2068 119.831 39.2011C119.972 39.0307 120.044 38.8129 120.044 38.5917V35.7525M113.684 35.7525H120.044" stroke="black" stroke-width="1.51521"/>
<path d="M131.488 15.0583V12.4229C131.488 12.2068 131.558 11.993 131.692 11.8237C134.36 8.46193 136.72 10.3085 137.712 11.8631C137.806 12.01 137.849 12.1816 137.849 12.3558V15.0583M131.488 15.0583H137.849M131.488 15.0583V18.2385M137.849 15.0583V18.2385M131.488 18.2385V21.1128C131.488 21.3122 131.545 21.5084 131.666 21.6669C132.738 23.0734 135.145 24.6928 137.636 21.687C137.777 21.5167 137.849 21.2988 137.849 21.0777V18.2385M131.488 18.2385H137.849" stroke="black" stroke-width="1.51521"/>
<path d="M135.125 4.90739C125.102 14.1103 104.983 33.9669 103.68 35.7353C103.632 35.8008 103.613 35.8671 103.595 35.9465C100.757 48.7304 109.335 48.0374 115.25 47.2077C115.458 47.1784 115.65 47.0846 115.802 46.9394L147.152 17.0525C147.294 16.9171 147.396 16.735 147.439 16.5435C150.407 3.28179 140.871 3.07973 135.497 4.69511C135.355 4.73754 135.233 4.80769 135.125 4.90739Z" stroke="black" stroke-width="1.51521"/>
<path d="M41.5296 28.7609L45.4236 32.1969M41.5296 28.7609L36.2611 33.9148M41.5296 28.7609L38.389 21.66M30.9927 39.0687L35.1158 42.9628M30.9927 39.0687L36.2611 33.9148M30.9927 39.0687L23.659 35.6316M35.1158 42.9628L45.4236 32.1969M35.1158 42.9628C39.8809 46.078 43.8165 43.879 45.4236 42.0465C48.1156 39.0687 46.4926 34.4875 45.4236 32.1969M23.659 13.4137V8.5C23.659 7.67157 24.3306 7 25.159 7H30.9285C31.5223 7 32.0602 7.35025 32.3003 7.89328L38.389 21.66M23.659 13.4137H16.4547C15.6262 13.4137 14.9547 14.0853 14.9547 14.9137V21.66M23.659 13.4137L24.3939 15.9334M14.9547 21.66H10.499C9.67061 21.66 8.99904 22.3316 8.99904 23.16V27.8074C8.99904 28.3893 9.33558 28.9186 9.86248 29.1656L23.659 35.6316M14.9547 21.66L19.5359 22.7172M26.8659 24.4087L36.2611 33.9148M26.8659 24.4087L19.5359 22.7172M26.8659 24.4087L24.3939 15.9334M19.5359 22.7172L23.659 35.6316M24.3939 15.9334L38.389 21.66" stroke="black" stroke-width="1.5"/>
<path d="M27.0313 144.401L34.0058 139.697M27.0313 144.401L29.9508 152.186M27.0313 144.401L21.6788 142.292M34.0058 139.697L40.4937 144.401M34.0058 139.697V134.182M40.4937 144.401L38.3851 152.186M40.4937 144.401L46.1706 142.292M38.3851 152.186H29.9508M38.3851 152.186L41.9534 157.214M29.9508 152.186L26.2203 157.214M34.0058 134.182L27.6801 130.452M34.0058 134.182L40.4937 130.452M46.1706 142.292L46.495 134.344M46.1706 142.292L51.8475 147.482M41.9534 157.214L38.7095 164.189M41.9534 157.214L49.2523 156.241M26.2203 157.214L18.7592 156.241M26.2203 157.214L30.4374 164.513M21.6788 142.292L16.1641 147.32M21.6788 142.292L21.841 134.02" stroke="black" stroke-width="1.35003"/>
<circle cx="34.0039" cy="146.996" r="17.3289" stroke="black" stroke-width="1.35003"/>
<path d="M140.789 150.233C141.407 149.616 141.627 148.952 141.629 148.333M140.789 150.233H134.849M140.789 150.233L140.131 154.985M123.208 150.233C122.865 149.847 122.448 149.141 122.379 148.333M123.208 150.233H129.147M123.208 150.233L123.72 154.985M141.629 148.333C141.631 147.625 141.347 146.976 141.044 146.525C140.896 146.305 140.638 146.194 140.372 146.194H123.593C123.347 146.194 123.105 146.288 122.952 146.481C122.464 147.096 122.328 147.741 122.379 148.333M141.629 148.333L151.682 146.343C152.117 146.256 152.43 145.875 152.43 145.431V132.508C152.43 132.159 152.235 131.84 151.924 131.681L140.988 126.101C140.858 126.035 140.713 126 140.566 126H122.617C122.461 126 122.307 126.039 122.17 126.115L112.048 131.675C111.751 131.838 111.566 132.15 111.566 132.489V145.431C111.566 145.875 111.88 146.256 112.315 146.342L122.379 148.333M129.147 165.676H125.705C125.231 165.676 124.832 165.318 124.782 164.847L124.295 160.33M129.147 165.676V150.233M129.147 165.676H134.849M129.147 150.233H134.849M134.849 165.676H137.842C138.305 165.676 138.698 165.334 138.762 164.875L139.391 160.33M134.849 165.676V150.233M123.72 154.985H140.131M123.72 154.985L124.295 160.33M140.131 154.985L139.391 160.33M124.295 160.33H139.391M140.076 132.868V141.464C140.076 141.977 139.66 142.393 139.147 142.393H124.612C124.099 142.393 123.683 141.977 123.683 141.464V132.868C123.683 132.355 124.099 131.94 124.612 131.94H139.147C139.66 131.94 140.076 132.355 140.076 132.868Z" stroke="black" stroke-width="1.39309"/>
<path d="M227.592 88.8098H240.723M227.592 88.8098V92.6587M227.592 88.8098C224.196 87.225 217.95 81.7914 220.667 72.7353C221.874 69.2638 225.995 63 234.837 63C238.233 63 245.863 65.6715 247.856 72.7353C249.028 76.8903 249.161 85.6403 240.723 88.8098M240.723 88.8098V92.6587M240.723 92.6587H227.592M240.723 92.6587C238.912 94.319 235.697 98.9074 237.327 103.979M227.592 92.6587C229.026 94.319 231.712 98.9074 230.988 103.979M230.988 103.979H237.327M230.988 103.979H223.29M237.327 103.979H245.251M234.837 85.6403C234.309 84.3573 234.067 81.9725 237.327 82.697M240.723 85.1875C240.421 83.6781 240.633 80.9764 243.893 82.2442M241.176 79.301C240.73 77.9426 240.647 75.4522 243.893 76.3578" stroke="black" stroke-width="1.49999" stroke-linecap="round" stroke-linejoin="round"/>
<path d="M238.513 126.865L242.497 126.524C242.977 126.483 243.415 126.802 243.521 127.273L244.768 132.757C244.898 133.33 244.49 133.886 243.904 133.934L239.671 134.277C239.176 134.317 238.731 133.975 238.643 133.487L237.645 128.001C237.543 127.441 237.946 126.914 238.513 126.865Z" stroke="black" stroke-width="1.44924"/>
<path d="M222.998 131.068L226.784 130.734C227.302 130.688 227.763 131.06 227.827 131.576L228.595 137.721C228.663 138.264 228.267 138.755 227.722 138.804L223.936 139.138C223.418 139.183 222.957 138.811 222.892 138.295L222.124 132.15C222.056 131.607 222.453 131.116 222.998 131.068Z" stroke="black" stroke-width="1.44924"/>
<path d="M228.837 154.366L232.634 153.808C233.163 153.73 233.654 154.096 233.731 154.624L234.624 160.748C234.703 161.286 234.321 161.783 233.781 161.846L229.986 162.293C229.468 162.354 228.995 161.992 228.918 161.476L228.022 155.464C227.944 154.936 228.309 154.444 228.837 154.366Z" stroke="black" stroke-width="1.44924"/>
<path d="M244.868 149.912L248.796 149.688C249.312 149.658 249.76 150.04 249.812 150.554L250.456 156.863C250.512 157.41 250.101 157.894 249.552 157.926L245.752 158.149C245.243 158.179 244.799 157.808 244.737 157.302L243.964 150.994C243.896 150.44 244.311 149.944 244.868 149.912Z" stroke="black" stroke-width="1.44924"/>
<path d="M242.661 134.179C243.669 136.979 245.719 144.125 245.853 149.635M238.965 126.788C237.521 124.455 233.19 119.973 229.316 121.213C229.254 121.233 229.19 121.248 229.125 121.259C227.378 121.562 224.518 124.127 224.518 130.988M225.19 139.051C225.75 141.963 227.542 149.265 230.23 153.835M247.869 158.034L249.717 161.562C250.053 162.234 250.288 163.88 248.541 165.09C246.749 166.21 241.552 168.416 235.102 168.282C234.094 168.282 232.582 167.778 232.414 165.93V162.066M238.629 130.988L235.438 131.811M228.214 133.676L230.23 133.155M244.509 155.01L241.821 155.661M234.094 157.53L236.614 156.921M241.821 155.661L239.962 151.246C239.776 150.803 239.293 150.565 238.828 150.686L236.618 151.262C236.138 151.388 235.831 151.855 235.907 152.345L236.614 156.921M241.821 155.661L236.614 156.921M235.438 131.811L233.576 127.53C233.39 127.101 232.922 126.867 232.466 126.975L230.54 127.434C230.073 127.545 229.758 127.983 229.802 128.462L230.23 133.155M235.438 131.811L230.23 133.155" stroke="black" stroke-width="1.44924"/>
<path d="M131.969 79.6358C130.755 78.1789 127.743 75.9696 122.895 74.5992M131.969 79.6358L136.036 76.194M131.969 79.6358C134.212 81.4865 135.702 85.0187 136.662 88.8701M122.895 74.5992C119.414 73.6151 114.986 73.0636 109.597 73.5344C107.094 73.7531 105.498 72.4704 109.128 70.0925C113.74 67.7867 122.363 65.2945 130.248 67.392M122.895 74.5992L130.248 67.392M130.248 67.392C134.311 68.4727 138.178 70.7717 141.199 74.9423C142.184 76.2136 143.304 78.3086 144.072 81.0438M136.662 88.8701C137.846 93.6138 138.227 98.8415 138.227 102.007C138.853 105.387 140.469 103.728 141.199 102.477C145.719 93.8474 145.54 86.2749 144.072 81.0438M136.662 88.8701L144.072 81.0438M119.766 80.1051L110.223 89.6483M118.358 90.274L108.189 100.443M128.214 88.3967L118.358 98.4092" stroke="black" stroke-width="1.48438" stroke-linecap="round" stroke-linejoin="round"/>
</svg>
