<?xml version="1.0" standalone="no"?>
<svg id="star" width="40" height="39" viewBox="0 0 40 39" fill="none" xmlns="http://www.w3.org/2000/svg" style="max-width: 100%; max-height: 100%;">
<path d="M11.6573 2.12329L12.553 14.2486C12.569 14.4641 12.465 14.6709 12.2824 14.7866L2.4941 20.9921C2.0713 21.2601 2.15761 21.9006 2.63626 22.0472L14.8095 25.7748C15.0044 25.8345 15.1543 25.9912 15.2053 26.1886L18.044 37.1819C18.172 37.6777 18.8297 37.7823 19.1052 37.3507L25.4095 27.4737C25.5181 27.3037 25.7065 27.2014 25.9082 27.2031L38.0321 27.3022C38.5496 27.3064 38.8181 26.6867 38.4611 26.3121L30.5762 18.0369C30.4301 17.8837 30.3781 17.6636 30.4401 17.4611L34.1635 5.30185C34.3101 4.82319 33.8277 4.39304 33.3689 4.59326L22.7466 9.22867C22.5486 9.3151 22.319 9.28549 22.1493 9.15162L12.6046 1.62013C12.2044 1.30435 11.6197 1.61489 11.6573 2.12329Z" stroke="black" stroke-width="2.5" stroke-dasharray="0,0,0,129.412353515625"><animate attributeType="XML" attributeName="stroke-dasharray" repeatCount="1" dur="2.5s" values="0,0,0,129.412353515625; 
          0,64.7061767578125,64.7061767578125,0; 
          129.412353515625,0,0,0" keyTimes="0; 0.5; 1" fill="freeze"></animate></path>
</svg>