<svg width="159" height="239" viewBox="0 0 159 239" fill="none" xmlns="http://www.w3.org/2000/svg">
<path d="M37.6992 137C35.336 137 33.418 135.082 33.418 132.719V4.28125C33.418 1.918 35.336 0 37.6992 0C40.0625 0 41.9805 1.918 41.9805 4.28125V132.719C41.9805 135.082 40.0625 137 37.6992 137Z" fill="black"/>
<path d="M97.6367 74.2083H37.6992C35.336 74.2083 33.418 72.2903 33.418 69.9271C33.418 67.5638 35.336 65.6458 37.6992 65.6458H97.6367C98.4245 65.6458 99.0638 65.0065 99.0638 64.2188V9.98958C99.0638 9.20183 98.4245 8.5625 97.6367 8.5625H37.6992C35.336 8.5625 33.418 6.6445 33.418 4.28125C33.418 1.918 35.336 0 37.6992 0H97.6367C103.145 0 107.626 4.48104 107.626 9.98958V64.2188C107.626 69.7273 103.145 74.2083 97.6367 74.2083Z" fill="black"/>
<path d="M137.592 97.0413H80.5091C75.0006 97.0413 70.5195 92.5603 70.5195 87.0518V69.9268C70.5195 67.5635 72.4375 65.6455 74.8008 65.6455C77.164 65.6455 79.082 67.5635 79.082 69.9268V87.0518C79.082 87.8281 79.7328 88.4788 80.5091 88.4788H137.592C138.369 88.4788 139.02 87.8281 139.02 87.0518V32.8226C139.02 32.0463 138.369 31.3955 137.592 31.3955H103.342C100.979 31.3955 99.0612 29.4775 99.0612 27.1143C99.0612 24.751 100.979 22.833 103.342 22.833H137.592C143.101 22.833 147.582 27.314 147.582 32.8226V87.0518C147.582 92.5603 143.101 97.0413 137.592 97.0413Z" fill="black"/>
<path d="M3.36797 214C2.98157 214 2.66797 213.552 2.66797 213V183C2.66797 182.448 2.98157 182 3.36797 182C3.75437 182 4.06797 182.448 4.06797 183V213C4.06797 213.552 3.75437 214 3.36797 214Z" fill="black"/>
<path d="M17.668 199.333H3.66797C3.11597 199.333 2.66797 198.885 2.66797 198.333C2.66797 197.781 3.11597 197.333 3.66797 197.333H17.668C17.852 197.333 18.0013 197.184 18.0013 197V184.333C18.0013 184.149 17.852 184 17.668 184H3.66797C3.11597 184 2.66797 183.552 2.66797 183C2.66797 182.448 3.11597 182 3.66797 182H17.668C18.9546 182 20.0013 183.047 20.0013 184.333V197C20.0013 198.287 18.9546 199.333 17.668 199.333Z" fill="black"/>
<path d="M17.668 199.333H3.66797C3.11597 199.333 2.66797 198.885 2.66797 198.333C2.66797 197.781 3.11597 197.333 3.66797 197.333H17.668C17.852 197.333 18.0013 197.184 18.0013 197V184.333C18.0013 184.149 17.852 184 17.668 184H3.66797C3.11597 184 2.66797 183.552 2.66797 183C2.66797 182.448 3.11597 182 3.66797 182H17.668C18.9546 182 20.0013 183.047 20.0013 184.333V197C20.0013 198.287 18.9546 199.333 17.668 199.333Z" stroke="black"/>
<path d="M26.9987 204.666H13.6654C12.3787 204.666 11.332 203.62 11.332 202.333V198.333C11.332 197.781 11.78 197.333 12.332 197.333C12.884 197.333 13.332 197.781 13.332 198.333V202.333C13.332 202.514 13.484 202.666 13.6654 202.666H26.9987C27.18 202.666 27.332 202.514 27.332 202.333V189.666C27.332 189.485 27.18 189.333 26.9987 189.333H18.9987C18.4467 189.333 17.9987 188.885 17.9987 188.333C17.9987 187.781 18.4467 187.333 18.9987 187.333H26.9987C28.2854 187.333 29.332 188.38 29.332 189.666V202.333C29.332 203.62 28.2854 204.666 26.9987 204.666Z" fill="black"/>
<path d="M74.668 214C74.116 214 73.668 213.552 73.668 213V183C73.668 182.448 74.116 182 74.668 182C75.22 182 75.668 182.448 75.668 183V213C75.668 213.552 75.22 214 74.668 214Z" fill="black"/>
<path d="M88.668 199.333H74.668C74.116 199.333 73.668 198.885 73.668 198.333C73.668 197.781 74.116 197.333 74.668 197.333H88.668C88.852 197.333 89.0013 197.184 89.0013 197V184.333C89.0013 184.149 88.852 184 88.668 184H74.668C74.116 184 73.668 183.552 73.668 183C73.668 182.448 74.116 182 74.668 182H88.668C89.9546 182 91.0013 183.047 91.0013 184.333V197C91.0013 198.287 89.9546 199.333 88.668 199.333Z" fill="black"/>
<path d="M97.9987 204.666H84.6654C83.3787 204.666 82.332 203.62 82.332 202.333V198.333C82.332 197.781 82.78 197.333 83.332 197.333C83.884 197.333 84.332 197.781 84.332 198.333V202.333C84.332 202.514 84.484 202.666 84.6654 202.666H97.9987C98.18 202.666 98.332 202.514 98.332 202.333V189.666C98.332 189.485 98.18 189.333 97.9987 189.333H89.9987C89.4467 189.333 88.9987 188.885 88.9987 188.333C88.9987 187.781 89.4467 187.333 89.9987 187.333H97.9987C99.2854 187.333 100.332 188.38 100.332 189.666V202.333C100.332 203.62 99.2854 204.666 97.9987 204.666Z" fill="black"/>
<path d="M129.368 212.062C129.368 212.764 129.969 213.3 130.668 213.3C131.367 213.3 131.968 212.764 131.968 212.062V183.938C131.968 183.236 131.367 182.7 130.668 182.7C129.969 182.7 129.368 183.236 129.368 183.938V212.062Z" fill="black" stroke="black" stroke-width="0.6"/>
<path d="M130.668 200.633H144.668C146.12 200.633 147.301 199.452 147.301 198V185.333C147.301 183.881 146.12 182.7 144.668 182.7H130.668C129.95 182.7 129.368 183.282 129.368 184C129.368 184.718 129.95 185.3 130.668 185.3H144.668C144.686 185.3 144.701 185.315 144.701 185.333V198C144.701 198.018 144.686 198.033 144.668 198.033H130.668C129.95 198.033 129.368 198.616 129.368 199.333C129.368 200.051 129.95 200.633 130.668 200.633Z" fill="black" stroke="black" stroke-width="0.6"/>
<path d="M140.665 205.967H153.999C155.451 205.967 156.632 204.786 156.632 203.334V190.667C156.632 189.215 155.451 188.034 153.999 188.034H145.999C145.281 188.034 144.699 188.616 144.699 189.334C144.699 190.052 145.281 190.634 145.999 190.634H153.999C154.004 190.634 154.013 190.636 154.021 190.645C154.03 190.653 154.032 190.662 154.032 190.667V203.334C154.032 203.339 154.03 203.348 154.021 203.357C154.013 203.365 154.004 203.367 153.999 203.367H140.665C140.66 203.367 140.651 203.365 140.643 203.357C140.634 203.348 140.632 203.339 140.632 203.334V199.334C140.632 198.616 140.05 198.034 139.332 198.034C138.614 198.034 138.032 198.616 138.032 199.334V203.334C138.032 204.786 139.213 205.967 140.665 205.967Z" fill="black" stroke="black" stroke-width="0.6"/>
<path opacity="0.5" d="M3.05682 236V227.273H4.11364V235.062H8.17045V236H3.05682ZM9.67045 236V229.455H10.6761V236H9.67045ZM10.1818 228.364C9.9858 228.364 9.81676 228.297 9.67472 228.163C9.53551 228.03 9.46591 227.869 9.46591 227.682C9.46591 227.494 9.53551 227.334 9.67472 227.2C9.81676 227.067 9.9858 227 10.1818 227C10.3778 227 10.5455 227.067 10.6847 227.2C10.8267 227.334 10.8977 227.494 10.8977 227.682C10.8977 227.869 10.8267 228.03 10.6847 228.163C10.5455 228.297 10.3778 228.364 10.1818 228.364ZM15.1602 238.591C14.6744 238.591 14.2567 238.528 13.9073 238.403C13.5579 238.281 13.2667 238.119 13.0337 237.918C12.8036 237.719 12.6204 237.506 12.484 237.278L13.2852 236.716C13.3761 236.835 13.4911 236.972 13.6303 237.125C13.7695 237.281 13.9599 237.416 14.2013 237.53C14.4457 237.646 14.7653 237.705 15.1602 237.705C15.6886 237.705 16.1246 237.577 16.4684 237.321C16.8121 237.065 16.984 236.665 16.984 236.119V234.79H16.8988C16.8249 234.909 16.7198 235.057 16.5835 235.233C16.4499 235.406 16.2567 235.561 16.0039 235.697C15.7539 235.831 15.4158 235.898 14.9897 235.898C14.4613 235.898 13.9869 235.773 13.5664 235.523C13.1488 235.273 12.8178 234.909 12.5735 234.432C12.332 233.955 12.2113 233.375 12.2113 232.693C12.2113 232.023 12.3292 231.439 12.565 230.942C12.8008 230.442 13.1289 230.055 13.5494 229.783C13.9698 229.507 14.4556 229.369 15.0067 229.369C15.4329 229.369 15.771 229.44 16.021 229.582C16.2738 229.722 16.467 229.881 16.6005 230.06C16.7369 230.236 16.842 230.381 16.9158 230.494H17.0181V229.455H17.9897V236.188C17.9897 236.75 17.8619 237.207 17.6062 237.56C17.3533 237.915 17.0124 238.175 16.5835 238.339C16.1573 238.507 15.6829 238.591 15.1602 238.591ZM15.1261 234.994C15.5295 234.994 15.8704 234.902 16.1488 234.717C16.4272 234.533 16.6388 234.267 16.7837 233.92C16.9286 233.574 17.0011 233.159 17.0011 232.676C17.0011 232.205 16.93 231.788 16.788 231.428C16.646 231.067 16.4357 230.784 16.1573 230.58C15.8789 230.375 15.5352 230.273 15.1261 230.273C14.6999 230.273 14.3448 230.381 14.0607 230.597C13.7795 230.812 13.5678 231.102 13.4258 231.466C13.2866 231.83 13.217 232.233 13.217 232.676C13.217 233.131 13.288 233.533 13.43 233.882C13.5749 234.229 13.788 234.501 14.0692 234.7C14.3533 234.896 14.7056 234.994 15.1261 234.994ZM20.8363 232.062V236H19.8306V227.273H20.8363V230.477H20.9215C21.0749 230.139 21.305 229.871 21.6119 229.672C21.9215 229.47 22.3335 229.369 22.8477 229.369C23.2937 229.369 23.6843 229.459 24.0195 229.638C24.3548 229.814 24.6147 230.085 24.7994 230.452C24.9869 230.815 25.0806 231.278 25.0806 231.841V236H24.0749V231.909C24.0749 231.389 23.94 230.987 23.6701 230.703C23.4031 230.416 23.0323 230.273 22.5579 230.273C22.2283 230.273 21.9329 230.342 21.6715 230.482C21.413 230.621 21.2085 230.824 21.0579 231.091C20.9102 231.358 20.8363 231.682 20.8363 232.062ZM29.767 229.455V230.307H26.375V229.455H29.767ZM27.3636 227.886H28.3693V234.125C28.3693 234.409 28.4105 234.622 28.4929 234.764C28.5781 234.903 28.6861 234.997 28.8168 235.045C28.9503 235.091 29.0909 235.114 29.2386 235.114C29.3494 235.114 29.4403 235.108 29.5114 235.097C29.5824 235.082 29.6392 235.071 29.6818 235.062L29.8864 235.966C29.8182 235.991 29.723 236.017 29.6009 236.043C29.4787 236.071 29.3239 236.085 29.1364 236.085C28.8523 236.085 28.5739 236.024 28.3011 235.902C28.0313 235.78 27.8068 235.594 27.6278 235.344C27.4517 235.094 27.3636 234.778 27.3636 234.398V227.886Z" fill="#181818"/>
<path opacity="0.5" d="M67.0568 236V227.273H70.0057C70.6875 227.273 71.2472 227.389 71.6847 227.622C72.1222 227.852 72.446 228.169 72.6562 228.572C72.8665 228.976 72.9716 229.435 72.9716 229.949C72.9716 230.463 72.8665 230.919 72.6562 231.317C72.446 231.714 72.1236 232.027 71.6889 232.254C71.2543 232.479 70.6989 232.591 70.0227 232.591H67.6364V231.636H69.9886C70.4545 231.636 70.8295 231.568 71.1136 231.432C71.4006 231.295 71.608 231.102 71.7358 230.852C71.8665 230.599 71.9318 230.298 71.9318 229.949C71.9318 229.599 71.8665 229.294 71.7358 229.033C71.6051 228.771 71.3963 228.57 71.1094 228.428C70.8224 228.283 70.4432 228.21 69.9716 228.21H68.1136V236H67.0568ZM71.1648 232.08L73.3125 236H72.0852L69.9716 232.08H71.1648ZM77.2702 236.136C76.6396 236.136 76.0955 235.997 75.6381 235.719C75.1836 235.438 74.8327 235.045 74.5856 234.543C74.3413 234.037 74.2191 233.449 74.2191 232.778C74.2191 232.108 74.3413 231.517 74.5856 231.006C74.8327 230.491 75.1765 230.091 75.6168 229.804C76.06 229.514 76.5771 229.369 77.168 229.369C77.5089 229.369 77.8455 229.426 78.1779 229.54C78.5103 229.653 78.8129 229.838 79.0856 230.094C79.3583 230.347 79.5756 230.682 79.7376 231.099C79.8995 231.517 79.9805 232.031 79.9805 232.642V233.068H74.935V232.199H78.9577C78.9577 231.83 78.8839 231.5 78.7362 231.21C78.5913 230.92 78.3839 230.692 78.114 230.524C77.8469 230.357 77.5316 230.273 77.168 230.273C76.7674 230.273 76.4208 230.372 76.1282 230.571C75.8384 230.767 75.6154 231.023 75.4592 231.338C75.3029 231.653 75.2248 231.991 75.2248 232.352V232.932C75.2248 233.426 75.31 233.845 75.4805 234.189C75.6538 234.53 75.8938 234.79 76.2006 234.969C76.5075 235.145 76.864 235.233 77.2702 235.233C77.5344 235.233 77.7731 235.196 77.9862 235.122C78.2021 235.045 78.3881 234.932 78.5444 234.781C78.7006 234.628 78.8214 234.437 78.9066 234.21L79.8782 234.483C79.7759 234.812 79.604 235.102 79.3626 235.352C79.1211 235.599 78.8228 235.793 78.4677 235.932C78.1126 236.068 77.7134 236.136 77.2702 236.136ZM84.1523 238.591C83.6665 238.591 83.2489 238.528 82.8995 238.403C82.5501 238.281 82.2589 238.119 82.0259 237.918C81.7958 237.719 81.6126 237.506 81.4762 237.278L82.2773 236.716C82.3683 236.835 82.4833 236.972 82.6225 237.125C82.7617 237.281 82.9521 237.416 83.1935 237.53C83.4379 237.646 83.7575 237.705 84.1523 237.705C84.6808 237.705 85.1168 237.577 85.4606 237.321C85.8043 237.065 85.9762 236.665 85.9762 236.119V234.79H85.891C85.8171 234.909 85.712 235.057 85.5756 235.233C85.4421 235.406 85.2489 235.561 84.9961 235.697C84.7461 235.831 84.408 235.898 83.9819 235.898C83.4535 235.898 82.979 235.773 82.5586 235.523C82.141 235.273 81.81 234.909 81.5657 234.432C81.3242 233.955 81.2035 233.375 81.2035 232.693C81.2035 232.023 81.3214 231.439 81.5572 230.942C81.793 230.442 82.1211 230.055 82.5415 229.783C82.962 229.507 83.4478 229.369 83.9989 229.369C84.4251 229.369 84.7631 229.44 85.0131 229.582C85.266 229.722 85.4592 229.881 85.5927 230.06C85.729 230.236 85.8342 230.381 85.908 230.494H86.0103V229.455H86.9819V236.188C86.9819 236.75 86.854 237.207 86.5984 237.56C86.3455 237.915 86.0046 238.175 85.5756 238.339C85.1495 238.507 84.6751 238.591 84.1523 238.591ZM84.1183 234.994C84.5217 234.994 84.8626 234.902 85.141 234.717C85.4194 234.533 85.631 234.267 85.7759 233.92C85.9208 233.574 85.9933 233.159 85.9933 232.676C85.9933 232.205 85.9222 231.788 85.7802 231.428C85.6381 231.067 85.4279 230.784 85.1495 230.58C84.8711 230.375 84.5273 230.273 84.1183 230.273C83.6921 230.273 83.337 230.381 83.0529 230.597C82.7717 230.812 82.56 231.102 82.418 231.466C82.2788 231.83 82.2092 232.233 82.2092 232.676C82.2092 233.131 82.2802 233.533 82.4222 233.882C82.5671 234.229 82.7802 234.501 83.0614 234.7C83.3455 234.896 83.6978 234.994 84.1183 234.994ZM92.9478 233.324V229.455H93.9535V236H92.9478V234.892H92.8796C92.7262 235.224 92.4876 235.507 92.1637 235.74C91.8398 235.97 91.4308 236.085 90.9364 236.085C90.5273 236.085 90.1637 235.996 89.8455 235.817C89.5273 235.635 89.2773 235.362 89.0955 234.999C88.9137 234.632 88.8228 234.17 88.8228 233.614V229.455H89.8285V233.545C89.8285 234.023 89.962 234.403 90.229 234.688C90.4989 234.972 90.8427 235.114 91.2603 235.114C91.5103 235.114 91.7646 235.05 92.0231 234.922C92.2844 234.794 92.5032 234.598 92.6793 234.334C92.8583 234.07 92.9478 233.733 92.9478 233.324ZM96.8011 227.273V236H95.7955V227.273H96.8011ZM100.569 236.153C100.154 236.153 99.7781 236.075 99.44 235.919C99.1019 235.76 98.8335 235.531 98.6346 235.233C98.4357 234.932 98.3363 234.568 98.3363 234.142C98.3363 233.767 98.4102 233.463 98.5579 233.23C98.7056 232.994 98.9031 232.81 99.1502 232.676C99.3974 232.543 99.6701 232.443 99.9684 232.378C100.27 232.31 100.572 232.256 100.876 232.216C101.274 232.165 101.596 232.126 101.843 232.101C102.093 232.072 102.275 232.026 102.389 231.96C102.505 231.895 102.564 231.781 102.564 231.619V231.585C102.564 231.165 102.449 230.838 102.218 230.605C101.991 230.372 101.646 230.256 101.183 230.256C100.703 230.256 100.326 230.361 100.054 230.571C99.7809 230.781 99.5891 231.006 99.4783 231.244L98.5238 230.903C98.6942 230.506 98.9215 230.196 99.2056 229.974C99.4925 229.75 99.805 229.594 100.143 229.506C100.484 229.415 100.819 229.369 101.149 229.369C101.359 229.369 101.6 229.395 101.873 229.446C102.149 229.494 102.414 229.595 102.67 229.749C102.929 229.902 103.143 230.134 103.314 230.443C103.484 230.753 103.569 231.168 103.569 231.688V236H102.564V235.114H102.512C102.444 235.256 102.331 235.408 102.172 235.57C102.012 235.732 101.801 235.869 101.537 235.983C101.272 236.097 100.95 236.153 100.569 236.153ZM100.723 235.25C101.12 235.25 101.456 235.172 101.728 235.016C102.004 234.859 102.211 234.658 102.35 234.411C102.493 234.163 102.564 233.903 102.564 233.631V232.71C102.521 232.761 102.427 232.808 102.282 232.851C102.14 232.891 101.975 232.926 101.788 232.957C101.603 232.986 101.423 233.011 101.247 233.034C101.074 233.054 100.933 233.071 100.825 233.085C100.564 233.119 100.319 233.175 100.092 233.251C99.8675 233.325 99.6857 233.437 99.5465 233.588C99.4102 233.736 99.342 233.937 99.342 234.193C99.342 234.543 99.4712 234.807 99.7298 234.986C99.9911 235.162 100.322 235.25 100.723 235.25ZM105.405 236V229.455H106.376V230.443H106.445C106.564 230.119 106.78 229.857 107.092 229.655C107.405 229.453 107.757 229.352 108.149 229.352C108.223 229.352 108.315 229.354 108.426 229.357C108.537 229.359 108.621 229.364 108.678 229.369V230.392C108.643 230.384 108.565 230.371 108.443 230.354C108.324 230.334 108.197 230.324 108.064 230.324C107.746 230.324 107.462 230.391 107.212 230.524C106.964 230.655 106.768 230.837 106.624 231.07C106.482 231.3 106.411 231.562 106.411 231.858V236H105.405Z" fill="#181818"/>
<path opacity="0.5" d="M134.057 236V227.273H137.108C137.716 227.273 138.217 227.378 138.612 227.588C139.007 227.795 139.301 228.075 139.494 228.428C139.688 228.777 139.784 229.165 139.784 229.591C139.784 229.966 139.717 230.276 139.584 230.52C139.453 230.764 139.28 230.957 139.064 231.099C138.851 231.241 138.619 231.347 138.369 231.415V231.5C138.636 231.517 138.905 231.611 139.175 231.781C139.445 231.952 139.67 232.196 139.852 232.514C140.034 232.832 140.125 233.222 140.125 233.682C140.125 234.119 140.026 234.513 139.827 234.862C139.628 235.212 139.314 235.489 138.885 235.693C138.456 235.898 137.898 236 137.21 236H134.057ZM135.114 235.062H137.21C137.901 235.062 138.391 234.929 138.68 234.662C138.973 234.392 139.119 234.065 139.119 233.682C139.119 233.386 139.044 233.114 138.893 232.864C138.743 232.611 138.528 232.409 138.25 232.259C137.972 232.105 137.642 232.028 137.261 232.028H135.114V235.062ZM135.114 231.108H137.074C137.392 231.108 137.679 231.045 137.935 230.92C138.193 230.795 138.398 230.619 138.548 230.392C138.702 230.165 138.778 229.898 138.778 229.591C138.778 229.207 138.645 228.882 138.378 228.615C138.111 228.345 137.688 228.21 137.108 228.21H135.114V231.108ZM144.384 236.136C143.793 236.136 143.275 235.996 142.829 235.714C142.386 235.433 142.039 235.04 141.789 234.534C141.542 234.028 141.418 233.437 141.418 232.761C141.418 232.08 141.542 231.484 141.789 230.976C142.039 230.467 142.386 230.072 142.829 229.791C143.275 229.51 143.793 229.369 144.384 229.369C144.975 229.369 145.492 229.51 145.935 229.791C146.381 230.072 146.728 230.467 146.975 230.976C147.225 231.484 147.35 232.08 147.35 232.761C147.35 233.437 147.225 234.028 146.975 234.534C146.728 235.04 146.381 235.433 145.935 235.714C145.492 235.996 144.975 236.136 144.384 236.136ZM144.384 235.233C144.833 235.233 145.202 235.118 145.492 234.888C145.782 234.658 145.996 234.355 146.136 233.98C146.275 233.605 146.344 233.199 146.344 232.761C146.344 232.324 146.275 231.916 146.136 231.538C145.996 231.161 145.782 230.855 145.492 230.622C145.202 230.389 144.833 230.273 144.384 230.273C143.935 230.273 143.566 230.389 143.276 230.622C142.987 230.855 142.772 231.161 142.633 231.538C142.494 231.916 142.424 232.324 142.424 232.761C142.424 233.199 142.494 233.605 142.633 233.98C142.772 234.355 142.987 234.658 143.276 234.888C143.566 235.118 143.935 235.233 144.384 235.233ZM149.891 227.273V236H148.885V227.273H149.891ZM154.205 236.136C153.659 236.136 153.178 235.999 152.76 235.723C152.342 235.445 152.016 235.053 151.78 234.547C151.544 234.038 151.426 233.438 151.426 232.744C151.426 232.057 151.544 231.46 151.78 230.955C152.016 230.449 152.344 230.058 152.764 229.783C153.185 229.507 153.67 229.369 154.222 229.369C154.648 229.369 154.984 229.44 155.232 229.582C155.482 229.722 155.672 229.881 155.803 230.06C155.936 230.236 156.04 230.381 156.114 230.494H156.199V227.273H157.205V236H156.233V234.994H156.114C156.04 235.114 155.935 235.264 155.798 235.446C155.662 235.625 155.467 235.786 155.214 235.928C154.962 236.067 154.625 236.136 154.205 236.136ZM154.341 235.233C154.744 235.233 155.085 235.128 155.364 234.918C155.642 234.705 155.854 234.411 155.999 234.036C156.143 233.658 156.216 233.222 156.216 232.727C156.216 232.239 156.145 231.811 156.003 231.445C155.861 231.075 155.651 230.788 155.372 230.584C155.094 230.376 154.75 230.273 154.341 230.273C153.915 230.273 153.56 230.382 153.276 230.601C152.994 230.817 152.783 231.111 152.641 231.483C152.501 231.852 152.432 232.267 152.432 232.727C152.432 233.193 152.503 233.616 152.645 233.997C152.79 234.375 153.003 234.676 153.284 234.901C153.568 235.122 153.92 235.233 154.341 235.233Z" fill="#181818"/>
</svg>
