<svg width="260" height="178" viewBox="0 0 260 178" fill="none" xmlns="http://www.w3.org/2000/svg">
<rect width="260" height="178" fill="white"/>
<circle cx="220.369" cy="145.369" r="17.6562" stroke="black" stroke-width="3.42583"/>
<path d="M220.236 128.108V131.798" stroke="black" stroke-width="0.790577" stroke-linecap="square"/>
<path d="M237.764 145.339L234.074 145.345" stroke="black" stroke-width="0.790577" stroke-linecap="square"/>
<path d="M220.236 158.941V162.63" stroke="black" stroke-width="0.790577" stroke-linecap="square"/>
<path d="M206.404 145.39L202.715 145.397" stroke="black" stroke-width="0.790577" stroke-linecap="square"/>
<circle cx="220.369" cy="145.369" r="1.71292" fill="black"/>
<path d="M220.369 135.355V145.237" stroke="black" stroke-width="0.790577" stroke-linecap="square"/>
<path d="M227.353 147.477L220.196 145.391" stroke="black" stroke-width="0.790577" stroke-linecap="square"/>
<path d="M136.522 151.539V156.078L132.609 157.487" stroke="black" stroke-width="1.56522" stroke-linecap="round"/>
<path d="M141.061 145.904V139.957C141.061 139.092 140.36 138.391 139.496 138.391H107.565C106.701 138.391 106 139.092 106 139.957V159.365C106 160.23 106.701 160.93 107.565 160.93H126.877" stroke="black" stroke-width="1.87826" stroke-linecap="round"/>
<path d="M106 136.2V130.565C106 129.701 106.701 129 107.565 129H121.339C122.204 129 122.904 129.701 122.904 130.565V131.974C122.904 132.147 123.045 132.287 123.217 132.287H139.339C140.204 132.287 140.904 132.988 140.904 133.852V136.2" stroke="black" stroke-width="1.87826" stroke-linecap="round"/>
<circle cx="136.521" cy="156.078" r="7.98261" stroke="black" stroke-width="1.87826"/>
<path d="M29.7436 155.07C27.1677 154.683 22.7418 153.387 22.0588 148.104C21.6685 145.085 23.0423 139.001 31.6595 138.815C30.7228 136.571 30.8765 129.98 37.7476 129.062C41.7426 128.529 47.723 131.385 45.475 138.815C49.6119 138.351 57.6047 139.558 56.4807 148.104C56.4026 149.652 54.5229 155.07 48.07 155.07" stroke="black" stroke-width="1.29059" stroke-linecap="round"/>
<circle cx="38.906" cy="155.457" r="9.03415" stroke="black" stroke-width="1.29059"/>
<path d="M38.7773 149.391V155.844L43.9397 154.167" stroke="black" stroke-width="0.774356" stroke-linecap="round"/>
<path d="M38.7779 155.973L35.0352 161.265" stroke="black" stroke-width="0.258119" stroke-linecap="round"/>
<path d="M220.846 91.0634V92.9225" stroke="black" stroke-width="0.619718" stroke-linecap="round"/>
<path d="M220.846 94.0845V95.4789" stroke="black" stroke-width="0.619718" stroke-linecap="round"/>
<path d="M213.408 102.606C215.293 102.167 219.419 100.483 220.845 97.2606C221.542 98.939 224.052 102.358 228.514 102.606" stroke="black" stroke-width="0.619718" stroke-linecap="round"/>
<path d="M220.846 97.5704V100.746C222.059 101.805 224.812 104.046 226.113 104.542" stroke="black" stroke-width="0.619718" stroke-linecap="round"/>
<path d="M214.105 79.9084C216.662 79.5469 222.936 79.0408 227.584 79.9084" stroke="black" stroke-width="0.619718" stroke-linecap="round"/>
<path d="M220.287 89.2195C214.256 83.4703 212.974 77.5506 213.099 75.2606H228.747C228.747 81.0363 224.17 86.7158 221.609 89.2359C221.363 89.4783 221.354 89.8773 221.59 90.1302C228.756 97.8246 228.975 102.262 228.747 104.465C221.559 105.332 215.32 104.826 213.099 104.465C212.806 97.8298 217.38 92.989 220.299 90.1268C220.554 89.8771 220.545 89.4655 220.287 89.2195Z" stroke="black" stroke-width="0.619718" stroke-linecap="round"/>
<rect x="210.439" y="71.4394" width="21.1213" height="2.68465" rx="0.490211" stroke="black" stroke-width="0.878733"/>
<rect x="210.439" y="105.834" width="21.1213" height="2.83958" rx="0.490211" stroke="black" stroke-width="0.878733"/>
<path d="M212.092 74.331C211.724 77.06 212.605 83.6095 218.788 88.8841C219.262 89.2878 219.258 90.0391 218.784 90.4427C215.564 93.1887 210.883 99.0442 212.17 105.704" stroke="black" stroke-width="0.774648" stroke-linecap="round"/>
<path d="M229.753 74.4084C230.122 77.1375 229.241 83.687 223.057 88.9615C222.584 89.3653 222.588 90.1165 223.061 90.5202C226.282 93.2662 230.963 99.1217 229.676 105.782" stroke="black" stroke-width="0.774648" stroke-linecap="round"/>
<circle cx="125.793" cy="90.137" r="14.9596" stroke="black" stroke-width="1.32386"/>
<path d="M125.796 80.87V89.8722L119.971 95.6972" stroke="black" stroke-width="1.32386" stroke-linecap="round"/>
<path d="M118.603 103.376L116.183 108.205" stroke="black" stroke-width="1.32386" stroke-linecap="round"/>
<path d="M132.862 103.376L135.282 108.205" stroke="black" stroke-width="1.32386" stroke-linecap="round"/>
<path d="M117.418 77.5077L115.746 73.8174L117.675 72.9433L119.347 76.6336L117.418 77.5077Z" stroke="black" stroke-width="1.05909" stroke-linecap="round"/>
<path d="M134.078 77.4912L135.75 73.8009L133.821 72.9268L132.149 76.6171L134.078 77.4912Z" stroke="black" stroke-width="1.05909" stroke-linecap="round"/>
<path d="M114.588 72.3984L117.508 71.0634C117.932 70.8694 118.434 71.0532 118.633 71.4753C118.835 71.9022 118.652 72.4113 118.224 72.6117L115.317 73.9733C114.884 74.1762 114.367 73.9893 114.164 73.5556C113.959 73.119 114.15 72.599 114.588 72.3984Z" stroke="black" stroke-width="1.05909"/>
<path d="M137.023 72.4127L134.104 71.0777C133.679 70.8838 133.177 71.0675 132.978 71.4896C132.776 71.9165 132.96 72.4256 133.387 72.626L136.294 73.9876C136.728 74.1905 137.244 74.0036 137.447 73.57C137.652 73.1333 137.461 72.6134 137.023 72.4127Z" stroke="black" stroke-width="1.05909"/>
<path d="M109.246 84.1796C108.054 86.033 107.127 91.4608 108.716 95.9619" stroke="black" stroke-width="1.05909" stroke-linecap="round"/>
<path d="M106.994 82.1938C105.387 84.7344 104.138 92.1748 106.28 98.3449" stroke="black" stroke-width="1.05909" stroke-linecap="round"/>
<path d="M104.851 78.5745C102.523 82.1775 100.644 92.7729 103.627 101.6" stroke="black" stroke-width="1.05909" stroke-linecap="round"/>
<path d="M142.726 84.233C143.839 86.1349 144.536 91.597 142.759 96.0272" stroke="black" stroke-width="1.05909" stroke-linecap="round"/>
<path d="M145.058 82.3438C146.557 84.9498 147.492 92.4362 145.091 98.5106" stroke="black" stroke-width="1.05909" stroke-linecap="round"/>
<path d="M147.352 78.818C149.525 82.5158 150.957 93.181 147.605 101.874" stroke="black" stroke-width="1.05909" stroke-linecap="round"/>
<circle cx="37.9131" cy="92.4468" r="14.7539" stroke="black" stroke-width="1.43941"/>
<path d="M23.941 80.5208L23.147 79.1096C21.9612 77.0022 22.7083 74.3327 24.8156 73.147V73.147C26.923 71.9612 29.5925 72.7083 30.7782 74.8156L31.5723 76.2269" stroke="black" stroke-width="1.43941"/>
<path d="M51.9008 80.5208L52.6948 79.1096C53.8806 77.0022 53.1335 74.3327 51.0261 73.147V73.147C48.9188 71.9612 46.2493 72.7083 45.0636 74.8156L44.2695 76.2269" stroke="black" stroke-width="1.43941"/>
<path d="M37.793 82.4909V92.5668L44.7501 96.2853" stroke="black" stroke-width="1.43941" stroke-linecap="round"/>
<path d="M29.3975 104.562L26.6387 109" stroke="black" stroke-width="1.43941" stroke-linecap="round"/>
<path d="M46.4286 104.562L49.1875 109" stroke="black" stroke-width="1.43941" stroke-linecap="round"/>
<path d="M219.225 32.9049V25.0029" stroke="black" stroke-width="0.912395" stroke-linecap="round"/>
<path d="M226.842 34.6043H220.729" stroke="black" stroke-width="0.912395" stroke-linecap="round"/>
<path d="M218.302 35.774L210.83 43.5369" stroke="black" stroke-width="0.416794" stroke-linecap="round"/>
<path d="M219.334 16.8943C228.648 16.8946 236.236 24.8593 236.236 34.7322C236.236 44.605 228.648 52.5698 219.334 52.5701C210.02 52.5701 202.431 44.6052 202.431 34.7322C202.431 24.8591 210.02 16.8943 219.334 16.8943Z" stroke="black" stroke-width="0.860681"/>
<path d="M219.333 19.168C227.477 19.168 234.133 26.1052 234.133 34.7314C234.133 43.3579 227.477 50.2959 219.333 50.2959C211.19 50.2957 204.534 43.3578 204.534 34.7314C204.534 26.1053 211.19 19.1682 219.333 19.168Z" stroke="black" stroke-width="1.32957"/>
<path d="M219.248 19.3526V21.9866" stroke="black" stroke-width="1.27735" stroke-linecap="square"/>
<path d="M219.164 47.2222V49.8562" stroke="black" stroke-width="1.27735" stroke-linecap="square"/>
<path d="M234.117 34.6468H231.483" stroke="black" stroke-width="1.27735" stroke-linecap="square"/>
<path d="M207.184 34.6468H204.55" stroke="black" stroke-width="1.27735" stroke-linecap="square"/>
<path d="M225.537 46.5424L226.679 48.4966" stroke="black" stroke-width="0.912395" stroke-linecap="square"/>
<path d="M211.941 20.967L213.046 22.8363" stroke="black" stroke-width="0.912395" stroke-linecap="square"/>
<path d="M212.77 46.3241L211.738 48.3385" stroke="black" stroke-width="0.912395" stroke-linecap="square"/>
<path d="M226.59 21.052L225.623 22.8363" stroke="black" stroke-width="0.912395" stroke-linecap="square"/>
<path d="M230.381 41.6143L232.11 42.8799" stroke="black" stroke-width="0.912395" stroke-linecap="square"/>
<path d="M206.76 26.32L208.374 27.5096" stroke="black" stroke-width="0.912395" stroke-linecap="square"/>
<path d="M230.135 27.4504L231.909 26.235" stroke="black" stroke-width="0.912395" stroke-linecap="square"/>
<path d="M206.514 42.9146L208.366 41.6142" stroke="black" stroke-width="0.912395" stroke-linecap="square"/>
<circle cx="1.78433" cy="1.78433" r="1.32813" transform="matrix(-1 0 0 1 221.094 32.9049)" stroke="black" stroke-width="0.912395"/>
<path d="M217.914 16.8518V14.9111H219.37H220.825V16.8518" stroke="black" stroke-width="0.833589" stroke-linecap="round"/>
<rect x="216.389" y="12.4168" width="6.15305" height="2.46566" rx="0.833589" stroke="black" stroke-width="0.833589"/>
<path d="M217.721 13.1644V13.9407" stroke="black" stroke-width="0.416794" stroke-linecap="round"/>
<path d="M218.883 13.1644V13.9407" stroke="black" stroke-width="0.416794" stroke-linecap="round"/>
<path d="M220.049 13.1644V13.9407" stroke="black" stroke-width="0.416794" stroke-linecap="round"/>
<path d="M221.215 13.1644V13.9407" stroke="black" stroke-width="0.416794" stroke-linecap="round"/>
<path d="M125.941 24.5702V34.0662H132.677" stroke="black" stroke-width="0.831081" stroke-linecap="square"/>
<circle cx="117.992" cy="44.8872" r="0.441673" fill="black"/>
<circle cx="113.354" cy="40.2496" r="0.441673" fill="black"/>
<circle cx="111.145" cy="33.1828" r="0.441673" fill="black"/>
<circle cx="113.133" cy="25.4536" r="0.441673" fill="black"/>
<circle cx="117.549" cy="20.5952" r="0.441673" fill="black"/>
<circle cx="125.942" cy="18.6077" r="0.441673" fill="black"/>
<circle cx="133.008" cy="20.5952" r="0.441673" fill="black"/>
<circle cx="137.867" cy="25.4536" r="0.441673" fill="black"/>
<circle cx="139.854" cy="33.1828" r="0.441673" fill="black"/>
<circle cx="138.088" cy="39.5871" r="0.441673" fill="black"/>
<circle cx="132.787" cy="44.8872" r="0.441673" fill="black"/>
<circle cx="125.942" cy="46.8747" r="0.441673" fill="black"/>
<path d="M125.499 14.1706C128.54 14.1706 131.408 14.9118 133.933 16.2223L133.31 17.1472C130.965 15.9523 128.311 15.279 125.499 15.279C115.988 15.2793 108.278 22.989 108.278 32.4997C108.278 42.0105 115.988 49.721 125.499 49.7214C135.01 49.7214 142.721 42.0107 142.721 32.4997C142.721 27.5351 140.619 23.0623 137.258 19.9196L137.885 18.9889C141.538 22.3396 143.829 27.1519 143.829 32.4997L143.823 32.9733C143.572 42.8776 135.464 50.8298 125.499 50.8298L125.026 50.8239C115.122 50.5729 107.17 42.4645 107.17 32.4997C107.17 22.377 115.376 14.1709 125.499 14.1706Z" fill="black"/>
<circle cx="125.5" cy="32.5" r="20.0845" stroke="black" stroke-width="0.831081"/>
<circle cx="39.9991" cy="31.8601" r="1.25877" stroke="black" stroke-width="1.3986"/>
<path d="M40.6973 30.7414L51.1869 21.2308" stroke="black" stroke-width="1.3986" stroke-linecap="round"/>
<path d="M41.1172 33.1189L48.1103 40.1119" stroke="black" stroke-width="1.3986" stroke-linecap="round"/>
<path d="M39.998 47.6643V52" stroke="black" stroke-width="0.83916" stroke-linecap="round"/>
<path d="M24.3359 31.869L20.0004 31.8331" stroke="black" stroke-width="0.83916" stroke-linecap="round"/>
<path d="M53.7754 24.5414L57.588 22.4769" stroke="black" stroke-width="0.27972" stroke-linecap="round"/>
<path d="M31.5469 45.1894L29.2073 48.8398" stroke="black" stroke-width="0.27972" stroke-linecap="round"/>
<path d="M31.8262 18.6373L29.5636 14.9388" stroke="black" stroke-width="0.27972" stroke-linecap="round"/>
<path d="M53.4668 40.0035L57.1941 42.2184" stroke="black" stroke-width="0.27972" stroke-linecap="round"/>
<path d="M39.998 12V16.3357" stroke="black" stroke-width="0.83916" stroke-linecap="round"/>
<path d="M59.998 32.164L55.6625 32.1281" stroke="black" stroke-width="0.83916" stroke-linecap="round"/>
<path d="M22.4141 41.5231L26.2267 39.4586" stroke="black" stroke-width="0.27972" stroke-linecap="round"/>
<path d="M50.791 15.1631L48.4515 18.8134" stroke="black" stroke-width="0.27972" stroke-linecap="round"/>
<path d="M50.4375 49.0606L48.1749 45.362" stroke="black" stroke-width="0.27972" stroke-linecap="round"/>
<path d="M22.8066 21.7842L26.5339 23.9991" stroke="black" stroke-width="0.27972" stroke-linecap="round"/>
</svg>
