<svg width="261" height="184" viewBox="0 0 261 184" fill="none" xmlns="http://www.w3.org/2000/svg">
<path d="M45.3075 26.9336C47.5629 27.5271 50.8629 29.4264 46.0198 32.2753C45.5449 34.8868 42.362 42.9586 35.3364 42.9586C32.3909 42.9586 27.6444 41.1068 23.9408 32.2753C21.8041 31.563 18.8128 29.4976 23.9408 26.9336" stroke="white" stroke-linecap="round"/>
<path d="M30.3496 35.4805C31.8928 37.1423 35.8337 39.4689 39.2524 35.4805" stroke="white" stroke-linecap="round"/>
<path d="M20.7321 22.3041C20.4947 17.556 22.8698 8.4324 33.1961 6.99133C38.8948 6.19613 48.6511 8.34456 49.2208 22.3041M23.2259 23.7287C25.3626 22.8978 29.2798 19.8115 27.8554 14.1136C29.9912 18.2683 37.2545 26.2215 49.2208 24.797M39.251 4.49863C36.4035 1.29362 28.569 -1.19914 20.7321 6.99133C16.8173 11.2647 10.761 22.0906 20.7321 41.1782" stroke="white" stroke-linecap="round" stroke-linejoin="round"/>
<path d="M30.5625 28.3584C30.5625 28.8876 30.4541 29.342 30.3023 29.6456C30.1356 29.9791 29.9977 29.995 29.9941 29.995C29.9905 29.995 29.8527 29.9791 29.6859 29.6456C29.5341 29.342 29.4258 28.8876 29.4258 28.3584C29.4258 27.8291 29.5341 27.3747 29.6859 27.0711C29.8527 26.7376 29.9905 26.7217 29.9941 26.7217C29.9977 26.7217 30.1356 26.7376 30.3023 27.0711C30.4541 27.3747 30.5625 27.8291 30.5625 28.3584Z" fill="white" stroke="white"/>
<path d="M40.5332 28.3584C40.5332 28.8876 40.4248 29.342 40.273 29.6456C40.1063 29.9791 39.9684 29.995 39.9648 29.995C39.9612 29.995 39.8234 29.9791 39.6566 29.6456C39.5048 29.342 39.3965 28.8876 39.3965 28.3584C39.3965 27.8291 39.5048 27.3747 39.6566 27.0711C39.8234 26.7376 39.9612 26.7217 39.9648 26.7217C39.9684 26.7217 40.1063 26.7376 40.273 27.0711C40.4248 27.3747 40.5332 27.8291 40.5332 28.3584Z" fill="white" stroke="white"/>
<path d="M109.221 28.8289C109.288 28.6951 109.578 27.9042 110.012 26.6923M115.987 9.5989C115.628 10.6364 115.206 11.8523 114.752 13.16M114.752 13.16C116.469 13.2787 120.688 13.3025 123.821 12.4478M114.752 13.16C113.139 17.8057 111.114 23.6104 110.012 26.6923M110.012 26.6923L116.343 28.4728C119.548 32.9836 127.026 40.8655 131.3 36.3073M131.3 36.3073C133.08 36.6634 136.713 36.521 136.997 33.1023M131.3 36.3073L125.246 30.2534M136.997 33.1023C138.184 33.221 140.701 32.6749 141.271 29.5412M136.997 33.1023L129.519 25.6239M141.271 29.5412C142.814 29.7786 145.829 29.3275 145.544 25.6239M141.271 29.5412L134.505 22.775M145.544 25.6239L133.792 14.5845C131.656 16.6024 126.67 19.9974 123.821 17.4334C122.516 16.0089 121.97 11.878 130.231 6.75L144.832 8.88667L150.745 24.5556M145.544 25.6239C147.823 25.9088 149.961 25.0304 150.745 24.5556M151.954 27.7606L150.745 24.5556" stroke="white" stroke-linecap="round" stroke-linejoin="round"/>
<path d="M214.017 15.5297V23.3641C219.003 20.2778 231.752 15.957 242.862 23.3641V15.5297M214.017 15.5297C226.552 8.12255 238.47 12.4434 242.862 15.5297M214.017 15.5297C213.661 13.8678 213.732 10.4729 216.866 10.188C216.391 8.52618 216.581 5.20247 221.139 5.20247C221.614 4.01543 223.419 1.99747 226.837 3.42191C227.906 2.3536 230.612 1.00042 232.891 4.13421C234.316 3.5407 237.378 3.20835 238.233 6.62702C239.539 6.50825 242.079 7.05417 241.794 10.188C243.1 10.5441 245.141 12.1109 242.862 15.5297" stroke="white"/>
<path d="M212.237 24.4326C211.643 26.5693 211.596 30.7714 216.154 30.4865C217.341 34.6412 221.495 42.2382 228.973 42.2382C230.042 42.2382 237.239 42.2382 241.793 30.4865C243.455 30.4865 246.352 29.2757 244.642 24.4326" stroke="white" stroke-linecap="round"/>
<path d="M224.699 35.4717C226.124 36.8961 229.97 38.8904 233.958 35.4717" stroke="white" stroke-linecap="round"/>
<path d="M224.379 25.1445C224.379 25.6737 224.271 26.1281 224.119 26.4317C223.952 26.7652 223.814 26.7812 223.811 26.7812C223.807 26.7812 223.669 26.7652 223.502 26.4317C223.351 26.1281 223.242 25.6737 223.242 25.1445C223.242 24.6152 223.351 24.1608 223.502 23.8572C223.669 23.5237 223.807 23.5078 223.811 23.5078C223.814 23.5078 223.952 23.5237 224.119 23.8572C224.271 24.1608 224.379 24.6152 224.379 25.1445Z" fill="black" stroke="white"/>
<path d="M233.994 25.1445C233.994 25.6737 233.886 26.1281 233.734 26.4317C233.567 26.7652 233.429 26.7812 233.426 26.7812C233.422 26.7812 233.284 26.7652 233.118 26.4317C232.966 26.1281 232.857 25.6737 232.857 25.1445C232.857 24.6152 232.966 24.1608 233.118 23.8572C233.284 23.5237 233.422 23.5078 233.426 23.5078C233.429 23.5078 233.567 23.5237 233.734 23.8572C233.886 24.1608 233.994 24.6152 233.994 25.1445Z" fill="black" stroke="white"/>
<path d="M21.823 106.658C16.4101 98.1115 15.9902 90.9892 16.1252 88.4965C16.695 77.9555 27.9956 75.3203 33.5747 75.3203L32.8623 81.0181L42.4773 88.4965L40.6967 92.4137L27.1644 90.6331M30.7255 93.482C35.355 94.9065 43.047 99.5359 36.7794 106.658M17.1933 109.863H40.6967" stroke="white" stroke-linecap="round" stroke-linejoin="round"/>
<path d="M7.22194 89.9207H13.9881M11.4953 92.7696C13.0384 95.6185 14.3442 102.456 7.22194 107.014M4.37305 109.863H14.3442M12.2075 87.4279C10.9018 86.3596 9.0025 82.2643 10.7831 79.5936C11.4953 78.5253 13.7032 76.1036 18.2614 77.8129" stroke="white" stroke-linecap="round" stroke-linejoin="round"/>
<path d="M115.353 97.6577C116.636 95.6497 119.072 92.6194 122.329 89.8232M136.008 83.0571L140.637 97.6577M136.008 83.0571L133.515 75.2227H142.418C143.605 76.6471 144.839 79.7809 140.281 80.9204M136.008 83.0571C130.722 83.8122 126.004 86.6688 122.329 89.8232M122.329 89.8232L117.49 79.496M117.49 79.496H111.08M117.49 79.496H121.763" stroke="white" stroke-linecap="round" stroke-linejoin="round"/>
<mask id="path-15-inside-1_2743_43" fill="white">
<path d="M116.255 86.3368C114.146 86.2396 112.058 86.7905 110.272 87.9155C108.486 89.0405 107.087 90.6856 106.264 92.6295C105.441 94.5733 105.232 96.7226 105.667 98.7883C106.102 100.854 107.16 102.737 108.697 104.184C110.234 105.63 112.177 106.572 114.265 106.881C116.354 107.19 118.486 106.852 120.377 105.913C122.267 104.974 123.825 103.478 124.84 101.627C125.855 99.776 126.278 97.6586 126.054 95.5596L125.089 95.6628C125.293 97.5648 124.909 99.4834 123.989 101.161C123.07 102.838 121.658 104.193 119.945 105.045C118.232 105.896 116.3 106.202 114.408 105.922C112.515 105.641 110.754 104.788 109.361 103.477C107.968 102.166 107.011 100.46 106.616 98.5884C106.222 96.7167 106.411 94.769 107.157 93.0076C107.903 91.2462 109.17 89.7556 110.789 88.7361C112.407 87.7167 114.299 87.2174 116.21 87.3055L116.255 86.3368Z"/>
</mask>
<path d="M116.255 86.3368C114.146 86.2396 112.058 86.7905 110.272 87.9155C108.486 89.0405 107.087 90.6856 106.264 92.6295C105.441 94.5733 105.232 96.7226 105.667 98.7883C106.102 100.854 107.16 102.737 108.697 104.184C110.234 105.63 112.177 106.572 114.265 106.881C116.354 107.19 118.486 106.852 120.377 105.913C122.267 104.974 123.825 103.478 124.84 101.627C125.855 99.776 126.278 97.6586 126.054 95.5596L125.089 95.6628C125.293 97.5648 124.909 99.4834 123.989 101.161C123.07 102.838 121.658 104.193 119.945 105.045C118.232 105.896 116.3 106.202 114.408 105.922C112.515 105.641 110.754 104.788 109.361 103.477C107.968 102.166 107.011 100.46 106.616 98.5884C106.222 96.7167 106.411 94.769 107.157 93.0076C107.903 91.2462 109.17 89.7556 110.789 88.7361C112.407 87.7167 114.299 87.2174 116.21 87.3055L116.255 86.3368Z" fill="#D9D9D9" stroke="white" stroke-width="2" stroke-linejoin="round" mask="url(#path-15-inside-1_2743_43)"/>
<mask id="path-16-inside-2_2743_43" fill="white">
<path d="M144.39 86.983C149.734 88.9857 152.442 94.9414 150.439 100.285C148.437 105.629 142.481 108.338 137.137 106.335C131.793 104.333 129.084 98.3768 131.087 93.0329C133.09 87.6889 139.046 84.9802 144.39 86.983ZM137.479 105.423C142.319 107.237 147.713 104.784 149.527 99.9435C151.341 95.1033 148.888 89.7091 144.048 87.8951C139.207 86.0812 133.813 88.5345 131.999 93.3747C130.185 98.2149 132.639 103.609 137.479 105.423Z"/>
</mask>
<path d="M144.39 86.983C149.734 88.9857 152.442 94.9414 150.439 100.285C148.437 105.629 142.481 108.338 137.137 106.335C131.793 104.333 129.084 98.3768 131.087 93.0329C133.09 87.6889 139.046 84.9802 144.39 86.983ZM137.479 105.423C142.319 107.237 147.713 104.784 149.527 99.9435C151.341 95.1033 148.888 89.7091 144.048 87.8951C139.207 86.0812 133.813 88.5345 131.999 93.3747C130.185 98.2149 132.639 103.609 137.479 105.423Z" fill="#D9D9D9" stroke="white" stroke-width="2" mask="url(#path-16-inside-2_2743_43)"/>
<path d="M232.811 112.225C226.208 108.422 209.628 91.7421 215.188 87.5723C217.861 85.8349 220.333 88.5454 224.225 92.4373M224.225 92.4373C224.687 91.1631 226.513 88.8232 230.129 89.6571M224.225 92.4373C224.456 93.943 225.751 97.7189 229.087 100.777C230.477 102.051 234.65 102.862 234.65 98.3444M244.724 88.9622C242.5 73.3947 238.469 72.0511 236.732 73.3252C235.342 74.3445 234.369 77.2867 237.427 87.5723M237.427 87.5723C233.257 85.0705 230.824 87.9198 230.129 89.6571M237.427 87.5723C238.238 88.6147 239.859 91.455 239.859 96.2594C239.859 98.3444 238.266 101.124 234.65 98.3444M246.114 93.132C249.589 88.7305 257.581 82.7073 255.844 89.6571C255.496 92.0896 254.315 95.5644 246.809 103.904V108.422M230.129 89.6571C231.174 90.6996 233.541 93.8965 234.65 98.3444" stroke="white" stroke-linecap="round" stroke-linejoin="round"/>
<rect x="15.4258" y="144.057" width="18.9421" height="6.22903" rx="1.24999" stroke="white"/>
<rect x="15.4258" y="164.248" width="18.9421" height="6.22903" rx="1.24999" stroke="white"/>
<rect x="12.6816" y="174.468" width="24.4262" height="6.22903" rx="1.24999" stroke="white"/>
<path d="M18.5391 150.661V163.873M31.1275 150.661C31.1275 157.242 31.1275 162.211 31.1275 163.873" stroke="white"/>
<path d="M31.252 154.649H51.0927C51.6305 154.649 52.0666 155.085 52.0666 155.623V159.658C52.0666 160.196 51.6305 160.632 51.0927 160.632H31.252" stroke="white"/>
<path d="M119.713 147.626H141.455C145.402 147.626 148.602 150.826 148.602 154.773V155.4C148.602 155.969 148.141 156.43 147.573 156.43H113.596C113.027 156.43 112.566 155.969 112.566 155.4V154.773C112.566 150.826 115.766 147.626 119.713 147.626Z" stroke="white"/>
<path d="M123.504 147.671V144.652C123.504 143.312 124.591 142.225 125.932 142.225H135.781C137.122 142.225 138.209 143.312 138.209 144.652V147.671" stroke="white"/>
<path d="M115.877 156.385V177.939C115.877 180.473 117.931 182.528 120.465 182.528H140.699C143.233 182.528 145.288 180.473 145.288 177.939V156.385" stroke="white"/>
<path d="M122.961 162.921V175.992M130.586 175.992V162.921M137.666 175.992V162.921" stroke="white" stroke-linecap="round" stroke-linejoin="round"/>
<path d="M233.881 166.127L223.107 177.414C222.914 177.616 222.662 177.75 222.386 177.795L216.699 178.743C216.557 178.767 216.42 178.814 216.293 178.883L211.532 181.48C211.03 181.754 210.407 181.665 210.003 181.26L209.806 181.063C209.392 180.649 209.309 180.008 209.604 179.502L212.652 174.277C212.746 174.117 212.803 173.939 212.822 173.756L213.275 169.221C213.305 168.925 213.436 168.648 213.646 168.437L224.919 157.165M230.191 152.42L239.384 143.227C239.576 143.035 239.823 142.905 240.094 142.875C243.452 142.498 249.115 143.63 248.175 150.945C248.141 151.215 248.011 151.47 247.819 151.662L238.626 160.855" stroke="white" stroke-linecap="round" stroke-linejoin="round"/>
<path d="M234.295 166.543L224.383 156.63C223.805 156.052 223.805 155.115 224.383 154.537L227.034 151.886C227.612 151.308 228.549 151.308 229.127 151.886L239.04 161.798C239.618 162.376 239.618 163.313 239.04 163.892L236.389 166.543C235.81 167.121 234.873 167.121 234.295 166.543Z" stroke="white"/>
<path d="M222.282 166.127L218.268 170.14C217.463 170.946 217.01 172.039 217.01 173.179V175.089" stroke="white" stroke-linecap="round"/>
</svg>
