<svg width="136" height="136" viewBox="0 0 136 136" fill="none" xmlns="http://www.w3.org/2000/svg">
<path d="M68 135.812C105.452 135.812 135.812 105.452 135.812 68C135.812 30.5482 105.452 0.1875 68 0.1875C30.5482 0.1875 0.1875 30.5482 0.1875 68C0.1875 105.452 30.5482 135.812 68 135.812Z" fill="#F3F3F4"/>
<path d="M122.418 108.414C116.093 99.9464 107.881 93.0709 98.4337 88.3338C88.9863 83.5966 78.5643 81.1283 67.9958 81.125C57.4272 81.1217 47.0036 83.5835 37.5533 88.3147C28.103 93.0459 19.8864 99.9162 13.5566 108.38C19.8542 116.886 28.0574 123.798 37.5083 128.562C46.9592 133.326 57.3949 135.809 67.9786 135.813C78.5624 135.816 88.9996 133.339 98.4535 128.581C107.907 123.823 116.115 116.916 122.418 108.414Z" fill="#B4B4B4"/>
<path d="M68 72.375C82.4975 72.375 94.25 60.6225 94.25 46.125C94.25 31.6275 82.4975 19.875 68 19.875C53.5025 19.875 41.75 31.6275 41.75 46.125C41.75 60.6225 53.5025 72.375 68 72.375Z" fill="#B4B4B4"/>
</svg>
