<svg width="260" height="178" viewBox="0 0 260 178" fill="none" xmlns="http://www.w3.org/2000/svg">
<path fill-rule="evenodd" clip-rule="evenodd" d="M230.013 140.009C234.904 140.009 239.074 135.836 239.074 130.43C239.074 125.024 234.904 120.85 230.013 120.85C225.122 120.85 220.952 125.024 220.952 130.43C220.952 135.836 225.122 140.009 230.013 140.009ZM230.013 142.859C236.592 142.859 241.925 137.294 241.925 130.43C241.925 123.565 236.592 118 230.013 118C223.435 118 218.102 123.565 218.102 130.43C218.102 137.294 223.435 142.859 230.013 142.859Z" fill="black"/>
<path fill-rule="evenodd" clip-rule="evenodd" d="M240.242 128.054C240.267 127.268 240.924 126.65 241.711 126.674L241.667 128.099C241.711 126.674 241.711 126.674 241.712 126.674L241.715 126.674L241.721 126.675L241.738 126.675C241.751 126.676 241.769 126.677 241.791 126.678C241.834 126.68 241.894 126.683 241.967 126.689C242.111 126.699 242.31 126.718 242.536 126.75C242.937 126.807 243.612 126.931 244.172 127.242C245.268 127.851 246.075 128.587 246.61 129.887C246.785 130.311 246.919 130.729 246.981 131.192C247.043 131.655 247.023 132.094 246.965 132.552C246.794 133.887 246.026 134.762 245.437 135.406C245.078 135.797 244.596 136.136 244.281 136.343C244.11 136.455 243.956 136.549 243.844 136.615C243.788 136.648 243.742 136.675 243.708 136.694C243.692 136.703 243.678 136.711 243.668 136.716L243.656 136.723L243.652 136.726L243.65 136.726L243.649 136.727C243.649 136.727 243.649 136.727 242.962 135.479L243.649 136.727C243.439 136.843 243.202 136.904 242.962 136.904H234.287C233.5 136.904 232.862 136.266 232.862 135.479C232.862 134.692 233.5 134.054 234.287 134.054H242.571C242.617 134.025 242.666 133.993 242.718 133.96C242.999 133.775 243.229 133.596 243.335 133.48C243.906 132.856 244.09 132.561 244.138 132.19C244.177 131.881 244.175 131.707 244.156 131.57C244.138 131.433 244.094 131.263 243.974 130.971C243.739 130.401 243.458 130.106 242.787 129.733C242.714 129.692 242.483 129.621 242.135 129.572C241.987 129.551 241.853 129.538 241.756 129.531C241.708 129.528 241.67 129.526 241.647 129.524C241.635 129.524 241.627 129.523 241.623 129.523C241.623 129.523 241.622 129.523 241.622 129.523C241.622 129.523 241.622 129.523 241.622 129.523C241.622 129.523 241.621 129.523 241.621 129.523C241.621 129.523 241.621 129.523 241.62 129.523C241.62 129.523 241.62 129.523 241.62 129.523C240.834 129.497 240.218 128.84 240.242 128.054ZM218.508 129.524C218.508 129.524 218.509 129.524 218.509 129.524C219.296 129.514 219.925 128.869 219.916 128.082C219.907 127.295 219.261 126.665 218.474 126.674L218.491 128.099C218.474 126.674 218.474 126.674 218.474 126.674L218.471 126.674L218.465 126.674L218.446 126.674C218.432 126.674 218.412 126.675 218.387 126.676C218.338 126.677 218.269 126.68 218.186 126.684C218.02 126.692 217.789 126.708 217.528 126.737C217.052 126.791 216.302 126.906 215.683 127.198C214.868 127.582 213.931 128.069 213.198 129.069C212.846 129.55 212.529 130.052 212.314 130.635C212.093 131.234 212.005 131.844 212.017 132.524C212.026 133.13 212.096 133.72 212.307 134.307C212.521 134.902 212.85 135.411 213.274 135.898C214.087 136.83 215.01 137.26 215.933 137.595C216.779 137.903 217.826 137.921 218.509 137.901C218.881 137.89 219.21 137.865 219.446 137.842C219.565 137.831 219.662 137.82 219.731 137.812C219.766 137.808 219.793 137.804 219.813 137.802L219.838 137.799L219.845 137.798L219.849 137.797C219.849 137.797 219.85 137.797 219.656 136.385L219.85 137.797C220.629 137.69 221.175 136.972 221.068 136.192C220.961 135.412 220.243 134.866 219.463 134.973L219.463 134.973L219.452 134.975C219.44 134.976 219.422 134.978 219.397 134.981C219.347 134.987 219.272 134.996 219.176 135.005C218.985 135.023 218.72 135.043 218.425 135.052C217.776 135.071 217.204 135.024 216.906 134.916C216.166 134.647 215.771 134.424 215.422 134.024C215.173 133.739 215.057 133.53 214.99 133.344C214.92 133.149 214.873 132.896 214.866 132.478C214.86 132.086 214.909 131.834 214.988 131.622C215.072 131.394 215.217 131.137 215.498 130.754C215.783 130.364 216.154 130.127 216.897 129.776C217.067 129.696 217.418 129.618 217.845 129.57C218.036 129.548 218.207 129.537 218.33 129.53C218.392 129.527 218.44 129.526 218.471 129.525C218.486 129.524 218.497 129.524 218.504 129.524L218.508 129.524ZM225.153 140.471C225.399 141.218 224.993 142.024 224.246 142.27L224.238 142.273L224.206 142.283C224.178 142.293 224.135 142.308 224.078 142.327C223.964 142.366 223.797 142.425 223.589 142.501C223.172 142.653 222.594 142.873 221.949 143.144C220.628 143.699 219.152 144.419 218.193 145.155C217.953 145.339 217.727 145.511 217.513 145.673C216.113 146.735 215.232 147.404 214.186 148.773C212.494 150.989 211.757 152.45 211.067 155.126C210.772 156.268 210.757 157.892 210.844 159.338C210.886 160.04 210.95 160.661 211.003 161.106C211.029 161.328 211.053 161.505 211.069 161.625C211.078 161.685 211.084 161.73 211.089 161.76L211.094 161.793L211.095 161.8C211.216 162.578 210.685 163.307 209.908 163.429C209.13 163.551 208.401 163.019 208.279 162.242L209.687 162.021C208.279 162.242 208.279 162.242 208.279 162.241L208.278 162.236L208.276 162.223C208.274 162.213 208.272 162.198 208.269 162.179C208.264 162.141 208.256 162.087 208.246 162.019C208.227 161.882 208.201 161.685 208.172 161.442C208.114 160.956 208.045 160.278 207.999 159.509C207.909 158.015 207.894 156.014 208.307 154.415C209.098 151.346 210.012 149.543 211.92 147.043C213.214 145.35 214.401 144.452 215.809 143.387C216.02 143.227 216.236 143.064 216.458 142.893C217.724 141.922 219.485 141.088 220.845 140.516C221.541 140.224 222.163 139.987 222.612 139.823C222.837 139.741 223.02 139.677 223.147 139.633C223.211 139.611 223.261 139.594 223.296 139.582L223.337 139.569L223.348 139.565L223.351 139.564L223.353 139.563C223.353 139.563 223.353 139.563 223.751 140.769L223.353 139.563C224.101 139.317 224.907 139.723 225.153 140.471ZM234.767 140.411C235.046 139.675 235.869 139.305 236.605 139.584L236.132 140.83C236.605 139.584 236.605 139.584 236.605 139.584L236.606 139.585L236.61 139.586L236.62 139.59L236.658 139.604C236.69 139.617 236.736 139.635 236.795 139.658C236.913 139.705 237.083 139.772 237.292 139.858C237.709 140.029 238.289 140.275 238.938 140.573C240.209 141.156 241.848 141.985 243.043 142.886C244.857 144.254 245.843 145.222 247.211 147.056C249.079 149.56 250.014 151.336 250.698 154.466C251.043 156.045 251.033 158.018 250.956 159.506C250.917 160.269 250.858 160.94 250.809 161.422C250.784 161.663 250.762 161.857 250.746 161.993C250.738 162.06 250.731 162.114 250.726 162.151L250.721 162.194L250.719 162.206L250.718 162.209L250.718 162.211L250.718 162.211C250.718 162.211 250.718 162.211 249.306 162.021L250.718 162.211C250.613 162.991 249.895 163.539 249.115 163.433C248.335 163.328 247.788 162.61 247.893 161.83L247.894 161.83L247.895 161.822L247.899 161.789C247.903 161.759 247.908 161.713 247.916 161.653C247.93 161.533 247.95 161.355 247.973 161.133C248.019 160.687 248.073 160.064 248.109 159.36C248.184 157.914 248.173 156.261 247.914 155.075C247.332 152.416 246.602 151.006 244.927 148.76C243.729 147.155 242.938 146.377 241.327 145.162C240.391 144.457 238.987 143.732 237.749 143.163C237.143 142.885 236.6 142.655 236.21 142.495C236.015 142.415 235.858 142.352 235.752 142.31C235.699 142.29 235.658 142.274 235.631 142.263L235.601 142.252L235.594 142.249" fill="black"/>
<circle cx="28.2782" cy="16.379" r="10.3622" stroke="black" stroke-width="3" stroke-linecap="round" stroke-linejoin="round"/>
<path d="M28.2761 32.6892C21.8507 32.1949 9 34.4685 9 47.5169" stroke="black" stroke-width="3" stroke-linecap="round" stroke-linejoin="round"/>
<path d="M44.5868 29.7239L32.7246 41.5861V48.9999H40.1385L52.0007 37.1378C52.0007 32.3929 47.0581 30.2181 44.5868 29.7239Z" stroke="black" stroke-width="3" stroke-linecap="round" stroke-linejoin="round"/>
<circle cx="129.215" cy="17.6429" r="10.6773" stroke="black" stroke-width="2.93103"/>
<path d="M111 48.0001L115.267 40.3193C117.318 36.6285 121.208 34.3394 125.43 34.3394H133.802C138.396 34.3394 142.56 37.0451 144.426 41.2437L147.429 48.0001" stroke="black" stroke-width="2.93103" stroke-linecap="round"/>
<circle cx="227.431" cy="18.7143" r="10.2428" stroke="black" stroke-width="2.94304"/>
<path d="M209.857 48L213.974 40.5903C215.952 37.0297 219.705 34.8214 223.778 34.8214H231.854C236.287 34.8214 240.303 37.4317 242.103 41.4821L245 48" stroke="black" stroke-width="2.94304" stroke-linecap="round"/>
<path d="M207.462 30.4862V20.6299H209.698V30.4862H207.462ZM203.652 26.6761V24.44H213.508V26.6761H203.652Z" fill="black"/>
<circle cx="28.8345" cy="74.2036" r="10.7625" stroke="black" stroke-width="2.88235" stroke-linecap="round" stroke-linejoin="round"/>
<path d="M28.8309 90.9833C22.2206 90.4748 9 92.8139 9 106.238" stroke="black" stroke-width="2.88235" stroke-linecap="round" stroke-linejoin="round"/>
<circle cx="41.1178" cy="95.4668" r="7.18839" stroke="black" stroke-width="2.88235"/>
<line x1="47.312" y1="103.077" x2="54.2157" y2="109.981" stroke="black" stroke-width="2.88235"/>
<circle cx="129.834" cy="71.1211" r="9.6809" stroke="black" stroke-width="2.88035"/>
<path d="M138.408 85.4858H121.368C120.837 85.4858 120.307 85.571 119.819 85.7824C116.068 87.4088 110.249 91.8895 111.08 99.4184C111.179 100.309 111.624 101.122 112.299 101.71C118.368 106.996 132.138 113.08 146.789 101.678C147.522 101.107 148.061 100.298 148.227 99.3849C149.666 91.486 143.636 87.1497 139.753 85.7079C139.323 85.5482 138.867 85.4858 138.408 85.4858Z" stroke="black" stroke-width="2.88035"/>
<circle cx="228.25" cy="72.2499" r="9.76945" stroke="black" stroke-width="2.96096"/>
<path d="M228.718 86.7814C212.781 86.7814 209.343 99.5938 209.499 106H247C247 91.3751 234.812 86.7814 228.718 86.7814Z" stroke="black" stroke-width="2.96096"/>
<path d="M39.4495 131.754C39.4495 137.807 35.0925 142.435 30.0437 142.435C24.9949 142.435 20.6379 137.807 20.6379 131.754C20.6379 125.7 24.9949 121.072 30.0437 121.072C35.0925 121.072 39.4495 125.7 39.4495 131.754Z" stroke="black" stroke-width="2.86957"/>
<path d="M9 160.449V152.619C9 151.572 9.63988 150.626 10.6246 150.27C28.1057 143.944 44.2396 147.249 51.5411 150.237C52.4463 150.607 53 151.505 53 152.484V160.449C53 161.858 51.858 163 50.4493 163H11.5507C10.142 163 9 161.858 9 160.449Z" stroke="black" stroke-width="2.86957"/>
<circle cx="132.012" cy="129.979" r="9.73956" stroke="black" stroke-width="2.84211"/>
<path d="M109.607 153.738L111.554 148.555C113.335 143.814 118.654 141.449 123.367 143.304L128.808 145.444C131.023 146.315 133.492 146.281 135.682 145.349L139.925 143.543C144.589 141.558 149.975 143.78 151.883 148.477L153.929 153.515C156.352 159.48 151.963 166 145.524 166H118.099C111.763 166 107.378 159.669 109.607 153.738Z" stroke="black" stroke-width="2.84211"/>
</svg>
