<svg width="270" height="178" viewBox="0 0 270 178" fill="none" xmlns="http://www.w3.org/2000/svg">
<path fill-rule="evenodd" clip-rule="evenodd" d="M40.983 46.464C49.7527 45.2541 56.5064 37.7291 56.5064 28.6267C56.5064 18.6817 48.4443 10.6196 38.4993 10.6196C28.5542 10.6196 20.4922 18.6817 20.4922 28.6267C20.4922 37.6573 27.1398 45.1353 35.8085 46.4342V34.0279H31.048V29.1639H35.8085V23.679C35.912 21.4712 37.3609 17.5536 45.9505 18.8988V23.265H42.6388C42.0179 23.196 40.8174 23.5548 40.983 25.5418V29.1639H45.9505V34.0279H40.983V46.464Z" fill="url(#paint0_linear_2783_147)"/>
<path fill-rule="evenodd" clip-rule="evenodd" d="M135.008 47.042C145.225 47.042 153.508 38.7593 153.508 28.542C153.508 18.3247 145.225 10.042 135.008 10.042C124.791 10.042 116.508 18.3247 116.508 28.542C116.508 38.7593 124.791 47.042 135.008 47.042ZM129.569 19.9038H140.447C142.214 19.9038 143.646 21.3362 143.646 23.1031V33.9809C143.646 35.7478 142.214 37.1802 140.447 37.1802H129.569C127.802 37.1802 126.37 35.7478 126.37 33.9809V23.1031C126.37 21.3362 127.802 19.9038 129.569 19.9038ZM124.77 23.1031C124.77 20.4527 126.919 18.3041 129.569 18.3041H140.447C143.097 18.3041 145.246 20.4527 145.246 23.1031V33.9809C145.246 36.6313 143.097 38.7799 140.447 38.7799H129.569C126.919 38.7799 124.77 36.6313 124.77 33.9809V23.1031ZM135.071 32.4358C137.187 32.4358 138.902 30.7204 138.902 28.6044C138.902 26.4884 137.187 24.773 135.071 24.773C132.955 24.773 131.239 26.4884 131.239 28.6044C131.239 30.7204 132.955 32.4358 135.071 32.4358ZM135.071 34.0355C138.07 34.0355 140.502 31.6039 140.502 28.6044C140.502 25.6049 138.07 23.1734 135.071 23.1734C132.071 23.1734 129.64 25.6049 129.64 28.6044C129.64 31.6039 132.071 34.0355 135.071 34.0355ZM141.007 24.2229C141.758 24.2229 142.366 23.6141 142.366 22.8632C142.366 22.1122 141.758 21.5035 141.007 21.5035C140.256 21.5035 139.647 22.1122 139.647 22.8632C139.647 23.6141 140.256 24.2229 141.007 24.2229Z" fill="url(#paint1_linear_2783_147)"/>
<path d="M249.508 28.542C249.508 38.4831 241.449 46.542 231.508 46.542C221.567 46.542 213.508 38.4831 213.508 28.542C213.508 18.6009 221.567 10.542 231.508 10.542C241.449 10.542 249.508 18.6009 249.508 28.542Z" fill="#EFEDED"/>
<path d="M214.264 46.2395L216.986 38.979L222.129 43.8193L214.264 46.2395Z" fill="#EFEDED"/>
<path d="M246.471 28.5426C246.471 36.8053 239.773 43.5036 231.51 43.5036C223.247 43.5036 216.549 36.8053 216.549 28.5426C216.549 20.2798 223.247 13.5815 231.51 13.5815C239.773 13.5815 246.471 20.2798 246.471 28.5426Z" fill="#4CAF50"/>
<path d="M217.178 43.252L219.441 37.2173L223.715 41.2404L217.178 43.252Z" fill="#4CAF50"/>
<path d="M234.101 32.6023C230.358 31.4793 228.018 28.3131 227.316 26.8703C228.346 26.4024 228.759 25.3496 228.837 24.8817C227.621 23.6652 227.316 21.5673 227.316 20.6705C222.824 20.109 223.027 24.5698 223.69 26.8703C227.059 35.012 234.062 36.5016 237.143 36.2286C239.856 35.7607 239.989 33.3041 239.716 32.1344C238.219 32.1344 236.519 30.8866 235.856 30.2627C234.92 30.5435 234.296 31.9394 234.101 32.6023Z" fill="white"/>
<path d="M57 88.042C57 97.9831 48.9411 106.042 39 106.042C29.0589 106.042 21 97.9831 21 88.042C21 78.1009 29.0589 70.042 39 70.042C48.9411 70.042 57 78.1009 57 88.042Z" fill="url(#paint2_linear_2783_147)"/>
<path d="M26.6569 104.889L26.3988 101.062C26.3591 100.474 26.9987 100.085 27.5033 100.39L32.1906 103.228C32.7524 103.568 32.613 104.419 31.972 104.562L27.5427 105.551C27.1069 105.648 26.6869 105.334 26.6569 104.889Z" fill="#7D5EE5"/>
<path d="M33.4322 83.8736L27.7607 93.1214C27.7281 93.1746 27.7016 93.2324 27.6858 93.2927C27.4006 94.3862 28.2904 94.3129 28.8583 94.111C28.92 94.089 28.9768 94.0558 29.0289 94.0159L35.1812 89.3027C35.5893 89.0404 36.0314 89.1934 36.2015 89.3027L40.8654 92.7278C42.7602 93.9521 44.2541 92.7764 44.7642 92.0355L50.3755 82.9991C50.5144 81.7217 49.6943 81.7538 49.2068 81.9487C49.1595 81.9676 49.1161 81.9942 49.0754 82.0246L43.0881 86.4971C42.5926 86.9343 42.0071 86.6792 41.7764 86.4971L36.9943 83.0094C36.9517 82.9783 36.9053 82.9514 36.8566 82.9314C35.2285 82.2644 33.8989 83.2753 33.4322 83.8736Z" fill="white"/>
<path fill-rule="evenodd" clip-rule="evenodd" d="M135 106.042C144.941 106.042 153 97.9831 153 88.042C153 78.1009 144.941 70.042 135 70.042C125.059 70.042 117 78.1009 117 88.042C117 97.9831 125.059 106.042 135 106.042ZM127.058 81.5488C129.37 81.0759 137.295 80.6975 142.497 81.3912C143.285 81.4963 144.547 81.8641 144.872 83.7559C144.872 83.7559 145.019 86.3971 145.019 88.0911C145.019 89.7851 144.872 92.4263 144.872 92.4263C144.872 93.2145 144.399 94.7909 142.507 94.7909C141.843 94.7909 141.017 94.8235 140.015 94.8629C137.196 94.974 132.982 95.1399 127.058 94.7909C126.48 94.6858 125.699 94.0459 125.481 92.4263C125.481 92.4263 125.161 89.8369 125.156 88.1698C125.152 86.4414 125.481 83.7559 125.481 83.7559C125.544 83.1833 125.797 81.9272 127.058 81.5488Z" fill="#FF0000"/>
<path d="M133.537 90.8764V85.2012L138.424 88.0388L133.537 90.8764Z" fill="#FF0000"/>
<path d="M249 88.042C249 97.9831 240.941 106.042 231 106.042C221.059 106.042 213 97.9831 213 88.042C213 78.1009 221.059 70.042 231 70.042C240.941 70.042 249 78.1009 249 88.042Z" fill="#FFFC00"/>
<g filter="url(#filter0_d_2783_147)">
<path d="M231.178 78.0952C225.189 78.0952 224.9 83.56 225.504 86.2924C225 86.5446 224.349 86.3975 224.086 86.2924C223.14 85.914 222.799 86.2398 222.746 86.45C222.368 87.3328 224.322 88.2891 225.347 88.6569C225.094 91.2422 221.984 92.992 220.461 93.5437C221.091 94.6787 222.562 94.8048 223.219 94.726C223.408 94.726 223.613 95.6718 223.692 96.1447C225.079 95.7664 226.371 95.9871 226.844 96.1447C230.563 99.4866 234.12 97.5372 235.433 96.1447H238.427L239.137 94.726C241.028 94.5999 241.606 93.8327 241.658 93.4649C239.956 93.0235 238.375 91.4944 237.797 90.785C237.14 89.9968 236.221 88.3259 237.797 87.9476C239.373 87.5692 239.557 86.8441 239.452 86.5288C239.137 85.8352 238.322 86.0822 237.955 86.2924C237.576 86.5446 237.009 86.3975 236.773 86.2924C237.403 83.56 237.167 78.0952 231.178 78.0952Z" fill="white"/>
</g>
<g filter="url(#filter1_d_2783_147)">
<path fill-rule="evenodd" clip-rule="evenodd" d="M225.973 81.2163C225.241 82.8931 225.316 84.9148 225.615 86.2666L225.635 86.3567L225.553 86.398C225.275 86.537 224.962 86.5635 224.691 86.5442C224.42 86.525 224.179 86.459 224.037 86.4021C223.577 86.2182 223.284 86.2137 223.109 86.2641C222.936 86.3137 222.872 86.4174 222.856 86.4785L222.854 86.4877L222.85 86.4964C222.777 86.6681 222.81 86.8506 222.943 87.0497C223.077 87.2512 223.304 87.4549 223.583 87.6491C224.141 88.0364 224.875 88.3633 225.382 88.5452L225.469 88.5764L225.46 88.6682C225.329 90.0057 224.461 91.1154 223.451 91.9538C222.497 92.746 221.401 93.3085 220.631 93.6045C220.932 94.0639 221.39 94.331 221.86 94.4766C222.371 94.6347 222.886 94.6459 223.2 94.6082L223.207 94.6073H223.214C223.289 94.6073 223.342 94.6529 223.374 94.6885C223.408 94.7269 223.438 94.7766 223.463 94.8288C223.515 94.9343 223.563 95.0752 223.606 95.2251C223.678 95.4767 223.74 95.7688 223.782 95.9975C225.146 95.6581 226.4 95.8732 226.876 96.0321L226.9 96.0399L226.918 96.0564C228.752 97.7043 230.536 98.0408 232.017 97.8029C233.505 97.5641 234.7 96.7441 235.342 96.0632L235.377 96.0261H238.35L239.056 94.6121L239.124 94.6076C240.806 94.4954 241.38 93.8771 241.509 93.5478C240.678 93.3086 239.885 92.8266 239.229 92.3189C238.542 91.7875 237.996 91.2218 237.701 90.8602C237.368 90.4602 236.96 89.8276 236.839 89.236C236.778 88.9385 236.788 88.6373 236.932 88.3813C237.078 88.1226 237.349 87.9321 237.765 87.8322C238.539 87.6463 238.953 87.3794 239.16 87.1372C239.363 86.9003 239.372 86.686 239.337 86.5716C239.268 86.4229 239.175 86.3298 239.074 86.2727C238.97 86.214 238.848 86.1893 238.719 86.1899C238.458 86.191 238.185 86.2949 238.012 86.393C237.792 86.5379 237.527 86.5635 237.296 86.5441C237.062 86.5245 236.849 86.4576 236.72 86.4003L236.631 86.3607L236.653 86.2655C236.964 84.9135 237.059 82.892 236.344 81.2154C235.987 80.3795 235.43 79.631 234.598 79.0909C233.766 78.5506 232.652 78.2134 231.173 78.2134C229.694 78.2134 228.577 78.5506 227.739 79.091C226.902 79.6314 226.337 80.3802 225.973 81.2163ZM227.611 78.8921C228.493 78.3225 229.658 77.9766 231.173 77.9766C232.689 77.9766 233.85 78.3225 234.727 78.8922C235.604 79.4621 236.19 80.2506 236.562 81.1224C237.286 82.82 237.206 84.8399 236.906 86.2193C237.014 86.2575 237.16 86.295 237.316 86.3081C237.521 86.3254 237.726 86.2989 237.884 86.1936L237.888 86.1913L237.891 86.1893C238.086 86.0779 238.402 85.9545 238.718 85.953C238.877 85.9523 239.041 85.9827 239.19 86.0663C239.34 86.1506 239.466 86.285 239.555 86.4796L239.558 86.4853L239.559 86.4911C239.627 86.6935 239.593 86.9963 239.34 87.2914C239.088 87.5852 238.622 87.87 237.82 88.0625C237.448 88.1518 237.243 88.3119 237.138 88.4976C237.032 88.6859 237.017 88.9227 237.071 89.1887C237.18 89.7241 237.56 90.3208 237.883 90.709L237.884 90.71C238.167 91.0578 238.701 91.611 239.374 92.1315C240.048 92.6526 240.854 93.1349 241.683 93.35L241.786 93.3766L241.771 93.4814C241.707 93.9294 241.065 94.6979 239.208 94.8391L238.496 96.2629H235.479C234.8 96.9667 233.576 97.7926 232.055 98.0368C230.505 98.2855 228.657 97.9289 226.779 96.2493C226.306 96.0984 225.057 95.8935 223.718 96.2587L223.592 96.2932L223.57 96.1639C223.531 95.93 223.461 95.5801 223.378 95.2904C223.336 95.1447 223.293 95.0196 223.25 94.933C223.229 94.8898 223.211 94.8621 223.198 94.8468C222.854 94.8836 222.321 94.8671 221.79 94.7029C221.243 94.5335 220.687 94.2032 220.353 93.601L220.285 93.4794L220.416 93.4321C221.167 93.1601 222.313 92.5909 223.3 91.7715C224.265 90.9708 225.063 89.9443 225.214 88.736C224.701 88.545 223.997 88.2248 223.448 87.8436C223.158 87.6424 222.904 87.4185 222.745 87.1809C222.587 86.9434 222.518 86.6783 222.629 86.4115C222.669 86.265 222.801 86.1061 223.044 86.0365C223.289 85.966 223.639 85.9877 224.125 86.1822C224.245 86.2303 224.462 86.2905 224.708 86.308C224.925 86.3234 225.157 86.3051 225.364 86.2232C225.075 84.8436 225.014 82.821 225.755 81.1215C226.136 80.2499 226.728 79.4617 227.611 78.8921Z" fill="black"/>
</g>
<path d="M58.5996 148.5C58.5996 158.717 50.3169 167 40.0996 167C29.8823 167 21.5996 158.717 21.5996 148.5C21.5996 138.283 29.8823 130 40.0996 130C50.3169 130 58.5996 138.283 58.5996 148.5Z" fill="#10D538"/>
<path d="M52.5561 143.651C42.9881 138.043 32.141 139.7 27.9135 141.23C26.2947 143.398 27.9376 144.325 28.9613 144.518C38.7027 141.83 47.5938 144.795 50.8217 146.614C53.6545 146.614 53.1583 144.638 52.5561 143.651Z" fill="black"/>
<path d="M50.3158 149.865C43.0603 144.923 33.2491 146.072 29.2504 147.264C27.516 149.027 28.9613 149.974 29.9007 150.227C39.5554 147.799 46.57 150.685 48.8705 152.431C51.0673 152.402 50.7494 150.709 50.3158 149.865Z" fill="black"/>
<path d="M48.0033 155.177C41.933 151.217 33.4056 152.226 29.9007 153.226C28.6289 154.498 29.6599 155.249 30.3343 155.466C38.6593 153.067 44.7393 155.647 46.7386 157.237C48.8488 157.439 48.461 155.948 48.0033 155.177Z" fill="black"/>
<path d="M128.357 138.809H118.732C119.053 134.674 122.252 132.601 123.812 132.081L128.357 138.809Z" fill="#D9D9D9"/>
<path d="M128.357 138.809H118.732C119.053 134.674 122.252 132.601 123.812 132.081L128.357 138.809Z" fill="url(#paint3_linear_2783_147)"/>
<path d="M127.867 131.368L132.901 138.809H140.521L135.575 131.368H127.867Z" fill="#D9D9D9"/>
<path d="M127.867 131.368L132.901 138.809H140.521L135.575 131.368H127.867Z" fill="url(#paint4_linear_2783_147)"/>
<path d="M145.199 138.809L140.253 131.368H145.466C147.561 131.725 151.945 133.712 152.729 138.809H145.199Z" fill="#D9D9D9"/>
<path d="M145.199 138.809L140.253 131.368H145.466C147.561 131.725 151.945 133.712 152.729 138.809H145.199Z" fill="url(#paint5_linear_2783_147)"/>
<path fill-rule="evenodd" clip-rule="evenodd" d="M118.6 142.819V158.235C118.778 160.478 120.587 165.097 126.397 165.632H145.645C147.858 165.379 152.365 163.547 152.685 158.235V142.819H118.6ZM140.839 154.979C141.727 154.466 141.727 153.183 140.839 152.67L134.078 148.766C133.189 148.253 132.078 148.895 132.078 149.921V157.728C132.078 158.754 133.189 159.395 134.078 158.882L140.839 154.979Z" fill="url(#paint6_linear_2783_147)"/>
<g filter="url(#filter2_i_2783_147)">
<path d="M218.373 145.802V153.783C218.385 154.34 217.917 155.569 215.94 156.025C214.572 156.456 212.049 157.925 212.9 160.358C213.751 162.79 216.903 163.195 218.373 163.094H244.938C246.243 163.081 248.753 162.205 248.358 158.8C248.282 158.065 247.553 156.481 245.242 156.025C244.621 155.975 243.266 155.455 242.81 153.783V145.802C241.32 136.134 233.98 134.223 230.496 134.477C221.375 133.99 218.613 141.824 218.373 145.802Z" fill="#FFBD00"/>
</g>
<g filter="url(#filter3_i_2783_147)">
<path d="M230.202 167.955C226.846 167.71 226.135 164.612 226.199 163.094H235.012C234.766 167.136 231.703 168.019 230.202 167.955Z" fill="#FFBD00"/>
</g>
<path fill-rule="evenodd" clip-rule="evenodd" d="M230.501 134.211C231.404 134.211 232.135 133.479 232.135 132.576C232.135 131.674 231.404 130.942 230.501 130.942C229.599 130.942 228.867 131.674 228.867 132.576C228.867 133.479 229.599 134.211 230.501 134.211ZM230.501 136.111C232.453 136.111 234.036 134.528 234.036 132.576C234.036 130.624 232.453 129.042 230.501 129.042C228.549 129.042 226.967 130.624 226.967 132.576C226.967 134.528 228.549 136.111 230.501 136.111Z" fill="#FFBD00"/>
<g filter="url(#filter4_i_2783_147)">
<path d="M247.009 142.001C247.009 145.59 244.1 148.5 240.51 148.5C236.921 148.5 234.012 145.59 234.012 142.001C234.012 138.412 236.921 135.502 240.51 135.502C244.1 135.502 247.009 138.412 247.009 142.001Z" fill="#C82C03"/>
</g>
<path d="M238.334 145.534V145.054C238.515 145.054 238.766 145.038 239.085 145.007C239.405 144.975 239.704 144.905 239.981 144.799V138.915H238.494L238.446 138.403C239.416 138.254 240.269 138.024 241.004 137.715L241.324 137.923V144.799C241.601 144.905 241.9 144.975 242.219 145.007C242.55 145.038 242.8 145.054 242.971 145.054V145.534H238.334Z" fill="white"/>
<defs>
<filter id="filter0_d_2783_147" x="220.461" y="78.0952" width="23.7285" height="22.1445" filterUnits="userSpaceOnUse" color-interpolation-filters="sRGB">
<feFlood flood-opacity="0" result="BackgroundImageFix"/>
<feColorMatrix in="SourceAlpha" type="matrix" values="0 0 0 0 0 0 0 0 0 0 0 0 0 0 0 0 0 0 127 0" result="hardAlpha"/>
<feOffset dx="1.40625" dy="1.125"/>
<feGaussianBlur stdDeviation="0.5625"/>
<feComposite in2="hardAlpha" operator="out"/>
<feColorMatrix type="matrix" values="0 0 0 0 0 0 0 0 0 0 0 0 0 0 0 0 0 0 0.25 0"/>
<feBlend mode="normal" in2="BackgroundImageFix" result="effect1_dropShadow_2783_147"/>
<feBlend mode="normal" in="SourceGraphic" in2="effect1_dropShadow_2783_147" result="shape"/>
</filter>
<filter id="filter1_d_2783_147" x="220.285" y="77.9766" width="24.0312" height="22.3813" filterUnits="userSpaceOnUse" color-interpolation-filters="sRGB">
<feFlood flood-opacity="0" result="BackgroundImageFix"/>
<feColorMatrix in="SourceAlpha" type="matrix" values="0 0 0 0 0 0 0 0 0 0 0 0 0 0 0 0 0 0 127 0" result="hardAlpha"/>
<feOffset dx="1.40625" dy="1.125"/>
<feGaussianBlur stdDeviation="0.5625"/>
<feComposite in2="hardAlpha" operator="out"/>
<feColorMatrix type="matrix" values="0 0 0 0 0 0 0 0 0 0 0 0 0 0 0 0 0 0 0.25 0"/>
<feBlend mode="normal" in2="BackgroundImageFix" result="effect1_dropShadow_2783_147"/>
<feBlend mode="normal" in="SourceGraphic" in2="effect1_dropShadow_2783_147" result="shape"/>
</filter>
<filter id="filter2_i_2783_147" x="212.729" y="132.21" width="43.6534" height="30.8976" filterUnits="userSpaceOnUse" color-interpolation-filters="sRGB">
<feFlood flood-opacity="0" result="BackgroundImageFix"/>
<feBlend mode="normal" in="SourceGraphic" in2="BackgroundImageFix" result="shape"/>
<feColorMatrix in="SourceAlpha" type="matrix" values="0 0 0 0 0 0 0 0 0 0 0 0 0 0 0 0 0 0 127 0" result="hardAlpha"/>
<feOffset dx="7.9815" dy="-2.2448"/>
<feGaussianBlur stdDeviation="8.41336"/>
<feComposite in2="hardAlpha" operator="arithmetic" k2="-1" k3="1"/>
<feColorMatrix type="matrix" values="0 0 0 0 0 0 0 0 0 0 0 0 0 0 0 0 0 0 0.25 0"/>
<feBlend mode="normal" in2="shape" result="effect1_innerShadow_2783_147"/>
</filter>
<filter id="filter3_i_2783_147" x="226.195" y="163.094" width="13.0566" height="4.86475" filterUnits="userSpaceOnUse" color-interpolation-filters="sRGB">
<feFlood flood-opacity="0" result="BackgroundImageFix"/>
<feBlend mode="normal" in="SourceGraphic" in2="BackgroundImageFix" result="shape"/>
<feColorMatrix in="SourceAlpha" type="matrix" values="0 0 0 0 0 0 0 0 0 0 0 0 0 0 0 0 0 0 127 0" result="hardAlpha"/>
<feOffset dx="4.24017"/>
<feGaussianBlur stdDeviation="4.45218"/>
<feComposite in2="hardAlpha" operator="arithmetic" k2="-1" k3="1"/>
<feColorMatrix type="matrix" values="0 0 0 0 0 0 0 0 0 0 0 0 0 0 0 0 0 0 0.25 0"/>
<feBlend mode="normal" in2="shape" result="effect1_innerShadow_2783_147"/>
</filter>
<filter id="filter4_i_2783_147" x="234.012" y="135.502" width="16.656" height="12.9976" filterUnits="userSpaceOnUse" color-interpolation-filters="sRGB">
<feFlood flood-opacity="0" result="BackgroundImageFix"/>
<feBlend mode="normal" in="SourceGraphic" in2="BackgroundImageFix" result="shape"/>
<feColorMatrix in="SourceAlpha" type="matrix" values="0 0 0 0 0 0 0 0 0 0 0 0 0 0 0 0 0 0 127 0" result="hardAlpha"/>
<feOffset dx="4.57248"/>
<feGaussianBlur stdDeviation="1.82899"/>
<feComposite in2="hardAlpha" operator="arithmetic" k2="-1" k3="1"/>
<feColorMatrix type="matrix" values="0 0 0 0 0 0 0 0 0 0 0 0 0 0 0 0 0 0 0.25 0"/>
<feBlend mode="normal" in2="shape" result="effect1_innerShadow_2783_147"/>
</filter>
<linearGradient id="paint0_linear_2783_147" x1="50.9732" y1="15.6532" x2="27.9027" y2="46.4138" gradientUnits="userSpaceOnUse">
<stop stop-color="#1877F2"/>
<stop offset="1" stop-color="#0D52AA"/>
</linearGradient>
<linearGradient id="paint1_linear_2783_147" x1="122.145" y1="42.2725" x2="153.508" y2="19.8701" gradientUnits="userSpaceOnUse">
<stop stop-color="#FFCD52"/>
<stop offset="0.455" stop-color="#FD5341"/>
<stop offset="0.945" stop-color="#CF3B9C"/>
</linearGradient>
<linearGradient id="paint2_linear_2783_147" x1="49.4575" y1="72.7748" x2="28.9798" y2="101.633" gradientUnits="userSpaceOnUse">
<stop stop-color="#FF656C"/>
<stop offset="0.388223" stop-color="#D544B8"/>
<stop offset="1" stop-color="#466CFF"/>
</linearGradient>
<linearGradient id="paint3_linear_2783_147" x1="121.577" y1="138.155" x2="130.354" y2="120.338" gradientUnits="userSpaceOnUse">
<stop stop-color="#FC9655"/>
<stop offset="1" stop-color="#EF5294"/>
</linearGradient>
<linearGradient id="paint4_linear_2783_147" x1="121.577" y1="138.155" x2="130.354" y2="120.338" gradientUnits="userSpaceOnUse">
<stop stop-color="#FC9655"/>
<stop offset="1" stop-color="#EF5294"/>
</linearGradient>
<linearGradient id="paint5_linear_2783_147" x1="121.577" y1="138.155" x2="130.354" y2="120.338" gradientUnits="userSpaceOnUse">
<stop stop-color="#FC9655"/>
<stop offset="1" stop-color="#EF5294"/>
</linearGradient>
<linearGradient id="paint6_linear_2783_147" x1="121.451" y1="163.627" x2="152.73" y2="142.863" gradientUnits="userSpaceOnUse">
<stop stop-color="#FC9655"/>
<stop offset="1" stop-color="#EF5294"/>
</linearGradient>
</defs>
</svg>
