<svg width="22" height="22" viewBox="0 0 22 22" fill="none" xmlns="http://www.w3.org/2000/svg">
<g clip-path="url(#clip0_642_6960)">
<path d="M19.8 9.11487C20.3023 7.91655 20.5608 6.63019 20.5604 5.33087C20.5659 1.96075 18.8609 0 15.7355 0C12.5235 0 10.648 2.49012 10.648 5.775C10.5736 7.2436 10.9066 8.7042 11.6103 9.99537C12.314 11.2865 13.361 12.358 14.6355 13.0914C13.6703 15.0653 12.4003 16.875 10.8722 18.4539C8.35867 15.3849 6.08305 11.2915 5.14805 3.3H1.43555C3.15017 16.6073 8.2638 20.8423 9.61542 21.6562C9.92529 21.8727 10.2924 21.9924 10.6702 22.0002C11.0481 22.008 11.4199 21.9037 11.7384 21.7002C14.3843 19.5982 16.5125 16.9168 17.9589 13.8628C18.8358 13.8568 19.7094 13.7558 20.5645 13.5616V10.9491C20.0417 11.072 19.5066 11.1352 18.9695 11.1375C16.2195 11.1375 14.0965 9.19875 14.0965 5.82725C14.0965 4.17725 14.7304 3.3165 15.6255 3.3165C16.478 3.3165 17.0459 4.08787 17.0459 5.654C17.02 6.48251 16.8812 7.30362 16.6334 8.09463C16.9867 8.57631 17.483 8.93423 18.0516 9.11742C18.6201 9.30061 19.232 9.29972 19.8 9.11487Z" fill="black"/>
</g>
<defs>
<clipPath id="clip0_642_6960">
<rect width="22" height="22" fill="white"/>
</clipPath>
</defs>
</svg>
