<svg width="260" height="178" viewBox="0 0 260 178" fill="none" xmlns="http://www.w3.org/2000/svg">
<path fill-rule="evenodd" clip-rule="evenodd" d="M15.7715 11.2966C16.3209 10.7472 17.2118 10.7472 17.7612 11.2966L22.5514 16.0868C23.1008 16.6362 23.1008 17.5271 22.5514 18.0765C22.0019 18.626 21.1111 18.626 20.5616 18.0765L15.7715 13.2864C15.222 12.7369 15.222 11.8461 15.7715 11.2966Z" fill="#110638"/>
<path fill-rule="evenodd" clip-rule="evenodd" d="M9.58279 27.9924C9.58279 27.2154 10.2127 26.5855 10.9898 26.5855L17.764 26.5855C18.5411 26.5855 19.171 27.2154 19.171 27.9924C19.171 28.7695 18.5411 29.3994 17.764 29.3994L10.9898 29.3994C10.2127 29.3994 9.58279 28.7695 9.58279 27.9924Z" fill="#110638"/>
<path fill-rule="evenodd" clip-rule="evenodd" d="M47.8289 27.9924C47.8289 27.2154 48.4588 26.5855 49.2359 26.5855L56.0101 26.5855C56.7872 26.5855 57.4171 27.2154 57.4171 27.9924C57.4171 28.7695 56.7872 29.3994 56.0101 29.3994L49.2359 29.3994C48.4588 29.3994 47.8289 28.7695 47.8289 27.9924Z" fill="#110638"/>
<path fill-rule="evenodd" clip-rule="evenodd" d="M49.7012 11.2966C49.1517 10.7472 48.2609 10.7472 47.7114 11.2966L42.9213 16.0868C42.3718 16.6362 42.3718 17.5271 42.9213 18.0765C43.4707 18.626 44.3616 18.626 44.911 18.0765L49.7012 13.2864C50.2506 12.7369 50.2506 11.8461 49.7012 11.2966Z" fill="#110638"/>
<path fill-rule="evenodd" clip-rule="evenodd" d="M23.0918 38.4415C22.5424 37.8921 21.6515 37.8921 21.1021 38.4415L16.3119 43.2317C15.7625 43.7811 15.7625 44.672 16.3119 45.2214C16.8614 45.7709 17.7522 45.7709 18.3017 45.2214L23.0918 40.4313C23.6413 39.8818 23.6413 38.991 23.0918 38.4415Z" fill="#110638"/>
<path fill-rule="evenodd" clip-rule="evenodd" d="M42.9199 38.4415C43.4694 37.8921 44.3602 37.8921 44.9097 38.4415L49.6998 43.2317C50.2493 43.7811 50.2493 44.672 49.6998 45.2214C49.1504 45.7709 48.2595 45.7709 47.71 45.2214L42.9199 40.4313C42.3704 39.8818 42.3704 38.991 42.9199 38.4415Z" fill="#110638"/>
<path fill-rule="evenodd" clip-rule="evenodd" d="M32.7312 3.9657C33.5082 3.9657 34.1382 4.59562 34.1382 5.37267V12.824C34.1382 13.6011 33.5082 14.231 32.7312 14.231C31.9541 14.231 31.3242 13.6011 31.3242 12.824V5.37267C31.3242 4.59562 31.9541 3.9657 32.7312 3.9657Z" fill="#110638"/>
<path fill-rule="evenodd" clip-rule="evenodd" d="M32.7312 42.287C33.5082 42.287 34.1382 42.9169 34.1382 43.694V51.1453C34.1382 51.9223 33.5082 52.5523 32.7312 52.5523C31.9541 52.5523 31.3242 51.9223 31.3242 51.1453V43.694C31.3242 42.9169 31.9541 42.287 32.7312 42.287Z" fill="#110638"/>
<path d="M40.8685 22.7476C41.4602 22.3634 41.6337 21.5666 41.1841 21.0231C39.7807 19.3269 37.8966 18.0791 35.7657 17.4541C33.2242 16.7086 30.4998 16.8982 28.0861 17.9885C25.6724 19.0787 23.7291 20.9975 22.6082 23.3972C21.4874 25.7969 21.2633 28.5187 21.9764 31.0694C22.6895 33.6201 24.2927 35.831 26.4956 37.3014C28.6984 38.7719 31.3551 39.4046 33.9842 39.085C36.6134 38.7654 39.0411 37.5146 40.8274 35.5591C42.3253 33.9196 43.2891 31.8756 43.6092 29.6976C43.7118 28.9996 43.1502 28.4083 42.4451 28.3867C41.74 28.365 41.1605 28.9226 41.0339 29.6166C40.748 31.1833 40.0269 32.6477 38.9413 33.8361C37.5668 35.3406 35.6989 36.3031 33.6759 36.549C31.653 36.7949 29.6088 36.3081 27.9139 35.1767C26.219 34.0452 24.9854 32.3441 24.4367 30.3815C23.888 28.4189 24.0605 26.3247 24.9229 24.4783C25.7853 22.6319 27.2805 21.1555 29.1377 20.3166C30.9949 19.4778 33.0912 19.3319 35.0466 19.9055C36.5911 20.3585 37.9671 21.2367 39.0241 22.4279C39.4923 22.9556 40.2769 23.1318 40.8685 22.7476Z" fill="#FFC107"/>
<path fill-rule="evenodd" clip-rule="evenodd" d="M9.82812 155.799C9.82812 154.883 10.5708 154.14 11.487 154.14H53.3388C54.255 154.14 54.9977 154.883 54.9977 155.799C54.9977 156.715 54.255 157.458 53.3388 157.458H11.487C10.5708 157.458 9.82812 156.715 9.82812 155.799Z" fill="#1475C2"/>
<path fill-rule="evenodd" clip-rule="evenodd" d="M14.1172 163.311C14.1172 162.394 14.8599 161.652 15.7761 161.652H50.116C51.0322 161.652 51.7749 162.394 51.7749 163.311C51.7749 164.227 51.0322 164.969 50.116 164.969H15.7761C14.8599 164.969 14.1172 164.227 14.1172 163.311Z" fill="#1475C2"/>
<path fill-rule="evenodd" clip-rule="evenodd" d="M18.8766 131.762C13.5315 134.56 10.5096 141.318 13.5162 147.568C13.9134 148.393 13.5661 149.384 12.7405 149.782C11.9149 150.179 10.9236 149.832 10.5264 149.006C6.64723 140.943 10.6141 132.342 17.3376 128.822C20.7396 127.041 24.8683 126.537 29.063 128.008C33.1673 129.448 37.1879 132.724 40.6484 138.232C42.9151 137.573 46.0154 137.275 48.8339 138.486C51.9488 139.825 54.3261 142.833 54.9821 148.081C55.0958 148.99 54.4509 149.819 53.5418 149.933C52.6327 150.047 51.8035 149.402 51.6899 148.493C51.1476 144.154 49.3372 142.314 47.5236 141.534C45.5633 140.692 43.1747 140.904 41.3038 141.501C40.0799 141.892 38.7066 141.405 38.0194 140.288C34.8071 135.063 31.2571 132.294 27.9648 131.139C24.6845 129.988 21.5089 130.383 18.8766 131.762Z" fill="#110638"/>
<path fill-rule="evenodd" clip-rule="evenodd" d="M140.479 70.5342C135.654 68.9439 130.021 70.7971 128.425 75.5851L125.586 74.6386C127.869 67.791 135.572 65.766 141.415 67.6921C144.41 68.679 147.106 70.7332 148.55 73.8762C149.998 77.0288 150.089 81.0635 148.287 85.8281L145.488 84.7691C147.08 80.562 146.868 77.3831 145.831 75.1254C144.789 72.8582 142.818 71.3054 140.479 70.5342Z" fill="#FFC107"/>
<path fill-rule="evenodd" clip-rule="evenodd" d="M138.616 80.2074C137.868 78.4762 136.285 77.0129 134.434 75.9387C132.332 74.7191 129.68 73.8763 126.873 73.6684C121.217 73.2495 114.789 75.4215 111.039 82.453M138.616 80.2074C142.213 79.9612 145.104 81.0613 147.177 82.9859C149.34 84.9929 150.502 87.7904 150.756 90.5755C151.009 93.355 150.371 96.2557 148.759 98.5012C147.115 100.792 144.506 102.322 141.073 102.322L122.962 102.322C119.403 102.322 116.606 101.459 114.489 99.9724C112.374 98.4863 111.049 96.4539 110.305 94.3027C108.845 90.0837 109.555 85.2351 111.039 82.4531M126.652 76.6528C121.954 76.3048 116.774 78.0598 113.68 83.8614L113.68 83.8614C112.571 85.9387 111.956 89.9241 113.133 93.3243C113.706 94.9827 114.69 96.4562 116.209 97.5236C117.729 98.5908 119.894 99.329 122.962 99.329L141.073 99.329C143.519 99.329 145.233 98.2822 146.328 96.7561C147.456 95.1848 147.975 93.0286 147.776 90.8474C147.577 88.6716 146.677 86.6045 145.142 85.1793C143.638 83.7837 141.413 82.8974 138.309 83.2386C137.2 83.3605 136.265 82.6214 135.977 81.6869C135.676 80.7083 134.67 79.5353 132.932 78.5271C131.235 77.5427 129.024 76.8284 126.652 76.6528Z" fill="#110638"/>
<path fill-rule="evenodd" clip-rule="evenodd" d="M106.641 157.449C106.641 156.602 107.327 155.916 108.173 155.916H131.226C132.072 155.916 132.758 156.602 132.758 157.449C132.758 158.295 132.072 158.981 131.226 158.981H108.173C107.327 158.981 106.641 158.295 106.641 157.449Z" fill="#FFC107"/>
<path fill-rule="evenodd" clip-rule="evenodd" d="M134.211 157.449C134.211 156.602 134.897 155.916 135.743 155.916H152.294C153.14 155.916 153.826 156.602 153.826 157.449C153.826 158.295 153.14 158.981 152.294 158.981H135.743C134.897 158.981 134.211 158.295 134.211 157.449Z" fill="#FFC107"/>
<path fill-rule="evenodd" clip-rule="evenodd" d="M111.969 165.724C111.969 164.877 112.655 164.191 113.501 164.191H134.78C135.627 164.191 136.313 164.877 136.313 165.724C136.313 166.57 135.627 167.256 134.78 167.256H113.501C112.655 167.256 111.969 166.57 111.969 165.724Z" fill="#FFC107"/>
<path fill-rule="evenodd" clip-rule="evenodd" d="M137.766 165.724C137.766 164.877 138.452 164.191 139.298 164.191H149.938C150.784 164.191 151.47 164.877 151.47 165.724C151.47 166.57 150.784 167.256 149.938 167.256H139.298C138.452 167.256 137.766 166.57 137.766 165.724Z" fill="#FFC107"/>
<path fill-rule="evenodd" clip-rule="evenodd" d="M104.871 150.355C104.871 149.509 105.557 148.823 106.404 148.823H113.497C114.343 148.823 115.029 149.509 115.029 150.355C115.029 151.202 114.343 151.888 113.497 151.888H106.404C105.557 151.888 104.871 151.202 104.871 150.355Z" fill="#FFC107"/>
<path fill-rule="evenodd" clip-rule="evenodd" d="M111.243 129.53C111.758 128.858 112.72 128.732 113.391 129.247L119.018 133.566C119.689 134.081 119.816 135.043 119.301 135.715C118.785 136.386 117.823 136.513 117.152 135.997L111.525 131.678C110.854 131.163 110.727 130.201 111.243 129.53Z" fill="#110638"/>
<path fill-rule="evenodd" clip-rule="evenodd" d="M131.089 122.815C131.935 122.815 132.621 123.501 132.621 124.348L132.621 131.441C132.621 132.287 131.935 132.973 131.089 132.973C130.242 132.973 129.556 132.287 129.556 131.441L129.556 124.348C129.556 123.501 130.242 122.815 131.089 122.815Z" fill="#110638"/>
<path fill-rule="evenodd" clip-rule="evenodd" d="M149.3 129.53C148.785 128.858 147.823 128.732 147.152 129.247L141.525 133.566C140.854 134.081 140.727 135.043 141.242 135.715C141.758 136.386 142.72 136.513 143.391 135.997L149.018 131.678C149.689 131.163 149.816 130.201 149.3 129.53Z" fill="#110638"/>
<path fill-rule="evenodd" clip-rule="evenodd" d="M146.84 150.355C146.84 149.509 147.526 148.823 148.372 148.823H155.465C156.312 148.823 156.998 149.509 156.998 150.355C156.998 151.202 156.312 151.888 155.465 151.888H148.372C147.526 151.888 146.84 151.202 146.84 150.355Z" fill="#FFC107"/>
<path fill-rule="evenodd" clip-rule="evenodd" d="M128.991 139.906C123.928 140.564 119.507 144.735 119.759 150.287C119.798 151.133 119.143 151.849 118.298 151.888C117.453 151.926 116.736 151.272 116.697 150.427C116.358 142.973 122.281 137.687 128.596 136.867C131.798 136.451 135.189 137.157 138.029 139.332C140.872 141.509 143.028 145.055 143.969 150.075C144.125 150.907 143.577 151.708 142.746 151.864C141.914 152.02 141.113 151.472 140.957 150.64C140.125 146.202 138.29 143.393 136.165 141.765C134.036 140.134 131.478 139.583 128.991 139.906Z" fill="#110638"/>
<path fill-rule="evenodd" clip-rule="evenodd" d="M224.283 58.9294C225.111 58.9294 225.782 59.6002 225.782 60.4277V67.4388C225.782 68.2662 225.111 68.937 224.283 68.937C223.456 68.937 222.785 68.2662 222.785 67.4388V60.4277C222.785 59.6002 223.456 58.9294 224.283 58.9294Z" fill="#110638"/>
<path fill-rule="evenodd" clip-rule="evenodd" d="M204.602 67.3421C205.075 66.6629 206.009 66.4956 206.688 66.9684L212.442 70.9739C213.121 71.4466 213.288 72.3804 212.816 73.0595C212.343 73.7387 211.409 73.906 210.73 73.4332L204.976 69.4278C204.297 68.955 204.129 68.0212 204.602 67.3421Z" fill="#110638"/>
<path fill-rule="evenodd" clip-rule="evenodd" d="M235.907 96.9642C236.38 96.285 237.313 96.1177 237.992 96.5905L243.747 100.596C244.426 101.069 244.593 102.002 244.12 102.682C243.648 103.361 242.714 103.528 242.035 103.055L236.28 99.0498C235.601 98.5771 235.434 97.6433 235.907 96.9642Z" fill="#110638"/>
<path fill-rule="evenodd" clip-rule="evenodd" d="M244.061 67.0761C243.545 66.4296 242.602 66.3241 241.955 66.8405L236.477 71.216C235.831 71.7324 235.725 72.6752 236.242 73.3218C236.758 73.9683 237.701 74.0738 238.347 73.5574L243.825 69.1819C244.472 68.6655 244.577 67.7227 244.061 67.0761Z" fill="#110638"/>
<path fill-rule="evenodd" clip-rule="evenodd" d="M251 84.416C251 83.5885 250.329 82.9177 249.502 82.9177L242.491 82.9177C241.663 82.9177 240.992 83.5885 240.992 84.416C240.992 85.2435 241.663 85.9143 242.491 85.9143L249.502 85.9143C250.329 85.9143 251 85.2435 251 84.416Z" fill="#110638"/>
<path fill-rule="evenodd" clip-rule="evenodd" d="M205.258 85.5505C205.258 84.723 205.929 84.0522 206.756 84.0522H220.194C221.021 84.0522 221.692 84.723 221.692 85.5505C221.692 86.378 221.021 87.0488 220.194 87.0488H206.756C205.929 87.0488 205.258 86.378 205.258 85.5505Z" fill="#FF7A55"/>
<path fill-rule="evenodd" clip-rule="evenodd" d="M200 96.6517C200 95.8242 200.671 95.1534 201.498 95.1534L220.194 95.1534C221.022 95.1534 221.693 95.8242 221.693 96.6517C221.693 97.4792 221.022 98.15 220.194 98.15L201.498 98.15C200.671 98.15 200 97.4792 200 96.6517Z" fill="#FF7A55"/>
<path fill-rule="evenodd" clip-rule="evenodd" d="M208.766 104.831C208.766 104.004 209.436 103.333 210.264 103.333L231.297 103.333C232.124 103.333 232.795 104.004 232.795 104.831C232.795 105.659 232.124 106.329 231.297 106.329L210.264 106.329C209.436 106.329 208.766 105.659 208.766 104.831Z" fill="#FF7A55"/>
<path d="M225.451 96.3951C225.451 97.1819 226.091 97.8278 226.873 97.7408C228.912 97.5139 230.875 96.801 232.592 95.6535C234.706 94.2411 236.353 92.2336 237.326 89.885C238.299 87.5363 238.554 84.9519 238.058 82.4585C237.562 79.9652 236.338 77.6749 234.54 75.8773C232.742 74.0797 230.452 72.8555 227.959 72.3595C225.465 71.8636 222.881 72.1181 220.532 73.091C218.184 74.0638 216.176 75.7113 214.764 77.8251C213.616 79.5425 212.903 81.5052 212.676 83.5444C212.589 84.3264 213.235 84.9661 214.022 84.9661C214.809 84.9661 215.436 84.3251 215.548 83.5463C215.759 82.0717 216.298 80.6566 217.133 79.408C218.232 77.7627 219.795 76.4805 221.623 75.7232C223.451 74.966 225.462 74.7679 227.403 75.1539C229.344 75.54 231.126 76.4928 232.525 77.8919C233.924 79.2911 234.877 81.0737 235.263 83.0144C235.649 84.955 235.451 86.9666 234.694 88.7946C233.937 90.6227 232.654 92.1852 231.009 93.2845C229.761 94.1188 228.346 94.6578 226.871 94.8693C226.092 94.9809 225.451 95.6083 225.451 96.3951Z" fill="#110638"/>
<path fill-rule="evenodd" clip-rule="evenodd" d="M207.651 144.268C207.845 148.213 209.756 152.307 214.21 155.515C214.801 155.94 214.935 156.763 214.51 157.353C214.085 157.944 213.261 158.078 212.671 157.652C207.588 153.992 205.255 149.168 205.02 144.398C204.787 139.665 206.621 135.063 209.718 131.786C212.824 128.499 217.253 126.497 222.187 127.11C226.944 127.702 231.937 130.694 236.523 136.825C241.045 136.125 245.954 137.559 248.463 141.327C251.197 145.435 250.65 151.611 245.022 159.271C244.592 159.857 243.767 159.983 243.181 159.552C242.595 159.122 242.469 158.297 242.9 157.711C248.259 150.416 248.094 145.528 246.27 142.787C244.378 139.946 240.261 138.682 236.229 139.558L235.383 139.743L234.879 139.038C230.444 132.848 225.85 130.22 221.862 129.724C217.878 129.229 214.249 130.826 211.632 133.596C209.006 136.375 207.455 140.285 207.651 144.268Z" fill="#110638"/>
<path d="M218.719 163.863C218.719 164.616 218.109 165.226 217.356 165.226C216.603 165.226 215.992 164.616 215.992 163.863C215.992 163.11 216.603 162.5 217.356 162.5C218.109 162.5 218.719 163.11 218.719 163.863Z" fill="#1475C2"/>
<path d="M224.227 161.293C224.227 162.046 223.616 162.656 222.863 162.656C222.11 162.656 221.5 162.046 221.5 161.293C221.5 160.54 222.11 159.929 222.863 159.929C223.616 159.929 224.227 160.54 224.227 161.293Z" fill="#1475C2"/>
<path d="M234.508 161.293C234.508 162.046 233.898 162.656 233.145 162.656C232.392 162.656 231.781 162.046 231.781 161.293C231.781 160.54 232.392 159.929 233.145 159.929C233.898 159.929 234.508 160.54 234.508 161.293Z" fill="#1475C2"/>
<path d="M218.266 168.862C218.266 169.615 217.656 170.226 216.903 170.226C216.149 170.226 215.539 169.615 215.539 168.862C215.539 168.109 216.149 167.499 216.903 167.499C217.656 167.499 218.266 168.109 218.266 168.862Z" fill="#1475C2"/>
<path d="M223.77 166.291C223.77 167.044 223.159 167.655 222.406 167.655C221.653 167.655 221.043 167.044 221.043 166.291C221.043 165.538 221.653 164.928 222.406 164.928C223.159 164.928 223.77 165.538 223.77 166.291Z" fill="#1475C2"/>
<path d="M234.059 166.291C234.059 167.044 233.448 167.655 232.695 167.655C231.942 167.655 231.332 167.044 231.332 166.291C231.332 165.538 231.942 164.928 232.695 164.928C233.448 164.928 234.059 165.538 234.059 166.291Z" fill="#1475C2"/>
<path d="M229.188 171.135C229.188 171.888 228.577 172.499 227.824 172.499C227.071 172.499 226.461 171.888 226.461 171.135C226.461 170.382 227.071 169.772 227.824 169.772C228.577 169.772 229.188 170.382 229.188 171.135Z" fill="#1475C2"/>
<path d="M229.649 166.135C229.649 166.888 229.038 167.499 228.285 167.499C227.532 167.499 226.922 166.888 226.922 166.135C226.922 165.382 227.532 164.772 228.285 164.772C229.038 164.772 229.649 165.382 229.649 166.135Z" fill="#1475C2"/>
<path d="M241.032 168.408C241.032 169.161 240.421 169.772 239.668 169.772C238.915 169.772 238.305 169.161 238.305 168.408C238.305 167.655 238.915 167.045 239.668 167.045C240.421 167.045 241.032 167.655 241.032 168.408Z" fill="#1475C2"/>
<path d="M241.032 163.863C241.032 164.616 240.421 165.226 239.668 165.226C238.915 165.226 238.305 164.616 238.305 163.863C238.305 163.11 238.915 162.5 239.668 162.5C240.421 162.5 241.032 163.11 241.032 163.863Z" fill="#1475C2"/>
<path fill-rule="evenodd" clip-rule="evenodd" d="M213.765 9.03362C210.762 9.35726 207.819 10.7217 205.921 12.75C202.219 16.7049 202.057 23.2633 205.85 26.8018C207.558 28.3952 210.064 29.2248 212.3 29.6337C213.395 29.8339 214.374 29.9243 215.079 29.9643C215.43 29.9843 215.71 29.9916 215.899 29.994C215.993 29.9952 216.065 29.9952 216.111 29.9949C216.134 29.9948 216.15 29.9946 216.16 29.9944L216.168 29.9943L216.169 29.9943C216.986 29.9755 217.664 30.6224 217.683 31.4394C217.702 32.2567 217.055 32.9347 216.238 32.9539L216.203 31.4741C216.238 32.9539 216.237 32.9539 216.237 32.9539L216.236 32.9539L216.226 32.9541L216.204 32.9545C216.186 32.9548 216.161 32.9551 216.129 32.9553C216.065 32.9557 215.975 32.9557 215.861 32.9542C215.634 32.9513 215.31 32.9427 214.911 32.92C214.114 32.8747 213.009 32.7729 211.767 32.5458C209.33 32.1001 206.155 31.1348 203.83 28.9665C198.652 24.1356 199.124 15.6798 203.759 10.727C206.206 8.11294 209.838 6.47926 213.447 6.09024C217.054 5.70148 220.876 6.53833 223.53 9.19585C224.97 10.638 225.798 12.9111 226.266 14.5959C226.341 14.8651 226.408 15.1268 226.469 15.3771C228.258 14.3837 230.393 14.0326 232.377 14.4806C235.355 15.1529 237.785 17.5681 238.305 21.72C238.406 22.5312 237.831 23.271 237.019 23.3725C236.208 23.4739 235.468 22.8985 235.367 22.0873C234.989 19.0644 233.383 17.7425 231.725 17.3683C229.934 16.9637 227.855 17.6085 226.564 19.0168L224.405 21.3709L224.004 18.2031L224.004 18.2024L224.004 18.202L224.003 18.1947C224.003 18.1895 224.002 18.1818 224 18.1718C224 18.1675 223.999 18.1626 223.998 18.1573C223.994 18.1228 223.986 18.0693 223.975 17.9989C223.954 17.8581 223.92 17.6504 223.873 17.3925C223.778 16.8749 223.629 16.1636 223.414 15.3887C222.961 13.7616 222.294 12.1474 221.435 11.2877C219.596 9.44567 216.77 8.70971 213.765 9.03362Z" fill="#110638"/>
<path fill-rule="evenodd" clip-rule="evenodd" d="M246.269 36.6926C244.335 37.3659 241.826 37.6057 238.861 37.182C238.052 37.0664 237.489 36.3166 237.605 35.5074C237.721 34.6981 238.47 34.1357 239.28 34.2514C241.874 34.622 243.893 34.3852 245.295 33.8968C246.739 33.394 247.372 32.6922 247.549 32.2581C247.629 32.0631 247.624 31.9189 247.587 31.8004C247.547 31.6731 247.433 31.4643 247.114 31.2238C246.446 30.7193 245.032 30.207 242.565 30.207C241.748 30.207 241.085 29.5443 241.085 28.7268C241.085 27.9093 241.748 27.2466 242.565 27.2466C245.341 27.2466 247.501 27.8066 248.898 28.8609C249.612 29.3999 250.153 30.092 250.411 30.9142C250.672 31.7451 250.608 32.5988 250.29 33.3768C249.673 34.8888 248.161 36.0338 246.269 36.6926Z" fill="#FF7A55"/>
<path fill-rule="evenodd" clip-rule="evenodd" d="M230.606 24.5969C230.606 23.7794 231.269 23.1167 232.086 23.1167C234.564 23.1167 236.65 23.5847 238.203 24.3672C239.698 25.1205 240.964 26.3186 241.178 27.8919C241.413 29.6168 240.31 30.9873 238.764 31.8036C237.225 32.6163 234.988 33.067 232.086 33.067H216.316C213.981 33.067 212.927 34.597 212.902 36.0596C212.89 36.8149 213.154 37.5351 213.665 38.061C214.162 38.5716 214.993 39.0028 216.316 39.0028H235.263C237.208 39.0028 238.826 39.4207 240.011 40.1798C241.2 40.941 242.019 42.1092 242.034 43.4858C242.048 44.87 241.245 46.0523 240.05 46.8214C238.863 47.5845 237.234 48 235.263 48C234.446 48 233.783 47.3373 233.783 46.5198C233.783 45.7023 234.446 45.0395 235.263 45.0395C236.851 45.0395 237.875 44.7004 238.448 44.3317C239.012 43.9689 239.075 43.642 239.073 43.517C239.072 43.3844 238.993 43.0434 238.415 42.6728C237.833 42.3 236.814 41.9633 235.263 41.9633H216.316C214.303 41.9633 212.669 41.2825 211.543 40.125C210.432 38.9829 209.918 37.479 209.942 36.0103C209.992 33.0248 212.274 30.1066 216.316 30.1066H232.086C234.744 30.1066 236.439 29.6836 237.382 29.1857C238.304 28.6987 238.25 28.3256 238.245 28.2931L238.245 28.2919C238.221 28.1177 237.977 27.5682 236.871 27.011C235.823 26.4829 234.216 26.0771 232.086 26.0771C231.269 26.0771 230.606 25.4144 230.606 24.5969Z" fill="#FF7A55"/>
<path fill-rule="evenodd" clip-rule="evenodd" d="M134.201 8.55074C130.554 8.27146 126.892 10.4712 126.245 14.5418C126.188 14.9014 125.979 15.2188 125.671 15.4129C125.363 15.6071 124.986 15.6589 124.637 15.5553C121.072 14.4969 119.052 15.3834 117.86 16.6288C116.569 17.9797 116.02 19.9978 115.952 21.4788C115.929 21.9809 115.61 22.4216 115.141 22.6011C111.359 24.0472 110.344 26.4658 110.556 28.24C110.777 30.0909 112.332 31.6949 114.689 31.6949H119.612C120.31 31.6949 120.876 32.2608 120.876 32.9588C120.876 33.6569 120.31 34.2228 119.612 34.2228H114.689C111.047 34.2228 108.418 31.6575 108.046 28.5393C107.686 25.5218 109.437 22.3655 113.497 20.5466C113.72 18.7777 114.437 16.5512 116.034 14.8816C117.786 13.0496 120.422 12.068 124.054 12.8051C125.477 8.07366 130.091 5.70069 134.394 6.03021C136.763 6.21168 139.11 7.20598 140.864 9.11441C142.428 10.8153 143.455 13.1701 143.667 16.1488C144.001 16.2002 144.327 16.2708 144.645 16.3598C147.574 17.1793 149.535 19.4819 150.419 22.0693C151.3 24.6445 151.172 27.6543 149.761 30.0659C148.313 32.5414 145.608 34.2228 141.716 34.2228C141.018 34.2228 140.452 33.6569 140.452 32.9588C140.452 32.2608 141.018 31.6949 141.716 31.6949C144.801 31.6949 146.629 30.4148 147.579 28.7894C148.568 27.1002 148.705 24.8697 148.027 22.8873C147.354 20.9172 145.932 19.3449 143.964 18.7942C142.004 18.2457 139.192 18.6265 135.58 21.2172C135.012 21.624 134.223 21.4939 133.816 20.9267C133.409 20.3594 133.539 19.5697 134.106 19.1629C136.629 17.3535 138.992 16.3851 141.129 16.122C140.923 13.7434 140.097 12.0151 139.003 10.8252C137.727 9.43656 136 8.68857 134.201 8.55074Z" fill="#110638"/>
<path fill-rule="evenodd" clip-rule="evenodd" d="M128.523 36.1553C128.997 36.6669 128.968 37.4667 128.456 37.9416L118.022 47.628C117.511 48.103 116.711 48.0733 116.236 47.5617C115.761 47.0501 115.791 46.2503 116.302 45.7754L126.736 36.089C127.248 35.614 128.048 35.6438 128.523 36.1553Z" fill="#1475C2"/>
<path fill-rule="evenodd" clip-rule="evenodd" d="M130.402 28.2482C130.881 28.7559 130.858 29.5559 130.35 30.0349L122.041 37.8734C121.534 38.3525 120.734 38.3292 120.255 37.8214C119.776 37.3136 119.799 36.5137 120.307 36.0347L128.616 28.1961C129.123 27.7171 129.923 27.7404 130.402 28.2482Z" fill="#1475C2"/>
<path fill-rule="evenodd" clip-rule="evenodd" d="M135.527 36.4373C136.021 36.9309 136.021 37.7312 135.527 38.2248L126.591 47.1608C126.098 47.6544 125.297 47.6544 124.804 47.1608C124.31 46.6672 124.31 45.8669 124.804 45.3733L133.74 36.4373C134.233 35.9437 135.034 35.9437 135.527 36.4373Z" fill="#1475C2"/>
<path fill-rule="evenodd" clip-rule="evenodd" d="M138.878 43.7663C139.372 44.2599 139.372 45.0602 138.878 45.5538L134.802 49.6299C134.309 50.1235 133.508 50.1235 133.015 49.6299C132.521 49.1362 132.521 48.336 133.015 47.8424L137.091 43.7663C137.584 43.2727 138.385 43.2727 138.878 43.7663Z" fill="#1475C2"/>
<path fill-rule="evenodd" clip-rule="evenodd" d="M143.076 36.4373C143.57 36.9309 143.57 37.7312 143.076 38.2248L139.47 41.8306C138.977 42.3242 138.176 42.3242 137.683 41.8306C137.189 41.337 137.189 40.5367 137.683 40.0431L141.288 36.4373C141.782 35.9437 142.582 35.9437 143.076 36.4373Z" fill="#1475C2"/>
<path fill-rule="evenodd" clip-rule="evenodd" d="M11.1937 64.1975C11.7207 63.676 12.5706 63.6804 13.0921 64.2073L24.013 75.2425L24.0154 75.2449L45.9746 97.3197L54.2548 105.715C54.7754 106.243 54.7695 107.093 54.2417 107.613C53.7139 108.134 52.8639 108.128 52.3433 107.6L44.4594 99.6068H17.1975C13.8778 99.6068 11.5068 98.199 10.1869 96.0919C8.90435 94.0442 8.70819 91.4865 9.37272 89.2825C10.0402 87.0687 11.6316 85.0503 14.0942 84.2756C15.8004 83.7388 17.765 83.8479 19.9088 84.7138C19.2324 81.0376 20.1985 78.0775 21.2977 76.3156L11.1838 66.0959C10.6623 65.5689 10.6668 64.719 11.1937 64.1975ZM23.263 78.2955C22.4127 80.0033 21.7265 83.0596 23.3764 86.9304L25.1823 91.1675L21.3827 88.5642C18.4912 86.583 16.3329 86.3858 14.9 86.8366C13.4569 87.2906 12.4111 88.5059 11.9432 90.0576C11.4724 91.619 11.6428 93.3585 12.4622 94.6667C13.2444 95.9154 14.7108 96.922 17.1975 96.922H41.792L23.263 78.2955Z" fill="#1475C2"/>
<path fill-rule="evenodd" clip-rule="evenodd" d="M37.9304 73.7224C35.0522 72.303 31.3387 72.1931 28.7694 72.573C28.036 72.6815 27.3536 72.1749 27.2451 71.4414C27.1366 70.708 27.6433 70.0256 28.3767 69.9171C31.2496 69.4922 35.5728 69.5662 39.1179 71.3144C40.9164 72.2014 42.5455 73.5363 43.6422 75.4772C44.4792 76.9584 44.9713 78.7307 45.037 80.8193C45.8249 80.6803 46.6486 80.6759 47.4511 80.7879C49.0325 81.0087 50.6523 81.6956 51.9413 82.8722C53.246 84.0631 54.1887 85.7374 54.3969 87.8495C54.6034 89.9449 54.0791 92.3721 52.6401 95.097C52.2939 95.7526 51.4818 96.0034 50.8262 95.6572C50.1706 95.311 49.9198 94.4988 50.266 93.8433C51.529 91.4517 51.867 89.553 51.725 88.1129C51.5847 86.6896 50.968 85.6189 50.1313 84.8551C49.2789 84.0771 48.1752 83.5999 47.0799 83.447C45.971 83.2922 44.9898 83.4835 44.3402 83.8847L42.0547 85.2963L42.2979 82.621C42.531 80.0571 42.086 78.1803 41.3048 76.798C40.5227 75.414 39.3435 74.4192 37.9304 73.7224Z" fill="#110638"/>
</svg>
