<svg width="24" height="17" viewBox="0 0 24 17" fill="none" xmlns="http://www.w3.org/2000/svg">
<path fill-rule="evenodd" clip-rule="evenodd" d="M22.9814 1.5901C22.3304 0.432027 21.6313 0.219014 20.1853 0.138009C18.7392 0.0570036 15.1344 0 12.0007 0C8.86705 0 5.25033 0.0405026 3.81324 0.136509C2.37615 0.232515 1.6696 0.436527 1.01406 1.5886C0.358522 2.74067 0 4.7388 0 8.25051V8.26402C0 11.7562 0.345022 13.7634 1.01556 14.9079C1.68611 16.0525 2.37915 16.276 3.81474 16.3735C5.25033 16.471 8.86705 16.501 12.0007 16.501C15.1344 16.501 18.7512 16.4515 20.1838 16.369C21.6163 16.2865 22.3289 16.0615 22.9799 14.9034C23.6595 13.7589 24 11.7532 24 8.25951V8.25051C24.0015 4.7388 23.6595 2.74667 22.9814 1.5901ZM9.00056 12.7508V3.75023L16.501 8.25051L9.00056 12.7508Z" fill="black"/>
</svg>
